<svg version="1.1" id="Layer_1" xmlns="http://www.w3.org/2000/svg" xmlns:xlink="http://www.w3.org/1999/xlink" x="0px" y="0px" viewBox="0 0 32 22" style="enable-background:new 0 0 32 22;" xml:space="preserve" width="32px" height="22px" fill="#333">

<style type="text/css">
	.primary{fill:#FFCC22;}
	.grey{fill:#808082;}
	.shadow{opacity:0.3;}
	.window{fill:#BBE3F3;}
</style>

<polygon class="primary" points="26,19 14,19 14,8 25,11 "/>
<polygon class="shadow" points="14,13 14,16 19,16 18,18 14,18 14,19 26,19 26,16 "/>
<path class="grey" d="M10,17l-7,1c0,0,2-9.4,2-10s0-1,0-1L3,1l2,1l4,6L10,17z"/>
<polygon class="black" points="8,5 16,5 18,15 12,15 6,19 6,15 "/>
<path class="black" d="M5,2c0-1.1-0.9-2-2-2S1,0.9,1,2L0,9l0,3l3-2C3,10,5,2.3,5,2z"/>
<path class="primary" d="M6,11L3,7v2l-3,3c0,0,0,0.6,1,1c0.4,0.2,1.2,0.4,3,1c1.1,0,2-0.9,2-2C6,11.7,6,11,6,11z"/>
<polygon class="primary" points="8,4 17,4 16,5 8,5 "/>
<path class="primary" d="M3,17c-0.6,0-1,0.4-1,1c0,0.6,0.4,1,1,1h7l-4-4L3,17z"/>
<path class="grey" d="M28,22l-2-9c0,0-6-2-7-2c-0.6,0-1,0.4-1,1c0,0.6,0.4,1,1,1l4,1l3,8H28z"/>
<circle class="black" cx="10.5" cy="17.5" r="4.5"/>
<circle class="primary" cx="10.5" cy="17.5" r="2.5"/>
<circle class="black" cx="22" cy="19" r="3"/>
<circle class="primary" cx="22" cy="19" r="1.5"/>
<polygon class="black" points="28,15 31,21 32,22 26,22 "/>
<polygon class="grey" points="13,12 7,12 8,13 13,13 15,14 "/>
<path class="window" d="M11.5,11H8l1-5h2.5V11z M15,6h-3v5h2l2,3h1L15,6z"/>
<polygon class="shadow" points="26,15 23.4,15 23,14 "/>

</svg>
