<?xml version="1.0" encoding="utf-8"?>
<svg version="1.0" id="Layer_2" xmlns="http://www.w3.org/2000/svg" xmlns:xlink="http://www.w3.org/1999/xlink" x="0px" y="0px"
	 viewBox="0 0 32 32" style="enable-background:new 0 0 32 32;" xml:space="preserve" width="32px" height="32px" fill="#333">
<style type="text/css">
	.primary{fill:#FFCC22;}
	.secondary{fill:#808082;}
	.tertiary{fill:#333333;}
	.quaterary{fill:#F5002C;}
	.window{opacity:0.3;fill:#5DC9E8;}
</style>
<polygon class="tertiary" points="4.51,12.17 3.96,12.17 3.55,12.66 3.91,12.66 3.91,13.19 4.58,13.19 4.58,12.66 4.99,12.66 "/>
<polygon class="primary" points="0.74,19.02 0.14,18.63 0.12,18.11 0.49,18.01 0.93,17.95 "/>
<path class="primary" d="M12.55,20.6l-7.9-0.02L3.6,20.73l-2.86-1.72L1,17.54l0.44-2.55c0.14-0.43,0.13-0.45,0.51-0.82l1.63-0.83
	l1.94-0.73l1.91-0.48l1.91,0.84L12.55,20.6z"/>
<path class="secondary" d="M5.97,16.04l-3.03,1.88c-0.22,0.15-0.52,0.02-0.55-0.24l-0.18-1.6c-0.03-0.22,0.05-0.45,0.22-0.59
	l2.31-1.61c0.15-0.13,0.38-0.11,0.51,0.04l0.79,1.6C6.17,15.69,6.14,15.92,5.97,16.04z"/>
<polygon class="primary" points="13.85,19.35 17.13,19.33 17.13,18.83 16.96,18.93 13.84,18.95 "/>
<polygon class="primary" points="13.94,18.45 17.13,18.43 17.13,17.42 16.97,17.63 13.93,17.65 "/>
<polygon class="secondary" points="21.21,17.93 23.82,16.87 23.44,15.93 23.38,16.18 20.91,17.19 "/>
<path class="window" d="M15.1,14.18c-0.37-2.7-1.06-4.53-1.36-5.71c-2.03-0.01-3.7,0-5.73-0.01c-0.01,0-0.01,0-0.01,0.01l-0.58,3.67
	l1.91,0.84l4.5,2.51l1.19,0.45C15.04,15.61,15.11,14.25,15.1,14.18z"/>
<path class="primary" d="M17.86,13.92c-0.12-0.25-1.22-0.18-1.22-0.18l0.01,6.07c-0.03,0.44,0.18,0.81,0.47,0.83l1.71,0.1
	c0.3,0.02,0.56-0.35,0.56-0.8l0.09-1.58c0-0.58,0.06-1.05,0.06-1.05L17.86,13.92z"/>
<circle class="tertiary" cx="19.89" cy="20.64" r="3.02"/>
<circle class="primary" cx="19.89" cy="20.64" r="1.51"/>
<polyline class="secondary" points="20.23,14.94 22.9,14.94 22.9,14.59 20.09,14.59 "/>
<path class="tertiary" d="M25.36,21.49l-0.58-0.32c-0.42-0.32-0.76-0.72-1.01-1.19l-0.2-0.39c0.03-0.06,0.05-0.13,0.05-0.2L24,17.96
	c0.08-0.28,0.09-0.58,0.05-0.87l-0.37-1.45l-0.06-0.96c0-0.24-0.2-0.44-0.44-0.44c-0.24,0-0.44,0.2-0.44,0.44v0.54L22.56,16
	l0.37,1.11c0.09,0.28,0.11,0.58,0.06,0.87l-0.07,0.38l-0.18-0.35c-0.03-0.06-0.06-0.12-0.11-0.17c-0.39-0.52-1.07-1.28-1.56-1.64
	c0,0-0.71-0.54-1.5-1.13h2.1l0.06-0.48h-2.82c-0.43-0.31-0.84-0.59-1.13-0.77c-0.2-0.12-1.13-0.08-1.13-0.06l0.01,0.76
	c0.01,0,0.13,0.05,0.29,0.11c0.66,0.28,1.27,0.67,1.8,1.16c1.11,1.03,3.05,2.97,4.24,5.08c0.48,0.86,2.46,1.37,2.52,1.37
	L25.36,21.49z"/>
<path class="tertiary" d="M17.13,20.57l0-0.4l-0.25,0.08l-3.1,0.02l0.63-3.18c0,0,1.14,0.01,1.39-0.24c0.13-0.12,0.12-0.7,0.12-0.7
	s-0.08-1.23-0.29-1.58c-0.08-0.14-0.52-0.4-0.55-0.42c-0.35-2.56-0.9-4.49-1.2-5.68c-0.02-0.09-0.1-0.14-0.19-0.14
	c-0.37,0-0.74,0-1.11,0c-1.08,0-2.14,0-3.23,0c-0.43,0-0.86,0-1.29,0c0,0,0,0,0,0c-0.1,0-0.19,0.08-0.2,0.18l-0.43,3.52
	c-0.01,0.09,0.04,0.18,0.12,0.21l1.77,0.78l0.01,0.01l0.02,3.86c0.64,0.3,2.23,1.42,2.43,3.7L17.13,20.57z M7.96,11.89l0.37-3.04
	c0.31,0,0.62,0,0.92,0l0.08,3.64L7.96,11.89z M13.45,8.85l0.07,0.27c0.31,1.18,0.77,2.95,1.07,5.14c0,0.09-0.02,0.49-0.03,0.89
	c0,0.05,0,0.09-0.01,0.14l-0.51-0.19l-0.26-0.15l-0.68-6.1L13.45,8.85z M9.85,12.76c-0.06-0.16-0.1-0.33-0.11-0.5L9.65,8.9
	c0-0.02,0.02-0.03,0.02-0.05l1.3,0l1.61,0l0.22,0l0.62,5.9L9.85,12.76z"/>
<path class="primary" d="M26.03,20l1.26-0.88c1.6-0.94,1.71-1.05,2.02-1.21c1.3-0.64,1.36-0.48,0.62,0.43l1.07,4.47l0.88,0.83h-4.75
	c-1.02,0-1.83-0.8-1.83-1.83C25.3,21.09,25.45,20.29,26.03,20z"/>
<path class="secondary" d="M13.66,15.93l-3.45-1.46c-0.16-0.07-0.36,0.02-0.36,0.17v1.82c0,0.11,0.08,0.2,0.19,0.2l3.61,0.19V15.93z
	"/>
<path class="quaterary" d="M18.91,17.38l-1.63,0.94c-0.07,0.04-0.16,0.02-0.2-0.05l-0.14-0.24c-0.02-0.04-0.01-0.1,0.03-0.12
	l1.68-0.97c0.07-0.04,0.16-0.02,0.2,0.05l0.11,0.19C19.01,17.24,18.98,17.33,18.91,17.38z"/>
<path class="secondary" d="M14.04,18.97h-2.69c-0.56-1.2-1.61-2.28-3.32-2.31c-1.25-0.03-2.55,0.51-3.22,1.47
	c-0.05,0.07-0.09,0.14-0.13,0.21c-0.03,0.05-0.07,0.1-0.1,0.16l0,0.03c-0.22,0.43-0.35,0.9-0.35,1.41c0,0.22,0.03,0.42,0.06,0.63
	l-0.01,0.07l7.51-0.04l1.92-0.01l0.08-0.31l-2.03,0.02c-0.04-0.23-0.09-0.51-0.11-0.59c-0.04-0.15-0.1-0.29-0.15-0.44h2.5
	L14.04,18.97z"/>
<circle class="tertiary" cx="8.02" cy="20.64" r="3.02"/>
<circle class="primary" cx="8.02" cy="20.64" r="1.51"/>
</svg>
