<?xml version="1.0" encoding="utf-8"?>
<svg version="1.0" id="Layer_2" xmlns="http://www.w3.org/2000/svg" xmlns:xlink="http://www.w3.org/1999/xlink" x="0px" y="0px"
	 viewBox="0 0 32 32" style="enable-background:new 0 0 32 32;" xml:space="preserve" width="32px" height="32px" fill="#333">
<style type="text/css">
	.primary{fill:#FFCC22;}
	.secondary{fill:#808082;}
	.tertiary{fill:#333333;}
	.window{opacity:0.3;fill:#5DC9E8;}
	.shadow{opacity:0.3;fill:#333333;}
</style>
<path class="secondary" d="M4.79,12.647h1.118l-0.826-1.179c0,0,0.134-0.608,0-0.738c-0.124-0.121-0.506-0.194-0.705,0
	c0.014,0.208,0.033,0.7,0.033,0.7L4.79,12.647z"/>
<rect x="4.149" y="8.59" class="window" width="2.6px" height="4.046px"/>
<polygon class="window" points="10.855,12.63 10.064,8.59 7.468,8.59 7.468,12.636 9.199,12.636 "/>
<path class="tertiary" d="M10.629,7.617L3.371,7.628V17.3v0.003l9.191-0.003L10.629,7.617z M6.749,12.636h-2.6V8.59h2.6V12.636z
	 M7.468,12.636V8.59h2.595l0.792,4.04l-1.657,0.005H7.468z"/>
<rect x="27.454" y="6.698" class="secondary" width="3.013px" height="0.339px"/>
<path class="tertiary" d="M23.163,7.24V7.184h4.277V6.617h-4.277V6.437h-1.302v0.869c-0.789,0.157-1.697,0.576-2.378,1.713
	c-0.776,1.343-5.174,8.635-5.174,8.635l0.232-0.001l-0.213,0.299l-0.019,1.665v0.681h2.109l1.192-1.752l-0.059-0.062
	c0.295,0.113,0.672-0.043,0.905-0.421c0.268-0.434,0.239-0.974-0.065-1.205c-0.036-0.028-0.081-0.032-0.121-0.049l0.272-0.365
	l0.892-1.187l0.238,0.176l2.854-4.905v0.002l1.092-1.549l7.709,0.332c0,0,0.213-0.588,0.195-0.894L23.163,7.24z M20.266,13.014
	l-0.198-0.132L17.48,17.08l-0.086,0.143l-0.118,0.188l-0.305,0.459l-0.94-0.998c1.286-1.69,4.277-5.632,4.81-6.431l0.988,0.037
	L20.266,13.014z"/>
<polygon class="tertiary" points="32,8.813 29.526,23.215 29.526,9.545 30.33,6.328 31.295,6.328 "/>
<path class="primary" d="M31.032,21.565l-0.633-0.633c0-0.38-0.253-0.633-0.633-0.633c-0.38,0-0.633,0.253-0.633,0.633l-1.267,3.167
	l-1.9,0.633h4.117c0.887,0,1.584-0.697,1.584-1.584C31.666,22.515,31.539,21.818,31.032,21.565z"/>
<path class="secondary" d="M8.263,14.253c0.528,0.045,1.46,0.19,2.42,0.849c1.104,0.758,1.58,1.748,1.87,2.372
	c0.184,0.485,0.274,0.867,0.456,1.235c0.014-0.025-0.013,0.025,0,0c0.782-1.479-0.187-3.546-2.212-4.616
	c-0.844-0.446-1.729-0.635-2.534-0.612V14.253z"/>
<path class="primary" d="M15.151,19.848v-2.195h-0.823l-1.092,0.627l-0.401-0.009c-0.077-0.255-0.158-0.515-0.275-0.792
	c-0.266-0.633-0.767-1.611-1.87-2.367c-0.96-0.658-1.899-0.813-2.427-0.858v-0.772v0L3.474,13.47c-0.466,0-0.844,0.377-0.844,0.842
	v3.935l-0.681,0.147v2.023l0.709,0.257l5.593,0.004c1.647-0.006,3.294,0.008,4.941,0.002c-0.005-0.231-0.02-0.52-0.048-0.833h0.025
	H15.151z"/>
<path class="tertiary" d="M6.275,15.721H4.244c-0.044,0-0.08-0.036-0.08-0.08V14.93c0-0.044,0.036-0.08,0.08-0.08h2.031
	c0.044,0,0.08,0.036,0.08,0.08v0.712C6.355,15.685,6.319,15.721,6.275,15.721z"/>
<path class="tertiary" d="M6.275,17.323H4.244c-0.044,0-0.08-0.036-0.08-0.08v-0.711c0-0.044,0.036-0.08,0.08-0.08h2.031
	c0.044,0,0.08,0.036,0.08,0.08v0.711C6.355,17.287,6.319,17.323,6.275,17.323z"/>
<path class="tertiary" d="M6.275,18.925H4.244c-0.044,0-0.08-0.036-0.08-0.08v-0.711c0-0.044,0.036-0.08,0.08-0.08h2.031
	c0.044,0,0.08,0.036,0.08,0.08v0.711C6.355,18.889,6.319,18.925,6.275,18.925z"/>
<rect x="8.262" y="19.186" class="tertiary" width="3.471px" height="1.141px"/>
<rect x="8.102" y="13.482" class="shadow" width="0.162px" height="7.197px"/>
<path class="tertiary" d="M0,23.175c0,1.379,0.954,2.497,2.132,2.497h14.26c0.791,0,1.473-0.51,1.841-1.259l2.549,0l1.706,0.948
	l-0.348-0.905c-0.082-0.214-0.1-0.447-0.052-0.671l0.211-0.984l-2.442-0.718l0.072,0.813L18.5,22.897
	c-0.119-1.246-1.012-2.219-2.108-2.219H2.132C0.954,20.679,0,21.796,0,23.175"/>
<path class="secondary" d="M16.461,22.021H2.063c-0.54,0-0.9,0.484-0.9,1.21c0,0.726,0.36,1.21,0.9,1.21h14.398
	c0.54,0,0.9-0.484,0.9-1.21C17.361,22.505,17.001,22.021,16.461,22.021z"/>
<circle class="shadow" cx="2.431" cy="23.231" r="1.055"/>
<polygon class="secondary" points="21.829,10.476 22.522,10.534 20.839,13.427 20.266,13.018 "/>
</svg>
