<?xml version="1.0" encoding="utf-8"?>
<svg version="1.0" id="Layer_1" xmlns="http://www.w3.org/2000/svg" xmlns:xlink="http://www.w3.org/1999/xlink" x="0px" y="0px"
	 viewBox="0 0 32 32" style="enable-background:new 0 0 32 32;" xml:space="preserve" width="32px" height="32px" fill="#333">
<style type="text/css">
	.primary{fill:#FFCC22;}
	.secondary{fill:#808082;}
	.tertiary{fill:#333333;}
	.shadow{opacity:0.3;fill:#333333;}
</style>
<g>
	<path class="tertiary" d="M17.95,6l1-1h-10v10h11L17.95,6z M10.95,14V6h4l2,3l1,5H10.95z"/>
	<polygon class="primary" points="19.45,14 9.95,14 9.95,5 6.95,5 6.95,14 -0.05,14 -0.05,22 3.95,24 24.95,24 	"/>
	<path class="tertiary" d="M8.95,7h-4c-1,0-1,0.7-1,1c0,1,0,4,0,4h-3l1-5c0.3-1.1,0.9-1,2-1h5V7z"/>
	<path class="secondary" d="M19.95,12l-20-2v8h2l2-2.1c0.9-0.8,1.8-1,3-1l11,1l6,11l1.2-1.9L19.95,12z"/>
	<polygon class="shadow" points="19.95,12 -0.05,10 -0.05,18 1.95,18 18.55,17 23.95,27 25.25,25.1 	"/>
	<polygon class="tertiary" points="17.95,16 20.95,16 18.55,17 	"/>
	<circle class="tertiary" cx="2.45" cy="13.5" r="1.5"/>
	<polygon class="tertiary" points="32.05,27 22.95,27 24.95,19 	"/>
	<path class="secondary" d="M3.688,19.757l-2.363,3.509c-0.682,1.012-0.469,2.378,0.488,3.135l0,0C2.304,26.789,2.911,27,3.537,27
		h15.767c0.41,0,0.81-0.127,1.145-0.362l0,0c1.398-0.984,1.117-3.133-0.487-3.724L7.794,18.43
		C6.283,17.874,4.588,18.422,3.688,19.757z"/>
	<path class="tertiary" d="M6.587,19.707c0.235,0,0.467,0.041,0.689,0.123l12.168,4.483c0.306,0.113,0.383,0.363,0.401,0.502
		c0.018,0.139,0.009,0.4-0.258,0.588c-0.083,0.058-0.18,0.089-0.282,0.089H3.537c-0.287,0-0.569-0.098-0.794-0.276
		c-0.34-0.269-0.417-0.761-0.175-1.12l2.363-3.509C5.304,20.036,5.922,19.707,6.587,19.707 M6.587,18.207
		c-1.137,0-2.235,0.557-2.899,1.542l-2.363,3.509c-0.682,1.012-0.469,2.378,0.488,3.135c0.491,0.388,1.098,0.599,1.724,0.599h15.767
		c0.41,0,0.81-0.127,1.145-0.362c1.398-0.984,1.117-3.133-0.487-3.724L7.794,18.423C7.399,18.277,6.99,18.207,6.587,18.207
		L6.587,18.207z"/>
</g>
</svg>
