<svg version="1.1" id="Layer_1" xmlns="http://www.w3.org/2000/svg" xmlns:xlink="http://www.w3.org/1999/xlink" x="0px" y="0px" viewBox="0 0 32 22" style="enable-background:new 0 0 32 22;" xml:space="preserve" width="32px" height="22px" fill="#333">

<style type="text/css">
	.primary{fill:#FFCC22;}
	.white{fill:#FFFFFF;}
	.grey{fill:#808082;}
	.shadow{opacity:0.3;}
	.window{fill:#BBE3F3;}
</style>

<path class="grey" d="M18,3v4h1V4c0.5-0.6,1-1.5,1-3C19,2,18,3,18,3z"/>
<polygon class="black" points="16,6 15,1 5,1 5,3 6,3 5,8 5,16 25,16 25,7.8 "/>
<polygon class="primary" points="22,8 16,8 16,11 11,11 11,10 8,8 5,8 3,11 1,11 0,14 0,19 8,19 19,16 22,11 "/>
<polygon class="shadow" points="16,11 16,8 22,8 22,11 19,16 8,19 0,19 0,14 1,11 3,11 3,13 13,13 "/>
<path class="primary" d="M18,14H6c-2.2,0-4,1.8-4,4c0,2.2,1.8,4,4,4h12c2.2,0,4-1.8,4-4C22,15.8,20.2,14,18,14z"/>
<rect x="5" y="0" class="primary" width="10px" height="1px"/>
<polygon class="window" points="15,10 12,10 12,2 14,2 15,7 "/>
<polygon class="window" points="7,6 11,8 11,2 7,2 "/>
<polygon class="grey" points="28,19 22,2 21,2 26,17 24,19 "/>
<path class="shadow" d="M18,15H6c-1.7,0-3,1.3-3,3s1.3,3,3,3h12c1.7,0,3-1.3,3-3S19.7,15,18,15z M6,20c-1.1,0-2-0.9-2-2c0-1.1,0.9-2,2-2s2,0.9,2,2C8,19.1,7.1,20,6,20z"/>
<path class="primary" d="M32,22l-1-2l-1-7l1-6l-1,0l-3,6v1l-10,3l-8-1v4l19,1l1.7,1H32z M27,16v2.7L22,18L27,16z"/>
<polygon class="white" points="21,10 21,8 16,8 "/>

</svg>
