<svg version="1.1" id="Layer_1" xmlns="http://www.w3.org/2000/svg" xmlns:xlink="http://www.w3.org/1999/xlink" x="0px" y="0px" viewBox="0 0 32 22" style="enable-background:new 0 0 32 22;" xml:space="preserve" width="32px" height="22px" fill="#333">

<style type="text/css">
	.primary{fill:#FFCC22;}
	.white{fill:#FFFFFF;}
	.grey{fill:#808082;}
	.shadow{opacity:0.3;}
	.window{fill:#BBE3F3;}
</style>

<path class="black" d="M20,18l-3-1h-3v-2H9v2H7l-3,1c-1.1,0-2,0.9-2,2c0,1.1,0.9,2,2,2h16c1.1,0,2-0.9,2-2C22,18.9,21.1,18,20,18z"/>
<polygon class="window" points="25,2 23,2 27,0 29,0 "/>
<polygon class="black" points="19,4 25,1 25.5,2 22,4 "/>
<rect x="30.5" y="9" class="window" width="1px" height="6px"/>
<polygon class="grey" points="32,10 30,10 30,5 32,7 "/>
<path class="black" d="M20,15c0,0-1-9-4-9s-5,0-5,0l0,9H20z"/>
<polygon class="black" points="27,21 27,4 28,0 30,0 32,3.1 "/>
<path class="grey" d="M29,3c0,0-8,0-9,0s-2.8,0.2-4,2c-0.9,1.4-6,9-6,9h6c0,0,3.4-5.9,4-7c1-2,7-2,9-2c0.8,0,1-0.4,1-1C30,3.4,29.6,3,29,3z"/>
<polygon class="window" points="16,14 17.5,6 18.5,6 "/>
<polygon class="white" points="15,15 16.5,9 18,9 17,15 "/>
<circle class="black" cx="18" cy="6" r="1"/>
<path class="black" d="M31,14c-0.6,0-1,0.4-1,1l-2,3h2l1-2c0,0,1,0,1-1C32,14.4,31.6,14,31,14z"/>
<path class="primary" d="M30,17l-1-1c0-0.6-0.4-1-1-1s-1,0.4-1,1l-2,5l-3,1h6.5c1.4,0,2.5-1.1,2.5-2.5C31,18.5,30.8,17.4,30,17z"/>
<path class="primary" d="M20,15l-4-2h-2c0-0.6-0.4-1-1-1c-0.6,0-1,0.4-1,1h-1V9H9l0-2L2,7v2H0l0,6c0,0.5,0.5,1,1,1h19L20,15z"/>
<rect x="3" y="9" class="black" width="2px" height="5px"/>
<rect x="6" y="9" class="black" width="2px" height="5px"/>
<path class="grey" d="M20,19H4c-0.6,0-1,0.4-1,1c0,0.6,0.4,1,1,1h16c0.6,0,1-0.4,1-1C21,19.4,20.6,19,20,19z"/>
<rect x="1" y="9" class="shadow" width="1px" height="7px"/>

</svg>
