<svg version="1.1" id="Layer_1" xmlns="http://www.w3.org/2000/svg" xmlns:xlink="http://www.w3.org/1999/xlink" x="0px" y="0px" viewBox="0 0 32 22" style="enable-background:new 0 0 32 22;" xml:space="preserve" width="32px" height="22px" fill="#333">
<style type="text/css">
	.primary{fill:#808082;}
	.highlight{opacity:0.2;fill:#FFFFFF;}
</style>
<polygon class="primary" points="30,9 2,9 2,14 7,17 13,15 20,15 24,17 30,13 "/>
<polygon class="highlight" points="30,9 2,9 2,14 7,17 13,15 20,15 24,17 30,13 "/>
<path class="primary" d="M32,7c0,0-1.4-2.1-8-2l-4-4h-7v2H8v1h1v2H0v7l2,1l0.8-3c0.1-0.6,0.6-1,1.2-1h5l3.5,4H20l4-4h4
	c0.4,0,0.8,0.2,1,0.6l1,2.4l2-1v-1l-0.5,0L32,7z M14,5V2h6l2,3H14z"/>
<polygon class="highlight" points="30,11 30,7 32,7 31.5,11 "/>
<rect x="12.5" y="3" class="highlight" width="0.5px" height="11px"/>
<circle class="primary" cx="7" cy="17" r="4"/>
<path class="highlight" d="M7,15c-1.1,0-2,0.9-2,2s0.9,2,2,2s2-0.9,2-2S8.1,15,7,15z M7,18c-0.6,0-1-0.4-1-1s0.4-1,1-1s1,0.4,1,1
	S7.6,18,7,18z"/>
<circle class="primary" cx="26" cy="17" r="4"/>
<path class="highlight" d="M26,15c-1.1,0-2,0.9-2,2s0.9,2,2,2s2-0.9,2-2S27.1,15,26,15z M26,18c-0.6,0-1-0.4-1-1s0.4-1,1-1
	s1,0.4,1,1S26.6,18,26,18z"/>
</svg>
