<svg version="1.1" id="Layer_1" xmlns="http://www.w3.org/2000/svg" xmlns:xlink="http://www.w3.org/1999/xlink" x="0px" y="0px" viewBox="0 0 32 22" style="enable-background:new 0 0 32 22;" xml:space="preserve" width="32px" height="22px" fill="#333">
<style type="text/css">
	.primary{fill:#FFCC22;}
	.grey{fill:#808082;}
	.shadow{opacity:0.3;}
	.window{fill:#BBE3F3;}
</style>
<polygon class="primary" points="30,11 27,9 19,9 18,9 9.6,9 9.6,6 5,6 0,9 0,18 10,18 16,15 19,12 27,12 28,14.2 28,17 32,17 32,11 "/>
<polygon class="grey" points="19,13 21,15 21,13 20,12 "/>
<polygon class="black" points="0,15 1,15 1,8.4 0,9 "/>
<polygon class="shadow" points="10,18 0,18 0,15 16,15 "/>
<polygon class="black" points="28,13 21,13 21,15 18,15 18,16 23,16 23,15 29,15 "/>
<polygon class="black" points="27,9 27,9 19,9 19,9 16,7.5 16,1 9,1 9,6 5,6 5,10 9,10 9,13 15,13 15.3,12.8 19,10 19,13 20,13
	22,10 27,10 30,12 30,11 "/>
<path class="primary" d="M23,16h-7c0,0-0.7,0.7-1,2s0,3,0,3l7-1c0,0-0.4-1.2-0.2-2.2C22,16.8,23,16,23,16z"/>
<rect x="30" y="11" class="shadow" width="1px" height="5px"/>
<circle class="black" cx="28.5" cy="17.5" r="3.5"/>
<circle class="primary" cx="28.5" cy="17.5" r="1.5"/>
<circle class="black" cx="4.5" cy="17.5" r="3.5"/>
<circle class="primary" cx="4.5" cy="17.5" r="1.5"/>
<circle class="black" cx="9.5" cy="17.5" r="3.5"/>
<circle class="primary" cx="9.5" cy="17.5" r="1.5"/>
<polygon class="grey" points="22,14 23,14 25,7 24,9 "/>
<polygon class="black" points="24,12 23,11 25,5 26,6 "/>
<polygon class="primary" points="17,2 9,2 9,3 8,2 8,1 17,1 "/>
<polygon class="window" points="15,11 12,11 12,2 15,2 "/>
<polygon class="shadow" points="15.6,7.3 14.5,6.7 14.7,5.7 14.5,5.6 13.4,7.4 13.6,7.5 14.2,7 15.6,11.8 "/>
</svg>
