<svg version="1.1" id="Layer_1" xmlns="http://www.w3.org/2000/svg" xmlns:xlink="http://www.w3.org/1999/xlink" x="0px" y="0px" viewBox="0 0 32 22" style="enable-background:new 0 0 32 22;" xml:space="preserve" width="32px" height="22px" fill="#333">
<style type="text/css">
	.shadow{opacity:0.3;}
	.highlight{opacity:0.2;fill:#FFFFFF;}
	.white{fill:#FFFFFF;}
	.primary{fill:#FFCC22;}
</style>
<path class="primary" d="M29,7l-5-6c0,0-1-1-3-1s-3,1-3,1L3,12v8h22l3-3C22.8,10.9,29,7,29,7z"/>
<polygon class="shadow" points="3,16 13,8 13,20 3,20 "/>
<circle class="black" cx="6" cy="16" r="6"/>
<circle class="primary" cx="6" cy="16" r="3"/>
<polygon class="white" points="25,10 20,4 22,4 27,10 "/>
<path class="primary" d="M29,9c0,0-3-1-3.5-1C24.7,8,24,8.7,24,9.5c0,0.5,0.3,1,0.7,1.3L25,11l0,2h-4v2c0,0,7.7,0,8,0
	c1.7,0,3-1.3,3-3C32,10.3,30.8,9.5,29,9z"/>
<path class="shadow" d="M29,9c0,0-3-1-3.5-1C24.7,8,24,8.7,24,9.5c0,0.5,0.3,1,0.7,1.3L25,11l0,2h-4v2c0,0,7.7,0,8,0
	c1.7,0,3-1.3,3-3C32,10.3,30.8,9.5,29,9z"/>
<circle class="primary" cx="29" cy="12" r="2"/>
<path class="primary" d="M21,12c-0.9,0-3.4-2.4,1.1-6.3C22.6,5.3,23,4.7,23,4c0-1.1-0.9-2-2-2c-0.5,0-0.9,0.2-1.2,0.4L13,8
	L7.4,4.3C7.1,4.1,6.8,4,6.5,4C5.7,4,5,4.7,5,5.5c0,0.4,0.2,0.8,0.5,1.1l0,0L13,13v4h8c1,0,2-1.1,2-2.5S21.9,12,21,12z"/>
<path class="highlight" d="M21,12c-0.9,0-3.4-2.4,1.1-6.3C22.6,5.3,23,4.7,23,4c0-1.1-0.9-2-2-2c-0.5,0-0.9,0.2-1.2,0.4L13,8
	L7.4,4.3C7.1,4.1,6.8,4,6.5,4C5.7,4,5,4.7,5,5.5c0,0.4,0.2,0.8,0.5,1.1l0,0L13,13v4h8c1,0,2-1.1,2-2.5S21.9,12,21,12z"/>
<path class="highlight" d="M21,12c-0.9,0-3.4-2.4,1.1-6.3C22.6,5.3,23,4.7,23,4c0-1.1-0.9-2-2-2c-0.5,0-0.9,0.2-1.2,0.4L13,8
	L7.4,4.3C7.1,4.1,6.8,4,6.5,4C5.7,4,5,4.7,5,5.5c0,0.4,0.2,0.8,0.5,1.1l0,0L13,13v4h8c1,0,2-1.1,2-2.5S21.9,12,21,12z"/>
<path class="primary" d="M6,15c-0.6,0-1,0.4-1,1s0.4,1,1,1h7v-2H6z"/>
<path class="shadow" d="M6,15c-0.6,0-1,0.4-1,1s0.4,1,1,1h7v-2H6z"/>
</svg>
