<svg version="1.1" id="Layer_1" xmlns="http://www.w3.org/2000/svg" xmlns:xlink="http://www.w3.org/1999/xlink" x="0px" y="0px" viewBox="0 0 32 22" style="enable-background:new 0 0 32 22;" xml:space="preserve" width="32px" height="22px" fill="#333">
<style type="text/css">
    .primary{fill:#FFCC22;}
    .grey{fill:#808082;}
    .shadow{opacity:0.3;}
</style>
<path class="black" d="M18,1l1-1H9v10h11L18,1z M11,9V1h4l2,3l1,5H11z"/>
<polygon class="primary" points="19.5,9 10,9 10,0 7,0 7,9 0,9 0,17 4,19 25,19 "/>
<path class="black" d="M9,2H5C4,2,4,2.7,4,3c0,1,0,4,0,4H1l1-5c0.3-1.1,0.9-1,2-1h5V2z"/>
<path class="grey" d="M20,7L0,5v8h2l2-2.1c0.9-0.8,1.8-1,3-1l11,1l6,11l1.2-1.9L20,7z"/>
<polygon class="shadow" points="20,7 0,5 0,13 2,13 18.6,12 24,22 25.3,20.1 "/>
<polygon class="black" points="18,11 21,11 18.6,12 "/>
<circle class="black" cx="2.5" cy="8.5" r="1.5"/>
<circle class="black" cx="16" cy="18" r="4"/>
<circle class="primary" cx="16" cy="18" r="2"/>
<circle class="black" cx="6" cy="18" r="4"/>
<circle class="primary" cx="6" cy="18" r="2"/>
<polygon class="black" points="32.1,22 23,22 25,14 "/>
</svg>
