<?xml version="1.0" encoding="utf-8"?>
<svg version="1.0" id="Layer_2" xmlns="http://www.w3.org/2000/svg" xmlns:xlink="http://www.w3.org/1999/xlink" x="0px" y="0px"
	 viewBox="0 0 32 32" style="enable-background:new 0 0 32 32;" xml:space="preserve" width="32px" height="32px" fill="#333">
<style type="text/css">
	.primary{fill:#FFCC22;}
	.secondary{fill:#808082;}
	.tertiary{fill:#333333;}
	.quaterary{fill:#F5002C;}
	.window{opacity:0.3;fill:#5DC9E8;}
	.shadow{opacity:0.3;fill:#333333;}
</style>
<polygon class="primary" points="7.75,9.66 15.95,9.66 15.93,9.31 7.73,9.31 "/>
<path class="primary" d="M16.02,12.91l-0.07,4.94l-2.64,0.01l-0.06,2.9l6.34-0.3l5.17-1.27c0,0-0.07-2.96-0.16-4.24
	c-0.02-0.22-0.16-0.4-0.37-0.46c-0.82-0.24-2.79-0.67-3.62-0.83C19.5,13.45,16.02,12.91,16.02,12.91z"/>
<circle class="tertiary" cx="22.03" cy="20.62" r="2.14"/>
<circle class="primary" cx="22.03" cy="20.62" r="1.07"/>
<path class="tertiary" d="M24.75,19.08l-0.67,0.02l-4.8,0.36l0,1h-3.16v-0.84c0-0.11-0.09-0.2-0.2-0.2h-2.33
	c-0.11,0-0.2,0.09-0.2,0.2v0.84v0.02v0.3l5.89,0l0,0h0.46l4.23-1.04l0.79-0.13L24.75,19.08z"/>
<path class="tertiary" d="M17.89,13.18l0-2.04c-0.01-0.99,0.31-1.26,0.31-1.26V9.23c-0.54,0.02-0.86,0.82-0.86,1.26
	c0,0.44,0,0.67,0,0.67l-0.01,1.99"/>
<path class="primary" d="M0.04,22.39c-0.01,0.18,0.12,0.33,0.3,0.34h3.35c0.47-0.02,0.88-0.31,1.08-0.73l0.67-1.78l-0.11-2.28
	L4.51,18.3c-0.07,0.05-0.12,0.12-0.14,0.2l-0.31,1.65l-3.33-0.58c-0.18-0.03-0.34,0.1-0.36,0.27L0.04,22.39z"/>
<polygon class="tertiary" points="5.44,20.05 5.44,20.21 5.25,20.69 7.37,20.69 7.37,20.05 "/>
<rect x="6.39" y="17.76" transform="matrix(-1 -8.023334e-06 8.023334e-06 -1 13.2035 36.9747)" class="tertiary" width="0.42px" height="1.45px"/>
<rect x="6.51" y="19.21" transform="matrix(-1 1.000920e-05 -1.000920e-05 -1 13.2039 39.26)" class="secondary" width="0.18px" height="0.84px"/>
<path class="tertiary" d="M6.61,17.31c0.05,0,0.08,0.03,0.12,0.05l-0.01-0.03l0.65-0.16l-0.13,0.64l-0.39-0.05l-0.01-0.03
	c-0.05,0.09-0.13,0.16-0.24,0.16c-0.16,0-0.29-0.13-0.29-0.29C6.31,17.44,6.45,17.31,6.61,17.31z"/>
<rect x="26.82" y="13.76" transform="matrix(-0.9925 0.1223 -0.1223 -0.9925 55.9055 26.9007)" class="tertiary" width="0.62px" height="2.81px"/>
<polygon class="tertiary" points="28.65,19.34 29.13,19.06 27.57,16.21 27.01,16.51 "/>
<polygon class="tertiary" points="27.61,16.48 26.97,16.35 26.53,18.46 26.8,18.91 "/>
<path class="primary" d="M27.63,21.89l0.46,0.63h3.67c0.16,0,0.26-0.18,0.17-0.31l-1.88-2.87l0.08-1.14c0-0.11-0.09-0.21-0.21-0.21
	h-1.08c-0.11,0-0.21,0.09-0.21,0.21l0.01,1.16l-1.11,2.17C27.51,21.63,27.54,21.78,27.63,21.89z"/>
<circle class="secondary" cx="27.29" cy="16.43" r="0.34"/>
<path class="secondary" d="M9.96,13.1c0,0-0.26-0.72-0.53-1.01c-0.18-0.14-0.53,0-0.53,0v2.44h0.54v0.95h0.64v-0.95h0.75v-0.72
	c0.44,0,0.44-0.72,0.44-0.72H9.96z"/>
<polygon class="secondary" points="13.66,13.55 13.67,13.55 13.87,12.85 14.23,12.64 14.07,12.46 12.54,13.36 12.58,13.59 
	12.94,13.37 13.19,13.55 13.16,14.17 15.58,15.49 15.59,13.64 "/>
<path class="tertiary" d="M18.49,17.75l5.82,0.14l0.01-0.39l-5.82-0.14c-0.09,0-0.17,0.07-0.17,0.17l0,0.05
	C18.32,17.67,18.4,17.75,18.49,17.75z"/>
<path class="tertiary" d="M17.74,14.62c0.02,0.05,6.32,2.65,6.32,2.65c0.13,0.05,0.24,0.14,0.33,0.25l3.25,3.99l0.32-0.7l-2.49-4.09
	c-0.17-0.27-0.47-0.5-0.8-0.64c0,0-6.55-1.83-6.6-1.85C17.87,14.17,17.6,14.33,17.74,14.62z"/>
<path class="quaterary" d="M20.28,16.32l0.23-0.54l3.48,1.47c0.03-0.01,0.06-0.02,0.1-0.02c0.21,0,0.38,0.17,0.38,0.38
	c0,0.21-0.17,0.38-0.38,0.38c-0.14,0-0.27-0.08-0.33-0.2L20.28,16.32z"/>
<polygon class="window" points="15.69,17.42 14.08,17.33 12.75,15.38 7.9,15.31 8.78,10.04 15.07,10.09 15.69,12.91 "/>
<path class="tertiary" d="M7.24,17.81l1.35-8.15l6.71,0l0.82,3.24l-0.06,4.94L7.24,17.81z M11.83,14.59c0,0,0.02,0.01,0.05,0.03
	c0.78,0.51,1.51,1.02,1.92,1.85c0.15,0.31,0.28,0.6,0.33,0.72c0.03,0.08,0.11,0.13,0.19,0.13l1.27,0l0-4.4l-0.65-2.59
	c-0.03-0.09-0.11-0.15-0.2-0.15l-2.61,0.01c-0.11,0-0.21,0.09-0.21,0.21L11.83,14.59z M8.24,15.31l3.15-0.19
	c0.02-0.02,0.03-0.03,0.05-0.05l0.07-4.66c0-0.12-0.09-0.21-0.21-0.21l-2.31-0.01c-0.1,0.01-0.18,0.08-0.19,0.18l-0.77,4.71
	C8.01,15.2,8.11,15.32,8.24,15.31z"/>
<path class="shadow" d="M4.81,21.88H1.85c-0.42,0-0.76,0.34-0.76,0.76v0.08h2.61c0.19,0,0.49-0.09,0.67-0.24
	c0.19-0.15,0.33-0.38,0.38-0.44L4.81,21.88z"/>
<path class="shadow" d="M28.09,22.52l-0.46-0.63c-0.09-0.1-0.12-0.26-0.09-0.37l1.11-2.17l-0.01-1.16c0-0.11,0.09-0.21,0.21-0.21
	h1.08c0.11,0,0.21,0.09,0.21,0.21l-0.08,1.14L28.09,22.52z"/>
<circle class="tertiary" cx="10.39" cy="19.42" r="3.3"/>
<circle class="primary" cx="10.39" cy="19.42" r="1.65"/>
<path class="tertiary" d="M16.1,13.28l0.02-0.38c0,0,3.4,0.53,4.49,0.74c0.83,0.16,2.8,0.59,3.62,0.83
	c0.21,0.06,0.36,0.24,0.37,0.46l0.02,0.22L16.1,13.28z"/>
</svg>
