<?xml version="1.0" encoding="utf-8"?>
<!-- Generator: Adobe Illustrator 19.1.0, SVG Export Plug-In . SVG Version: 6.00 Build 0)  -->
<!DOCTYPE svg PUBLIC "-//W3C//DTD SVG 1.0//EN" "http://www.w3.org/TR/2001/REC-SVG-20010904/DTD/svg10.dtd">
<svg version="1.0" id="Layer_1" xmlns="http://www.w3.org/2000/svg" xmlns:xlink="http://www.w3.org/1999/xlink" x="0px" y="0px" viewBox="0 0 32 32" style="enable-background:new 0 0 32 32;" xml:space="preserve" width="32px" height="32px" fill="#333">
<g id="XMLID_7_">
	<path style="fill:#FFFFFF;" d="M16,29.246c-1.824-2.083-9.748-11.429-9.748-16.483C6.252,7.104,10.625,2.5,16,2.5
		s9.748,4.604,9.748,10.263C25.748,17.817,17.824,27.163,16,29.246z"/>
	<path style="fill:#21201F;" d="M16,3c5.099,0,9.248,4.38,9.248,9.763c0,4.194-6.11,12.108-9.248,15.729
		c-3.138-3.62-9.248-11.534-9.248-15.729C6.752,7.38,10.901,3,16,3 M16,2C10.34,2,5.752,6.819,5.752,12.763
		C5.752,18.707,16,30,16,30s10.248-11.293,10.248-17.237C26.248,6.819,21.66,2,16,2L16,2z"/>
</g>
<g>
	<rect x="11" y="6.987" style="fill:#DDDCDB;" width="10px" height="12px"/>
	<path style="fill:#333333;" d="M19,6.987V6.502c0-0.276-0.224-0.5-0.5-0.5S18,6.226,18,6.502v0.485h-3.994V6.502
		c0-0.276-0.224-0.5-0.5-0.5s-0.5,0.224-0.5,0.5v0.485H11v12h10v-12H19z M20,17.987h-8v-10h1.006v0.515c0,0.276,0.224,0.5,0.5,0.5
		s0.5-0.224,0.5-0.5V7.987H18v0.515c0,0.276,0.224,0.5,0.5,0.5s0.5-0.224,0.5-0.5V7.987h1V17.987z"/>
	<g>
		<rect x="12.998" y="10.996" style="fill:#333333;" width="6px" height="1px"/>
		<rect x="12.998" y="13" style="fill:#333333;" width="6px" height="1px"/>
		<rect x="13" y="15.01" style="fill:#333333;" width="6px" height="1px"/>
	</g>
</g>
</svg>
