<?xml version="1.0" encoding="utf-8"?>
<!-- Generator: Adobe Illustrator 19.1.0, SVG Export Plug-In . SVG Version: 6.00 Build 0)  -->
<!DOCTYPE svg PUBLIC "-//W3C//DTD SVG 1.0//EN" "http://www.w3.org/TR/2001/REC-SVG-20010904/DTD/svg10.dtd">
<svg version="1.0" id="Layer_1" xmlns="http://www.w3.org/2000/svg" xmlns:xlink="http://www.w3.org/1999/xlink" x="0px" y="0px" viewBox="0 0 32 32" style="enable-background:new 0 0 32 32;" xml:space="preserve" width="32px" height="32px" fill="#333">
<g id="XMLID_9_">
	<path style="fill:#FFFFFF;" d="M16,29.246c-1.824-2.083-9.748-11.429-9.748-16.483C6.252,7.104,10.625,2.5,16,2.5
		s9.748,4.604,9.748,10.263C25.748,17.818,17.824,27.163,16,29.246z"/>
	<path style="fill:#21201F;" d="M16,3c5.099,0,9.248,4.38,9.248,9.763c0,4.194-6.11,12.108-9.248,15.729
		c-3.138-3.62-9.248-11.534-9.248-15.729C6.752,7.38,10.901,3,16,3 M16,2C10.34,2,5.752,6.819,5.752,12.763
		C5.752,18.707,16,30,16,30s10.248-11.293,10.248-17.237C26.248,6.819,21.66,2,16,2L16,2z"/>
</g>
</svg>
