<?xml version="1.0" encoding="UTF-8" standalone="no"?>
<svg width="32px" height="32px" viewBox="0 0 32 32" version="1.1" xmlns="http://www.w3.org/2000/svg" xmlns:xlink="http://www.w3.org/1999/xlink" fill="#333">
    <!-- Generator: Sketch 3.8.3 (29802) - http://www.bohemiancoding.com/sketch -->
    <title>icon-marker-harvest-id-cotton-selected</title>
    <desc>Created with Sketch.</desc>
    <defs/>
    <g id="icon-marker-harvest-id-cotton-selected" stroke="none" stroke-width="1px" fill="none" fill-rule="evenodd">
        <path d="M16,2 C9.925,2 5,6.925 5,13 C5,15.214 5.874,17.274 7,19 C8.963,22.009 16,30 16,30 C16,30 23.037,22.01 25,19 C26.125,17.274 27,15.214 27,13 C27,6.925 22.075,2 16,2 L16,2 L16,2 Z" id="background" fill="#F2845C"/>
        <path d="M16,3 C21.514,3 26,7.486 26,13 C26,14.749 25.382,16.584 24.162,18.454 C22.636,20.795 17.859,26.344 16,28.48 C14.141,26.343 9.364,20.794 7.838,18.453 C6.618,16.584 6,14.75 6,13 C6,7.486 10.486,3 16,3 L16,3 Z M16,2 C9.925,2 5,6.925 5,13 C5,15.214 5.874,17.274 7,19 C8.963,22.009 16,30 16,30 C16,30 23.037,22.01 25,19 C26.125,17.274 27,15.214 27,13 C27,6.925 22.075,2 16,2 L16,2 L16,2 Z" id="border" fill="#333333"/>
    </g>
</svg>