<?xml version="1.0" encoding="utf-8"?>
<!-- Generator: Adobe Illustrator 21.1.0, SVG Export Plug-In . SVG Version: 6.00 Build 0)  -->
<svg version="1.0" id="Layer_1" xmlns="http://www.w3.org/2000/svg" xmlns:xlink="http://www.w3.org/1999/xlink" x="0px" y="0px"
	 viewBox="0 0 32 32" style="enable-background:new 0 0 32 32;" xml:space="preserve" width="32px" height="32px" fill="#333">
<style type="text/css">
	.primary{fill:#7E7E7E;}
	.secondary{fill:#D3D3D3;}
	.tertiary{opacity:0.3;fill:#7E7E7E;}
	.quaternary{fill:#020303;}
	.quinary{opacity:0.3;fill:#020303;}
	.senary{opacity:0.3;fill:#FFFFFF;}
</style>
<polygon class="quaternary" points="20.5,9.2 20,8.9 18.8,10.9 19.3,11.2 "/>
<polygon class="quaternary" points="23,10 23,14 22,14 19.7,10 "/>
<rect x="17" y="7" class="tertiary" width="5px" height="8px"/>
<rect y="15" class="primary" width="29px" height="4px"/>
<rect y="15" class="quinary" width="29px" height="4px"/>
<polygon class="primary" points="24,5 16,5 16,6 23,6 "/>
<rect x="16" y="6" class="quaternary" width="1px" height="8px"/>
<rect x="16" y="6" class="quaternary" width="7px" height="1px"/>
<rect x="22" y="6" class="quaternary" width="1px" height="9px"/>
<path class="primary" d="M31,19h-3c0,0,0,0,0-1c0-3-2-3-5-3c0-1.1,0-5,0-5c8,0,9,3,9,3L31,19z"/>
<path class="quaternary" d="M32,13l-1,6c0,0,0-4-3-5c-0.6-1-1-2-1-2l4,1H32z"/>
<polygon class="primary" points="21,15 16,15 16,11 18,11 "/>
<polygon class="primary" points="14,16 2,16 0,7 0,6 14,6 "/>
<rect y="6" class="senary" width="14px" height="1px"/>
<polygon class="secondary" points="14,8 0.2,8 0,7 14,7 "/>
<polygon class="quinary" points="13,14 12,11 4,11 4,14 3,10 13,10 "/>
<polygon class="quaternary" points="17,18 13,18 14,14 18,14 "/>
<path class="secondary" d="M24,12c4.7,0,7,1,7,1s-2.3-2-7-2V12z"/>
<path class="quaternary" d="M26,6c0,0-2,0-2,2v5h1V8L26,6z"/>
<path class="quaternary" d="M25,11h-2v2l0,0l0,0c0,0.6,0.4,1,1,1s1-0.4,1-1l0,0l0,0V11z"/>
<path class="quaternary" d="M18,22h-1c0-3.9,3.1-7,7-7v1C20.7,16,18,18.7,18,22z"/>
<path class="quaternary" d="M1,22H0c0-3.9,3.1-7,7-7v1C3.7,16,1,18.7,1,22z"/>
<circle class="quaternary" cx="7" cy="22" r="5"/>
<circle class="secondary" cx="7" cy="22" r="3"/>
<circle class="quinary" cx="7" cy="22" r="1"/>
<circle class="quaternary" cx="24" cy="22" r="5"/>
<circle class="secondary" cx="24" cy="22" r="3"/>
<circle class="quinary" cx="24" cy="22" r="1"/>
</svg>
