<?xml version="1.0" encoding="utf-8"?>
<!-- Generator: Adobe Illustrator 19.1.0, SVG Export Plug-In . SVG Version: 6.00 Build 0)  -->
<!DOCTYPE svg PUBLIC "-//W3C//DTD SVG 1.1//EN" "http://www.w3.org/Graphics/SVG/1.1/DTD/svg11.dtd">
<svg version="1.1" id="layer_1_" xmlns="http://www.w3.org/2000/svg" xmlns:xlink="http://www.w3.org/1999/xlink" x="0px" y="0px" viewBox="0 0 32 22" enable-background="new 0 0 32 22" xml:space="preserve" width="32px" height="22px" fill="#333">
<rect x="4.2" y="10.8" fill="#414042" width="10.9px" height="3.2px"/>
<polygon fill="#020303" points="8.7,1.3 9.2,0.9 10.5,0.9 11.1,1.3 11.1,2 8.7,2 "/>
<path fill="#ACADAF" d="M14.1,4.8c0.4,2.3-1.4,4.6-4.1,5.2c-2.7,0.6-5.2-0.7-5.6-2.9s1.4-4.6,4.1-5.2S13.7,2.6,14.1,4.8z"/>
<polygon fill="#4E4E4E" points="28.1,8.4 23.4,8.3 19.9,9.9 4.2,9.9 4.2,9.4 1.6,9.9 4.2,12.1 4.2,12.2 11.2,12.2 15,14.7 
	18.6,14.7 26.8,12.5 28.9,12.5 30.6,11.4 "/>
<path fill="#D3D3D3" d="M3.9,7.3H2.1c-0.3,0-0.5-0.2-0.5-0.5V1.4c0-0.3,0.2-0.5,0.5-0.5h1.9c0.3,0,0.5,0.2,0.5,0.5v5.5
	C4.4,7.1,4.2,7.3,3.9,7.3z"/>
<polygon fill="#414042" points="24.8,10.8 23.7,9.9 22.7,9.9 22.7,8.1 27.3,8.1 27.9,10.8 "/>
<rect x="24.6" y="8.4" fill="#7E7E7E" width="1.4px" height="1.3px"/>
<rect x="15" y="9.9" fill="#414042" width="5.6px" height="2.3px"/>
<path fill="#7E7E7E" d="M29.8,14.1c0,0-0.3-4.9-4.8-5.6c-2.7-0.4-4,1.4-4,1.4l-1.8,0l0-4c0,0,4.4,0.5,4.4,0.5
	c7.3,0.9,8.3,2.4,8.3,2.4l-1.1,4.7L29.8,14.1z"/>
<path fill="#020303" d="M31.9,8.8c0,0-0.3-0.2-1.8-0.4c0,0,0.2,2.9,0.2,4.7c0,0.3,0,0.3,0.5,0.4L31.9,8.8z"/>
<path fill="#FFFFFF" d="M31.5,9.7l-1-0.9c0,0,0.9,0.1,1.2,0.2L31.5,9.7z"/>
<rect x="14" y="2.4" opacity="0.3" fill="#ABABAB" width="5.5px" height="7.5px"/>
<polygon fill="#7E7E7E" points="12.6,1.3 12.7,0.7 19.1,0.7 20.4,1.2 20.4,1.6 12.6,1.6 "/>
<rect x="19" y="2.4" fill="#020303" width="1px" height="7.5px"/>
<polygon fill="#020303" points="12.6,1.6 19.9,1.6 19.9,2.4 13.5,2.4 "/>
<rect x="13.5" y="2.4" fill="#020303" width="0.9px" height="4.6px"/>
<path fill="#4E4E4E" d="M20.4,0.5C20.4,0.2,20,0,19.6,0c-0.4,0-0.7,0.2-0.7,0.5v0.2l1.5,0.9V0.5z"/>
<path fill="#D3D3D3" d="M20.4,0.5C20.4,0.2,20,0,19.6,0c-0.4,0-0.7,0.2-0.7,0.5"/>
<polygon fill="#7E7E7E" points="4.2,8.7 14,8.7 14,9.9 9.5,9.9 7.3,10.8 4.2,10.8 "/>
<polygon fill="#7E7E7E" points="25.3,12.7 29.8,11.5 29.8,14.1 28.1,15 "/>
<polygon fill="#626264" points="11.2,12.2 15.8,12.2 17.1,7 11.2,7 "/>
<polygon fill="#020303" points="23.2,7.4 23.2,10.8 20.7,10.8 20.7,7.4 21.4,6.6 22.5,6.6 "/>
<path fill="#020303" d="M23,0.1c0,0-1.6-0.1-1.6,1.5v5.1h1.1V1.5L23,0.1z"/>
<path fill="#020303" d="M18.4,16.7c0-0.2,0-0.3,0-0.5c0-2.8,2.2-5,5-5c0.2,0,0.3,0,0.4,0c0.3,0,0.6,0.4,0.6,0.4L24,11.9l-4.7,5
	l-0.4,0L18.4,16.7z"/>
<path fill="#FFFFFF" d="M24.4,11.6C24.4,11.6,24.3,11.6,24.4,11.6c-3,0-5.4,2.3-5.5,5.3l0.1,0l0.4,0l4.7-5L24.4,11.6z"/>
<path fill="#020303" d="M24.8,12c2.5,0.2,4.5,2.4,4.5,5c0,2.8-2.2,5-5,5c-2.8,0-5-2.2-5-5c0-2.8,2.2-5,5-5C24.5,12,24.7,12,24.8,12z
	"/>
<circle fill="#D3D3D3" cx="24.4" cy="17" r="3.3"/>
<circle opacity="0.99" fill="#58595B" cx="24.4" cy="17" r="1.1"/>
<polygon fill="#020303" points="13.8,7 12.4,7 11.2,12.2 12.6,12.2 "/>
<polygon fill="#020303" points="16.4,7 15,7 13.7,12.2 15.1,12.2 "/>
<polygon fill="#020303" points="0,8.8 1.6,9.9 1.6,4.4 0,4.4 "/>
<polygon fill="#020303" points="0.8,0.9 0,0.9 0,4.9 1.6,4.4 "/>
<polygon fill="#020303" points="32,4.2 1.6,9.9 0.8,5.5 31.7,2 "/>
<path fill="#020303" d="M0.3,16.4c0-0.2,0-0.3,0-0.5c0-2.8,2.3-5.1,5.1-5.1c0.2,0,0.3,0,0.5,0c0.3,0,0.6,0.4,0.6,0.4l-0.4,0.3
	l-4.6,4.7l-0.7,0.4L0.3,16.4z"/>
<path fill="#FFFFFF" d="M6.5,11.2c-3,0-5.5,2.4-5.6,5.4l4.4,0L6.5,11.2z"/>
<path fill="#020303" d="M7.2,11.8c2.6,0.2,4.7,2.4,4.7,5.1c0,2.8-2.3,5.1-5.1,5.1c-2.8,0-5.1-2.3-5.1-5.1c0-2.8,2.3-5.1,5.1-5.1
	C6.9,11.7,7,11.7,7.2,11.8z"/>
<circle fill="#D3D3D3" cx="6.7" cy="16.9" r="3.4"/>
<circle opacity="0.99" fill="#58595B" cx="6.7" cy="16.9" r="1.1"/>
<polygon fill="#626264" points="9,7.6 1.6,6.5 1.6,6 9,7.1 "/>
<polygon fill="#626264" points="1.6,9.1 9,5.6 9,5.2 1.6,8.5 "/>
<polygon fill="#626264" points="16.1,6.6 9,5.6 9,5.2 16.1,6.1 "/>
<polygon fill="#626264" points="9,7.6 16.1,4.7 16.1,4.2 9,7.1 "/>
<polygon fill="#626264" points="23.3,5.4 16.1,4.7 16.1,4.2 23.3,4.9 "/>
<polygon fill="#626264" points="16.1,6.6 23.3,3.8 23.3,3.3 16.1,6.1 "/>
<polygon fill="#626264" points="29.1,3.7 23.3,3.8 23.3,3.3 29.1,3.2 "/>
<polygon fill="#626264" points="23.3,5.4 29.1,3.7 29.1,3.2 23.3,4.9 "/>
</svg>
