<?xml version="1.0" encoding="utf-8"?>
<!-- Generator: Adobe Illustrator 19.1.0, SVG Export Plug-In . SVG Version: 6.00 Build 0)  -->
<!DOCTYPE svg PUBLIC "-//W3C//DTD SVG 1.1//EN" "http://www.w3.org/Graphics/SVG/1.1/DTD/svg11.dtd">
<svg version="1.1" id="layer_1_" xmlns="http://www.w3.org/2000/svg" xmlns:xlink="http://www.w3.org/1999/xlink" x="0px" y="0px" viewBox="0 0 32 22" enable-background="new 0 0 32 22" xml:space="preserve" width="32px" height="22px" fill="#333">
<polygon fill="#7E7E7E" points="6.8,12.6 2.4,11.5 2.4,9.7 6.8,9.7 "/>
<rect x="1.9" y="14.4" fill="#010101" width="1.1px" height="1.7px"/>
<rect x="1.9" y="14.1" fill="#010101" width="4.3px" height="1.2px"/>
<rect x="5.1" y="9.7" fill="#010101" width="2.4px" height="5.6px"/>
<path fill="#818182" d="M4.5,16.6H0.3c-0.2,0-0.3-0.2-0.3-0.4c0-0.2,0.2-0.4,0.3-0.4h4.2c0.2,0,0.3,0.2,0.3,0.4
	C4.9,16.5,4.7,16.6,4.5,16.6z"/>
<rect x="27" y="12.4" fill="#010101" width="2.4px" height="2.3px"/>
<polygon opacity="0.99" fill="#58595B" points="32,16.6 27,16.6 27,13.5 32,15 "/>
<polygon fill="#7E7E7E" points="27,16.6 6.9,16.6 7,12.6 4.1,2.2 4.1,0 28.9,0 28.9,2.2 27,12.3 "/>
<polygon opacity="0.99" fill="#58595B" points="28,6.9 5.4,6.9 4.1,2.2 28.9,2.2 "/>
<polygon opacity="0.99" fill="#58595B" points="16.2,12.3 8.1,12.3 7.8,9.6 16.2,9.6 "/>
<polygon fill="#D8D8D8" points="16.2,6.9 7.5,6.9 8.2,4.9 15.3,4.9 "/>
<polygon fill="#414042" points="7.8,9.6 8.1,12.3 8.4,10.5 15.6,10.5 16.2,12.3 16.2,9.6 "/>
<polygon opacity="0.99" fill="#58595B" points="17.4,12.3 25.5,12.3 25.8,9.6 17.4,9.6 "/>
<polygon fill="#414042" points="25.8,9.6 25.5,12.3 25.2,10.5 17.9,10.5 17.4,12.3 17.4,9.6 "/>
<polygon fill="#7E7E7E" points="7.5,6.9 6.4,6.9 5.8,3.5 7.2,3.5 "/>
<g>
	<circle fill="#010101" cx="11.3" cy="17.5" r="4.5"/>
	<circle fill="#D8D8D8" cx="11.3" cy="17.5" r="2.6"/>
	<circle opacity="0.99" fill="#58595B" cx="11.3" cy="17.5" r="0.9"/>
</g>
<polygon fill="#414042" points="8.2,4.9 7.5,6.9 7.3,3.5 "/>
<polygon fill="#414042" points="15.3,4.9 16.2,6.9 16.2,3.5 "/>
<polygon fill="#D8D8D8" points="17.4,6.9 26.1,6.9 25.4,4.9 18.3,4.9 "/>
<polygon fill="#7E7E7E" points="26.1,6.9 27.2,6.9 27.7,3.5 26.3,3.5 "/>
<polygon fill="#414042" points="25.4,4.9 26.1,6.9 26.3,3.5 "/>
<polygon fill="#414042" points="18.3,4.9 17.4,6.9 17.4,3.5 "/>
<g>
	<circle fill="#010101" cx="22.5" cy="17.5" r="4.5"/>
	<circle fill="#D8D8D8" cx="22.5" cy="17.5" r="2.6"/>
	<circle opacity="0.99" fill="#58595B" cx="22.5" cy="17.5" r="0.9"/>
</g>
<rect x="16.2" y="3.4" fill="#7E7E7E" width="1.1px" height="3.5px"/>
</svg>
