<?xml version="1.0" encoding="utf-8"?>
<!-- Generator: Adobe Illustrator 19.1.0, SVG Export Plug-In . SVG Version: 6.00 Build 0)  -->
<!DOCTYPE svg PUBLIC "-//W3C//DTD SVG 1.1//EN" "http://www.w3.org/Graphics/SVG/1.1/DTD/svg11.dtd">
<svg version="1.1" id="layer_1_" xmlns="http://www.w3.org/2000/svg" xmlns:xlink="http://www.w3.org/1999/xlink" x="0px" y="0px" viewBox="0 0 32 22" enable-background="new 0 0 32 22" xml:space="preserve" width="32px" height="22px" fill="#333">
<polygon fill="#0E0E0E" points="30.1,7.9 28.7,6.7 28.8,5.8 28.6,5.7 27.8,7.4 27.9,7.5 28.4,7.1 28.7,8.3 28.1,11.2 29.3,11.2 "/>
<path fill="#0E0E0E" d="M24.9,7c0,0,0.9-0.1,1.4,0.8l0.8,0l-0.9,2.7h-1.2V7z"/>
<polygon opacity="0.3" fill="#ABABAB" points="29.1,11.7 24.6,11.7 24.6,6.2 24.6,3.7 31.1,3.7 "/>
<rect x="2.2" y="3.9" fill="#4E4E4E" width="10.3px" height="1.7px"/>
<polygon fill="#4E4E4E" points="3.9,11.7 26.8,12 26.8,13.2 30.3,16 30.3,18.1 23.4,17.3 20.2,18.2 8.3,18.2 "/>
<polygon fill="#0E0E0E" points="25,11.2 29.3,11.2 29.1,12 25,12 "/>
<path fill="#7E7E7E" d="M26.8,12l-2.2-5.9V3H12.5v0.9l-8.1,0c0,0-1.7,3.4-1.7,7.6L5,13.3c0,0,0-1.5,2.7-1.5c2,0,3.4,1.1,5,2
	c1.4,0.7,2.3,1.3,3.7,1.3c1.7,0,2.9-3.1,6.1-3.1C24.9,12,26.8,12,26.8,12z"/>
<polygon fill="#4E4E4E" points="26.7,0 10.4,0 12.5,3 24.6,3 "/>
<circle fill="#0E0E0E" cx="23.4" cy="17.4" r="4.6"/>
<circle fill="#D3D3D3" cx="23.4" cy="17.4" r="2.6"/>
<circle opacity="0.99" fill="#58595B" cx="23.4" cy="17.4" r="0.9"/>
<circle fill="#0E0E0E" cx="9.1" cy="18.9" r="3.1"/>
<circle fill="#D3D3D3" cx="9.1" cy="18.9" r="1.5"/>
<rect x="24.6" y="3" fill="#7E7E7E" width="7.4px" height="0.5px"/>
<polygon fill="#0E0E0E" points="0,7 1.4,7 2.2,5.7 2.2,3.9 0.8,3.9 "/>
<rect x="12.5" y="5.7" fill="#4E4E4E" width="12.1px" height="0.4px"/>
<polygon fill="#0E0E0E" points="30.9,4.5 24.6,4.5 24.6,3.5 31.1,3.5 "/>
<rect x="12.5" y="3" fill="#4E4E4E" width="0.4px" height="11px"/>
<path fill="#7E7E7E" d="M32,2.5c0-0.3-0.4-0.6-1-0.6c-0.6,0-1,0.3-1,0.6v1l2,0V2.5z"/>
<path fill="#D8D8D8" d="M32,2.5c0-0.3-0.4-0.6-1-0.6c-0.6,0-1,0.3-1,0.6"/>
</svg>
