<?xml version="1.0" encoding="utf-8"?>
<!-- Generator: Adobe Illustrator 19.1.0, SVG Export Plug-In . SVG Version: 6.00 Build 0)  -->
<!DOCTYPE svg PUBLIC "-//W3C//DTD SVG 1.1//EN" "http://www.w3.org/Graphics/SVG/1.1/DTD/svg11.dtd">
<svg version="1.1" id="layer_1_" xmlns="http://www.w3.org/2000/svg" xmlns:xlink="http://www.w3.org/1999/xlink" x="0px" y="0px" viewBox="0 0 32 22" enable-background="new 0 0 32 22" xml:space="preserve" width="32px" height="22px" fill="#333">
<rect x="3" y="13" fill="#6D6E71" width="25px" height="3px"/>
<rect x="4.5" y="7.5" fill="#6D6E71" width="1.5px" height="6.8px"/>
<rect x="10.9" y="9.5" fill="#414042" width="1.4px" height="3.8px"/>
<polygon fill="#6D6E71" points="24.1,8 10,8 13.5,14.5 20.6,14.5 "/>
<polygon fill="#6D6E71" points="24,2 10,2 12.2,1.1 21.7,1.1 "/>
<polygon fill="#414042" points="10.4,8 4.9,8 4.9,7 10.4,7 "/>
<polygon fill="#414042" points="11,16 4.2,7.9 4.2,5.8 11,14 "/>
<rect x="25.9" y="15" fill="#6D6E71" width="2px" height="3px"/>
<circle fill="#020303" cx="15.7" cy="16.4" r="5.7"/>
<circle fill="#D8D8D8" cx="15.7" cy="16.4" r="3.4"/>
<polygon fill="#A7A9AC" points="24.1,8 10.1,8 10,2 24,2 "/>
<polygon fill="#A7A9AC" points="10,5.4 8,3 8,0.1 10,0.1 "/>
<polygon fill="#A7A9AC" points="5.6,8.3 2.6,8.3 1.5,4.8 1.5,0.1 6.8,0.1 6.8,4.8 "/>
</svg>
