<?xml version="1.0" encoding="utf-8"?>
<!-- Generator: Adobe Illustrator 19.1.0, SVG Export Plug-In . SVG Version: 6.00 Build 0)  -->
<!DOCTYPE svg PUBLIC "-//W3C//DTD SVG 1.1//EN" "http://www.w3.org/Graphics/SVG/1.1/DTD/svg11.dtd">
<svg version="1.1" id="layer_1_" xmlns="http://www.w3.org/2000/svg" xmlns:xlink="http://www.w3.org/1999/xlink" x="0px" y="0px" viewBox="0 0 32 22" enable-background="new 0 0 32 22" xml:space="preserve" width="32px" height="22px" fill="#333">
<polygon fill="#7E7E7E" points="2.3,12 4.9,13.6 6.3,13.6 4.6,16.6 0,11.5 0,7.4 2.3,9.5 "/>
<polygon fill="#414042" points="2.1,12.4 4.2,14.6 4.9,13.6 4.9,13 2.3,12 "/>
<polygon fill="#020303" points="16.5,11.4 18,7.5 21.2,7.5 21.2,13 16.5,13 "/>
<polygon fill="#414042" points="4.6,16.6 6,14.2 6.8,14.2 6.8,15.6 "/>
<rect x="12.6" y="0" fill="#414042" width="1.5px" height="13px"/>
<polygon fill="#4E4E4E" points="22.6,20.9 26.1,22 29.3,15.4 24.4,15.4 22.6,17.6 "/>
<polygon fill="#020303" points="25.6,8.4 25,14.2 25.9,14.2 26.8,7.8 27.5,6.9 26.9,6.9 26.3,6.9 21.2,6.9 21.2,14.2 24,14.2 
	22.7,8.4 "/>
<polygon fill="#4E4E4E" points="20.9,6.3 19.1,6.3 19.1,2.5 23,2.5 "/>
<polygon opacity="0.3" fill="#ABABAB" points="21.2,6.9 27.5,6.9 26.7,14.2 21.2,14.2 "/>
<rect x="25.7" y="16.2" fill="#4E4E4E" width="2.2px" height="1px"/>
<polygon fill="#414042" points="9,13 6.6,13 6.6,1 9.3,1 "/>
<polygon fill="#7E7E7E" points="21.9,13 21.5,13 4.9,13 4.9,14.2 21.5,14.2 21.9,14.2 26.7,14.2 26.8,13 "/>
<polygon fill="#D3D3D3" points="4.9,13.6 23,13.6 22.8,13 4.9,13 "/>
<polygon fill="#7E7E7E" points="19.5,3.7 13.3,3.7 13.3,10.3 14.1,11.5 14.1,13 16.6,13 19.6,7.6 "/>
<polygon fill="#7E7E7E" points="19.9,0 12.6,0 13.3,3.7 21.5,3.7 "/>
<rect x="14.3" y="5.8" opacity="0.99" fill="#414042" width="3.6px" height="1.9px"/>
<polygon fill="#7E7E7E" points="9,13 12.6,13 12.6,3.7 11.6,1 9.3,1 7.9,3.7 "/>
<polygon fill="#4E4E4E" points="11.2,10.9 9.9,10.9 9.4,3.7 11.2,3.7 "/>
<rect x="7.6" y="14.2" fill="#4E4E4E" width="14.3px" height="4.5px"/>
<polygon fill="#7E7E7E" points="2.3,12 4.9,13 7.9,13 6.6,1 2.3,3 "/>
<polygon fill="#4E4E4E" points="6.6,10.9 4.1,9.1 4.1,3.7 6,3.7 "/>
<rect x="6.1" y="14.2" fill="#414042" width="5.8px" height="1.4px"/>
<rect x="26.1" y="17.6" fill="#7E7E7E" width="2.4px" height="4.4px"/>
<rect x="28.5" y="15.4" fill="#4E4E4E" width="0.8px" height="6.6px"/>
<polygon fill="#D3D3D3" points="29.3,16.7 29.3,22 32,22 "/>
<polygon fill="#A7A9AC" points="28.5,14.2 28.5,17.6 25.7,17.6 "/>
<rect x="23.9" y="15.4" fill="#020303" width="1.8px" height="2.2px"/>
<polygon fill="#7E7E7E" points="26.1,22 23.9,19.6 23.9,17.6 26.1,17.6 "/>
<rect x="21.2" y="6.1" fill="#020303" width="6.3px" height="0.8px"/>
<polygon fill="#7E7E7E" points="21.2,5.4 26.1,5.4 27.5,6.1 21.2,6.1 "/>
<rect x="13.3" y="3.7" fill="#4E4E4E" width="6.2px" height="1.2px"/>
<polygon fill="#020303" points="23.9,15.4 25.7,15.4 20.6,3.7 17.4,3.7 "/>
<circle fill="#020303" cx="20.1" cy="18.6" r="3.4"/>
<circle fill="#D3D3D3" cx="20.1" cy="18.6" r="1.8"/>
<circle fill="#020303" cx="7.6" cy="19.2" r="2.8"/>
<circle fill="#D3D3D3" cx="7.6" cy="19.2" r="1.5"/>
<rect x="11.1" y="14.2" fill="#414142" width="4.7px" height="5.4px"/>
<rect x="11.1" y="14.2" fill="#020303" width="4.7px" height="1.4px"/>
<polygon fill="#A7A9AC" points="0,10.1 0,9 2.3,7.6 3.6,9.3 2.1,12.4 "/>
<path fill="#4E4E4E" d="M27.5,4.9c0-0.3-0.4-0.5-0.8-0.5s-0.8,0.2-0.8,0.5v0.5l1.7,0.7V4.9z"/>
<path fill="#D3D3D3" d="M27.5,4.9c0-0.3-0.4-0.5-0.8-0.5s-0.8,0.2-0.8,0.5"/>
</svg>
