<?xml version="1.0" encoding="utf-8"?>
<!-- Generator: Adobe Illustrator 19.1.0, SVG Export Plug-In . SVG Version: 6.00 Build 0)  -->
<!DOCTYPE svg PUBLIC "-//W3C//DTD SVG 1.1//EN" "http://www.w3.org/Graphics/SVG/1.1/DTD/svg11.dtd">
<svg version="1.1" id="layer_1_" xmlns="http://www.w3.org/2000/svg" xmlns:xlink="http://www.w3.org/1999/xlink" x="0px" y="0px" viewBox="0 0 32 22" enable-background="new 0 0 32 22" xml:space="preserve" width="32px" height="22px" fill="#333">
<g>
	<polygon opacity="0.99" fill="#58595B" points="30,21 22,17 22,13 30,18 	"/>
	<g>
		<circle fill="#020303" cx="29.5" cy="19.5" r="2.5"/>
		<circle fill="#D8D8D8" cx="29.5" cy="19.5" r="1.2"/>
	</g>
</g>
<path fill="#020303" d="M7.6,1L2.3,2.2c0,0-2.3,1.1-2.3,3c0,0.9,0,4.4,0,5.9c0,2.9,5.6,4.1,5.6,4.1L7.6,1z"/>
<path opacity="0.99" fill="#58595B" d="M7.8,17c0,0-1.6,0-1.9-1.1c-0.4-1.1-1.7-3.8-1.7-3.8L16,7.9l9.5,7.8l-5.9,2.8"/>
<g>
	<circle fill="#020303" cx="13.7" cy="18" r="4"/>
	<circle fill="#D8D8D8" cx="13.7" cy="18" r="2"/>
</g>
<path fill="#7E7E7E" d="M26.7,3.9c0,0-6.5-3.9-12.9-3.9C9.7,0,8,0,8,0L4.1,7.4l0,4.7h9.9c2.7,0,5.5,2.4,5.5,4.6v1.8
	c0,0,6.7-3.2,7.4-3.5c0.6-0.3,1.5-0.5,2.2-1.5C30.7,11.1,26.7,3.9,26.7,3.9z"/>
</svg>
