<?xml version="1.0" encoding="UTF-8" standalone="no"?>
<svg width="32px" height="22px" viewBox="0 0 32 22" version="1.1" xmlns="http://www.w3.org/2000/svg" xmlns:xlink="http://www.w3.org/1999/xlink" fill="#333">
    <rect fill="#414042" x="10.6700003" y="6.1500001" width="3.88000011px" height="2.03700006px"/>
    <polygon fill="#4E4E4E" points="12.6100004 9.06000018 8.73000026 9.06000018 8.73000026 3.24000001 10.6700003 3.24000001"/>
    <rect fill="#414042" x="13.5800004" y="16.8200004" width="7.76000023px" height="0.970000029px"/>
    <polygon fill="#4E4E4E" points="16.4900005 9.06000018 26.1900008 5.18000007 26.1900008 4.21000004 8.73000026 9.06000018"/>
    <rect fill="#4E4E4E" x="12.6100004" y="9.06000018" width="15.5200005px" height="1.94000006px"/>
    <polygon fill="#939598" points="28.1300008 11.0000002 32.0100009 11.0000002 32.0100009 9.06000018 28.1300008 7.12000012"/>
    <polygon fill="#939598" points="15.5200005 8.18700016 17.4600005 11.0000002 17.4600005 15.4620004 15.5200005 17.7900004 4.85000014 17.7900004 4.85000014 8.09000015"/>
    <circle fill="#020303" cx="3.3950001" cy="15.3650004" r="3.3950001"/>
    <circle fill="#D8D8D8" cx="3.3950001" cy="15.3650004" r="1.94000006"/>
    <rect fill="#4E4E4E" x="8.73000026" y="3.24000001" width="17.0720005px" height="0.970000029px"/>
    <polygon fill="#939598" points="29.1000009 11.0000002 27.9360008 3.24000001 24.7350007 3.24000001 23.2800007 9.06000018"/>
    <polygon fill="#D1D3D4" points="15.5200005 10.0300002 6.7900002 10.0300002 6.7900002 9.06000018 14.8410004 9.06000018"/>
    <polygon fill="#414042" points="24.2500007 17.7900004 21.3400006 17.7900004 21.3400006 14.8800004"/>
    <rect fill="#939598" x="23.2800007" y="9.06000018" width="5.82000017px" height="3.88000011px"/>
</svg>
