<?xml version="1.0" encoding="utf-8"?>
<!-- Generator: Adobe Illustrator 21.1.0, SVG Export Plug-In . SVG Version: 6.00 Build 0)  -->
<svg version="1.0" id="Layer_1" xmlns="http://www.w3.org/2000/svg" xmlns:xlink="http://www.w3.org/1999/xlink" x="0px" y="0px"
	 viewBox="0 0 32 32" style="enable-background:new 0 0 32 32;" xml:space="preserve" width="32px" height="32px" fill="#333">
<style type="text/css">
	.primary{fill:#7E7E7E;}
	.secondary{fill:#D3D3D3;}
	.tertiary{opacity:0.3;fill:#7E7E7E;}
	.quaternary{fill:#020303;}
	.quinary{opacity:0.3;fill:#020303;}
	.senary{opacity:0.3;fill:#FFFFFF;}
</style>
<path class="primary" d="M29,15H7v9h22V15z"/>
<path class="quaternary" d="M24.5,16c-1.041,0-2.023,0.468-2.695,1.284l-4.128,5.504C17.24,23.254,17,23.859,17,24.5
	c0,1.378,1.121,2.5,2.5,2.5h10c1.379,0,2.5-1.122,2.5-2.5c0-0.641-0.24-1.246-0.677-1.711l-4.1-5.469
	C26.523,16.468,25.541,16,24.5,16L24.5,16z"/>
<path class="quaternary" d="M7.5,16c-1.041,0-2.023,0.468-2.695,1.284l-4.128,5.504C0.24,23.254,0,23.859,0,24.5
	C0,25.878,1.121,27,2.5,27h10c1.379,0,2.5-1.122,2.5-2.5c0-0.641-0.24-1.246-0.677-1.711l-4.1-5.469C9.523,16.468,8.541,16,7.5,16
	L7.5,16z"/>
<path class="quinary" d="M29,15H7v9h22V15z"/>
<path class="quinary" d="M29,15H7v9h22V15z"/>
<path class="quaternary" d="M6,15v-1c0-0.552,0.448-1,1-1h3c1,0,2,0.951,2,1.995V15v2l-4-2H6z"/>
<polygon class="quaternary" points="18.7,9.3 18.2,9 17,11 17.5,11.3 "/>
<polygon class="quaternary" points="20.4,10 20.4,14 18,10 "/>
<path class="primary" d="M30.6,21H30c0,0-1,0-1.3-1c-0.4-1.5,0-5-6.7-5v-4c7,0,10,3,10,3L30.6,21z"/>
<path class="secondary" d="M21,12c5,0,8,1,8,1s-2.5-1.5-8-1.5V12z"/>
<path class="quaternary" d="M32,14l-1.2,6c0,0-0.8,0-1.1-1c-0.3-1-1.2-5.5-1.2-5.5L32,14z"/>
<polygon class="quaternary" points="28,17 27,16 26.4,13.1 27,13.2 "/>
<polygon class="quaternary" points="26.4,15.5 25.6,15 25.2,12.8 25.8,13 "/>
<path class="primary" d="M23,6H12c0-0.6,0.4-1,1-1h10V6z"/>
<path class="quaternary" d="M21,6h-9c0,0.6,0.4,1,1,1h8V6z"/>
<path class="quaternary" d="M13,6v11h6l3-2V6H13z M20,15h-2c0-2-2-4-4-4V8c0-0.6,0.4-1,1-1h4c0.6,0,1,0.4,1,1V15z"/>
<path class="tertiary" d="M20,15h-2c0-2-2-4-4-4V8c0-0.6,0.4-1,1-1h4c0.6,0,1,0.4,1,1V15z"/>
<rect x="20.5" y="8.5" class="primary" width="1px" height="5px"/>
<path class="primary" d="M17,16v1h-4v-5C15.2,12,17,13.8,17,16L17,16z"/>
<path class="senary" d="M17,16L17,16c0-2.2-1.8-4-4-4v1C16,13,17,16,17,16z"/>
<path class="quaternary" d="M14,18h4c0,0-1,1-1,3.9c0,1.1,0,2.1,0,2.1h-3V18z"/>
<path class="quaternary" d="M25,5c0,0-2,0-2,2v4h1V7L25,5z"/>
<path class="quaternary" d="M24,11h-2v3l0,0l0,0c0,0.6,0.4,1,1,1s1-0.4,1-1l0,0l0,0V11z"/>
<path class="primary" d="M24.5,17c0.778,0,1.464,0.363,1.923,0.92l4.137,5.519C30.832,23.71,31,24.085,31,24.5
	c0,0.828-0.672,1.5-1.5,1.5h-10c-0.828,0-1.5-0.672-1.5-1.5c0-0.415,0.168-0.79,0.44-1.061l4.137-5.519
	C23.036,17.363,23.722,17,24.5,17"/>
<path class="quinary" d="M24.5,17c0.778,0,1.464,0.363,1.923,0.92l4.137,5.519C30.832,23.71,31,24.085,31,24.5
	c0,0.828-0.672,1.5-1.5,1.5h-10c-0.828,0-1.5-0.672-1.5-1.5c0-0.415,0.168-0.79,0.44-1.061l4.137-5.519
	C23.036,17.363,23.722,17,24.5,17"/>
<circle class="secondary" cx="24.5" cy="19.5" r="2.5"/>
<circle class="secondary" cx="29.5" cy="24.5" r="1.5"/>
<circle class="secondary" cx="19.5" cy="24.5" r="1.5"/>
<circle class="quaternary" cx="23" cy="25" r="1"/>
<circle class="quaternary" cx="26" cy="25" r="1"/>
<circle class="quinary" cx="24.5" cy="19.5" r="1"/>
<path class="primary" d="M7.5,17c0.778,0,1.464,0.363,1.923,0.92l4.137,5.519C13.832,23.71,14,24.085,14,24.5
	c0,0.828-0.672,1.5-1.5,1.5h-10C1.672,26,1,25.328,1,24.5c0-0.415,0.168-0.79,0.44-1.061l4.137-5.519C6.036,17.363,6.722,17,7.5,17"
	/>
<path class="quinary" d="M7.5,17c0.778,0,1.464,0.363,1.923,0.92l4.137,5.519C13.832,23.71,14,24.085,14,24.5
	c0,0.828-0.672,1.5-1.5,1.5h-10C1.672,26,1,25.328,1,24.5c0-0.415,0.168-0.79,0.44-1.061l4.137-5.519C6.036,17.363,6.722,17,7.5,17"
	/>
<circle class="secondary" cx="7.5" cy="19.5" r="2.5"/>
<circle class="secondary" cx="12.5" cy="24.5" r="1.5"/>
<circle class="secondary" cx="2.5" cy="24.5" r="1.5"/>
<circle class="quaternary" cx="6" cy="25" r="1"/>
<circle class="quaternary" cx="9" cy="25" r="1"/>
<circle class="quinary" cx="7.5" cy="19.5" r="1"/>
<path class="primary" d="M11,21H4l0,0c0,1.105,0.895,2,2,2h3C10.105,23,11,22.105,11,21L11,21z"/>
<path class="primary" d="M28,21h-7l0,0c0,1.105,0.895,2,2,2h3C27.105,23,28,22.105,28,21L28,21z"/>
<path class="primary" d="M6,14v1c3.3,0,3.8,2,6,2C12,17,10.4,14,6,14z"/>
</svg>
