<?xml version="1.0" encoding="utf-8"?>
<!-- Generator: Adobe Illustrator 19.1.0, SVG Export Plug-In . SVG Version: 6.00 Build 0)  -->
<!DOCTYPE svg PUBLIC "-//W3C//DTD SVG 1.1//EN" "http://www.w3.org/Graphics/SVG/1.1/DTD/svg11.dtd">
<svg version="1.1" id="layer_1_" xmlns="http://www.w3.org/2000/svg" xmlns:xlink="http://www.w3.org/1999/xlink" x="0px" y="0px" viewBox="0 0 32 22" enable-background="new 0 0 32 22" xml:space="preserve" width="32px" height="22px" fill="#333">
<rect x="21.3" y="13.4" fill="#7E7E7E" width="10.7px" height="3.3px"/>
<path fill="#010101" d="M2,15.9c0-2.9,2.4-5.3,5.3-5.3c2.9,0,5.3,2.4,5.3,5.3c0,2.9-2.4,5.3-5.3,5.3C4.4,21.2,2,18.8,2,15.9z"/>
<path opacity="0.99" fill="#58595B" d="M23.9,9.4l3.5-1.6V4.5c0-0.6-0.1-1.2-1.3-1.2h-2.2L23.9,9.4z"/>
<polygon fill="#7E7E7E" points="0,17.2 10.3,17.2 10.3,12.1 0,15.4 "/>
<path fill="#888A8D" d="M23.9,1.7V14l-7.6,3.2l-8.2-4.4L9.4,0H15l0,1.7c0,0,6.1,0,7.7,0H23.9z"/>
<ellipse fill="#010101" cx="16.3" cy="15.4" rx="6.6" ry="6.6"/>
<circle fill="#D8D8D8" cx="16.3" cy="15.4" r="3.1"/>
<circle fill="#A1A1A1" cx="16.3" cy="15.4" r="1.3"/>
<rect x="10.6" y="0.9" fill="#A7A9AC" width="3.3px" height="2.7px"/>
<polygon opacity="0.99" fill="#58595B" points="15,6.6 9.9,4.9 15,4.9 "/>
</svg>
