<?xml version="1.0" encoding="utf-8"?>
<!-- Generator: Adobe Illustrator 19.1.0, SVG Export Plug-In . SVG Version: 6.00 Build 0)  -->
<!DOCTYPE svg PUBLIC "-//W3C//DTD SVG 1.1//EN" "http://www.w3.org/Graphics/SVG/1.1/DTD/svg11.dtd">
<svg version="1.1" id="layer_1_" xmlns="http://www.w3.org/2000/svg" xmlns:xlink="http://www.w3.org/1999/xlink" x="0px" y="0px" viewBox="0 0 32 22" enable-background="new 0 0 32 22" xml:space="preserve" width="32px" height="22px" fill="#333">
<g>
	<rect x="6" y="13" opacity="0.99" fill="#414042" width="1px" height="4px"/>
	<polygon fill="#7E7E7E" points="16,6.1 2,6.1 1,7 1,14 16,14 	"/>
	<polygon fill="#7E7E7E" points="22,10 15,10 15,14 21,14 	"/>
	<polygon fill="#A7A9AC" points="27.7,15 22,15 22,16 26,18 32,18 	"/>
	<rect x="8" y="13.1" fill="#020303" width="2px" height="1.9px"/>
	<polygon opacity="0.99" fill="#58595B" points="22,19.3 22,16 27,16 29,21 26,21 	"/>
	<polygon opacity="0.99" fill="#58595B" points="21.2,13 1,13 1,14 21,14 	"/>
	<rect x="4.5" y="7.5" fill="#D8D8D8" width="6px" height="0.5px"/>
	<rect x="12" y="7.5" fill="#D8D8D8" width="2.5px" height="0.5px"/>
	<path fill="#020303" d="M8,4.7v2.5H7V4.7C7,4.2,6.8,4,6.4,4H6L5,3h1.4C7.1,3,8,3.4,8,4.7z"/>
	<rect x="10" y="2" fill="#020303" width="2px" height="2px"/>
	<rect x="10.5" y="3" fill="#020303" width="1px" height="3.7px"/>
	<path fill="#7E7E7E" d="M32,20.1C30.4,22.3,25,22,25,22v-3l2,0V16l5,2L32,20.1z"/>
	<rect x="11.5" y="13.5" opacity="0.99" fill="#58595B" width="0.5px" height="3.5px"/>
	<rect x="11.5" y="7" opacity="0.99" fill="#58595B" width="0.5px" height="6px"/>
	<rect x="10.5" y="7" opacity="0.99" fill="#58595B" width="0.5px" height="6px"/>
	<rect x="4" y="7" opacity="0.99" fill="#58595B" width="0.5px" height="6px"/>
	<rect x="14.5" y="7" opacity="0.99" fill="#58595B" width="0.5px" height="6px"/>
	<rect x="13.5" y="13.5" opacity="0.99" fill="#58595B" width="0.5px" height="3.5px"/>
	<rect x="11.5" y="15" opacity="0.99" fill="#58595B" width="2.5px" height="0.5px"/>
	<rect x="11.5" y="7" opacity="0.99" fill="#58595B" width="3.5px" height="0.5px"/>
	<rect x="4" y="7" opacity="0.99" fill="#58595B" width="7px" height="0.5px"/>
	<rect x="11.5" y="16.5" opacity="0.99" fill="#58595B" width="2.5px" height="0.5px"/>
	<polygon fill="#D8D8D8" points="27,19 32,20.1 32,19.5 27,18 	"/>
	<ellipse fill="#020303" cx="19" cy="17.6" rx="4.4" ry="4.4"/>
	<circle fill="#D8D8D8" cx="19" cy="17.6" r="2.1"/>
	<circle opacity="0.99" fill="#58595B" cx="19" cy="17.6" r="0.9"/>
	<circle fill="#020303" cx="3" cy="19" r="3"/>
	<circle fill="#D8D8D8" cx="3" cy="19" r="1.5"/>
	<path fill="#7E7E7E" d="M8,17c0,0-4.8,2.4-5,2.5c-0.2,0.1-0.5,0.2-0.7,0c-0.1-0.2-0.1-0.5,0-0.6C2.5,18.7,5,16,5,16h3V17z"/>
	<rect x="2" y="6.1" opacity="0.99" fill="#414042" width="0.5px" height="7px"/>
	<rect x="1" y="7" fill="#A1A1A1" width="1px" height="2px"/>
	<polygon opacity="0.99" fill="#58595B" points="28,12 27,12 27,16 29,16.9 	"/>
	<polygon fill="#A7A9AC" points="1,7 15,7 15,6.1 2,6.1 	"/>
	<polygon fill="#020303" points="21.8,5.4 21.2,4.9 20.9,5.2 20.7,4.7 21,4.3 20.8,4.1 19.6,5.4 19.9,5.6 20.1,5.3 20.7,5.4 
		20.3,5.9 20.3,8.3 21,8.3 	"/>
	<path fill="#020303" d="M16.6,7.1V5.4c0,0,0.4-0.1,0.6,0c0.3,0.2,0.6,0.7,0.6,0.7l1.5,0c0,0,0,0.5-0.5,0.5l0,0.5H16.6z"/>
	<path fill="#020303" d="M21.3,9L23,3h1l1-1H15v8h7l1-1H21.3z M17.4,7.1c0,0-0.6-1.2-1-2.6C15.9,3.1,17,3.1,17,3.1h4
		c0,0,0.8,0,0.7,0.9s-0.8,3.1-0.8,3.1H17.4z"/>
	<rect x="15" y="1" fill="#7E7E7E" width="10px" height="1px"/>
	<path opacity="0.3" fill="#B9B9B9" d="M17.4,7.1h3.5c0,0,0.6-2.2,0.8-3.1C21.8,3.1,21,3.1,21,3.1h-4c0,0-1.1,0-0.7,1.4
		C16.7,5.9,17.4,7.1,17.4,7.1z"/>
	<path fill="#7E7E7E" d="M25,0.6C25,0.2,24.5,0,24,0c-0.6,0-1,0.3-1,0.6V2l2,0V0.6z"/>
	<path fill="#D8D8D8" d="M25,0.6C25,0.2,24.5,0,24,0c-0.6,0-1,0.3-1,0.6"/>
	<polyline opacity="0.3" fill="#B9B9B9" points="23,9 21.3,9 23,3 24,3 	"/>
</g>
</svg>
