<?xml version="1.0" encoding="utf-8"?>
<!-- Generator: Adobe Illustrator 19.1.0, SVG Export Plug-In . SVG Version: 6.00 Build 0)  -->
<!DOCTYPE svg PUBLIC "-//W3C//DTD SVG 1.1//EN" "http://www.w3.org/Graphics/SVG/1.1/DTD/svg11.dtd">
<svg version="1.1" id="layer_1_" xmlns="http://www.w3.org/2000/svg" xmlns:xlink="http://www.w3.org/1999/xlink" x="0px" y="0px" viewBox="0 0 32 22" enable-background="new 0 0 32 22" xml:space="preserve" width="32px" height="22px" fill="#333">
<polygon opacity="0.99" fill="#58595B" points="11.6,12.3 20.8,12.3 20.8,7 15.1,7 "/>
<rect x="28.3" y="7" opacity="0.99" fill="#58595B" width="1px" height="4px"/>
<polygon opacity="0.99" fill="#58595B" points="24.8,6 27.8,6 27.8,11.2 24.8,9 "/>
<polygon opacity="0.99" fill="#58595B" points="5.3,20.7 15.8,17 15.8,13.9 11.5,11.9 "/>
<ellipse fill="#010101" cx="7.1" cy="19.1" rx="3.1" ry="2.5"/>
<polygon fill="#D8D8D8" points="9.8,6 9.1,6.8 1.9,6.8 0.8,6 0.8,2 9.8,2 "/>
<polygon fill="#010101" points="23.4,0 11.3,0 11.8,1 22.8,1 "/>
<polygon fill="#010101" points="10.5,1 0.2,1 0.8,2 9.8,2 "/>
<polygon fill="#D8D8D8" points="22.8,5.1 20.8,8 13.8,8 11.8,5 11.8,1 22.8,1 "/>
<rect x="11.8" y="11.6" fill="#7E7E7E" width="10px" height="3.4px"/>
<rect x="19.8" y="7.3" fill="#7E7E7E" width="2px" height="7.2px"/>
<polygon fill="#7E7E7E" points="11.8,15 8.2,9.7 9.8,6.8 13.5,11.6 "/>
<rect x="29.3" y="7" fill="#7E7E7E" width="2.5px" height="4px"/>
<rect x="19.8" y="11" fill="#7E7E7E" width="9px" height="1px"/>
<rect x="19.8" y="7" fill="#7E7E7E" width="9px" height="2px"/>
<rect x="27.8" y="6" fill="#7E7E7E" width="1px" height="6px"/>
<circle fill="#010101" cx="15.3" cy="17.9" r="4"/>
<ellipse fill="#2B2C2B" cx="15.3" cy="18.4" rx="3.3" ry="3.1"/>
<circle fill="#808184" cx="15.3" cy="18.2" r="0.7"/>
<circle fill="#010101" cx="16" cy="8.9" r="2.6"/>
<polygon fill="#A7A9AC" points="22.8,5.1 21.8,6.5 21.8,1 22.8,1 "/>
<polygon fill="#A7A9AC" points="9.8,6 8.8,7 8.8,2 9.8,2 "/>
<polygon fill="#7E7E7E" points="9.8,9.8 1.9,9 0.8,6.8 9.8,6.8 "/>
<rect x="0.8" y="2" fill="#A7A9AC" width="9px" height="1px"/>
<rect x="11.8" y="1" fill="#A7A9AC" width="11px" height="1px"/>
<ellipse fill="#2B2C2B" cx="7.1" cy="19.5" rx="2.5" ry="1.9"/>
<circle fill="#808184" cx="7.1" cy="19.4" r="0.6"/>
<polygon opacity="0.99" fill="#58595B" points="19.8,13.8 19.8,11.6 18.9,11.6 "/>
<polygon fill="#7E7E7E" points="21.8,13 21.8,12 22.8,12 "/>
</svg>
