<?xml version="1.0" encoding="utf-8"?>
<!-- Generator: Adobe Illustrator 19.1.0, SVG Export Plug-In . SVG Version: 6.00 Build 0)  -->
<!DOCTYPE svg PUBLIC "-//W3C//DTD SVG 1.1//EN" "http://www.w3.org/Graphics/SVG/1.1/DTD/svg11.dtd">
<svg version="1.1" id="layer_1_" xmlns="http://www.w3.org/2000/svg" xmlns:xlink="http://www.w3.org/1999/xlink" x="0px" y="0px" viewBox="0 0 32 22" enable-background="new 0 0 32 22" xml:space="preserve" width="32px" height="22px" fill="#333">
<path opacity="0.99" fill="#58595B" d="M16.6,20.5l-10,0c-0.8,0-1.3-0.3-1.3-1.1l0-2l14.5,0.2l-2,2.6C17.5,20.4,17,20.5,16.6,20.5z"/>
<path fill="#030404" d="M10,17.3l4.9,2.5v1l-3.4,0H6.4c-0.8,0-1.4-0.6-1.4-1.4v-2.1H10z"/>
<polygon fill="#030404" points="29.3,18.8 18.6,17.5 17.9,18.7 32,20.2 "/>
<g>
	<polygon fill="#030404" points="9.7,14 6.1,7.6 9.7,1.2 17.1,1.2 20.8,7.6 17.1,14 	"/>
	<path fill="#A7A9AC" d="M14.3,6c-0.4,0.5-1.1,0.5-1.5,0l-1.3-1.7c-0.4-0.5-0.2-1.2,0.4-1.4c0,0,0.6-0.2,1.7-0.2s1.7,0.2,1.7,0.2
		c0.6,0.2,0.8,0.9,0.4,1.4L14.3,6z"/>
	<path fill="#A7A9AC" d="M14.3,9.4c-0.4-0.5-1.1-0.5-1.5,0l-1.3,1.7c-0.4,0.5-0.2,1.2,0.4,1.4c0,0,0.6,0.2,1.7,0.2s1.7-0.2,1.7-0.2
		c0.6-0.2,0.8-0.9,0.4-1.4L14.3,9.4z"/>
	<path fill="#A7A9AC" d="M15.2,8.4c-0.5-0.4-0.5-1.1,0-1.5l1.7-1.3c0.5-0.4,1.2-0.2,1.4,0.4c0,0,0.2,0.6,0.2,1.7s-0.2,1.7-0.2,1.7
		c-0.2,0.6-0.9,0.8-1.4,0.4L15.2,8.4z"/>
	<path fill="#A7A9AC" d="M11.8,8.4c0.5-0.4,0.5-1.1,0-1.5l-1.7-1.3C9.6,5.2,8.9,5.4,8.7,6c0,0-0.2,0.6-0.2,1.7s0.2,1.7,0.2,1.7
		c0.2,0.6,0.9,0.8,1.4,0.4L11.8,8.4z"/>
</g>
<path fill="#7E7E7E" d="M22,19.2L0,16.7l0-7.4c0-1.2,1.1-2.4,2.8-1.8l12.3,5L22,19.2z"/>
<polygon opacity="0.99" fill="#58595B" points="12.1,11.2 11.5,11 8.8,17.7 9.9,17.8 "/>
<path fill="#7E7E7E" d="M25.2,12.6l-4.6-0.5c-0.7-0.1-1.3,0.4-1.4,1.2l-0.3,2.9l11,3.4l0-1.8L25.2,12.6z"/>
<polygon fill="#7E7E7E" points="25.2,9.3 25.2,12.6 19.6,12.4 "/>
<polygon fill="#BCBEC0" points="29,19.3 29.8,17.8 32,20.2 "/>
<path fill="#D8D8D8" d="M22,19.2l-2.7-2.7l-1.3,2.2c-0.3,0.3-0.6,1.1-1.4,1.1h-5v1h5.3c0.4,0,0.8-0.2,1.1-0.5l1.1-1.4L22,19.2z"/>
<circle fill="#D8D8D8" stroke="#010101" stroke-width="0.5px" stroke-miterlimit="10" cx="3.2" cy="11" r="1.2"/>
</svg>
