<?xml version="1.0" encoding="utf-8"?>
<!-- Generator: Adobe Illustrator 19.1.0, SVG Export Plug-In . SVG Version: 6.00 Build 0)  -->
<!DOCTYPE svg PUBLIC "-//W3C//DTD SVG 1.1//EN" "http://www.w3.org/Graphics/SVG/1.1/DTD/svg11.dtd">
<svg version="1.1" id="layer_1_" xmlns="http://www.w3.org/2000/svg" xmlns:xlink="http://www.w3.org/1999/xlink" x="0px" y="0px" viewBox="0 0 32 22" enable-background="new 0 0 32 22" xml:space="preserve" width="32px" height="22px" fill="#333">
<path fill="#BCBEC0" d="M16.2,17.6c-4.6-0.5-6.1-2.7-5.7-4.8c0.4-1.9,2.3-3.3,2.3-3.3h1.5c0,0-2.5,1.8-2.6,3.6
	c-0.1,1.8,1.1,2.7,2.8,3.2L16.2,17.6z"/>
<path fill="#BCBEC0" d="M29.4,19.6c-6.2-0.7-8.3-3.5-7.8-6.3c0.5-2.5,3.1-4.4,3.2-4h2c0-0.4-3.4,2-3.5,4.4c-0.1,2.4,1.5,3.6,3.8,4.3
	L29.4,19.6z"/>
<path fill="#BCBEC0" d="M14.7,19.6c-6-0.7-8.1-3.5-7.6-6.3c0.5-2.5,3.1-4.4,3.1-4h2c0-0.4-3.3,2-3.4,4.4c-0.1,2.4,1.4,3.6,3.7,4.3
	L14.7,19.6z"/>
<polygon opacity="0.99" fill="#58595B" points="14.4,11.4 16.9,11.4 18.6,14.5 16.1,14.5 "/>
<circle fill="#010101" cx="17.6" cy="16.2" r="3.5"/>
<circle fill="#D8D8D8" cx="17.6" cy="16.3" r="1.7"/>
<polygon fill="#7E7E7E" points="30.1,11.4 0,11.4 0,8.5 6,6.8 9.1,9 30.1,9 "/>
<polygon fill="#7E7E7E" points="32,13.4 29.6,13.4 27.3,11.4 30.1,9 32,9 "/>
<polygon fill="#7E7E7E" points="28.6,4.1 25.5,9 30.1,9 30.1,2.4 "/>
<polygon fill="#7E7E7E" points="30.1,2.4 12.8,9 17.5,9 30,4.2 "/>
<polygon opacity="0.99" fill="#58595B" points="30,4.2 27.9,5 27,6.6 30,5.6 "/>
<circle fill="#020202" cx="28.3" cy="13" r="2.5"/>
<circle fill="#808184" cx="28.3" cy="13" r="0.8"/>
<circle fill="#020202" cx="2.5" cy="12.2" r="2.5"/>
<circle fill="#808184" cx="2.5" cy="12.2" r="0.8"/>
</svg>
