<?xml version="1.0" encoding="utf-8"?>
<!-- Generator: Adobe Illustrator 21.1.0, SVG Export Plug-In . SVG Version: 6.00 Build 0)  -->
<svg version="1.0" id="Layer_1" xmlns="http://www.w3.org/2000/svg" xmlns:xlink="http://www.w3.org/1999/xlink" x="0px" y="0px"
	 viewBox="0 0 32 32" style="enable-background:new 0 0 32 32;" xml:space="preserve" width="32px" height="32px" fill="#333">
<style type="text/css">
	.primary{fill:#7E7E7E;}
	.secondary{fill:#D3D3D3;}
	.tertiary{opacity:0.3;fill:#7E7E7E;}
	.quaternary{fill:#020303;}
	.quinary{opacity:0.3;fill:#020303;}
	.senary{opacity:0.3;fill:#FFFFFF;}
</style>
<polygon class="quaternary" points="1,22 0,24 0,14 1,14 "/>
<polygon class="primary" points="2,14 2,21 27,21 29,19 31,14 "/>
<polygon class="quinary" points="2,14 2,21 27,21 29,19 31,14 "/>
<path class="quaternary" d="M21,23h-1c0-3.3,2.7-6,6-6v1C23.2,18,21,20.2,21,23z"/>
<polygon class="quaternary" points="19.5,9.2 19,8.9 17.8,10.9 18.3,11.2 "/>
<polygon class="quaternary" points="22,10 22,14 21,14 18.6,10 "/>
<rect x="15" y="7" class="tertiary" width="6px" height="7px"/>
<polygon class="primary" points="23,5 14,5 14,6 22,6 "/>
<rect x="14" y="6" class="quaternary" width="1px" height="8px"/>
<rect x="14" y="6" class="quaternary" width="8px" height="1px"/>
<rect x="21" y="6" class="quaternary" width="1px" height="9px"/>
<path class="primary" d="M31,19l-3,1c0,0,0,0,0-2c0-3-3-3-6-3c0-1.1,0-5,0-5c8,0,10,3,10,3L31,19z"/>
<path class="quaternary" d="M32,13l-1,6c0,0,0-4-3-5c-0.6-1-1-2-1-2l4,1H32z"/>
<rect x="14" y="14" class="primary" width="7px" height="1px"/>
<polygon class="primary" points="19,15 14,15 14,11 16,11 "/>
<path class="secondary" d="M22,12c6.1,0,9,1,9,1s-2.9-2-9-2V12z"/>
<path class="quaternary" d="M26,7c0,0-2,0-2,2v4h1V9L26,7z"/>
<path class="quaternary" d="M25,11h-2v2l0,0l0,0c0,0.6,0.4,1,1,1s1-0.4,1-1l0,0l0,0V11z"/>
<circle class="quaternary" cx="26" cy="23" r="4"/>
<circle class="secondary" cx="26" cy="23" r="2"/>
<circle class="quinary" cx="26" cy="23" r="1"/>
<rect x="4" y="7" class="primary" width="9px" height="11px"/>
<polygon class="primary" points="3,15 2,15 1,9 2,9 "/>
<path class="primary" d="M2,11c-1,0-2-0.7-2-1.5S1,8,2,8h2v3H2z"/>
<rect x="4" y="10" class="quinary" width="9px" height="2px"/>
<rect x="4" y="9" class="secondary" width="9px" height="1px"/>
<polygon class="primary" points="4,18 0,15 0,13 4,13 "/>
<circle class="quaternary" cx="7" cy="22" r="5"/>
<circle class="secondary" cx="7" cy="22" r="2.5"/>
<circle class="quinary" cx="7" cy="22" r="1.5"/>
<path class="quaternary" d="M18,22h-5v-5h5c0.6,0,1,0.4,1,1v3C19,21.6,18.6,22,18,22z"/>
<polygon class="quaternary" points="14,23 13,24 13,18 14,18 "/>
<polygon class="primary" points="30,7 3,18 2,14 30,5 "/>
<polygon class="quinary" points="30,7 3,18 2,14 30,5 "/>
<polygon class="senary" points="30,7 3,18 3,15 30,6 "/>
</svg>