<?xml version="1.0" encoding="utf-8"?>
<!-- Generator: Adobe Illustrator 21.1.0, SVG Export Plug-In . SVG Version: 6.00 Build 0)  -->
<svg version="1.0" id="Layer_1" xmlns="http://www.w3.org/2000/svg" xmlns:xlink="http://www.w3.org/1999/xlink" x="0px" y="0px"
	 viewBox="0 0 32 32" style="enable-background:new 0 0 32 32;" xml:space="preserve" width="32px" height="32px" fill="#333">
<style type="text/css">
	.primary{fill:#7E7E7E;}
	.secondary{fill:#D3D3D3;}
	.tertiary{opacity:0.3;fill:#7E7E7E;}
	.quaternary{fill:#020303;}
	.quinary{opacity:0.3;fill:#020303;}
	.senary{opacity:0.3;fill:#FFFFFF;}
</style>
<path class="primary" d="M31,20h-2v-5H10v1l-5-2l-5,3l5,4v2h8v1h6v-1h12c0.6,0,1-0.4,1-1v-1C32,20.4,31.6,20,31,20z"/>
<path class="quinary" d="M31,20h-2v-5H10v1l-5-2l-5,3l5,4v2h8v1h6v-1h12c0.6,0,1-0.4,1-1v-1C32,20.4,31.6,20,31,20z"/>
<path class="quinary" d="M31,20h-2v-5H10v1l-5-2l-5,3l5,4v2h8v1h6v-1h12c0.6,0,1-0.4,1-1v-1C32,20.4,31.6,20,31,20z"/>
<polygon class="quaternary" points="17.7,9.3 17.2,9 16,11 16.5,11.3 "/>
<polygon class="quaternary" points="19.4,10 19.4,14 17,10 "/>
<circle class="quaternary" cx="5.5" cy="21.5" r="5.5"/>
<circle class="secondary" cx="5.5" cy="21.5" r="3"/>
<circle class="quinary" cx="5.5" cy="21.5" r="1"/>
<path class="primary" d="M30.6,21H30c0,0-1,0-1.3-1c-0.4-1.5-1-5-7.7-5v-4c7,0,11,3,11,3L30.6,21z"/>
<path class="secondary" d="M21,12c5,0,8,1,8,1s-2.5-1.5-8-1.5V12z"/>
<path class="quaternary" d="M32,14l-1.2,6c0,0-0.8,0-1.1-1c-0.3-1-1.2-5.5-1.2-5.5L32,14z"/>
<polygon class="quaternary" points="28,17 27,16 26.4,13.1 27,13.2 "/>
<polygon class="quaternary" points="26.4,15.5 25.6,15 25.2,12.8 25.8,13 "/>
<path class="primary" d="M22,6H11c0-0.6,0.4-1,1-1h10V6z"/>
<path class="quaternary" d="M20,6h-9c0,0.6,0.4,1,1,1h8V6z"/>
<path class="quaternary" d="M12,6v11h6l3-2V6H12z M19,15h-2c0-2-2-4-4-4V8c0-0.6,0.4-1,1-1h4c0.6,0,1,0.4,1,1V15z"/>
<path class="tertiary" d="M19,15h-2c0-2-2-4-4-4V8c0-0.6,0.4-1,1-1h4c0.6,0,1,0.4,1,1V15z"/>
<rect x="20" y="9" class="primary" width="0.5px" height="5px"/>
<path class="primary" d="M16,16v1h-4v-1h-1l-1-2v-2h2C14.2,12,16,13.8,16,16L16,16z"/>
<rect x="10" y="14" transform="matrix(1 -0.0029 0.0029 1 -0.0439 0.0323)" class="quaternary" width="2px" height="2px"/>
<path class="senary" d="M16,16L16,16c0-2.2-1.8-4-4-4h-2v1c0,0,0.6,0,2,0C15,13,16,16,16,16z"/>
<path class="quaternary" d="M13,18h4c0,0-1,1-1,3.9c0,1.1,0,2.1,0,2.1h-3V18z"/>
<polygon class="primary" points="15,22 13,22 12,18 14,18 "/>
<circle class="quaternary" cx="22.5" cy="21.5" r="5.5"/>
<circle class="secondary" cx="22.5" cy="21.5" r="3"/>
<circle class="quinary" cx="22.5" cy="21.5" r="1"/>
<path class="primary" d="M5.5,15c3.3,0,3.3,2,5.5,2c0,0-1.1-3-5.5-3S0,17,0,17C2.2,17,2.2,15,5.5,15z"/>
<circle class="quaternary" cx="16" cy="16" r="1"/>
</svg>