<?xml version="1.0" encoding="utf-8"?>
<!-- Generator: Adobe Illustrator 19.1.0, SVG Export Plug-In . SVG Version: 6.00 Build 0)  -->
<!DOCTYPE svg PUBLIC "-//W3C//DTD SVG 1.1//EN" "http://www.w3.org/Graphics/SVG/1.1/DTD/svg11.dtd">
<svg version="1.1" id="layer_1_" xmlns="http://www.w3.org/2000/svg" xmlns:xlink="http://www.w3.org/1999/xlink" x="0px" y="0px" viewBox="0 0 32 22" enable-background="new 0 0 32 22" xml:space="preserve" width="32px" height="22px" fill="#333">
<polygon fill="#939598" points="31.3,13.4 30.3,13.9 13.4,13.9 13.4,3 19.4,3 23.9,6.8 31.3,7.7 "/>
<polygon fill="#939598" points="13,13.9 1.3,13.9 0.5,13.5 0.5,7.3 13,7.3 "/>
<rect x="9" y="6" fill="#BCBEC0" width="4px" height="1.4px"/>
<rect x="8.5" y="5" fill="#4E4E4E" width="4.5px" height="1px"/>
<path d="M10.7,13.9H2.8L3,11.8c0.1-0.6,0.7-1.1,1.3-1.1l5.1,0.2c0.6,0,1.1,0.5,1.2,1L10.7,13.9z"/>
<path d="M29.3,13.9h-7.6l0.1-2.1c0.1-0.6,0.6-1.1,1.2-1.1l5,0.2c0.6,0,1,0.5,1.1,1L29.3,13.9z"/>
<polygon points="28,15 4,15 1.3,13.9 30.3,13.9 "/>
<circle stroke="#FFFFFF" stroke-width="0.5px" stroke-miterlimit="10" cx="6.6" cy="16.3" r="3.7"/>
<circle fill="#BCBEC0" cx="6.6" cy="16.3" r="1.7"/>
<polygon fill="#414042" points="21.1,6.7 15,6.7 15,3.4 17.8,3.4 21.1,6.1 "/>
<polygon fill="#BCBEC0" points="22.7,7.3 20.1,7.3 20.1,5.9 21.3,5.9 "/>
<polygon fill="#414042" points="19,3.4 19.9,3.4 23.9,6.8 22.9,6.8 "/>
<polygon fill="#D8D8D8" points="0.5,12 1.8,12 1.8,13.9 1.3,13.9 0.5,13.5 "/>
<polygon fill="#BCBEC0" points="29.2,12.5 31.3,12.5 31.3,13.4 29.3,14.3 "/>
<rect x="30" y="8.2" fill="#BCBEC0" width="1.3px" height="3.2px"/>
<polygon fill="#58595B" points="30.3,8.5 30.3,11.3 30.7,11.3 31.3,10.1 30.7,10.1 31.3,8.5 "/>
<circle stroke="#FFFFFF" stroke-width="0.5px" stroke-miterlimit="10" cx="25.5" cy="16.3" r="3.7"/>
<circle fill="#BCBEC0" cx="25.5" cy="16.2" r="1.8"/>
<rect x="15" y="8" fill="#BCBEC0" width="2px" height="0.6px"/>
<rect x="13" y="5" width="0.4px" height="8.9px"/>
</svg>
