<?xml version="1.0" encoding="utf-8"?>
<!-- Generator: Adobe Illustrator 19.1.0, SVG Export Plug-In . SVG Version: 6.00 Build 0)  -->
<!DOCTYPE svg PUBLIC "-//W3C//DTD SVG 1.1//EN" "http://www.w3.org/Graphics/SVG/1.1/DTD/svg11.dtd">
<svg version="1.1" id="layer_1_" xmlns="http://www.w3.org/2000/svg" xmlns:xlink="http://www.w3.org/1999/xlink" x="0px" y="0px" viewBox="0 0 32 22" enable-background="new 0 0 32 22" xml:space="preserve" width="32px" height="22px" fill="#333">
<polygon fill="#6D6E71" points="2,17 0,14 2,14 "/>
<polygon fill="#939598" points="26,14 0,14 0,12.5 26,12.5 "/>
<rect x="23.5" y="12.5" fill="#6D6E71" width="2.5px" height="3.6px"/>
<rect x="29" y="13" fill="#414042" width="1px" height="6px"/>
<polygon fill="#939598" points="32,16.1 26,16.1 26,13.5 32,15.4 "/>
<polygon fill="#939598" points="23,12.7 1,12.7 1,12 0.7,10.4 23.3,10.4 23,12 "/>
<circle fill="#0D0D0D" cx="6.8" cy="16.4" r="5.4"/>
<circle fill="#0D0D0D" cx="19.8" cy="16.4" r="5.4"/>
<circle fill="#D8D8D8" cx="6.8" cy="16.4" r="3.4"/>
<circle opacity="0.99" fill="#58595B" cx="6.8" cy="16.4" r="1.2"/>
<circle fill="#D8D8D8" cx="19.8" cy="16.4" r="3.4"/>
<circle opacity="0.99" fill="#58595B" cx="19.8" cy="16.4" r="1.2"/>
<polygon fill="#D8D8D8" points="1,2 3,0 21,0 23,2 23,9.4 1,9.4 "/>
<polygon fill="#010101" points="0.3,10.4 23.7,10.4 23,9.4 1,9.4 "/>
<rect x="1" y="8.4" fill="#A7A9AC" width="22px" height="1px"/>
<rect x="3.8" fill="#58595B" width="0.8px" height="9.3px"/>
<rect x="11.6" fill="#58595B" width="0.8px" height="9.3px"/>
<rect x="19.7" fill="#58595B" width="0.8px" height="9.3px"/>
</svg>
