<?xml version="1.0" encoding="utf-8"?>
<!-- Generator: Adobe Illustrator 19.1.0, SVG Export Plug-In . SVG Version: 6.00 Build 0)  -->
<!DOCTYPE svg PUBLIC "-//W3C//DTD SVG 1.1//EN" "http://www.w3.org/Graphics/SVG/1.1/DTD/svg11.dtd">
<svg version="1.1" id="layer_1_" xmlns="http://www.w3.org/2000/svg" xmlns:xlink="http://www.w3.org/1999/xlink" x="0px" y="0px" viewBox="0 0 32 22" enable-background="new 0 0 32 22" xml:space="preserve" width="32px" height="22px" fill="#333">
<g>
	<polygon fill="#5C5C5C" points="6.4,9.7 3.4,16.7 22.5,16.7 24.5,15.5 27.1,15.5 27.1,14.1 25,10.3 20.9,9.1 15.6,12.2 14,11.8 	
		"/>
	<polygon fill="#8E8E8E" points="12.6,15.9 14.4,15.9 14.4,11.8 11.2,11.8 	"/>
	<polygon fill="#8E8E8E" points="17,14.2 14.4,13.1 14.4,15.9 16.6,15.9 	"/>
	<rect x="13.8" y="11.7" fill="#0D0D0D" width="0.6px" height="4.2px"/>
	<path fill="#0D0D0D" d="M17,11.8 M14.6,10.4l-1,0c0,0-1.5-2.3-4.5-2.9C7.9,7.2,7.8,6.6,7.8,6.1s0-1.7,0-2.2c0-0.9,0.2-1.6,1-1.6
		c0.8,0,4.2,0,4.5,0c0.7,0,1.2,0.6,1.2,1.6C14.6,4.6,14.6,10.2,14.6,10.4z M15.5,12.8l0-11.2H5c0,0,0.1,0.7,1.5,0.7
		c0.2,0,0.6,0,0.6,0.8C7,4.2,7,5,7,5.4c0,0.6-0.3,1-0.6,1v1.3l-3,1l10,4.1L15.5,12.8z"/>
	<polygon fill="#0D0D0D" points="14.9,8.8 14.9,5.8 13.9,5.1 13.7,5.3 13.5,4.5 13.8,4.1 13.5,4 12.2,5.7 12.4,5.9 12.7,5.5 
		13.5,5.6 13.1,6.3 	"/>
	<path fill="#0D0D0D" d="M7.5,5.3c0,0,0.4-0.2,0.7,0c0.2,0.2,0.9,1.2,0.9,1.2s1.3-0.8,1.5,0.1l1,0c0,0-0.2,0.5-0.6,0.9l0,1.2
		L7.5,7.1L7.5,5.3z"/>
	<polygon opacity="0.99" fill="#7E7E7E" points="23.4,16.2 25.7,17.3 26.6,17.3 26.6,15.5 23.4,15.5 	"/>
	<path fill="#333333" d="M30.7,18.4l0.7-1l-1.9-0.5l-2.2-5.7l-2.8-0.4c0,0,2.9,3.4,0.8,7.6H30.7z"/>
	<path fill="#7E7E7E" d="M30.4,16.7l0.3-1.1l1.3,0.7v1.1h-2.9c0,0-0.2-6-5.6-6.9c-3.3-0.5-4.8,2.3-4.8,2.3l-3.2,0l0-5.8
		c0,0,1.8,0,6.1,0.5C30.5,8.5,32,11,32,11L30.4,16.7z"/>
	<path fill="#0D0D0D" d="M32,11c0,0-0.7-0.3-2.5-0.5c0,0,0.3,3.6,0.3,5.7c0,0.3,0,0.4,0.7,0.5L32,11z"/>
	<polygon fill="#FFFFFF" points="31.1,12.4 30,11 31.4,11.3 	"/>
	<polygon fill="#0D0D0D" points="18.7,8.2 18.7,11.5 16.1,11.5 16.1,8.2 16.9,7.4 18,7.4 	"/>
	<path fill="#0D0D0D" d="M18.5,2.6c0,0-1.6-0.1-1.6,1.5v3.4H18V4.1L18.5,2.6z"/>
	<path fill="#7E7E7E" d="M16.7,0.8c0,0-9.7,0-10.4,0C5.2,0.8,5,1.6,5,1.6h11.7V0.8z"/>
	<path fill="#636363" d="M16.7,0.5c0-0.3-0.4-0.5-0.8-0.5S15,0.2,15,0.5v0.2l1.7,0.9V0.5z"/>
	<path fill="#D8D8D8" d="M16.7,0.5c0-0.3-0.4-0.5-0.8-0.5S15,0.2,15,0.5"/>
	<path opacity="0.3" fill="#B9B9B9" d="M14.6,10.4l-1,0c0,0-1.5-2.3-4.5-2.9C7.9,7.2,7.8,6.6,7.8,6.1s0-2,0-2.5s0.2-1.2,1-1.2
		c0.8,0,4.2,0,4.5,0c0.7,0,1.2,0.7,1.2,1.3S14.6,10.2,14.6,10.4z"/>
	<path opacity="0.3" fill="#B9B9B9" d="M6.4,2.3c0.2,0,0.6,0,0.6,0.8C7,4.2,7,5,7,5.4c0,0.6-0.3,1-0.6,1"/>
	<path fill="#7E7E7E" d="M12.3,11.4C11,8.5,8.1,7.3,4.8,7.8C3.9,7.9,1.9,8.5,1.2,9.5C8.5,6.5,12.3,11.4,12.3,11.4z"/>
	<rect x="11.3" y="11.8" fill="#8E8E8E" width="3.3px" height="4.1px"/>
	<polygon fill="#8E8E8E" points="17.1,14.2 14.6,13.1 14.6,15.9 16.8,15.9 	"/>
	<rect x="14" y="11.7" fill="#0D0D0D" width="0.6px" height="4.2px"/>
	<circle fill="#0D0D0D" cx="6.3" cy="15.6" r="6.3"/>
	<circle fill="#D8D8D8" cx="6.3" cy="15.6" r="3.6"/>
	<circle opacity="0.99" fill="#58595B" cx="6.3" cy="15.6" r="1.4"/>
	<path fill="#0D0D0D" d="M18,15.8c0.9-5.7,6.7-4.4,6.7-4.4l-0.5,5.4L18,15.8z"/>
	<path fill="#FFFFFF" d="M24.6,11.4c-3.6,0.1-6.1,2.2-6.1,5.4l6.1,0V11.4z"/>
	<circle fill="#0D0D0D" cx="24.1" cy="17" r="5"/>
	<circle fill="#D8D8D8" cx="24.1" cy="17" r="2.7"/>
	<circle opacity="0.99" fill="#58595B" cx="24.1" cy="17" r="1"/>
</g>
</svg>
