<?xml version="1.0" encoding="utf-8"?>
<!-- Generator: Adobe Illustrator 19.1.0, SVG Export Plug-In . SVG Version: 6.00 Build 0)  -->
<!DOCTYPE svg PUBLIC "-//W3C//DTD SVG 1.1//EN" "http://www.w3.org/Graphics/SVG/1.1/DTD/svg11.dtd">
<svg version="1.1" id="layer_1_" xmlns="http://www.w3.org/2000/svg" xmlns:xlink="http://www.w3.org/1999/xlink" x="0px" y="0px" viewBox="0 0 32 22" enable-background="new 0 0 32 22" xml:space="preserve" width="32px" height="22px" fill="#333">
<rect x="0" y="4.8" fill="#010101" width="1.8px" height="7.1px"/>
<polygon opacity="0.99" fill="#58595B" points="5,4 3.1,6.1 0,4.8 0,2.4 "/>
<polygon fill="#A1A1A1" points="7.4,12 12.2,15.3 21.6,15.3 25.7,12 "/>
<polygon fill="#D8D8D8" points="7.4,12 4.1,9 4.1,4.8 7.9,1.5 13.3,1.5 16.4,4.7 16.4,9.6 16.4,12 "/>
<polygon fill="#D8D8D8" points="16.4,12 16.4,9.6 16.4,4.7 19.6,1.5 25,1.5 28.8,4.8 28.8,9 25.7,12 "/>
<polygon opacity="0.99" fill="#58595B" points="16.5,20.4 14.1,18.2 12.8,17 16.4,17 20.2,17 19,18.2 "/>
<polygon fill="#7E7E7E" points="29.7,15.3 30,17 2.3,17 1.3,15.3 "/>
<polygon fill="#7E7E7E" points="32,14.5 32,17.9 30.9,17.9 30,17 29.5,14.5 "/>
<polygon fill="#010101" points="28,9.8 16.4,9.8 19.1,12 25.7,12 "/>
<polygon fill="#010101" points="16.4,9.8 5,9.8 7.4,12 14.1,12 "/>
<polygon fill="#7E7E7E" points="25.7,13.4 27,12 29.7,14.5 29.7,15.3 25.7,15.3 "/>
<rect x="7.9" y="0.6" fill="#010101" width="5.4px" height="0.9px"/>
<rect x="9.9" y="0" fill="#010101" width="1.4px" height="0.6px"/>
<rect x="19.6" y="0.6" fill="#010101" width="5.3px" height="0.9px"/>
<rect x="21.5" y="0" fill="#010101" width="1.4px" height="0.6px"/>
<rect x="16.4" y="4.7" fill="#A1A1A1" width="5.8px" height="3.7px"/>
<polygon fill="#A1A1A1" points="10.6,8.4 5.5,8.4 4.1,4.7 10.6,4.7 "/>
<rect x="3.1" y="4.7" fill="#7E7E7E" width="13.4px" height="1.4px"/>
<rect x="6.8" y="12" fill="#7E7E7E" width="20.2px" height="1.4px"/>
<circle fill="#010101" cx="28.8" cy="19.3" r="2.6"/>
<circle fill="#D8D8D8" cx="28.8" cy="19.3" r="1.5"/>
<polygon fill="#7E7E7E" points="10.4,12 8.9,12 3.1,6.1 5,6.1 "/>
<circle fill="#010101" cx="8.6" cy="17.4" r="4.6"/>
<circle fill="#D8D8D8" cx="8.6" cy="17.4" r="2.6"/>
<circle opacity="0.99" fill="#58595B" cx="8.6" cy="17.4" r="0.9"/>
</svg>
