<?xml version="1.0" encoding="utf-8"?>
<!-- Generator: Adobe Illustrator 19.1.0, SVG Export Plug-In . SVG Version: 6.00 Build 0)  -->
<!DOCTYPE svg PUBLIC "-//W3C//DTD SVG 1.1//EN" "http://www.w3.org/Graphics/SVG/1.1/DTD/svg11.dtd">
<svg version="1.1" id="layer_1_" xmlns="http://www.w3.org/2000/svg" xmlns:xlink="http://www.w3.org/1999/xlink" x="0px" y="0px" viewBox="0 0 32 22" enable-background="new 0 0 32 22" xml:space="preserve" width="32px" height="22px" fill="#333">
<polygon fill="#7E7E7E" points="29,19 29,18 28,18 28,17 27,17 27,16 26,16 26,15 25,15 25,11 24,11 24,15 25.6,18.5 30,20.6 30,19 
	"/>
<polygon fill="#D3D3D3" points="25,22 25,20 22.7,18 22.7,11.9 24.3,13.4 24.3,15.1 27,19 32,20 31,22 "/>
<circle fill="#020303" cx="26.5" cy="20.5" r="0.5"/>
<polygon fill="#020303" points="21.8,5.4 21.1,4.9 20.9,5.2 20.7,4.7 21,4.4 20.8,4.2 19.6,5.4 19.9,5.6 20.1,5.3 20.7,5.5 
	20.3,5.9 20.3,8.3 21,8.3 "/>
<path fill="#020303" d="M16.6,7.1V5.5c0,0,0.4-0.1,0.6,0c0.3,0.2,0.6,0.7,0.6,0.7l1.5,0c0,0,0,0.5-0.5,0.5l0,0.5H16.6z"/>
<polygon fill="#58595B" points="22.4,10 14,10 14,15.8 21.1,15.8 "/>
<path fill="#D3D3D3" d="M8,0H6.7C4.1,0.2,1.7,1.4,0,3.2v1.1h1.1c1.5-1.8,3.3-3,5.9-3c4.3,0,6.8,3.3,7.2,7.6h3.3
	C16.9,4.1,12.9,0.3,8,0z"/>
<polygon fill="#7E7E7E" points="15,6 2,6 1,6.7 1,15.8 15,15.8 "/>
<polygon fill="#58595B" points="21.6,15.8 1,15.8 1,17 21.3,17 "/>
<path fill="#020303" d="M21.2,9L23,3h1l1-1H15v8h7.4l0.2-1H21.2z M17.4,7.1c0,0-0.6-1.2-1-2.6S17,3.1,17,3.1h4c0,0,0.8,0,0.7,0.9
	s-0.8,3.1-0.8,3.1H17.4z"/>
<rect x="15" y="1" fill="#7E7E7E" width="10px" height="1px"/>
<polygon fill="#A7A9AC" points="1,6.7 15,6.7 15,6 2,6 "/>
<rect x="1" y="6.7" fill="#A1A1A1" width="1px" height="1.4px"/>
<path opacity="0.3" fill="#ABABAB" d="M17.4,7.1h3.5c0,0,0.6-2.2,0.8-3.1C21.8,3.1,21,3.1,21,3.1h-4c0,0-1.1,0-0.7,1.4
	C16.7,5.9,17.4,7.1,17.4,7.1z"/>
<path fill="#58595B" d="M10.5,15.8c-0.7-1.6-2.2-2.7-3.9-2.7s-3.2,1.1-3.9,2.7H10.5z"/>
<rect x="2" y="6.7" opacity="0.99" fill="#414042" width="0.4px" height="9px"/>
<circle fill="#020303" cx="6.5" cy="18" r="4"/>
<circle fill="#D3D3D3" cx="6.5" cy="18" r="2"/>
<path fill="#414042" d="M12.4,15.8c-2.1-5.2-8.8-4-8.8-4s6.3-0.5,7.6,4H12.4z"/>
<polygon fill="#7E7E7E" points="14.6,11.8 22,11.8 22.4,10 14.6,10 "/>
<rect x="1" y="8.2" opacity="0.99" fill="#414042" width="1px" height="0.9px"/>
<path fill="#7E7E7E" d="M1.1,4.3c1.4-1.7,3.1-2.8,5.4-3C3.6,1.2,1.6,2.3,0,4.3H1.1z"/>
<polygon fill="#7E7E7E" points="12.4,1.4 11.4,2.9 10.8,2.5 11.9,1.1 "/>
<polygon fill="#7E7E7E" points="5.6,0.2 5.8,1.4 5.2,1.5 5.1,0.3 "/>
<circle fill="#020303" cx="19.5" cy="17.5" r="4.5"/>
<circle fill="#D3D3D3" cx="19.5" cy="17.5" r="2.5"/>
<circle opacity="0.99" fill="#58595B" cx="19.5" cy="17.5" r="1"/>
<path fill="#7E7E7E" d="M25,0.6C25,0.3,24.5,0,24,0c-0.6,0-1,0.3-1,0.6V2l2,0V0.6z"/>
<path fill="#D3D3D3" d="M25,0.6C25,0.3,24.5,0,24,0c-0.6,0-1,0.3-1,0.6"/>
<rect x="13.5" y="6" opacity="0.99" fill="#414042" width="0.5px" height="9.7px"/>
<polyline opacity="0.3" fill="#ABABAB" points="22.6,9 21.2,9 23,3 24,3 "/>
</svg>
