<?xml version="1.0" encoding="utf-8"?>
<!-- Generator: Adobe Illustrator 19.1.0, SVG Export Plug-In . SVG Version: 6.00 Build 0)  -->
<!DOCTYPE svg PUBLIC "-//W3C//DTD SVG 1.1//EN" "http://www.w3.org/Graphics/SVG/1.1/DTD/svg11.dtd">
<svg version="1.1" id="layer_1_" xmlns="http://www.w3.org/2000/svg" xmlns:xlink="http://www.w3.org/1999/xlink" x="0px" y="0px" viewBox="0 0 32 22" enable-background="new 0 0 32 22" xml:space="preserve" width="32px" height="22px" fill="#333">
<g>
	<polygon fill="#7E7E7E" points="29.5,15.3 29.3,16.9 32,17.5 32,15.9 	"/>
	<polygon fill="#7E7E7E" points="29.3,16.9 12.6,16.9 12.6,12.1 29.5,12.1 29.5,15.9 	"/>
	<path fill="#BCBEC0" d="M10.7,13.3c0,0,15.6-1.7,15.6-1.7c0,0,0.7-6-0.8-7.4C23.1,1.7,9,6.3,9,6.3L10.7,13.3z"/>
</g>
<path fill="#A1A1A1" d="M8.4,1.5c-0.6,0-0.8,0.6-0.8,1.4h1.6C9.2,2.1,9.1,1.5,8.4,1.5z"/>
<rect x="7.7" y="2.9" fill="#414142" width="1.6px" height="0.6px"/>
<path fill="#D8D8D8" d="M13.3,10.2c2.3,0.4,3.2,1.8,3.2,1.8l9.9-1.3c0.1-4.1-0.2-4.8-0.2-4.8C25.2,6.1,13.3,10.2,13.3,10.2z"/>
<polygon opacity="0.99" fill="#58595B" points="11.1,6.3 11.1,4.4 9.2,3.5 4.7,3.5 4.7,13 11.1,13 "/>
<path fill="#7E7E7E" d="M28.1,0L0,9.3l1.3,4.4l28.1-9.3L28.1,0z M20,6.5L19.3,4l0.1,0l3.6,0.2L20,6.5L20,6.5z M21.1,3.4l4.7-1.6
	l-2.1,1.7L21.1,3.4z M18.6,4.2l0.8,2.5l-0.3,0.1l-3.6-0.2l2.9-2.3L18.6,4.2z M14.5,6.5l-2.6-0.1l4.7-1.6L14.5,6.5z M10.8,9.5L10,7
	l0.1,0l3.6,0.2L10.8,9.5L10.8,9.5z M9.4,7.2L9.4,7.2l0.8,2.5l-0.1,0L6.5,9.6L9.4,7.2z M5.5,9.5L2.9,9.4l4.7-1.6L5.5,9.5z M8.4,10.3
	l-4.7,1.6l2.1-1.7L8.4,10.3z M14.7,7.2l2.6,0.1l-4.7,1.6L14.7,7.2z M23.9,4.2l2.6,0.1l-4.7,1.6L23.9,4.2z M28.2,3.7l-3.5-0.2
	l2.8-2.3L28.2,3.7z M1.2,10l3.5,0.2l-2.8,2.2L1.2,10z"/>
<polygon opacity="0.99" fill="#58595B" points="16.1,16.9 29.3,16.9 29.5,15.9 16.1,15.9 "/>
<circle fill="#010101" cx="11.2" cy="17" r="5"/>
<circle fill="#D8D8D8" cx="11.2" cy="17" r="2.9"/>
<circle fill="#7E7E7E" cx="11.2" cy="17" r="1"/>
<path fill="#010101" d="M5.3,15.9c0.6-2.4,3.2-4.6,5.9-4.6c2.6,0,5.2,2.2,5.8,4.6h0.8c-0.6-3.1-3.4-5.4-6.6-5.4
	c-3.3,0-6,2.3-6.6,5.4H5.3z"/>
<g>
	<g>
		<polygon fill="#020303" points="28.7,8.4 22.3,9.1 21.5,12.1 29.5,12.1 		"/>
	</g>
</g>
<path fill="#231F20" d="M20.6,16.9h-0.5v-1c-0.3-1.4-1.3-3.5-1.3-3.5l0.5-0.1c0,0.1,1.1,2.1,1.3,3.5L20.6,16.9z"/>
</svg>
