<?xml version="1.0" encoding="utf-8"?>
<!-- Generator: Adobe Illustrator 21.1.0, SVG Export Plug-In . SVG Version: 6.00 Build 0)  -->
<svg version="1.0" id="Layer_1" xmlns="http://www.w3.org/2000/svg" xmlns:xlink="http://www.w3.org/1999/xlink" x="0px" y="0px"
	 viewBox="0 0 32 32" style="enable-background:new 0 0 32 32;" xml:space="preserve" width="32px" height="32px" fill="#333">
<style type="text/css">
	.primary{fill-rule:evenodd;clip-rule:evenodd;fill:#333333;}
</style>
<path class="primary" d="M3.5,0h5v5h-5V0z M13.5,5h5V0h-5V5z M23.5,0v5h5V0H23.5z M3.5,14h5V9h-5V14z M13.5,14h5V9h-5V14z M23.5,14
	h5V9h-5V14z M3.5,23h5v-5h-5V23z M13.5,23h5v-5h-5V23z M23.5,23h5v-5h-5V23z M3.5,32h5v-5h-5V32z M13.5,32h5v-5h-5V32z M23.5,32h5
	v-5h-5V32z"/>
</svg>
