<?xml version="1.0" encoding="utf-8"?>
<!-- Generator: Adobe Illustrator 21.1.0, SVG Export Plug-In . SVG Version: 6.00 Build 0)  -->
<svg version="1.0" id="Layer_1" xmlns="http://www.w3.org/2000/svg" xmlns:xlink="http://www.w3.org/1999/xlink" x="0px" y="0px"
	 viewBox="0 0 32 32" style="enable-background:new 0 0 32 32;" xml:space="preserve" width="32px" height="32px" fill="#333">
<style type="text/css">
	.primary{fill:#21201F;}
	.secondary{fill:#FFFFFF;}
</style>
<path class="secondary" d="M16,31.138C13.915,28.758,4.859,18.077,4.859,12.301C4.859,5.833,9.857,0.571,16,0.571
	s11.141,5.262,11.141,11.729C27.141,18.078,18.085,28.758,16,31.138z"/>
<path class="primary" d="M16,1.143c5.827,0,10.569,5.006,10.569,11.158c0,4.793-6.983,13.838-10.569,17.976
	C12.414,26.139,5.431,17.095,5.431,12.301C5.431,6.149,10.173,1.143,16,1.143 M16,0C9.531,0,4.288,5.507,4.288,12.301S16,32,16,32
	s11.712-12.906,11.712-19.699C27.712,5.507,22.469,0,16,0L16,0z"/>
<path class="primary" d="M16,20.1c-0.739,0-1.449-0.095-2.131-0.286c-0.683-0.191-1.32-0.461-1.911-0.81
	c-0.591-0.349-1.131-0.768-1.619-1.256c-0.488-0.488-0.905-1.028-1.25-1.619c-0.345-0.591-0.613-1.226-0.803-1.905
	C8.095,13.546,8,12.838,8,12.1c0-0.738,0.095-1.448,0.286-2.131c0.19-0.682,0.458-1.319,0.803-1.911
	c0.346-0.591,0.762-1.129,1.25-1.613c0.489-0.484,1.028-0.903,1.619-1.256c0.592-0.353,1.226-0.623,1.905-0.809
	C14.542,4.193,15.254,4.1,16,4.1c0.738,0,1.448,0.093,2.13,0.28c0.683,0.186,1.32,0.456,1.911,0.809
	c0.591,0.353,1.129,0.772,1.613,1.256c0.484,0.484,0.903,1.022,1.256,1.613c0.353,0.592,0.623,1.228,0.809,1.911
	c0.186,0.683,0.28,1.393,0.28,2.131s-0.093,1.446-0.28,2.125c-0.186,0.679-0.456,1.314-0.809,1.905
	c-0.353,0.591-0.772,1.131-1.256,1.619c-0.485,0.488-1.023,0.907-1.613,1.256c-0.592,0.35-1.228,0.619-1.911,0.81
	C17.448,20.005,16.738,20.1,16,20.1z M11.536,7.648c-0.286,0.302-0.545,0.619-0.774,0.953c-0.223,0.318-0.409,0.667-0.559,1.048
	c-0.318,0.778-0.481,1.595-0.489,2.452c0,0.421,0.04,0.836,0.12,1.244c0.079,0.409,0.202,0.807,0.369,1.196
	c0.158,0.381,0.351,0.736,0.577,1.066c0.227,0.329,0.478,0.641,0.756,0.934c0.595,0.603,1.27,1.048,2.024,1.333
	c0.381,0.175,0.774,0.304,1.178,0.387c0.405,0.083,0.826,0.125,1.263,0.125c0.42,0,0.835-0.042,1.244-0.125
	c0.408-0.083,0.811-0.212,1.208-0.387c0.365-0.151,0.716-0.337,1.053-0.559c0.337-0.223,0.645-0.48,0.922-0.774
	c0.286-0.294,0.542-0.605,0.768-0.934c0.226-0.329,0.423-0.684,0.589-1.066c0.167-0.389,0.292-0.787,0.376-1.196
	c0.083-0.409,0.125-0.824,0.125-1.244c0-0.42-0.044-0.836-0.13-1.244c-0.088-0.409-0.21-0.811-0.37-1.208
	c-0.166-0.381-0.363-0.736-0.589-1.066c-0.227-0.329-0.483-0.641-0.768-0.934c-0.286-0.286-0.595-0.54-0.928-0.762
	c-0.333-0.23-0.683-0.42-1.048-0.571c-0.397-0.174-0.798-0.301-1.202-0.381c-0.405-0.081-0.822-0.12-1.25-0.12
	c-0.436,0-0.857,0.042-1.263,0.125c-0.405,0.083-0.797,0.208-1.178,0.375c-0.381,0.151-0.74,0.339-1.078,0.565
	S11.83,7.362,11.536,7.648z M15.976,15.957c-0.309,0-0.524-0.043-0.643-0.131c-0.047-0.063-0.085-0.141-0.113-0.232
	c-0.028-0.091-0.042-0.204-0.042-0.339c0-0.151,0.014-0.272,0.042-0.363c0.028-0.091,0.073-0.168,0.136-0.232
	c0.112-0.111,0.325-0.167,0.643-0.167c0.317,0,0.531,0.056,0.643,0.167c0.103,0.104,0.155,0.294,0.155,0.571
	c0,0.262-0.06,0.452-0.179,0.571C16.508,15.906,16.294,15.957,15.976,15.957z M15.428,13.172c-0.024-0.015-0.045-0.028-0.066-0.036
	c-0.019-0.008-0.038-0.019-0.053-0.036c-0.015-0.015-0.024-0.03-0.024-0.042c0-0.012,0-0.026,0-0.042V8.041c0-0.015,0-0.034,0-0.054
	s0.008-0.038,0.024-0.054c0.015-0.015,0.036-0.028,0.06-0.036c0.024-0.008,0.043-0.019,0.059-0.036
	c0.04-0.015,0.077-0.026,0.113-0.03c0.036-0.004,0.073-0.006,0.114-0.006c0.04,0,0.085-0.004,0.136-0.012
	c0.052-0.008,0.114-0.012,0.184-0.012c0.079,0,0.145,0.004,0.197,0.012c0.051,0.008,0.097,0.012,0.136,0.012
	c0.056,0,0.099,0.004,0.131,0.012c0.032,0,0.067,0.008,0.107,0.024c0.063,0.032,0.103,0.056,0.119,0.071
	c0.015,0.016,0.022,0.034,0.017,0.054s-0.006,0.038-0.006,0.054v4.976c0,0.016,0,0.028,0,0.036c0.008,0.016,0.004,0.032-0.012,0.048
	c-0.015,0.016-0.056,0.04-0.119,0.071c-0.071,0.032-0.151,0.048-0.238,0.048c-0.047,0.016-0.093,0.024-0.136,0.024
	c-0.044,0-0.11,0-0.197,0c-0.071,0-0.132,0-0.184,0c-0.051,0-0.097-0.007-0.136-0.024C15.575,13.219,15.5,13.203,15.428,13.172z"/>
</svg>
