<?xml version="1.0" encoding="utf-8"?>
<!-- Generator: Adobe Illustrator 21.1.0, SVG Export Plug-In . SVG Version: 6.00 Build 0)  -->
<svg version="1.0" id="Layer_1" xmlns="http://www.w3.org/2000/svg" xmlns:xlink="http://www.w3.org/1999/xlink" x="0px" y="0px"
	 viewBox="0 0 32 32" style="enable-background:new 0 0 32 32;" xml:space="preserve" width="32px" height="32px" fill="#333">
<style type="text/css">
	.primary{fill:#333333;}
	.secondary{fill:#FFFFFF;}
</style>
<circle class="primary" cx="16" cy="16" r="16"/>
<path class="secondary" d="M26,8.857L23.857,11h-2.143C21.286,11,21,10.714,21,10.286V8.143L23.143,6c0,0-0.714,0-1.071,0
	c-2.143,0-3.929,1.786-3.929,3.929c0,0.5,0.071,1,0.286,1.5l-7,7c-0.5-0.214-1-0.286-1.5-0.286C7.786,18.143,6,19.929,6,22.071
	S7.786,26,9.929,26s3.929-1.786,3.929-3.929c0-0.5-0.071-1-0.286-1.5l7-7c0.429,0.214,0.929,0.286,1.5,0.286
	c2.143,0,3.929-1.786,3.929-3.929C26,9.571,26,8.857,26,8.857z M12.429,23.143L11,24.571H8.857l-1.429-1.429V21l1.429-1.429H11
	L12.429,21V23.143z"/>
</svg>
