<?xml version="1.0" encoding="utf-8"?>
<!-- Generator: Adobe Illustrator 21.1.0, SVG Export Plug-In . SVG Version: 6.00 Build 0)  -->
<svg version="1.0" id="Layer_1" xmlns="http://www.w3.org/2000/svg" xmlns:xlink="http://www.w3.org/1999/xlink" x="0px" y="0px"
	 viewBox="0 0 32 32" style="enable-background:new 0 0 32 32;" xml:space="preserve" width="32px" height="32px" fill="#333">
<style type="text/css">
	.primary{fill:#333333;}
	.secondary{fill:#FFFFFF;}
</style>
<circle class="primary" cx="16" cy="16" r="16"/>
<path class="secondary" d="M16,6c0.923,0,1.81,0.117,2.663,0.35c0.854,0.233,1.65,0.571,2.389,1.012
	c0.739,0.441,1.411,0.965,2.016,1.57s1.129,1.277,1.57,2.016c0.441,0.739,0.779,1.535,1.012,2.388
	c0.233,0.854,0.35,1.741,0.35,2.664c0,0.923-0.117,1.808-0.35,2.656c-0.233,0.849-0.571,1.642-1.012,2.381
	c-0.441,0.739-0.965,1.413-1.57,2.024c-0.606,0.61-1.278,1.134-2.016,1.57c-0.739,0.437-1.535,0.774-2.389,1.013
	C17.811,25.881,16.923,26,16,26c-0.924,0-1.811-0.119-2.664-0.357c-0.854-0.239-1.65-0.576-2.389-1.013
	c-0.739-0.436-1.413-0.96-2.024-1.57s-1.131-1.285-1.562-2.024s-0.766-1.533-1.004-2.381C6.119,17.808,6,16.923,6,16
	c0-0.923,0.119-1.81,0.357-2.664c0.238-0.853,0.573-1.649,1.004-2.388c0.432-0.739,0.953-1.411,1.562-2.016
	c0.611-0.605,1.285-1.129,2.024-1.57c0.739-0.441,1.533-0.779,2.382-1.012C14.177,6.117,15.068,6,16,6z M16,23.857
	c1.091,0,2.113-0.206,3.065-0.618c0.953-0.412,1.786-0.972,2.5-1.682c0.715-0.709,1.276-1.54,1.682-2.492
	c0.406-0.952,0.61-1.974,0.61-3.066s-0.203-2.113-0.61-3.066c-0.407-0.952-0.967-1.786-1.682-2.5
	c-0.714-0.714-1.547-1.275-2.5-1.682c-0.951-0.407-1.974-0.61-3.065-0.61c-1.092,0-2.113,0.203-3.066,0.61
	c-0.952,0.407-1.783,0.967-2.492,1.682c-0.71,0.714-1.271,1.548-1.682,2.5C8.349,13.887,8.143,14.908,8.143,16
	c0,1.092,0.206,2.113,0.618,3.066c0.411,0.952,0.971,1.783,1.682,2.492c0.709,0.709,1.54,1.271,2.492,1.682
	C13.887,23.651,14.909,23.857,16,23.857z M17.503,16.029l3.735,3.676l-1.518,1.518L16,17.548l-3.706,3.676l-1.518-1.518l3.705-3.676
	l-3.734-3.75l1.518-1.518L16,14.497l3.734-3.735l1.533,1.518L17.503,16.029z"/>
</svg>
