<?xml version="1.0" encoding="utf-8"?>
<!-- Generator: Adobe Illustrator 21.1.0, SVG Export Plug-In . SVG Version: 6.00 Build 0)  -->
<svg version="1.0" id="Layer_1" xmlns="http://www.w3.org/2000/svg" xmlns:xlink="http://www.w3.org/1999/xlink" x="0px" y="0px"
	 viewBox="0 0 32 32" style="enable-background:new 0 0 32 32;" xml:space="preserve" width="32px" height="32px" fill="#333">
<style type="text/css">
	.primary{fill:#21201F;}
	.secondary{fill:#FFFFFF;}
</style>
<path class="secondary" d="M16,31.138C13.915,28.758,4.859,18.077,4.859,12.301C4.859,5.833,9.857,0.571,16,0.571
	s11.141,5.262,11.141,11.729C27.141,18.078,18.085,28.758,16,31.138z"/>
<path class="primary" d="M16,1.143c5.827,0,10.569,5.006,10.569,11.158c0,4.793-6.983,13.838-10.569,17.976
	C12.414,26.139,5.431,17.095,5.431,12.301C5.431,6.149,10.173,1.143,16,1.143 M16,0C9.531,0,4.288,5.507,4.288,12.301S16,32,16,32
	s11.712-12.906,11.712-19.699C27.712,5.507,22.469,0,16,0L16,0z"/>
<path class="primary" d="M24,12.345c-0.056,0.976-0.264,1.897-0.625,2.762c-0.361,0.865-0.855,1.636-1.482,2.31l-0.227,0.227v0.024
	l-0.25,0.238c-0.674,0.62-1.441,1.111-2.297,1.476c-0.857,0.365-1.782,0.572-2.775,0.619h-0.69c-0.976-0.047-1.893-0.254-2.75-0.619
	c-0.858-0.365-1.627-0.857-2.31-1.476l-0.238-0.238v-0.024l-0.262-0.227h0.024c-0.635-0.674-1.133-1.444-1.495-2.31
	c-0.361-0.865-0.561-1.786-0.602-2.762H8v-0.322V12v-0.024v-0.322h0.024c0.04-0.976,0.24-1.896,0.602-2.761
	c0.362-0.865,0.859-1.635,1.495-2.31h-0.025l0.214-0.214c0.032-0.032,0.063-0.052,0.095-0.061l0.19-0.202
	c0.674-0.627,1.443-1.123,2.304-1.488C13.76,4.254,14.679,4.047,15.655,4h0.297H16h0.071h0.274c0.992,0.056,1.917,0.264,2.775,0.625
	c0.857,0.361,1.623,0.855,2.297,1.482l0.214,0.202c0.032,0.032,0.059,0.052,0.083,0.061l0.179,0.214
	c0.627,0.675,1.123,1.444,1.488,2.31c0.365,0.866,0.572,1.786,0.619,2.761v0.322V12v0.024V12.345z M21.894,14.493
	c0.151-0.342,0.268-0.69,0.351-1.044c0.083-0.354,0.132-0.721,0.149-1.104h-0.952v-0.69h0.952c-0.024-0.365-0.075-0.727-0.155-1.088
	c-0.079-0.361-0.194-0.713-0.345-1.054c-0.278-0.674-0.651-1.27-1.119-1.786l-0.69,0.667l-0.476-0.477l0.69-0.678
	C20.02,7,19.732,6.786,19.435,6.595c-0.297-0.19-0.614-0.354-0.947-0.489c-0.341-0.151-0.688-0.268-1.041-0.35
	c-0.353-0.084-0.72-0.133-1.102-0.149V6.56h-0.69V5.607c-0.366,0.024-0.73,0.075-1.092,0.154c-0.362,0.08-0.714,0.195-1.056,0.346
	c-0.66,0.278-1.257,0.655-1.789,1.131l0.68,0.678l-0.477,0.477l-0.68-0.668c-0.238,0.263-0.453,0.543-0.644,0.84
	c-0.191,0.297-0.362,0.613-0.513,0.946c-0.135,0.342-0.245,0.693-0.328,1.054c-0.083,0.361-0.133,0.723-0.149,1.088h0.941v0.69
	H9.607c0.015,0.382,0.066,0.75,0.149,1.104c0.083,0.354,0.193,0.702,0.328,1.044c0.151,0.334,0.322,0.65,0.513,0.948
	c0.191,0.299,0.406,0.578,0.644,0.841l0.68-0.656l0.477,0.477l-0.68,0.656c0.263,0.238,0.545,0.455,0.847,0.65
	c0.302,0.195,0.616,0.364,0.942,0.507c0.342,0.152,0.694,0.266,1.056,0.346s0.725,0.131,1.092,0.155v-0.964h0.69v0.964
	c0.746-0.047,1.461-0.214,2.143-0.501c0.651-0.278,1.246-0.664,1.786-1.157l-0.666-0.656l0.476-0.477l0.69,0.656
	C21.25,15.757,21.623,15.16,21.894,14.493z M18.31,6.63c0.127,0.064,0.185,0.153,0.173,0.268c-0.012,0.116-0.045,0.252-0.101,0.411
	l-1.536,4.881c-0.032,0.135-0.093,0.256-0.184,0.364c-0.091,0.107-0.208,0.188-0.351,0.244c-0.658,0.214-1.262,0.412-1.809,0.595
	c-0.238,0.071-0.473,0.147-0.703,0.226c-0.231,0.08-0.444,0.151-0.643,0.214c-0.199,0.064-0.372,0.119-0.518,0.167
	c-0.147,0.048-0.244,0.083-0.292,0.107c-0.135,0.047-0.244,0.046-0.327-0.006c-0.083-0.052-0.141-0.119-0.173-0.203
	c-0.032-0.083-0.036-0.174-0.012-0.273c0.024-0.1,0.079-0.169,0.167-0.209c0.047-0.024,0.132-0.075,0.256-0.155
	c0.123-0.079,0.278-0.172,0.464-0.28c0.186-0.107,0.387-0.226,0.602-0.357c0.214-0.13,0.432-0.26,0.655-0.387
	c0.524-0.301,1.099-0.647,1.726-1.035h0.012c0.008,0,0.019-0.012,0.036-0.036l2.036-4.143c0.063-0.143,0.13-0.26,0.202-0.35
	C18.062,6.581,18.167,6.568,18.31,6.63z"/>
</svg>
