<?xml version="1.0" encoding="utf-8"?>
<!-- Generator: Adobe Illustrator 21.1.0, SVG Export Plug-In . SVG Version: 6.00 Build 0)  -->
<svg version="1.0" id="Layer_1" xmlns="http://www.w3.org/2000/svg" xmlns:xlink="http://www.w3.org/1999/xlink" x="0px" y="0px"
	 viewBox="0 0 32 32" style="enable-background:new 0 0 32 32;" xml:space="preserve" width="32px" height="32px" fill="#333">
<style type="text/css">
	.primary{fill:#333333;}
</style>
<path class="primary" d="M29.99,5.836c-0.258-0.324-0.729-0.378-1.054-0.122l-9.422,7.47l6.578-9.466
	c0.236-0.34,0.152-0.808-0.188-1.044c-0.339-0.236-0.806-0.152-1.044,0.188l-6.658,9.582L21.62,1.622
	c0.125-0.395-0.094-0.816-0.489-0.94c-0.398-0.13-0.816,0.094-0.94,0.489l-3.44,10.892V0.75C16.75,0.336,16.414,0,16,0
	s-0.75,0.336-0.75,0.75v11.313L11.81,1.171c-0.125-0.396-0.546-0.617-0.941-0.489c-0.395,0.124-0.614,0.546-0.489,0.94l3.418,10.822
	L7.139,2.862C6.903,2.521,6.435,2.437,6.095,2.674C5.755,2.91,5.671,3.378,5.907,3.718l6.578,9.466l-9.422-7.47
	C2.739,5.456,2.267,5.512,2.01,5.836S1.807,6.632,2.132,6.89l12.611,9.999h-1.785l-2.413,7.88h10.91l-2.413-7.88h-1.785L29.868,6.89
	C30.193,6.632,30.247,6.16,29.99,5.836z"/>
<rect x="9.701" y="29.992" class="primary" width="12.597px" height="2.008px"/>
<polygon class="primary" points="8.524,28.966 9.701,28.966 22.298,28.966 23.476,28.966 23.476,25.795 8.524,25.795 "/>
</svg>