<?xml version="1.0" encoding="utf-8"?>
<!-- Generator: Adobe Illustrator 21.1.0, SVG Export Plug-In . SVG Version: 6.00 Build 0)  -->
<svg version="1.0" id="Layer_1" xmlns="http://www.w3.org/2000/svg" xmlns:xlink="http://www.w3.org/1999/xlink" x="0px" y="0px"
	 viewBox="0 0 32 32" style="enable-background:new 0 0 32 32;" xml:space="preserve" width="32px" height="32px" fill="#333">
<style type="text/css">
	.primary{fill:#333333;}
	.secondary{fill:#FFFFFF;}
</style>
<circle class="primary" cx="16" cy="16" r="16"/>
<path class="secondary" d="M15.971,6c0.915,0,1.798,0.117,2.649,0.35c0.851,0.233,1.643,0.571,2.376,1.013
	c0.733,0.441,1.4,0.965,1.999,1.569c0.6,0.606,1.117,1.278,1.549,2.017c0.433,0.739,0.765,1.534,0.996,2.388
	c0.231,0.854,0.347,1.741,0.347,2.664s-0.116,1.808-0.347,2.655c-0.231,0.849-0.563,1.643-0.996,2.382
	c-0.433,0.739-0.95,1.413-1.549,2.024c-0.599,0.61-1.268,1.134-1.999,1.57c-0.733,0.438-1.525,0.774-2.376,1.012
	C17.769,25.88,16.886,26,15.971,26c-0.847,0-1.666-0.105-2.458-0.313c-0.792-0.208-1.54-0.503-2.243-0.885s-1.348-0.841-1.933-1.377
	c-0.586-0.535-1.102-1.133-1.549-1.792c-0.448-0.66-0.817-1.375-1.107-2.144c-0.291-0.768-0.48-1.57-0.568-2.403h12.323l-4.354,4.36
	l1.49,1.548l6.952-6.964l-6.952-7.008l-1.49,1.518l4.383,4.404H6.112c0.138-1.259,0.487-2.433,1.048-3.519s1.278-2.033,2.154-2.841
	c0.876-0.808,1.884-1.441,3.026-1.897C13.481,6.229,14.692,6,15.971,6z"/>
</svg>
