<?xml version="1.0" encoding="utf-8"?>
<!-- Generator: Adobe Illustrator 21.1.0, SVG Export Plug-In . SVG Version: 6.00 Build 0)  -->
<svg version="1.0" id="Layer_1" xmlns="http://www.w3.org/2000/svg" xmlns:xlink="http://www.w3.org/1999/xlink" x="0px" y="0px"
	 viewBox="0 0 32 32" style="enable-background:new 0 0 32 32;" xml:space="preserve" width="32px" height="32px" fill="#333">
<style type="text/css">
	.primary{fill:#333333;}
	.secondary{fill:#FFFFFF;}
</style>
<circle class="primary" cx="16" cy="16" r="16"/>
<path class="secondary" d="M6,16.029c0-0.915,0.117-1.798,0.35-2.649c0.233-0.851,0.571-1.643,1.013-2.376
	c0.441-0.733,0.965-1.4,1.569-1.999c0.606-0.6,1.278-1.117,2.017-1.549c0.739-0.433,1.534-0.765,2.388-0.996S15.077,6.112,16,6.112
	s1.808,0.116,2.655,0.347c0.849,0.231,1.643,0.563,2.382,0.996s1.413,0.95,2.024,1.549c0.61,0.599,1.134,1.268,1.57,1.999
	c0.438,0.733,0.774,1.525,1.012,2.376S26,15.114,26,16.029c0,0.847-0.105,1.666-0.313,2.458c-0.208,0.792-0.503,1.54-0.885,2.243
	c-0.382,0.703-0.841,1.348-1.377,1.933c-0.535,0.586-1.133,1.102-1.792,1.549c-0.66,0.448-1.375,0.817-2.144,1.107
	c-0.768,0.291-1.57,0.48-2.403,0.568V13.564l4.36,4.354l1.548-1.49l-6.964-6.952l-7.008,6.952l1.518,1.49l4.404-4.383v12.353
	c-1.259-0.138-2.433-0.487-3.519-1.048s-2.033-1.278-2.841-2.154c-0.808-0.876-1.441-1.884-1.897-3.026
	C6.229,18.519,6,17.308,6,16.029z"/>
</svg>
