<?xml version="1.0" encoding="utf-8"?>
<!-- Generator: Adobe Illustrator 21.1.0, SVG Export Plug-In . SVG Version: 6.00 Build 0)  -->
<svg version="1.0" id="Layer_1" xmlns="http://www.w3.org/2000/svg" xmlns:xlink="http://www.w3.org/1999/xlink" x="0px" y="0px"
	 viewBox="0 0 32 32" style="enable-background:new 0 0 32 32;" xml:space="preserve" width="32px" height="32px" fill="#333">
<style type="text/css">
	.primary{fill:#333333;}
</style>
<path class="primary" d="M8.64,21.606c-0.283-0.283-0.613-0.508-0.992-0.675c-0.377-0.167-0.777-0.25-1.199-0.25
	s-0.824,0.083-1.209,0.25c-0.383,0.167-0.713,0.391-0.99,0.675c-0.279,0.283-0.5,0.617-0.668,1c-0.166,0.384-0.25,0.792-0.25,1.225
	c0,0.422,0.084,0.823,0.25,1.2c0.168,0.378,0.389,0.705,0.668,0.983c0.277,0.278,0.607,0.497,0.99,0.658
	c0.385,0.161,0.787,0.242,1.209,0.242c0.434,0,0.836-0.081,1.209-0.242c0.371-0.16,0.699-0.381,0.982-0.658
	c0.283-0.277,0.508-0.605,0.676-0.983c0.166-0.377,0.25-0.778,0.25-1.2c0-0.444-0.084-0.856-0.25-1.233
	C9.148,22.22,8.923,21.889,8.64,21.606z"/>
<path class="primary" d="M27.125,21.606c-0.283-0.283-0.615-0.508-0.992-0.675c-0.379-0.167-0.783-0.25-1.217-0.25
	s-0.84,0.083-1.217,0.25s-0.709,0.391-0.992,0.675c-0.283,0.283-0.508,0.617-0.674,1c-0.168,0.384-0.25,0.792-0.25,1.225
	c0,0.422,0.082,0.823,0.25,1.2c0.166,0.378,0.391,0.705,0.674,0.983s0.615,0.497,0.992,0.658s0.783,0.242,1.217,0.242
	c0.444,0,0.854-0.081,1.225-0.242c0.373-0.16,0.701-0.381,0.984-0.658c0.283-0.277,0.504-0.605,0.666-0.983
	c0.16-0.377,0.242-0.778,0.242-1.2c0-0.444-0.082-0.856-0.242-1.233C27.629,22.22,27.408,21.889,27.125,21.606z"/>
<path class="primary" d="M30.666,21.481L30.666,21.481l-0.001-4.183l1.334,0.033c-0.467-0.433-0.965-0.767-1.492-1
	c-0.528-0.233-1.02-0.406-1.475-0.517c-0.533-0.133-1.063-0.216-1.584-0.25l-1.334-4.283c-0.365-0.411-0.75-0.775-1.148-1.092
	c-0.4-0.316-0.801-0.594-1.201-0.833c-0.4-0.239-0.796-0.445-1.191-0.617c-0.395-0.172-0.77-0.314-1.125-0.425
	C20.627,8.047,19.811,7.875,19,7.797v13.117H9.949c0.334,0.4,0.594,0.844,0.777,1.333c0.183,0.489,0.275,1.017,0.275,1.583
	c0,0.19-0.006,0.375-0.018,0.559c-0.012,0.184-0.045,0.364-0.1,0.542h9.619c-0.056-0.178-0.096-0.359-0.117-0.542
	c-0.023-0.184-0.033-0.37-0.033-0.559c0-0.633,0.119-1.227,0.357-1.783c0.241-0.555,0.565-1.041,0.977-1.458
	c0.41-0.417,0.892-0.744,1.449-0.983c0.554-0.238,1.151-0.358,1.783-0.358s1.224,0.119,1.775,0.358
	c0.548,0.239,1.029,0.566,1.441,0.983c0.411,0.416,0.737,0.903,0.975,1.458c0.238,0.555,0.359,1.15,0.359,1.783
	c0,0.19-0.006,0.375-0.018,0.559c-0.012,0.184-0.045,0.364-0.1,0.542H32v-3.45H30.666z M23.949,15.58
	c-0.479-0.033-0.965-0.117-1.459-0.25c-0.494-0.133-0.908-0.361-1.24-0.683c-0.067-0.055-0.121-0.141-0.158-0.259
	c-0.04-0.117-0.073-0.247-0.102-0.392c-0.027-0.144-0.048-0.303-0.066-0.475c-0.016-0.172-0.029-0.341-0.041-0.508
	c-0.033-0.4-0.051-0.827-0.051-1.283h3.783l1.068,3.833C25.082,15.619,24.504,15.625,23.949,15.58z"/>
<path class="primary" d="M13.035,13.909c-1.063,2.031-3.014,2.966-4.217,3.193l-0.166,0.031l-0.163-0.043
	c-1.16-0.304-3.024-1.295-4.093-3.181H0v5.608h17.618v-5.608H13.035z"/>
<path class="primary" d="M10.133,5.313v3.414c0,0.802-0.653,1.455-1.455,1.455c-0.802,0-1.455-0.653-1.455-1.455V5.87
	C7.212,5.769,7.212,5.667,7.222,5.565C7.221,5.511,7.223,5.456,7.225,5.402C5.958,6.25,4.322,7.881,4.322,10.671
	c0,1.369,0.397,2.424,0.949,3.238c1.281,1.892,3.408,2.455,3.408,2.455s2.227-0.429,3.496-2.455
	c0.504-0.804,0.861-1.853,0.861-3.238C13.035,7.684,11.4,6.097,10.133,5.313z"/>
<path class="primary" d="M11.588,2.182L11.588,2.182L11.588,2.182h-0.727C10.347,2.19,9.844,2.335,9.406,2.604
	C9.249,1.117,7.992-0.008,6.497,0H4.315C3.913,0.001,3.588,0.327,3.589,0.729C3.59,1.02,3.764,1.282,4.031,1.396l0.284,0.058h2.182
	c0.803,0,1.455,0.651,1.455,1.455v2.509c-0.004,0.061-0.004,0.121,0,0.182c-0.012,0.072-0.012,0.146,0,0.218v2.909
	c0,0.402,0.326,0.727,0.727,0.727c0.402,0,0.727-0.326,0.727-0.727V5.091c0-0.803,0.651-1.455,1.455-1.455h0.727V3.634l0,0
	c0.401,0,0.726-0.325,0.726-0.726C12.314,2.507,11.989,2.182,11.588,2.182z"/>
</svg>
