<?xml version="1.0" encoding="utf-8"?>
<!-- Generator: Adobe Illustrator 21.1.0, SVG Export Plug-In . SVG Version: 6.00 Build 0)  -->
<svg version="1.0" id="Layer_1" xmlns="http://www.w3.org/2000/svg" xmlns:xlink="http://www.w3.org/1999/xlink" x="0px" y="0px"
	 viewBox="0 0 32 32" style="enable-background:new 0 0 32 32;" xml:space="preserve" width="32px" height="32px" fill="#333">
<style type="text/css">
	.primary{fill:#21201F;}
	.secondary{fill:#A70101;}
	.tertiary{fill:#FFDE00;}
	.quaternary{fill:#FFFFFF;}
</style>
<path class="secondary" d="M16,31.138C13.915,28.758,4.859,18.077,4.859,12.301C4.859,5.833,9.857,0.571,16,0.571
	s11.141,5.262,11.141,11.729C27.141,18.078,18.085,28.758,16,31.138z"/>
<path class="primary" d="M16,1.143c5.827,0,10.569,5.006,10.569,11.158c0,4.793-6.983,13.838-10.569,17.976
	C12.414,26.139,5.431,17.095,5.431,12.301C5.431,6.149,10.173,1.143,16,1.143 M16,0C9.531,0,4.288,5.507,4.288,12.301S16,32,16,32
	s11.712-12.906,11.712-19.699C27.712,5.507,22.469,0,16,0L16,0z"/>
<polygon class="quaternary" points="9.77,13.46 7.787,16.062 11.013,16.091 10.294,19.337 13.225,17.896 13.954,21.132 16,18.545 
	18.044,21.132 18.774,17.896 21.701,19.334 20.996,16.091 24.213,16.062 22.23,13.46 25.107,11.998 22.232,10.55 24.214,7.948 
	20.997,7.922 21.7,4.683 18.776,6.106 18.045,2.868 16,5.455 13.955,2.868 13.225,6.106 10.296,4.68 11.013,7.922 7.786,7.948 
	9.768,10.55 6.893,11.998 "/>
<path class="tertiary" d="M23.21,15.572l-2.833,0.024l0.615,2.834l-2.565-1.262L17.787,20L16,17.738L14.211,20l-0.639-2.833
	l-2.565,1.262l0.627-2.834l-2.845-0.024l1.741-2.286L8,12l2.531-1.274L8.789,8.44l2.845-0.024l-0.626-2.834l2.565,1.25L14.212,4
	L16,6.262L17.788,4l0.639,2.833l2.565-1.25l-0.615,2.834l2.833,0.024l-1.741,2.286L24,12l-2.531,1.286L23.21,15.572z M16,17.238
	c0.704,0,1.366-0.137,1.985-0.411c0.619-0.274,1.161-0.649,1.625-1.125c0.465-0.476,0.831-1.03,1.098-1.661
	c0.267-0.631,0.401-1.312,0.401-2.042c0-0.722-0.134-1.4-0.401-2.036c-0.267-0.635-0.633-1.191-1.098-1.667
	c-0.464-0.476-1.006-0.851-1.625-1.125C17.366,6.899,16.704,6.762,16,6.762c-0.712,0-1.376,0.137-1.991,0.411
	c-0.615,0.274-1.155,0.649-1.62,1.125c-0.464,0.476-0.83,1.032-1.097,1.667c-0.267,0.635-0.401,1.314-0.401,2.036
	c0,0.73,0.134,1.41,0.401,2.042c0.267,0.631,0.633,1.185,1.097,1.661c0.465,0.476,1.004,0.851,1.62,1.125S15.288,17.238,16,17.238z
	 M16,7.786c0.549,0,1.072,0.108,1.568,0.322c0.495,0.214,0.936,0.52,1.324,0.916c0.395,0.405,0.695,0.863,0.9,1.375
	c0.205,0.512,0.308,1.046,0.308,1.601c0,0.563-0.102,1.099-0.308,1.607c-0.205,0.508-0.505,0.96-0.9,1.357
	c-0.395,0.405-0.838,0.713-1.329,0.923c-0.492,0.21-1.012,0.315-1.562,0.315c-0.542,0-1.062-0.105-1.562-0.315
	c-0.5-0.21-0.943-0.518-1.329-0.923c-0.395-0.405-0.695-0.859-0.9-1.363c-0.205-0.504-0.307-1.037-0.307-1.601
	c0-0.555,0.102-1.09,0.307-1.601c0.205-0.512,0.505-0.97,0.9-1.375s0.839-0.713,1.335-0.923C14.94,7.891,15.458,7.786,16,7.786z"/>
</svg>
