<?xml version="1.0" encoding="utf-8"?>
<!-- Generator: Adobe Illustrator 21.1.0, SVG Export Plug-In . SVG Version: 6.00 Build 0)  -->
<svg version="1.0" id="Layer_1" xmlns="http://www.w3.org/2000/svg" xmlns:xlink="http://www.w3.org/1999/xlink" x="0px" y="0px"
	 viewBox="0 0 32 32" style="enable-background:new 0 0 32 32;" xml:space="preserve" width="32px" height="32px" fill="#333">
<style type="text/css">
	.primary{fill:#333333;}
</style>
<path class="primary" d="M24.411,21.714c-1.321,3.479-4.151,6.169-7.691,7.314L16,29.269l-0.72-0.24
	c-3.541-1.145-6.37-3.836-7.691-7.314H0V32h32V21.714H24.411z"/>
<path class="primary" d="M9.154,16.768c0,7.15,6.846,8.946,6.846,8.946s6.846-1.287,6.846-8.946c0-4.694-2.569-7.187-4.56-8.418
	v5.364C18.286,14.974,17.26,16,16,16c-1.26,0-2.286-1.026-2.286-2.286v-4.49c-0.019-0.159-0.02-0.319-0.003-0.479
	c-0.002-0.086,0.001-0.171,0.005-0.257C11.725,9.821,9.154,12.384,9.154,16.768z"/>
<path class="primary" d="M8.697,2.194l0.446,0.091h3.429c1.262,0,2.286,1.023,2.286,2.286v3.943c-0.005,0.095-0.005,0.191,0,0.286
	c-0.02,0.113-0.02,0.229,0,0.343v4.571c0,0.631,0.512,1.143,1.143,1.143c0.631,0,1.143-0.512,1.143-1.143V8
	c0-1.262,1.023-2.286,2.286-2.286h1.143V5.711l0,0c0.63,0,1.141-0.511,1.141-1.141c0-0.63-0.511-1.141-1.141-1.141l0,0v0h-1.143
	c-0.808,0.012-1.597,0.241-2.286,0.663C16.896,1.756,14.92-0.013,12.571,0H9.143C8.512,0.001,8.001,0.514,8.002,1.145
	C8.003,1.602,8.276,2.015,8.697,2.194z"/>
</svg>
