<?xml version="1.0" encoding="utf-8"?>
<!-- Generator: Adobe Illustrator 21.1.0, SVG Export Plug-In . SVG Version: 6.00 Build 0)  -->
<svg version="1.0" id="Layer_1" xmlns="http://www.w3.org/2000/svg" xmlns:xlink="http://www.w3.org/1999/xlink" x="0px" y="0px"
	 viewBox="0 0 32 32" style="enable-background:new 0 0 32 32;" xml:space="preserve" width="32px" height="32px" fill="#333">
<style type="text/css">
	.primary{fill:#333333;}
</style>
<path class="primary" d="M4.571,21.143v-2.286H2.286H1.143C0.512,18.857,0,19.369,0,20c0,0.631,0.512,1.143,1.143,1.143h1.143v2.286
	v2.286H8v-2.286H4.571V21.143z"/>
<path class="primary" d="M14.286,21.143c-2.209,0-4,1.791-4,4c0,2.209,1.791,4,4,4c2.209,0,4-1.791,4-4
	C18.286,22.934,16.495,21.143,14.286,21.143z M14.286,26.857c-0.947,0-1.714-0.768-1.714-1.714s0.767-1.714,1.714-1.714
	S16,24.196,16,25.143S15.232,26.857,14.286,26.857z"/>
<rect x="20.571" y="23.429" class="primary" width="11.429px" height="2.286px"/>
<path class="primary" d="M9.143,5.143V4c0-0.631-0.512-1.143-1.143-1.143C7.369,2.857,6.857,3.369,6.857,4v1.143h0v16H9.44
	c2.201-2.676,6.155-3.061,8.831-0.86c0.314,0.258,0.602,0.546,0.86,0.86H32v-16H9.143z M11.429,16.571H9.143V7.429h2.286V16.571z
	 M16,16.571h-2.286V7.429H16V16.571z M20.571,16.571h-2.286V7.429h2.286V16.571z M25.143,16.571h-2.286V7.429h2.286V16.571z
	 M29.714,16.571h-2.286V7.429h2.286V16.571z"/>
</svg>
