<?xml version="1.0" encoding="utf-8"?>
<!-- Generator: Adobe Illustrator 21.1.0, SVG Export Plug-In . SVG Version: 6.00 Build 0)  -->
<svg version="1.0" id="Layer_1" xmlns="http://www.w3.org/2000/svg" xmlns:xlink="http://www.w3.org/1999/xlink" x="0px" y="0px"
	 viewBox="0 0 32 32" style="enable-background:new 0 0 32 32;" xml:space="preserve" width="32px" height="32px" fill="#333">
<style type="text/css">
	.primary{fill:#333333;}
</style>
<path class="primary" d="M32,2.121L2.121,32L0,29.879L29.879,0L32,2.121z M28,28h-3v2h4c0.6,0,1-0.4,1-1v-4h-2V28z M28,23h2v-5l-2,1
	V23z M7,30v-1.465L5.535,30H7z M2,25v1.465L3.465,25H2z M26,18l2-1l-4-2l-2,1L26,18z M15,2H9v2h6V2z M4,9H2v6h2V9z M17,30h6v-2h-6
	V30z M4,17H2v6h2V17z M9,30h6v-2H9V30z M4,4h3V2H3C2.4,2,2,2.4,2,3v4h2V4z M21,7h0.465L23,5.465V3c0-0.6-0.4-1-1-1h-5v2h4V7z"/>
</svg>
