<?xml version="1.0" encoding="utf-8"?>
<!-- Generator: Adobe Illustrator 21.1.0, SVG Export Plug-In . SVG Version: 6.00 Build 0)  -->
<svg version="1.0" id="Layer_1" xmlns="http://www.w3.org/2000/svg" xmlns:xlink="http://www.w3.org/1999/xlink" x="0px" y="0px"
	 viewBox="0 0 32 32" style="enable-background:new 0 0 32 32;" xml:space="preserve" width="32px" height="32px" fill="#333">
<style type="text/css">
	.primary{fill:#21201F;}
	.secondary{fill:#FFFFFF;}
</style>
<path class="secondary" d="M15.968,31.138c-2.08-2.385-11.113-13.085-11.101-18.861C4.881,5.81,9.89,0.558,16.033,0.571
	s11.129,5.285,11.116,11.753C27.136,18.101,18.058,28.762,15.968,31.138z"/>
<path class="primary" d="M16.031,1.143c5.827,0.012,10.559,5.028,10.545,11.18c-0.01,4.793-7.012,13.823-10.607,17.954
	C12.392,26.132,5.429,17.072,5.439,12.278C5.452,6.126,10.204,1.131,16.031,1.143 M16.034,0C9.565-0.014,4.31,5.483,4.296,12.276
	S15.966,32,15.966,32S27.705,19.119,27.72,12.325C27.734,5.532,22.502,0.014,16.034,0L16.034,0z"/>
<path class="primary" d="M23.293,15.235c-0.024,0.383-0.109,0.74-0.257,1.07c-0.148,0.33-0.342,0.616-0.584,0.858
	c-0.242,0.242-0.523,0.432-0.844,0.57c-0.321,0.138-0.664,0.208-1.029,0.208c-0.383,0-0.74-0.075-1.07-0.226
	c-0.33-0.15-0.619-0.353-0.866-0.61c-0.248-0.257-0.442-0.559-0.584-0.906s-0.212-0.716-0.212-1.105h-2.785
	c-0.094,0.413-0.249,0.793-0.464,1.141c-0.216,0.347-0.475,0.646-0.778,0.897s-0.647,0.448-1.03,0.592s-0.787,0.217-1.211,0.217
	c-0.489,0-0.951-0.099-1.388-0.296c-0.436-0.197-0.816-0.466-1.14-0.804c-0.324-0.338-0.581-0.737-0.77-1.194
	C8.093,15.19,8,14.702,8,14.184c0-0.507,0.088-0.983,0.265-1.428c0.177-0.445,0.421-0.832,0.734-1.163l-0.627-0.442
	c0.147-0.347,0.362-0.66,0.645-0.937C9.14,10.097,9.281,9.982,9.441,9.87c0.159-0.112,0.344-0.212,0.557-0.301
	c0.212-0.088,0.449-0.16,0.712-0.217c0.263-0.056,0.552-0.087,0.871-0.093l0.353-2.254l-0.416-0.945h6.921l-1.051,0.999V9.18
	c0.689-0.047,1.403-0.029,2.139,0.053c0.312,0.041,0.645,0.096,0.999,0.164c0.353,0.068,0.715,0.159,1.083,0.274
	c0.368,0.115,0.741,0.258,1.118,0.428c0.377,0.171,0.748,0.374,1.114,0.61h-0.601l-0.371,1.883H24v2.643L23.293,15.235
	L23.293,15.235z M11.544,16.65c0.318,0,0.618-0.062,0.898-0.186c0.28-0.124,0.525-0.295,0.734-0.513
	c0.209-0.218,0.373-0.471,0.49-0.76c0.118-0.289,0.177-0.598,0.177-0.928c0-0.33-0.059-0.642-0.177-0.937
	c-0.117-0.295-0.281-0.551-0.49-0.769c-0.209-0.218-0.452-0.39-0.729-0.517c-0.277-0.127-0.578-0.19-0.902-0.19
	c-0.312,0-0.609,0.063-0.888,0.19c-0.28,0.127-0.523,0.299-0.729,0.517c-0.206,0.218-0.37,0.474-0.49,0.769
	c-0.121,0.295-0.181,0.607-0.181,0.937c0,0.33,0.06,0.639,0.181,0.928c0.12,0.289,0.284,0.542,0.49,0.76
	c0.206,0.218,0.449,0.389,0.729,0.513C10.935,16.588,11.232,16.65,11.544,16.65L11.544,16.65z M13.843,7.041H12.57l-0.248,2.263
	c0.135,0.035,0.264,0.068,0.385,0.097c0.121,0.03,0.239,0.065,0.353,0.106c0.115,0.041,0.235,0.09,0.358,0.146
	s0.265,0.125,0.424,0.208L13.843,7.041L13.843,7.041z M16.503,7.041h-2.139v3.209c0.206,0.159,0.387,0.327,0.544,0.504
	c0.156,0.177,0.292,0.361,0.406,0.553c0.115,0.192,0.211,0.382,0.288,0.57c0.082,0.2,0.15,0.389,0.203,0.566h0.698L16.503,7.041
	L16.503,7.041z M20.632,16.889c0.224,0,0.437-0.045,0.64-0.137s0.379-0.215,0.526-0.371c0.147-0.156,0.265-0.342,0.353-0.557
	c0.089-0.215,0.133-0.443,0.133-0.685c0-0.236-0.044-0.459-0.133-0.672c-0.088-0.212-0.206-0.398-0.353-0.557
	c-0.147-0.159-0.322-0.286-0.526-0.38c-0.204-0.094-0.417-0.141-0.64-0.141c-0.23,0-0.447,0.047-0.65,0.141s-0.38,0.221-0.53,0.38
	c-0.151,0.159-0.27,0.345-0.358,0.557c-0.088,0.212-0.133,0.436-0.133,0.672c0,0.242,0.044,0.47,0.133,0.685
	c0.089,0.215,0.208,0.401,0.358,0.557c0.15,0.156,0.327,0.28,0.53,0.371C20.186,16.843,20.402,16.889,20.632,16.889L20.632,16.889z"
	/>
</svg>
