<?xml version="1.0" encoding="utf-8"?>
<!-- Generator: Adobe Illustrator 21.1.0, SVG Export Plug-In . SVG Version: 6.00 Build 0)  -->
<svg version="1.0" id="Layer_1" xmlns="http://www.w3.org/2000/svg" xmlns:xlink="http://www.w3.org/1999/xlink" x="0px" y="0px"
	 viewBox="0 0 32 32" style="enable-background:new 0 0 32 32;" xml:space="preserve" width="32px" height="32px" fill="#333">
<style type="text/css">
	.primary{fill:#21201F;}
	.secondary{fill:#FFFFFF;}
	.tertiary{fill:#60BCE4;}
</style>
<path class="secondary" d="M16,31.138C13.915,28.758,4.859,18.077,4.859,12.301C4.859,5.833,9.857,0.571,16,0.571
	s11.141,5.262,11.141,11.729C27.141,18.078,18.085,28.758,16,31.138z"/>
<path class="primary" d="M16,1.143c5.827,0,10.569,5.006,10.569,11.158c0,4.793-6.983,13.838-10.569,17.976
	C12.414,26.139,5.431,17.095,5.431,12.301C5.431,6.149,10.173,1.143,16,1.143 M16,0C9.531,0,4.288,5.507,4.288,12.301S16,32,16,32
	s11.712-12.906,11.712-19.699C27.712,5.507,22.469,0,16,0L16,0z"/>
<path class="tertiary" d="M21.387,13.047c-0.159-0.508-0.37-1.04-0.637-1.595c-0.266-0.556-0.567-1.129-0.905-1.72
	c-0.337-0.591-0.68-1.161-1.029-1.708C17.982,6.73,17.042,5.389,15.994,4c-1.047,1.389-1.984,2.73-2.81,4.024
	c-0.349,0.547-0.692,1.117-1.029,1.708c-0.337,0.591-0.639,1.164-0.905,1.72c-0.266,0.555-0.479,1.085-0.637,1.589
	c-0.159,0.504-0.238,0.951-0.238,1.339c0,0.778,0.147,1.508,0.44,2.19c0.293,0.682,0.694,1.278,1.202,1.786
	c0.508,0.508,1.103,0.909,1.786,1.203c0.683,0.294,1.413,0.44,2.191,0.44c0.778,0,1.508-0.147,2.19-0.441
	c0.683-0.294,1.28-0.694,1.792-1.203c0.512-0.508,0.914-1.103,1.208-1.786c0.293-0.682,0.44-1.412,0.44-2.19
	C21.625,14,21.545,13.556,21.387,13.047z"/>
</svg>
