<?xml version="1.0" encoding="utf-8"?>
<!-- Generator: Adobe Illustrator 21.1.0, SVG Export Plug-In . SVG Version: 6.00 Build 0)  -->
<svg version="1.0" id="Layer_1" xmlns="http://www.w3.org/2000/svg" xmlns:xlink="http://www.w3.org/1999/xlink" x="0px" y="0px"
	 viewBox="0 0 32 32" style="enable-background:new 0 0 32 32;" xml:space="preserve" width="32px" height="32px" fill="#333">
<style type="text/css">
	.primary{fill:#333333;}
</style>
<path class="primary" d="M6.286,16c-2.84,0-5.143,2.303-5.143,5.143c0,2.84,2.302,5.143,5.143,5.143s5.143-2.303,5.143-5.143
	c0.006-2.834-2.286-5.137-5.12-5.143C6.301,16,6.293,16,6.286,16z M8,21.143c0,0.947-0.768,1.714-1.714,1.714
	s-1.714-0.768-1.714-1.714s0.768-1.714,1.714-1.714S8,20.196,8,21.143z"/>
<rect y="28.571" class="primary" width="32px" height="2.286px"/>
<rect x="24" y="17.143" class="primary" width="1.143px" height="9.143px"/>
<rect x="27.429" y="17.143" class="primary" width="1.143px" height="9.143px"/>
<rect x="30.857" y="17.143" class="primary" width="1.143px" height="9.143px"/>
<rect x="24" y="11.78" class="primary" width="1.143px" height="4.22px"/>
<rect x="27.429" y="11.78" class="primary" width="1.143px" height="4.22px"/>
<rect x="30.857" y="11.78" class="primary" width="1.143px" height="4.22px"/>
<polygon class="primary" points="10.286,1.143 0,1.143 0,5.714 6.857,5.714 "/>
<path class="primary" d="M12.078,14.818c1.485,1.363,2.441,3.206,2.699,5.205l4.651,0.549v-2.286l-4.571-3.429v-1.143h2.286
	l2.286-10.286h-8.126L8.08,8H0v7.337C3.192,11.858,8.6,11.626,12.078,14.818z M12.571,5.714h4.571L16,11.429h-1.143l-2.286-4.571
	V5.714z"/>
</svg>