<?xml version="1.0" encoding="utf-8"?>
<!-- Generator: Adobe Illustrator 21.1.0, SVG Export Plug-In . SVG Version: 6.00 Build 0)  -->
<svg version="1.0" id="Layer_1" xmlns="http://www.w3.org/2000/svg" xmlns:xlink="http://www.w3.org/1999/xlink" x="0px" y="0px"
	 viewBox="0 0 32 32" style="enable-background:new 0 0 32 32;" xml:space="preserve" width="32px" height="32px" fill="#333">
<style type="text/css">
	.primary{fill:#333333;}
</style>
<path class="primary" d="M30,7.768h-9.749V5.018c0-1.01-0.736-1.843-1.7-2.006c-0.035-0.212-0.141-0.532-0.305-0.885h6.836v-1.25
	h-7.614C17.052,0.378,16.547,0,16,0s-1.052,0.378-1.468,0.876H6.917v1.25h6.836c-0.163,0.353-0.27,0.673-0.305,0.885
	c-0.964,0.163-1.7,0.996-1.7,2.006v2.751H2c-1.105,0-2,0.895-2,2v2.21c0,0.972,0.698,1.803,1.656,1.97l6.634,1.16
	c0.114,0.02,0.229,0.03,0.344,0.03h3.114v2.169l1.552,9.126H9.93c-0.754,0-1.366,0.612-1.366,1.366c0,0.67,0.486,1.241,1.148,1.348
	l2.676,0.432c0.072,0.012,0.145,0.017,0.218,0.017h1.233L14,30.542c0,0,0.517,1.458,2,1.458s2-1.458,2-1.458l0.161-0.945h1.233
	c0.073,0,0.146-0.006,0.218-0.017l2.676-0.432c0.662-0.107,1.148-0.678,1.148-1.348c0-0.754-0.611-1.366-1.366-1.366h-3.371
	l1.552-9.126v-2.169h3.114c0.115,0,0.231-0.01,0.344-0.03l6.634-1.16C31.302,13.781,32,12.95,32,11.978v-2.21
	C32,8.664,31.105,7.768,30,7.768z"/>
</svg>
