<?xml version="1.0" encoding="utf-8"?>
<!-- Generator: Adobe Illustrator 21.1.0, SVG Export Plug-In . SVG Version: 6.00 Build 0)  -->
<svg version="1.0" id="Layer_1" xmlns="http://www.w3.org/2000/svg" xmlns:xlink="http://www.w3.org/1999/xlink" x="0px" y="0px"
	 viewBox="0 0 32 32" style="enable-background:new 0 0 32 32;" xml:space="preserve" width="32px" height="32px" fill="#333">
<style type="text/css">
	.primary{fill-rule:evenodd;clip-rule:evenodd;fill:#707070;}
	.secondary{fill:#FFDE00;}
	.tertiary{fill-rule:evenodd;clip-rule:evenodd;fill:#F2F2F2;}
</style>
<circle class="primary" cx="16" cy="16" r="16"/>
<path class="secondary" d="M16,6c5.523,0,10,4.477,10,10s-4.477,10-10,10S6,21.523,6,16S10.477,6,16,6 M16,2C8.28,2,2,8.28,2,16
	s6.28,14,14,14c7.72,0,14-6.28,14-14S23.72,2,16,2L16,2z"/>
<path class="tertiary" d="M8.96,12.596c0.264-0.379,0.569-0.705,0.915-0.979c0.315-0.249,1.421-1.064,3.584-1.08
	c2.97-0.023,3.72,1.49,6.5,1.532c1.304,0.02,2.377-0.295,3.08-0.564c-0.379,0.564-0.832,1.007-1.359,1.327
	c-1.014,0.616-2.46,0.631-2.46,0.631c-2.094,0.009-3.411-1.008-5.262-1.395C12.817,11.83,11.158,11.766,8.96,12.596z"/>
<path class="tertiary" d="M8.96,16.596c0.264-0.379,0.569-0.705,0.915-0.979c0.315-0.249,1.421-1.064,3.584-1.08
	c2.97-0.023,3.72,1.49,6.5,1.532c1.304,0.02,2.377-0.295,3.08-0.564c-0.379,0.564-0.832,1.007-1.359,1.327
	c-1.014,0.616-2.46,0.631-2.46,0.631c-2.094,0.009-3.411-1.008-5.262-1.395C12.817,15.83,11.158,15.766,8.96,16.596z"/>
<path class="tertiary" d="M8.96,20.596c0.264-0.379,0.569-0.705,0.915-0.979c0.315-0.249,1.421-1.064,3.584-1.08
	c2.97-0.023,3.72,1.49,6.5,1.532c1.304,0.02,2.377-0.295,3.08-0.564c-0.379,0.564-0.832,1.007-1.359,1.327
	c-1.014,0.616-2.46,0.631-2.46,0.631c-2.094,0.009-3.411-1.008-5.262-1.395C12.817,19.83,11.158,19.766,8.96,20.596z"/>
</svg>
