<?xml version="1.0" encoding="utf-8"?>
<!-- Generator: Adobe Illustrator 21.1.0, SVG Export Plug-In . SVG Version: 6.00 Build 0)  -->
<svg version="1.0" id="Layer_1" xmlns="http://www.w3.org/2000/svg" xmlns:xlink="http://www.w3.org/1999/xlink" x="0px" y="0px"
	 viewBox="0 0 32 32" style="enable-background:new 0 0 32 32;" xml:space="preserve" width="32px" height="32px" fill="#333">
<style type="text/css">
	.primary{fill:#333333;}
	.secondary{fill:#FFFFFF;}
</style>
<circle class="primary" cx="16" cy="16" r="16"/>
<path class="secondary" d="M26,16.431c-0.07,1.22-0.33,2.371-0.782,3.452c-0.451,1.082-1.069,2.045-1.852,2.887l-0.283,0.283v0.029
	l-0.313,0.297c-0.843,0.775-1.801,1.389-2.871,1.845c-1.071,0.456-2.228,0.715-3.468,0.774h-0.862
	c-1.22-0.059-2.366-0.318-3.438-0.774c-1.072-0.456-2.034-1.071-2.887-1.845l-0.297-0.297v-0.029l-0.328-0.283h0.03
	c-0.794-0.843-1.417-1.805-1.868-2.887c-0.451-1.081-0.702-2.232-0.752-3.452H6v-0.403V16v-0.029v-0.403H6.03
	c0.05-1.219,0.3-2.37,0.752-3.451c0.452-1.082,1.073-2.044,1.868-2.887H8.619l0.268-0.267c0.039-0.04,0.079-0.065,0.119-0.076
	l0.238-0.253c0.843-0.783,1.803-1.403,2.88-1.86C13.2,6.318,14.348,6.06,15.569,6h0.371H16h0.088h0.342
	c1.24,0.07,2.397,0.33,3.468,0.782c1.071,0.451,2.029,1.069,2.871,1.852l0.268,0.253c0.039,0.04,0.074,0.066,0.104,0.076
	l0.224,0.267c0.783,0.844,1.403,1.805,1.86,2.887c0.456,1.082,0.715,2.232,0.774,3.451v0.403V16v0.029V16.431z M23.367,19.116
	c0.188-0.428,0.334-0.862,0.439-1.305c0.103-0.442,0.166-0.902,0.186-1.38h-1.19v-0.863h1.19c-0.029-0.456-0.094-0.909-0.193-1.361
	c-0.099-0.451-0.243-0.892-0.431-1.318c-0.348-0.843-0.814-1.587-1.399-2.232l-0.863,0.834l-0.595-0.596l0.863-0.848
	c-0.348-0.297-0.708-0.566-1.079-0.803c-0.371-0.238-0.767-0.442-1.184-0.611c-0.426-0.188-0.86-0.334-1.302-0.438
	c-0.441-0.105-0.9-0.166-1.377-0.187V9.2h-0.862V8.009c-0.458,0.029-0.913,0.094-1.365,0.192c-0.452,0.1-0.892,0.244-1.319,0.432
	c-0.824,0.348-1.571,0.819-2.236,1.414l0.85,0.848l-0.597,0.596l-0.85-0.834c-0.297,0.329-0.566,0.678-0.805,1.05
	c-0.239,0.371-0.452,0.766-0.641,1.182c-0.169,0.427-0.306,0.866-0.41,1.318c-0.104,0.451-0.166,0.904-0.187,1.361h1.176v0.863
	H8.009c0.019,0.477,0.082,0.937,0.187,1.38c0.104,0.443,0.241,0.877,0.41,1.305c0.189,0.418,0.403,0.813,0.641,1.185
	c0.239,0.373,0.508,0.723,0.805,1.051l0.85-0.82l0.597,0.597l-0.85,0.82c0.329,0.297,0.682,0.569,1.059,0.813
	c0.377,0.244,0.771,0.455,1.177,0.634c0.428,0.19,0.867,0.333,1.319,0.433c0.452,0.1,0.907,0.164,1.365,0.193v-1.205h0.862v1.205
	c0.933-0.059,1.826-0.267,2.679-0.626c0.814-0.347,1.558-0.829,2.232-1.446l-0.833-0.82l0.595-0.597l0.863,0.82
	C22.563,20.696,23.028,19.95,23.367,19.116z M18.887,9.288c0.159,0.08,0.231,0.192,0.216,0.334
	c-0.015,0.145-0.056,0.315-0.126,0.513l-1.919,6.101c-0.039,0.169-0.117,0.32-0.23,0.455c-0.114,0.134-0.261,0.235-0.439,0.305
	c-0.823,0.267-1.577,0.515-2.261,0.744c-0.297,0.089-0.591,0.184-0.878,0.282c-0.288,0.1-0.555,0.189-0.803,0.268
	c-0.249,0.08-0.465,0.149-0.648,0.208c-0.184,0.06-0.305,0.104-0.365,0.134c-0.169,0.059-0.305,0.057-0.409-0.008
	c-0.104-0.065-0.176-0.149-0.216-0.254c-0.039-0.103-0.045-0.218-0.015-0.341c0.029-0.124,0.099-0.211,0.208-0.261
	c0.059-0.029,0.166-0.093,0.32-0.193c0.154-0.098,0.347-0.215,0.58-0.35c0.233-0.134,0.483-0.282,0.752-0.446
	c0.267-0.163,0.54-0.325,0.818-0.483c0.655-0.376,1.374-0.808,2.157-1.294h0.015c0.01,0,0.024-0.015,0.045-0.045l2.545-5.179
	c0.079-0.178,0.163-0.324,0.253-0.438S18.709,9.21,18.887,9.288z"/>
</svg>
