<?xml version="1.0" encoding="utf-8"?>
<!-- Generator: Adobe Illustrator 21.1.0, SVG Export Plug-In . SVG Version: 6.00 Build 0)  -->
<svg version="1.0" id="Layer_1" xmlns="http://www.w3.org/2000/svg" xmlns:xlink="http://www.w3.org/1999/xlink" x="0px" y="0px"
	 viewBox="0 0 32 32" style="enable-background:new 0 0 32 32;" xml:space="preserve" width="32px" height="32px" fill="#333">
<style type="text/css">
	.primary{fill:#333333;}
	.secondary{fill:#FFFFFF;}
</style>
<circle class="primary" cx="16" cy="16" r="16"/>
<path class="secondary" d="M16,6c0.923,0,1.81,0.117,2.663,0.35c0.854,0.233,1.65,0.571,2.389,1.012
	c0.739,0.441,1.411,0.965,2.016,1.57c0.605,0.605,1.129,1.277,1.57,2.016c0.441,0.74,0.779,1.535,1.012,2.388
	C25.883,14.189,26,15.077,26,16c0,0.923-0.117,1.808-0.35,2.656c-0.233,0.849-0.571,1.642-1.012,2.381
	c-0.441,0.739-0.965,1.414-1.57,2.024c-0.606,0.61-1.278,1.134-2.016,1.57c-0.74,0.437-1.535,0.774-2.389,1.013
	C17.811,25.881,16.923,26,16,26c-0.924,0-1.811-0.119-2.664-0.357c-0.854-0.239-1.65-0.576-2.389-1.013
	c-0.739-0.436-1.414-0.96-2.024-1.57s-1.131-1.285-1.562-2.024s-0.766-1.533-1.004-2.381C6.119,17.808,6,16.922,6,16
	c0-0.923,0.119-1.81,0.357-2.664c0.238-0.853,0.573-1.649,1.004-2.388c0.432-0.739,0.953-1.41,1.562-2.016
	c0.611-0.605,1.285-1.129,2.024-1.57c0.74-0.441,1.533-0.779,2.382-1.012C14.177,6.117,15.068,6,16,6z M22.147,16.595h-4.122V9.349
	h-4.137v7.247H9.825l6.146,6.175L22.147,16.595z"/>
</svg>
