<?xml version="1.0" encoding="utf-8"?>
<!-- Generator: Adobe Illustrator 21.1.0, SVG Export Plug-In . SVG Version: 6.00 Build 0)  -->
<svg version="1.0" id="Layer_1" xmlns="http://www.w3.org/2000/svg" xmlns:xlink="http://www.w3.org/1999/xlink" x="0px" y="0px"
	 viewBox="0 0 32 32" style="enable-background:new 0 0 32 32;" xml:space="preserve" width="32px" height="32px" fill="#333">
<style type="text/css">
	.primary{fill:#333333;}
</style>
<path class="primary" d="M24.666,21.843c0.701,0,1.359-0.147,1.977-0.442c0.617-0.295,1.154-0.688,1.609-1.179
	s0.814-1.066,1.073-1.726c0.26-0.659,0.39-1.362,0.39-2.105c0-0.058-0.013-0.111-0.015-0.169c0.002-0.059,0.015-0.113,0.015-0.172
	c0-0.589-0.089-1.143-0.264-1.663c-0.175-0.518-0.419-0.992-0.736-1.42c-0.315-0.428-0.688-0.796-1.115-1.105
	c-0.429-0.308-0.895-0.532-1.4-0.673c-0.071-0.631-0.235-1.217-0.493-1.761c-0.26-0.541-0.593-1.007-1.001-1.4
	c-0.406-0.392-0.877-0.705-1.411-0.936c-0.532-0.232-1.093-0.347-1.683-0.347c-0.673,0-1.276,0.119-1.81,0.358
	c-0.674-0.715-1.469-1.28-2.389-1.693c-0.92-0.414-1.912-0.62-2.978-0.62c-0.814,0-1.592,0.131-2.335,0.39
	c-0.744,0.26-1.425,0.629-2.042,1.105C9.444,6.762,8.903,7.33,8.44,7.989c-0.464,0.66-0.827,1.382-1.094,2.168
	c-0.701,0-1.359,0.147-1.977,0.442c-0.617,0.295-1.154,0.688-1.609,1.179c-0.455,0.491-0.814,1.066-1.073,1.726
	c-0.26,0.66-0.39,1.362-0.39,2.105c0,0.058,0.013,0.111,0.015,0.168c-0.002,0.059-0.015,0.113-0.015,0.172
	c0,0.589,0.089,1.143,0.264,1.662c0.175,0.518,0.419,0.992,0.736,1.42c0.315,0.428,0.688,0.796,1.115,1.105
	c0.429,0.308,0.895,0.532,1.4,0.673c0.071,0.631,0.235,1.217,0.493,1.761c0.26,0.541,0.593,1.007,1.001,1.4
	c0.406,0.392,0.877,0.705,1.411,0.936c0.532,0.232,1.093,0.347,1.683,0.347c0.673,0,1.276-0.119,1.81-0.358
	c0.674,0.715,1.469,1.28,2.389,1.693c0.92,0.414,1.912,0.62,2.978,0.62c0.814,0,1.592-0.131,2.335-0.39
	c0.744-0.26,1.425-0.629,2.042-1.105c0.617-0.477,1.158-1.045,1.621-1.704C24.035,23.351,24.398,22.629,24.666,21.843z
	 M9.355,16.917c-0.74,0-1.34-0.6-1.34-1.34c0-0.74,0.6-1.34,1.34-1.34c0.74,0,1.34,0.6,1.34,1.34
	C10.695,16.317,10.095,16.917,9.355,16.917z M14.666,12.337c-0.74,0-1.34-0.6-1.34-1.34c0-0.74,0.6-1.34,1.34-1.34
	c0.74,0,1.34,0.6,1.34,1.34C16.005,11.737,15.406,12.337,14.666,12.337z M17.345,21.873c-0.74,0-1.34-0.6-1.34-1.34
	c0-0.74,0.6-1.34,1.34-1.34c0.74,0,1.34,0.6,1.34,1.34C18.685,21.274,18.085,21.873,17.345,21.873z M22.118,16.917
	c-0.74,0-1.34-0.6-1.34-1.34c0-0.74,0.6-1.34,1.34-1.34c0.74,0,1.34,0.6,1.34,1.34C23.458,16.317,22.858,16.917,22.118,16.917z"/>
<circle class="primary" cx="24.798" cy="2.122" r="1.34"/>
<circle class="primary" cx="6.676" cy="2.122" r="1.34"/>
<circle class="primary" cx="9.932" cy="28.549" r="1.34"/>
<circle class="primary" cx="24.798" cy="29.379" r="1.34"/>
<circle class="primary" cx="29.332" cy="5.557" r="2.668"/>
<circle class="primary" cx="2.668" cy="6.553" r="2.668"/>
<circle class="primary" cx="28.412" cy="24.542" r="2.668"/>
<circle class="primary" cx="3.586" cy="28.549" r="2.668"/>
</svg>
