<?xml version="1.0" encoding="utf-8"?>
<!-- Generator: Adobe Illustrator 21.1.0, SVG Export Plug-In . SVG Version: 6.00 Build 0)  -->
<svg version="1.0" id="Layer_1" xmlns="http://www.w3.org/2000/svg" xmlns:xlink="http://www.w3.org/1999/xlink" x="0px" y="0px"
	 viewBox="0 0 32 32" style="enable-background:new 0 0 32 32;" xml:space="preserve" width="32px" height="32px" fill="#333">
<style type="text/css">
	.primary{fill:#333333;}
</style>
<path class="primary" d="M29.384,15.039c0.036-4.145,0.405-7.868,0.902-11.074c-1.634,2.491-3.443,5.734-4.944,9.713
	c-2.02,5.353-2.779,10.169-3.056,13.751c0.564,0.026,1.104,0.042,1.63,0.054c0.303,0.008,0.611,0.012,0.919,0.017
	c0.038,0,0.077,0.001,0.115,0.001c0.388,0.006,0.772,0.014,1.169,0.015c1.442,0.003,2.832-0.029,4.167-0.087
	c-0.285-2.059-0.516-4.125-0.696-6.195C29.448,19.286,29.365,17.225,29.384,15.039z"/>
<rect x="2.857" y="28.571" class="primary" width="6.857px" height="3.429px"/>
<path class="primary" d="M3.543,22.126c1.917,1.189,3.96,2.163,6.091,2.903c-0.8-13.063-7.92-18.171-7.92-18.171
	C3.295,11.783,3.916,16.966,3.543,22.126z"/>
<path class="primary" d="M18.857,0c0,0-8.629,3.246-8.069,25.429c2.977,0.912,6.041,1.51,9.143,1.783
	C14.777,11.326,18.857,0,18.857,0z"/>
<rect x="22.286" y="28.571" class="primary" width="8px" height="3.429px"/>
<rect x="10.857" y="28.571" class="primary" width="9.143px" height="3.429px"/>
<path class="primary" d="M22.934,15.47c0.191-0.902,0.378-1.801,0.602-2.728c0.766-3.165,1.641-6.095,2.56-8.777
	c-1.35,0.943-3.151,2.469-4.667,4.789c-0.615,0.942-1.078,1.852-1.429,2.675c-1.714,7.2,1.143,15.886,1.143,15.886
	c0.279-3.157,0.745-6.618,1.465-10.303C22.713,16.497,22.819,15.982,22.934,15.47z"/>
</svg>