<?xml version="1.0" encoding="utf-8"?>
<!-- Generator: Adobe Illustrator 21.1.0, SVG Export Plug-In . SVG Version: 6.00 Build 0)  -->
<svg version="1.0" id="Layer_1" xmlns="http://www.w3.org/2000/svg" xmlns:xlink="http://www.w3.org/1999/xlink" x="0px" y="0px"
	 viewBox="0 0 32 32" style="enable-background:new 0 0 32 32;" xml:space="preserve" width="32px" height="32px" fill="#333">
<style type="text/css">
	.primary{fill:#333333;}
</style>
<g>
	<path class="primary" d="M29.02,7.061L32,4.081L27.919,0l-2.98,2.98L21.959,0l-2.98,2.98L16,0l-2.98,2.98L10.041,0l-2.98,2.98
		L4.081,0L0,4.081l2.98,2.98L0,10.041l2.98,2.98L0,16l2.98,2.98L0,21.959l2.98,2.98L0,27.919L4.081,32l2.98-2.98l2.98,2.98
		l2.98-2.98L16,32l2.98-2.98l2.98,2.98l2.98-2.98l2.98,2.98L32,27.919l-2.98-2.98l2.98-2.98l-2.98-2.98L32,16l-2.98-2.98l2.98-2.98
		L29.02,7.061z M8.893,24.698c-0.74,0-1.34-0.6-1.34-1.34c0-0.74,0.6-1.34,1.34-1.34c0.74,0,1.34,0.6,1.34,1.34
		C10.233,24.098,9.633,24.698,8.893,24.698z M8.893,17.34c-0.74,0-1.34-0.6-1.34-1.34c0-0.74,0.6-1.34,1.34-1.34
		c0.74,0,1.34,0.6,1.34,1.34C10.233,16.74,9.633,17.34,8.893,17.34z M8.893,9.981c-0.74,0-1.34-0.6-1.34-1.34
		c0-0.74,0.6-1.34,1.34-1.34c0.74,0,1.34,0.6,1.34,1.34C10.233,9.382,9.633,9.981,8.893,9.981z M16,24.698
		c-0.74,0-1.34-0.6-1.34-1.34c0-0.74,0.6-1.34,1.34-1.34s1.34,0.6,1.34,1.34C17.34,24.098,16.74,24.698,16,24.698z M16,17.34
		c-0.74,0-1.34-0.6-1.34-1.34c0-0.74,0.6-1.34,1.34-1.34s1.34,0.6,1.34,1.34C17.34,16.74,16.74,17.34,16,17.34z M16,9.981
		c-0.74,0-1.34-0.6-1.34-1.34c0-0.74,0.6-1.34,1.34-1.34s1.34,0.6,1.34,1.34C17.34,9.382,16.74,9.981,16,9.981z M23.107,24.698
		c-0.74,0-1.34-0.6-1.34-1.34c0-0.74,0.6-1.34,1.34-1.34c0.74,0,1.34,0.6,1.34,1.34C24.447,24.098,23.847,24.698,23.107,24.698z
		 M23.107,17.34c-0.74,0-1.34-0.6-1.34-1.34c0-0.74,0.6-1.34,1.34-1.34c0.74,0,1.34,0.6,1.34,1.34
		C24.447,16.74,23.847,17.34,23.107,17.34z M23.107,9.981c-0.74,0-1.34-0.6-1.34-1.34c0-0.74,0.6-1.34,1.34-1.34
		c0.74,0,1.34,0.6,1.34,1.34C24.447,9.382,23.847,9.981,23.107,9.981z"/>
</g>
</svg>