<?xml version="1.0" encoding="utf-8"?>
<!-- Generator: Adobe Illustrator 21.1.0, SVG Export Plug-In . SVG Version: 6.00 Build 0)  -->
<svg version="1.0" id="Layer_1" xmlns="http://www.w3.org/2000/svg" xmlns:xlink="http://www.w3.org/1999/xlink" x="0px" y="0px"
	 viewBox="0 0 32 32" style="enable-background:new 0 0 32 32;" xml:space="preserve" width="32px" height="32px" fill="#333">
<style type="text/css">
	.primary{fill:#21201F;}
	.secondary{fill:#A70101;}
	.tertiary{fill:#60BCE4;}
	.quaternary{fill:#FFFFFF;}
</style>
<path class="secondary" d="M16,31.138C13.915,28.758,4.859,18.077,4.859,12.301C4.859,5.833,9.857,0.571,16,0.571
	s11.141,5.262,11.141,11.729C27.141,18.078,18.085,28.758,16,31.138z"/>
<path class="primary" d="M16,1.143c5.827,0,10.569,5.006,10.569,11.158c0,4.793-6.983,13.838-10.569,17.976
	C12.414,26.139,5.431,17.095,5.431,12.301C5.431,6.149,10.173,1.143,16,1.143 M16,0C9.531,0,4.288,5.507,4.288,12.301S16,32,16,32
	s11.712-12.906,11.712-19.699C27.712,5.507,22.469,0,16,0L16,0z"/>
<path class="quaternary" d="M15.994,20.5c-0.843,0-1.646-0.162-2.388-0.481c-0.737-0.317-1.391-0.757-1.942-1.308
	c-0.55-0.55-0.989-1.203-1.308-1.942c-0.319-0.744-0.481-1.547-0.481-2.388c0-0.436,0.088-0.937,0.262-1.488
	c0.163-0.522,0.387-1.079,0.662-1.655c0.274-0.573,0.585-1.163,0.923-1.753c0.341-0.598,0.688-1.176,1.042-1.729
	c0.83-1.301,1.783-2.665,2.831-4.056l0.399-0.529l0.399,0.529c1.047,1.388,2.004,2.752,2.842,4.054
	c0.355,0.555,0.702,1.133,1.044,1.73c0.334,0.584,0.644,1.174,0.922,1.753c0.272,0.567,0.495,1.127,0.663,1.662
	c0.176,0.564,0.261,1.049,0.261,1.482c0,0.841-0.162,1.645-0.481,2.387c-0.316,0.737-0.759,1.391-1.314,1.943
	c-0.558,0.553-1.213,0.992-1.948,1.308C17.643,20.338,16.839,20.5,15.994,20.5z"/>
<path class="tertiary" d="M21.387,13.047c-0.159-0.508-0.37-1.04-0.637-1.595c-0.266-0.556-0.567-1.129-0.905-1.72
	c-0.337-0.591-0.68-1.161-1.029-1.708C17.982,6.73,17.042,5.389,15.994,4c-1.047,1.389-1.984,2.73-2.81,4.024
	c-0.349,0.547-0.692,1.117-1.029,1.708c-0.337,0.591-0.639,1.164-0.905,1.72c-0.266,0.555-0.479,1.085-0.637,1.589
	c-0.159,0.504-0.238,0.951-0.238,1.339c0,0.778,0.147,1.508,0.44,2.19c0.293,0.682,0.694,1.278,1.202,1.786
	c0.508,0.508,1.103,0.909,1.786,1.203c0.683,0.294,1.413,0.44,2.191,0.44c0.778,0,1.508-0.147,2.19-0.441
	c0.683-0.294,1.28-0.694,1.792-1.203c0.512-0.508,0.914-1.103,1.208-1.786c0.293-0.682,0.44-1.412,0.44-2.19
	C21.625,14,21.545,13.556,21.387,13.047z"/>
</svg>
