<?xml version="1.0" encoding="utf-8"?>
<!-- Generator: Adobe Illustrator 21.1.0, SVG Export Plug-In . SVG Version: 6.00 Build 0)  -->
<svg version="1.0" id="Layer_1" xmlns="http://www.w3.org/2000/svg" xmlns:xlink="http://www.w3.org/1999/xlink" x="0px" y="0px"
	 viewBox="0 0 32 32" style="enable-background:new 0 0 32 32;" xml:space="preserve" width="32px" height="32px" fill="#333">
<style type="text/css">
	.primary{fill:#333333;}
</style>
<path class="primary" d="M16,0C7.163,0,0,7.163,0,16s7.163,16,16,16s16-7.163,16-16S24.837,0,16,0z M7.994,18.667
	c-1.473,0-2.667-1.194-2.667-2.667s1.194-2.667,2.667-2.667c1.473,0,2.667,1.194,2.667,2.667S9.466,18.667,7.994,18.667z M16,18.667
	c-1.473,0-2.667-1.194-2.667-2.667s1.194-2.667,2.667-2.667c1.473,0,2.667,1.194,2.667,2.667S17.473,18.667,16,18.667z
	 M24.006,18.667c-1.473,0-2.667-1.194-2.667-2.667s1.194-2.667,2.667-2.667c1.473,0,2.667,1.194,2.667,2.667
	S25.479,18.667,24.006,18.667z"/>
</svg>
