<?xml version="1.0" encoding="utf-8"?>
<!-- Generator: Adobe Illustrator 21.1.0, SVG Export Plug-In . SVG Version: 6.00 Build 0)  -->
<svg version="1.0" id="Layer_1" xmlns="http://www.w3.org/2000/svg" xmlns:xlink="http://www.w3.org/1999/xlink" x="0px" y="0px"
	 viewBox="0 0 32 32" style="enable-background:new 0 0 32 32;" xml:space="preserve" width="32px" height="32px" fill="#333">
<style type="text/css">
	.primary{fill:#333333;}
</style>
<rect x="17.394" y="20.904" class="primary" width="6.5px" height="1.5px"/>
<path class="primary" d="M26.772,18.095c-0.317-1.016-0.741-2.08-1.273-3.191c-0.532-1.112-1.135-2.259-1.81-3.441
	c-0.675-1.182-1.361-2.322-2.058-3.416C19.963,5.46,18.084,2.778,15.988,0c-2.095,2.778-3.968,5.46-5.62,8.048
	C9.67,9.142,8.984,10.283,8.31,11.464c-0.675,1.182-1.277,2.329-1.81,3.441c-0.531,1.111-0.957,2.17-1.273,3.179
	c-0.317,1.008-0.476,1.901-0.476,2.678c0,1.556,0.293,3.016,0.881,4.38c0.557,1.297,1.316,2.433,2.261,3.414
	c0.128,0.13,0.252,0.252,0.371,0.365c0.125,0.118,0.251,0.234,0.38,0.345c0.113,0.098,0.219,0.188,0.315,0.265
	c0.188,0.15,0.382,0.294,0.579,0.432c2.243,1.538,4.493,1.915,5.799,2.006c0.216,0.012,0.43,0.031,0.65,0.031
	c1.556,0,3.016-0.293,4.379-0.882c1.366-0.588,2.56-1.389,3.585-2.405c1.023-1.015,1.829-2.205,2.416-3.571
	c0.586-1.365,0.881-2.825,0.881-4.38C27.248,20,27.089,19.111,26.772,18.095z M14.58,22.403h-2.5v2.5h-1.5v-2.5h-2.5v-1.5h2.5v-2.5
	h1.5v2.5h2.5V22.403z M24.53,24.352c-0.482,1.121-1.15,2.111-1.986,2.94c-0.841,0.834-1.84,1.503-2.97,1.99
	C18.471,29.758,17.265,30,15.988,30V3.363l0.001-0.001c1.428,1.966,2.754,3.897,3.955,5.76c0.669,1.05,1.345,2.172,2.008,3.333
	c0.646,1.131,1.232,2.245,1.743,3.313c0.487,1.017,0.88,2,1.168,2.923c0.256,0.819,0.385,1.517,0.386,2.071
	C25.249,22.034,25.007,23.242,24.53,24.352z"/>
</svg>
