<?xml version="1.0" encoding="utf-8"?>
<!-- Generator: Adobe Illustrator 21.1.0, SVG Export Plug-In . SVG Version: 6.00 Build 0)  -->
<svg version="1.0" id="Layer_1" xmlns="http://www.w3.org/2000/svg" xmlns:xlink="http://www.w3.org/1999/xlink" x="0px" y="0px"
	 viewBox="0 0 32 32" style="enable-background:new 0 0 32 32;" xml:space="preserve" width="32px" height="32px" fill="#333">
<style type="text/css">
	.primary{fill:#333333;}
</style>
<path class="primary" d="M8.1,22.877c1.633,2.815,4.638,4.549,7.892,4.555c0.002,0,0.005,0,0.007,0c0.002,0,0.005,0,0.007,0
	c3.254-0.006,6.26-1.741,7.892-4.555c2.534-4.368,1.047-9.963-3.321-12.496V2.289h1.143c0.631,0,1.143-0.512,1.143-1.143
	c0-0.631-0.512-1.143-1.143-1.143H16h-5.722c-0.631,0-1.143,0.512-1.143,1.143c0,0.631,0.512,1.143,1.143,1.143h1.143v8.091
	C7.053,12.914,5.567,18.509,8.1,22.877z M19.425,14.279c0,0.946-0.767,1.713-1.713,1.713c-0.946,0-1.713-0.767-1.713-1.713
	s0.767-1.713,1.713-1.713C18.659,12.567,19.425,13.334,19.425,14.279z M15.416,6.852c0.946,0,1.713,0.767,1.713,1.713
	c0,0.946-0.767,1.713-1.713,1.713c-0.946,0-1.713-0.767-1.713-1.713C13.703,7.619,14.47,6.852,15.416,6.852z M22.865,18.289
	c0,3.787-3.07,6.857-6.857,6.857c-0.003,0-0.005,0-0.007,0s-0.005,0-0.007,0c-3.787,0-6.857-3.07-6.857-6.857H22.865z"/>
<path class="primary" d="M26.903,21.711c-1.892,6.021-8.308,9.369-14.329,7.477c-3.565-1.12-6.356-3.912-7.477-7.477H0v10.286h32
	V21.711H26.903z"/>
</svg>
