<?xml version="1.0" encoding="utf-8"?>
<!-- Generator: Adobe Illustrator 21.1.0, SVG Export Plug-In . SVG Version: 6.00 Build 0)  -->
<svg version="1.0" id="Layer_1" xmlns="http://www.w3.org/2000/svg" xmlns:xlink="http://www.w3.org/1999/xlink" x="0px" y="0px"
	 viewBox="0 0 32 32" style="enable-background:new 0 0 32 32;" xml:space="preserve" width="32px" height="32px" fill="#333">
<style type="text/css">
	.primary{fill:#333333;}
</style>
<path class="primary" d="M26.773,18.095c-0.317-1.016-0.741-2.08-1.273-3.191c-0.532-1.112-1.135-2.259-1.81-3.441
	c-0.675-1.182-1.361-2.322-2.058-3.416C19.964,5.46,18.085,2.778,15.989,0c-2.095,2.778-3.968,5.46-5.62,8.048
	c-0.698,1.094-1.384,2.235-2.058,3.416c-0.675,1.182-1.277,2.329-1.81,3.441c-0.531,1.111-0.957,2.17-1.273,3.179
	c-0.317,1.008-0.476,1.901-0.476,2.678c0,1.556,0.293,3.016,0.881,4.38c0.586,1.365,1.389,2.556,2.404,3.571
	c1.016,1.016,2.206,1.818,3.571,2.405C12.973,31.707,14.433,32,15.989,32c1.556,0,3.016-0.293,4.379-0.882
	c1.366-0.588,2.56-1.389,3.585-2.405c1.023-1.015,1.829-2.205,2.416-3.571c0.586-1.365,0.881-2.825,0.881-4.38
	C27.249,20,27.09,19.111,26.773,18.095z"/>
</svg>
