<?xml version="1.0" encoding="utf-8"?>
<!-- Generator: Adobe Illustrator 21.1.0, SVG Export Plug-In . SVG Version: 6.00 Build 0)  -->
<svg version="1.0" id="Layer_1" xmlns="http://www.w3.org/2000/svg" xmlns:xlink="http://www.w3.org/1999/xlink" x="0px" y="0px"
	 viewBox="0 0 32 32" style="enable-background:new 0 0 32 32;" xml:space="preserve" width="32px" height="32px" fill="#333">
<style type="text/css">
	.primary{fill:#333333;}
</style>
<path class="primary" d="M8.64,21.606c-0.283-0.283-0.613-0.508-0.992-0.675c-0.377-0.167-0.777-0.25-1.199-0.25
	s-0.824,0.083-1.209,0.25c-0.383,0.167-0.713,0.391-0.99,0.675c-0.279,0.283-0.5,0.617-0.668,1c-0.166,0.384-0.25,0.792-0.25,1.225
	c0,0.422,0.084,0.823,0.25,1.2c0.168,0.378,0.389,0.705,0.668,0.983c0.277,0.278,0.607,0.497,0.99,0.658
	c0.385,0.161,0.787,0.242,1.209,0.242c0.434,0,0.836-0.081,1.209-0.242c0.371-0.16,0.699-0.381,0.982-0.658
	c0.283-0.277,0.508-0.605,0.676-0.983c0.166-0.377,0.25-0.778,0.25-1.2c0-0.444-0.084-0.856-0.25-1.233
	C9.148,22.22,8.923,21.889,8.64,21.606z"/>
<path class="primary" d="M27.125,21.606c-0.283-0.283-0.615-0.508-0.992-0.675c-0.379-0.167-0.783-0.25-1.217-0.25
	s-0.84,0.083-1.217,0.25s-0.709,0.391-0.992,0.675c-0.283,0.283-0.508,0.617-0.674,1c-0.168,0.384-0.25,0.792-0.25,1.225
	c0,0.422,0.082,0.823,0.25,1.2c0.166,0.378,0.391,0.705,0.674,0.983s0.615,0.497,0.992,0.658s0.783,0.242,1.217,0.242
	c0.444,0,0.854-0.081,1.225-0.242c0.373-0.16,0.701-0.381,0.984-0.658c0.283-0.277,0.504-0.605,0.666-0.983
	c0.16-0.377,0.242-0.778,0.242-1.2c0-0.444-0.082-0.856-0.242-1.233C27.629,22.22,27.408,21.889,27.125,21.606z"/>
<path class="primary" d="M30.666,21.481L30.666,21.481l-0.001-4.183l1.334,0.033c-0.467-0.433-0.965-0.767-1.492-1
	c-0.528-0.233-1.02-0.406-1.475-0.517c-0.533-0.133-1.063-0.216-1.584-0.25l-1.334-4.283c-0.365-0.411-0.75-0.775-1.148-1.092
	c-0.4-0.316-0.801-0.594-1.201-0.833c-0.4-0.239-0.796-0.445-1.191-0.617c-0.395-0.172-0.77-0.314-1.125-0.425
	C20.627,8.047,19.811,7.875,19,7.797v13.117H9.949c0.334,0.4,0.594,0.844,0.777,1.333c0.183,0.489,0.275,1.017,0.275,1.583
	c0,0.19-0.006,0.375-0.018,0.559c-0.012,0.184-0.045,0.364-0.1,0.542h9.619c-0.056-0.178-0.096-0.359-0.117-0.542
	c-0.023-0.184-0.033-0.37-0.033-0.559c0-0.633,0.119-1.227,0.357-1.783c0.241-0.555,0.565-1.041,0.977-1.458
	c0.41-0.417,0.892-0.744,1.449-0.983c0.554-0.238,1.151-0.358,1.783-0.358s1.224,0.119,1.775,0.358
	c0.548,0.239,1.029,0.566,1.441,0.983c0.411,0.416,0.737,0.903,0.975,1.458c0.238,0.555,0.359,1.15,0.359,1.783
	c0,0.19-0.006,0.375-0.018,0.559c-0.012,0.184-0.045,0.364-0.1,0.542H32v-3.45H30.666z M23.949,15.58
	c-0.479-0.033-0.965-0.117-1.459-0.25c-0.494-0.133-0.908-0.361-1.24-0.683c-0.067-0.055-0.121-0.141-0.158-0.259
	c-0.04-0.117-0.073-0.247-0.102-0.392c-0.027-0.144-0.048-0.303-0.066-0.475c-0.016-0.172-0.029-0.341-0.041-0.508
	c-0.033-0.4-0.051-0.827-0.051-1.283h3.783l1.068,3.833C25.082,15.619,24.504,15.625,23.949,15.58z"/>
<path class="primary" d="M17.597,12.758c0-6.81-1.432-6.81-1.432-6.81H1.432c0,0-1.432,0-1.432,6.81s1.432,6.81,1.432,6.81h14.734
	C16.165,19.569,17.597,19.569,17.597,12.758z M2.431,7.948h12.735c0.182,0.645,0.431,2.034,0.431,4.81
	c0,0.479-0.01,0.903-0.023,1.303c-1.403-0.243-2.567-1.176-3.132-2.44c-0.66,1.475-2.134,2.507-3.854,2.507
	c-1.721,0-3.195-1.032-3.854-2.507c-0.508,1.136-1.5,2.003-2.714,2.345C2.008,13.593,2,13.199,2,12.758
	C2,9.982,2.248,8.594,2.431,7.948z"/>
<path class="primary" d="M8.588,13.164c0.899,0,1.628-0.729,1.628-1.628c0-0.899-1.628-2.979-1.628-2.979s-1.628,2.08-1.628,2.979
	C6.96,12.435,7.689,13.164,8.588,13.164z"/>
</svg>
