<?xml version="1.0" encoding="utf-8"?>
<!-- Generator: Adobe Illustrator 21.1.0, SVG Export Plug-In . SVG Version: 6.00 Build 0)  -->
<svg version="1.0" id="Layer_1" xmlns="http://www.w3.org/2000/svg" xmlns:xlink="http://www.w3.org/1999/xlink" x="0px" y="0px"
	 viewBox="0 0 32 32" style="enable-background:new 0 0 32 32;" xml:space="preserve" width="32px" height="32px" fill="#333">
<style type="text/css">
	.primary{fill:#333333;}
</style>
<polygon class="primary" points="9.576,8.568 9.574,8.572 9.573,8.576 "/>
<path class="primary" d="M17.411,16.676c-0.115-0.268-0.275-0.546-0.464-0.821l-0.026-9.48c0.188-0.276,0.346-0.554,0.46-0.823
	c0.551-1.306,0.001-2.053-0.261-2.313c-0.32-0.318-0.763-0.492-1.249-0.491h0c-0.35,0.001-0.694,0.088-1.017,0.222
	c-0.278-0.963-1.193-1.672-2.287-1.669c-0.099,0-0.193,0.017-0.288,0.029c-0.376-0.785-1.201-1.331-2.163-1.328
	C9.092,0.004,8.23,0.627,7.897,1.494C7.611,1.379,7.298,1.316,6.969,1.317C5.803,1.32,4.84,2.127,4.641,3.187
	C4.21,2.956,3.729,2.782,3.235,2.783h0C2.749,2.785,2.306,2.962,1.989,3.281C1.728,3.543,1.183,4.293,1.74,5.596
	c0.116,0.27,0.277,0.549,0.468,0.826l0.026,9.469c-0.19,0.278-0.349,0.558-0.464,0.829c-0.551,1.306-0.001,2.053,0.261,2.313
	c0.32,0.318,0.763,0.492,1.249,0.491c0.682-0.002,1.341-0.331,1.869-0.695l8.893-0.025c0.53,0.362,1.191,0.687,1.873,0.685
	c0.486-0.001,0.928-0.178,1.246-0.498C17.423,18.729,17.969,17.979,17.411,16.676z M16.276,18.109
	c-0.087,0.087-0.211,0.129-0.363,0.129c-0.375,0.001-0.916-0.254-1.461-0.686l-1.776,0.005l-6.166,0.017l-1.776,0.005
	c-0.542,0.435-1.082,0.693-1.457,0.694c-0.152,0-0.277-0.04-0.364-0.127c-0.305-0.303-0.046-1.073,0.572-1.844l-0.005-1.77
	L3.462,7.773l-0.005-1.77C2.835,5.235,2.572,4.468,2.875,4.163c0.087-0.087,0.211-0.129,0.363-0.129
	C3.619,4.032,4.17,4.296,4.723,4.74l1.768-0.005l6.134-0.017l1.768-0.005c0.55-0.447,1.099-0.714,1.48-0.715
	c0.152,0,0.277,0.04,0.364,0.127c0.305,0.303,0.047,1.069-0.569,1.84l0.005,1.772l0.019,6.765l0.005,1.772
	C16.317,17.04,16.579,17.805,16.276,18.109z"/>
<path class="primary" d="M6.921,9.584c-0.469,1.17-0.18,2.45,0.625,3.316c-0.445,0.462-0.887,0.888-1.309,1.246
	c0.353,0.36,0.706,0.719,1.059,1.079c0.362-0.49,0.741-1.053,1.118-1.675c0.001,0,0.001,0.001,0.002,0.001
	c0-0.002,0.001-0.004,0.001-0.005c0.249-0.411,0.497-0.842,0.738-1.31c0.692-1.344,1.161-2.596,1.485-3.662
	c0-0.001,0.001-0.003,0.001-0.005c0.001-0.001,0.001-0.002,0.002-0.003c-0.001,0.003-0.002,0.006-0.003,0.008
	c-0.104,0.83-0.281,1.795-0.585,2.849c-0.264,0.915-0.572,1.716-0.88,2.409c1.481,0.327,3.023-0.445,3.605-1.899
	c0.648-1.618-1.128-5.509-1.128-5.509S7.57,7.966,6.921,9.584z"/>
<path class="primary" d="M30.619,21.481L30.619,21.481l-0.001-4.183l1.334,0.033c-0.467-0.433-0.965-0.767-1.492-1
	c-0.528-0.233-1.02-0.406-1.475-0.517c-0.533-0.133-1.063-0.216-1.584-0.25l-1.334-4.283c-0.365-0.411-0.75-0.775-1.148-1.092
	c-0.4-0.316-0.801-0.594-1.201-0.833c-0.4-0.239-0.796-0.445-1.191-0.617c-0.395-0.172-0.77-0.314-1.125-0.425
	c-0.822-0.267-1.638-0.439-2.449-0.517v13.117H9.897c0.65,0.787,1.057,1.783,1.057,2.883c0,0.394-0.066,0.769-0.16,1.133h8.909
	h0.752h0.016c-0.094-0.364-0.16-0.74-0.16-1.133c0-2.513,2.037-4.549,4.549-4.549s4.549,2.037,4.549,4.549
	c0,0.394-0.066,0.769-0.16,1.133h0.052h0.775h1.875v-3.45H30.619z M23.902,15.58c-0.479-0.033-0.965-0.117-1.459-0.25
	c-0.494-0.133-0.908-0.361-1.24-0.683c-0.067-0.055-0.121-0.141-0.158-0.259c-0.04-0.117-0.073-0.247-0.102-0.392
	c-0.027-0.144-0.048-0.303-0.066-0.475c-0.016-0.172-0.029-0.341-0.041-0.508c-0.033-0.4-0.051-0.827-0.051-1.283h3.783l1.068,3.833
	C25.035,15.619,24.457,15.625,23.902,15.58z"/>
<circle class="primary" cx="6.4" cy="23.797" r="3.117"/>
<circle class="primary" cx="24.859" cy="23.797" r="3.117"/>
</svg>
