<?xml version="1.0" encoding="utf-8"?>
<!-- Generator: Adobe Illustrator 21.1.0, SVG Export Plug-In . SVG Version: 6.00 Build 0)  -->
<svg version="1.0" id="Layer_1" xmlns="http://www.w3.org/2000/svg" xmlns:xlink="http://www.w3.org/1999/xlink" x="0px" y="0px"
	 viewBox="0 0 32 32" style="enable-background:new 0 0 32 32;" xml:space="preserve" width="32px" height="32px" fill="#333">
<style type="text/css">
	.primary{fill:#333333;}
</style>
<circle class="primary" cx="16" cy="13.111" r="3.416"/>
<rect x="14.69" y="3.623" transform="matrix(0.185 -0.9827 0.9827 0.185 9.6117 21.1655)" class="primary" width="5.753px" height="2.33px"/>
<rect x="10.057" y="3.242" transform="matrix(0.8257 -0.5641 0.5641 0.8257 -1.4953 7.3973)" class="primary" width="2.33px" height="5.753px"/>
<rect x="6.512" y="8.668" transform="matrix(0.1849 -0.9827 0.9827 0.1849 -5.0881 16.954)" class="primary" width="2.33px" height="5.753px"/>
<rect x="6.131" y="16.723" transform="matrix(0.8257 -0.5641 0.5641 0.8257 -8.5214 8.1998)" class="primary" width="5.753px" height="2.33px"/>
<rect x="11.557" y="20.268" transform="matrix(0.185 -0.9827 0.9827 0.185 -9.2997 31.6538)" class="primary" width="5.753px" height="2.33px"/>
<rect x="19.612" y="17.227" transform="matrix(0.8257 -0.5641 0.5641 0.8257 -7.7191 15.2257)" class="primary" width="2.33px" height="5.753px"/>
<rect x="23.157" y="11.801" transform="matrix(0.1849 -0.9827 0.9827 0.1849 5.4003 35.8655)" class="primary" width="2.33px" height="5.753px"/>
<rect x="20.116" y="7.168" transform="matrix(0.8257 -0.5641 0.5641 0.8257 -0.693 14.4238)" class="primary" width="5.753px" height="2.33px"/>
<path class="primary" d="M30.378,6.128l-1.989,1.143c1.767,3.693,1.767,7.987,0,11.68l1.989,1.143
	C32.541,15.69,32.541,10.532,30.378,6.128z"/>
<path class="primary" d="M10.285,24.54c0.631,1.86,1.093,3.772,1.383,5.714h3.189C13.744,28.054,12.188,26.108,10.285,24.54z"/>
<path class="primary" d="M17.143,24.54c0.631,1.86,1.093,3.772,1.383,5.714h3.189C20.602,28.054,19.045,26.108,17.143,24.54z"/>
<path class="primary" d="M24,24.54c0.631,1.86,1.093,3.772,1.383,5.714h3.189C27.459,28.054,25.902,26.108,24,24.54z"/>
<path class="primary" d="M3.428,24.54c0.631,1.86,1.093,3.772,1.383,5.714H8C6.887,28.054,5.33,26.108,3.428,24.54z"/>
<path class="primary" d="M3.611,7.271L1.622,6.128c-2.163,4.404-2.163,9.562,0,13.966l1.989-1.143
	C1.844,15.258,1.844,10.964,3.611,7.271z"/>
</svg>
