<?xml version="1.0" encoding="UTF-8" standalone="no"?>
<svg width="32px" height="32px" viewBox="0 0 32 32" version="1.1" xmlns="http://www.w3.org/2000/svg" xmlns:xlink="http://www.w3.org/1999/xlink" fill="#333">
    <style type="text/css">
    	.primary{fill:#333;}
    </style>
    <path d="M21.953,23.708 C21.953,23.262 21.096,22.649 20.248,22.773 C19.879,22.827 19.562,22.979 19.32,23.182 C18.968,22.043 17.918,21.215 16.66,21.158 L16.659,19.314 L18.265,17.709 C18.593,17.858 18.904,17.972 19.177,18.002 C19.591,18.049 19.95,18 20.255,17.861 C20.556,17.718 20.812,17.502 21.023,17.211 C21.234,16.924 21.4,16.607 21.527,16.258 C21.836,15.442 22,14.401 22.025,13.142 L22.023,13.141 C20.765,13.166 19.724,13.33 18.906,13.639 C18.556,13.765 18.242,13.932 17.953,14.142 C17.664,14.352 17.447,14.61 17.305,14.91 C17.166,15.216 17.117,15.575 17.162,15.989 C17.193,16.26 17.305,16.568 17.453,16.893 L16.66,17.674 L16.659,13.499 C16.989,13.374 17.282,13.236 17.492,13.067 C17.816,12.807 18.037,12.519 18.154,12.205 C18.265,11.892 18.295,11.557 18.238,11.203 C18.183,10.85 18.078,10.51 17.92,10.173 C17.561,9.377 16.94,8.526 16.068,7.617 L16.067,7.617 C15.195,8.525 14.575,9.377 14.215,10.173 C14.057,10.51 13.951,10.851 13.897,11.203 C13.84,11.557 13.869,11.891 13.98,12.205 C14.098,12.519 14.317,12.808 14.643,13.067 C14.866,13.246 15.181,13.39 15.538,13.519 L15.538,19.402 L14.547,18.425 C14.695,18.1 14.807,17.791 14.837,17.52 C14.882,17.106 14.833,16.747 14.694,16.442 C14.551,16.141 14.335,15.883 14.046,15.674 C13.757,15.463 13.442,15.297 13.093,15.17 C12.883,15.091 12.657,15.022 12.418,14.962 C11.735,14.783 10.93,14.687 9.998,14.669 L9.994,14.673 C9.994,14.673 9.982,14.672 9.975,14.672 L9.975,14.673 L9.975,14.691 L9.975,14.691 C9.987,15.302 10.033,15.86 10.113,16.365 C10.196,16.897 10.315,17.374 10.471,17.79 C10.598,18.141 10.764,18.456 10.975,18.744 C11.186,19.034 11.442,19.251 11.743,19.393 C12.05,19.532 12.407,19.581 12.821,19.534 C13.094,19.505 13.406,19.391 13.734,19.241 L15.538,21.043 L15.538,21.321 C14.526,21.679 13.781,22.563 13.634,23.633 C13.387,23.418 12.689,23.095 11.857,23.095 C10.82,23.095 9.976,23.8 9.976,23.8 L9.976,23.8 L9.976,26.733 C10.992,27.199 12.687,27.765 16.001,27.765 C19.151,27.765 21.108,27.25 21.959,26.869 C21.959,26.869 21.953,23.722 21.953,23.708 L21.953,23.708 Z" class="primary"/>
    <path d="M21.012,4.715 L21.012,2.749 L21.012,1.251 L21.012,0.714 C19.692,0.43 18.061,0.24 16.012,0.24 C13.978,0.24 12.336,0.428 11.019,0.712 L11.018,1.023 L11.012,1.023 L11.012,4.713 C7.041,5.566 6.01,7.281 6.01,7.281 L6.01,28.721 C6.01,28.721 7.834,31.761 15.999,31.761 C24.197,31.761 25.99,28.721 25.99,28.721 L25.99,7.281 C25.99,7.281 24.98,5.569 21.012,4.715 L21.012,4.715 Z M23.992,13.848 L23.992,27.986 C23.324,28.546 21.041,29.763 16,29.763 C10.92,29.763 8.851,28.502 8.008,27.874 L8.008,14.551 L8.008,8.128 C8.66,7.642 10.056,6.778 13.008,6.412 L13.008,2.413 C13.871,2.306 14.859,2.238 16.011,2.238 C17.154,2.238 18.142,2.303 19.015,2.407 L19.015,6.408 C21.988,6.761 23.474,7.584 23.992,8.016 L23.992,13.848 L23.992,13.848 Z" class="primary"/>
</svg>
