<?xml version="1.0" encoding="UTF-8" standalone="no"?>
<svg width="32px" height="32px" viewBox="0 0 32 32" version="1.1" xmlns="http://www.w3.org/2000/svg" xmlns:xlink="http://www.w3.org/1999/xlink" fill="#333">
    <path d="M25.9900395,5.22029581 L21.6406662,5.22029581 C20.4070533,2.89162588 18.643668,0 16.6788528,0 C13.7819874,0 11.3188368,3.98318991 10.3611712,9.76818819 C7.87065876,9.45847509 3.637719,10.2147106 1.5,16.5952663 L9.93036731,15.0309822 C9.93269598,16.5254062 10.0322466,17.9488056 10.2121364,19.3122419 C10.2808321,19.990467 10.3844579,20.6937253 10.5451362,21.4097913 L10.4420925,21.4033875 C11.3345553,25.6992013 12.7399076,28.9034512 15.0685775,29.8733422 L15.0685775,32 L17.3972474,32 L17.3972474,29.7208143 C19.7259174,28.5209671 22.1978005,25.5961577 22.9790693,20.9388178 L22.9854731,20.9388178 C22.9854731,20.9388178 22.9819801,20.6494806 22.9802336,20.6477341 C23.0675587,20.129605 25.2332218,10.5389779 25.2332218,10.5389779 C28.946286,12.5200939 30.1286681,18.8738698 30.1286681,18.8738698 C31.233622,8.0868885 25.9900395,5.22029581 25.9900395,5.22029581 L25.9900395,5.22029581 Z M11.8253225,9.98359015 C12.650836,5.7826696 14.5114432,2.84854549 16.6782706,2.84854549 C19.6106482,2.84854549 21.9882202,8.21438318 21.9882202,14.8336274 C21.9882202,16.1132316 21.8974021,17.3439336 21.7326487,18.4995361 C19.9669347,15.8727964 16.7015573,11.5694144 11.8253225,9.98359015 L11.8253225,9.98359015 Z" id="primary"/>
</svg>
