<?xml version="1.0" encoding="utf-8"?>
<!-- Generator: Adobe Illustrator 18.0.0, SVG Export Plug-In . SVG Version: 6.00 Build 0)  -->
<!DOCTYPE svg PUBLIC "-//W3C//DTD SVG 1.1//EN" "http://www.w3.org/Graphics/SVG/1.1/DTD/svg11.dtd">
<svg version="1.1" id="Layer_1" xmlns="http://www.w3.org/2000/svg" xmlns:xlink="http://www.w3.org/1999/xlink" x="0px" y="0px" viewBox="0 0 32 32" style="enable-background:new 0 0 32 32;" xml:space="preserve" width="32px" height="32px" fill="#333">
<g id="Crop_1_">
	<path d="M31.216,0.928c-7.564,0.093-13.894,1.064-18.815,2.886c-2.09,0.753-4.056,1.783-5.844,3.062
		c-1.786,1.277-3.144,2.888-4.036,4.791c-0.879,1.911-1.181,4.189-0.896,6.77c0.139,1.248,0.504,2.648,1.086,4.165l0.102,0.254
		c-0.188,0.186-0.373,0.372-0.562,0.557l-1.98,1.991c0.346,0.228,1.505,1.015,2.192,1.839c0.981,1.175,1.231,2.244,1.233,2.255
		l0.043,0.189l0.099-0.149c0.871-1.304,2.201-3.022,3.156-4.265c1.514-1.914,3.076-3.76,4.643-5.484
		c1.653-1.813,3.202-3.428,4.734-4.935c1.084-1.057,2.127-1.991,3.137-2.894c0.447-0.4,0.879-0.787,1.289-1.162
		c1.297-1.192,5.115-4.136,5.158-4.168c0.498-0.371,1.938-1.547,1.938-1.547s-1.26,0.657-1.672,0.891
		c-0.467,0.265-4.605,2.629-6.125,3.604c-1.598,1.019-3.395,2.338-5.04,3.465c-1.773,1.228-3.583,2.56-5.534,4.071
		c-1.37,1.067-2.787,2.239-4.309,3.562l-0.091-0.254c-0.265-0.842-0.438-1.619-0.516-2.314c-0.225-2.032-0.01-3.775,0.637-5.181
		c0.676-1.44,1.677-2.621,3.06-3.609c1.562-1.118,3.283-2.02,5.119-2.681c4.04-1.496,9.159-2.383,15.22-2.637
		c-0.275,6.057-1.178,11.169-2.684,15.199c-0.678,1.85-1.588,3.572-2.707,5.119c-0.99,1.378-2.178,2.376-3.627,3.052
		c-1.031,0.469-2.248,0.707-3.617,0.707c-0.497,0-1.021-0.031-1.556-0.092c-1.539-0.177-3.341-0.769-5.347-1.755l-0.376-0.203
		l-0.337,0.45c-0.272,0.354-0.534,0.719-0.817,1.113l-0.649,0.9l0.523,0.263c2.452,1.241,4.693,1.985,6.663,2.211
		c0.65,0.074,1.289,0.112,1.897,0.112c1.801,0,3.44-0.331,4.877-0.985c1.903-0.885,3.52-2.236,4.803-4.018
		c1.282-1.778,2.319-3.74,3.082-5.827c1.839-4.922,2.832-11.25,2.951-18.809l0.008-0.514L31.216,0.928z"/>
</g>
</svg>
