<?xml version="1.0" encoding="UTF-8" standalone="no"?>
<svg width="32px" height="32px" viewBox="0 0 32 32" version="1.1" xmlns="http://www.w3.org/2000/svg" xmlns:xlink="http://www.w3.org/1999/xlink" fill="#333">
    <style type="text/css">
    	.primary{fill:#333;}
    </style>
    <path d="M25.678,23.771 C25.82,23.972 25.952,24.184 26.076,24.408 C26.2,24.633 26.304,24.857 26.386,25.081 C26.529,25.518 26.611,25.925 26.634,26.303 C26.657,26.976 26.446,27.543 25.997,28.003 C25.854,28.145 25.651,28.283 25.386,28.419 C25.121,28.555 24.781,28.623 24.367,28.623 C23.919,28.623 23.464,28.532 23.004,28.349 C22.544,28.166 22.13,27.939 21.765,27.667 L9.917,27.667 C9.552,27.927 9.141,28.151 8.687,28.34 C8.233,28.529 7.775,28.623 7.315,28.623 C6.902,28.623 6.562,28.555 6.296,28.419 C6.03,28.283 5.827,28.145 5.686,28.003 C5.461,27.779 5.299,27.522 5.199,27.232 C5.098,26.943 5.049,26.639 5.049,26.32 C5.061,26.132 5.081,25.937 5.111,25.736 C5.14,25.536 5.203,25.329 5.298,25.116 C5.392,24.892 5.492,24.667 5.599,24.443 C5.706,24.219 5.829,24.006 5.971,23.805 L5.971,11.004 C5.7,10.59 5.475,10.148 5.298,9.676 C5.203,9.463 5.141,9.257 5.111,9.056 C5.08,8.855 5.06,8.66 5.048,8.471 C5.048,8.141 5.098,7.834 5.198,7.551 C5.299,7.267 5.461,7.02 5.686,6.807 C5.828,6.654 6.031,6.506 6.296,6.365 C6.561,6.224 6.901,6.152 7.315,6.152 C7.633,6.152 7.959,6.203 8.289,6.303 C8.62,6.403 8.927,6.531 9.21,6.683 C9.293,6.317 9.432,5.984 9.626,5.683 C9.821,5.382 10.057,5.12 10.335,4.895 C10.612,4.671 10.925,4.497 11.273,4.373 C11.621,4.249 11.99,4.187 12.379,4.187 C12.592,4.187 12.798,4.205 12.999,4.24 C13.199,4.275 13.395,4.328 13.583,4.399 C13.701,4.116 13.86,3.853 14.062,3.611 C14.262,3.369 14.496,3.159 14.761,2.983 C15.027,2.806 15.31,2.67 15.611,2.576 C15.913,2.481 16.228,2.434 16.558,2.434 C17.184,2.434 17.756,2.597 18.276,2.921 C18.796,3.245 19.185,3.668 19.445,4.187 C19.505,4.175 19.566,4.172 19.632,4.178 C19.696,4.184 19.758,4.187 19.818,4.187 C20.184,4.187 20.532,4.243 20.863,4.355 C21.193,4.467 21.494,4.624 21.766,4.824 C22.037,5.025 22.273,5.267 22.474,5.55 C22.674,5.834 22.822,6.141 22.916,6.471 C23.152,6.377 23.392,6.3 23.634,6.241 C23.875,6.182 24.12,6.152 24.368,6.152 C24.781,6.152 25.121,6.223 25.387,6.365 C25.653,6.507 25.856,6.654 25.998,6.807 C26.222,7.032 26.387,7.286 26.493,7.569 C26.599,7.852 26.646,8.159 26.635,8.49 C26.623,8.868 26.54,9.275 26.387,9.712 C26.293,9.948 26.187,10.178 26.069,10.402 C25.951,10.627 25.821,10.839 25.679,11.04 L25.679,23.771 L25.678,23.771 Z M24.828,26.817 C24.934,26.711 24.984,26.551 24.978,26.338 C24.972,26.126 24.924,25.899 24.836,25.656 C24.747,25.414 24.629,25.178 24.482,24.948 C24.335,24.718 24.178,24.52 24.013,24.355 L24.013,10.437 C24.178,10.272 24.334,10.074 24.482,9.844 C24.629,9.614 24.748,9.378 24.836,9.136 C24.924,8.894 24.972,8.67 24.978,8.463 C24.984,8.257 24.934,8.094 24.828,7.976 C24.722,7.87 24.568,7.817 24.367,7.817 C24.214,7.817 24.046,7.843 23.862,7.897 C23.679,7.95 23.497,8.021 23.313,8.109 C23.13,8.197 22.957,8.301 22.791,8.419 C22.626,8.537 22.479,8.655 22.349,8.773 L9.333,8.773 C9.215,8.655 9.07,8.537 8.899,8.418 C8.728,8.3 8.551,8.197 8.368,8.108 C8.185,8.02 8.002,7.949 7.819,7.896 C7.635,7.843 7.467,7.816 7.314,7.816 C7.113,7.816 6.965,7.869 6.872,7.975 C6.754,8.082 6.697,8.238 6.703,8.445 C6.709,8.652 6.754,8.876 6.836,9.118 C6.919,9.36 7.034,9.594 7.182,9.818 C7.33,10.042 7.48,10.237 7.633,10.402 L7.633,24.374 C7.48,24.54 7.329,24.74 7.182,24.976 C7.035,25.212 6.919,25.448 6.836,25.684 C6.754,25.92 6.706,26.142 6.694,26.348 C6.682,26.554 6.741,26.711 6.872,26.817 C6.966,26.911 7.113,26.964 7.314,26.976 C7.467,26.976 7.635,26.947 7.819,26.888 C8.002,26.829 8.184,26.755 8.368,26.666 C8.551,26.578 8.724,26.475 8.89,26.356 C9.067,26.25 9.214,26.132 9.332,26.002 L22.348,26.002 C22.466,26.12 22.611,26.238 22.782,26.356 C22.953,26.474 23.131,26.577 23.313,26.666 C23.497,26.755 23.679,26.829 23.862,26.888 C24.046,26.947 24.214,26.976 24.367,26.976 C24.557,26.965 24.71,26.912 24.828,26.817 L24.828,26.817 Z M18.647,11.057 C19.591,13.029 20.14,14.765 20.294,16.264 C20.364,16.901 20.35,17.524 20.249,18.132 C20.148,18.74 19.916,19.271 19.55,19.726 C19.184,20.181 18.658,20.532 17.974,20.78 C17.289,21.028 16.392,21.111 15.283,21.028 C15.661,20.202 16.036,19.198 16.407,18.018 C16.779,16.838 17.071,15.474 17.284,13.928 C17.224,14.093 17.128,14.356 16.992,14.716 C16.856,15.076 16.69,15.495 16.496,15.973 C16.302,16.452 16.074,16.983 15.814,17.567 C15.554,18.151 15.268,18.748 14.955,19.356 C14.643,19.964 14.303,20.569 13.937,21.171 C13.559,21.773 13.169,22.334 12.768,22.853 L11.351,21.401 C11.67,21.142 11.983,20.87 12.289,20.587 C12.597,20.304 12.892,20.003 13.175,19.684 C12.572,19.023 12.189,18.392 12.024,17.789 C11.859,17.186 11.85,16.62 11.998,16.089 C12.146,15.558 12.408,15.062 12.786,14.602 C13.176,14.153 13.618,13.74 14.114,13.362 C15.271,12.485 16.782,11.718 18.647,11.057 L18.647,11.057 Z" class="primary"/>
</svg>
