<svg version="1.1" id="Layer_1" xmlns="http://www.w3.org/2000/svg" xmlns:xlink="http://www.w3.org/1999/xlink" x="0px" y="0px" viewBox="0 0 32 32" style="enable-background:new 0 0 32 32;" xml:space="preserve" width="32px" height="32px" fill="#333">
  <style type="text/css">
    .primary {
      fill:#333333;
    }
  </style>
  <path class="primary" d="M6,30l-4-4c0,0,1.4-2.1,4-5c-1.8-4.4-1.5-9.4,2-13c4.6-4.8,9-6,22-6c0.1,6.3,0,11.2-0.9,15.1
	c-0.5-0.5-1.2-0.9-1.8-1.2C27.9,13,28,9.3,28,4c-8,0-13.3,0.2-17,4c-2.6,2.7-4,6.6-3,10c4.4-4.5,9-9.4,17-13C25,5,13.7,13.6,6,30z
	 M12,23c0,0-1.4,1.8-2,3c1.9,1.4,4.2,2.2,6.5,2.3c-0.7-1.1-1.2-2.3-1.4-3.7C13.5,24,12,23,12,23z M31,23.5c0,4.1-3.3,7.5-7.5,7.5
	S16,27.6,16,23.5s3.3-7.5,7.5-7.5S31,19.4,31,23.5z M24,28c0-0.6-0.4-1-1-1s-1,0.4-1,1s0.4,1,1,1S24,28.6,24,28z M27,21
	c0-1.9-1.6-3-3.5-3S20,19.1,20,21v1h2v-1c0,0,0-1,1.5-1s1.5,1,1.5,1c0,1,0,2-2,2c-1,0-1,1-1,3h2c0-2,0.2-2,1-2
	C26.5,24,27,22.5,27,21z"/>
</svg>
