<?xml version="1.0" encoding="utf-8"?>
<!-- Generator: Adobe Illustrator 19.0.0, SVG Export Plug-In . SVG Version: 6.00 Build 0)  -->
<svg xmlns="http://www.w3.org/2000/svg" width="32px" height="32px" viewBox="0 0 32 32" fill="#333">
    <title>scouting_32</title>
    <g id="d8e731ca-5e43-4224-a57a-8046f9428904">
        <rect x="24" y="6" width="4px" height="4px" fill="#7ea6a6"/>
        <rect x="24" y="2" width="1px" height="2px" fill="#7ea6a6"/>
        <rect x="27" y="2" width="1px" height="2px" fill="#7ea6a6"/>
        <path d="M22,3V13h8V3Zm7,9H23V4h6Z" fill="#7ea6a6"/>
        <path d="M27.59,30H30V27.59L25.31,22.9A13,13,0,0,0,28,15H26A11,11,0,0,1,7.22,22.78,11,11,0,0,1,20,5.2V3a13.12,13.12,0,0,0-5-1,13,13,0,1,0,7.9,23.31Z"
              fill="#828282"/>
        <path d="M14.57,7C13.07,7,12,8.12,12,10h5C17,8.12,16.07,7,14.57,7ZM18,18.52V16h2.32c.32,0,.68-.21.68-.54s-.41-.46-.68-.46H18V12.62l2-1.9V9.14L18,11H11L9,9.09a.74.74,0,0,0-.8.06.58.58,0,0,0,.05.85L11,12.66V15H8.68c-.32,0-.68.14-.68.46s.36.54.68.54H11l0,1.61c0,.27,0,.6,0,1L8.25,21a.58.58,0,0,0-.05.8.74.74,0,0,0,.8.06l2.36-2.11C11.5,20.92,12.42,23,14,23V13h1V23c1.46,0,2.54-2,2.79-3.2L20,21.86c.16.1.59.21.8-.06a.53.53,0,0,0-.05-.8Z"
              fill="#828282"/>
    </g>
</svg>
