<?xml version="1.0" encoding="utf-8"?>
<!-- Generator: Adobe Illustrator 19.0.0, SVG Export Plug-In . SVG Version: 6.00 Build 0)  -->
<svg xmlns="http://www.w3.org/2000/svg" width="32px" height="32px" viewBox="0 0 32 32" fill="#333">
    <title>seeding_32</title>
    <g id="224257de-c16e-4d97-8627-f157842b350a">
        <g id="23989b98-0bd0-4205-89a9-6d56329ea8f7">
            <path d="M10,4h3a2,2,0,0,1,2,2V9.45l0,0a2.17,2.17,0,0,0,0,.25A.88.88,0,0,0,15,10v4a1,1,0,0,0,2,0V9a2,2,0,0,1,2-2h1V5H19a3.94,3.94,0,0,0-2,.58A4,4,0,0,0,13,2H10a1,1,0,0,0-.39,1.92L9.55,4ZM21.84,15H20V11.19a8.79,8.79,0,0,0-2-1.74V14c0,1.65-.35,3-2,3s-2-1.35-2-3V9.45a8.35,8.35,0,0,0-4,7.05,8.55,8.55,0,0,0,6,8,8.55,8.55,0,0,0,6-8A7.49,7.49,0,0,0,21.84,15Z"
                  fill="#828282"/>
            <path d="M23.36,21a10.73,10.73,0,0,1-6.73,6.4l-.63.21-.63-.21A10.73,10.73,0,0,1,8.64,21H2v9H30V21Z"
                  fill="#828282"/>
            <rect x="24" y="6" width="4px" height="4px" fill="#7cc14f"/>
            <rect x="24" y="2" width="1px" height="2px" fill="#7cc14f"/>
            <rect x="27" y="2" width="1px" height="2px" fill="#7cc14f"/>
            <path d="M22,3V13h8V3Zm7,9H23V4h6Z" fill="#7cc14f"/>
        </g>
    </g>
</svg>
