<?xml version="1.0" encoding="utf-8"?>
<!-- Generator: Adobe Illustrator 19.0.0, SVG Export Plug-In . SVG Version: 6.00 Build 0)  -->
<svg xmlns="http://www.w3.org/2000/svg" width="32px" height="32px" viewBox="0 0 32 32" fill="#333">
    <title>baling_32</title>
    <g id="aeef3b60-4f0e-433e-bfb8-bff1b22b40b9">
        <g id="b3dd3c6a-d834-4879-94fd-ea020d6393e4">
            <rect x="24" y="6" width="4px" height="4px" fill="#9a7fae"/>
            <rect x="24" y="2" width="1px" height="2px" fill="#9a7fae"/>
            <rect x="27" y="2" width="1px" height="2px" fill="#9a7fae"/>
            <path d="M22,3V13h8V3Zm7,9H23V4h6Z" fill="#9a7fae"/>
            <path d="M10.27,26h1.46A7,7,0,0,1,11,24.85,7.77,7.77,0,0,1,10.27,26Z" fill="#828282"/>
            <ellipse cx="15.5" cy="20.5" rx="3.5" ry="5.5" fill="#828282"/>
            <ellipse cx="6.5" cy="20.5" rx="3.5" ry="5.5" fill="#828282"/>
            <path d="M25.5,15H19.27A8.91,8.91,0,0,1,21,20.5,8.91,8.91,0,0,1,19.27,26H25.5c1.93,0,3.5-2.46,3.5-5.5S27.43,15,25.5,15Z"
                  fill="#828282"/>
            <ellipse cx="11.5" cy="9.5" rx="3.5" ry="5.5" fill="#828282"/>
            <rect x="2" y="28" width="28px" height="2px" fill="#828282"/>
            <path d="M20,14V4H15.27A8.91,8.91,0,0,1,17,9.5,9.41,9.41,0,0,1,15.92,14Z" fill="#828282"/>
        </g>
    </g>
</svg>
