<?xml version="1.0" encoding="utf-8"?>
<!-- Generator: Adobe Illustrator 19.0.0, SVG Export Plug-In . SVG Version: 6.00 Build 0)  -->
<svg xmlns="http://www.w3.org/2000/svg" width="32px" height="32px" viewBox="0 0 32 32" fill="#333">
    <title>transport_32</title>
    <g id="a3c0bc26-6a3e-4725-94f9-013fbed8e26e">
        <g id="6cbcf766-1285-48f0-8333-219173a13b58">
            <rect x="4" y="23" width="5px" height="2px" fill="#828282"/>
            <path d="M6,19H3a1,1,0,0,0-1,1H2a1,1,0,0,0,1,1H6Z" fill="#828282"/>
            <rect x="4" y="19" width="2px" height="4px" fill="#828282"/>
            <path d="M8,5h2a0,0,0,0,1,0,0V6A1,1,0,0,1,9,7H9A1,1,0,0,1,8,6V5A0,0,0,0,1,8,5Z"
                  transform="translate(18 12) rotate(-180)" fill="#828282"/>
            <path d="M14.5,23A1.5,1.5,0,1,1,13,24.5,1.5,1.5,0,0,1,14.5,23m0-2A3.5,3.5,0,1,0,18,24.5,3.5,3.5,0,0,0,14.5,21Z"
                  fill="#828282"/>
            <path d="M28,15v2H26V15H24v2H22V15H20v2H18V9h2V7H8V21h2.26a5.49,5.49,0,0,1,8.48,0H30V15ZM12,17H10V9h2Zm4,0H14V9h2Zm4,8H30V23H20Z"
                  fill="#828282"/>
            <rect x="24" y="6" width="4px" height="4px" fill="#7fad7f"/>
            <rect x="24" y="2" width="1px" height="2px" fill="#7fad7f"/>
            <rect x="27" y="2" width="1px" height="2px" fill="#7fad7f"/>
            <path d="M22,3V13h8V3Zm7,9H23V4h6Z" fill="#7fad7f"/>
        </g>
    </g>
</svg>
