<?xml version="1.0" encoding="utf-8"?>
<!-- Generator: Adobe Illustrator 19.0.0, SVG Export Plug-In . SVG Version: 6.00 Build 0)  -->
<svg xmlns="http://www.w3.org/2000/svg" width="32px" height="32px" viewBox="0 0 32 32" fill="#333">
    <title>soil_sampling_32</title>
    <g id="73a7f402-be2d-48bb-967b-f508f06683c9">
        <g id="c0040dfb-8205-4b9e-a50a-6d862563eb5b">
            <path d="M23.41,15H20V2H11a1,1,0,0,0,0,2h1v7.08A8,8,0,0,0,16,26a6.34,6.34,0,0,0,.76,0l.28,0,.45-.06.35-.08.35-.09.39-.12.26-.1a4.07,4.07,0,0,0,.44-.18l.13-.06a8,8,0,0,0,4.51-6.15s0-.06,0-.09A8.09,8.09,0,0,0,24,18,7.9,7.9,0,0,0,23.41,15ZM19,14.5A1.5,1.5,0,1,1,17.5,13,1.5,1.5,0,0,1,19,14.5ZM15.5,8A1.5,1.5,0,1,1,14,9.5,1.5,1.5,0,0,1,15.5,8ZM16,24a6,6,0,0,1-6-6H22A6,6,0,0,1,16,24Z"
                  fill="#828282"/>
            <path d="M25.54,21A10,10,0,0,1,6.46,21H2v9H30V21Z" fill="#828282"/>
            <rect x="24" y="6" width="4px" height="4px" fill="#80a693"/>
            <rect x="24" y="2" width="1px" height="2px" fill="#80a693"/>
            <rect x="27" y="2" width="1px" height="2px" fill="#80a693"/>
            <path d="M22,3V13h8V3Zm7,9H23V4h6Z" fill="#80a693"/>
        </g>
    </g>
</svg>
