<?xml version="1.0" encoding="utf-8"?>
<!-- Generator: Adobe Illustrator 19.0.0, SVG Export Plug-In . SVG Version: 6.00 Build 0)  -->
<svg xmlns="http://www.w3.org/2000/svg" width="32px" height="32px" viewBox="0 0 32 32" fill="#333">
    <title>conditioning_32</title>
    <g id="abdac00d-af0b-4789-bb9c-a148d7bbaa73">
        <g id="ddca93f8-5156-4242-8178-eb1f3d86c5db">
            <path d="M5,25a28.79,28.79,0,0,1,1.21,5H9A15.61,15.61,0,0,0,5,25Zm18,0a28.79,28.79,0,0,1,1.21,5H27A15.61,15.61,0,0,0,23,25Zm-6,0a28.79,28.79,0,0,1,1.21,5H21A15.61,15.61,0,0,0,17,25Zm-6,0a28.79,28.79,0,0,1,1.21,5H15A15.61,15.61,0,0,0,11,25Z"
                  fill="#828282"/>
            <rect x="24" y="6" width="4px" height="4px" fill="#8080ac"/>
            <rect x="24" y="2" width="1px" height="2px" fill="#8080ac"/>
            <rect x="27" y="2" width="1px" height="2px" fill="#8080ac"/>
            <path d="M22,3V13h8V3Zm7,9H23V4h6Z" fill="#8080ac"/>
            <path d="M3.42,8.89a13.86,13.86,0,0,0,0,12.22l1.74-1a11.84,11.84,0,0,1,0-10.22ZM20,11l-.44.31L20,12Zm-6-.73L11.17,6.19,9.52,7.32l2.83,4.12Zm4.81-5-2-.36L15.93,9.9l2,.37ZM11.27,13.1l-4.92-.91-.36,2,4.91.92ZM21.09,15l-.36,1.9,4.92.91.36-2L21.46,15ZM18,19.69l2.83,4.12,1.65-1.13-2.83-4.12Zm-10.81.14,1.13,1.65,4.12-2.83L11.31,17ZM28,15a11.86,11.86,0,0,1-1.16,5.11l1.74,1A13.93,13.93,0,0,0,30,15ZM13.19,24.65l2,.36.92-4.91-2-.37ZM16,18a3,3,0,1,0-3-3A3,3,0,0,0,16,18Z"
                  fill="#828282"/>
        </g>
    </g>
</svg>
