<?xml version="1.0" encoding="utf-8"?>
<!-- Generator: Adobe Illustrator 19.0.0, SVG Export Plug-In . SVG Version: 6.00 Build 0)  -->
<svg xmlns="http://www.w3.org/2000/svg" width="32px" height="32px" viewBox="0 0 32 32" fill="#333">
    <title>tillage_32</title>
    <g id="f4d3c679-54e0-4dcd-8706-3ebea03b997d">
        <g id="28967a71-386f-43c3-9634-2d07edb544e0">
            <circle cx="25.5" cy="19.5" r="2.5" fill="#828282"/>
            <circle cx="6.5" cy="19.5" r="2.5" fill="#828282"/>
            <path d="M22.43,24c-.95,2.18-3.29,4-8.43,4H2.34l3.8-4H2v6H30V24Z" fill="#828282"/>
            <path d="M13.84,20H11.71a3.69,3.69,0,0,1,.19,1,2.85,2.85,0,0,1-3,3L7,26c5,0,7-1.7,7-5A3.27,3.27,0,0,0,13.84,20Zm7,0H18.71a3.69,3.69,0,0,1,.19,1,2.85,2.85,0,0,1-3,3L14,26c5,0,7-1.7,7-5A3.27,3.27,0,0,0,20.84,20Z"
                  fill="#828282"/>
            <rect x="24" y="6" width="4px" height="4px" fill="#c38c5b"/>
            <rect x="24" y="2" width="1px" height="2px" fill="#c38c5b"/>
            <rect x="27" y="2" width="1px" height="2px" fill="#c38c5b"/>
            <path d="M22,3V13h8V3Zm7,9H23V4h6Z" fill="#c38c5b"/>
            <path d="M21,16H19.2L4,8v7.76a4.45,4.45,0,0,1,2-.71v-3L13.29,16h-4a4.43,4.43,0,0,1,1.43,2H21.28a4.49,4.49,0,0,1,4.22-3H22ZM2,18h.28a4.43,4.43,0,0,1,1.43-2H2Zm26-3H25.5a4.49,4.49,0,0,1,4.22,3H30V16Z"
                  fill="#828282"/>
        </g>
    </g>
</svg>
