<?xml version="1.0" encoding="utf-8"?>
<!-- Generator: Adobe Illustrator 18.0.0, SVG Export Plug-In . SVG Version: 6.00 Build 0)  -->
<!DOCTYPE svg PUBLIC "-//W3C//DTD SVG 1.0//EN" "http://www.w3.org/TR/2001/REC-SVG-20010904/DTD/svg10.dtd">
<svg version="1.0" id="Layer_1" xmlns="http://www.w3.org/2000/svg" xmlns:xlink="http://www.w3.org/1999/xlink" x="0px" y="0px" viewBox="0 0 32 32" style="enable-background:new 0 0 32 32;" xml:space="preserve" width="32px" height="32px" fill="#333">
<symbol id="job-guidance" viewBox="-14 -14 28 28">
	<g>
		<path style="fill:#CECECE;" d="M0,13c7.168,0,13-5.832,13-13S7.169-13,0-13S-13-7.168-13,0S-7.168,13,0,13 M0,14
			c-7.732,0-14-6.268-14-14s6.268-14,14-14S14-7.732,14,0S7.732,14,0,14L0,14z"/>
	</g>
	<g>
		<path style="fill:#999999;" d="M1.466-2.093l3.717-2.211L1.466-6.5v1.435H-2.18c-0.418,0-0.809,0.079-1.172,0.239
			s-0.681,0.375-0.953,0.647C-4.576-3.908-4.79-3.588-4.947-3.223s-0.235,0.755-0.235,1.168c0,0.413,0.078,0.802,0.235,1.168
			s0.371,0.683,0.643,0.953c0.272,0.269,0.589,0.482,0.953,0.639s0.754,0.235,1.172,0.235h4.14c0.199,0,0.389,0.039,0.572,0.118
			C2.716,1.137,2.875,1.244,3.011,1.38c0.136,0.136,0.243,0.297,0.322,0.482C3.411,2.048,3.45,2.242,3.45,2.446
			c0,0.204-0.039,0.397-0.117,0.58C3.254,3.21,3.147,3.368,3.011,3.501C2.875,3.634,2.717,3.74,2.537,3.818
			C2.356,3.897,2.164,3.936,1.96,3.936h-3.638c-0.073-0.157-0.165-0.298-0.275-0.423c-0.11-0.125-0.235-0.237-0.376-0.333
			c-0.141-0.097-0.295-0.171-0.463-0.223c-0.168-0.052-0.342-0.079-0.525-0.079c-0.251,0-0.485,0.048-0.702,0.145
			C-4.235,3.119-4.426,3.25-4.59,3.415C-4.755,3.579-4.884,3.77-4.979,3.987C-5.073,4.204-5.12,4.438-5.12,4.689
			c0,0.251,0.047,0.486,0.141,0.705c0.094,0.22,0.224,0.412,0.388,0.576c0.165,0.165,0.356,0.294,0.573,0.388
			C-3.801,6.453-3.567,6.5-3.316,6.5c0.183,0,0.358-0.026,0.525-0.079c0.167-0.052,0.321-0.124,0.463-0.216
			c0.141-0.091,0.267-0.203,0.376-0.333c0.11-0.13,0.201-0.274,0.275-0.431H1.96c0.413,0,0.802-0.078,1.168-0.235
			c0.366-0.157,0.683-0.371,0.953-0.643C4.351,4.292,4.564,3.974,4.72,3.611c0.157-0.364,0.235-0.752,0.235-1.164
			c0-0.413-0.078-0.802-0.235-1.168s-0.37-0.685-0.639-0.957C3.812,0.05,3.495-0.166,3.129-0.326
			C2.763-0.485,2.374-0.565,1.96-0.565h-4.14c-0.204,0-0.396-0.039-0.576-0.118C-2.936-0.761-3.095-0.866-3.234-1
			c-0.138-0.133-0.247-0.29-0.326-0.47c-0.078-0.18-0.117-0.375-0.117-0.584c0-0.204,0.039-0.397,0.117-0.58
			c0.079-0.183,0.187-0.344,0.326-0.482c0.138-0.138,0.297-0.247,0.474-0.325C-2.582-3.521-2.389-3.56-2.18-3.56h3.646V-2.093z"/>
	</g>
</symbol>
<symbol id="jobs-circle" viewBox="-14 -14 28 28">
	<g>
		<path style="fill:#CECECE;" d="M0,13c7.168,0,13-5.832,13-13S7.168-13,0-13S-13-7.168-13,0S-7.168,13,0,13 M0,14
			c-7.732,0-14-6.268-14-14s6.268-14,14-14S14-7.732,14,0S7.732,14,0,14L0,14z"/>
	</g>
</symbol>
<use xlink:href="#job-guidance" width="28px" height="28px" x="-14" y="-14" transform="matrix(1 0 0 -1 16 16)" style="overflow:visible;"/>
</svg>
