<?xml version="1.0" encoding="utf-8"?>
<!-- Generator: Adobe Illustrator 18.0.0, SVG Export Plug-In . SVG Version: 6.00 Build 0)  -->
<!DOCTYPE svg PUBLIC "-//W3C//DTD SVG 1.0//EN" "http://www.w3.org/TR/2001/REC-SVG-20010904/DTD/svg10.dtd">
<svg version="1.0" id="Layer_1" xmlns="http://www.w3.org/2000/svg" xmlns:xlink="http://www.w3.org/1999/xlink" x="0px" y="0px" viewBox="0 0 32 32" style="enable-background:new 0 0 32 32;" xml:space="preserve" width="32px" height="32px" fill="#333">
<symbol id="job-application" viewBox="-14 -14 28 28">
	<g>
		<path style="fill:#CECECE;" d="M0,13c7.168,0,13-5.832,13-13S7.168-13,0-13S-13-7.168-13,0S-7.168,13,0,13 M0,14
			c-7.732,0-14-6.268-14-14s6.268-14,14-14S14-7.732,14,0S7.732,14,0,14L0,14z"/>
	</g>
	<g>
		<g>
			<path style="fill:#999999;" d="M2.644-3.423c0,0.198-0.38,0.471-0.758,0.415C1.723-3.032,1.582-3.099,1.474-3.189
				c-0.156,0.506-0.623,0.875-1.182,0.9v0.819l0.713,0.713c0.147-0.067,0.284-0.118,0.405-0.13c0.184-0.021,0.344,0,0.479,0.062
				c0.134,0.064,0.247,0.16,0.34,0.289c0.094,0.127,0.168,0.269,0.224,0.423c0.137,0.362,0.21,0.825,0.222,1.384H2.675
				C2.116,1.26,1.654,1.187,1.29,1.05C1.135,0.994,0.995,0.92,0.867,0.827C0.739,0.733,0.642,0.619,0.579,0.486
				C0.518,0.35,0.496,0.191,0.516,0.006c0.014-0.121,0.063-0.257,0.129-0.402L0.293-0.742v1.855c0.147,0.056,0.276,0.117,0.37,0.192
				C0.807,1.42,0.905,1.548,0.956,1.687C1.005,1.826,1.02,1.975,0.995,2.132C0.97,2.289,0.923,2.44,0.853,2.59
				c-0.16,0.353-0.435,0.731-0.822,1.135H0.03C-0.357,3.321-0.632,2.943-0.792,2.59c-0.071-0.151-0.118-0.302-0.142-0.459
				C-0.96,1.974-0.947,1.826-0.898,1.686c0.052-0.14,0.149-0.268,0.295-0.383c0.099-0.079,0.239-0.143,0.398-0.201V-1.51
				l-0.441,0.434C-0.58-0.932-0.53-0.795-0.517-0.675c0.02,0.184-0.001,0.344-0.063,0.479c-0.063,0.134-0.16,0.248-0.287,0.341
				C-0.996,0.24-1.137,0.313-1.291,0.37c-0.094,0.035-0.194,0.066-0.3,0.092c-0.304,0.079-0.661,0.122-1.075,0.13L-2.667,0.59
				c-0.003,0-0.005,0-0.008,0l0,0c0-0.003,0-0.005,0-0.008l0,0C-2.67,0.311-2.65,0.063-2.614-0.161
				c0.037-0.236,0.09-0.448,0.159-0.633c0.056-0.155,0.13-0.295,0.224-0.423c0.094-0.129,0.207-0.225,0.341-0.288
				c0.136-0.062,0.295-0.083,0.479-0.063c0.121,0.013,0.26,0.064,0.406,0.13l0.801-0.8v-0.123c-0.45-0.159-0.78-0.552-0.846-1.026
				c-0.11,0.095-0.42,0.239-0.789,0.239c-0.461,0-0.835-0.313-0.835-0.313l0,0v-1.304c0.452-0.207,1.204-0.458,2.676-0.458
				c1.399,0,2.268,0.229,2.646,0.398C2.646-4.827,2.644-3.43,2.644-3.423z"/>
		</g>
		<g>
			<g>
				<path style="fill:#999999;" d="M2.225,5.012v0.873v0.665v0.238C1.639,6.915,0.915,7,0.005,7c-0.903,0-1.632-0.083-2.218-0.21
					l0-0.138h-0.003V5.013c-1.764-0.379-2.222-1.141-2.222-1.141V-5.65C-4.437-5.65-3.627-7,0-7c3.64,0,4.437,1.35,4.437,1.35v9.523
					C4.436,3.873,3.988,4.633,2.225,5.012z M3.549,0.956v-6.279C3.252-5.572,2.239-6.112,0-6.112c-2.256,0-3.175,0.56-3.55,0.839
					v5.917v2.853c0.289,0.216,0.91,0.599,2.221,0.762v1.776c0.383,0.048,0.822,0.078,1.334,0.078c0.507,0,0.946-0.028,1.333-0.075
					V4.262c1.321-0.157,1.981-0.523,2.211-0.714V0.956z"/>
			</g>
		</g>
	</g>
</symbol>
<symbol id="jobs-circle" viewBox="-14 -14 28 28">
	<g>
		<path style="fill:#CECECE;" d="M0,13c7.168,0,13-5.832,13-13S7.168-13,0-13S-13-7.168-13,0S-7.168,13,0,13 M0,14
			c-7.732,0-14-6.268-14-14s6.268-14,14-14S14-7.732,14,0S7.732,14,0,14L0,14z"/>
	</g>
</symbol>
<use xlink:href="#job-application" width="28px" height="28px" x="-14" y="-14" transform="matrix(1 0 0 -1 16 16)" style="overflow:visible;"/>
</svg>
