<?xml version="1.0" encoding="utf-8"?>
<!-- Generator: Adobe Illustrator 18.0.0, SVG Export Plug-In . SVG Version: 6.00 Build 0)  -->
<!DOCTYPE svg PUBLIC "-//W3C//DTD SVG 1.0//EN" "http://www.w3.org/TR/2001/REC-SVG-20010904/DTD/svg10.dtd">
<svg version="1.0" id="Layer_1" xmlns="http://www.w3.org/2000/svg" xmlns:xlink="http://www.w3.org/1999/xlink" x="0px" y="0px" viewBox="0 0 32 32" style="enable-background:new 0 0 32 32;" xml:space="preserve" width="32px" height="32px" fill="#333">
<symbol id="Job-results" viewBox="-13.504 -14 27.007 28">
	<g>
		<polygon style="fill:#333333;" points="10.498,7.997 13.499,7.997 13.499,4.996 10.498,4.996 		"/>
		<polygon style="fill:#333333;" points="10.498,14 13.499,14 13.499,10.999 10.498,10.999 		"/>
		<polygon style="fill:#333333;" points="-1.503,14 1.499,14 1.499,10.999 -1.503,10.999 		"/>
		<polygon style="fill:#333333;" points="-7.501,8.043 -4.499,8.043 -4.499,5.042 -7.501,5.042 		"/>
		<polygon style="fill:#333333;" points="-13.503,2.045 -10.502,2.045 -10.502,-0.956 -13.503,-0.956 		"/>
		<polygon style="fill:#333333;" points="-13.503,8.043 -10.502,8.043 -10.502,5.042 -13.503,5.042 		"/>
		<polygon style="fill:#333333;" points="-10.502,5.046 -7.501,5.046 -7.501,2.045 -10.502,2.045 		"/>
		<path style="fill:#333333;" d="M5.424-6.986L5.424-6.986C4.802-4.566,2.61-2.777-0.002-2.777s-4.804-1.789-5.426-4.209h-8.075
			v-2.805h8.075C-4.806-12.211-2.614-14-0.002-14s4.804,1.789,5.426,4.209h8.075v2.805H5.424z M0.039-10.985l-3.473,3.463h6.936
			L0.039-10.985z"/>
		<path style="fill:#333333;" d="M-0.002,0.224c0.512,0,1.011-0.059,1.501-0.146v1.926h-2.997V0.078
			C-1.013,0.16-0.514,0.224-0.002,0.224z"/>
		<path style="fill:#333333;" d="M-7.4-3.939c0.718,1.208,1.72,2.201,2.896,2.924V2.05h-3.001v-5.989H-7.4z"/>
		<polygon style="fill:#333333;" points="-4.504,14 -13.503,14 -13.503,11.063 -10.502,11.063 -10.502,8.061 -7.505,8.061 
			-7.505,11.063 -4.504,11.063 		"/>
		<polygon style="fill:#333333;" points="-1.503,8.002 -1.503,5.001 7.497,5.001 7.497,8.002 		"/>
		<path style="fill:#333333;" d="M10.498,1.999v3.001H7.497V1.999l0,0H4.5v-3.065C5.676-1.789,6.678-2.782,7.396-3.99h0.105v2.988
			v0.009l0,0v-0.009h3.001V-3.99h3.001v5.989H10.498z"/>
	</g>
</symbol>
<symbol id="jobs-circle" viewBox="-14 -14 28 28">
	<g>
		<path style="fill:#CECECE;" d="M0,13c7.168,0,13-5.832,13-13S7.168-13,0-13S-13-7.168-13,0S-7.168,13,0,13 M0,14
			c-7.732,0-14-6.268-14-14s6.268-14,14-14S14-7.732,14,0S7.732,14,0,14L0,14z"/>
	</g>
</symbol>
<use xlink:href="#Job-results" width="27.007px" height="28px" x="-13.504" y="-14" transform="matrix(1 0 0 -1 16 16)" style="overflow:visible;"/>
</svg>
