<svg version="1.1" id="Layer_1" xmlns="http://www.w3.org/2000/svg" xmlns:xlink="http://www.w3.org/1999/xlink" x="0px" y="0px" viewBox="0 0 32 32" style="enable-background:new 0 0 32 32;" xml:space="preserve" width="32px" height="32px" fill="#333">
<style type="text/css">
	.secondary{fill:#D8D8D8;}
	.primary{fill:#9CBC49;}
</style>
<path class="secondary" d="M16,2C8.3,2,2,8.3,2,16s6.3,14,14,14s14-6.3,14-14S23.7,2,16,2z M16,28C9.4,28,4,22.6,4,16C4,9.4,9.4,4,16,4s12,5.4,12,12C28,22.6,22.6,28,16,28z"/>
<path class="primary" d="M8,18l1.3-1.8l5.3,3.9L22,9l2,1l-9,13L8,18z"/>
</svg>
