<?xml version="1.0" encoding="utf-8"?>
<!-- Generator: Adobe Illustrator 19.0.0, SVG Export Plug-In . SVG Version: 6.00 Build 0)  -->
<svg version="1.0" id="Layer_1" xmlns="http://www.w3.org/2000/svg" xmlns:xlink="http://www.w3.org/1999/xlink" x="0px" y="0px" viewBox="0 0 32 32" style="enable-background:new 0 0 32 32;" xml:space="preserve" width="32px" height="32px" fill="#333">
<style type="text/css">
	.primary{fill:#333333;}
	.secondary{fill:#888888;}
</style>
<polygon class="secondary" points="8.585,8 8.585,11 17.765,11 19.585,9.18 19.585,8 "/>
<path class="primary" d="M8.585,22h11v1h-11V22z M19.585,18h-2.37l-1.83,1h4.2V18z M8.585,15h5.95l0.32-0.6l0.17-0.3l-0.1-0.1h-6.34
	V15z M8.585,19h3.76l0.34-0.62l0.2-0.38h-4.3V19z M22.585,28h-17v-5h1v-2h-1V11h1V9h-1V4h17v2.18l2-2V2h-21v7h-2v2h2v10h-2v2h2v7h21
	V11.48l-2,2V28z"/>
<path class="primary" d="M19.185,11l-2.92,2.92l0.08,0.08l1,1l1.15,1.16l4.09-4.09l2-2l3.6-3.6l-2.24-2.24l-1.36,1.37l-2,2l-3,3V11
	H19.185z M19.585,11v-0.4l-0.4,0.4H19.585z M26.688,3.494l1.492-1.492l2.234,2.234l-1.492,1.492L26.688,3.494z M15.735,14.88
	L15.675,15l-1.64,3l-0.48,0.86l1.57-0.86l2.41-1.32L15.855,15L15.735,14.88z"/>
</svg>
