<?xml version="1.0" encoding="utf-8"?>
<!-- Generator: Adobe Illustrator 18.0.0, SVG Export Plug-In . SVG Version: 6.00 Build 0)  -->
<!DOCTYPE svg PUBLIC "-//W3C//DTD SVG 1.0//EN" "http://www.w3.org/TR/2001/REC-SVG-20010904/DTD/svg10.dtd">
<svg version="1.0" id="Layer_1" xmlns="http://www.w3.org/2000/svg" xmlns:xlink="http://www.w3.org/1999/xlink" x="0px" y="0px" viewBox="0 0 32 32" style="enable-background:new 0 0 32 32;" xml:space="preserve" width="32px" height="32px" fill="#333">
<symbol id="job-crop" viewBox="-14 -14 28 28">
	<g>
		<path style="fill:#CECECE;" d="M0,13c7.168,0,13-5.832,13-13S7.168-13,0-13S-13-7.168-13,0S-7.168,13,0,13 M0,14
			c-7.732,0-14-6.268-14-14s6.268-14,14-14S14-7.732,14,0S7.732,14,0,14L0,14z"/>
	</g>
	<g>
		<path style="fill:#999999;" d="M3.089,6.5C4.13,4.326,4.735,2.413,4.905,0.761c0.078-0.703,0.062-1.389-0.049-2.06
			c-0.111-0.67-0.368-1.256-0.771-1.757C3.681-3.556,3.102-3.943,2.348-4.216C1.592-4.49,0.604-4.581-0.619-4.49
			c0.416,0.911,0.83,2.017,1.239,3.319C1.03,0.13,1.352,1.632,1.586,3.338C1.521,3.155,1.413,2.866,1.264,2.469
			S0.932,1.61,0.718,1.083C0.503,0.556,0.252-0.029-0.034-0.674C-0.32-1.318-0.636-1.975-0.98-2.645
			c-0.345-0.67-0.719-1.337-1.122-2C-2.52-5.309-2.949-5.928-3.391-6.5l-1.562,1.6c0.351,0.286,0.696,0.585,1.035,0.898
			c0.338,0.312,0.664,0.644,0.976,0.995c-0.664,0.729-1.087,1.425-1.269,2.088C-4.393-0.254-4.403,0.371-4.24,0.956
			c0.162,0.585,0.452,1.132,0.868,1.639c0.43,0.495,0.918,0.95,1.464,1.366C-0.632,4.925,1.033,5.771,3.089,6.5z"/>
	</g>
</symbol>
<symbol id="jobs-circle" viewBox="-14 -14 28 28">
	<g>
		<path style="fill:#CECECE;" d="M0,13c7.168,0,13-5.832,13-13S7.168-13,0-13S-13-7.168-13,0S-7.168,13,0,13 M0,14
			c-7.732,0-14-6.268-14-14s6.268-14,14-14S14-7.732,14,0S7.732,14,0,14L0,14z"/>
	</g>
</symbol>
<use xlink:href="#job-crop" width="28px" height="28px" x="-14" y="-14" transform="matrix(1 0 0 -1 16 16)" style="overflow:visible;"/>
</svg>
