<?xml version="1.0" encoding="utf-8"?>
<!-- Generator: Adobe Illustrator 18.0.0, SVG Export Plug-In . SVG Version: 6.00 Build 0)  -->
<!DOCTYPE svg PUBLIC "-//W3C//DTD SVG 1.0//EN" "http://www.w3.org/TR/2001/REC-SVG-20010904/DTD/svg10.dtd">
<svg version="1.0" id="Layer_1" xmlns="http://www.w3.org/2000/svg" xmlns:xlink="http://www.w3.org/1999/xlink" x="0px" y="0px" viewBox="0 0 32 32" style="enable-background:new 0 0 32 32;" xml:space="preserve" width="32px" height="32px" fill="#333">
<symbol id="job-equipment" viewBox="-14 -14 28 28">
	<g>
		<path style="fill:#CECECE;" d="M0,13c7.168,0,13-5.832,13-13S7.169-13,0-13S-13-7.168-13,0S-7.168,13,0,13 M0,14
			c-7.732,0-14-6.268-14-14s6.268-14,14-14c7.732,0,14,6.268,14,14S7.732,14,0,14L0,14z"/>
	</g>
	<g>
		<path style="fill:#999999;" d="M6.382-2.831C6.361-3.166,6.286-3.478,6.157-3.767c-0.129-0.289-0.299-0.539-0.51-0.75
			C5.435-4.729,5.189-4.895,4.908-5.016C4.627-5.137,4.326-5.198,4.007-5.198c-0.335,0-0.647,0.066-0.936,0.197
			C2.782-4.869,2.53-4.691,2.313-4.467c-0.217,0.224-0.387,0.488-0.51,0.793C1.679-3.37,1.617-3.048,1.617-2.707H-0.82
			c-0.082-0.361-0.218-0.694-0.406-0.998S-1.641-4.271-1.906-4.49c-0.266-0.219-0.566-0.392-0.901-0.518
			c-0.335-0.126-0.689-0.19-1.06-0.19c-0.428,0-0.833,0.086-1.214,0.259c-0.382,0.173-0.714,0.407-0.998,0.704
			C-6.363-3.938-6.587-3.59-6.752-3.191C-6.917-2.791-7-2.364-7-1.911c0,0.443,0.077,0.86,0.232,1.249
			c0.155,0.389,0.369,0.728,0.642,1.017l-0.549,0.387c0.129,0.304,0.317,0.577,0.565,0.82c0.108,0.103,0.232,0.204,0.371,0.302
			C-5.6,1.962-5.437,2.05-5.252,2.127c0.185,0.078,0.393,0.14,0.622,0.19c0.23,0.049,0.484,0.076,0.762,0.081l0.309,1.972
			l-0.364,0.828h6.056L1.215,4.324V2.467c0.603,0.041,1.227,0.026,1.872-0.047C3.36,2.385,3.651,2.337,3.961,2.278
			c0.309-0.059,0.625-0.139,0.947-0.24C5.23,1.937,5.556,1.813,5.886,1.663c0.33-0.15,0.655-0.328,0.975-0.534H6.335L6.01-0.518H7
			v-2.313H6.382z M-3.898-4.068c0.278,0,0.54,0.054,0.785,0.162s0.459,0.258,0.642,0.449c0.183,0.191,0.326,0.412,0.429,0.665
			C-1.939-2.54-1.887-2.269-1.887-1.98s-0.051,0.562-0.154,0.82c-0.103,0.258-0.247,0.482-0.429,0.673
			c-0.183,0.191-0.396,0.341-0.638,0.452c-0.242,0.111-0.505,0.166-0.789,0.166c-0.273,0-0.532-0.056-0.777-0.166
			C-4.92-0.146-5.133-0.296-5.314-0.487c-0.18-0.191-0.324-0.415-0.429-0.673c-0.106-0.258-0.159-0.531-0.159-0.82
			s0.053-0.56,0.159-0.812c0.106-0.253,0.249-0.474,0.429-0.665c0.18-0.191,0.393-0.34,0.638-0.449
			C-4.431-4.014-4.171-4.068-3.898-4.068z M-1.887,4.339h-1.114l-0.217-1.98C-3.099,2.328-2.987,2.3-2.881,2.274
			c0.106-0.026,0.209-0.057,0.309-0.093c0.101-0.036,0.205-0.079,0.313-0.128c0.108-0.049,0.232-0.11,0.371-0.182V4.339z
			 M0.441,4.339h-1.872V1.531c0.18-0.139,0.339-0.286,0.476-0.441C-0.818,0.936-0.7,0.775-0.599,0.607s0.184-0.334,0.251-0.499
			c0.072-0.176,0.132-0.34,0.178-0.495h0.611V4.339z M4.053-4.277c0.196,0,0.383,0.04,0.561,0.12c0.178,0.08,0.331,0.188,0.46,0.325
			c0.129,0.137,0.232,0.299,0.309,0.487C5.461-3.157,5.5-2.957,5.5-2.746c0,0.206-0.039,0.402-0.116,0.588
			C5.306-1.972,5.203-1.81,5.074-1.671c-0.129,0.139-0.282,0.25-0.46,0.333C4.436-1.256,4.249-1.214,4.053-1.214
			c-0.201,0-0.391-0.041-0.568-0.124S3.152-1.531,3.021-1.671C2.889-1.81,2.785-1.972,2.707-2.158
			C2.63-2.344,2.592-2.54,2.592-2.746c0-0.211,0.039-0.411,0.116-0.599c0.078-0.188,0.182-0.351,0.313-0.487
			c0.132-0.137,0.286-0.245,0.464-0.325C3.663-4.238,3.852-4.277,4.053-4.277z"/>
	</g>
</symbol>
<symbol id="jobs-circle" viewBox="-14 -14 28 28">
	<g>
		<path style="fill:#CECECE;" d="M0,13c7.168,0,13-5.832,13-13S7.168-13,0-13S-13-7.168-13,0S-7.168,13,0,13 M0,14
			c-7.732,0-14-6.268-14-14s6.268-14,14-14S14-7.732,14,0S7.732,14,0,14L0,14z"/>
	</g>
</symbol>
<use xlink:href="#job-equipment" width="28px" height="28px" x="-14" y="-14" transform="matrix(1 0 0 -1 16 16)" style="overflow:visible;"/>
</svg>
