<?xml version="1.0" encoding="utf-8"?>
<!-- Generator: Adobe Illustrator 18.0.0, SVG Export Plug-In . SVG Version: 6.00 Build 0)  -->
<!DOCTYPE svg PUBLIC "-//W3C//DTD SVG 1.0//EN" "http://www.w3.org/TR/2001/REC-SVG-20010904/DTD/svg10.dtd">
<svg version="1.0" id="Layer_1" xmlns="http://www.w3.org/2000/svg" xmlns:xlink="http://www.w3.org/1999/xlink" x="0px" y="0px" viewBox="0 0 32 32" style="enable-background:new 0 0 32 32;" xml:space="preserve" width="32px" height="32px" fill="#333">
<symbol id="job-notes" viewBox="-14 -14 28 28">
	<use xlink:href="#jobs-circle" width="28px" height="28px" x="-14" y="-14" style="overflow:visible;"/>
	<g>
		<path style="fill:#999999;" d="M5.04,5.617V-6.5H-5.04V5.617h2.407V5.86c0,0.174,0.062,0.325,0.185,0.451
			C-2.324,6.437-2.173,6.5-1.992,6.5c0.09,0,0.176-0.016,0.257-0.049c0.081-0.033,0.15-0.08,0.208-0.14
			c0.057-0.06,0.104-0.129,0.14-0.207c0.036-0.078,0.054-0.159,0.054-0.243V5.617h2.687V5.86c0,0.174,0.063,0.325,0.189,0.451
			C1.668,6.437,1.815,6.5,1.983,6.5c0.09,0,0.176-0.016,0.257-0.049s0.152-0.08,0.212-0.14s0.107-0.129,0.14-0.207
			C2.625,6.025,2.641,5.944,2.641,5.86V5.617H5.04z M3.732,4.318H2.641V3.76c0-0.18-0.064-0.334-0.194-0.46
			C2.319,3.173,2.164,3.11,1.983,3.11c-0.168,0-0.315,0.063-0.442,0.189c-0.126,0.126-0.189,0.28-0.189,0.46v0.559h-2.687V3.76
			c0-0.18-0.064-0.334-0.194-0.46C-1.657,3.173-1.812,3.11-1.992,3.11c-0.175,0-0.325,0.063-0.451,0.189
			c-0.126,0.126-0.19,0.28-0.19,0.46v0.559h-1.109v-9.52h7.474V4.318z M2.47,0.748h-4.931v0.784H2.47V0.748z M2.47-1.533h-4.931
			v0.784H2.47V-1.533z M2.47-3.805h-4.931v0.785H2.47V-3.805z"/>
	</g>
</symbol>
<symbol id="jobs-circle" viewBox="-14 -14 28 28">
	<g>
		<path style="fill:#CECECE;" d="M0,13c7.168,0,13-5.832,13-13S7.168-13,0-13S-13-7.168-13,0S-7.168,13,0,13 M0,14
			c-7.732,0-14-6.268-14-14s6.268-14,14-14S14-7.732,14,0S7.732,14,0,14L0,14z"/>
	</g>
</symbol>
<use xlink:href="#job-notes" width="28px" height="28px" x="-14" y="-14" transform="matrix(1 0 0 -1 16 16)" style="overflow:visible;"/>
</svg>
