<?xml version="1.0" encoding="utf-8"?>
<!-- Generator: Adobe Illustrator 17.1.0, SVG Export Plug-In . SVG Version: 6.00 Build 0)  -->
<!DOCTYPE svg PUBLIC "-//W3C//DTD SVG 1.1//EN" "http://www.w3.org/Graphics/SVG/1.1/DTD/svg11.dtd">
<svg version="1.1" id="Layer_1" xmlns="http://www.w3.org/2000/svg" xmlns:xlink="http://www.w3.org/1999/xlink" x="0px" y="0px" viewBox="0 0 32 32" style="enable-background:new 0 0 32 32;" xml:space="preserve" width="32px" height="32px" fill="#333">
<g>
	<path style="fill:#66A2D8;" d="M31.693,13.685c-0.203-0.604-0.491-1.157-0.86-1.658c-0.368-0.499-0.802-0.929-1.301-1.289
		c-0.499-0.359-1.044-0.622-1.631-0.785c-0.084-0.737-0.276-1.42-0.579-2.051c-0.303-0.629-0.691-1.174-1.167-1.633
		c-0.476-0.459-1.025-0.823-1.646-1.094c-0.622-0.271-1.274-0.405-1.965-0.405c-0.783,0-1.489,0.14-2.111,0.418
		c-0.787-0.837-1.715-1.495-2.786-1.978c-1.074-0.482-2.233-0.723-3.477-0.723c-0.952,0-1.857,0.152-2.725,0.453
		c-0.871,0.303-1.665,0.733-2.383,1.289c-0.721,0.558-1.351,1.22-1.892,1.99S6.205,7.833,5.894,8.75
		c-0.817,0-1.589,0.171-2.306,0.514c-0.721,0.345-1.347,0.804-1.88,1.376c-0.533,0.574-0.952,1.245-1.251,2.015
		C0.154,13.424,0,14.243,0,15.11c0,0.885,0.153,1.711,0.457,2.481c0.299,0.769,0.718,1.445,1.251,2.026
		c0.533,0.581,1.159,1.034,1.88,1.362c0.718,0.328,1.489,0.491,2.306,0.491h0.847v-2H5.894c-0.536,0-1.018-0.101-1.474-0.31
		c-0.483-0.219-0.886-0.512-1.238-0.896c-0.37-0.403-0.651-0.861-0.861-1.399C2.104,16.316,2,15.744,2,15.11
		c0-0.617,0.104-1.181,0.317-1.723c0.211-0.542,0.49-0.993,0.855-1.386c0.364-0.39,0.783-0.696,1.279-0.933
		c0.447-0.214,0.919-0.318,1.443-0.318h1.434l0.46-1.358C8.037,8.659,8.38,7.979,8.808,7.37c0.429-0.61,0.913-1.12,1.48-1.558
		c0.544-0.422,1.155-0.752,1.816-0.982c0.662-0.23,1.338-0.342,2.067-0.342c0.966,0,1.835,0.179,2.659,0.548
		c0.834,0.377,1.538,0.876,2.147,1.523l0.975,1.037l1.299-0.581c0.362-0.162,0.797-0.244,1.294-0.244
		c0.416,0,0.797,0.078,1.167,0.239c0.405,0.176,0.751,0.405,1.057,0.7c0.303,0.292,0.55,0.639,0.753,1.061
		c0.205,0.427,0.334,0.889,0.394,1.41l0.153,1.339l1.298,0.361c0.361,0.1,0.687,0.258,0.998,0.481
		c0.33,0.238,0.612,0.519,0.86,0.854c0.244,0.332,0.438,0.705,0.573,1.107C29.935,14.725,30,15.148,30,15.627
		c0,0.543-0.084,1.027-0.258,1.48c-0.179,0.465-0.424,0.884-0.728,1.244c-0.285,0.335-0.609,0.596-0.989,0.793
		c-0.355,0.184-0.727,0.292-1.138,0.328h-1.628v2h1.707c0.706-0.05,1.366-0.234,1.98-0.553c0.614-0.319,1.144-0.744,1.596-1.278
		c0.449-0.531,0.806-1.138,1.067-1.817C31.869,17.144,32,16.411,32,15.627C32,14.938,31.9,14.291,31.693,13.685z"/>
	<g>
		<path style="fill:#66A2D8;" d="M12.701,29.513c-0.459,0.002-0.882-0.08-1.272-0.245c-0.387-0.166-0.731-0.392-1.025-0.68
			c-0.297-0.288-0.533-0.627-0.71-1.021c-0.176-0.392-0.263-0.815-0.26-1.265c-0.007-0.505,0.144-1.061,0.449-1.665
			c0.307-0.604,0.665-1.258,1.077-1.96c0.273-0.463,0.557-0.964,0.848-1.498s0.564-1.096,0.815-1.68
			c0.251,0.593,0.523,1.151,0.819,1.675c0.296,0.524,0.59,1.015,0.885,1.472c0.435,0.702,0.803,1.353,1.102,1.953
			c0.297,0.602,0.453,1.159,0.464,1.674c0.007,0.443-0.072,0.864-0.234,1.256c-0.164,0.393-0.388,0.737-0.675,1.033
			c-0.289,0.296-0.627,0.529-1.019,0.698C13.572,29.432,13.151,29.514,12.701,29.513z"/>
		<path style="fill:#66A2D8;" d="M20.017,21.429c-0.367,0.002-0.705-0.064-1.016-0.195c-0.31-0.133-0.584-0.313-0.819-0.543
			c-0.237-0.23-0.426-0.501-0.568-0.816c-0.141-0.313-0.21-0.651-0.208-1.011c-0.005-0.403,0.115-0.848,0.359-1.33
			c0.246-0.483,0.531-1.005,0.86-1.566c0.219-0.37,0.445-0.77,0.677-1.197c0.233-0.427,0.451-0.876,0.651-1.342
			c0.201,0.473,0.418,0.92,0.654,1.338c0.237,0.418,0.472,0.811,0.707,1.176c0.348,0.561,0.642,1.081,0.88,1.56
			c0.237,0.481,0.362,0.926,0.37,1.338c0.006,0.354-0.058,0.69-0.187,1.003c-0.131,0.314-0.31,0.589-0.539,0.825
			c-0.231,0.237-0.501,0.423-0.814,0.558C20.712,21.365,20.376,21.43,20.017,21.429z"/>
	</g>
</g>
</svg>
