<?xml version="1.0" encoding="utf-8"?>
<!-- Generator: Adobe Illustrator 16.2.1, SVG Export Plug-In . SVG Version: 6.00 Build 0)  -->
<!DOCTYPE svg PUBLIC "-//W3C//DTD SVG 1.1//EN" "http://www.w3.org/Graphics/SVG/1.1/DTD/svg11.dtd">
<svg version="1.1" xmlns="http://www.w3.org/2000/svg" xmlns:xlink="http://www.w3.org/1999/xlink" x="0px" y="0px" viewBox="0 0 32 32" enable-background="new 0 0 32 32" xml:space="preserve" width="32px" height="32px" fill="#333">
<g id="Font">
	<g>
		<path d="M23.172,9.471c0.177,0,0.346,0.033,0.505,0.098s0.298,0.156,0.416,0.274s0.209,0.254,0.274,0.407
			c0.064,0.153,0.098,0.313,0.098,0.478c0,0.791-0.124,1.52-0.372,2.187s-0.608,1.284-1.08,1.851
			c-0.768,0.885-1.777,1.576-3.028,2.072c-0.271,0.106-0.543,0.204-0.814,0.292c-0.271,0.088-0.537,0.162-0.797,0.221v9.899h-5.101
			v-3.028c-1.817-0.318-3.223-0.932-4.214-1.841c-0.508-0.472-0.895-1.03-1.16-1.674C7.633,20.063,7.5,19.376,7.5,18.644v-7.88
			c0-0.354,0.124-0.652,0.372-0.895C8.12,9.627,8.415,9.506,8.757,9.506c0.354,0,0.658,0.121,0.912,0.363
			c0.254,0.242,0.381,0.54,0.381,0.895v7.88c0,0.791,0.254,1.411,0.762,1.859c0.26,0.26,0.599,0.484,1.019,0.673
			c0.419,0.189,0.899,0.342,1.442,0.46V5.964c0-0.342,0.068-0.667,0.204-0.974s0.318-0.579,0.549-0.814
			c0.23-0.236,0.502-0.422,0.814-0.558s0.646-0.204,1.001-0.204c0.342,0,0.667,0.068,0.974,0.204s0.578,0.322,0.814,0.558
			c0.236,0.236,0.419,0.507,0.549,0.814s0.195,0.631,0.195,0.974v8.73c0.236-0.071,0.46-0.147,0.673-0.23
			c0.968-0.413,1.688-0.923,2.16-1.532c0.473-0.608,0.709-1.343,0.709-2.205c0-0.342,0.12-0.637,0.362-0.885
			S22.817,9.471,23.172,9.471z"/>
	</g>
</g>
</svg>
