<?xml version="1.0" encoding="utf-8"?>
<!-- Generator: Adobe Illustrator 16.2.1, SVG Export Plug-In . SVG Version: 6.00 Build 0)  -->
<!DOCTYPE svg PUBLIC "-//W3C//DTD SVG 1.1//EN" "http://www.w3.org/Graphics/SVG/1.1/DTD/svg11.dtd">
<svg version="1.1" xmlns="http://www.w3.org/2000/svg" xmlns:xlink="http://www.w3.org/1999/xlink" x="0px" y="0px" viewBox="0 0 32 32" enable-background="new 0 0 32 32" xml:space="preserve" width="32px" height="32px" fill="#333">
<g id="Font">
	<g>
		<path d="M15.991,4.2c1.559,2.066,2.957,4.061,4.197,5.985c0.519,0.814,1.029,1.662,1.531,2.541s0.95,1.732,1.346,2.559
			c0.396,0.826,0.711,1.617,0.947,2.373c0.236,0.756,0.354,1.417,0.354,1.983c0,1.157-0.219,2.243-0.655,3.258
			c-0.437,1.016-1.036,1.901-1.797,2.656c-0.762,0.756-1.65,1.352-2.666,1.789C18.234,27.782,17.148,28,15.991,28
			s-2.243-0.218-3.259-0.655c-1.015-0.437-1.9-1.033-2.656-1.789c-0.755-0.755-1.352-1.641-1.788-2.656
			c-0.437-1.015-0.655-2.101-0.655-3.258c0-0.578,0.118-1.242,0.354-1.992c0.235-0.75,0.552-1.538,0.947-2.364
			c0.396-0.827,0.844-1.68,1.346-2.559s1.012-1.727,1.531-2.541C13.04,8.261,14.433,6.266,15.991,4.2z M20.117,23.75
			c0.543-0.567,0.962-1.204,1.257-1.913c0.296-0.708,0.443-1.44,0.443-2.196c0-0.083-0.012-0.204-0.035-0.363
			c-0.024-0.16-0.071-0.372-0.143-0.638c-0.07-0.266-0.177-0.584-0.318-0.956c-0.142-0.372-0.325-0.806-0.549-1.302
			c-0.106-0.224-0.283-0.555-0.531-0.992c-0.248-0.437-0.531-0.921-0.85-1.452c-0.319-0.531-0.653-1.086-1.001-1.665
			c-0.349-0.578-0.685-1.122-1.01-1.629c-0.324-0.508-0.607-0.954-0.85-1.337c-0.242-0.384-0.422-0.652-0.54-0.806
			c-0.095,0.154-0.266,0.422-0.514,0.806c-0.248,0.383-0.531,0.829-0.85,1.337c-0.319,0.507-0.655,1.051-1.01,1.629
			c-0.354,0.579-0.688,1.133-1,1.665c-0.313,0.531-0.594,1.016-0.842,1.452c-0.248,0.437-0.431,0.768-0.549,0.992
			c-0.236,0.496-0.422,0.93-0.558,1.302c-0.136,0.372-0.239,0.69-0.31,0.956c-0.071,0.266-0.118,0.481-0.143,0.646
			c-0.023,0.166-0.035,0.283-0.035,0.354c0,0.768,0.145,1.502,0.434,2.205c0.29,0.703,0.712,1.337,1.267,1.904
			c0.555,0.555,1.184,0.977,1.886,1.266c0.702,0.29,1.443,0.434,2.223,0.434c0.791,0,1.537-0.145,2.24-0.434
			C18.934,24.727,19.562,24.305,20.117,23.75z"/>
	</g>
</g>
</svg>
