<?xml version="1.0" encoding="utf-8"?>
<!-- Generator: Adobe Illustrator 19.0.0, SVG Export Plug-In . SVG Version: 6.00 Build 0)  -->
<svg version="1.0" id="Layer_1" xmlns="http://www.w3.org/2000/svg" xmlns:xlink="http://www.w3.org/1999/xlink" x="0px" y="0px" viewBox="0 0 32 32" style="enable-background:new 0 0 32 32;" xml:space="preserve" width="32px" height="32px" fill="#333">
<style type="text/css">
	.primary{fill:#66A2D8;}
</style>
<path class="primary" d="M15,32c-0.9,0-1.7-0.2-2.5-0.5s-1.5-0.8-2-1.4c-0.6-0.6-1-1.3-1.4-2c-0.3-0.8-0.5-1.6-0.5-2.5
	c0-0.8,0.2-1.6,0.5-2.4s0.8-1.5,1.3-2.1v-17V3.9c0-0.5,0.1-1.1,0.4-1.5c0.2-0.5,0.6-0.9,1.1-1.3c0.4-0.4,0.9-0.6,1.5-0.8
	C13.8,0.1,14.4,0,15,0s1.2,0.1,1.7,0.3s1,0.5,1.5,0.8c0.5,0.4,0.8,0.8,1.1,1.3s0.4,1,0.4,1.5V4v17c0.6,0.6,1,1.3,1.3,2.1
	s0.5,1.6,0.5,2.4c0,0.9-0.2,1.7-0.5,2.5s-0.8,1.5-1.4,2c-0.6,0.6-1.3,1.1-2,1.4C16.7,31.8,15.9,32,15,32z M15,1.8
	c-0.8,0-1.5,0.2-2.1,0.7c-0.5,0.4-0.8,0.9-0.8,1.4V4l0,0v17.8l-0.3,0.3c-0.5,0.5-0.8,1-1.1,1.5c-0.3,0.6-0.4,1.2-0.4,1.9
	c0,0.6,0.1,1.2,0.4,1.8c0.2,0.6,0.6,1.1,1,1.5s0.9,0.8,1.5,1s1.2,0.4,1.8,0.4c0.6,0,1.2-0.1,1.8-0.4c0.6-0.2,1.1-0.6,1.5-1
	s0.7-0.9,1-1.5c0.2-0.6,0.4-1.2,0.4-1.8c0-0.7-0.1-1.3-0.4-1.9s-0.6-1.1-1.1-1.5l-0.3-0.3V4c0,0,0,0,0-0.1l0,0c0-0.5-0.3-1-0.8-1.4
	c-0.3-0.2-0.6-0.4-0.9-0.5C15.8,1.9,15.4,1.8,15,1.8z"/>
<path class="primary" d="M15,28.3c-0.4,0-0.7-0.1-1.1-0.2c-0.3-0.1-0.6-0.3-0.9-0.6c-0.3-0.3-0.5-0.6-0.6-0.9s-0.2-0.7-0.2-1.1
	s0.1-0.8,0.2-1.1c0.2-0.3,0.4-0.7,0.7-0.9l0.9-0.8h2l0.9,0.8c0.3,0.3,0.5,0.6,0.7,0.9s0.2,0.7,0.2,1.1s-0.1,0.7-0.2,1.1
	c-0.1,0.3-0.3,0.6-0.6,0.9c-0.2,0.3-0.5,0.5-0.9,0.6C15.8,28.3,15.4,28.3,15,28.3z"/>
</svg>
