<?xml version="1.0" encoding="utf-8"?>
<!-- Generator: Adobe Illustrator 17.1.0, SVG Export Plug-In . SVG Version: 6.00 Build 0)  -->
<!DOCTYPE svg PUBLIC "-//W3C//DTD SVG 1.1//EN" "http://www.w3.org/Graphics/SVG/1.1/DTD/svg11.dtd">
<svg version="1.1" id="Layer_1" xmlns="http://www.w3.org/2000/svg" xmlns:xlink="http://www.w3.org/1999/xlink" x="0px" y="0px" viewBox="0 0 32 32" style="enable-background:new 0 0 32 32;" xml:space="preserve" width="32px" height="32px" fill="#333">
<g>
	<path style="fill:#F58356;" d="M15.999,6.613c0.461,0,0.915,0.033,1.356,0.087l-0.99-3.794c-0.202-0.779-0.529-0.779-0.733,0
		L14.641,6.7C15.087,6.646,15.539,6.613,15.999,6.613z"/>
	<path style="fill:#F58356;" d="M9.009,8.94c0.727-0.542,1.51-1.006,2.35-1.373L8.612,4.788C8.045,4.215,7.755,4.38,7.968,5.159
		L9.009,8.94z"/>
	<path style="fill:#F58356;" d="M5.247,13.682c0.362-0.84,0.829-1.621,1.375-2.346l-3.788-1.037
		c-0.775-0.221-0.944,0.071-0.373,0.637L5.247,13.682z"/>
	<path style="fill:#F58356;" d="M26.753,13.682l2.783-2.746c0.573-0.567,0.406-0.858-0.373-0.637l-3.783,1.037
		C25.924,12.061,26.393,12.842,26.753,13.682z"/>
	<path style="fill:#F58356;" d="M22.989,8.94l1.04-3.781c0.213-0.779-0.077-0.944-0.642-0.371l-2.746,2.779
		C21.476,7.934,22.257,8.398,22.989,8.94z"/>
	<path style="fill:#F58356;" d="M4.289,18.326c0-0.465,0.029-0.917,0.087-1.359l-3.792,0.986c-0.779,0.204-0.779,0.533,0,0.735
		l3.792,0.989C4.318,19.234,4.289,18.782,4.289,18.326z"/>
	<path style="fill:#F58356;" d="M31.416,17.953l-3.794-0.986c0.054,0.442,0.087,0.894,0.087,1.359c0,0.456-0.033,0.908-0.087,1.352
		l3.794-0.989C32.195,18.486,32.195,18.157,31.416,17.953z"/>
	<path style="fill:#F58356;" d="M9.922,21.678c-0.553-0.994-0.869-2.136-0.869-3.352c0-3.829,3.115-6.944,6.944-6.944
		c3.83,0,6.946,3.115,6.946,6.944c0,1.216-0.316,2.358-0.869,3.352h2.213c0.422-1.036,0.657-2.167,0.657-3.352
		c0-4.933-4.017-8.944-8.946-8.944c-4.931,0-8.944,4.01-8.944,8.944c0,1.185,0.234,2.316,0.656,3.352H9.922z"/>
	<path style="fill:#999999;" d="M3.041,29.678c-0.552,0-1-0.448-1-1s0.448-1,1-1h26c0.552,0,1,0.448,1,1s-0.448,1-1,1H3.041z"/>
	<path style="fill:#999999;" d="M29.041,25.678h-26c-0.552,0-1-0.448-1-1s0.448-1,1-1h26c0.552,0,1,0.448,1,1
		S29.594,25.678,29.041,25.678z"/>
</g>
</svg>
