<svg version="1.1" id="Layer_1" xmlns="http://www.w3.org/2000/svg" xmlns:xlink="http://www.w3.org/1999/xlink" x="0px" y="0px" viewBox="0 0 32 32" style="enable-background:new 0 0 32 32;" xml:space="preserve" fill="#333" width="32px" height="32px">
<style type="text/css">
	.primary{fill:#333333;}
</style>
<path class="primary" d="M26,8.1C25.8,5.8,23.8,4,21.5,4c-0.7,0-1.3,0.2-1.9,0.4C18.4,3,16.6,2,14.5,2c-3.1,0-5.7,2.2-6.3,5
	C7.9,7,7.7,7,7.5,7C4.5,7,2,9.5,2,12.5c0,2.9,2.2,5.2,5,5.5h3l1.2-2H8c0,0-0.3,0-0.5,0C5.6,16,4,14.4,4,12.5S5.6,9,7.5,9
	c1,0,1.9,0.4,2.5,1h0.1C10,9.7,10,9.3,10,9c0-2.8,2.2-5,5-5c1.9,0,3.5,1,4.3,2.5C19.8,6.2,20.4,6,21,6c1.7,0,3,1.3,3,3
	c0,0.4-0.1,0.7-0.2,1H25c1.7,0,3,1.3,3,3s-1.3,3-3,3h-7l3-5h-5l-5,9h4l-5,10l11-12h4c2.8,0,5-2.2,5-5C30,10.6,28.3,8.5,26,8.1z"/>
</svg>
