<?xml version="1.0" encoding="utf-8"?>
<!-- Generator: Adobe Illustrator 17.1.0, SVG Export Plug-In . SVG Version: 6.00 Build 0)  -->
<!DOCTYPE svg PUBLIC "-//W3C//DTD SVG 1.1//EN" "http://www.w3.org/Graphics/SVG/1.1/DTD/svg11.dtd">
<svg version="1.1" id="Layer_1" xmlns="http://www.w3.org/2000/svg" xmlns:xlink="http://www.w3.org/1999/xlink" x="0px" y="0px" viewBox="0 0 32 32" style="enable-background:new 0 0 32 32;" xml:space="preserve" width="32px" height="32px" fill="#333">
<g>
	<path style="fill:#999999;" d="M18.042,10.073c0,0.552,0.448,1,1,1s1-0.448,1-1l-0.008-0.1c0-1.654,1.346-3,3-3s3,1.346,3,3
		s-1.346,3-3,3l-0.353,0H8.533c-0.552,0-1,0.448-1,1c0,0.552,0.448,1,1,1H22.68h0.353c2.761,0,5-2.239,5-5s-2.239-5-5-5
		s-5,2.239-5,5L18.042,10.073z"/>
	<path style="fill:#999999;" d="M22.008,21.857c0-0.552,0.448-1,1-1s1,0.448,1,1L24,21.957c0,1.654,1.346,3,3,3s3-1.346,3-3
		s-1.346-3-3-3l-0.353,0H1c-0.552,0-1-0.448-1-1s0.448-1,1-1h25.647H27c2.761,0,5,2.239,5,5s-2.239,5-5,5s-5-2.239-5-5
		L22.008,21.857z"/>
	<path style="fill:#999999;" d="M17.886,25.923c0-1.654-1.346-3-3-3l-9.898,0c-0.551,0-0.998-0.447-0.998-0.998
		c0-0.551,0.447-1.002,0.998-1.002h9.898c2.761,0,5,2.239,5,5v0.104c0,0.552-0.448,1-1,1s-1-0.448-1-1V25.923z"/>
	<path style="fill:#999999;" d="M15.095,11.098H3c-0.552,0-1-0.448-1-1s0.448-1,1-1h12.095c0.552,0,1,0.448,1,1
		S15.647,11.098,15.095,11.098z"/>
</g>
</svg>
