<?xml version="1.0" encoding="utf-8"?>
<!-- Generator: Adobe Illustrator 16.2.1, SVG Export Plug-In . SVG Version: 6.00 Build 0)  -->
<!DOCTYPE svg PUBLIC "-//W3C//DTD SVG 1.1//EN" "http://www.w3.org/Graphics/SVG/1.1/DTD/svg11.dtd">
<svg version="1.1" xmlns="http://www.w3.org/2000/svg" xmlns:xlink="http://www.w3.org/1999/xlink" x="0px" y="0px" viewBox="0 0 32 32" enable-background="new 0 0 32 32" xml:space="preserve" width="32px" height="32px" fill="#333">
<g id="Icons">
	<g>
		<path d="M31.006,21.229c0.2,0.496,0.301,1.057,0.301,1.683c0,0.614-0.106,1.207-0.318,1.779c-0.213,0.573-0.525,1.083-0.938,1.532
			c-0.426,0.46-0.915,0.82-1.471,1.08c-0.555,0.26-1.139,0.419-1.753,0.478h-0.035H26.72H12.04c-0.708,0-1.381-0.136-2.019-0.407
			c-0.614-0.26-1.169-0.62-1.665-1.08c-0.248-0.248-0.454-0.514-0.619-0.797C7.56,25.213,7.4,24.924,7.259,24.629
			c-0.26-0.614-0.39-1.263-0.39-1.948l-2.55,1.24l0.867-3.984L1.132,19.9l2.497-3.24l-3.666-1.771l3.666-1.806L1.132,9.86
			l4.055-0.018L4.319,5.858l3.665,1.771l0.957-3.984l2.55,3.152l2.585-3.152l0.903,3.984l3.719-1.771l-0.886,3.984l4.073,0.018
			l-2.125,2.763c0.461,0.059,0.895,0.145,1.302,0.257s0.806,0.245,1.195,0.398c0.531,0.236,1.027,0.507,1.487,0.814
			c0.461,0.319,0.886,0.679,1.275,1.08c0.307,0.343,0.584,0.706,0.832,1.089c0.248,0.383,0.466,0.788,0.655,1.213
			c0.059,0.118,0.112,0.239,0.159,0.363s0.101,0.257,0.159,0.398c1.322,0.166,2.361,0.614,3.117,1.346
			c0.248,0.248,0.457,0.507,0.628,0.779C30.743,20.633,30.888,20.922,31.006,21.229z M7.365,19.015
			c-0.543-0.555-0.963-1.187-1.258-1.895c-0.295-0.731-0.442-1.476-0.442-2.231c0-0.791,0.147-1.538,0.442-2.24
			c0.295-0.702,0.715-1.337,1.258-1.904C7.92,10.19,8.555,9.769,9.269,9.479c0.714-0.289,1.455-0.434,2.223-0.434
			c0.791,0,1.537,0.145,2.24,0.434c0.702,0.29,1.337,0.711,1.903,1.266c0.271,0.272,0.511,0.567,0.717,0.886
			c0.207,0.319,0.387,0.649,0.54,0.992c0.426-0.071,0.88-0.106,1.364-0.106h0.229c-0.247-0.732-0.596-1.405-1.044-2.019
			c-0.449-0.614-0.978-1.139-1.585-1.576c-0.608-0.437-1.284-0.782-2.028-1.036c-0.743-0.253-1.522-0.38-2.337-0.38
			c-1.004,0-1.954,0.195-2.852,0.584c-0.897,0.39-1.676,0.918-2.337,1.585c-0.661,0.667-1.187,1.45-1.576,2.347
			s-0.585,1.854-0.585,2.869c0,1.228,0.275,2.355,0.824,3.382c0.549,1.027,1.283,1.883,2.204,2.567
			c0.023-0.035,0.041-0.071,0.054-0.106c0-0.047,0.012-0.088,0.035-0.124c0.095-0.212,0.194-0.41,0.301-0.593
			s0.225-0.363,0.354-0.54c-0.095-0.071-0.187-0.142-0.274-0.212C7.551,19.192,7.459,19.11,7.365,19.015z M26.72,26.258
			c0.438-0.035,0.842-0.145,1.214-0.328c0.371-0.183,0.696-0.425,0.974-0.726c0.277-0.301,0.493-0.646,0.646-1.036
			c0.153-0.39,0.23-0.809,0.23-1.257c0-0.39-0.068-0.776-0.204-1.16c-0.136-0.383-0.363-0.732-0.682-1.045
			c-0.319-0.312-0.75-0.563-1.293-0.752c-0.543-0.188-1.222-0.283-2.036-0.283c-0.024-0.271-0.098-0.605-0.222-1
			s-0.304-0.8-0.54-1.213c-0.236-0.414-0.54-0.824-0.912-1.231s-0.823-0.773-1.354-1.098c-0.531-0.324-1.151-0.584-1.859-0.779
			s-1.518-0.292-2.426-0.292c-0.862,0-1.639,0.157-2.329,0.469c-0.69,0.313-1.293,0.715-1.806,1.205
			c-0.514,0.49-0.942,1.021-1.284,1.594c-0.343,0.573-0.608,1.124-0.797,1.655c-0.496,0-0.968,0.095-1.417,0.284
			c-0.448,0.189-0.838,0.449-1.169,0.779c-0.33,0.331-0.59,0.717-0.778,1.16c-0.189,0.443-0.284,0.912-0.284,1.408
			c0,0.496,0.095,0.968,0.284,1.417c0.188,0.449,0.448,0.838,0.778,1.169c0.331,0.331,0.718,0.59,1.16,0.779
			c0.443,0.189,0.918,0.283,1.426,0.283H26.72z"/>
	</g>
</g>
</svg>
