<?xml version="1.0" encoding="utf-8"?>
<!-- Generator: Adobe Illustrator 17.1.0, SVG Export Plug-In . SVG Version: 6.00 Build 0)  -->
<!DOCTYPE svg PUBLIC "-//W3C//DTD SVG 1.1//EN" "http://www.w3.org/Graphics/SVG/1.1/DTD/svg11.dtd">
<svg version="1.1" id="Layer_1" xmlns="http://www.w3.org/2000/svg" xmlns:xlink="http://www.w3.org/1999/xlink" x="0px" y="0px" viewBox="0 0 32 32" style="enable-background:new 0 0 32 32;" xml:space="preserve" width="32px" height="32px" fill="#333">
<g>
	<path style="fill:#F58356;" d="M15.999,5.353c0.461,0,0.915,0.033,1.356,0.087l-0.99-3.794c-0.202-0.779-0.529-0.779-0.733,0
		l-0.992,3.794C15.087,5.387,15.539,5.353,15.999,5.353z"/>
	<path style="fill:#F58356;" d="M9.009,7.68c0.727-0.542,1.51-1.006,2.35-1.373L8.612,3.528C8.045,2.955,7.755,3.12,7.968,3.899
		L9.009,7.68z"/>
	<path style="fill:#F58356;" d="M5.247,12.422c0.362-0.84,0.829-1.621,1.375-2.346L2.834,9.039C2.059,8.818,1.891,9.11,2.461,9.676
		L5.247,12.422z"/>
	<path style="fill:#F58356;" d="M26.753,12.422l2.783-2.746c0.573-0.567,0.406-0.858-0.373-0.637l-3.783,1.037
		C25.924,10.801,26.393,11.582,26.753,12.422z"/>
	<path style="fill:#F58356;" d="M22.989,7.68l1.04-3.781c0.213-0.779-0.077-0.944-0.642-0.371l-2.746,2.779
		C21.476,6.674,22.257,7.139,22.989,7.68z"/>
	<path style="fill:#F58356;" d="M4.289,17.066c0-0.465,0.029-0.917,0.087-1.359l-3.792,0.986c-0.779,0.204-0.779,0.533,0,0.735
		l3.792,0.989C4.318,17.974,4.289,17.522,4.289,17.066z"/>
	<path style="fill:#F58356;" d="M22.989,26.443c-0.731,0.542-1.513,1.006-2.348,1.369l2.746,2.783
		c0.565,0.575,0.854,0.408,0.642-0.371L22.989,26.443z"/>
	<path style="fill:#F58356;" d="M31.416,16.693l-3.794-0.986c0.054,0.442,0.087,0.894,0.087,1.359c0,0.456-0.033,0.908-0.087,1.352
		l3.794-0.989C32.195,17.226,32.195,16.897,31.416,16.693z"/>
	<path style="fill:#F58356;" d="M26.753,21.699c-0.361,0.846-0.829,1.625-1.373,2.35l3.783,1.04c0.779,0.215,0.946-0.073,0.373-0.64
		L26.753,21.699z"/>
	<path style="fill:#F58356;" d="M15.999,8.122c-4.929,0-8.946,4.01-8.946,8.944c0,0.942,0.148,1.851,0.421,2.705
		c0.743,0.047,1.454,0.219,2.118,0.516c0.121,0.054,0.238,0.113,0.354,0.174c-0.567-1.004-0.892-2.162-0.892-3.394
		c0-3.829,3.116-6.944,6.946-6.944c3.829,0,6.944,3.115,6.944,6.944c0,3.824-3.115,6.935-6.944,6.935
		c-0.096,0-0.191-0.003-0.286-0.007c0.024,0.064,0.049,0.127,0.07,0.192c0.132,0.076,0.26,0.159,0.385,0.248
		c0.409,0.296,0.765,0.649,1.063,1.053c0.092,0.125,0.176,0.256,0.255,0.389c4.226-0.71,7.457-4.39,7.457-8.809
		C24.943,12.133,20.93,8.122,15.999,8.122z"/>
	<path style="fill:#66A2D8;" d="M15.595,27.615c-0.081-0.241-0.198-0.466-0.345-0.666c-0.147-0.199-0.322-0.373-0.519-0.515
		c-0.191-0.137-0.4-0.238-0.621-0.299l-0.494-0.137l-0.058-0.509c-0.035-0.309-0.113-0.584-0.236-0.84
		c-0.123-0.255-0.273-0.466-0.459-0.645c-0.187-0.181-0.399-0.321-0.645-0.428c-0.233-0.101-0.473-0.151-0.735-0.151
		c-0.304,0-0.575,0.052-0.804,0.155l-0.494,0.221l-0.371-0.394c-0.344-0.366-0.758-0.659-1.229-0.872
		c-0.467-0.209-0.981-0.316-1.526-0.316c-0.419,0-0.808,0.064-1.189,0.197c-0.38,0.132-0.731,0.322-1.043,0.564
		c-0.319,0.247-0.602,0.545-0.843,0.887c-0.242,0.345-0.436,0.729-0.577,1.144l-0.175,0.516H2.686c-0.322,0-0.613,0.064-0.89,0.197
		C1.5,25.865,1.25,26.048,1.032,26.282c-0.216,0.232-0.387,0.509-0.51,0.825c-0.125,0.317-0.188,0.66-0.188,1.019
		c0,0.368,0.063,0.715,0.189,1.035c0.123,0.315,0.295,0.595,0.513,0.832c0.213,0.233,0.458,0.41,0.749,0.542
		c0.277,0.126,0.58,0.191,0.902,0.191h11.103c0.261-0.021,0.498-0.089,0.725-0.207c0.236-0.122,0.436-0.283,0.613-0.491
		c0.182-0.216,0.328-0.465,0.435-0.742c0.104-0.27,0.156-0.569,0.156-0.888C15.718,28.113,15.678,27.857,15.595,27.615z"/>
</g>
</svg>
