<?xml version="1.0" encoding="utf-8"?>
<!-- Generator: Adobe Illustrator 17.1.0, SVG Export Plug-In . SVG Version: 6.00 Build 0)  -->
<!DOCTYPE svg PUBLIC "-//W3C//DTD SVG 1.1//EN" "http://www.w3.org/Graphics/SVG/1.1/DTD/svg11.dtd">
<svg version="1.1" id="Layer_1" xmlns="http://www.w3.org/2000/svg" xmlns:xlink="http://www.w3.org/1999/xlink" x="0px" y="0px" viewBox="0 0 32 32" style="enable-background:new 0 0 32 32;" xml:space="preserve" width="32px" height="32px" fill="#333">
<g>
	<path style="fill:#F58356;" d="M15.999,4.291c0.461,0,0.915,0.033,1.356,0.087l-0.99-3.794c-0.202-0.779-0.529-0.779-0.733,0
		l-0.992,3.794C15.087,4.324,15.539,4.291,15.999,4.291z"/>
	<path style="fill:#F58356;" d="M9.009,6.618c0.727-0.542,1.51-1.006,2.35-1.373L8.612,2.466C8.045,1.893,7.755,2.058,7.968,2.837
		L9.009,6.618z"/>
	<path style="fill:#F58356;" d="M5.247,11.36c0.362-0.84,0.829-1.621,1.375-2.346L2.834,7.977C2.06,7.756,1.891,8.047,2.461,8.614
		L5.247,11.36z"/>
	<path style="fill:#F58356;" d="M26.753,11.36l2.783-2.746c0.573-0.567,0.406-0.858-0.373-0.637L25.38,9.014
		C25.924,9.739,26.393,10.52,26.753,11.36z"/>
	<path style="fill:#F58356;" d="M15.999,7.06c-4.929,0-8.946,4.01-8.946,8.944c0,4.925,4.017,8.935,8.946,8.935
		c4.931,0,8.944-4.01,8.944-8.935C24.943,11.07,20.93,7.06,15.999,7.06z M15.999,22.939c-3.83,0-6.946-3.111-6.946-6.935
		c0-3.829,3.116-6.944,6.946-6.944c3.829,0,6.944,3.115,6.944,6.944C22.943,19.828,19.828,22.939,15.999,22.939z"/>
	<path style="fill:#F58356;" d="M22.989,6.618l1.04-3.781c0.213-0.779-0.077-0.944-0.642-0.371l-2.746,2.779
		C21.476,5.612,22.257,6.076,22.989,6.618z"/>
	<path style="fill:#F58356;" d="M15.999,27.708c-0.46,0-0.912-0.033-1.358-0.083l0.992,3.788c0.204,0.783,0.531,0.783,0.733,0
		l0.99-3.788C16.914,27.675,16.46,27.708,15.999,27.708z"/>
	<path style="fill:#F58356;" d="M4.289,16.004c0-0.465,0.029-0.917,0.087-1.359l-3.792,0.986c-0.779,0.204-0.779,0.533,0,0.735
		l3.792,0.989C4.318,16.912,4.289,16.46,4.289,16.004z"/>
	<path style="fill:#F58356;" d="M22.989,25.381c-0.731,0.542-1.513,1.006-2.348,1.369l2.746,2.783
		c0.565,0.575,0.854,0.408,0.642-0.371L22.989,25.381z"/>
	<path style="fill:#F58356;" d="M31.416,15.631l-3.794-0.986c0.054,0.442,0.087,0.894,0.087,1.359c0,0.456-0.033,0.908-0.087,1.352
		l3.794-0.989C32.195,16.164,32.195,15.835,31.416,15.631z"/>
	<path style="fill:#F58356;" d="M26.753,20.637c-0.361,0.846-0.829,1.625-1.373,2.35l3.783,1.04c0.779,0.215,0.946-0.073,0.373-0.64
		L26.753,20.637z"/>
	<path style="fill:#F58356;" d="M5.247,20.637l-2.785,2.75c-0.571,0.567-0.402,0.854,0.373,0.64l3.788-1.04
		C6.076,22.262,5.609,21.483,5.247,20.637z"/>
	<path style="fill:#F58356;" d="M9.009,25.381l-1.042,3.781c-0.212,0.779,0.077,0.946,0.644,0.371l2.748-2.783
		C10.52,26.387,9.737,25.922,9.009,25.381z"/>
</g>
</svg>
