<?xml version="1.0" encoding="utf-8"?>
<!-- Generator: Adobe Illustrator 17.1.0, SVG Export Plug-In . SVG Version: 6.00 Build 0)  -->
<!DOCTYPE svg PUBLIC "-//W3C//DTD SVG 1.1//EN" "http://www.w3.org/Graphics/SVG/1.1/DTD/svg11.dtd">
<svg version="1.1" id="Layer_1" xmlns="http://www.w3.org/2000/svg" xmlns:xlink="http://www.w3.org/1999/xlink" x="0px" y="0px" viewBox="0 0 32 32" style="enable-background:new 0 0 32 32;" xml:space="preserve" width="32px" height="32px" fill="#333">
<g>
	<path style="fill:#66A2D8;" d="M1.322,15.562c0.413,0.45,0.897,0.801,1.456,1.055c0.283,0.129,0.577,0.225,0.881,0.289
		c0.279-0.179,0.568-0.342,0.871-0.487c0.513-0.245,1.049-0.425,1.603-0.539c0.154-0.325,0.325-0.64,0.508-0.947H4.563
		c-0.339,0-0.643-0.063-0.927-0.193c-0.31-0.141-0.568-0.328-0.793-0.573c-0.242-0.264-0.427-0.565-0.566-0.921
		c-0.145-0.367-0.213-0.747-0.213-1.172c0-0.412,0.069-0.786,0.21-1.144c0.14-0.36,0.322-0.655,0.56-0.911
		c0.236-0.253,0.51-0.453,0.835-0.609c0.275-0.132,0.568-0.196,0.894-0.196h1.48l0.475-1.402c0.177-0.521,0.42-1.003,0.723-1.434
		c0.302-0.429,0.642-0.788,1.039-1.095c0.383-0.297,0.794-0.519,1.26-0.681c0.457-0.159,0.925-0.236,1.431-0.236
		c0.673,0,1.278,0.124,1.847,0.379c0.582,0.263,1.073,0.611,1.497,1.062l1.006,1.07l1.341-0.6c0.213-0.095,0.479-0.144,0.791-0.144
		c0.253,0,0.475,0.045,0.697,0.142c0.257,0.112,0.474,0.256,0.666,0.44c0.19,0.183,0.346,0.404,0.476,0.674
		c0.133,0.277,0.218,0.581,0.257,0.927l0.158,1.382l1.34,0.372c0.22,0.061,0.419,0.157,0.609,0.294
		c0.211,0.152,0.393,0.333,0.552,0.549c0.159,0.216,0.28,0.451,0.369,0.715c0.044,0.129,0.076,0.261,0.098,0.401
		c0.157-0.01,0.316-0.016,0.477-0.016c0.55,0,1.089,0.067,1.612,0.196c-0.022-0.435-0.097-0.848-0.23-1.239
		c-0.157-0.468-0.38-0.896-0.665-1.283C23.586,9.3,23.25,8.967,22.864,8.688c-0.386-0.278-0.808-0.481-1.263-0.608
		c-0.065-0.57-0.214-1.099-0.449-1.588c-0.235-0.487-0.535-0.909-0.903-1.264c-0.368-0.355-0.793-0.637-1.275-0.847
		c-0.481-0.209-0.986-0.313-1.521-0.313c-0.606,0-1.153,0.108-1.634,0.324c-0.609-0.648-1.328-1.157-2.157-1.531
		c-0.832-0.373-1.729-0.56-2.692-0.56c-0.737,0-1.438,0.117-2.109,0.351C8.188,2.886,7.573,3.218,7.017,3.649
		c-0.559,0.432-1.046,0.945-1.465,1.54C5.134,5.785,4.804,6.439,4.563,7.149c-0.633,0-1.23,0.132-1.786,0.398
		C2.219,7.814,1.735,8.169,1.322,8.612c-0.413,0.444-0.737,0.964-0.969,1.56C0.119,10.767,0,11.402,0,12.073
		c0,0.685,0.119,1.325,0.354,1.921C0.585,14.589,0.909,15.112,1.322,15.562z"/>
	<path style="fill:#66A2D8;" d="M31.713,22.416c-0.19-0.565-0.459-1.082-0.804-1.551c-0.345-0.467-0.75-0.869-1.217-1.206
		c-0.467-0.336-0.976-0.582-1.526-0.734c-0.079-0.689-0.258-1.328-0.542-1.919c-0.284-0.589-0.646-1.098-1.091-1.527
		c-0.445-0.429-0.958-0.77-1.54-1.023c-0.582-0.253-1.192-0.379-1.838-0.379c-0.732,0-1.393,0.131-1.974,0.391
		c-0.736-0.783-1.605-1.398-2.606-1.851c-1.005-0.451-2.089-0.677-3.252-0.677c-0.89,0-1.737,0.142-2.549,0.424
		c-0.815,0.284-1.558,0.686-2.229,1.206c-0.675,0.522-1.264,1.142-1.77,1.861c-0.506,0.72-0.905,1.51-1.195,2.367
		c-0.765,0-1.486,0.16-2.157,0.481c-0.675,0.323-1.26,0.752-1.759,1.287c-0.499,0.537-0.89,1.165-1.17,1.885
		c-0.284,0.72-0.427,1.486-0.427,2.297c0,0.827,0.144,1.601,0.427,2.321c0.28,0.72,0.671,1.352,1.17,1.895s1.084,0.967,1.759,1.274
		C6.092,29.547,6.814,29.7,7.579,29.7h0.801h13.188h5.724c0.661-0.047,1.278-0.219,1.852-0.517c0.574-0.298,1.07-0.696,1.493-1.195
		c0.42-0.497,0.754-1.064,0.998-1.7C31.878,25.652,32,24.967,32,24.232C32,23.588,31.907,22.983,31.713,22.416z M29.707,25.547
		c-0.159,0.415-0.377,0.788-0.648,1.108c-0.249,0.294-0.534,0.522-0.867,0.695c-0.307,0.159-0.629,0.253-0.984,0.285H7.579
		c-0.473,0-0.898-0.089-1.299-0.273c-0.427-0.194-0.785-0.453-1.096-0.793c-0.329-0.359-0.58-0.767-0.767-1.248
		c-0.194-0.493-0.287-1.004-0.287-1.572c0-0.553,0.093-1.057,0.283-1.541c0.189-0.485,0.437-0.886,0.761-1.236
		c0.323-0.346,0.696-0.619,1.138-0.83c0.392-0.187,0.806-0.279,1.266-0.279h1.48l0.475-1.402c0.226-0.668,0.539-1.288,0.929-1.842
		c0.39-0.555,0.83-1.018,1.345-1.416c0.492-0.382,1.045-0.68,1.644-0.889c0.598-0.208,1.21-0.309,1.87-0.309
		c0.876,0,1.663,0.162,2.408,0.496c0.756,0.342,1.395,0.794,1.947,1.381l1.006,1.07l1.341-0.6c0.313-0.14,0.693-0.211,1.131-0.211
		c0.362,0,0.694,0.068,1.014,0.207c0.358,0.156,0.662,0.357,0.931,0.617c0.267,0.258,0.484,0.564,0.664,0.937
		c0.182,0.38,0.298,0.792,0.351,1.258l0.158,1.382l1.34,0.372c0.315,0.088,0.601,0.225,0.873,0.421
		c0.292,0.211,0.542,0.459,0.761,0.756c0.22,0.298,0.387,0.621,0.508,0.983c0.122,0.356,0.179,0.732,0.179,1.158
		C29.935,24.716,29.861,25.146,29.707,25.547z"/>
</g>
</svg>
