<?xml version="1.0" encoding="utf-8"?>
<!-- Generator: Adobe Illustrator 16.2.1, SVG Export Plug-In . SVG Version: 6.00 Build 0)  -->
<!DOCTYPE svg PUBLIC "-//W3C//DTD SVG 1.1//EN" "http://www.w3.org/Graphics/SVG/1.1/DTD/svg11.dtd">
<svg version="1.1" xmlns="http://www.w3.org/2000/svg" xmlns:xlink="http://www.w3.org/1999/xlink" x="0px" y="0px" viewBox="0 0 32 32" enable-background="new 0 0 32 32" xml:space="preserve" width="32px" height="32px" fill="#333">
<g id="Font">
	<g>
		<path d="M26.997,21.663l-4.321,0.035l0.938,4.215l-3.913-1.877l-0.975,4.214L16,24.885l-2.728,3.365l-0.974-4.214l-3.913,1.877
			l0.956-4.215l-4.339-0.035l2.656-3.4l-3.86-1.913l3.86-1.895l-2.656-3.4l4.339-0.035L8.386,6.805l3.913,1.859l0.974-4.214
			L16,7.814l2.727-3.364l0.975,4.214l3.913-1.859l-0.938,4.215l4.321,0.035l-2.656,3.4l3.86,1.895l-3.86,1.913L26.997,21.663z
			 M16,24.142c1.074,0,2.083-0.204,3.028-0.611c0.944-0.407,1.771-0.965,2.479-1.673c0.709-0.708,1.267-1.532,1.674-2.47
			c0.407-0.939,0.611-1.951,0.611-3.037c0-1.074-0.204-2.083-0.611-3.028c-0.407-0.944-0.965-1.771-1.674-2.479
			c-0.708-0.708-1.534-1.266-2.479-1.673C18.083,8.762,17.074,8.558,16,8.558c-1.086,0-2.099,0.204-3.037,0.611
			s-1.762,0.965-2.471,1.673c-0.708,0.708-1.266,1.535-1.673,2.479c-0.407,0.945-0.611,1.954-0.611,3.028
			c0,1.086,0.204,2.098,0.611,3.037c0.407,0.938,0.965,1.762,1.673,2.47c0.709,0.708,1.532,1.266,2.471,1.673
			S14.914,24.142,16,24.142z M16,10.081c0.838,0,1.635,0.16,2.391,0.479c0.755,0.318,1.428,0.773,2.019,1.363
			c0.603,0.602,1.06,1.284,1.372,2.045c0.313,0.761,0.47,1.556,0.47,2.382c0,0.838-0.156,1.635-0.47,2.391
			c-0.312,0.755-0.77,1.428-1.372,2.019c-0.602,0.602-1.278,1.06-2.027,1.373c-0.75,0.313-1.544,0.469-2.382,0.469
			c-0.826,0-1.62-0.156-2.382-0.469c-0.762-0.312-1.438-0.771-2.027-1.373c-0.603-0.602-1.06-1.278-1.373-2.027
			c-0.312-0.75-0.469-1.543-0.469-2.382c0-0.826,0.156-1.621,0.469-2.382c0.313-0.762,0.771-1.443,1.373-2.045
			c0.602-0.602,1.28-1.06,2.036-1.373C14.383,10.238,15.174,10.081,16,10.081z"/>
	</g>
</g>
</svg>
