<?xml version="1.0" encoding="utf-8"?>
<!-- Generator: Adobe Illustrator 17.1.0, SVG Export Plug-In . SVG Version: 6.00 Build 0)  -->
<!DOCTYPE svg PUBLIC "-//W3C//DTD SVG 1.1//EN" "http://www.w3.org/Graphics/SVG/1.1/DTD/svg11.dtd">
<svg version="1.1" id="Layer_1" xmlns="http://www.w3.org/2000/svg" xmlns:xlink="http://www.w3.org/1999/xlink" x="0px" y="0px" viewBox="0 0 32 32" style="enable-background:new 0 0 32 32;" xml:space="preserve" width="32px" height="32px" fill="#333">
<g>
	<path style="fill:#999999;" d="M31.693,22.214c-0.203-0.604-0.491-1.157-0.86-1.658c-0.368-0.499-0.802-0.929-1.301-1.289
		c-0.499-0.359-1.044-0.622-1.631-0.785c-0.084-0.737-0.276-1.42-0.579-2.051c-0.303-0.629-0.691-1.174-1.167-1.633
		c-0.476-0.459-1.025-0.823-1.646-1.094c-0.477-0.208-0.972-0.334-1.488-0.382v2.014c0.238,0.038,0.466,0.104,0.69,0.202
		c0.405,0.176,0.751,0.405,1.057,0.7c0.303,0.292,0.55,0.639,0.753,1.061c0.205,0.427,0.334,0.889,0.394,1.41l0.153,1.339
		l1.298,0.361c0.361,0.1,0.687,0.258,0.998,0.481c0.33,0.238,0.612,0.519,0.86,0.854c0.244,0.332,0.438,0.705,0.573,1.107
		C29.935,23.254,30,23.677,30,24.156c0,0.543-0.084,1.027-0.258,1.48c-0.179,0.465-0.424,0.884-0.728,1.244
		c-0.285,0.335-0.609,0.596-0.989,0.793c-0.355,0.184-0.727,0.292-1.138,0.328H5.894c-0.536,0-1.018-0.101-1.475-0.31
		c-0.483-0.219-0.886-0.512-1.238-0.896c-0.37-0.403-0.651-0.861-0.861-1.399C2.104,24.845,2,24.273,2,23.64
		c0-0.617,0.104-1.181,0.317-1.723c0.211-0.542,0.49-0.993,0.855-1.386c0.364-0.39,0.783-0.696,1.279-0.933
		c0.447-0.214,0.919-0.318,1.443-0.318h1.434l0.46-1.358c0.241-0.712,0.572-1.373,0.983-1.968v-2.957
		c-0.6,0.506-1.133,1.089-1.599,1.753c-0.541,0.769-0.967,1.614-1.278,2.531c-0.817,0-1.589,0.171-2.306,0.514
		c-0.721,0.345-1.347,0.804-1.88,1.376c-0.533,0.574-0.952,1.245-1.251,2.015C0.153,21.953,0,22.772,0,23.64
		c0,0.885,0.153,1.711,0.457,2.481c0.299,0.769,0.718,1.445,1.251,2.026s1.159,1.034,1.88,1.362C4.306,29.837,5.077,30,5.894,30
		h21.071c0.706-0.05,1.366-0.234,1.98-0.553c0.614-0.319,1.144-0.744,1.596-1.278c0.449-0.531,0.806-1.138,1.067-1.817
		C31.87,25.673,32,24.94,32,24.156C32,23.467,31.9,22.82,31.693,22.214z"/>
	<path style="fill:#999999;" d="M19.864,11.992c-0.552,0-1-0.448-1-1c0-0.552,0.448-1,1-1l0.1,0.008c1.654,0,3-1.346,3-3
		s-1.346-3-3-3c-1.654,0-3,1.346-3,3l0,0.353V19c0,0.552-0.448,1-1,1c-0.552,0-1-0.448-1-1V7.353V7c0-2.761,2.239-5,5-5s5,2.239,5,5
		s-2.239,5-5,5L19.864,11.992z"/>
	<path style="fill:#999999;" d="M18.964,22.943v-8.595c0-0.552,0.448-1,1-1s1,0.448,1,1v8.595c0,0.552-0.448,1-1,1
		S18.964,23.495,18.964,22.943z"/>
	<path style="fill:#999999;" d="M7.971,8.698c1.654,0,3,1.346,3,3l0,9.898c0,0.551,0.447,0.998,0.998,0.998
		c0.551,0,1.002-0.447,1.002-0.998v-9.898c0-2.761-2.239-5-5-5H7.867c-0.552,0-1,0.448-1,1s0.448,1,1,1H7.971z"/>
</g>
</svg>
