<?xml version="1.0" encoding="utf-8"?>
<!-- Generator: Adobe Illustrator 17.1.0, SVG Export Plug-In . SVG Version: 6.00 Build 0)  -->
<!DOCTYPE svg PUBLIC "-//W3C//DTD SVG 1.1//EN" "http://www.w3.org/Graphics/SVG/1.1/DTD/svg11.dtd">
<svg version="1.1" id="Layer_1" xmlns="http://www.w3.org/2000/svg" xmlns:xlink="http://www.w3.org/1999/xlink" x="0px" y="0px" viewBox="0 0 32 32" style="enable-background:new 0 0 32 32;" xml:space="preserve" width="32px" height="32px" fill="#333">
<g>
	<path style="fill:#F58356;" d="M15.999,5.89c0.461,0,0.915,0.033,1.356,0.087l-0.99-3.794c-0.202-0.779-0.529-0.779-0.733,0
		l-0.992,3.794C15.087,5.923,15.539,5.89,15.999,5.89z"/>
	<path style="fill:#F58356;" d="M9.009,8.217c0.727-0.542,1.51-1.006,2.35-1.373L8.612,4.065C8.045,3.492,7.755,3.656,7.968,4.435
		L9.009,8.217z"/>
	<path style="fill:#F58356;" d="M5.247,12.958c0.362-0.84,0.829-1.621,1.375-2.346L2.834,9.575
		c-0.775-0.221-0.944,0.071-0.373,0.637L5.247,12.958z"/>
	<path style="fill:#F58356;" d="M26.753,12.958l2.783-2.746c0.573-0.567,0.406-0.858-0.373-0.637l-3.783,1.037
		C25.924,11.337,26.393,12.119,26.753,12.958z"/>
	<path style="fill:#F58356;" d="M22.989,8.217l1.04-3.781c0.213-0.779-0.077-0.944-0.642-0.371l-2.746,2.779
		C21.476,7.21,22.257,7.675,22.989,8.217z"/>
	<path style="fill:#F58356;" d="M4.289,17.602c0-0.465,0.029-0.917,0.087-1.359l-3.792,0.986c-0.779,0.204-0.779,0.533,0,0.735
		l3.792,0.989C4.318,18.51,4.289,18.058,4.289,17.602z"/>
	<path style="fill:#F58356;" d="M31.416,17.229l-3.794-0.986c0.054,0.442,0.087,0.894,0.087,1.359c0,0.456-0.033,0.908-0.087,1.352
		l3.794-0.989C32.195,17.763,32.195,17.433,31.416,17.229z"/>
	<polygon style="fill:#999999;" points="7.732,23.238 13.342,24.401 18.951,23.238 18.951,23.238 18.951,23.238 24.561,24.401 
		30.17,23.238 30.17,25.238 24.561,26.401 18.951,25.238 13.342,26.401 7.732,25.238 2.123,26.401 2.123,24.401 	"/>
	<polygon style="fill:#999999;" points="7.584,27.238 13.193,28.401 18.803,27.238 18.803,27.238 18.803,27.238 24.412,28.401 
		30.021,27.238 30.021,29.238 24.412,30.401 18.803,29.238 13.193,30.401 7.584,29.238 1.974,30.401 1.974,28.401 	"/>
	<path style="fill:#F58356;" d="M10.481,21.808c-0.895-1.167-1.428-2.625-1.428-4.206c0-3.829,3.115-6.944,6.944-6.944
		c3.83,0,6.946,3.115,6.946,6.944c0,1.566-0.523,3.011-1.403,4.172l2.114,0.438c0.817-1.347,1.289-2.925,1.289-4.611
		c0-4.933-4.017-8.944-8.946-8.944c-4.931,0-8.944,4.01-8.944,8.944c0,1.303,0.282,2.54,0.786,3.658L10.481,21.808z"/>
</g>
</svg>
