<?xml version="1.0" encoding="utf-8"?>
<!-- Generator: Adobe Illustrator 17.1.0, SVG Export Plug-In . SVG Version: 6.00 Build 0)  -->
<!DOCTYPE svg PUBLIC "-//W3C//DTD SVG 1.1//EN" "http://www.w3.org/Graphics/SVG/1.1/DTD/svg11.dtd">
<svg version="1.1" id="Layer_1" xmlns="http://www.w3.org/2000/svg" xmlns:xlink="http://www.w3.org/1999/xlink" x="0px" y="0px" viewBox="0 0 32 32" style="enable-background:new 0 0 32 32;" xml:space="preserve" width="32px" height="32px" fill="#333">
<path style="fill:#66A2D8;" d="M17.141,21.054c-0.665-1.338-1.485-2.787-2.455-4.352c-0.656-1.02-1.311-2.114-1.971-3.281
	c-0.66-1.167-1.264-2.411-1.824-3.731c-0.559,1.301-1.168,2.551-1.816,3.742s-1.279,2.306-1.889,3.338
	c-0.917,1.565-1.715,3.021-2.399,4.366c-0.679,1.345-1.015,2.584-1,3.709c-0.006,1.004,0.186,1.945,0.58,2.819
	c0.394,0.876,0.922,1.634,1.583,2.274c0.655,0.641,1.42,1.145,2.283,1.515c0.868,0.367,1.811,0.551,2.834,0.545
	c1.002,0.003,1.939-0.18,2.812-0.56c0.874-0.377,1.627-0.895,2.271-1.556c0.638-0.66,1.138-1.425,1.504-2.302
	c0.361-0.874,0.538-1.811,0.522-2.798C18.151,23.636,17.802,22.394,17.141,21.054z M15.606,26.738
	c-0.257,0.616-0.601,1.145-1.049,1.607c-0.44,0.451-0.952,0.801-1.557,1.062c-0.587,0.255-1.209,0.378-1.909,0.378l-0.07,0
	c-0.708,0-1.339-0.121-1.928-0.37c-0.606-0.26-1.146-0.617-1.597-1.058L7.489,28.35c-0.462-0.448-0.824-0.969-1.105-1.593
	C6.122,26.173,5.996,25.552,6,24.859l0-0.042c-0.01-0.757,0.247-1.66,0.763-2.683c0.677-1.33,1.463-2.761,2.333-4.244
	c0.581-0.984,1.189-2.055,1.805-3.182c0.659,1.157,1.286,2.198,1.914,3.175c0.935,1.51,1.724,2.908,2.345,4.156
	c0.515,1.044,0.786,1.985,0.801,2.788C15.972,25.496,15.852,26.141,15.606,26.738z"/>
<path style="fill:#66A2D8;" d="M27.419,8.741c-0.512-1.029-1.143-2.144-1.888-3.347c-0.505-0.785-1.009-1.626-1.516-2.524
	C23.507,1.973,23.042,1.016,22.611,0c-0.43,1-0.898,1.962-1.397,2.879c-0.499,0.917-0.984,1.774-1.453,2.568
	c-0.706,1.204-1.319,2.324-1.846,3.359c-0.522,1.035-0.781,1.988-0.769,2.853c-0.004,0.772,0.143,1.496,0.446,2.169
	c0.303,0.674,0.709,1.257,1.218,1.749c0.504,0.493,1.092,0.881,1.756,1.165c0.668,0.282,1.393,0.424,2.18,0.419
	c0.771,0.002,1.492-0.138,2.163-0.43c0.672-0.29,1.251-0.689,1.747-1.197c0.491-0.508,0.876-1.096,1.157-1.771
	c0.277-0.672,0.414-1.393,0.401-2.152C28.196,10.727,27.928,9.772,27.419,8.741z M25.766,12.919
	c-0.172,0.413-0.403,0.767-0.702,1.076c-0.29,0.297-0.63,0.529-1.033,0.703c-0.388,0.169-0.8,0.249-1.266,0.249l-0.054,0
	c-0.475,0-0.894-0.08-1.283-0.245c-0.411-0.176-0.764-0.409-1.07-0.709c-0.316-0.306-0.558-0.656-0.747-1.076
	c-0.171-0.381-0.253-0.789-0.251-1.248l0-0.042c-0.006-0.492,0.177-1.124,0.532-1.827c0.516-1.013,1.115-2.104,1.779-3.237
	c0.31-0.526,0.631-1.085,0.958-1.668c0.349,0.593,0.69,1.148,1.031,1.678c0.71,1.147,1.309,2.207,1.778,3.152
	c0.362,0.734,0.552,1.385,0.563,1.927C26.008,12.103,25.931,12.519,25.766,12.919z"/>
</svg>
