<?xml version="1.0" encoding="utf-8"?>
<!-- Generator: Adobe Illustrator 17.1.0, SVG Export Plug-In . SVG Version: 6.00 Build 0)  -->
<!DOCTYPE svg PUBLIC "-//W3C//DTD SVG 1.1//EN" "http://www.w3.org/Graphics/SVG/1.1/DTD/svg11.dtd">
<svg version="1.1" id="Layer_1" xmlns="http://www.w3.org/2000/svg" xmlns:xlink="http://www.w3.org/1999/xlink" x="0px" y="0px" viewBox="0 0 32 32" style="enable-background:new 0 0 32 32;" xml:space="preserve" width="32px" height="32px" fill="#333">
<g>
	<path style="fill:#66A2D8;" d="M31.693,10.795c-0.203-0.604-0.491-1.157-0.86-1.658c-0.368-0.499-0.802-0.929-1.301-1.289
		c-0.499-0.359-1.044-0.622-1.631-0.785c-0.084-0.737-0.276-1.42-0.579-2.051c-0.303-0.629-0.691-1.174-1.167-1.633
		c-0.476-0.459-1.025-0.823-1.646-1.094c-0.622-0.271-1.274-0.405-1.965-0.405c-0.783,0-1.489,0.14-2.111,0.418
		c-0.787-0.837-1.715-1.495-2.786-1.978c-1.074-0.482-2.233-0.723-3.477-0.723c-0.952,0-1.857,0.152-2.725,0.453
		c-0.871,0.303-1.665,0.733-2.383,1.289c-0.721,0.558-1.351,1.22-1.892,1.99S6.205,4.943,5.894,5.86
		c-0.817,0-1.589,0.171-2.306,0.514C2.867,6.719,2.241,7.178,1.708,7.75C1.174,8.323,0.756,8.995,0.457,9.764
		C0.153,10.534,0,11.353,0,12.22c0,0.885,0.153,1.711,0.457,2.481c0.299,0.769,0.718,1.445,1.251,2.026
		c0.533,0.581,1.159,1.034,1.88,1.362c0.718,0.328,1.489,0.491,2.306,0.491H8.95v-2H5.894c-0.536,0-1.018-0.101-1.475-0.31
		c-0.483-0.219-0.886-0.512-1.238-0.896c-0.37-0.403-0.651-0.861-0.861-1.399C2.104,13.426,2,12.854,2,12.22
		c0-0.617,0.104-1.181,0.317-1.723c0.211-0.542,0.49-0.993,0.855-1.386c0.364-0.39,0.783-0.696,1.279-0.933
		C4.899,7.964,5.371,7.86,5.894,7.86h1.434l0.46-1.358c0.248-0.733,0.592-1.413,1.02-2.022c0.429-0.61,0.913-1.12,1.48-1.558
		c0.544-0.422,1.155-0.752,1.816-0.982c0.662-0.23,1.338-0.342,2.067-0.342c0.966,0,1.835,0.179,2.659,0.548
		c0.834,0.377,1.538,0.876,2.147,1.523l0.975,1.037l1.299-0.581c0.362-0.162,0.797-0.244,1.294-0.244
		c0.416,0,0.797,0.078,1.167,0.239c0.405,0.176,0.751,0.405,1.057,0.7c0.303,0.292,0.55,0.639,0.753,1.061
		c0.205,0.427,0.334,0.889,0.394,1.41l0.153,1.339l1.298,0.361c0.361,0.1,0.687,0.258,0.998,0.481
		c0.33,0.238,0.612,0.519,0.86,0.854c0.244,0.332,0.438,0.705,0.573,1.107C29.935,11.834,30,12.258,30,12.736
		c0,0.543-0.084,1.027-0.258,1.48c-0.179,0.465-0.424,0.884-0.728,1.244c-0.285,0.335-0.609,0.596-0.989,0.793
		c-0.355,0.184-0.727,0.292-1.138,0.328H23.05v2h3.915c0.706-0.05,1.366-0.234,1.98-0.553c0.614-0.319,1.144-0.744,1.596-1.278
		c0.449-0.531,0.806-1.138,1.067-1.817C31.87,14.254,32,13.521,32,12.736C32,12.048,31.9,11.401,31.693,10.795z"/>
	<path style="fill:#66A2D8;" d="M17.011,24.851v-4.742c0-0.552-0.448-1-1-1c-0.552,0-1,0.448-1,1v4.742c0,0.552,0.448,1,1,1
		C16.563,25.851,17.011,25.403,17.011,24.851z"/>
	
		<rect x="14.718" y="28.253" transform="matrix(-0.7071 0.7071 -0.7071 -0.7071 48.2249 39.1173)" style="fill:#66A2D8;" width="2.586px" height="2.586px"/>
	<path style="fill:#66A2D8;" d="M21.041,21.769v-6.636c0-0.552-0.448-1-1-1s-1,0.448-1,1v6.636c0,0.552,0.448,1,1,1
		S21.041,22.321,21.041,21.769z"/>
	
		<rect x="18.749" y="25.171" transform="matrix(-0.7071 0.7071 -0.7071 -0.7071 52.926 31.0058)" style="fill:#66A2D8;" width="2.586px" height="2.586px"/>
	<path style="fill:#66A2D8;" d="M12.98,19.933v-9.346c0-0.552-0.448-1-1-1s-1,0.448-1,1v9.346c0,0.552,0.448,1,1,1
		S12.98,20.485,12.98,19.933z"/>
	
		<rect x="10.688" y="23.336" transform="matrix(-0.7071 0.7071 -0.7071 -0.7071 37.8669 33.5719)" style="fill:#66A2D8;" width="2.586px" height="2.586px"/>
</g>
</svg>
