<?xml version="1.0" encoding="utf-8"?>
<!-- Generator: Adobe Illustrator 17.1.0, SVG Export Plug-In . SVG Version: 6.00 Build 0)  -->
<!DOCTYPE svg PUBLIC "-//W3C//DTD SVG 1.1//EN" "http://www.w3.org/Graphics/SVG/1.1/DTD/svg11.dtd">
<svg version="1.1" id="Layer_1" xmlns="http://www.w3.org/2000/svg" xmlns:xlink="http://www.w3.org/1999/xlink" x="0px" y="0px" viewBox="0 0 32 32" style="enable-background:new 0 0 32 32;" xml:space="preserve" width="32px" height="32px" fill="#333">
<path style="fill:#66A2D8;" d="M31.693,13.775c-0.203-0.604-0.491-1.157-0.86-1.658c-0.368-0.499-0.802-0.929-1.301-1.289
	c-0.499-0.359-1.044-0.622-1.631-0.785c-0.084-0.737-0.276-1.42-0.579-2.051c-0.303-0.629-0.691-1.174-1.167-1.633
	c-0.476-0.459-1.025-0.823-1.646-1.094c-0.622-0.271-1.274-0.405-1.965-0.405c-0.783,0-1.489,0.14-2.111,0.418
	c-0.787-0.837-1.715-1.495-2.786-1.978c-1.074-0.482-2.233-0.723-3.477-0.723c-0.952,0-1.857,0.152-2.725,0.453
	C10.576,3.334,9.781,3.763,9.064,4.32C8.342,4.878,7.713,5.54,7.172,6.31S6.205,7.923,5.894,8.84c-0.817,0-1.589,0.171-2.306,0.514
	C2.866,9.7,2.241,10.158,1.707,10.73c-0.533,0.574-0.952,1.245-1.251,2.015C0.153,13.514,0,14.334,0,15.201
	c0,0.885,0.153,1.711,0.457,2.481c0.299,0.769,0.718,1.445,1.251,2.026c0.533,0.581,1.159,1.034,1.88,1.362
	c0.718,0.328,1.489,0.491,2.306,0.491H6.75v-2H5.894c-0.536,0-1.018-0.101-1.475-0.31c-0.483-0.219-0.886-0.512-1.238-0.896
	c-0.37-0.403-0.651-0.861-0.861-1.399C2.104,16.406,2,15.835,2,15.201c0-0.617,0.104-1.181,0.317-1.723
	c0.211-0.542,0.49-0.993,0.855-1.386c0.364-0.39,0.783-0.696,1.279-0.933c0.447-0.214,0.919-0.318,1.443-0.318h1.434l0.46-1.358
	C8.037,8.749,8.38,8.069,8.808,7.46c0.429-0.61,0.913-1.12,1.48-1.558c0.544-0.422,1.155-0.752,1.816-0.982
	c0.662-0.23,1.338-0.342,2.067-0.342c0.966,0,1.835,0.179,2.659,0.548c0.834,0.377,1.538,0.876,2.147,1.523l0.975,1.037l1.299-0.581
	c0.362-0.162,0.797-0.244,1.294-0.244c0.416,0,0.797,0.078,1.167,0.239c0.405,0.176,0.751,0.405,1.057,0.7
	c0.303,0.292,0.55,0.639,0.753,1.061c0.205,0.427,0.334,0.889,0.394,1.41l0.153,1.339l1.298,0.361
	c0.361,0.1,0.687,0.258,0.998,0.481c0.33,0.238,0.612,0.519,0.86,0.854c0.244,0.332,0.438,0.705,0.573,1.107
	C29.935,14.815,30,15.238,30,15.717c0,0.543-0.084,1.027-0.258,1.48c-0.179,0.465-0.424,0.884-0.728,1.244
	c-0.285,0.335-0.609,0.596-0.989,0.793c-0.355,0.184-0.727,0.292-1.138,0.328h-6.04v2h6.118c0.706-0.05,1.366-0.234,1.98-0.553
	c0.614-0.319,1.144-0.744,1.596-1.278c0.449-0.531,0.806-1.138,1.067-1.817C31.87,17.235,32,16.502,32,15.717
	C32,15.028,31.9,14.382,31.693,13.775z"/>
<path style="fill:#66A2D8;" d="M18.348,24.527l0.499,0.937l-1.466,0.781l0.156,1.667l-1.071,0.081l-0.164-1.704l-0.766-0.424
	l-0.216,0.543h-0.982v1.161l1.444,0.952l-0.603,0.9l-1.368-0.93l-1.392,0.93l-0.602-0.9l1.443-0.945v-1.168h-0.982l-0.215-0.543
	l-0.766,0.424l-0.164,1.704l-1.072-0.081l0.164-1.667L8.75,25.464l0.499-0.937l1.547,0.811l0.885-0.469l-0.215-0.558l0.215-0.558
	l-0.9-0.491L9.249,24.08L8.75,23.12l1.473-0.781l-0.164-1.644l1.072-0.105l0.164,1.734l0.766,0.417l0.215-0.528h0.975v-0.945
	l-1.436-0.96l0.602-0.885l1.377,0.907l1.399-0.907l0.588,0.885l-1.459,0.975v0.93h0.998l0.216,0.528l0.766-0.417l0.164-1.734
	l1.071,0.105l-0.156,1.644l1.466,0.781l-0.499,0.96l-1.525-0.818l-0.901,0.491l0.216,0.558l-0.216,0.558l0.901,0.469L18.348,24.527z
	 M14.598,25.338l0.394-1.027l-0.394-1.034h-1.592l-0.402,1.034l0.402,1.027H14.598z"/>
</svg>
