<?xml version="1.0" encoding="utf-8"?>
<!-- Generator: Adobe Illustrator 17.1.0, SVG Export Plug-In . SVG Version: 6.00 Build 0)  -->
<!DOCTYPE svg PUBLIC "-//W3C//DTD SVG 1.1//EN" "http://www.w3.org/Graphics/SVG/1.1/DTD/svg11.dtd">
<svg version="1.1" id="Layer_1" xmlns="http://www.w3.org/2000/svg" xmlns:xlink="http://www.w3.org/1999/xlink" x="0px" y="0px" viewBox="0 0 32 32" style="enable-background:new 0 0 32 32;" xml:space="preserve" width="32px" height="32px" fill="#333">
<g>
	<path style="fill:#66A2D8;" d="M6.733,17.379H5.879c-0.535,0-1.016-0.101-1.471-0.309c-0.481-0.219-0.884-0.51-1.235-0.893
		c-0.369-0.402-0.65-0.858-0.859-1.396c-0.216-0.549-0.32-1.119-0.32-1.751c0-0.616,0.104-1.178,0.317-1.718
		c0.21-0.541,0.488-0.99,0.853-1.382C3.527,9.54,3.945,9.235,4.44,8.998C4.886,8.784,5.357,8.68,5.879,8.68h1.43l0.459-1.355
		c0.248-0.731,0.59-1.41,1.017-2.017C9.213,4.7,9.696,4.192,10.261,3.754c0.543-0.421,1.152-0.75,1.812-0.98
		c0.66-0.229,1.335-0.341,2.062-0.341c0.963,0,1.831,0.179,2.652,0.547c0.832,0.376,1.534,0.873,2.141,1.519l0.972,1.034l1.296-0.58
		c0.361-0.161,0.795-0.243,1.29-0.243c0.415,0,0.795,0.078,1.164,0.238c0.404,0.176,0.749,0.404,1.054,0.698
		c0.303,0.292,0.548,0.638,0.751,1.058c0.142,0.296,0.247,0.608,0.318,0.945c0.403-0.073,0.817-0.113,1.24-0.113
		c0.262,0,0.52,0.016,0.775,0.044c-0.098-0.62-0.276-1.201-0.536-1.743c-0.302-0.628-0.689-1.171-1.164-1.629
		c-0.475-0.457-1.022-0.821-1.642-1.091c-0.62-0.27-1.271-0.404-1.96-0.404c-0.781,0-1.485,0.14-2.105,0.417
		c-0.785-0.834-1.711-1.491-2.779-1.973c-1.072-0.48-2.228-0.721-3.468-0.721c-0.949,0-1.853,0.151-2.718,0.452
		c-0.869,0.302-1.661,0.731-2.377,1.286c-0.72,0.557-1.347,1.217-1.887,1.985S6.189,5.771,5.879,6.686
		c-0.815,0-1.585,0.17-2.3,0.513C2.859,7.543,2.235,8,1.703,8.571C1.171,9.143,0.754,9.813,0.455,10.58
		C0.153,11.347,0,12.165,0,13.03c0,0.882,0.153,1.707,0.455,2.474c0.299,0.767,0.716,1.441,1.248,2.021
		c0.532,0.58,1.156,1.032,1.875,1.359c0.716,0.327,1.485,0.49,2.3,0.49h0.854V17.379z"/>
	<path style="fill:#66A2D8;" d="M22.034,14.62c0,0.551,0.447,0.997,0.997,0.997c0.551,0,0.997-0.447,0.997-0.997l-0.008-0.1
		c0-1.65,1.342-2.992,2.992-2.992c1.65,0,2.992,1.342,2.992,2.992s-1.342,2.992-2.992,2.992l-0.352,0h-7.012
		c-0.551,0-0.997,0.447-0.997,0.997s0.447,0.997,0.997,0.997h7.012h0.352c2.754,0,4.987-2.233,4.987-4.987s-2.233-4.987-4.987-4.987
		s-4.987,2.233-4.987,4.987L22.034,14.62z"/>
	<path style="fill:#66A2D8;" d="M14.845,26.474c0-0.551,0.447-0.997,0.997-0.997c0.551,0,0.997,0.447,0.997,0.997l-0.008,0.1
		c0,1.65,1.342,2.992,2.992,2.992c1.65,0,2.992-1.342,2.992-2.992c0-1.65-1.342-2.992-2.992-2.992l-0.352,0H8.104
		c-0.551,0-0.997-0.447-0.997-0.997c0-0.551,0.447-0.997,0.997-0.997h11.368h0.352c2.754,0,4.987,2.233,4.987,4.987
		s-2.233,4.987-4.987,4.987s-4.987-2.233-4.987-4.987L14.845,26.474z"/>
	<path style="fill:#66A2D8;" d="M16.767,14.89l0.444,0.834l-1.305,0.695l0.139,1.484l-0.953,0.072l-0.146-1.516l-0.682-0.377
		l-0.192,0.483h-0.874v1.033l1.285,0.847l-0.537,0.801l-1.218-0.828l-1.239,0.828l-0.536-0.801l1.284-0.841v-1.04h-0.874
		l-0.191-0.483l-0.682,0.377l-0.146,1.516l-0.954-0.072l0.146-1.484l-1.311-0.695l0.444-0.834l1.377,0.722l0.787-0.418l-0.191-0.497
		l0.191-0.497l-0.801-0.437l-1.364,0.728l-0.444-0.855l1.311-0.695L9.389,11.48l0.954-0.093l0.146,1.543l0.682,0.371l0.191-0.47
		h0.868V11.99l-1.278-0.854l0.536-0.788l1.225,0.808l1.245-0.808l0.524,0.788l-1.299,0.868v0.828h0.888l0.192,0.47l0.682-0.371
		l0.146-1.543l0.953,0.093l-0.139,1.463l1.305,0.695l-0.444,0.855l-1.358-0.728l-0.802,0.437l0.192,0.497l-0.192,0.497l0.802,0.418
		L16.767,14.89z M13.429,15.612l0.351-0.914l-0.351-0.92h-1.417l-0.358,0.92l0.358,0.914H13.429z"/>
</g>
</svg>
