<?xml version="1.0" encoding="utf-8"?>
<!-- Generator: Adobe Illustrator 17.1.0, SVG Export Plug-In . SVG Version: 6.00 Build 0)  -->
<!DOCTYPE svg PUBLIC "-//W3C//DTD SVG 1.1//EN" "http://www.w3.org/Graphics/SVG/1.1/DTD/svg11.dtd">
<svg version="1.1" id="Layer_1" xmlns="http://www.w3.org/2000/svg" xmlns:xlink="http://www.w3.org/1999/xlink" x="0px" y="0px" viewBox="0 0 32 32" style="enable-background:new 0 0 32 32;" xml:space="preserve" width="32px" height="32px" fill="#333">
<g>
	<path style="fill:#F05051;" d="M19.37,21.096v-5.859c-0.138-0.053-0.274-0.113-0.405-0.181c-0.474-0.249-0.883-0.57-1.22-0.958
		c-0.074-0.084-0.143-0.171-0.21-0.261v8.039l0.295,0.274c0.478,0.45,0.847,0.967,1.107,1.55c0.26,0.584,0.39,1.206,0.39,1.867
		c0,0.633-0.123,1.23-0.369,1.793c-0.246,0.563-0.577,1.054-0.991,1.476c-0.415,0.422-0.904,0.752-1.466,0.991
		c-0.562,0.239-1.16,0.359-1.793,0.359c-0.647,0-1.252-0.12-1.814-0.359c-0.562-0.239-1.051-0.569-1.466-0.991
		c-0.415-0.422-0.745-0.914-0.991-1.476c-0.246-0.562-0.369-1.16-0.369-1.793c0-0.661,0.13-1.283,0.39-1.867
		c0.26-0.583,0.629-1.1,1.107-1.55l0.295-0.274V4.049V4.007V3.923c0-0.548,0.253-1.019,0.759-1.413
		c0.576-0.464,1.272-0.696,2.088-0.696c0.394,0,0.77,0.06,1.128,0.179c0.359,0.12,0.671,0.292,0.938,0.517
		c0.506,0.408,0.759,0.879,0.759,1.413c0,0.014,0,0.025,0,0.032c0,0.007,0,0.025,0,0.053v4.946c0.317-0.51,0.668-1.043,1.051-1.592
		c0.253-0.361,0.516-0.749,0.784-1.158V4.07V3.923c0-0.548-0.127-1.065-0.379-1.55c-0.253-0.485-0.612-0.917-1.076-1.297
		c-0.436-0.351-0.928-0.619-1.476-0.801C15.891,0.092,15.314,0,14.71,0c-0.619,0-1.202,0.092-1.75,0.274
		c-0.548,0.183-1.041,0.45-1.476,0.801c-0.464,0.394-0.819,0.83-1.065,1.308c-0.246,0.478-0.369,0.991-0.369,1.54V4.07v17.026
		c-0.577,0.591-1.02,1.276-1.329,2.056c-0.31,0.78-0.464,1.586-0.464,2.415c0,0.9,0.169,1.737,0.506,2.51
		c0.337,0.774,0.798,1.455,1.381,2.046c0.583,0.591,1.265,1.051,2.046,1.381C12.97,31.835,13.81,32,14.71,32
		c0.886,0,1.719-0.165,2.499-0.496c0.78-0.331,1.462-0.791,2.046-1.381c0.583-0.591,1.044-1.272,1.381-2.046
		c0.337-0.773,0.506-1.61,0.506-2.51c0-0.829-0.151-1.635-0.453-2.415C20.386,22.372,19.947,21.687,19.37,21.096z"/>
	<path style="fill:#66A2D8;" d="M20.64,14.312c-0.413-0.031-0.788-0.135-1.126-0.311c-0.336-0.177-0.629-0.405-0.873-0.684
		c-0.246-0.28-0.435-0.602-0.566-0.968c-0.131-0.365-0.178-0.751-0.144-1.156c0.03-0.454,0.205-0.944,0.522-1.465
		c0.319-0.521,0.688-1.083,1.108-1.685c0.279-0.397,0.569-0.827,0.869-1.287c0.3-0.46,0.585-0.945,0.853-1.452
		c0.184,0.551,0.388,1.072,0.617,1.564s0.458,0.954,0.691,1.387c0.341,0.662,0.626,1.273,0.851,1.835
		c0.224,0.562,0.325,1.074,0.297,1.538c-0.025,0.399-0.127,0.771-0.3,1.112c-0.175,0.342-0.402,0.635-0.68,0.881
		c-0.281,0.246-0.602,0.431-0.966,0.555C21.429,14.301,21.045,14.345,20.64,14.312z"/>
	<path style="fill:#F05051;" d="M14.709,28.186c-0.379,0-0.716-0.065-1.032-0.199c-0.322-0.137-0.59-0.317-0.821-0.553
		c-0.242-0.246-0.438-0.54-0.585-0.875c-0.136-0.31-0.202-0.634-0.202-0.991c0-0.381,0.071-0.725,0.217-1.052
		c0.152-0.342,0.366-0.639,0.652-0.909l0.924-0.858V4.078l0.008-0.007c0.222-0.179,0.48-0.258,0.839-0.258
		c0.176,0,0.343,0.026,0.497,0.077c0.116,0.039,0.209,0.088,0.282,0.149c0,0,0.039,0.032,0.047,0.039v18.67l0.934,0.868
		c0.279,0.263,0.489,0.557,0.642,0.9c0.146,0.327,0.217,0.671,0.217,1.051c0,0.357-0.066,0.681-0.202,0.991
		c-0.146,0.335-0.343,0.63-0.585,0.876c-0.231,0.235-0.5,0.415-0.821,0.552C15.404,28.121,15.074,28.186,14.709,28.186z"/>
</g>
</svg>
