<?xml version="1.0" encoding="utf-8"?>
<!-- Generator: Adobe Illustrator 17.1.0, SVG Export Plug-In . SVG Version: 6.00 Build 0)  -->
<!DOCTYPE svg PUBLIC "-//W3C//DTD SVG 1.1//EN" "http://www.w3.org/Graphics/SVG/1.1/DTD/svg11.dtd">
<svg version="1.1" id="Layer_1" xmlns="http://www.w3.org/2000/svg" xmlns:xlink="http://www.w3.org/1999/xlink" x="0px" y="0px" viewBox="0 0 32 32" style="enable-background:new 0 0 32 32;" xml:space="preserve" width="32px" height="32px" fill="#333">
<g>
	<path style="fill:#66A2D8;" d="M11.331,30.006c-0.459,0.002-0.882-0.08-1.272-0.245c-0.387-0.166-0.731-0.392-1.025-0.68
		c-0.297-0.288-0.533-0.627-0.71-1.021c-0.176-0.392-0.263-0.815-0.26-1.265c-0.007-0.505,0.144-1.061,0.449-1.665
		c0.307-0.604,0.665-1.258,1.077-1.96c0.274-0.463,0.557-0.964,0.848-1.498c0.291-0.535,0.564-1.096,0.815-1.68
		c0.251,0.593,0.523,1.151,0.819,1.675c0.296,0.524,0.59,1.015,0.885,1.472c0.435,0.702,0.803,1.353,1.102,1.953
		c0.297,0.602,0.453,1.159,0.464,1.674c0.007,0.443-0.072,0.864-0.234,1.256c-0.164,0.393-0.388,0.737-0.675,1.033
		c-0.289,0.296-0.627,0.529-1.019,0.698C12.202,29.925,11.781,30.007,11.331,30.006z"/>
	<path style="fill:#66A2D8;" d="M23.342,17.102l0.499,0.937l-1.466,0.781l0.156,1.667l-1.071,0.081l-0.164-1.704l-0.766-0.424
		l-0.216,0.543h-0.982v1.161l1.444,0.952l-0.603,0.9l-1.368-0.93l-1.392,0.93l-0.602-0.9l1.443-0.945v-1.168H17.27l-0.215-0.543
		l-0.766,0.424l-0.164,1.704l-1.072-0.081l0.164-1.667l-1.473-0.781l0.499-0.937l1.547,0.811l0.885-0.469l-0.215-0.558l0.215-0.558
		l-0.9-0.491l-1.532,0.818l-0.499-0.96l1.473-0.781l-0.164-1.644l1.072-0.105l0.164,1.734l0.766,0.417l0.215-0.528h0.975v-0.945
		l-1.436-0.96l0.602-0.885l1.377,0.907l1.399-0.907l0.588,0.885l-1.459,0.975v0.93h0.998l0.216,0.528l0.766-0.417l0.164-1.734
		l1.071,0.105l-0.156,1.644l1.466,0.781l-0.499,0.96l-1.525-0.818l-0.901,0.491l0.216,0.558l-0.216,0.558l0.901,0.469L23.342,17.102
		z M19.591,17.913l0.394-1.027l-0.394-1.034H18l-0.402,1.034L18,17.913H19.591z"/>
	<path style="fill:#66A2D8;" d="M31.693,13.192c-0.203-0.604-0.491-1.157-0.86-1.658c-0.368-0.499-0.802-0.929-1.301-1.289
		c-0.499-0.359-1.044-0.622-1.631-0.785c-0.084-0.737-0.276-1.42-0.579-2.051c-0.303-0.629-0.691-1.174-1.167-1.633
		c-0.476-0.459-1.025-0.823-1.646-1.094c-0.622-0.271-1.274-0.405-1.965-0.405c-0.783,0-1.489,0.14-2.111,0.418
		c-0.787-0.837-1.715-1.495-2.786-1.978c-1.074-0.482-2.233-0.723-3.477-0.723c-0.952,0-1.857,0.152-2.725,0.453
		C10.576,2.75,9.781,3.18,9.064,3.736c-0.721,0.558-1.351,1.22-1.892,1.99S6.205,7.34,5.894,8.257c-0.817,0-1.589,0.171-2.306,0.514
		c-0.721,0.345-1.347,0.804-1.88,1.376c-0.533,0.574-0.952,1.245-1.251,2.015C0.153,12.931,0,13.75,0,14.617
		c0,0.885,0.153,1.711,0.457,2.481c0.299,0.769,0.718,1.445,1.251,2.026s1.159,1.034,1.88,1.362
		c0.718,0.328,1.489,0.491,2.306,0.491H6.75v-2H5.894c-0.536,0-1.018-0.101-1.475-0.31c-0.483-0.219-0.886-0.512-1.238-0.896
		c-0.37-0.403-0.651-0.861-0.861-1.399C2.104,15.823,2,15.251,2,14.617C2,14,2.104,13.437,2.317,12.894
		c0.211-0.542,0.49-0.993,0.855-1.386c0.364-0.39,0.783-0.696,1.279-0.933c0.447-0.214,0.919-0.318,1.443-0.318h1.434l0.46-1.358
		c0.248-0.733,0.592-1.413,1.02-2.022c0.429-0.61,0.913-1.12,1.48-1.558c0.544-0.422,1.155-0.752,1.816-0.982
		c0.662-0.23,1.338-0.342,2.067-0.342c0.966,0,1.835,0.179,2.659,0.548c0.834,0.377,1.538,0.876,2.147,1.523l0.975,1.037
		l1.299-0.581c0.362-0.162,0.797-0.244,1.294-0.244c0.416,0,0.797,0.078,1.167,0.239c0.405,0.176,0.751,0.405,1.057,0.7
		c0.303,0.292,0.55,0.639,0.753,1.061c0.205,0.427,0.334,0.889,0.394,1.41l0.153,1.339l1.298,0.361
		c0.361,0.1,0.687,0.258,0.998,0.481c0.33,0.238,0.612,0.519,0.86,0.854c0.244,0.332,0.438,0.705,0.573,1.107
		C29.935,14.231,30,14.655,30,15.133c0,0.543-0.084,1.027-0.258,1.48c-0.179,0.465-0.424,0.884-0.728,1.244
		c-0.285,0.335-0.609,0.596-0.989,0.793c-0.355,0.184-0.727,0.292-1.138,0.328H25.25v2h1.715c0.706-0.05,1.366-0.234,1.98-0.553
		c0.614-0.319,1.144-0.744,1.596-1.278c0.449-0.531,0.806-1.138,1.067-1.817C31.87,16.651,32,15.918,32,15.133
		C32,14.445,31.9,13.798,31.693,13.192z"/>
</g>
</svg>
