<?xml version="1.0" encoding="utf-8"?>
<!-- Generator: Adobe Illustrator 17.1.0, SVG Export Plug-In . SVG Version: 6.00 Build 0)  -->
<!DOCTYPE svg PUBLIC "-//W3C//DTD SVG 1.1//EN" "http://www.w3.org/Graphics/SVG/1.1/DTD/svg11.dtd">
<svg version="1.1" id="Layer_1" xmlns="http://www.w3.org/2000/svg" xmlns:xlink="http://www.w3.org/1999/xlink" x="0px" y="0px" viewBox="0 0 32 32" style="enable-background:new 0 0 32 32;" xml:space="preserve" width="32px" height="32px" fill="#333">
<g>
	<path style="fill:#66A2D8;" d="M31.693,13.707c-0.203-0.604-0.491-1.157-0.86-1.658c-0.368-0.499-0.802-0.929-1.301-1.289
		c-0.499-0.359-1.044-0.622-1.631-0.785c-0.084-0.737-0.276-1.42-0.579-2.051c-0.303-0.629-0.691-1.174-1.167-1.633
		c-0.476-0.459-1.025-0.823-1.646-1.094c-0.622-0.271-1.274-0.405-1.965-0.405c-0.783,0-1.489,0.14-2.111,0.418
		c-0.787-0.837-1.715-1.495-2.786-1.978c-1.074-0.482-2.233-0.723-3.477-0.723c-0.952,0-1.857,0.152-2.725,0.453
		c-0.871,0.303-1.665,0.733-2.383,1.289c-0.721,0.558-1.351,1.22-1.892,1.99S6.205,7.855,5.894,8.772
		c-0.817,0-1.589,0.171-2.306,0.514c-0.721,0.345-1.347,0.804-1.88,1.376c-0.533,0.574-0.952,1.245-1.251,2.015
		C0.153,13.446,0,14.265,0,15.133c0,0.885,0.153,1.711,0.457,2.481c0.299,0.769,0.718,1.445,1.251,2.026s1.159,1.034,1.88,1.362
		c0.718,0.328,1.489,0.491,2.306,0.491H6.75v-2H5.894c-0.536,0-1.018-0.101-1.475-0.31c-0.483-0.219-0.886-0.512-1.238-0.896
		c-0.37-0.403-0.651-0.861-0.861-1.399C2.104,16.338,2,15.766,2,15.133c0-0.617,0.104-1.181,0.317-1.723
		c0.211-0.542,0.49-0.993,0.855-1.386c0.364-0.39,0.783-0.696,1.279-0.933c0.447-0.214,0.919-0.318,1.443-0.318h1.434l0.46-1.358
		c0.248-0.733,0.592-1.413,1.02-2.022c0.429-0.61,0.913-1.12,1.48-1.558c0.544-0.422,1.155-0.752,1.816-0.982
		c0.662-0.23,1.338-0.342,2.067-0.342c0.966,0,1.835,0.179,2.659,0.548c0.834,0.377,1.538,0.876,2.147,1.523l0.975,1.037
		l1.299-0.581c0.362-0.162,0.797-0.244,1.294-0.244c0.416,0,0.797,0.078,1.167,0.239c0.405,0.176,0.751,0.405,1.057,0.7
		c0.303,0.292,0.55,0.639,0.753,1.061c0.205,0.427,0.334,0.889,0.394,1.41l0.153,1.339l1.298,0.361
		c0.361,0.1,0.687,0.258,0.998,0.481c0.33,0.238,0.612,0.519,0.86,0.854c0.244,0.332,0.438,0.705,0.573,1.107
		C29.935,14.747,30,15.17,30,15.649c0,0.543-0.084,1.027-0.258,1.48c-0.179,0.465-0.424,0.884-0.728,1.244
		c-0.285,0.335-0.609,0.596-0.989,0.793c-0.355,0.184-0.727,0.292-1.138,0.328H25.25v2h1.715c0.706-0.05,1.366-0.234,1.98-0.553
		c0.614-0.319,1.144-0.744,1.596-1.278c0.449-0.531,0.806-1.138,1.067-1.817C31.87,17.166,32,16.433,32,15.649
		C32,14.96,31.9,14.313,31.693,13.707z"/>
	<path style="fill:#66A2D8;" d="M22.15,29.491H9.65c-0.552,0-1-0.448-1-1s0.448-1,1-1h12.5c0.552,0,1,0.448,1,1
		S22.702,29.491,22.15,29.491z"/>
	<path style="fill:#66A2D8;" d="M22.15,21.48H9.65c-0.552,0-1-0.448-1-1s0.448-1,1-1h12.5c0.552,0,1,0.448,1,1
		S22.702,21.48,22.15,21.48z"/>
	<path style="fill:#66A2D8;" d="M24.449,25.48H7.526c-0.552,0-1-0.448-1-1s0.448-1,1-1h16.923c0.552,0,1,0.448,1,1
		S25.001,25.48,24.449,25.48z"/>
</g>
</svg>
