<?xml version="1.0" encoding="utf-8"?>
<!-- Generator: Adobe Illustrator 16.2.1, SVG Export Plug-In . SVG Version: 6.00 Build 0)  -->
<!DOCTYPE svg PUBLIC "-//W3C//DTD SVG 1.1//EN" "http://www.w3.org/Graphics/SVG/1.1/DTD/svg11.dtd">
<svg version="1.1" xmlns="http://www.w3.org/2000/svg" xmlns:xlink="http://www.w3.org/1999/xlink" x="0px" y="0px" viewBox="0 0 32 32" enable-background="new 0 0 32 32" xml:space="preserve" width="32px" height="32px" fill="#333">
<g id="Font">
	<g>
		<path d="M6.287,15.232c-0.473,0-0.921-0.097-1.346-0.292s-0.791-0.46-1.099-0.797c-0.307-0.336-0.549-0.729-0.726-1.178
			s-0.266-0.927-0.266-1.435c0-0.507,0.089-0.985,0.266-1.434s0.419-0.844,0.726-1.187C4.15,8.568,4.517,8.303,4.941,8.114
			s0.873-0.283,1.346-0.283c0.177-0.543,0.431-1.113,0.762-1.709c0.33-0.596,0.743-1.142,1.239-1.638
			c0.496-0.496,1.065-0.903,1.709-1.222s1.378-0.478,2.204-0.478c0.862,0,1.627,0.1,2.294,0.301
			c0.667,0.201,1.254,0.469,1.762,0.806s0.938,0.714,1.293,1.133c0.354,0.419,0.643,0.841,0.867,1.266
			c0.225,0.425,0.393,0.835,0.505,1.231s0.186,0.735,0.222,1.018c0.779,0,1.422,0.098,1.93,0.292s0.918,0.446,1.23,0.752
			c0.313,0.307,0.534,0.658,0.664,1.054s0.195,0.794,0.195,1.195c0,0.035-0.006,0.068-0.018,0.097
			c-0.012,0.03-0.018,0.062-0.018,0.098c-0.118-0.023-0.245-0.036-0.381-0.036s-0.269,0-0.398,0c-0.153,0-0.301,0-0.443,0
			c-0.142,0-0.283,0.012-0.425,0.036c-0.484-0.354-1.026-0.673-1.629-0.957c-0.566-0.259-1.143-0.448-1.727-0.566
			s-1.189-0.177-1.815-0.177c-0.472,0-0.944,0.036-1.416,0.106c-0.473,0.071-0.938,0.195-1.399,0.372
			c-0.861,0.295-1.677,0.738-2.443,1.328c-0.354,0.26-0.69,0.558-1.01,0.895c-0.318,0.336-0.608,0.693-0.867,1.071
			c-0.118,0.177-0.23,0.348-0.337,0.514s-0.207,0.336-0.301,0.513c-0.06,0.024-0.115,0.042-0.168,0.053
			c-0.054,0.012-0.109,0.03-0.169,0.053H6.287z M26.209,18.278c0.425,0.118,0.817,0.307,1.178,0.566
			c0.359,0.26,0.673,0.57,0.938,0.93c0.266,0.36,0.472,0.759,0.619,1.195c0.147,0.437,0.222,0.903,0.222,1.399
			c0,0.566-0.095,1.095-0.283,1.584c-0.189,0.49-0.445,0.927-0.771,1.311c-0.324,0.384-0.708,0.691-1.15,0.921
			c-0.443,0.23-0.919,0.363-1.426,0.398H10.342c-0.59,0-1.145-0.118-1.664-0.354s-0.972-0.564-1.354-0.983
			c-0.384-0.419-0.686-0.906-0.903-1.461c-0.219-0.555-0.328-1.151-0.328-1.789c0-0.625,0.109-1.216,0.328-1.771
			c0.218-0.555,0.52-1.039,0.903-1.452c0.383-0.413,0.835-0.744,1.354-0.992c0.52-0.248,1.074-0.372,1.664-0.372
			c0.225-0.661,0.531-1.269,0.921-1.824c0.39-0.555,0.845-1.033,1.364-1.434c0.519-0.401,1.092-0.711,1.718-0.93
			c0.625-0.218,1.28-0.328,1.965-0.328c0.897,0,1.732,0.174,2.506,0.522s1.443,0.823,2.01,1.425
			c0.449-0.201,0.957-0.301,1.523-0.301c0.496,0,0.968,0.097,1.416,0.292c0.449,0.195,0.845,0.458,1.187,0.788
			c0.343,0.331,0.623,0.723,0.842,1.178C26.011,17.254,26.149,17.747,26.209,18.278z"/>
	</g>
</g>
</svg>
