<?xml version="1.0" encoding="utf-8"?>
<!-- Generator: Adobe Illustrator 17.1.0, SVG Export Plug-In . SVG Version: 6.00 Build 0)  -->
<!DOCTYPE svg PUBLIC "-//W3C//DTD SVG 1.1//EN" "http://www.w3.org/Graphics/SVG/1.1/DTD/svg11.dtd">
<svg version="1.1" id="Layer_1" xmlns="http://www.w3.org/2000/svg" xmlns:xlink="http://www.w3.org/1999/xlink" x="0px" y="0px" viewBox="0 0 32 32" style="enable-background:new 0 0 32 32;" xml:space="preserve" width="32px" height="32px" fill="#333">
<g>
	<path style="fill:#66A2D8;" d="M13.029,14.411l-1.322-0.731l-0.373,0.937H9.64v2.003l-1.861,0.013v-2.016H6.083l-0.371-0.937
		l-1.322,0.731L4.108,17.35l-1.849-0.14l0.283-2.876L0,12.985l0.86-1.617l2.67,1.399l1.526-0.809l-0.371-0.963l0.371-0.963
		L3.504,9.187l-2.643,1.412L0,8.942l2.541-1.348L2.259,4.758l1.849-0.181l0.283,2.992l1.322,0.719l0.371-0.912h1.683V5.746
		L5.289,4.09l1.039-1.527l2.375,1.565l2.413-1.565l1.015,1.527L9.613,5.772v1.605h1.721l0.373,0.912l1.322-0.719l0.283-2.992
		l1.847,0.181L14.89,7.594l2.529,1.348l-0.86,1.657l-2.631-1.412l-1.554,0.846l0.373,0.963l-0.373,0.963l1.554,0.809L13.029,14.411z
		 M10.089,12.768l0.68-1.772l-0.68-1.784H7.343l-0.694,1.784l0.694,1.772H10.089z"/>
	<g>
		<path style="fill:#66A2D8;" d="M18.042,12.483c0,0.552,0.448,1,1,1s1-0.448,1-1l-0.008-0.1c0-1.654,1.346-3,3-3
			c1.654,0,3,1.346,3,3s-1.346,3-3,3l-0.353,0H16.1c-0.552,0-1,0.448-1,1c0,0.552,0.448,1,1,1h6.58h0.353c2.761,0,5-2.239,5-5
			s-2.239-5-5-5s-5,2.239-5,5L18.042,12.483z"/>
		<path style="fill:#66A2D8;" d="M22.008,24.268c0-0.552,0.448-1,1-1s1,0.448,1,1L24,24.368c0,1.654,1.346,3,3,3s3-1.346,3-3
			s-1.346-3-3-3l-0.353,0H1c-0.552,0-1-0.448-1-1s0.448-1,1-1h25.647H27c2.761,0,5,2.239,5,5s-2.239,5-5,5s-5-2.239-5-5
			L22.008,24.268z"/>
		<path style="fill:#66A2D8;" d="M17.886,28.334c0-1.654-1.346-3-3-3l-9.898,0c-0.551,0-0.998-0.447-0.998-0.998
			c0-0.551,0.447-1.002,0.998-1.002h9.898c2.761,0,5,2.239,5,5v0.104c0,0.552-0.448,1-1,1s-1-0.448-1-1V28.334z"/>
	</g>
</g>
</svg>
