<?xml version="1.0" encoding="utf-8"?>
<!-- Generator: Adobe Illustrator 17.1.0, SVG Export Plug-In . SVG Version: 6.00 Build 0)  -->
<!DOCTYPE svg PUBLIC "-//W3C//DTD SVG 1.1//EN" "http://www.w3.org/Graphics/SVG/1.1/DTD/svg11.dtd">
<svg version="1.1" id="Layer_1" xmlns="http://www.w3.org/2000/svg" xmlns:xlink="http://www.w3.org/1999/xlink" x="0px" y="0px" viewBox="0 0 32 32" style="enable-background:new 0 0 32 32;" xml:space="preserve" width="32px" height="32px" fill="#333">
<path style="fill:#F58356;" d="M30.747,9.784c-0.838-1.94-1.983-3.636-3.437-5.091c-1.455-1.455-3.151-2.602-5.091-3.438
	C20.278,0.42,18.207,0,16,0c-2.23,0-4.31,0.42-6.236,1.256C7.838,2.091,6.145,3.239,4.69,4.693C3.236,6.148,2.091,7.844,1.256,9.784
	C0.418,11.722,0,13.795,0,16c0,2.233,0.418,4.31,1.256,6.239c0.835,1.926,1.98,3.616,3.435,5.071s3.148,2.599,5.074,3.437
	C11.69,31.582,13.77,32,16,32c2.207,0,4.278-0.418,6.219-1.253c1.94-0.838,3.636-1.983,5.091-3.437
	c1.455-1.455,2.599-3.145,3.437-5.071C31.582,20.31,32,18.233,32,16C32,13.795,31.582,11.722,30.747,9.784z M28.117,21.1
	c-0.689,1.583-1.643,2.992-2.834,4.183c-1.19,1.19-2.603,2.143-4.2,2.833c-1.59,0.685-3.254,1.018-5.083,1.018
	c-1.826,0-3.541-0.342-5.096-1.016c-1.588-0.691-2.998-1.645-4.187-2.835c-1.192-1.192-2.145-2.6-2.832-4.185
	C3.199,19.519,2.866,17.852,2.866,16c0-1.804,0.343-3.513,1.02-5.078C4.574,9.323,5.526,7.91,6.717,6.72
	c1.194-1.194,2.602-2.147,4.187-2.835c1.56-0.676,3.274-1.019,5.096-1.019c1.824,0,3.488,0.334,5.086,1.022
	c1.591,0.685,3.004,1.638,4.197,2.832c1.19,1.19,2.143,2.603,2.833,4.201c0.675,1.566,1.018,3.276,1.018,5.08
	C29.134,17.851,28.802,19.519,28.117,21.1z"/>
</svg>
