<?xml version="1.0" encoding="utf-8"?>
<!-- Generator: Adobe Illustrator 17.1.0, SVG Export Plug-In . SVG Version: 6.00 Build 0)  -->
<!DOCTYPE svg PUBLIC "-//W3C//DTD SVG 1.1//EN" "http://www.w3.org/Graphics/SVG/1.1/DTD/svg11.dtd">
<svg version="1.1" id="Layer_1" xmlns="http://www.w3.org/2000/svg" xmlns:xlink="http://www.w3.org/1999/xlink" x="0px" y="0px" viewBox="0 0 32 32" style="enable-background:new 0 0 32 32;" xml:space="preserve" width="32px" height="32px" fill="#333">
<g>
	<path style="fill:#66A2D8;" d="M31.718,24.314c-0.187-0.555-0.451-1.062-0.789-1.522c-0.338-0.458-0.736-0.853-1.194-1.184
		c-0.458-0.329-0.958-0.571-1.497-0.72c-0.078-0.676-0.254-1.304-0.532-1.883c-0.278-0.578-0.634-1.078-1.071-1.499
		c-0.437-0.421-0.941-0.756-1.511-1.004c-0.571-0.248-1.17-0.372-1.804-0.372c-0.719,0-1.367,0.129-1.938,0.384
		c-0.722-0.768-1.575-1.372-2.558-1.816c-0.986-0.442-2.05-0.664-3.192-0.664c-0.874,0-1.705,0.139-2.501,0.416
		c-0.8,0.278-1.529,0.673-2.188,1.184c-0.662,0.513-1.24,1.12-1.737,1.827c-0.497,0.706-0.888,1.481-1.173,2.323
		c-0.75,0-1.459,0.157-2.117,0.472c-0.662,0.317-1.237,0.738-1.726,1.263c-0.49,0.527-0.874,1.143-1.149,1.85
		c-0.278,0.706-0.419,1.459-0.419,2.255c0,0.812,0.141,1.571,0.419,2.278c0.275,0.706,0.659,1.326,1.149,1.86
		s1.064,0.949,1.726,1.251c0.659,0.301,1.367,0.451,2.117,0.451h17.771h0.107h1.468c0.648-0.046,1.254-0.215,1.818-0.507
		c0.564-0.292,1.05-0.683,1.466-1.173c0.412-0.488,0.74-1.045,0.979-1.668C31.88,27.49,32,26.818,32,26.097
		C32,25.465,31.908,24.871,31.718,24.314z M29.716,27.375c-0.155,0.404-0.367,0.766-0.63,1.077c-0.242,0.285-0.518,0.506-0.84,0.674
		c-0.296,0.154-0.608,0.244-0.951,0.276H8.032c-0.459,0-0.871-0.086-1.26-0.264c-0.415-0.189-0.762-0.44-1.065-0.77
		c-0.32-0.349-0.564-0.746-0.746-1.214c-0.189-0.479-0.279-0.977-0.279-1.53c0-0.538,0.09-1.028,0.276-1.499
		c0.184-0.472,0.425-0.862,0.74-1.202c0.314-0.336,0.677-0.601,1.107-0.807c0.38-0.182,0.781-0.27,1.227-0.27H9.51l0.474-1.4
		c0.221-0.653,0.526-1.258,0.907-1.799c0.381-0.541,0.81-0.994,1.312-1.382c0.487-0.378,1.011-0.661,1.604-0.867
		c0.583-0.203,1.18-0.301,1.824-0.301c0.854,0,1.622,0.158,2.349,0.484c0.738,0.333,1.361,0.775,1.899,1.347l1.005,1.069
		l1.339-0.599c0.303-0.135,0.671-0.204,1.096-0.204c0.35,0,0.671,0.066,0.981,0.2c0.347,0.151,0.642,0.347,0.904,0.598
		c0.259,0.25,0.47,0.547,0.644,0.909c0.177,0.369,0.289,0.77,0.341,1.223l0.158,1.38l1.338,0.372
		c0.305,0.085,0.582,0.218,0.845,0.408c0.283,0.205,0.526,0.446,0.74,0.735c0.213,0.29,0.375,0.603,0.494,0.955
		c0.118,0.346,0.174,0.711,0.174,1.125C29.938,26.568,29.866,26.986,29.716,27.375z"/>
	<path style="fill:#F58356;" d="M11.289,3.645c0.334-0.012,0.663,0.001,0.985,0.029L11.46,0.951
		C11.293,0.392,11.056,0.4,10.928,0.97l-0.621,2.773C10.629,3.693,10.955,3.657,11.289,3.645z"/>
	<path style="fill:#F58356;" d="M6.286,5.51c0.513-0.411,1.068-0.767,1.667-1.055L5.891,2.513C5.466,2.112,5.26,2.239,5.434,2.798
		L6.286,5.51z"/>
	<path style="fill:#F58356;" d="M3.682,9.041c0.241-0.618,0.559-1.195,0.936-1.734l-2.77-0.654c-0.567-0.14-0.682,0.075-0.254,0.471
		L3.682,9.041z"/>
	<path style="fill:#F58356;" d="M19.26,8.49l1.946-2.06c0.401-0.425,0.272-0.632-0.286-0.452l-2.714,0.848
		C18.618,7.337,18.978,7.891,19.26,8.49z"/>
	<path style="fill:#F58356;" d="M16.412,5.152l0.656-2.766c0.134-0.57-0.08-0.682-0.474-0.252l-1.918,2.083
		C15.29,4.462,15.868,4.778,16.412,5.152z"/>
	<path style="fill:#F58356;" d="M3.107,12.43c-0.012-0.337-0.002-0.665,0.029-0.986l-2.721,0.811
		c-0.559,0.168-0.551,0.406,0.019,0.533l2.772,0.62C3.151,13.087,3.118,12.76,3.107,12.43z"/>
	<path style="fill:#F58356;" d="M22.747,11.464l-2.773-0.617c0.051,0.319,0.086,0.645,0.098,0.982
		c0.012,0.33-0.001,0.659-0.029,0.982l2.723-0.814C23.325,11.831,23.317,11.592,22.747,11.464z"/>
	<path style="fill:#F58356;" d="M3.92,15.761l-1.947,2.063c-0.399,0.425-0.269,0.629,0.286,0.454l2.717-0.85
		C4.562,16.917,4.204,16.365,3.92,15.761z"/>
	<path style="fill:#F58356;" d="M7.149,16.841c0.118-0.193,0.24-0.383,0.37-0.567c0.152-0.217,0.312-0.426,0.478-0.629
		c-0.85-0.864-1.393-2.034-1.439-3.337C6.46,9.534,8.637,7.198,11.411,7.1c2.773-0.098,5.11,2.078,5.208,4.852
		c0.001,0.023,0,0.045,0.001,0.068c0.494,0.047,0.977,0.129,1.45,0.247c0.003-0.121,0.003-0.243-0.002-0.366
		c-0.126-3.574-3.136-6.376-6.708-6.249c-3.57,0.126-6.377,3.134-6.251,6.708C5.172,14.131,5.948,15.712,7.149,16.841z"/>
</g>
</svg>
