<?xml version="1.0" encoding="utf-8"?>
<!-- Generator: Adobe Illustrator 17.1.0, SVG Export Plug-In . SVG Version: 6.00 Build 0)  -->
<!DOCTYPE svg PUBLIC "-//W3C//DTD SVG 1.1//EN" "http://www.w3.org/Graphics/SVG/1.1/DTD/svg11.dtd">
<svg version="1.1" id="Layer_1" xmlns="http://www.w3.org/2000/svg" xmlns:xlink="http://www.w3.org/1999/xlink" x="0px" y="0px" viewBox="0 0 32 32" style="enable-background:new 0 0 32 32;" xml:space="preserve" width="32px" height="32px" fill="#333">
<path style="fill:#66A2D8;" d="M10.415,30.108l4.566-2.989v-5.2h-3.584l-0.864-2.181l-3.77,2.085l-0.52,5.401l-2.014-0.153
	l0.527-5.359l-4.749-2.519l0.93-1.748l4.903,2.569l4.004-2.123l-0.874-2.267l0.871-2.259l-4.051-2.208l-4.849,2.59L0,11.935
	l4.757-2.523L4.228,4.114l2.015-0.197l0.519,5.49l3.765,2.048l0.864-2.122h3.566V4.894l-4.541-3.035l1.132-1.664l4.435,2.924
	l4.506-2.924l1.102,1.659l-4.627,3.091v4.388h3.642l0.868,2.121l3.764-2.048l0.519-5.49l2.014,0.197l-0.502,5.297L32,11.933
	l-0.942,1.813l-4.825-2.589l-4.057,2.209l0.875,2.259l-0.88,2.271l4.069,2.118l4.824-2.565l0.929,1.745l-4.723,2.517l0.501,5.359
	l-2.014,0.153l-0.52-5.401l-3.769-2.084L20.6,21.919h-3.585v5.173l4.57,3.014L20.45,31.8l-4.409-2.997l-4.491,3.001L10.415,30.108z
	 M11.089,15.626l1.678,4.284h6.494l1.644-4.284l-1.642-4.309h-6.497L11.089,15.626z"/>
</svg>
