<?xml version="1.0" encoding="utf-8"?>
<!-- Generator: Adobe Illustrator 18.0.0, SVG Export Plug-In . SVG Version: 6.00 Build 0)  -->
<!DOCTYPE svg PUBLIC "-//W3C//DTD SVG 1.1//EN" "http://www.w3.org/Graphics/SVG/1.1/DTD/svg11.dtd">
<svg version="1.1" id="Layer_1" xmlns="http://www.w3.org/2000/svg" xmlns:xlink="http://www.w3.org/1999/xlink" x="0px" y="0px" viewBox="0 0 32 22" enable-background="new 0 0 32 22" xml:space="preserve" width="32px" height="22px" fill="#333">
<g>
	<rect x="30.8" y="10.4" fill="#808184" width="0.5px" height="4.7px"/>
	<rect x="30.4" y="5.7" fill="#8E4613" width="1.3px" height="4.8px"/>
	<circle fill="#8E4613" cx="31" cy="5.7" r="1"/>
	<rect x="28.2" y="14.2" fill="#8E4613" width="2.6px" height="0.7px"/>
	
		<rect x="28.7" y="15.5" transform="matrix(-0.6429 0.766 -0.766 -0.6429 61.3505 2.9874)" fill="#FF824A" width="2.6px" height="0.7px"/>
	
		<rect x="26.4" y="-1" transform="matrix(0.3391 0.9407 -0.9407 0.3391 18.8981 -24.1661)" fill="#808184" width="0.5px" height="4.7px"/>
	<rect x="2" y="7" fill="#FF824A" width="7px" height="9px"/>
	<path fill="#FF824A" d="M1,16h2V9H0l0,6C0,15.5,0.5,16,1,16z"/>
	<rect x="3" y="9" width="2px" height="5px"/>
	<rect x="6" y="9" width="2px" height="5px"/>
	<path d="M3.4,22c-1,0-1.8-0.9-1.8-2s0.8-1.7,1.7-2c0.4-0.1,3.3-0.9,4-0.9s7.6,0,8.7,0c1,0,3,0.8,3.6,1c1,0.3,1.8,0.9,1.8,2
		s-0.8,2-1.8,2C18.2,22,4.4,22,3.4,22z"/>
	<rect x="4.4" y="19.3" fill="#3C3C3D" width="16px" height="1.6px"/>
	<rect x="9.3" y="15.9" width="5px" height="1.5px"/>
	<path d="M18.1,15.2c0,0,1-4.9-1.6-7.7H11V15L18.1,15.2z"/>
	<polygon fill="#FF824A" points="28.4,15.7 27,15.7 26.8,4.7 28.8,0 30.5,0 31.8,3 	"/>
	<path fill="#8E4613" d="M20.1,3C19,3,17.2,3.7,16,5.4c-0.9,1.4-5,7.6-5,7.6h3c0,0,4.6-5.1,5.6-5.9c2.2-2,8.3-2.1,8.3-2.1V3
		C27.9,3,21.2,2.9,20.1,3z"/>
	<g>
		<ellipse fill="#3C3C3D" cx="3.6" cy="20.1" rx="1.4" ry="1.4"/>
		<path d="M3.6,19c0.6,0,1.2,0.5,1.2,1.2s-0.5,1.2-1.2,1.2s-1.2-0.5-1.2-1.2S2.9,19,3.6,19 M3.6,18.5c-0.9,0-1.6,0.7-1.6,1.6
			s0.7,1.6,1.6,1.6s1.6-0.7,1.6-1.6S4.5,18.5,3.6,18.5L3.6,18.5z"/>
	</g>
	<g>
		<ellipse fill="#3C3C3D" cx="19.6" cy="20.1" rx="1.4" ry="1.4"/>
		<path d="M19.6,19c0.6,0,1.2,0.5,1.2,1.2s-0.5,1.2-1.2,1.2s-1.2-0.5-1.2-1.2S19,19,19.6,19 M19.6,18.5c-0.9,0-1.6,0.7-1.6,1.6
			s0.7,1.6,1.6,1.6s1.6-0.7,1.6-1.6S20.5,18.5,19.6,18.5L19.6,18.5z"/>
	</g>
	<polygon fill="#FF824A" points="21.1,2.9 24.6,1.5 25,2.6 24,2.9 	"/>
	<polygon fill="#808184" points="17.6,9.7 17.2,9.6 18.1,5.8 18.6,5.9 	"/>
	<polygon fill="#FF824A" points="19,16 8,16 8,9 11,9 11,13 16,13 16,14 17,14 	"/>
	<g>
		<polygon fill="#231F20" points="18.1,15.2 1.8,15.2 1.8,14.9 17.8,14.9 		"/>
	</g>
	<rect x="1.6" y="9" fill="#8E4613" width="0.4px" height="7px"/>
	<polygon fill="#FF824A" points="15.7,13.8 17,8.8 18.1,9.1 16.6,14.7 	"/>
	<circle fill="#FF824A" cx="18.4" cy="5.8" r="0.7"/>
	<circle cx="27.8" cy="16.1" r="1"/>
	<circle fill="#FF824A" cx="31" cy="14.5" r="1"/>
	<circle cx="28.6" cy="19.6" r="2.4"/>
	<circle fill="#8E4613" cx="27.8" cy="4" r="1"/>
	<polygon points="28.4,22 22.3,22 24.9,20.9 26.9,15.8 28.7,15.6 30.5,18.3 	"/>
</g>
<circle fill="#FF824A" stroke="#000000" stroke-width="0.5px" stroke-miterlimit="10" cx="12.6" cy="12.9" r="0.9"/>
</svg>
