<?xml version="1.0" encoding="utf-8"?>
<!-- Generator: Adobe Illustrator 21.1.0, SVG Export Plug-In . SVG Version: 6.00 Build 0)  -->
<svg version="1.0" id="Layer_1" xmlns="http://www.w3.org/2000/svg" xmlns:xlink="http://www.w3.org/1999/xlink" x="0px" y="0px" viewBox="0 0 32 32" style="enable-background:new 0 0 32 32;" xml:space="preserve" width="32px" height="32px" fill="#333">
<style type="text/css">
	.primary{fill:#333333;}
</style>
<path class="primary" d="M3.632,32.015c-2.011,0-3.647-1.636-3.647-3.647s1.636-3.647,3.647-3.647s3.647,1.636,3.647,3.647
	S5.643,32.015,3.632,32.015z M3.632,26.259c-1.163,0-2.109,0.946-2.109,2.109c0,1.163,0.946,2.109,2.109,2.109
	s2.11-0.946,2.11-2.109C5.741,27.205,4.795,26.259,3.632,26.259z"/>
<path class="primary" d="M28.367,7.279c-2.011,0-3.646-1.636-3.646-3.647s1.635-3.647,3.646-3.647c2.012,0,3.648,1.636,3.648,3.647
	S30.379,7.279,28.367,7.279z M28.367,1.523c-1.162,0-2.108,0.946-2.108,2.109s0.946,2.109,2.108,2.109
	c1.163,0,2.11-0.946,2.11-2.109S29.53,1.523,28.367,1.523z"/>
<rect x="6" y="23.75" transform="matrix(0.7071 -0.7071 0.7071 0.7071 -15.731 12.5221)" class="primary" width="2.5px" height="3px"/>
<rect x="9" y="20.75" transform="matrix(0.7071 -0.7071 0.7071 0.7071 -12.731 13.7647)" class="primary" width="2.5px" height="3px"/>
<rect x="12" y="17.75" transform="matrix(0.7071 -0.7071 0.7071 0.7071 -9.731 15.0074)" class="primary" width="2.5px" height="3px"/>
<rect x="15" y="14.75" transform="matrix(0.7071 -0.7071 0.7071 0.7071 -6.731 16.25)" class="primary" width="2.5px" height="3px"/>
<rect x="18" y="11.75" transform="matrix(0.7071 -0.7071 0.7071 0.7071 -3.731 17.4926)" class="primary" width="2.5px" height="3px"/>
<rect x="21" y="8.75" transform="matrix(0.7071 -0.7071 0.7071 0.7071 -0.731 18.7353)" class="primary" width="2.5px" height="3px"/>
<rect x="24" y="5.75" transform="matrix(0.7071 -0.7071 0.7071 0.7071 2.269 19.9779)" class="primary" width="2.5px" height="3px"/>
</svg>
