<?xml version="1.0" encoding="utf-8"?>
<!-- Generator: Adobe Illustrator 21.1.0, SVG Export Plug-In . SVG Version: 6.00 Build 0)  -->
<svg version="1.0" id="Layer_1" xmlns="http://www.w3.org/2000/svg" xmlns:xlink="http://www.w3.org/1999/xlink" x="0px" y="0px" viewBox="0 0 32 32" style="enable-background:new 0 0 32 32;" xml:space="preserve" width="32px" height="32px" fill="#333">
<style type="text/css">
	.primary{fill:#333333;}
</style>
<polygon class="primary" points="29.2,18.474 29.2,12.997 12.654,29.543 18.131,29.543 "/>
<polygon class="primary" points="29.2,3.943 26.707,3.943 3.6,27.05 3.6,29.543 6.632,29.543 29.2,6.975 "/>
<polygon class="primary" points="3.6,15.547 3.6,21.024 20.681,3.943 15.204,3.943 "/>
<polygon class="primary" points="29.2,24.301 23.958,29.543 29.2,29.543 "/>
<polygon class="primary" points="9.377,3.943 3.899,3.943 3.6,4.242 3.6,9.72 "/>
<path class="primary" d="M29.4,29.743h-26v-26h26V29.743z M29.6,3.543H3.2v26.4h26.4V3.543z"/>
<path class="primary" d="M0,3.543c0,1.767,1.433,3.2,3.2,3.2c1.767,0,3.2-1.433,3.2-3.2c0-1.767-1.433-3.2-3.2-3.2
	C1.433,0.343,0,1.776,0,3.543"/>
<path class="primary" d="M25.6,3.543c0,1.767,1.433,3.2,3.2,3.2c1.767,0,3.2-1.433,3.2-3.2c0-1.767-1.433-3.2-3.2-3.2
	C27.033,0.343,25.6,1.776,25.6,3.543"/>
<path class="primary" d="M0,29.143c0,1.767,1.433,3.2,3.2,3.2c1.767,0,3.2-1.433,3.2-3.2c0-1.767-1.433-3.2-3.2-3.2
	C1.433,25.943,0,27.376,0,29.143"/>
<path class="primary" d="M25.6,29.143c0,1.767,1.433,3.2,3.2,3.2c1.767,0,3.2-1.433,3.2-3.2c0-1.767-1.433-3.2-3.2-3.2
	C27.033,25.943,25.6,27.376,25.6,29.143"/>
</svg>
