<?xml version="1.0" encoding="utf-8"?>
<!-- Generator: Adobe Illustrator 16.2.1, SVG Export Plug-In . SVG Version: 6.00 Build 0)  -->
<!DOCTYPE svg PUBLIC "-//W3C//DTD SVG 1.1//EN" "http://www.w3.org/Graphics/SVG/1.1/DTD/svg11.dtd">
<svg version="1.1" xmlns="http://www.w3.org/2000/svg" xmlns:xlink="http://www.w3.org/1999/xlink" x="0px" y="0px" viewBox="0 0 32 32" enable-background="new 0 0 32 32" xml:space="preserve" width="32px" height="32px" fill="#333">
<g id="Font">
	<g>
		<path d="M19.303,21.253l8.394,4.994l-8.394,4.958v-3.24h-8.234c-0.944,0-1.827-0.18-2.647-0.541
			c-0.82-0.359-1.538-0.846-2.151-1.461c-0.614-0.613-1.099-1.334-1.452-2.16c-0.354-0.826-0.531-1.705-0.531-2.639
			c0-0.932,0.177-1.812,0.531-2.639c0.354-0.826,0.838-1.543,1.452-2.15c0.613-0.608,1.331-1.09,2.151-1.443
			c0.82-0.354,1.703-0.531,2.647-0.531h9.35c0.448,0,0.88-0.089,1.293-0.266c0.413-0.178,0.773-0.42,1.08-0.727
			s0.549-0.67,0.727-1.089c0.177-0.419,0.266-0.858,0.266-1.319s-0.089-0.896-0.266-1.311c-0.178-0.413-0.42-0.77-0.727-1.071
			c-0.307-0.301-0.664-0.54-1.071-0.718c-0.407-0.176-0.841-0.266-1.302-0.266h-8.217c-0.165,0.355-0.371,0.674-0.619,0.957
			s-0.531,0.534-0.851,0.752C10.413,9.562,10.064,9.73,9.687,9.85C9.309,9.967,8.913,10.025,8.5,10.025
			c-0.566,0-1.095-0.108-1.584-0.327C6.426,9.48,5.995,9.186,5.623,8.812C5.251,8.441,4.959,8.01,4.746,7.521
			C4.534,7.031,4.428,6.502,4.428,5.936s0.106-1.098,0.318-1.594c0.213-0.496,0.505-0.93,0.877-1.302s0.803-0.664,1.293-0.876
			C7.405,1.951,7.934,1.845,8.5,1.845c0.413,0,0.809,0.06,1.187,0.177c0.378,0.119,0.727,0.281,1.045,0.487
			c0.319,0.206,0.603,0.458,0.851,0.753s0.454,0.619,0.619,0.974h8.217c0.933,0,1.812,0.177,2.639,0.531s1.544,0.839,2.151,1.452
			c0.608,0.613,1.089,1.331,1.443,2.151c0.354,0.821,0.531,1.697,0.531,2.63s-0.177,1.812-0.531,2.639s-0.835,1.547-1.443,2.16
			c-0.607,0.614-1.325,1.102-2.151,1.461c-0.826,0.36-1.706,0.54-2.639,0.54h-9.35c-0.461,0-0.895,0.089-1.302,0.266
			s-0.768,0.417-1.08,0.718c-0.313,0.301-0.558,0.654-0.735,1.062c-0.177,0.406-0.266,0.847-0.266,1.318
			c0,0.461,0.089,0.898,0.266,1.311c0.178,0.414,0.422,0.777,0.735,1.09c0.312,0.312,0.67,0.558,1.071,0.734
			c0.401,0.178,0.838,0.266,1.311,0.266h8.234V21.253z"/>
	</g>
</g>
</svg>
