<?xml version="1.0" encoding="utf-8"?>
<!-- Generator: Adobe Illustrator 16.2.1, SVG Export Plug-In . SVG Version: 6.00 Build 0)  -->
<!DOCTYPE svg PUBLIC "-//W3C//DTD SVG 1.1//EN" "http://www.w3.org/Graphics/SVG/1.1/DTD/svg11.dtd">
<svg version="1.1" xmlns="http://www.w3.org/2000/svg" xmlns:xlink="http://www.w3.org/1999/xlink" x="0px" y="0px" viewBox="0 0 32 32" enable-background="new 0 0 32 32" xml:space="preserve" width="32px" height="32px" fill="#333">
<g id="Icons">
	<g>
		<path d="M6.562,24.3c-0.07,0.271-0.07,0.549,0,0.832c-1.369-0.248-2.614-0.812-3.736-1.691c-1.121-0.879-2.06-1.975-2.815-3.285
			c0.543-0.165,0.988-0.328,1.337-0.487c0.349-0.16,0.635-0.316,0.859-0.469c0.224-0.153,0.413-0.301,0.566-0.443
			s0.307-0.28,0.46-0.416s0.325-0.266,0.514-0.39s0.437-0.25,0.744-0.381c0.023-0.012,0.053-0.08,0.088-0.204
			c0.036-0.124,0.065-0.266,0.089-0.425c0.023-0.16,0.047-0.319,0.071-0.478c0.023-0.16,0.035-0.263,0.035-0.31
			c-0.012-0.13-0.057-0.325-0.133-0.584c-0.077-0.259-0.162-0.534-0.257-0.823c-0.095-0.29-0.186-0.561-0.274-0.815
			c-0.089-0.253-0.139-0.445-0.15-0.575c-0.095,0.023-0.184,0.042-0.266,0.053C3.61,13.421,3.536,13.418,3.472,13.4
			c-0.065-0.018-0.115-0.056-0.15-0.115c-0.153-0.201-0.292-0.437-0.416-0.708s-0.219-0.549-0.283-0.833
			c-0.065-0.283-0.101-0.549-0.106-0.797c-0.006-0.248,0.021-0.454,0.079-0.62c0.048-0.094,0.121-0.162,0.222-0.204
			c0.101-0.041,0.204-0.068,0.31-0.08c0.118-0.036,0.26-0.053,0.426-0.053c0.023-0.295,0.041-0.59,0.053-0.885
			c0.023-0.248,0.041-0.505,0.053-0.771s0.019-0.493,0.019-0.682c0-0.036,0-0.077,0-0.124c0-0.047,0.012-0.094,0.035-0.142
			l0.318-2.568l1.859-1.93l0.248,0.638l4.622-0.815l-0.407,0.974l1.204,0.106L11.98,6.45c0.071,0.118,0.118,0.236,0.142,0.354
			c0.035,0.13,0.065,0.242,0.089,0.336c-0.06-0.023-0.109-0.035-0.15-0.035c-0.042,0-0.092,0-0.15,0
			c-0.26,0-0.508,0.065-0.744,0.195c-0.248,0.142-0.439,0.331-0.575,0.566c-0.136,0.236-0.204,0.49-0.204,0.762v0.106
			c-0.035,0.047-0.077,0.092-0.124,0.133C10.216,8.909,10.175,8.953,10.139,9c-0.46,0.579-0.708,1.316-0.743,2.213
			c-0.036,0.425-0.024,0.874,0.035,1.346c0.059,0.472,0.159,0.968,0.301,1.487c-0.118,0.095-0.212,0.198-0.283,0.31
			c-0.07,0.112-0.124,0.209-0.159,0.292c-0.095,0.201-0.159,0.407-0.195,0.62c-0.035,0.212-0.053,0.419-0.053,0.62
			s0.015,0.398,0.044,0.593s0.062,0.375,0.098,0.54c0.059,0.248,0.162,0.573,0.31,0.974s0.363,0.791,0.646,1.168
			c0.106,0.142,0.219,0.257,0.337,0.345c0.118,0.089,0.241,0.168,0.372,0.239c0.023,0.036,0.035,0.074,0.035,0.115
			s0.012,0.091,0.035,0.15c0.083,0.177,0.159,0.384,0.23,0.62c0.082,0.236,0.136,0.419,0.159,0.549c0,0.059-0.006,0.106-0.018,0.142
			c-0.012,0.035-0.018,0.088-0.018,0.159c-0.461,0.201-0.924,0.407-1.391,0.62C9.416,22.317,9,22.515,8.634,22.697
			c-0.366,0.184-0.673,0.334-0.921,0.452c-0.248,0.118-0.384,0.183-0.407,0.195c-0.165,0.095-0.313,0.228-0.442,0.398
			C6.732,23.914,6.633,24.1,6.562,24.3z M20.215,10.116c0.225,0.035,0.425,0.106,0.603,0.212c0.153,0.095,0.292,0.225,0.416,0.39
			c0.124,0.166,0.186,0.39,0.186,0.673c0,0.26-0.05,0.508-0.15,0.744c-0.101,0.236-0.21,0.493-0.327,0.771
			c-0.118,0.277-0.222,0.579-0.311,0.903c-0.088,0.325-0.115,0.693-0.079,1.106c0.153,0,0.289,0.018,0.407,0.053
			c0.106,0.024,0.212,0.062,0.318,0.115s0.188,0.127,0.248,0.221c0.071,0.154,0.104,0.354,0.098,0.602s-0.045,0.514-0.115,0.797
			c-0.071,0.283-0.166,0.567-0.283,0.85c-0.118,0.283-0.254,0.531-0.407,0.744c-0.06,0.059-0.124,0.092-0.195,0.098
			c-0.07,0.006-0.142,0.003-0.212-0.009c-0.083-0.011-0.166-0.035-0.248-0.071c-0.024,0.13-0.08,0.328-0.169,0.593
			c-0.088,0.266-0.18,0.54-0.274,0.824c-0.094,0.283-0.18,0.558-0.257,0.823c-0.076,0.266-0.114,0.463-0.114,0.593
			c-0.013,0.059-0.004,0.166,0.026,0.319c0.029,0.153,0.062,0.313,0.098,0.478c0.047,0.201,0.088,0.407,0.123,0.62
			c0.473,0.189,0.978,0.408,1.515,0.655c0.537,0.248,1.029,0.478,1.479,0.691c0.531,0.26,1.051,0.525,1.559,0.797
			c-0.449,0.779-0.963,1.432-1.541,1.957c-0.578,0.525-1.213,0.947-1.903,1.266s-1.423,0.549-2.196,0.691
			c-0.773,0.142-1.579,0.212-2.417,0.212c-0.826,0-1.629-0.071-2.408-0.212c-0.779-0.142-1.514-0.372-2.205-0.691
			c-0.69-0.319-1.328-0.741-1.912-1.266c-0.584-0.525-1.095-1.178-1.532-1.957c0.508-0.26,1.027-0.525,1.559-0.797
			c0.448-0.224,0.938-0.458,1.47-0.7c0.531-0.242,1.045-0.458,1.541-0.646c0.047-0.224,0.088-0.431,0.124-0.62
			c0.035-0.165,0.067-0.328,0.097-0.487c0.03-0.16,0.045-0.263,0.045-0.31c-0.012-0.13-0.057-0.328-0.133-0.593
			c-0.077-0.266-0.166-0.54-0.266-0.823c-0.101-0.284-0.195-0.555-0.283-0.815c-0.089-0.259-0.146-0.46-0.169-0.602
			c-0.094,0.036-0.177,0.06-0.247,0.071c-0.071,0.012-0.143,0.012-0.213,0c-0.071-0.011-0.136-0.041-0.195-0.088
			c-0.153-0.212-0.289-0.46-0.407-0.744s-0.209-0.567-0.274-0.85c-0.064-0.283-0.104-0.549-0.115-0.797s0.019-0.448,0.089-0.602
			c0.059-0.094,0.139-0.168,0.239-0.221s0.209-0.091,0.327-0.115c0.118-0.036,0.254-0.053,0.407-0.053
			c-0.153-0.366-0.283-0.75-0.389-1.151c-0.095-0.354-0.178-0.75-0.248-1.187c-0.071-0.437-0.095-0.868-0.071-1.292
			c0.023-0.59,0.165-1.039,0.425-1.346c0.26-0.307,0.585-0.519,0.975-0.637c-0.095-0.059-0.172-0.124-0.23-0.195
			c-0.06-0.071-0.101-0.142-0.124-0.212c-0.035-0.095-0.053-0.183-0.053-0.266c0.235,0.142,0.48,0.25,0.734,0.327
			c0.254,0.077,0.496,0.136,0.727,0.177c0.229,0.042,0.434,0.065,0.61,0.071c0.178,0.006,0.312,0.009,0.407,0.009
			c0.271,0,0.54-0.091,0.806-0.274c0.266-0.183,0.561-0.369,0.886-0.558c0.324-0.189,0.69-0.342,1.098-0.46s0.895-0.112,1.461,0.018
			c0.248,0.071,0.458,0.16,0.629,0.266c0.171,0.106,0.315,0.225,0.434,0.354c0.118,0.13,0.21,0.269,0.274,0.417
			c0.065,0.147,0.115,0.28,0.15,0.398c0.024,0.095,0.039,0.183,0.045,0.266s0.015,0.159,0.026,0.23
			C20.209,9.951,20.215,10.033,20.215,10.116z M27.493,17.571c0.307,0.118,0.558,0.245,0.753,0.381
			c0.194,0.136,0.365,0.269,0.513,0.398s0.296,0.266,0.443,0.407s0.336,0.29,0.566,0.443s0.52,0.31,0.868,0.469
			c0.348,0.159,0.793,0.322,1.337,0.487c-0.721,1.275-1.627,2.346-2.719,3.214c-1.092,0.868-2.305,1.443-3.639,1.727
			c0.07-0.271,0.07-0.537,0-0.797c-0.071-0.201-0.172-0.384-0.301-0.549c-0.131-0.165-0.284-0.301-0.461-0.407
			c-0.023-0.012-0.156-0.077-0.398-0.195c-0.242-0.118-0.546-0.268-0.912-0.452c-0.366-0.183-0.779-0.383-1.239-0.602
			c-0.461-0.218-0.921-0.422-1.382-0.611c0-0.071-0.009-0.126-0.026-0.168s-0.026-0.086-0.026-0.133
			c0.047-0.13,0.109-0.319,0.186-0.567c0.077-0.248,0.145-0.46,0.204-0.638c0.023-0.035,0.035-0.073,0.035-0.115
			s0.012-0.08,0.036-0.115c0.129-0.071,0.256-0.15,0.38-0.239c0.124-0.088,0.233-0.204,0.328-0.345
			c0.283-0.377,0.496-0.767,0.638-1.168c0.165-0.401,0.271-0.726,0.318-0.974c0.047-0.165,0.086-0.345,0.115-0.54
			s0.044-0.393,0.044-0.593s-0.021-0.407-0.062-0.62c-0.042-0.213-0.109-0.419-0.204-0.62c-0.059-0.094-0.142-0.218-0.248-0.372
			c-0.105-0.153-0.254-0.29-0.442-0.408c0.035-0.106,0.08-0.209,0.133-0.31s0.104-0.209,0.15-0.328
			c0.095-0.26,0.198-0.543,0.311-0.85c0.111-0.307,0.168-0.638,0.168-0.992c0-0.496-0.115-0.947-0.346-1.354s-0.552-0.741-0.965-1V9
			c-0.095-0.283-0.207-0.546-0.337-0.788c-0.13-0.242-0.283-0.463-0.46-0.664c-0.165-0.188-0.343-0.351-0.531-0.487
			c-0.189-0.136-0.396-0.257-0.62-0.363c0-0.106,0.006-0.209,0.018-0.31s0.029-0.204,0.054-0.31c0.059-0.448,0.2-0.791,0.425-1.027
			s0.46-0.401,0.708-0.496c0.283-0.106,0.608-0.153,0.975-0.142c0.142-0.224,0.348-0.425,0.619-0.602
			c0.236-0.142,0.546-0.269,0.93-0.381c0.384-0.112,0.871-0.145,1.461-0.097c0.603,0.047,1.14,0.162,1.611,0.345
			c0.473,0.183,0.868,0.499,1.187,0.947c0.319,0.449,0.559,1.065,0.718,1.851s0.221,1.792,0.186,3.02v0.496
			c0.106,0.024,0.248,0.056,0.425,0.098c0.178,0.042,0.295,0.121,0.354,0.239c0.071,0.154,0.106,0.354,0.106,0.602
			s-0.033,0.511-0.098,0.788s-0.156,0.552-0.274,0.823c-0.118,0.272-0.248,0.508-0.39,0.708c0.059,0.46,0.115,0.841,0.168,1.142
			c0.054,0.301,0.109,0.54,0.169,0.717c0.059,0.201,0.124,0.354,0.194,0.46c-0.165,0.071-0.349,0.13-0.549,0.177
			c-0.177,0.059-0.39,0.121-0.638,0.186s-0.531,0.127-0.85,0.186v0.036c0,0.059,0.009,0.166,0.026,0.319s0.044,0.31,0.08,0.469
			c0.035,0.159,0.067,0.301,0.097,0.425S27.47,17.559,27.493,17.571z"/>
	</g>
</g>
</svg>
