<?xml version="1.0" encoding="utf-8"?>
<!-- Generator: Adobe Illustrator 16.2.1, SVG Export Plug-In . SVG Version: 6.00 Build 0)  -->
<!DOCTYPE svg PUBLIC "-//W3C//DTD SVG 1.1//EN" "http://www.w3.org/Graphics/SVG/1.1/DTD/svg11.dtd">
<svg version="1.1" xmlns="http://www.w3.org/2000/svg" xmlns:xlink="http://www.w3.org/1999/xlink" x="0px" y="0px" viewBox="0 0 32 32" enable-background="new 0 0 32 32" xml:space="preserve" width="32px" height="32px" fill="#333">
<g id="Icons">
	<g>
		<path d="M14.635,15.047l0.851,0.85l-1.452,1.169l-3.507-3.967l0.372-0.319l-1.877-1.948H9.004
			c-0.236-0.248-0.517-0.372-0.842-0.372c-0.324,0-0.61,0.124-0.858,0.372c-0.118,0.106-0.21,0.236-0.274,0.39
			c-0.065,0.153-0.098,0.307-0.098,0.46s0.032,0.304,0.098,0.452c0.064,0.147,0.156,0.28,0.274,0.398h0.035L5.09,14.781
			l-3.559-3.612L3.727,8.92c0.248,0.225,0.531,0.331,0.85,0.319c0.319-0.012,0.591-0.13,0.815-0.354
			C5.615,8.661,5.73,8.389,5.736,8.07c0.006-0.318-0.098-0.596-0.31-0.832l0.956-0.957c0.744-0.767,1.594-1.337,2.55-1.708
			c0.956-0.372,1.931-0.558,2.922-0.558c0.992,0,1.966,0.186,2.922,0.558c0.956,0.372,1.818,0.941,2.586,1.708l-0.851,0.85
			c-0.531-0.354-1.104-0.604-1.718-0.752c-0.613-0.147-1.23-0.195-1.851-0.142c-0.619,0.053-1.219,0.215-1.797,0.487
			C10.567,6.996,10.042,7.368,9.57,7.84l2.833,2.833l0.319,0.301v-0.035l2.975,3.01L14.635,15.047z M26.376,10.354l-6.446,6.463
			l1.611,1.629l-1.08,1.08l-0.886-0.868l-0.177,0.159l-3.081,3.949l-5.047,5.029l-3.312-3.364l4.994-5.029l3.966-3.099l0.142-0.177
			l-1.026-1.009l1.098-1.081l1.7,1.7l6.445-6.463V7.681l3.542-2.107l0.106,0.071l1.098,1.08l0.053,0.088l-2.106,3.542H26.376z
			 M28.164,24.255l-3.896,3.914l-2.621-2.639l-3.188-3.577l1.399-1.771l0.867,0.85l1.948-1.93l2.851,2.532L28.164,24.255z"/>
	</g>
</g>
</svg>
