<?xml version="1.0" encoding="utf-8"?>
<!-- Generator: Adobe Illustrator 16.2.1, SVG Export Plug-In . SVG Version: 6.00 Build 0)  -->
<!DOCTYPE svg PUBLIC "-//W3C//DTD SVG 1.1//EN" "http://www.w3.org/Graphics/SVG/1.1/DTD/svg11.dtd">
<svg version="1.1" xmlns="http://www.w3.org/2000/svg" xmlns:xlink="http://www.w3.org/1999/xlink" x="0px" y="0px" viewBox="0 0 32 32" enable-background="new 0 0 32 32" xml:space="preserve" width="32px" height="32px" fill="#333">
<g id="Icons">
	<g>
		<path d="M11.228,21.761c-0.071,0.059-0.13,0.106-0.177,0.142c-0.048,0.036-0.095,0.077-0.142,0.124
			c-0.721-0.047-1.417-0.153-2.09-0.319c-0.673-0.165-1.308-0.41-1.904-0.735c-0.596-0.324-1.145-0.729-1.646-1.213
			c-0.502-0.484-0.947-1.068-1.337-1.753c0.508-0.26,1.027-0.525,1.559-0.797c0.448-0.224,0.938-0.458,1.47-0.7
			c0.531-0.242,1.027-0.458,1.487-0.646c0.035-0.224,0.076-0.437,0.124-0.637c0.035-0.166,0.07-0.325,0.106-0.478
			c0.035-0.153,0.053-0.26,0.053-0.319c-0.012-0.13-0.056-0.325-0.133-0.584s-0.162-0.537-0.257-0.833
			c-0.095-0.295-0.186-0.572-0.274-0.832s-0.139-0.449-0.15-0.567C7.821,11.638,7.732,11.65,7.65,11.65
			c-0.083,0.012-0.156,0.012-0.222,0c-0.064-0.012-0.121-0.047-0.168-0.106c-0.165-0.212-0.307-0.46-0.425-0.744
			s-0.213-0.566-0.283-0.85C6.481,9.667,6.446,9.401,6.446,9.153c0-0.248,0.035-0.442,0.106-0.584
			C6.6,8.474,6.674,8.403,6.773,8.356C6.874,8.309,6.978,8.273,7.084,8.25c0.117-0.024,0.26-0.036,0.425-0.036
			C7.355,7.837,7.22,7.441,7.102,7.028C7.007,6.674,6.925,6.281,6.854,5.851C6.782,5.419,6.759,4.992,6.782,4.566
			c0.036-0.59,0.181-1.042,0.435-1.354s0.587-0.517,1-0.611C8.11,2.542,8.028,2.474,7.969,2.397c-0.059-0.077-0.1-0.157-0.124-0.239
			C7.81,2.076,7.792,1.993,7.792,1.91c0.225,0.13,0.463,0.236,0.717,0.319s0.496,0.139,0.727,0.168
			c0.23,0.029,0.437,0.047,0.62,0.053c0.183,0.006,0.315,0.009,0.398,0.009c0.283,0,0.561-0.088,0.832-0.266
			c0.271-0.177,0.563-0.36,0.876-0.549c0.313-0.188,0.674-0.339,1.081-0.452c0.407-0.112,0.894-0.097,1.461,0.044
			c0.507,0.118,0.873,0.316,1.098,0.593c0.224,0.277,0.365,0.552,0.425,0.823c0.023,0.095,0.035,0.184,0.035,0.266
			c0,0.083,0.006,0.16,0.018,0.23c0,0.083,0.006,0.159,0.019,0.23c0.224,0.047,0.431,0.124,0.619,0.23
			c0.153,0.095,0.295,0.221,0.425,0.381c0.13,0.159,0.195,0.387,0.195,0.682c0,0.212-0.038,0.413-0.115,0.602
			s-0.168,0.396-0.274,0.62c-0.071-0.023-0.13-0.047-0.177-0.071c-0.048-0.023-0.089-0.047-0.124-0.071
			c-0.118-0.094-0.251-0.156-0.398-0.186c-0.148-0.029-0.287-0.044-0.416-0.044c-0.26,0-0.508,0.065-0.744,0.195
			c-0.248,0.142-0.439,0.331-0.575,0.566c-0.136,0.236-0.204,0.49-0.204,0.762v0.106c-0.035,0.047-0.077,0.092-0.124,0.133
			c-0.047,0.042-0.088,0.086-0.124,0.133c-0.46,0.579-0.708,1.316-0.743,2.213c-0.036,0.425-0.024,0.874,0.035,1.346
			c0.059,0.472,0.159,0.968,0.301,1.487c-0.118,0.095-0.212,0.198-0.283,0.31c-0.07,0.112-0.124,0.209-0.159,0.292
			c-0.095,0.201-0.159,0.407-0.195,0.62c-0.035,0.212-0.053,0.419-0.053,0.62s0.015,0.398,0.044,0.593s0.062,0.375,0.098,0.54
			c0.059,0.248,0.162,0.573,0.31,0.974s0.363,0.791,0.646,1.168c0.106,0.142,0.219,0.257,0.337,0.345
			c0.118,0.089,0.241,0.168,0.372,0.239c0.023,0.036,0.035,0.074,0.035,0.115s0.012,0.091,0.035,0.15
			c0.083,0.177,0.159,0.384,0.23,0.62c0.082,0.236,0.136,0.419,0.159,0.549c0,0.059-0.006,0.106-0.018,0.142
			c-0.012,0.035-0.018,0.088-0.018,0.159c-0.461,0.201-0.924,0.407-1.391,0.62c-0.466,0.213-0.882,0.411-1.248,0.593
			c-0.366,0.184-0.673,0.334-0.921,0.452C11.387,21.685,11.251,21.75,11.228,21.761z M24.137,8.533
			c0.225,0.035,0.425,0.106,0.603,0.212c0.153,0.095,0.292,0.225,0.416,0.39c0.124,0.166,0.186,0.39,0.186,0.673
			c0,0.26-0.05,0.508-0.15,0.744c-0.101,0.236-0.21,0.493-0.327,0.771c-0.118,0.277-0.222,0.579-0.311,0.903
			c-0.088,0.325-0.115,0.693-0.079,1.106c0.153,0,0.289,0.018,0.407,0.053c0.106,0.024,0.212,0.062,0.318,0.115
			s0.188,0.127,0.248,0.221c0.071,0.154,0.104,0.354,0.098,0.602s-0.045,0.514-0.115,0.797c-0.071,0.283-0.166,0.567-0.283,0.85
			c-0.118,0.283-0.254,0.531-0.407,0.744c-0.06,0.059-0.124,0.092-0.195,0.098c-0.07,0.006-0.142,0.003-0.212-0.009
			c-0.083-0.011-0.166-0.035-0.248-0.071c-0.024,0.13-0.08,0.328-0.169,0.593c-0.088,0.266-0.18,0.54-0.274,0.824
			c-0.094,0.283-0.18,0.558-0.257,0.823c-0.076,0.266-0.114,0.463-0.114,0.593c-0.013,0.059-0.004,0.166,0.026,0.319
			c0.029,0.153,0.062,0.313,0.098,0.478c0.047,0.201,0.088,0.407,0.123,0.62c0.473,0.189,0.978,0.408,1.515,0.655
			c0.537,0.248,1.029,0.478,1.479,0.691c0.531,0.26,1.051,0.525,1.559,0.797c-0.449,0.779-0.963,1.432-1.541,1.957
			c-0.578,0.525-1.213,0.947-1.903,1.266s-1.423,0.549-2.196,0.691c-0.773,0.142-1.579,0.212-2.417,0.212
			c-0.826,0-1.629-0.071-2.408-0.212c-0.779-0.142-1.514-0.372-2.205-0.691c-0.69-0.319-1.328-0.741-1.912-1.266
			c-0.584-0.525-1.095-1.178-1.532-1.957c0.508-0.26,1.027-0.525,1.559-0.797c0.448-0.224,0.938-0.458,1.47-0.7
			c0.531-0.242,1.045-0.458,1.541-0.646c0.047-0.224,0.088-0.431,0.124-0.62c0.035-0.165,0.067-0.328,0.097-0.487
			c0.03-0.16,0.045-0.263,0.045-0.31c-0.012-0.13-0.057-0.328-0.133-0.593c-0.077-0.266-0.166-0.54-0.266-0.823
			c-0.101-0.284-0.195-0.555-0.283-0.815c-0.089-0.259-0.146-0.46-0.169-0.602c-0.094,0.036-0.177,0.06-0.247,0.071
			c-0.071,0.012-0.143,0.012-0.213,0c-0.071-0.011-0.136-0.041-0.195-0.088c-0.153-0.212-0.289-0.46-0.407-0.744
			s-0.209-0.567-0.274-0.85c-0.064-0.283-0.104-0.549-0.115-0.797s0.019-0.448,0.089-0.602c0.059-0.094,0.139-0.168,0.239-0.221
			s0.209-0.091,0.327-0.115c0.118-0.036,0.254-0.053,0.407-0.053c-0.153-0.366-0.283-0.75-0.389-1.151
			c-0.095-0.354-0.178-0.75-0.248-1.187c-0.071-0.437-0.095-0.868-0.071-1.292c0.023-0.59,0.165-1.039,0.425-1.346
			c0.26-0.307,0.585-0.519,0.975-0.637c-0.095-0.059-0.172-0.124-0.23-0.195c-0.06-0.071-0.101-0.142-0.124-0.212
			c-0.035-0.095-0.053-0.183-0.053-0.266c0.235,0.142,0.48,0.25,0.734,0.327c0.254,0.077,0.496,0.136,0.727,0.177
			c0.229,0.042,0.434,0.065,0.61,0.071c0.178,0.006,0.312,0.009,0.407,0.009c0.271,0,0.54-0.091,0.806-0.274
			c0.266-0.183,0.561-0.369,0.886-0.558c0.324-0.189,0.69-0.342,1.098-0.46s0.895-0.112,1.461,0.018
			c0.248,0.071,0.458,0.16,0.629,0.266c0.171,0.106,0.315,0.225,0.434,0.354c0.118,0.13,0.21,0.269,0.274,0.417
			c0.065,0.147,0.115,0.28,0.15,0.398c0.024,0.095,0.039,0.183,0.045,0.266s0.015,0.159,0.026,0.23
			C24.131,8.368,24.137,8.451,24.137,8.533z"/>
	</g>
</g>
</svg>
