<?xml version="1.0" encoding="utf-8"?>
<!-- Generator: Adobe Illustrator 21.1.0, SVG Export Plug-In . SVG Version: 6.00 Build 0)  -->
<svg version="1.1" id="Layer_1" xmlns="http://www.w3.org/2000/svg" xmlns:xlink="http://www.w3.org/1999/xlink" x="0px" y="0px"
	 viewBox="0 0 32 32" style="enable-background:new 0 0 32 32;" xml:space="preserve" width="32px" height="32px" fill="#333">
<style type="text/css">
	.primary{fill:#333333;}
</style>
<path class="primary" d="M7,24c-2.2,0-4,1.8-4,4c0,2.2,1.8,4,4,4c2.2,0,4-1.8,4-4C11,25.8,9.2,24,7,24z M7,30c-1.1,0-2-0.9-2-2
	c0-1.1,0.9-2,2-2s2,0.9,2,2C9,29.1,8.1,30,7,30z"/>
<circle class="primary" cx="7" cy="28" r="1"/>
<path class="primary" d="M9.8,13c0-0.3-0.1-0.6-0.1-0.9C9.8,6.5,14.3,2,19.9,2C25.5,2,30,6.5,30,12.1c0,1.2-0.2,2.4-0.6,3.4
	c0.8,0.2,1.4,0.4,1.9,0.7c0.5-1.3,0.7-2.7,0.7-4.1C32,5.4,26.6,0,19.9,0C13.2,0,7.8,5.4,7.8,12.1c0,0.3,0,0.6,0.1,0.9H8H9.8z"/>
<path class="primary" d="M19.9,3.2c-4.9,0-8.9,4-8.9,8.9c0,0.3,0,0.6,0.1,0.9h1v-1v-1h1h0c0.5-3.3,3.4-5.8,6.8-5.8
	c3.8,0,6.9,3.1,6.9,6.9c0,1.1-0.2,2-0.7,2.9c0.8,0.1,1.5,0.1,2.1,0.2c0.4-1,0.6-2.1,0.6-3.2C28.8,7.2,24.8,3.2,19.9,3.2z"/>
<path class="primary" d="M19.9,6.6c-2.7,0-4.8,1.9-5.4,4.4h2.1c0.5-1.4,1.8-2.4,3.3-2.4c1.9,0,3.5,1.6,3.5,3.5
	c0,0.5-0.1,1.1-0.3,1.5l1.4,1.4c0,0,0,0,0,0c0,0,0.1,0,0.1,0c0.5-0.8,0.8-1.8,0.8-2.9C25.4,9.1,22.9,6.6,19.9,6.6z"/>
<path class="primary" d="M26,24c-2.2,0-4,1.8-4,4c0,2.2,1.8,4,4,4c2.2,0,4-1.8,4-4C30,25.8,28.2,24,26,24z M26,30c-1.1,0-2-0.9-2-2
	c0-1.1,0.9-2,2-2s2,0.9,2,2C28,29.1,27.1,30,26,30z"/>
<circle class="primary" cx="26" cy="28" r="1"/>
<path class="primary" d="M30,22v-4h2c0,0,0,0,0,0c0,0,0,0,0,0c0,0,0,0,0,0c0,0,0,0,0,0c0,0,0,0-0.1-0.1c0,0,0,0-0.1,0
	c0,0-0.1-0.1-0.1-0.1c0,0-0.1,0-0.1-0.1c0,0-0.1-0.1-0.1-0.1c0,0-0.1,0-0.1-0.1c0,0-0.1-0.1-0.1-0.1c0,0-0.1-0.1-0.1-0.1
	c-0.1,0-0.1-0.1-0.2-0.1c-0.1,0-0.1-0.1-0.2-0.1c-0.1,0-0.1-0.1-0.2-0.1c-0.1,0-0.1-0.1-0.2-0.1c-0.1,0-0.2-0.1-0.3-0.1
	c-0.1,0-0.2-0.1-0.2-0.1c-0.1,0-0.2-0.1-0.3-0.1c-0.1,0-0.2-0.1-0.3-0.1c-0.1,0-0.2-0.1-0.3-0.1c-0.1,0-0.2,0-0.3-0.1
	c-0.1,0-0.3-0.1-0.4-0.1c-0.1,0-0.3,0-0.4-0.1c-0.1,0-0.3,0-0.4-0.1c-0.1,0-0.3,0-0.4,0c-0.2,0-0.3,0-0.5,0c-0.2,0-0.3,0-0.5,0
	c-0.2,0-0.4,0-0.6,0c-0.2,0-0.4,0-0.5,0c-0.1,0-0.2,0-0.4,0c-0.1,0-0.3,0-0.5,0l-4-4h-7v12.5v0h6.8l4-4H28c0.6,0,1.2,0.3,1.5,0.9
	c0,0,0,0,0,0l1,2.4l0,0L32,23v-1H30z M14,13h6l2,3h-8V13z"/>
<path class="primary" d="M1.5,24.8L1.5,24.8l0.8-2.9c0.1-0.8,0.8-1.4,1.7-1.4h5.2l3.3,3.7l0,0v0V14h0H8v1h1v2H0v7L1.5,24.8z"/>
<path class="primary" d="M26,23c1.3,0,2.5,0.5,3.4,1.4L30,24l0,0l-1-2.4c0,0,0,0,0,0c0-0.1-0.1-0.1-0.1-0.2c0,0-0.1-0.1-0.1-0.1
	c0,0-0.1-0.1-0.1-0.1c-0.1,0-0.1-0.1-0.2-0.1c0,0-0.1,0-0.1,0c-0.1,0-0.2,0-0.3,0c0,0,0,0,0,0h-4l-4,4h-7.5l0,0l0,0L9,21h0H4
	c-0.6,0-1.1,0.4-1.2,1c0,0,0,0,0,0L2,25l0.4,0.3l0.3,0.2C3.6,24,5.2,23,7,23c2.2,0,4.1,1.4,4.7,3.4L13,26h7l1.2,0.6
	C21.8,24.5,23.7,23,26,23z"/>
</svg>
