<?xml version="1.0" encoding="utf-8"?>
<!-- Generator: Adobe Illustrator 16.2.1, SVG Export Plug-In . SVG Version: 6.00 Build 0)  -->
<!DOCTYPE svg PUBLIC "-//W3C//DTD SVG 1.1//EN" "http://www.w3.org/Graphics/SVG/1.1/DTD/svg11.dtd">
<svg version="1.1" xmlns="http://www.w3.org/2000/svg" xmlns:xlink="http://www.w3.org/1999/xlink" x="0px" y="0px" viewBox="0 0 32 32" enable-background="new 0 0 32 32" xml:space="preserve" width="32px" height="32px" fill="#333">
<g id="Font">
	<g>
		<path d="M17.966,17.623V21.2c0,0.248-0.045,0.472-0.133,0.673c-0.089,0.201-0.21,0.378-0.363,0.531s-0.334,0.274-0.54,0.363
			c-0.207,0.089-0.429,0.133-0.664,0.133h-4.392L6.845,28v-5.1H5.517c-0.473,0-0.874-0.162-1.204-0.487
			c-0.331-0.325-0.496-0.729-0.496-1.213v-9.35c0-0.236,0.044-0.458,0.133-0.664s0.206-0.387,0.354-0.54
			c0.147-0.153,0.327-0.274,0.54-0.363c0.212-0.088,0.437-0.133,0.673-0.133h3.205v4.25c0,0.449,0.085,0.865,0.257,1.249
			c0.171,0.384,0.401,0.723,0.69,1.018c0.289,0.295,0.629,0.529,1.019,0.7c0.39,0.171,0.803,0.257,1.239,0.257H17.966z M26.501,4.2
			c0.235,0,0.454,0.047,0.655,0.142c0.2,0.095,0.377,0.218,0.531,0.372c0.153,0.154,0.274,0.331,0.362,0.531
			c0.089,0.201,0.133,0.419,0.133,0.655v8.5c0,0.236-0.044,0.458-0.133,0.664c-0.088,0.207-0.209,0.387-0.362,0.54
			c-0.154,0.154-0.334,0.274-0.54,0.363c-0.207,0.088-0.423,0.133-0.646,0.133h-1.293v5.649L19.595,16.1h-7.668
			c-0.236,0-0.454-0.044-0.655-0.133c-0.201-0.089-0.378-0.209-0.531-0.363c-0.153-0.153-0.274-0.333-0.363-0.54
			c-0.088-0.207-0.133-0.428-0.133-0.664V5.9c0-0.236,0.045-0.454,0.133-0.655c0.089-0.201,0.21-0.377,0.363-0.531
			c0.153-0.153,0.334-0.277,0.54-0.372C11.487,4.247,11.702,4.2,11.927,4.2H26.501z"/>
	</g>
</g>
</svg>
