<?xml version="1.0" encoding="utf-8"?>
<!-- Generator: Adobe Illustrator 16.2.1, SVG Export Plug-In . SVG Version: 6.00 Build 0)  -->
<!DOCTYPE svg PUBLIC "-//W3C//DTD SVG 1.1//EN" "http://www.w3.org/Graphics/SVG/1.1/DTD/svg11.dtd">
<svg version="1.1" xmlns="http://www.w3.org/2000/svg" xmlns:xlink="http://www.w3.org/1999/xlink" x="0px" y="0px" viewBox="0 0 32 32" enable-background="new 0 0 32 32" xml:space="preserve" width="32px" height="32px" fill="#333">
<g id="Font">
	<g>
		<path d="M7.792,8.698H6.251c-0.188,0-0.354-0.115-0.495-0.345c-0.142-0.23-0.213-0.504-0.213-0.823
			c0-0.307,0.071-0.569,0.213-0.788c0.142-0.218,0.307-0.328,0.495-0.328h1.541c0.213,0,0.416,0.109,0.611,0.328
			C8.598,6.96,8.695,7.222,8.695,7.529c0,0.166-0.026,0.319-0.08,0.46C8.562,8.131,8.491,8.252,8.403,8.353
			C8.314,8.453,8.214,8.536,8.102,8.601S7.887,8.698,7.792,8.698z M7.792,15.657H6.251c-0.188,0-0.354-0.109-0.495-0.328
			c-0.142-0.218-0.213-0.481-0.213-0.788c0-0.307,0.071-0.572,0.213-0.797c0.142-0.224,0.307-0.336,0.495-0.336h1.541
			c0.213,0,0.416,0.109,0.611,0.328c0.194,0.219,0.292,0.487,0.292,0.806c0,0.307-0.098,0.57-0.292,0.788
			C8.208,15.548,8.005,15.657,7.792,15.657z M7.792,22.422H6.251c-0.188,0-0.354-0.109-0.495-0.328
			c-0.142-0.218-0.213-0.481-0.213-0.788c0-0.319,0.071-0.587,0.213-0.806c0.142-0.218,0.307-0.328,0.495-0.328h1.541
			c0.213,0,0.416,0.109,0.611,0.328c0.194,0.219,0.292,0.487,0.292,0.806c0,0.295-0.098,0.555-0.292,0.779
			C8.208,22.31,8.005,22.422,7.792,22.422z M10.962,4.165v20.684H7.208v-1.753h0.584c0.437,0,0.809-0.188,1.115-0.566
			c0.153-0.166,0.271-0.354,0.354-0.567c0.082-0.212,0.124-0.431,0.124-0.655c0-0.46-0.159-0.879-0.479-1.257
			C8.577,19.683,8.205,19.5,7.792,19.5H7.208v-3.152h0.584c0.213,0,0.413-0.05,0.602-0.151c0.189-0.1,0.36-0.233,0.514-0.398
			c0.308-0.401,0.467-0.82,0.479-1.257c0-0.448-0.159-0.874-0.479-1.275c-0.153-0.165-0.327-0.295-0.522-0.39
			c-0.194-0.094-0.393-0.142-0.593-0.142H7.208V9.371h0.584c0.425,0,0.797-0.194,1.115-0.584c0.308-0.366,0.467-0.785,0.479-1.257
			c0-0.449-0.159-0.856-0.479-1.222C8.589,5.93,8.217,5.741,7.792,5.741H7.208V4.165H10.962z M15.406,24.848h-2.922V4.165h8.5
			c0.473,0,0.874,0.163,1.204,0.487c0.331,0.325,0.496,0.729,0.496,1.213v9.385l-4.729-4.02l-2.55-2.143v3.312V24.848z
			 M26.456,20.474l-3.471,1.611l2.143,4.693l-2.55,1.151l-2.143-4.657l-3.506,1.611V12.399L26.456,20.474z"/>
	</g>
</g>
</svg>
