<?xml version="1.0" encoding="utf-8"?>
<!-- Generator: Adobe Illustrator 16.2.1, SVG Export Plug-In . SVG Version: 6.00 Build 0)  -->
<!DOCTYPE svg PUBLIC "-//W3C//DTD SVG 1.1//EN" "http://www.w3.org/Graphics/SVG/1.1/DTD/svg11.dtd">
<svg version="1.1" xmlns="http://www.w3.org/2000/svg" xmlns:xlink="http://www.w3.org/1999/xlink" x="0px" y="0px" viewBox="0 0 32 32" enable-background="new 0 0 32 32" xml:space="preserve" width="32px" height="32px" fill="#333">
<g id="Icons">
	<g>
		<path d="M20.941,10.898v1.753v0.797v9.385h-5.171v5.614h-5.1v-5.614H5.535V12.651h10.059v-1.753H20.941z M18.392,15.184H8.085v5.1
			h10.307V15.184z M12.158,7.817c0,0.567,0.073,1.113,0.222,1.638c0.147,0.525,0.362,1.018,0.646,1.479l-1.328,0.744
			c-0.342-0.578-0.604-1.192-0.788-1.841c-0.183-0.649-0.274-1.322-0.274-2.019c0-0.72,0.095-1.411,0.284-2.072
			c0.188-0.661,0.46-1.287,0.814-1.877l1.328,0.779C12.459,5.604,12.158,6.66,12.158,7.817z M14.85,7.817
			c0,0.638,0.159,1.21,0.479,1.718L14,10.314c-0.449-0.755-0.673-1.588-0.673-2.497c0-0.472,0.062-0.926,0.186-1.363
			c0.124-0.437,0.298-0.85,0.522-1.24l1.293,0.779C15.009,6.56,14.85,7.168,14.85,7.817z M20.127,7.817
			c0,0.248-0.048,0.479-0.142,0.691c-0.095,0.212-0.222,0.396-0.381,0.549s-0.349,0.277-0.566,0.372
			c-0.219,0.094-0.446,0.142-0.682,0.142c-0.496,0-0.915-0.168-1.258-0.505s-0.514-0.752-0.514-1.249
			c0-0.248,0.047-0.481,0.142-0.699s0.222-0.413,0.381-0.584c0.159-0.171,0.346-0.304,0.558-0.398
			c0.213-0.094,0.443-0.142,0.691-0.142c0.247,0,0.478,0.047,0.69,0.142c0.212,0.095,0.398,0.228,0.558,0.398
			c0.159,0.171,0.286,0.366,0.381,0.584C20.079,7.336,20.127,7.569,20.127,7.817z M21.862,7.817c0-0.696-0.177-1.304-0.531-1.824
			l1.346-0.779c0.225,0.378,0.398,0.785,0.522,1.222c0.124,0.437,0.186,0.897,0.186,1.381c0,0.46-0.064,0.903-0.194,1.328
			c-0.13,0.425-0.301,0.827-0.514,1.204L21.366,9.57C21.697,9.062,21.862,8.479,21.862,7.817z M24.979,3.833
			c0.354,0.602,0.626,1.237,0.815,1.904c0.188,0.667,0.283,1.361,0.283,2.081c0,0.697-0.095,1.375-0.283,2.037
			c-0.189,0.661-0.461,1.281-0.815,1.859l-1.31-0.779c0.259-0.46,0.469-0.953,0.628-1.479s0.239-1.071,0.239-1.638
			c0-0.59-0.08-1.151-0.239-1.682s-0.369-1.039-0.628-1.523L24.979,3.833z"/>
	</g>
</g>
</svg>
