<?xml version="1.0" encoding="utf-8"?>
<!-- Generator: Adobe Illustrator 16.2.1, SVG Export Plug-In . SVG Version: 6.00 Build 0)  -->
<!DOCTYPE svg PUBLIC "-//W3C//DTD SVG 1.1//EN" "http://www.w3.org/Graphics/SVG/1.1/DTD/svg11.dtd">
<svg version="1.1" xmlns="http://www.w3.org/2000/svg" xmlns:xlink="http://www.w3.org/1999/xlink" x="0px" y="0px" viewBox="0 0 32 32" enable-background="new 0 0 32 32" xml:space="preserve" width="32px" height="32px" fill="#333">
<g id="Font">
	<g>
		<path d="M16.036,3.95c1.098,0,2.154,0.139,3.169,0.416c1.016,0.277,1.963,0.679,2.843,1.204c0.879,0.525,1.679,1.148,2.399,1.868
			c0.72,0.72,1.343,1.52,1.868,2.399c0.525,0.88,0.927,1.827,1.204,2.842c0.277,1.016,0.416,2.072,0.416,3.17
			c0,1.098-0.139,2.151-0.416,3.161c-0.277,1.01-0.679,1.954-1.204,2.833s-1.148,1.682-1.868,2.408
			c-0.721,0.726-1.521,1.349-2.399,1.868c-0.88,0.52-1.827,0.921-2.843,1.205c-1.015,0.283-2.071,0.425-3.169,0.425
			c-1.099,0-2.155-0.142-3.17-0.425c-1.016-0.284-1.963-0.685-2.843-1.205c-0.879-0.519-1.682-1.142-2.408-1.868
			c-0.726-0.726-1.346-1.529-1.859-2.408s-0.912-1.824-1.195-2.833c-0.283-1.009-0.425-2.063-0.425-3.161
			c0-1.098,0.142-2.154,0.425-3.17c0.283-1.015,0.682-1.962,1.195-2.842C6.27,8.958,6.89,8.159,7.615,7.438
			c0.727-0.72,1.529-1.343,2.408-1.868c0.88-0.525,1.824-0.927,2.834-1.204C13.866,4.089,14.926,3.95,16.036,3.95z M23.35,16.558
			h-4.905V7.935h-4.923v8.624H8.687L16,23.907L23.35,16.558z"/>
	</g>
</g>
</svg>
