<svg version="1.1" id="Layer_1" xmlns="http://www.w3.org/2000/svg" xmlns:xlink="http://www.w3.org/1999/xlink" x="0px" y="0px" viewBox="0 0 32 32" style="enable-background:new 0 0 32 32;" xml:space="preserve" fill="#333" width="32px" height="32px">
<style type="text/css">
	.primary{fill:#333333;}
</style>
	<path class="primary" d="M19,7V6c0-1.7-1.3-3-3-3s-3,1.3-3,3v1H3v22h26V7H19z M15,6c0-0.6,0.4-1,1-1c0.6,0,1,0.4,1,1c0,0.6-0.4,1-1,1
		C15.4,7,15,6.6,15,6z M27,27H5V9h8v2h6V9h8V27z M9,16.5c0-1.9,1.3-3.5,3-3.5s3,1.6,3,3.5S13.7,20,12,20S9,18.4,9,16.5z M17,25H7
		c0-2.2,2.2-4,5-4S17,22.8,17,25z M18,15h7v1h-7V15z M18,18h7v1h-7V18z M18,21h7v1h-7V21z"/>
</svg>
