<?xml version="1.0" encoding="utf-8"?>
<!-- Generator: Adobe Illustrator 16.2.1, SVG Export Plug-In . SVG Version: 6.00 Build 0)  -->
<!DOCTYPE svg PUBLIC "-//W3C//DTD SVG 1.1//EN" "http://www.w3.org/Graphics/SVG/1.1/DTD/svg11.dtd">
<svg version="1.1" xmlns="http://www.w3.org/2000/svg" xmlns:xlink="http://www.w3.org/1999/xlink" x="0px" y="0px" viewBox="0 0 32 32" enable-background="new 0 0 32 32" xml:space="preserve" width="32px" height="32px" fill="#333">
<g id="Font">
	<g>
		<path d="M16,4.45c1.098,0,2.154,0.139,3.169,0.416c1.016,0.277,1.963,0.679,2.843,1.204c0.879,0.525,1.679,1.148,2.399,1.868
			c0.72,0.72,1.343,1.52,1.868,2.399c0.525,0.88,0.927,1.827,1.204,2.842c0.277,1.016,0.416,2.072,0.416,3.17
			c0,1.098-0.139,2.151-0.416,3.161c-0.277,1.01-0.679,1.954-1.204,2.833s-1.148,1.682-1.868,2.408
			c-0.721,0.726-1.521,1.349-2.399,1.868c-0.88,0.52-1.827,0.921-2.843,1.205C18.154,28.108,17.098,28.25,16,28.25
			c-1.099,0-2.155-0.142-3.17-0.425c-1.016-0.284-1.963-0.685-2.843-1.205c-0.879-0.519-1.682-1.142-2.408-1.868
			c-0.726-0.726-1.346-1.529-1.859-2.408s-0.912-1.824-1.195-2.833C4.241,18.501,4.1,17.448,4.1,16.35
			c0-1.098,0.142-2.154,0.425-3.17c0.283-1.015,0.682-1.962,1.195-2.842c0.514-0.879,1.134-1.679,1.859-2.399
			c0.727-0.72,1.529-1.343,2.408-1.868c0.88-0.525,1.824-0.927,2.834-1.204C13.83,4.589,14.89,4.45,16,4.45z M16,25.7
			c1.298,0,2.515-0.245,3.647-0.735c1.134-0.49,2.125-1.157,2.975-2.001c0.851-0.844,1.518-1.833,2.002-2.966
			c0.483-1.133,0.726-2.349,0.726-3.648s-0.242-2.515-0.726-3.648c-0.484-1.133-1.151-2.125-2.002-2.975
			c-0.85-0.85-1.841-1.517-2.975-2.001C18.515,7.242,17.298,7,16,7c-1.299,0-2.515,0.242-3.648,0.726
			c-1.133,0.484-2.122,1.151-2.966,2.001c-0.845,0.85-1.512,1.842-2.001,2.975c-0.49,1.133-0.735,2.349-0.735,3.648
			s0.245,2.515,0.735,3.648c0.489,1.133,1.156,2.122,2.001,2.966c0.844,0.844,1.833,1.512,2.966,2.001
			C13.485,25.455,14.701,25.7,16,25.7z M17.788,16.385l4.445,4.374l-1.807,1.806L16,18.192l-4.41,4.374l-1.806-1.806l4.409-4.374
			l-4.444-4.462l1.806-1.806L16,14.562l4.444-4.445l1.824,1.806L17.788,16.385z"/>
	</g>
</g>
</svg>
