<?xml version="1.0" encoding="utf-8"?>
<!-- Generator: Adobe Illustrator 16.2.1, SVG Export Plug-In . SVG Version: 6.00 Build 0)  -->
<!DOCTYPE svg PUBLIC "-//W3C//DTD SVG 1.1//EN" "http://www.w3.org/Graphics/SVG/1.1/DTD/svg11.dtd">
<svg version="1.1" xmlns="http://www.w3.org/2000/svg" xmlns:xlink="http://www.w3.org/1999/xlink" x="0px" y="0px" viewBox="0 0 32 32" enable-background="new 0 0 32 32" xml:space="preserve" width="32px" height="32px" fill="#333">
<g id="Icons">
	<g>
		<path d="M26.89,13.149v7.491v1.717h-6.605V12.246h3.135c-0.095-0.85-0.328-1.665-0.699-2.444
			c-0.372-0.779-0.865-1.476-1.479-2.089c-0.731-0.744-1.564-1.311-2.496-1.7c-0.934-0.39-1.913-0.584-2.94-0.584
			c-1.026,0-2.007,0.198-2.939,0.593C11.932,6.417,11.1,6.98,10.368,7.712C9.754,8.326,9.258,9.023,8.88,9.802
			c-0.378,0.779-0.607,1.594-0.69,2.444h3.223v10.111H8.969v1.505h4.285c0.331-0.283,0.682-0.501,1.054-0.655
			c0.372-0.153,0.718-0.259,1.036-0.319c0.318-0.059,0.596-0.091,0.832-0.097s0.384-0.009,0.443-0.009l1.187,0.071v3.559H6.419
			v-4.055h-1.7V20.64v-7.491l0.035-0.903c0.095-1.168,0.378-2.308,0.851-3.417c0.555-1.334,1.34-2.509,2.354-3.524
			c0.508-0.508,1.057-0.959,1.647-1.355c0.59-0.396,1.216-0.735,1.877-1.018c1.357-0.59,2.798-0.885,4.32-0.885
			c1.512,0,2.952,0.295,4.321,0.885c1.346,0.59,2.526,1.381,3.542,2.373c0.495,0.52,0.938,1.071,1.328,1.656
			c0.39,0.584,0.726,1.207,1.009,1.868c0.248,0.555,0.437,1.115,0.567,1.682c0.129,0.567,0.224,1.145,0.283,1.735L26.89,13.149z"/>
	</g>
</g>
</svg>
