<?xml version="1.0" encoding="utf-8"?>
<!-- Generator: Adobe Illustrator 16.2.1, SVG Export Plug-In . SVG Version: 6.00 Build 0)  -->
<!DOCTYPE svg PUBLIC "-//W3C//DTD SVG 1.1//EN" "http://www.w3.org/Graphics/SVG/1.1/DTD/svg11.dtd">
<svg version="1.1" xmlns="http://www.w3.org/2000/svg" xmlns:xlink="http://www.w3.org/1999/xlink" x="0px" y="0px" viewBox="0 0 32 32" enable-background="new 0 0 32 32" xml:space="preserve" width="32px" height="32px" fill="#333">
<g id="Font">
	<g>
		<path d="M5.145,19.836c-0.602,0-1.169-0.115-1.7-0.345c-0.531-0.23-0.997-0.543-1.398-0.938s-0.718-0.862-0.947-1.399
			c-0.23-0.537-0.346-1.119-0.346-1.745c0-0.602,0.115-1.166,0.346-1.691c0.229-0.525,0.546-0.989,0.947-1.39
			s0.867-0.714,1.398-0.938c0.543-0.236,1.109-0.354,1.7-0.354c0.614,0,1.184,0.115,1.709,0.345c0.525,0.23,0.988,0.546,1.39,0.947
			s0.715,0.868,0.938,1.399c0.225,0.531,0.337,1.092,0.337,1.682c0,0.614-0.112,1.193-0.337,1.736
			c-0.224,0.543-0.537,1.012-0.938,1.408s-0.864,0.708-1.39,0.938C6.328,19.721,5.759,19.836,5.145,19.836z M16.053,19.836
			c-0.614,0-1.184-0.115-1.709-0.345c-0.525-0.23-0.988-0.543-1.39-0.938s-0.718-0.862-0.947-1.399
			c-0.23-0.537-0.346-1.119-0.346-1.745c0-0.602,0.115-1.166,0.346-1.691c0.229-0.525,0.546-0.989,0.947-1.39
			s0.867-0.717,1.398-0.947c0.531-0.23,1.099-0.345,1.7-0.345c0.603,0,1.169,0.115,1.7,0.345c0.531,0.23,0.994,0.546,1.39,0.947
			s0.712,0.868,0.948,1.399c0.235,0.531,0.354,1.092,0.354,1.682c0,0.614-0.118,1.193-0.354,1.736
			c-0.236,0.543-0.553,1.012-0.948,1.408s-0.858,0.708-1.39,0.938C17.222,19.721,16.655,19.836,16.053,19.836z M26.873,19.836
			c-0.614,0-1.187-0.115-1.718-0.345c-0.531-0.23-0.995-0.543-1.391-0.938s-0.708-0.862-0.938-1.399s-0.345-1.119-0.345-1.745
			c0-0.602,0.114-1.166,0.345-1.691s0.543-0.989,0.938-1.39s0.859-0.717,1.391-0.947c0.531-0.23,1.104-0.345,1.718-0.345
			c0.602,0,1.165,0.115,1.69,0.345c0.525,0.23,0.989,0.546,1.391,0.947s0.717,0.868,0.947,1.399s0.346,1.092,0.346,1.682
			c0,0.614-0.115,1.193-0.346,1.736s-0.546,1.012-0.947,1.408s-0.865,0.708-1.391,0.938C28.038,19.721,27.475,19.836,26.873,19.836z
			"/>
	</g>
</g>
</svg>
