<?xml version="1.0" encoding="utf-8"?>
<!-- Generator: Adobe Illustrator 16.2.1, SVG Export Plug-In . SVG Version: 6.00 Build 0)  -->
<!DOCTYPE svg PUBLIC "-//W3C//DTD SVG 1.1//EN" "http://www.w3.org/Graphics/SVG/1.1/DTD/svg11.dtd">
<svg version="1.1" xmlns="http://www.w3.org/2000/svg" xmlns:xlink="http://www.w3.org/1999/xlink" x="0px" y="0px" viewBox="0 0 32 32" enable-background="new 0 0 32 32" xml:space="preserve" width="32px" height="32px" fill="#333">
<g id="Font">
	<g>
		<path d="M21.578,23.732v-4.145h4.25v8.395H4.082V6.289h8.394v4.25H8.332v13.193H21.578z M15.132,4.2h12.75v12.75l-4.799-4.8
			l-7.614,7.598l-2.993-3.011l7.615-7.597L15.132,4.2z"/>
	</g>
</g>
<g id="Icons_1_" display="none">
	<g display="inline">
		<polygon fill="#231F20" points="23.524,26.277 5.714,26.277 5.714,8.534 11.288,8.534 11.288,2.819 0,2.819 0,31.991
			29.238,31.991 29.238,20.696 23.524,20.696 		"/>
		<polygon fill="#231F20" points="14.863,0.009 21.509,6.654 11.285,16.878 15.326,20.918 25.549,10.694 32,17.146 32,0.009 		"/>
	</g>
</g>
</svg>
