<svg version="1.1" id="Layer_1" xmlns="http://www.w3.org/2000/svg" xmlns:xlink="http://www.w3.org/1999/xlink" x="0px" y="0px" viewBox="0 0 32 32" style="enable-background:new 0 0 32 32;" xml:space="preserve" fill="#333" width="32px" height="32px">
<style type="text/css">
	.primary{fill:#333333;}
</style>
	<path class="primary" d="M17,13.7c0,0.5-0.4,0.8-0.8,0.8c-0.5,0-0.8-0.4-0.8-0.8c0-0.5,0.8-1.7,0.8-1.7S17,13.2,17,13.7z M14,14.5
		c0,0,0.3,1.4,0.6,1.8c0.3,0.3,0.9,0.3,1.2,0c0.3-0.3,0.3-0.9,0-1.2S14,14.5,14,14.5z M16.2,15.1c-0.3,0.3-0.3,0.9,0,1.2
		c0.3,0.3,0.9,0.3,1.2,0c0.3-0.3,0.6-1.8,0.6-1.8S16.6,14.8,16.2,15.1z M28.4,20.1c-3.3,0-10.3,5.9-13.3,5.9c-3,0-5.2-2.2-7.3-4.9
		C4.4,21.3,2,20.9,2,17C2,11.4,4.1,5,13,5c6.6,0,10,5.3,10,11c0,0.4,0,0.8-0.1,1.2C25.2,17.5,30.7,20.1,28.4,20.1z M7.6,17
		c0,2.1,0.1,2.8,0.6,3c2.2-1.4,9.9-2.6,13.3-2.9c0.1-0.4,0.2-0.9,0.2-1.4c0-4.6-3.2-9.2-8.7-9.2C8.4,6.6,7.6,12.4,7.6,17z M30,22.6
		c0,0.8-0.6,1.4-1.4,1.4s-4-1-4-1s2.6-1.8,4-1.8C29.4,21.2,30,21.9,30,22.6z"/>
</svg>
