<?xml version="1.0" encoding="utf-8"?>
<!-- Generator: Adobe Illustrator 19.2.0, SVG Export Plug-In . SVG Version: 6.00 Build 0)  -->
<!DOCTYPE svg PUBLIC "-//W3C//DTD SVG 1.1//EN" "http://www.w3.org/Graphics/SVG/1.1/DTD/svg11.dtd">
<svg version="1.1" id="Layer_1" xmlns="http://www.w3.org/2000/svg" xmlns:xlink="http://www.w3.org/1999/xlink" x="0px" y="0px" viewBox="0 0 32 32" enable-background="new 0 0 32 32" xml:space="preserve" width="32px" height="32px" fill="#333">
<g>
    <path d="M5.1,28c-2.4-2.4-3.1-6.7,0.3-10.1c1.9-2,9.8-10.1,13.8-14.1c1.4-1.4,3.2-2,4.8-1.5C25.6,2.6,27,4,27.4,5.7
        c0.4,1.8-0.1,3.6-1.5,5L12.8,24.2c-0.7,0.7-1.6,1.2-2.4,1.3c-0.8,0.1-1.6-0.2-2.2-0.8c-1-1-1.2-3,0.6-4.7l9.2-9.5
        c0.4-0.4,1-0.4,1.4,0c0.4,0.4,0.4,1,0,1.4L10,21.4c-0.8,0.9-0.9,1.6-0.6,2c0.2,0.1,0.4,0.2,0.7,0.2c0.4-0.1,0.8-0.3,1.3-0.7
        L24.6,9.3c0.9-0.9,1.2-2,0.9-3.1c-0.3-1-1.1-1.9-2.1-2.2c-1-0.3-2.1,0.1-3,1c-3.9,4-11.8,12.1-13.7,14.1c-2.6,2.7-2,5.7-0.3,7.4
        c1.7,1.7,4.6,2.3,7.2-0.3l13.8-14.1c0.4-0.4,1-0.4,1.4,0c0.4,0.3,0.4,1,0,1.4L14.9,27.7c-1.6,1.7-3.4,2.3-5.2,2.3
        C8,30,6.3,29.3,5.1,28z"/>
</g>
</svg>