<?xml version="1.0" encoding="utf-8"?>
<!-- Generator: Adobe Illustrator 19.0.0, SVG Export Plug-In . SVG Version: 6.00 Build 0)  -->
<svg version="1.0" id="Layer_1" xmlns="http://www.w3.org/2000/svg" xmlns:xlink="http://www.w3.org/1999/xlink" x="0px" y="0px" viewBox="0 0 32 32" style="enable-background:new 0 0 32 32;" xml:space="preserve" width="32px" height="32px" fill="#333">
<style type="text/css">
	.primary{fill:#333333;}
</style>
<path id="XMLID_387_" class="primary" d="M1.882,12.5h17.235c0.487,0,0.882,0.395,0.882,0.882v5.235
	c0,0.487-0.395,0.882-0.882,0.882H1.882C1.395,19.5,1,19.105,1,18.618v-5.235C1,12.895,1.395,12.5,1.882,12.5z M1.882,3.5h15.235
	C17.605,3.5,18,3.895,18,4.382v5.235c0,0.487-0.395,0.882-0.882,0.882H1.882C1.395,10.5,1,10.105,1,9.618V4.382
	C1,3.895,1.395,3.5,1.882,3.5z M1.882,21.5h15.235c0.487,0,0.882,0.395,0.882,0.882v5.235c0,0.487-0.395,0.882-0.882,0.882H1.882
	C1.395,28.5,1,28.105,1,27.618v-5.235C1,21.895,1.395,21.5,1.882,21.5z M24.574,24.413c2.717-1.937,4.041-4.538,4.041-7.913
	c0-3.445-1.379-6.084-4.211-8.032l-1.51,2.079l-2.058-6.439l6.76-0.033l-1.771,2.438C29.251,8.906,31,12.274,31,16.5
	c0,4.156-1.691,7.482-5.005,9.868l1.435,1.975l-6.76-0.033l2.058-6.439L24.574,24.413z"/>
</svg>
