<?xml version="1.0" encoding="utf-8"?>
<!-- Generator: Adobe Illustrator 21.1.0, SVG Export Plug-In . SVG Version: 6.00 Build 0)  -->
<svg version="1.0" id="Layer_1" xmlns="http://www.w3.org/2000/svg" xmlns:xlink="http://www.w3.org/1999/xlink" x="0px" y="0px"
	 viewBox="0 0 32 32" style="enable-background:new 0 0 32 32;" xml:space="preserve" width="32px" height="32px" fill="#333">
<style type="text/css">
	.primary{fill:#333333;}
</style>
<g>
	<g>
		<path class="primary" d="M31.832,10.097l-10.621,2.847l-0.803,2.928l9.977-2.794C30.385,13.079,32.288,11.915,31.832,10.097z"/>
	</g>
	<g>
		<path class="primary" d="M31.832,10.097l-10.621,2.847l-0.803,2.928l9.977-2.794C30.385,13.079,32.288,11.915,31.832,10.097z"/>
	</g>
</g>
<g>
	<g>
		<path class="primary" d="M31.832,10.11l-10.621,2.847l-0.803,2.928l9.977-2.794C30.385,13.091,32.288,11.927,31.832,10.11z"/>
	</g>
	<g>
		<path class="primary" d="M31.832,10.11l-10.621,2.847l-0.803,2.928l9.977-2.794C30.385,13.091,32.288,11.927,31.832,10.11z"/>
	</g>
</g>
<g>
	<path class="primary" d="M15.873,21.841L22.06,0.112c-1.81-0.484-3.003,1.401-3.003,1.401L15.185,14.56l-5.104,1.368
		c-0.294-2.306-2.148-4.009-4.517-4.008c-0.064,0-0.13,0.001-0.195,0.004c-2.767,0.108-5.124,2.481-5.265,5.301
		c-0.138,2.753,1.888,4.914,4.559,4.914c0.064,0,0.13-0.001,0.195-0.004c2.05-0.08,3.87-1.407,4.736-3.235l4.693-1.314l-1.382,4.656
		c-1.588,0.727-2.855,2.207-3.219,4.041c-0.556,2.804,1.194,5.334,3.908,5.652c0.189,0.022,0.378,0.033,0.565,0.033
		c2.508,0,4.838-1.926,5.355-4.535C20.052,24.725,18.429,22.292,15.873,21.841z M4.78,20.148l-0.117,0.002
		c-0.723,0-1.38-0.273-1.851-0.768c-0.498-0.524-0.751-1.25-0.711-2.046c0.089-1.777,1.621-3.335,3.346-3.403l0.117-0.002
		c0.722,0,1.38,0.273,1.85,0.768c0.498,0.524,0.751,1.25,0.711,2.046C8.037,18.523,6.505,20.081,4.78,20.148z M15.481,15.487
		c0.166-0.379,0.609-0.552,0.988-0.385c0.286,0.126,0.454,0.408,0.448,0.703c0,0.1-0.02,0.201-0.062,0.298
		c-0.166,0.379-0.609,0.552-0.988,0.385c-0.286-0.126-0.454-0.408-0.448-0.703C15.42,15.685,15.439,15.584,15.481,15.487z
		 M17.553,27.055c-0.325,1.64-1.816,2.924-3.393,2.924c-0.111,0-0.222-0.006-0.333-0.019c-0.71-0.083-1.326-0.436-1.732-0.995
		c-0.343-0.471-0.517-1.046-0.511-1.662c0.001-0.207,0.022-0.418,0.064-0.632c0.325-1.639,1.816-2.924,3.394-2.924
		c0.111,0,0.221,0.006,0.333,0.019c0.71,0.083,1.326,0.436,1.732,0.995c0.343,0.471,0.517,1.046,0.511,1.662
		C17.617,26.63,17.596,26.842,17.553,27.055z"/>
</g>
</svg>
