<?xml version="1.0" encoding="utf-8"?>
<!-- Generator: Adobe Illustrator 16.2.1, SVG Export Plug-In . SVG Version: 6.00 Build 0)  -->
<!DOCTYPE svg PUBLIC "-//W3C//DTD SVG 1.1//EN" "http://www.w3.org/Graphics/SVG/1.1/DTD/svg11.dtd">
<svg version="1.1" xmlns="http://www.w3.org/2000/svg" xmlns:xlink="http://www.w3.org/1999/xlink" x="0px" y="0px" viewBox="0 0 32 32" enable-background="new 0 0 32 32" xml:space="preserve" width="32px" height="32px" fill="#333">
<g id="Font">
	<g>
		<path d="M28.582,12.266l-6.269,6.092L23.801,27l-7.757-4.073L8.288,27l1.487-8.643l-6.269-6.092l8.659-1.274l3.878-7.827
			l3.879,7.827L28.582,12.266z M17.071,20.979l3.79,1.983l-0.744-4.214l-0.177-1.152l0.832-0.814l3.063-2.975l-4.25-0.619
			l-1.133-0.16l-0.514-1.045l-1.896-3.842l-1.895,3.842l-0.514,1.045l-1.15,0.16l-4.232,0.619l3.063,2.975l0.832,0.814l-0.194,1.152
			l-0.727,4.214l3.79-1.983l1.026-0.549L17.071,20.979z"/>
	</g>
</g>
</svg>
