<?xml version="1.0" encoding="utf-8"?>
<svg version="1.0" id="Layer_1" xmlns="http://www.w3.org/2000/svg" xmlns:xlink="http://www.w3.org/1999/xlink" x="0px" y="0px" viewBox="0 0 32 32" style="enable-background:new 0 0 32 32;" xml:space="preserve"  width="32px" height="32px" fill="#333">
<style type="text/css">
	.primary{fill:#333333;}
</style>
<path class="primary" d="M29.5,13.4l-5.7,15.5l-8-2L8.9,28l-6.2-0.7l2.2-2.5l-2.4-1.3l6.4-6.9l-1-5.5c-0.7-0.3-1.1-0.7-1.6-1.2
	C5.9,9.4,5.6,8.7,5.4,8c-0.1-0.6-0.1-1.1,0-1.7c0.2-0.5,0.4-1,0.7-1.4c0.3-0.5,0.7-0.8,1.1-1.1c0.5-0.3,0.9-0.5,1.5-0.6
	s1.1-0.1,1.6,0.1c0.6,0.1,1,0.4,1.4,0.7s0.7,0.7,1.1,1.1C13,5.6,13.2,6,13.3,6.6c0.1,0.4,0.1,0.8,0,1.2c0,0.4-0.2,0.7-0.3,1.1
	c-0.2,0.4-0.4,0.7-0.6,1c-0.3,0.3-0.6,0.6-0.8,0.8l0.5,2.5l2-2.2l4.4,1.6l5.1-2.6L29.5,13.4z M27.5,14l-4-2.3l-4.8,2.5l-4-1.4
	l-2.1,2.3l0.2,1l2-2.2l2.9,1l-2.1,2.7l-1,1.2l-1.3-0.4l0.1,0.7l1.2,0.4l0,0l0,0l0,0l0,0l0,0v-0.1h0.1l5.5-2.3l4,1.7l-3.1,6.3
	L15.9,22l0,0l0,0l0,0h-0.1c-0.1,0-0.1,0-0.2,0l-5.5,2.6l-3.4-1.9l2.8-3.1l-0.2-1.1l-4.4,4.7l4.7,2.5l5.5-2.7l6.8,3.5L27.5,14z
	 M9.8,15.7l0.4,1.9l0.2,1l0.4,2c0.1,0.2,0.2,0.4,0.4,0.6s0.4,0.2,0.6,0.2c0.1,0,0.2,0,0.2,0c0.3-0.1,0.5-0.2,0.6-0.4
	c0.2-0.2,0.2-0.5,0.1-0.7L11,11.2c-0.1,0-0.2,0.1-0.4,0.1c-0.1,0.1-0.2,0.1-0.4,0.1s-0.4,0.1-0.6,0.1s-0.4,0-0.6,0L9.8,15.7z
	 M24.5,18l-3.9-2c-0.1,0-0.2,0-0.3,0l-4.7,2l2.6-3.3l4.5-2l3.3,2L24.5,18z"/>
</svg>
