<?xml version="1.0" encoding="utf-8"?>
<!-- Generator: Adobe Illustrator 16.2.1, SVG Export Plug-In . SVG Version: 6.00 Build 0)  -->
<!DOCTYPE svg PUBLIC "-//W3C//DTD SVG 1.1//EN" "http://www.w3.org/Graphics/SVG/1.1/DTD/svg11.dtd">
<svg version="1.1" xmlns="http://www.w3.org/2000/svg" xmlns:xlink="http://www.w3.org/1999/xlink" x="0px" y="0px" viewBox="0 0 32 32" enable-background="new 0 0 32 32" xml:space="preserve" width="32px" height="32px" fill="#333">
<g id="Icons">
	<g>
		<path d="M14.305,4.236c-0.685,0.685-1.257,1.435-1.718,2.249c-0.46,0.814-0.806,1.662-1.035,2.541
			c-0.23,0.88-0.346,1.774-0.346,2.683s0.115,1.8,0.346,2.674c0.229,0.874,0.575,1.718,1.035,2.532
			c0.461,0.814,1.033,1.564,1.718,2.249c0.697,0.697,1.461,1.275,2.294,1.735c0.832,0.46,1.696,0.797,2.594,1.009
			c-0.52,0.815-1.109,1.5-1.771,2.054c-0.661,0.555-1.379,1-2.151,1.337c-0.773,0.337-1.597,0.576-2.471,0.717
			s-1.776,0.212-2.709,0.212c-0.969,0-1.907-0.077-2.816-0.23s-1.762-0.416-2.559-0.788c-0.797-0.372-1.534-0.861-2.213-1.47
			c-0.68-0.608-1.278-1.36-1.798-2.258c0.613-0.319,1.222-0.631,1.824-0.938c0.531-0.26,1.104-0.531,1.718-0.814
			C4.849,19.424,5.434,19.165,6,18.952c0.059-0.26,0.112-0.502,0.159-0.726c0.047-0.189,0.086-0.375,0.115-0.558
			s0.044-0.304,0.044-0.363c-0.012-0.142-0.062-0.366-0.15-0.673s-0.188-0.629-0.301-0.965s-0.219-0.658-0.319-0.965
			c-0.1-0.307-0.162-0.531-0.186-0.673c-0.095,0.035-0.188,0.059-0.283,0.071s-0.181,0.009-0.257-0.009
			c-0.077-0.018-0.145-0.062-0.204-0.133C4.43,13.71,4.265,13.424,4.123,13.1s-0.251-0.652-0.328-0.983
			c-0.076-0.331-0.121-0.644-0.133-0.938s0.018-0.525,0.089-0.691c0.059-0.106,0.153-0.191,0.283-0.256s0.254-0.109,0.372-0.133
			c0.142-0.036,0.301-0.053,0.478-0.053c-0.188-0.449-0.342-0.909-0.46-1.381C4.306,8.25,4.208,7.796,4.132,7.3
			C4.055,6.804,4.022,6.303,4.034,5.795c0.059-0.673,0.236-1.189,0.531-1.55c0.295-0.36,0.673-0.599,1.134-0.717
			C5.581,3.458,5.492,3.377,5.434,3.289c-0.06-0.088-0.106-0.18-0.142-0.274C5.244,2.92,5.221,2.82,5.221,2.713
			c0.26,0.166,0.54,0.292,0.841,0.381c0.302,0.088,0.585,0.15,0.851,0.186c0.266,0.035,0.505,0.056,0.717,0.062
			c0.213,0.006,0.36,0.009,0.442,0.009c0.225,0,0.443-0.05,0.655-0.15c0.213-0.1,0.428-0.222,0.646-0.363s0.452-0.286,0.7-0.434
			c0.247-0.147,0.519-0.277,0.814-0.39c0.295-0.112,0.619-0.183,0.974-0.212s0.75,0.015,1.187,0.133
			c0.283,0.071,0.528,0.168,0.734,0.292c0.207,0.124,0.381,0.26,0.522,0.407c0.142,0.148,0.251,0.307,0.328,0.478
			c0.076,0.171,0.139,0.328,0.186,0.469c0,0.036,0.006,0.065,0.018,0.089s0.019,0.047,0.019,0.071
			C14.653,3.906,14.471,4.071,14.305,4.236z M32.014,9.814c0.26,1.251,0.271,2.494,0.035,3.728
			c-0.236,1.234-0.715,2.382-1.435,3.444c-0.578,0.897-1.278,1.668-2.099,2.311c-0.82,0.644-1.721,1.136-2.7,1.479l1.683,7.951
			l-2.586,0.549l-1.629-7.969h-0.655c-0.944,0-1.859-0.129-2.745-0.39c-0.885-0.259-1.724-0.649-2.515-1.168
			c-1.086-0.72-1.98-1.6-2.683-2.639c-0.702-1.039-1.178-2.189-1.425-3.453c-0.261-1.275-0.272-2.526-0.036-3.754
			c0.248-1.228,0.727-2.379,1.435-3.453c0.448-0.661,0.959-1.263,1.532-1.807c0.572-0.542,1.204-0.997,1.895-1.363
			c0.69-0.366,1.419-0.649,2.187-0.85s1.553-0.301,2.355-0.301c0.944,0,1.862,0.139,2.754,0.416
			c0.891,0.277,1.732,0.676,2.523,1.195c1.074,0.697,1.962,1.567,2.665,2.612C31.272,7.397,31.754,8.551,32.014,9.814z
			 M28.454,15.552c0.52-0.791,0.867-1.629,1.045-2.515c0.177-0.886,0.171-1.789-0.018-2.709c-0.189-0.909-0.544-1.738-1.062-2.488
			c-0.52-0.75-1.169-1.39-1.948-1.921c-0.578-0.378-1.189-0.661-1.833-0.85s-1.313-0.283-2.01-0.283
			c-0.591,0-1.163,0.071-1.718,0.212s-1.08,0.345-1.576,0.611c-0.495,0.266-0.956,0.593-1.381,0.983s-0.803,0.826-1.134,1.31
			c-0.531,0.803-0.876,1.656-1.035,2.559c-0.16,0.903-0.148,1.794,0.035,2.674c0.183,0.88,0.525,1.7,1.027,2.461
			c0.501,0.762,1.153,1.408,1.956,1.939c0.578,0.378,1.189,0.667,1.833,0.868s1.308,0.301,1.992,0.301
			c1.169,0,2.27-0.28,3.303-0.841C26.964,17.302,27.805,16.532,28.454,15.552z"/>
	</g>
</g>
</svg>
