<?xml version="1.0" encoding="utf-8"?>
<!-- Generator: Adobe Illustrator 16.2.1, SVG Export Plug-In . SVG Version: 6.00 Build 0)  -->
<!DOCTYPE svg PUBLIC "-//W3C//DTD SVG 1.1//EN" "http://www.w3.org/Graphics/SVG/1.1/DTD/svg11.dtd">
<svg version="1.1" xmlns="http://www.w3.org/2000/svg" xmlns:xlink="http://www.w3.org/1999/xlink" x="0px" y="0px" viewBox="0 0 32 32" enable-background="new 0 0 32 32" xml:space="preserve" width="32px" height="32px" fill="#333">
<g id="Icons">
	<g>
		<path d="M28.231,16.529c-0.13,1.511-0.528,2.922-1.195,4.232s-1.532,2.452-2.595,3.426c-1.062,0.975-2.284,1.742-3.665,2.303
			c-1.382,0.561-2.852,0.841-4.409,0.841c-1.099,0-2.152-0.142-3.161-0.425c-1.01-0.283-1.954-0.685-2.834-1.205
			c-0.879-0.519-1.682-1.142-2.408-1.867c-0.726-0.727-1.349-1.529-1.868-2.408c-0.52-0.88-0.921-1.824-1.204-2.834
			s-0.425-2.062-0.425-3.16c0-1.099,0.142-2.154,0.425-3.17s0.685-1.963,1.204-2.843S7.238,7.74,7.964,7.02
			C8.69,6.3,9.493,5.677,10.372,5.151c0.88-0.525,1.824-0.927,2.834-1.204c1.009-0.277,2.062-0.416,3.161-0.416
			c1.546,0,3.007,0.274,4.383,0.823c1.375,0.549,2.594,1.311,3.656,2.284c1.062,0.975,1.931,2.119,2.604,3.436
			s1.08,2.73,1.222,4.241H13.038l5.507-5.507L16.986,7.25l-8.198,8.146l8.198,8.234l1.559-1.558l-5.543-5.543H28.231z"/>
	</g>
</g>
</svg>
