<?xml version="1.0" encoding="utf-8"?>
<!-- Generator: Adobe Illustrator 17.0.2, SVG Export Plug-In . SVG Version: 6.00 Build 0)  -->
<!DOCTYPE svg PUBLIC "-//W3C//DTD SVG 1.1//EN" "http://www.w3.org/Graphics/SVG/1.1/DTD/svg11.dtd">
<svg version="1.1" id="Layer_1" xmlns="http://www.w3.org/2000/svg" xmlns:xlink="http://www.w3.org/1999/xlink" x="0px" y="0px" viewBox="0 0 32 32" enable-background="new 0 0 32 32" xml:space="preserve" width="32px" height="32px" fill="#333">
<g>
	<path style="fill:#231F20;" d="M21.269,16.008l-8.721,8.677V7.311L21.269,16.008z"/>
</g>
<path style="fill:#231F20;" d="M32,24.7c0,3.189-2.619,5.8-5.818,5.8H5.818C2.619,30.5,0,27.889,0,24.7V7.3
	c0-3.189,2.619-5.8,5.818-5.8h20.365C29.381,1.5,32,4.111,32,7.3V24.7z M26.182,27.6c1.605,0,2.909-1.3,2.909-2.9V7.3
	c0-1.6-1.304-2.9-2.909-2.9H5.818c-1.602,0-2.909,1.3-2.909,2.9v17.4c0,1.6,1.307,2.9,2.909,2.9H26.182z"/>
</svg>
