<?xml version="1.0" encoding="utf-8"?>
<!-- Generator: Adobe Illustrator 19.0.0, SVG Export Plug-In . SVG Version: 6.00 Build 0)  -->
<svg version="1.0" id="Layer_1" xmlns="http://www.w3.org/2000/svg" xmlns:xlink="http://www.w3.org/1999/xlink" x="0px" y="0px" viewBox="0 0 32 32" style="enable-background:new 0 0 32 32;" xml:space="preserve" width="32px" height="32px" fill="#333">
<style type="text/css">
	.primary{fill:#333;}
</style>
<path id="Gray" class="primary" d="M26.403,15.405c-1.335-2.889-5.167-4.78-9.947-4.894c-0.037-0.001-0.072-0.011-0.109-0.011
	c-0.023,0-0.044,0.006-0.067,0.007C16.186,10.505,16.094,10.5,16,10.5c-4.993,0-9.026,1.924-10.403,4.905L5.5,15.615l0.097,0.211
	C7.079,19.033,11.264,21.5,16,21.5s8.921-2.467,10.403-5.674l0.097-0.211L26.403,15.405z M18.346,14.348c0,1.105-0.895,2-2,2
	s-2-0.895-2-2c0-1.079,0.855-1.952,1.923-1.992c0.096,0.001,0.187,0.01,0.282,0.013C17.558,12.473,18.346,13.313,18.346,14.348z
	 M16,20.255c-3.847,0-7.233-2.025-8.5-4.612c0.946-1.887,3.281-3.257,6.308-3.712c-0.601,0.653-0.974,1.535-0.974,2.511
	c0,2.006,1.558,3.632,3.479,3.632s3.479-1.626,3.479-3.632c0-0.926-0.342-1.761-0.888-2.403c2.683,0.551,4.724,1.863,5.596,3.603
	C23.233,18.23,19.847,20.255,16,20.255z"/>
</svg>
