<?xml version="1.0" encoding="utf-8"?>
<!-- Generator: Adobe Illustrator 16.2.1, SVG Export Plug-In . SVG Version: 6.00 Build 0)  -->
<!DOCTYPE svg PUBLIC "-//W3C//DTD SVG 1.1//EN" "http://www.w3.org/Graphics/SVG/1.1/DTD/svg11.dtd">
<svg version="1.1" xmlns="http://www.w3.org/2000/svg" xmlns:xlink="http://www.w3.org/1999/xlink" x="0px" y="0px" viewBox="0 0 32 32" enable-background="new 0 0 32 32" xml:space="preserve" width="32px" height="32px" fill="#333">
<g id="Font">
	<g>
		<path d="M25.474,27.725l-6.552-7.633c-1.512,0.992-3.188,1.487-5.029,1.487c-0.118,0-0.236,0-0.354,0s-0.236-0.006-0.354-0.018
			c-1.24-0.095-2.406-0.419-3.498-0.974s-2.045-1.299-2.859-2.231c-0.804-0.968-1.396-2.034-1.78-3.196
			c-0.384-1.163-0.528-2.364-0.434-3.604c0.095-1.181,0.396-2.297,0.903-3.348C6.023,7.158,6.709,6.232,7.57,5.43
			c0.874-0.803,1.854-1.417,2.939-1.842c1.086-0.426,2.214-0.638,3.383-0.638c0.118,0,0.236,0,0.354,0
			c0.117,0,0.235,0.012,0.354,0.035c1.251,0.106,2.42,0.431,3.507,0.974c1.086,0.543,2.036,1.293,2.851,2.25
			c0.814,0.943,1.414,1.998,1.798,3.16c0.383,1.163,0.522,2.37,0.416,3.621c-0.071,1.016-0.302,1.99-0.69,2.922
			c-0.39,0.934-0.928,1.777-1.612,2.533l6.553,7.632L25.474,27.725z M13.893,19.029c0.861,0,1.685-0.153,2.47-0.461
			c0.785-0.307,1.497-0.749,2.135-1.328c0.625-0.59,1.124-1.263,1.496-2.019c0.372-0.755,0.587-1.569,0.646-2.443
			c0.07-0.897-0.033-1.769-0.311-2.612s-0.711-1.608-1.301-2.293c-0.603-0.697-1.299-1.242-2.09-1.639
			c-0.791-0.395-1.636-0.628-2.532-0.699C14.312,5.512,14.226,5.5,14.149,5.5c-0.077,0-0.163,0-0.257,0
			c-0.851,0-1.668,0.153-2.453,0.461c-0.785,0.307-1.496,0.755-2.134,1.346C8.68,7.885,8.182,8.555,7.81,9.316
			s-0.587,1.573-0.646,2.435c-0.083,0.897,0.015,1.771,0.292,2.621c0.277,0.85,0.712,1.623,1.302,2.319
			c0.603,0.686,1.299,1.229,2.09,1.629c0.791,0.402,1.635,0.639,2.532,0.709H13.893z"/>
	</g>
</g>
</svg>
