<?xml version="1.0" encoding="utf-8"?>
<!-- Generator: Adobe Illustrator 19.0.0, SVG Export Plug-In . SVG Version: 6.00 Build 0)  -->
<svg version="1.0" id="Layer_1" xmlns="http://www.w3.org/2000/svg" xmlns:xlink="http://www.w3.org/1999/xlink" x="0px" y="0px" viewBox="0 0 32 32" style="enable-background:new 0 0 32 32;" xml:space="preserve" width="32px" height="32px" fill="#333">
<style type="text/css">
	.primary{fill:#333333;}
</style>
<path class="primary" d="M28.8,6.346h-3.78C24.843,5.024,23.708,4,22.335,4h-5.713c-1.374,0-2.508,1.022-2.685,2.346H3.2
	c0,0-3.2,5.414-3.2,10.827S4.8,28,4.8,28h22.4c0,0,4.8-5.414,4.8-10.827C32,11.759,28.8,6.346,28.8,6.346z M25.947,25.525H6.053
	c-0.488-0.648-0.976-1.367-1.431-2.137c-1.299-2.197-2.063-4.351-2.063-6.216c0-2.025,0.534-4.283,1.432-6.563
	c0.25-0.635,0.515-1.236,0.782-1.79h22.452c0.267,0.554,0.531,1.154,0.782,1.79c0.898,2.28,1.432,4.538,1.432,6.563
	c0,1.865-0.764,4.019-2.063,6.216C26.922,24.158,26.434,24.878,25.947,25.525z"/>
<path class="primary" d="M27.749,16.185c-2.107-1.719-5.886-1.719-8.553-1.719c-3.196,0-4.794,2.961-9.589,2.961
	c-1.593,0-3.538-0.163-5.426-0.382c-0.005,0.129-0.008,0.256-0.008,0.382c0,1.442,0.637,3.248,1.85,5.214
	c0.273,0.443,0.566,0.878,0.872,1.299h18.208c0.306-0.421,0.599-0.856,0.872-1.299c1.213-1.966,1.85-3.773,1.85-5.214
	C27.826,17.029,27.8,16.614,27.749,16.185z M19.196,18.907c-0.883,0-1.598-0.663-1.598-1.48s0.715-1.48,1.598-1.48
	s1.598,0.663,1.598,1.48S20.079,18.907,19.196,18.907z"/>
<ellipse class="primary" cx="11.13" cy="14.466" rx="1.391" ry="1.353"/>
</svg>
