<?xml version="1.0" encoding="utf-8"?>
<!-- Generator: Adobe Illustrator 16.2.1, SVG Export Plug-In . SVG Version: 6.00 Build 0)  -->
<!DOCTYPE svg PUBLIC "-//W3C//DTD SVG 1.1//EN" "http://www.w3.org/Graphics/SVG/1.1/DTD/svg11.dtd">
<svg version="1.1" xmlns="http://www.w3.org/2000/svg" xmlns:xlink="http://www.w3.org/1999/xlink" x="0px" y="0px" viewBox="0 0 32 32" enable-background="new 0 0 32 32" xml:space="preserve" width="32px" height="32px" fill="#333">
<g id="Font">
	<g id="_x32__-_my_reports_2_">
		<path d="M16.155,12.289v5.524l-5.2-1.869c-0.21,0.584-0.325,1.213-0.325,1.869c0,3.052,2.475,5.525,5.525,5.525
			s5.525-2.474,5.525-5.525C21.681,14.762,19.206,12.289,16.155,12.289z"/>
		<path d="M15.148,10.732c-2.185,0.313-4.049,1.613-5.133,3.433l5.133,2.057V10.732z"/>
		<path d="M19.108,4.087C19.108,4.087,19.108,4.087,19.108,4.087c-0.054-1.675-1.428-3.018-3.116-3.018
			c-1.688,0-3.061,1.338-3.118,3.011L5.749,4.072v24.676H26.25V4.095L19.108,4.087z M15.992,2.654c0.845,0,1.532,0.688,1.532,1.534
			c0,0.41-0.158,0.795-0.448,1.084c-0.29,0.29-0.676,0.449-1.084,0.449c-0.846,0-1.535-0.688-1.535-1.534S15.146,2.654,15.992,2.654
			z M23.608,26.107H8.391V6.734V6.717l1.92,0.002C9.85,7.398,9.587,8.17,9.587,8.988h12.812c0-0.813-0.259-1.581-0.715-2.256
			l1.925,0.002V26.107z"/>
	</g>
</g>
</svg>
