<?xml version="1.0" encoding="utf-8"?>
<!-- Generator: Adobe Illustrator 21.1.0, SVG Export Plug-In . SVG Version: 6.00 Build 0)  -->
<svg version="1.1" id="Layer_1" xmlns="http://www.w3.org/2000/svg" xmlns:xlink="http://www.w3.org/1999/xlink" x="0px" y="0px"
	 viewBox="0 0 32 32" style="enable-background:new 0 0 32 32;" xml:space="preserve" width="32px" height="32px" fill="#333">
<style type="text/css">
	.primary{fill:#333333;}
</style>
<rect x="9.7" y="17" class="primary" width="2px" height="2px"/>
<path class="primary" d="M19.9,0c-4,0-7.5,2-9.8,5h2.6C14.6,3.1,17.1,2,19.9,2C25.5,2,30,6.5,30,12.1c0,5.6-4.5,10.1-10.1,10.1
	c-0.4,0-0.8,0-1.2-0.1v2c0.4,0,0.8,0.1,1.2,0.1c6.7,0,12.1-5.4,12.1-12.1C32,5.4,26.6,0,19.9,0z"/>
<path class="primary" d="M28.8,12.1c0-4.9-4-8.9-8.9-8.9c-2,0-3.8,0.7-5.3,1.8h4.1v0.3c0.4-0.1,0.8-0.1,1.2-0.1
	c3.8,0,6.9,3.1,6.9,6.9s-3.1,6.9-6.9,6.9c-0.4,0-0.8,0-1.2-0.1v2c0.4,0.1,0.8,0.1,1.2,0.1C24.8,21,28.8,17,28.8,12.1z"/>
<path class="primary" d="M25.4,12.1c0-3-2.5-5.5-5.5-5.5c-0.4,0-0.8,0-1.2,0.1v2.1c0.4-0.1,0.8-0.2,1.2-0.2c1.9,0,3.5,1.6,3.5,3.5
	c0,1.9-1.6,3.5-3.5,3.5c-0.4,0-0.8-0.1-1.2-0.2v2.1c0.4,0.1,0.8,0.1,1.2,0.1C22.9,17.6,25.4,15.2,25.4,12.1z"/>
<rect x="9.7" y="28.9" class="primary" width="2.1px" height="3.1px"/>
<path class="primary" d="M17.7,14.9C17.7,14.9,17.7,14.9,17.7,14.9c0-0.8-0.5-1.5-1.2-1.8C16.3,13,16.1,13,15.8,13H5.6
	c-1.1,0-1.9,0.9-1.9,1.9v10.3c0.2-0.1,0.3-0.1,0.5-0.1C4.4,25,4.6,25,4.8,25c0.2,0,0.5,0,0.7,0.1c0.1,0,0.1,0,0.2,0.1
	c0.1,0,0.3,0.1,0.4,0.1c0.1,0,0.2,0.1,0.3,0.1c0.1,0.1,0.2,0.1,0.3,0.2c0.1,0.1,0.2,0.1,0.3,0.2c0.1,0.1,0.1,0.1,0.2,0.2
	c0.1,0.1,0.2,0.2,0.3,0.3c0.1,0.1,0.1,0.1,0.1,0.2c0.1,0.1,0.2,0.2,0.2,0.3c0,0.1,0.1,0.1,0.1,0.2C8,27,8.1,27.1,8.1,27.3
	c0,0,0,0.1,0,0.1c0.1,0.2,0.1,0.3,0.1,0.5l0,0c0,0,7.4,0,7.4,0c1.2,0,2-0.8,2-1.8V14.9z M12.7,20h-4v-4h4V20z"/>
<path class="primary" d="M17.7,12V6H9.5l0,0l-1-2h0V0h-1v4l-1,2H3.7h0v6h0H17.7z M15.7,10h-3V9h3V10z M15.7,7v1h-3V7H15.7z M11.7,9
	v1h-3V9H11.7z M8.7,7h3v1h-3V7z M4.7,7h3v1h-3V7z M4.7,9h3v1h-3V9z"/>
<path class="primary" d="M7.3,28.5L7.3,28.5c0-0.1,0-0.3,0-0.4l0,0c0-0.1-0.1-0.3-0.1-0.4c0,0,0,0,0-0.1c0-0.1-0.1-0.2-0.1-0.3
	c0,0,0-0.1-0.1-0.1c0-0.1-0.1-0.1-0.1-0.2c0-0.1-0.1-0.1-0.1-0.2c0-0.1-0.1-0.1-0.1-0.1c-0.1-0.1-0.1-0.1-0.2-0.2
	c0,0-0.1-0.1-0.1-0.1c-0.1-0.1-0.2-0.1-0.3-0.1c-0.1,0-0.1-0.1-0.2-0.1c-0.1,0-0.2-0.1-0.3-0.1c0,0-0.1,0-0.1,0c-0.2,0-0.3,0-0.5,0
	c-0.1,0-0.3,0-0.4,0c-0.1,0-0.3,0.1-0.4,0.1l-0.2,0.1c-0.9,0.4-1.5,1.3-1.5,2.3V30h1v2h3v-2h1V28.5z"/>
</svg>
