<?xml version="1.0" encoding="utf-8"?>
<!-- Generator: Adobe Illustrator 16.2.1, SVG Export Plug-In . SVG Version: 6.00 Build 0)  -->
<!DOCTYPE svg PUBLIC "-//W3C//DTD SVG 1.1//EN" "http://www.w3.org/Graphics/SVG/1.1/DTD/svg11.dtd">
<svg version="1.1" xmlns="http://www.w3.org/2000/svg" xmlns:xlink="http://www.w3.org/1999/xlink" x="0px" y="0px" viewBox="0 0 32 32" enable-background="new 0 0 32 32" xml:space="preserve" width="32px" height="32px" fill="#333">
<g id="Font">
	<g>
		<path d="M27.06,20.474c-0.426,1.074-0.995,2.069-1.709,2.984c-0.715,0.915-1.544,1.703-2.488,2.364
			c-1.027,0.732-2.119,1.281-3.276,1.647c-1.181,0.378-2.396,0.567-3.647,0.567c-0.803,0-1.591-0.077-2.364-0.23
			c-0.773-0.153-1.538-0.396-2.293-0.726c-1.417-0.59-2.674-1.44-3.772-2.55c-0.531-0.531-1.006-1.104-1.425-1.718
			c-0.42-0.614-0.782-1.263-1.089-1.948l-4.321,1.257l4.321-7.88l7.915,4.321l-3.771,1.098c0.165,0.343,0.365,0.67,0.602,0.983
			c0.236,0.313,0.49,0.611,0.762,0.895c0.731,0.732,1.564,1.292,2.497,1.682c0.921,0.378,1.9,0.567,2.939,0.567
			c0.803,0,1.582-0.118,2.338-0.354c0.755-0.236,1.463-0.596,2.125-1.08c0.648-0.449,1.206-0.977,1.673-1.585
			c0.467-0.608,0.835-1.278,1.106-2.01l0.106-0.354L27.06,20.474z M4.959,11.744c0.425-1.074,0.989-2.063,1.691-2.966
			c0.702-0.903,1.532-1.691,2.488-2.364c1.003-0.744,2.092-1.298,3.267-1.665C13.58,4.383,14.793,4.2,16.045,4.2
			c1.617,0,3.17,0.318,4.657,0.956c0.72,0.283,1.393,0.644,2.019,1.08c0.626,0.437,1.21,0.921,1.753,1.452s1.021,1.107,1.435,1.727
			s0.773,1.278,1.08,1.975l4.356-1.275l-4.356,7.898l-7.88-4.321l3.754-1.098c-0.188-0.354-0.398-0.685-0.629-0.992
			c-0.229-0.307-0.48-0.608-0.752-0.903c-0.732-0.72-1.562-1.275-2.488-1.665c-0.927-0.389-1.91-0.584-2.948-0.584
			c-1.642,0-3.129,0.472-4.463,1.417c-0.626,0.46-1.175,0.995-1.646,1.603c-0.473,0.608-0.839,1.29-1.099,2.045l-0.105,0.301
			L4.959,11.744z"/>
	</g>
</g>
</svg>
