<?xml version="1.0" encoding="utf-8"?>
<!-- Generator: Adobe Illustrator 16.2.1, SVG Export Plug-In . SVG Version: 6.00 Build 0)  -->
<!DOCTYPE svg PUBLIC "-//W3C//DTD SVG 1.1//EN" "http://www.w3.org/Graphics/SVG/1.1/DTD/svg11.dtd">
<svg version="1.1" xmlns="http://www.w3.org/2000/svg" xmlns:xlink="http://www.w3.org/1999/xlink" x="0px" y="0px" viewBox="0 0 32 32" enable-background="new 0 0 32 32" xml:space="preserve" width="32px" height="32px" fill="#333">
<g id="Icons">
	<g>
		<path d="M12.167,22.708h3.967v1.45H5.768v-1.45h4v-1.283h-9.15V4.858h20.7v7.65c-0.479,0.066-0.917,0.145-1.316,0.233
			c-0.4,0.089-0.762,0.183-1.084,0.283V7.258H3.018v11.783h13.149v2.383h-4V22.708z M7.217,11.008H5.768v-2.35h2.3v1.45H7.217
			V11.008z M7.217,14.224H5.768v-2.167h1.449V14.224z M8.067,17.658h-2.3v-2.333h1.449v0.883h0.851V17.658z M12.4,10.108H9.501
			v-1.45H12.4V10.108z M12.4,17.658H9.501v-1.45H12.4V17.658z M16.167,11.008h-1.434v-0.9h-0.899v-1.45h2.333V11.008z
			 M16.167,17.658h-2.333v-1.45h0.899v-0.883h1.434V17.658z M16.167,14.258h-1.434v-2.167h1.434V14.258z M24.467,13.758
			c1.211,0,2.25,0.066,3.117,0.2c0.889,0.145,1.61,0.3,2.167,0.467c0.655,0.2,1.205,0.428,1.649,0.684v12.183h-13.8v-1.867V15.108
			c0.422-0.245,0.955-0.472,1.6-0.684c0.567-0.167,1.278-0.319,2.134-0.458C22.189,13.827,23.233,13.758,24.467,13.758z
			 M29.934,16.541H19.051v7.45h10.883V16.541z M26.567,25.458h-4.084v0.65h4.084V25.458z"/>
	</g>
</g>
</svg>
