<?xml version="1.0" encoding="utf-8"?>
<svg version="1.0" id="Layer_1" xmlns="http://www.w3.org/2000/svg" xmlns:xlink="http://www.w3.org/1999/xlink" x="0px" y="0px" viewBox="0 0 32 32" style="enable-background:new 0 0 32 32;" xml:space="preserve"  width="32px" height="32px" fill="#333">
<style type="text/css">
	.primary{fill:#333333;}
</style>
<path class="primary" d="M16,3.5c1.1,0,2.2,0.2,3.3,0.5c1.1,0.3,2,0.7,3,1.3s1.8,1.2,2.5,1.9s1.4,1.6,1.9,2.5c0.6,0.9,1,1.9,1.3,3
	s0.5,2.2,0.5,3.3s-0.2,2.2-0.5,3.3c-0.3,1-0.7,2-1.3,3c-0.6,0.9-1.2,1.8-1.9,2.5c-0.7,0.7-1.6,1.4-2.5,1.9c-0.9,0.6-1.9,0.9-3,1.3
	c-1.1,0.3-2.1,0.5-3.3,0.5c-1.1,0-2.2-0.2-3.3-0.5s-2-0.7-3-1.3c-0.9-0.6-1.8-1.2-2.5-1.9s-1.4-1.6-1.9-2.5s-0.9-1.9-1.3-3
	c-0.3-1-0.5-2.1-0.5-3.3s0.2-2.2,0.5-3.3s0.7-2,1.3-3c0.6-0.9,1.2-1.8,1.9-2.5s1.6-1.4,2.5-1.9c0.9-0.6,1.9-1,3-1.3S14.8,3.5,16,3.5
	z M16,25.8c1.4,0,2.7-0.3,3.8-0.7c1.2-0.6,2.2-1.2,3.1-2.1s1.6-1.9,2.1-3.1s0.7-2.5,0.7-3.8s-0.3-2.7-0.7-3.8
	c-0.5-1.2-1.2-2.2-2.1-3.1C22,8.1,21,7.5,19.8,6.9S17.3,6.2,16,6.2c-1.4,0-2.7,0.3-3.8,0.7C11,7.4,10,8.1,9.1,9.1
	c-1,0.9-1.6,1.9-2.2,3.1S6.2,14.7,6.2,16s0.3,2.7,0.7,3.8C7.5,21,8.1,22,9.1,22.9c0.9,0.9,1.9,1.6,3.1,2.1
	C13.3,25.5,14.6,25.8,16,25.8z M22.8,17.3H9.2v-2.7h13.5L22.8,17.3L22.8,17.3z"/>
</svg>
