<?xml version="1.0" encoding="iso-8859-1"?>
<!-- Generator: Adobe Illustrator 21.1.0, SVG Export Plug-In . SVG Version: 6.00 Build 0)  -->
<svg version="1.0" id="Layer_1" xmlns="http://www.w3.org/2000/svg" xmlns:xlink="http://www.w3.org/1999/xlink" x="0px" y="0px"
	 viewBox="0 0 32 32" style="enable-background:new 0 0 32 32;" xml:space="preserve" width="32px" height="32px" fill="#333">
<style type="text/css">
	.primary{fill:#333333;}
</style>
<path class="primary" d="M10.203,6.82c0.366,0,0.716,0.022,1.067,0.044c1.777-2.903,4.969-4.851,8.615-4.851
	c5.57,0,10.102,4.533,10.102,10.103c0,3.964-2.301,7.393-5.631,9.047l0.279,0.736c0.082-0.004,0.274-0.006,0.274-0.006l0.067,0.003
	c0.567,0.009,1.103,0.13,1.617,0.302C29.848,20.025,32,16.319,32,12.117C32,5.436,26.564,0,19.884,0
	c-4.803,0-8.951,2.816-10.91,6.878c0.152-0.011,0.296-0.033,0.452-0.04C9.69,6.826,9.948,6.82,10.203,6.82z"/>
<path class="primary" d="M28.812,12.117c0-4.923-4.006-8.929-8.928-8.929c-3.019,0-5.687,1.509-7.304,3.809
	c0.775,0.109,1.502,0.265,2.183,0.453c1.269-1.391,3.09-2.269,5.121-2.269c3.831,0,6.937,3.106,6.937,6.937
	c0,2.616-1.45,4.893-3.589,6.074l0.708,1.871C26.827,18.582,28.812,15.58,28.812,12.117z"/>
<path class="primary" d="M25.393,12.117c0-3.038-2.472-5.509-5.509-5.509c-1.37,0-2.623,0.506-3.588,1.337
	c0.813,0.309,1.523,0.649,2.138,0.984c0.443-0.202,0.931-0.321,1.449-0.321c1.938,0,3.51,1.571,3.51,3.51
	c0,1.144-0.556,2.15-1.403,2.791l0.728,1.925C24.317,15.868,25.393,14.118,25.393,12.117z"/>
<circle class="primary" cx="24.88" cy="27.367" r="1.325"/>
<circle class="primary" cx="13.574" cy="27.367" r="1.325"/>
<path class="primary" d="M2.255,11.973c1.254-0.713,2.588-1.277,3.977-1.706l-3.615,8c-0.139,0.308-0.133,0.682,0.016,0.984
	c0.149,0.302,0.419,0.487,0.711,0.487h5.033c-0.022-0.038-0.053-0.068-0.072-0.109c-0.263-0.53-0.274-1.17-0.029-1.713l0.077-0.169
	H4.736l2.586-5.722l1.808,4.001l0.942-2.084L8.173,9.74L8.131,9.535c0.273-0.039,0.554-0.07,0.841-0.095
	C9.164,9.424,9.349,9.399,9.546,9.39c0.899-0.04,1.736,0.015,2.529,0.118c0.299,0.039,0.588,0.086,0.871,0.14l-3.894,8.618
	c-0.139,0.308-0.133,0.682,0.016,0.984c0.149,0.302,0.419,0.487,0.711,0.487h1.52h3.34l0.753-1.991H11.17l2.586-5.722l2.068,4.577
	l0.858-2.27l-1.905-4.217c0.398,0.131,0.775,0.271,1.124,0.419c0.739,0.313,1.356,0.644,1.859,0.949
	c0.175,0.106,0.347,0.212,0.492,0.308c0.082,0.055,0.172,0.084,0.262,0.107l-4.13,10.924c-0.263-0.047-0.532-0.075-0.808-0.075
	c-0.025,0-0.05,0.003-0.075,0.004c-2.514,0.041-4.547,2.095-4.547,4.618c0,2.549,2.073,4.622,4.622,4.622
	c1.947,0,3.613-1.212,4.293-2.919c0.108-0.272,0.192-0.557,0.247-0.852h2.226c0.055,0.295,0.139,0.579,0.247,0.852
	c0.68,1.707,2.346,2.919,4.293,2.919c2.549,0,4.622-2.073,4.622-4.622c0-2.523-2.034-4.578-4.547-4.618
	c-0.025,0-0.049-0.004-0.075-0.004c-0.276,0-0.546,0.029-0.809,0.075l-4.577-12.108c-0.009-0.023-0.029-0.034-0.042-0.053
	c-0.064-0.111-0.145-0.213-0.259-0.289c-0.201-0.134-0.431-0.278-0.685-0.428c-1.826-1.076-4.989-2.438-9.042-2.255
	c-3.705,0.175-6.494,1.556-8.18,2.684C1.202,10.43,0.557,10.905,0,11.314v0.042v2.122c0.358-0.275,0.726-0.54,1.101-0.791
	C1.479,12.436,1.864,12.196,2.255,11.973z M13.574,30.286c-1.612,0-2.919-1.307-2.919-2.919s1.307-2.919,2.919-2.919
	c1.612,0,2.919,1.307,2.919,2.919S15.186,30.286,13.574,30.286z M24.88,24.448c1.612,0,2.919,1.307,2.919,2.919
	s-1.307,2.919-2.919,2.919c-1.612,0-2.919-1.307-2.919-2.919S23.268,24.448,24.88,24.448z M19.227,15.345
	c0.11,0,0.221,0.062,0.267,0.185l2.985,7.896c-0.254,0.155-0.491,0.333-0.709,0.533c-0.514,0.469-0.921,1.05-1.183,1.706
	c-0.108,0.272-0.192,0.557-0.247,0.852h-2.226c-0.055-0.295-0.139-0.579-0.247-0.852c-0.261-0.657-0.669-1.237-1.183-1.706
	c-0.218-0.199-0.455-0.378-0.709-0.533l2.985-7.896C19.006,15.406,19.117,15.345,19.227,15.345z"/>
</svg>
