<?xml version="1.0" encoding="utf-8"?>
<!-- Generator: Adobe Illustrator 16.2.1, SVG Export Plug-In . SVG Version: 6.00 Build 0)  -->
<!DOCTYPE svg PUBLIC "-//W3C//DTD SVG 1.1//EN" "http://www.w3.org/Graphics/SVG/1.1/DTD/svg11.dtd">
<svg version="1.1" xmlns="http://www.w3.org/2000/svg" xmlns:xlink="http://www.w3.org/1999/xlink" x="0px" y="0px" viewBox="0 0 32 32" enable-background="new 0 0 32 32" xml:space="preserve" width="32px" height="32px" fill="#333">
<g id="Icons">
	<g>
		<path d="M23.373,4.386c0.402,0,0.777,0.074,1.125,0.222s0.656,0.354,0.922,0.62s0.471,0.573,0.619,0.921
			c0.146,0.348,0.221,0.723,0.221,1.125v16.805c0,0.401-0.074,0.776-0.221,1.125c-0.148,0.348-0.354,0.655-0.619,0.921
			s-0.574,0.472-0.922,0.62c-0.348,0.148-0.723,0.221-1.125,0.221H7.967c-0.4,0-0.779-0.073-1.133-0.221
			c-0.354-0.147-0.664-0.354-0.93-0.62s-0.475-0.573-0.629-0.921c-0.152-0.348-0.23-0.723-0.23-1.125V7.273
			c0-0.401,0.078-0.776,0.23-1.125C5.43,5.8,5.639,5.493,5.904,5.228s0.576-0.472,0.93-0.62s0.732-0.222,1.133-0.222h0.549V4.351
			c0-0.39,0.074-0.758,0.223-1.107C8.885,2.896,9.086,2.592,9.34,2.333s0.555-0.463,0.902-0.611c0.35-0.147,0.725-0.221,1.125-0.221
			c0.391,0,0.758,0.074,1.107,0.221c0.348,0.148,0.652,0.352,0.912,0.611s0.463,0.563,0.611,0.912
			c0.146,0.349,0.221,0.717,0.221,1.107v0.035h2.834V4.351c0-0.39,0.072-0.758,0.221-1.107c0.146-0.348,0.352-0.652,0.611-0.912
			s0.562-0.463,0.912-0.611C19.145,1.574,19.514,1.5,19.902,1.5c0.402,0,0.777,0.074,1.125,0.221
			c0.348,0.148,0.648,0.352,0.902,0.611s0.455,0.563,0.604,0.912c0.146,0.349,0.221,0.717,0.221,1.107v0.035H23.373z M24.738,10.301
			H6.568v13.777c0,0.189,0.035,0.366,0.107,0.531c0.07,0.166,0.17,0.31,0.301,0.434c0.129,0.124,0.277,0.221,0.441,0.292
			c0.166,0.071,0.35,0.106,0.549,0.106h15.406c0.379,0,0.701-0.133,0.967-0.398s0.398-0.587,0.398-0.965V10.301z M15.652,14.25
			H8.746v-1.523h6.906V14.25z M15.652,18.11H8.746v-1.523h6.906V18.11z M15.652,22.272H8.746v-1.523h6.906V22.272z M10.039,4.386
			v2.922c0,0.177,0.033,0.346,0.098,0.505s0.16,0.301,0.283,0.425c0.125,0.124,0.266,0.222,0.426,0.292
			c0.158,0.071,0.332,0.106,0.521,0.106c0.178,0,0.346-0.035,0.506-0.106c0.158-0.071,0.301-0.168,0.424-0.292
			c0.125-0.124,0.223-0.266,0.293-0.425s0.105-0.328,0.105-0.505V4.386V4.351c0-0.177-0.035-0.345-0.105-0.505
			c-0.07-0.159-0.168-0.301-0.293-0.425c-0.123-0.124-0.266-0.221-0.424-0.292c-0.16-0.071-0.328-0.106-0.506-0.106
			c-0.189,0-0.363,0.035-0.521,0.106c-0.16,0.071-0.301,0.168-0.426,0.292c-0.123,0.124-0.219,0.266-0.283,0.425
			c-0.064,0.16-0.098,0.328-0.098,0.505V4.386z M17.689,15.702v-1.293c0.283-0.023,0.531-0.041,0.744-0.053
			c0.236-0.012,0.412-0.036,0.531-0.071c0.389-0.071,0.689-0.242,0.902-0.514c0.094-0.094,0.168-0.195,0.223-0.301
			c0.053-0.106,0.107-0.236,0.168-0.39c0.023-0.094,0.037-0.168,0.043-0.221s0.01-0.097,0.01-0.133h1.594v9.616h-1.93v-6.641H17.689
			z M18.574,4.386v2.922c0,0.177,0.035,0.346,0.107,0.505c0.07,0.159,0.168,0.301,0.291,0.425c0.125,0.124,0.266,0.222,0.426,0.292
			s0.328,0.106,0.504,0.106c0.189,0,0.363-0.035,0.523-0.106c0.158-0.071,0.301-0.168,0.424-0.292
			c0.125-0.124,0.219-0.266,0.283-0.425c0.066-0.159,0.098-0.328,0.098-0.505V4.386V4.351c0-0.177-0.031-0.345-0.098-0.505
			c-0.064-0.159-0.158-0.301-0.283-0.425c-0.123-0.124-0.266-0.221-0.424-0.292c-0.16-0.071-0.334-0.106-0.523-0.106
			c-0.176,0-0.344,0.035-0.504,0.106c-0.16,0.071-0.301,0.168-0.426,0.292c-0.123,0.124-0.221,0.266-0.291,0.425
			c-0.072,0.16-0.107,0.328-0.107,0.505V4.386z"/>
	</g>
</g>
</svg>
