<?xml version="1.0" encoding="utf-8"?>
<!-- Generator: Adobe Illustrator 16.2.1, SVG Export Plug-In . SVG Version: 6.00 Build 0)  -->
<!DOCTYPE svg PUBLIC "-//W3C//DTD SVG 1.1//EN" "http://www.w3.org/Graphics/SVG/1.1/DTD/svg11.dtd">
<svg version="1.1" xmlns="http://www.w3.org/2000/svg" xmlns:xlink="http://www.w3.org/1999/xlink" x="0px" y="0px" viewBox="0 0 32 32" enable-background="new 0 0 32 32" xml:space="preserve" width="32px" height="32px" fill="#333">
<g id="Font">
	<g>
		<path d="M16.054,12.975c-0.508,0.407-0.948,0.877-1.319,1.408c-0.372,0.531-0.664,1.112-0.877,1.744
			c-0.213,0.631-0.325,1.295-0.336,1.992c-0.013,0.661,0.067,1.301,0.238,1.921s0.435,1.213,0.788,1.78
			c0.343,0.543,0.75,1.023,1.222,1.443c0.473,0.418,0.992,0.764,1.559,1.035L15.221,28c-0.873-0.449-1.67-1.004-2.391-1.664
			c-0.72-0.662-1.346-1.411-1.877-2.25c-0.578-0.908-1.009-1.871-1.293-2.886c-0.283-1.016-0.413-2.065-0.389-3.152
			c0.035-1.487,0.348-2.904,0.938-4.25c0.566-1.298,1.369-2.455,2.408-3.471c0.52-0.496,1.074-0.933,1.664-1.311
			c0.591-0.378,1.216-0.702,1.877-0.974c0.13-0.059,0.263-0.109,0.398-0.15s0.274-0.086,0.417-0.133L16.301,4.2l6.729,4.781
			l-4.64,6.835l-0.655-3.824C17.122,12.24,16.561,12.567,16.054,12.975z"/>
	</g>
</g>
</svg>
