<?xml version="1.0" encoding="utf-8"?>
<!-- Generator: Adobe Illustrator 16.2.1, SVG Export Plug-In . SVG Version: 6.00 Build 0)  -->
<!DOCTYPE svg PUBLIC "-//W3C//DTD SVG 1.1//EN" "http://www.w3.org/Graphics/SVG/1.1/DTD/svg11.dtd">
<svg version="1.1" xmlns="http://www.w3.org/2000/svg" xmlns:xlink="http://www.w3.org/1999/xlink" x="0px" y="0px" viewBox="0 0 32 32" enable-background="new 0 0 32 32" xml:space="preserve" width="32px" height="32px" fill="#333">
<g id="Icons">
	<g>
		<path d="M16.367,4.197c1.098,0,2.157,0.139,3.179,0.416c1.021,0.277,1.971,0.68,2.851,1.205c0.879,0.525,1.68,1.148,2.399,1.867
			c0.72,0.721,1.34,1.521,1.859,2.4c0.52,0.879,0.918,1.826,1.195,2.842s0.416,2.072,0.416,3.17s-0.139,2.151-0.416,3.16
			c-0.277,1.01-0.676,1.955-1.195,2.834s-1.14,1.682-1.859,2.408s-1.521,1.35-2.399,1.868c-0.88,0.521-1.83,0.921-2.851,1.204
			c-1.021,0.283-2.081,0.426-3.179,0.426c-1.016,0-1.999-0.125-2.949-0.373c-0.95-0.247-1.848-0.598-2.691-1.053
			s-1.617-1.001-2.319-1.639c-0.703-0.637-1.322-1.348-1.859-2.133c-0.538-0.785-0.98-1.636-1.328-2.551
			c-0.349-0.914-0.576-1.868-0.682-2.859h14.786l-5.224,5.188l1.788,1.842l8.341-8.287l-8.341-8.34l-1.788,1.806l5.259,5.241H4.538
			c0.165-1.498,0.584-2.895,1.257-4.188S7.329,8.232,8.38,7.27c1.051-0.961,2.261-1.715,3.631-2.258
			C13.38,4.469,14.832,4.197,16.367,4.197z"/>
	</g>
</g>
</svg>
