<?xml version="1.0" encoding="utf-8"?>
<!-- Generator: Adobe Illustrator 19.0.0, SVG Export Plug-In . SVG Version: 6.00 Build 0)  -->
<svg version="1.0" id="Layer_1" xmlns="http://www.w3.org/2000/svg" xmlns:xlink="http://www.w3.org/1999/xlink" x="0px" y="0px" viewBox="0 0 32 32" style="enable-background:new 0 0 32 32;" xml:space="preserve" width="32px" height="32px" fill="#333">
<style type="text/css">
	.primary{fill:#333333;}
</style>
<path class="primary" d="M24.917,18c-1.33,0-2.568,0.382-3.622,1.033l-0.912-1.481
	c0.173-0.488,0.284-1.004,0.284-1.551c0-0.558-0.114-1.086-0.294-1.582l0.964-1.591c1.045,0.635,2.268,1.007,3.58,1.007
	c3.82,0,6.917-3.097,6.917-6.917c0-3.82-3.097-6.917-6.917-6.917C21.097,0,18,3.097,18,6.917c0,1.358,0.397,2.621,1.073,3.69
	l-1.576,0.995c-0.473-0.161-0.971-0.268-1.498-0.268c-0.539,0-1.047,0.11-1.529,0.277l-1.685-1.047
	c0.66-1.06,1.047-2.307,1.047-3.647C13.833,3.097,10.737,0,6.917,0C3.097,0,0,3.097,0,6.917c0,3.82,3.097,6.917,6.917,6.917
	c1.34,0,2.587-0.388,3.647-1.047l1.047,1.685c-0.168,0.481-0.277,0.99-0.277,1.529c0,0.527,0.107,1.025,0.268,1.498l-0.995,1.576
	C9.538,18.397,8.275,18,6.917,18C3.097,18,0,21.097,0,24.917c0,3.82,3.097,6.917,6.917,6.917c3.82,0,6.917-3.097,6.917-6.917
	c0-1.312-0.372-2.535-1.007-3.58l1.591-0.964c0.496,0.18,1.024,0.294,1.582,0.294c0.547,0,1.064-0.112,1.551-0.284l1.481,0.912
	C18.382,22.349,18,23.587,18,24.917c0,3.82,3.097,6.917,6.917,6.917c3.82,0,6.917-3.097,6.917-6.917
	C31.833,21.097,28.737,18,24.917,18z M20,6.917C20,4.206,22.206,2,24.917,2s4.917,2.206,4.917,4.917s-2.206,4.917-4.917,4.917
	c-0.932,0-1.795-0.275-2.538-0.727l1.505-2.485c0.302,0.184,0.653,0.295,1.033,0.295c0.178,0,0.347-0.031,0.512-0.074l1.042,1.042
	c0.195,0.195,0.451,0.293,0.707,0.293s0.512-0.098,0.707-0.293c0.391-0.391,0.391-1.023,0-1.414l-1.042-1.042
	c0.044-0.164,0.074-0.334,0.074-0.512c0-1.105-0.895-2-2-2c-0.178,0-0.347,0.031-0.512,0.074l-1.043-1.043
	c-0.391-0.391-1.023-0.391-1.414,0s-0.391,1.023,0,1.414l1.043,1.043c-0.044,0.164-0.074,0.334-0.074,0.512
	c0,0.393,0.117,0.756,0.313,1.065l-2.459,1.553C20.289,8.775,20,7.881,20,6.917z M6.917,11.833C4.206,11.833,2,9.628,2,6.917
	S4.206,2,6.917,2s4.917,2.206,4.917,4.917c0,0.952-0.284,1.833-0.754,2.587L8.611,7.969c0.191-0.306,0.306-0.665,0.306-1.053
	c0-0.178-0.031-0.348-0.074-0.512l1.042-1.042c0.391-0.391,0.391-1.023,0-1.414s-1.023-0.391-1.414,0L7.428,4.991
	C7.264,4.947,7.095,4.917,6.917,4.917c-1.105,0-2,0.895-2,2c0,0.178,0.031,0.347,0.074,0.511L3.948,8.471
	c-0.391,0.391-0.391,1.023,0,1.414c0.195,0.195,0.451,0.293,0.707,0.293s0.512-0.098,0.707-0.293l1.043-1.043
	c0.164,0.044,0.334,0.074,0.512,0.074c0.388,0,0.746-0.115,1.053-0.306l1.534,2.469C8.75,11.55,7.868,11.833,6.917,11.833z
	 M11.833,24.917c0,2.711-2.206,4.917-4.917,4.917S2,27.628,2,24.917S4.206,20,6.917,20c0.964,0,1.858,0.289,2.618,0.771
	l-1.552,2.459c-0.309-0.196-0.673-0.313-1.065-0.313c-0.178,0-0.347,0.031-0.512,0.074l-1.043-1.043
	c-0.391-0.391-1.023-0.391-1.414,0s-0.391,1.023,0,1.414l1.043,1.043c-0.044,0.164-0.074,0.334-0.074,0.512c0,1.105,0.895,2,2,2
	c0.178,0,0.347-0.031,0.512-0.074l1.042,1.042c0.195,0.195,0.451,0.293,0.707,0.293s0.512-0.098,0.707-0.293
	c0.391-0.391,0.391-1.023,0-1.414l-1.042-1.042c0.044-0.164,0.074-0.334,0.074-0.512c0-0.379-0.112-0.73-0.295-1.033l2.485-1.505
	C11.558,23.122,11.833,23.985,11.833,24.917z M24.917,29.833c-2.711,0-4.917-2.206-4.917-4.917c0-0.944,0.281-1.819,0.744-2.569
	l2.475,1.523c-0.188,0.305-0.302,0.661-0.302,1.045c0,0.178,0.031,0.347,0.074,0.511l-1.043,1.043c-0.391,0.391-0.391,1.023,0,1.414
	c0.195,0.195,0.451,0.293,0.707,0.293s0.512-0.098,0.707-0.293l1.043-1.043c0.164,0.044,0.334,0.074,0.512,0.074
	c1.105,0,2-0.895,2-2c0-0.178-0.031-0.348-0.074-0.512l1.042-1.042c0.391-0.391,0.391-1.023,0-1.414s-1.023-0.391-1.414,0
	l-1.043,1.043c-0.164-0.044-0.333-0.074-0.511-0.074c-0.385,0-0.74,0.114-1.045,0.302l-1.523-2.475
	C23.098,20.281,23.972,20,24.917,20c2.711,0,4.917,2.206,4.917,4.917S27.628,29.833,24.917,29.833z"/>
</svg>
