<?xml version="1.0" encoding="utf-8"?>
<!-- Generator: Adobe Illustrator 16.2.1, SVG Export Plug-In . SVG Version: 6.00 Build 0)  -->
<!DOCTYPE svg PUBLIC "-//W3C//DTD SVG 1.1//EN" "http://www.w3.org/Graphics/SVG/1.1/DTD/svg11.dtd">
<svg version="1.1" xmlns="http://www.w3.org/2000/svg" xmlns:xlink="http://www.w3.org/1999/xlink" x="0px" y="0px" viewBox="0 0 32 32" enable-background="new 0 0 32 32" xml:space="preserve" width="32px" height="32px" fill="#333">
<g id="Icons">
	<g>
		<path d="M23.562,14.557c0.212,0.088,0.392,0.209,0.54,0.363c0.147,0.154,0.266,0.333,0.354,0.54
			c0.089,0.207,0.133,0.422,0.133,0.646v11.227H7.554V16.106c0-0.236,0.044-0.455,0.133-0.655s0.206-0.377,0.354-0.531
			c0.147-0.153,0.327-0.274,0.54-0.363c0.212-0.089,0.437-0.133,0.673-0.133h10.66v-4.48c0-0.531-0.101-1.027-0.301-1.487
			c-0.201-0.46-0.476-0.865-0.823-1.213c-0.349-0.348-0.756-0.625-1.223-0.832c-0.466-0.207-0.965-0.31-1.496-0.31
			c-0.638,0-1.239,0.151-1.806,0.452c-0.567,0.301-1.033,0.717-1.399,1.249l-2.107-1.435c0.295-0.448,0.641-0.847,1.036-1.195
			c0.396-0.348,0.82-0.643,1.275-0.885c0.454-0.242,0.935-0.425,1.442-0.549s1.027-0.186,1.559-0.186
			c0.886,0,1.715,0.168,2.488,0.504c0.773,0.337,1.452,0.794,2.036,1.373c0.585,0.579,1.045,1.254,1.382,2.028
			c0.336,0.773,0.504,1.603,0.504,2.488v4.48h0.407C23.125,14.424,23.35,14.468,23.562,14.557z"/>
	</g>
</g>
</svg>
