<?xml version="1.0" encoding="utf-8"?>
<!-- Generator: Adobe Illustrator 23.0.6, SVG Export Plug-In . SVG Version: 6.00 Build 0)  -->
<svg version="1.0" id="Layer_1" xmlns="http://www.w3.org/2000/svg" xmlns:xlink="http://www.w3.org/1999/xlink" x="0px" y="0px"
     viewBox="0 0 32 32" style="enable-background:new 0 0 32 32;" xml:space="preserve" width="32px" height="32px" fill="#333">
<style type="text/css">
	.st0{fill:#333333;}
</style>
<path d="M25.6,11.1c-0.7,0-1.3-0.1-1.8-0.3v2.7h-5.3V8.3h2.7c-0.3-0.8-0.5-1.6-0.4-2.4l-0.5-0.2H0V32h26.4V11
	C26.1,11.1,25.9,11.1,25.6,11.1z M7.9,29.4H2.6v-5.3h5.3V29.4z M7.9,21.5H2.6v-5.3h5.3V21.5z M7.9,13.5H2.6V8.3h5.3V13.5z
	 M15.8,29.4h-5.3v-5.3h5.3V29.4z M15.8,21.5h-5.3v-5.3h5.3V21.5z M15.8,13.5h-5.3V8.3h5.3V13.5z M23.8,29.4h-5.3v-5.3h5.3V29.4z
	 M23.8,21.5h-5.3v-5.3h5.3V21.5z"/>
<path class="st0" d="M24.7,0c-4,0-7.2,3.2-7.2,7.2s3.2,7.2,7.2,7.2s7.2-3.2,7.2-7.2S28.7,0,24.7,0z M27.3,10.7h-5.1V9.6L24.7,7
	c0.5-0.5,0.8-0.9,0.8-1.3c0-0.5-0.4-0.8-0.9-0.8s-0.9,0.4-0.9,0.9v0.1h-1.6V5.8c0-1.3,1-2.2,2.6-2.2c1.5,0,2.5,0.8,2.5,2
	c0,0.8-0.4,1.3-1.3,2.3l-1.4,1.5v0.1h2.8V10.7z"/>
</svg>
