<?xml version="1.0" encoding="utf-8"?>
<!-- Generator: Adobe Illustrator 16.2.1, SVG Export Plug-In . SVG Version: 6.00 Build 0)  -->
<!DOCTYPE svg PUBLIC "-//W3C//DTD SVG 1.1//EN" "http://www.w3.org/Graphics/SVG/1.1/DTD/svg11.dtd">
<svg version="1.1" xmlns="http://www.w3.org/2000/svg" xmlns:xlink="http://www.w3.org/1999/xlink" x="0px" y="0px" viewBox="0 0 32 32" enable-background="new 0 0 32 32" xml:space="preserve" width="32px" height="32px" fill="#333">
<g id="Icons">
	<g>
		<path d="M15.921,4.965c1.099,0,2.155,0.139,3.17,0.416c1.016,0.277,1.966,0.679,2.852,1.204c0.885,0.525,1.688,1.145,2.408,1.859
			c0.72,0.714,1.34,1.514,1.859,2.399s0.918,1.836,1.195,2.851c0.277,1.016,0.416,2.072,0.416,3.17c0,1.098-0.139,2.151-0.416,3.161
			c-0.277,1.01-0.676,1.957-1.195,2.842c-0.52,0.886-1.14,1.688-1.859,2.408c-0.721,0.72-1.523,1.34-2.408,1.859
			c-0.886,0.52-1.836,0.921-2.852,1.205c-1.015,0.283-2.071,0.425-3.17,0.425c-1.098,0-2.151-0.142-3.16-0.425
			c-1.01-0.284-1.954-0.685-2.834-1.205c-0.879-0.519-1.682-1.139-2.408-1.859c-0.726-0.72-1.346-1.522-1.859-2.408
			c-0.514-0.885-0.912-1.833-1.195-2.842c-0.283-1.009-0.425-2.063-0.425-3.161c0-1.098,0.142-2.154,0.425-3.17
			c0.283-1.015,0.682-1.966,1.195-2.851s1.134-1.685,1.859-2.399C8.245,7.73,9.048,7.111,9.927,6.585
			c0.88-0.525,1.824-0.927,2.834-1.204C13.77,5.104,14.823,4.965,15.921,4.965z M17.745,16.883l4.463-4.445l-1.824-1.806
			l-4.444,4.445l-4.445-4.445l-1.806,1.806l4.444,4.445l-4.409,4.409l1.806,1.807l4.41-4.41l4.427,4.41l1.807-1.807L17.745,16.883z"/>
	</g>
</g>
</svg>
