<?xml version="1.0" encoding="utf-8"?>
<!-- Generator: Adobe Illustrator 23.0.6, SVG Export Plug-In . SVG Version: 6.00 Build 0)  -->
<svg version="1.0" id="Layer_1" xmlns="http://www.w3.org/2000/svg" xmlns:xlink="http://www.w3.org/1999/xlink" x="0px" y="0px"
     viewBox="0 0 32 32" style="enable-background:new 0 0 32 32;" xml:space="preserve" width="32px" height="32px" fill="#333">
<style type="text/css">
	.st0{fill:#333333;}
</style>
<path d="M25.6,11.1c-0.7,0-1.3-0.1-1.8-0.3v2.7h-5.3V8.2h2.7c-0.3-0.8-0.5-1.6-0.4-2.4l-0.5-0.2H0V32h26.4V11
	C26.1,11.1,25.9,11.1,25.6,11.1z M7.9,29.4H2.6v-5.3h5.3V29.4z M7.9,21.4H2.6v-5.3h5.3V21.4z M7.9,13.5H2.6V8.2h5.3V13.5z
	 M15.8,29.4h-5.3v-5.3h5.3V29.4z M15.8,21.4h-5.3v-5.3h5.3V21.4z M15.8,13.5h-5.3V8.2h5.3V13.5z M23.8,29.4h-5.3v-5.3h5.3V29.4z
	 M23.8,21.4h-5.3v-5.3h5.3V21.4z"/>
<path class="st0" d="M24.7,0c-4,0-7.2,3.2-7.2,7.2s3.2,7.2,7.2,7.2s7.2-3.2,7.2-7.2S28.7,0,24.7,0z M25.9,10.6h-1.7V5h-0.1
	c-0.1,0.1-1.4,1-1.6,1.1V4.6c0.2-0.1,1.5-1,1.7-1.1h1.7V10.6z"/>
</svg>
