<?xml version="1.0" encoding="utf-8"?>
<!-- Generator: Adobe Illustrator 21.1.0, SVG Export Plug-In . SVG Version: 6.00 Build 0)  -->
<svg version="1.0" id="Layer_1" xmlns="http://www.w3.org/2000/svg" xmlns:xlink="http://www.w3.org/1999/xlink" x="0px" y="0px"
	 viewBox="0 0 32 32" style="enable-background:new 0 0 32 32;" xml:space="preserve" width="32px" height="32px" fill="#333">
<style type="text/css">
	.primary{fill:#333333;}
</style>
<path class="primary" d="M9.973,10.168c0.911-4.641,5.007-8.155,9.911-8.155c5.57,0,10.102,4.533,10.102,10.103
	c0,2.369-0.825,4.546-2.196,6.27l0.416,1.336c0.315,0.043,0.631,0.108,0.945,0.182C30.926,17.797,32,15.081,32,12.117
	C32,5.436,26.564,0,19.884,0C13.867,0,8.875,4.413,7.938,10.168h1.203H9.973z"/>
<path class="primary" d="M19.884,3.188c-4.254,0-7.817,2.992-8.709,6.981h1.904h0.15c0.843-2.881,3.5-4.988,6.654-4.988
	c3.831,0,6.937,3.106,6.937,6.937c0,1.034-0.232,2.011-0.638,2.892c0.235,0.22,0.463,0.449,0.68,0.693l0.143,0.161l0.351,1.127
	c0.918-1.403,1.457-3.076,1.457-4.874C28.812,7.194,24.806,3.188,19.884,3.188z"/>
<path class="primary" d="M19.884,6.608c-2.365,0-4.38,1.5-5.16,3.596v2.215h1.441c0.076,0,0.158,0.009,0.242,0.024
	c-0.01-0.109-0.033-0.214-0.033-0.325c0-1.938,1.571-3.51,3.51-3.51c1.938,0,3.51,1.571,3.51,3.51c0,0.322-0.057,0.628-0.139,0.925
	c0.339,0.16,0.681,0.337,1.024,0.542c0.25,0.149,0.499,0.316,0.748,0.492c0.233-0.61,0.366-1.268,0.366-1.958
	C25.393,9.079,22.921,6.608,19.884,6.608z"/>
<path class="primary" d="M8.64,26.692c-0.283-0.283-0.613-0.508-0.992-0.675c-0.377-0.167-0.777-0.25-1.199-0.25
	s-0.824,0.083-1.209,0.25c-0.383,0.167-0.713,0.391-0.99,0.675c-0.279,0.283-0.5,0.617-0.668,1c-0.166,0.384-0.25,0.792-0.25,1.225
	c0,0.422,0.084,0.823,0.25,1.2C3.75,30.495,3.971,30.822,4.25,31.1c0.277,0.278,0.607,0.497,0.99,0.658
	C5.625,31.919,6.027,32,6.449,32c0.434,0,0.836-0.081,1.209-0.242c0.371-0.16,0.699-0.381,0.982-0.658
	c0.283-0.277,0.508-0.605,0.676-0.983c0.166-0.377,0.25-0.778,0.25-1.2c0-0.444-0.084-0.856-0.25-1.233
	C9.148,27.306,8.923,26.975,8.64,26.692z"/>
<path class="primary" d="M27.125,26.692c-0.283-0.283-0.615-0.508-0.992-0.675c-0.379-0.167-0.783-0.25-1.217-0.25
	s-0.84,0.083-1.217,0.25s-0.709,0.391-0.992,0.675c-0.283,0.283-0.508,0.617-0.674,1c-0.168,0.384-0.25,0.792-0.25,1.225
	c0,0.422,0.082,0.823,0.25,1.2c0.166,0.378,0.391,0.705,0.674,0.983s0.615,0.497,0.992,0.658S24.482,32,24.916,32
	c0.444,0,0.854-0.081,1.225-0.242c0.373-0.16,0.701-0.381,0.984-0.658c0.283-0.277,0.504-0.605,0.666-0.983
	c0.16-0.377,0.242-0.778,0.242-1.2c0-0.444-0.082-0.856-0.242-1.233C27.629,27.306,27.408,26.975,27.125,26.692z"/>
<path class="primary" d="M31.999,22.417c-0.467-0.433-0.965-0.767-1.492-1c-0.528-0.233-1.02-0.406-1.475-0.517
	c-0.533-0.133-1.063-0.216-1.584-0.25l-1.334-4.283c-0.365-0.411-0.75-0.775-1.148-1.092c-0.4-0.316-0.801-0.594-1.201-0.833
	c-0.4-0.239-0.796-0.445-1.191-0.617c-0.395-0.172-0.77-0.314-1.125-0.425c-0.822-0.267-1.638-0.439-2.449-0.517V26H9.949
	c0.334,0.4,0.594,0.844,0.777,1.333c0.183,0.489,0.275,1.017,0.275,1.583c0,0.19-0.006,0.375-0.018,0.559
	c-0.012,0.184-0.045,0.364-0.1,0.542h9.619c-0.056-0.178-0.096-0.359-0.117-0.542c-0.023-0.184-0.033-0.37-0.033-0.559
	c0-0.633,0.119-1.227,0.357-1.783c0.241-0.555,0.565-1.041,0.977-1.458c0.41-0.417,0.892-0.744,1.449-0.983
	c0.554-0.238,1.151-0.358,1.783-0.358s1.224,0.119,1.775,0.358c0.548,0.239,1.029,0.566,1.441,0.983
	c0.411,0.416,0.737,0.903,0.975,1.458c0.238,0.555,0.359,1.15,0.359,1.783c0,0.19-0.006,0.375-0.018,0.559
	c-0.012,0.184-0.045,0.364-0.1,0.542H32v-3.45h-1.334h-0.001v-4.183L31.999,22.417z M23.949,20.666
	c-0.479-0.033-0.965-0.117-1.459-0.25c-0.494-0.133-0.908-0.361-1.24-0.683c-0.067-0.055-0.121-0.141-0.158-0.259
	c-0.04-0.117-0.073-0.247-0.102-0.392c-0.027-0.144-0.048-0.303-0.066-0.475c-0.016-0.172-0.029-0.341-0.041-0.508
	c-0.033-0.4-0.051-0.827-0.051-1.283h3.783l1.068,3.833C25.082,20.705,24.504,20.711,23.949,20.666z"/>
<path class="primary" d="M17.597,19.036c0-5.618-1.432-5.618-1.432-5.618h-2.107v-2.25h-2.015v2.25H8.141v-2.25H3.538v2.25H1.432
	c0,0-1.432,0-1.432,5.618c0,5.618,1.432,5.618,1.432,5.618h14.734C16.165,24.655,17.597,24.655,17.597,19.036z M3.548,22.655H2.35
	C2.198,22.136,2,21.071,2,19.036c0-2.035,0.198-3.1,0.35-3.618h1.198V22.655z M12.048,22.655h-6.5v-7.237h6.5V22.655z
	 M15.247,22.655h-1.198v-7.237h1.198c0.152,0.518,0.35,1.583,0.35,3.618C15.597,21.071,15.399,22.136,15.247,22.655z"/>
</svg>
