<?xml version="1.0" encoding="iso-8859-1"?>
<!-- Generator: Adobe Illustrator 21.1.0, SVG Export Plug-In . SVG Version: 6.00 Build 0)  -->
<svg version="1.0" id="Layer_1" xmlns="http://www.w3.org/2000/svg" xmlns:xlink="http://www.w3.org/1999/xlink" x="0px" y="0px"
	 viewBox="0 0 32 32" style="enable-background:new 0 0 32 32;" xml:space="preserve" width="32px" height="32px" fill="#333">
<style type="text/css">
	.primary{fill:#333333;}
</style>
<circle class="primary" cx="8.814" cy="15.995" r="2.602"/>
<circle class="primary" cx="6.449" cy="28.883" r="3.117"/>
<path class="primary" d="M19.884,2.014c5.57,0,10.102,4.533,10.102,10.103c0,2.369-0.825,4.546-2.195,6.27l0.416,1.336
	c0.315,0.043,0.631,0.108,0.945,0.182C30.926,17.797,32,15.081,32,12.117C32,5.436,26.564,0,19.884,0
	c-4.755,0-8.867,2.76-10.851,6.755h2.302C13.126,3.913,16.284,2.014,19.884,2.014z"/>
<path class="primary" d="M19.884,3.188c-2.911,0-5.493,1.406-7.124,3.568h2.723c1.197-0.984,2.729-1.575,4.4-1.575
	c3.831,0,6.937,3.106,6.937,6.937c0,1.034-0.232,2.011-0.638,2.892c0.235,0.22,0.463,0.449,0.68,0.693l0.493,1.288
	c0.918-1.403,1.457-3.075,1.457-4.874C28.812,7.194,24.806,3.188,19.884,3.188z"/>
<path class="primary" d="M19.884,6.608c-0.433,0-0.852,0.055-1.256,0.15v2.091c0.391-0.15,0.812-0.241,1.255-0.241
	c1.938,0,3.51,1.571,3.51,3.51c0,0.322-0.057,0.628-0.139,0.925c0.34,0.16,0.682,0.337,1.024,0.543
	c0.249,0.148,0.499,0.315,0.748,0.491c0.233-0.61,0.366-1.268,0.366-1.958C25.393,9.079,22.921,6.608,19.884,6.608z"/>
<path class="primary" d="M17.628,7.755H0v7.946v8.921h17.628V7.755z M13.8,15.783c0,0.076,0,0.15,0,0.221c0,0.066,0,0.135,0,0.207
	c0,0.072-0.007,0.148-0.02,0.227l1.666,0.838l-0.532,1.586l-1.833-0.305c-0.151,0.25-0.322,0.489-0.513,0.719l0.847,1.646
	l-1.359,0.986l-1.301-1.321c-0.263,0.112-0.539,0.207-0.827,0.286l-0.266,1.823H7.977L7.69,20.873
	c-0.145-0.046-0.288-0.092-0.429-0.138c-0.141-0.046-0.274-0.095-0.399-0.148l-1.31,1.321l-1.359-0.986l0.847-1.646
	c-0.092-0.118-0.18-0.235-0.266-0.349c-0.086-0.115-0.168-0.238-0.247-0.37l-1.832,0.305l-0.513-1.586l1.666-0.838
	c-0.013-0.072-0.019-0.146-0.019-0.221s0-0.146,0-0.212c0-0.072,0-0.146,0-0.221c0-0.075,0.007-0.152,0.019-0.231l-1.666-0.818
	l0.513-1.607l1.833,0.305c0.072-0.125,0.152-0.246,0.242-0.365c0.089-0.118,0.179-0.236,0.271-0.354l-0.847-1.647l1.359-0.986
	l1.31,1.331c0.263-0.125,0.539-0.217,0.827-0.276l0.286-1.832h1.685l0.266,1.832c0.145,0.033,0.288,0.071,0.429,0.114
	s0.281,0.097,0.419,0.162l1.281-1.331l1.359,0.986l-0.847,1.646c0.099,0.118,0.189,0.236,0.271,0.354
	c0.082,0.119,0.163,0.24,0.242,0.365l1.832-0.305l0.532,1.586l-1.666,0.838C13.793,15.63,13.8,15.707,13.8,15.783z"/>
<circle class="primary" cx="24.908" cy="28.883" r="3.117"/>
<path class="primary" d="M30.666,26.567L30.666,26.567l-0.001-4.183l1.334,0.033c-0.467-0.433-0.965-0.767-1.492-1
	c-0.528-0.233-1.02-0.406-1.475-0.517c-0.533-0.133-1.063-0.216-1.584-0.25l-1.334-4.283c-0.365-0.411-0.75-0.775-1.148-1.092
	c-0.4-0.316-0.801-0.594-1.201-0.833c-0.4-0.239-0.796-0.445-1.191-0.617c-0.395-0.172-0.77-0.314-1.125-0.425
	c-0.822-0.267-1.638-0.439-2.449-0.517V26H9.999c0.644,0.79,1.047,1.785,1.047,2.883c0,0.394-0.065,0.769-0.158,1.133h8.019h1.575
	c-0.093-0.365-0.158-0.74-0.158-1.133c0-2.532,2.053-4.585,4.585-4.585c2.532,0,4.585,2.053,4.585,4.585
	c0,0.394-0.065,0.769-0.158,1.133h0.015h1.181H32v-3.45H30.666z M23.949,20.666c-1.053-0.103-2.262-0.221-2.759-1.032
	c-0.173-0.281-0.216-0.683-0.302-1.488c-0.059-0.555-0.063-1.016-0.056-1.33h3.783l1.068,3.833
	C25.298,20.694,24.689,20.738,23.949,20.666z"/>
</svg>
