<svg version="1.1" id="Layer_1" xmlns="http://www.w3.org/2000/svg" xmlns:xlink="http://www.w3.org/1999/xlink" x="0px" y="0px" viewBox="0 0 32 32" style="enable-background:new 0 0 32 32;" xml:space="preserve" fill="#333" width="32px" height="32px">
<style type="text/css">
	.primary{fill:#333333;}
</style>
<path class="primary" d="M10.7,17.7c1-1,2.6-1,3.5,0s1,2.6,0,3.5s-2.6,1-3.5,0S9.8,18.7,10.7,17.7z M13,27v-2c-3.3,0-6-2.7-6-6H5C5,23.4,8.6,27,13,27z M13,30v-2c-5,0-9-4-9-9H2C2,25.1,6.9,30,13,30z M13,15l4,4l9-10l-3-3L13,15z M12,2L7,7l5,5h3l2-2V7L12,2z M25,15h-3l-2,2v3l5,5l5-5L25,15z"/>
</svg>
