<?xml version="1.0" encoding="utf-8"?>
<!-- Generator: Adobe Illustrator 18.0.0, SVG Export Plug-In . SVG Version: 6.00 Build 0)  -->
<!DOCTYPE svg PUBLIC "-//W3C//DTD SVG 1.0//EN" "http://www.w3.org/TR/2001/REC-SVG-20010904/DTD/svg10.dtd">
<svg version="1.0" id="Layer_1" xmlns="http://www.w3.org/2000/svg" xmlns:xlink="http://www.w3.org/1999/xlink" x="0px" y="0px" viewBox="0 0 32 32" style="enable-background:new 0 0 32 32;" xml:space="preserve" width="32px" height="32px" fill="#333">
<symbol id="LeftandRight" viewBox="-14 -14 28 28">
	<g>
		<path d="M12.901,5.451C12.196,7.119,11.187,8.616,9.9,9.9s-2.785,2.296-4.449,3.001
			C3.723,13.63,1.891,14,0,14s-3.723-0.37-5.451-1.099C-7.119,12.196-8.616,11.187-9.9,9.9s-2.296-2.785-3.001-4.449
			C-13.63,3.723-14,1.891-14,0s0.37-3.723,1.099-5.451C-12.196-7.119-11.187-8.616-9.9-9.9s2.785-2.296,4.449-3.001
			C-3.723-13.63-1.891-14,0-14s3.723,0.37,5.451,1.099C7.119-12.196,8.616-11.187,9.9-9.9s2.296,2.785,3.001,4.449
			C13.63-3.723,14-1.891,14,0S13.63,3.723,12.901,5.451z M0-12.496c-6.892,0-12.496,5.608-12.496,12.496S-6.892,12.496,0,12.496
			S12.496,6.892,12.496,0S6.892-12.496,0-12.496z"/>
		<polygon points="2.575,1.951 2.575,3.521 -6.794,3.521 -4.111,6.016 -5.137,7.119 -9.851,2.736 
			-5.137,-1.647 -4.111,-0.544 -6.798,1.951"/>
		<polygon points="5.137,1.647 4.111,0.544 6.798,-1.951 -2.575,-1.951 -2.575,-3.521 6.794,-3.521 
			4.111,-6.016 5.137,-7.119 9.851,-2.736"/>
	</g>
</symbol>
<use xlink:href="#LeftandRight" width="28px" height="28px" id="XMLID_26_" x="-14" y="-14" transform="matrix(1 0 0 -1 16.0003 16)" style="overflow:visible;"/>
</svg>
