<?xml version="1.0" encoding="UTF-8" standalone="no"?>
<svg width="32px" height="32px" viewBox="0 0 32 32" version="1.1" xmlns="http://www.w3.org/2000/svg" xmlns:xlink="http://www.w3.org/1999/xlink" fill="#333">
    <style type="text/css">
    	.primary{fill:#333;}
    </style>
    <path d="M25.908,4.2 L25.908,28 L6.11,28 L6.11,4.2 L10.839,4.2 L10.839,3.722 C10.839,3.379 10.959,3.084 11.201,2.836 C11.443,2.588 11.741,2.465 12.096,2.465 C12.273,2.465 12.442,2.497 12.601,2.563 C12.76,2.627 12.896,2.719 13.008,2.836 C13.12,2.955 13.211,3.09 13.282,3.244 C13.353,3.397 13.388,3.556 13.388,3.722 L13.388,4.2 L18.665,4.2 L18.665,3.722 C18.665,3.379 18.788,3.084 19.036,2.836 C19.284,2.588 19.573,2.465 19.904,2.465 C20.081,2.465 20.249,2.497 20.409,2.563 C20.568,2.627 20.707,2.719 20.825,2.836 C20.943,2.955 21.034,3.09 21.099,3.244 C21.163,3.397 21.197,3.556 21.197,3.722 L21.197,4.2 L25.908,4.2 L25.908,4.2 Z M23.341,6.75 L21.198,6.75 L21.198,7.848 C21.198,8.202 21.071,8.503 20.817,8.751 C20.563,8.999 20.259,9.123 19.905,9.123 C19.574,9.123 19.285,8.999 19.037,8.751 C18.789,8.503 18.666,8.202 18.666,7.848 L18.666,6.75 L13.389,6.75 L13.389,7.848 C13.389,8.202 13.262,8.503 13.008,8.751 C12.754,8.999 12.45,9.123 12.096,9.123 C11.753,9.123 11.458,8.999 11.21,8.751 C10.963,8.503 10.839,8.202 10.839,7.848 L10.839,6.75 L8.66,6.75 L8.66,25.45 L23.341,25.45 L23.341,6.75 L23.341,6.75 Z M20.861,13.763 L11.174,13.763 L11.174,12.222 L20.861,12.222 L20.861,13.763 L20.861,13.763 Z M20.861,18.242 L11.174,18.242 L11.174,16.702 L20.861,16.702 L20.861,18.242 L20.861,18.242 Z M20.861,22.705 L11.174,22.705 L11.174,21.164 L20.861,21.164 L20.861,22.705 L20.861,22.705 Z" class="primary"/>
</svg>
