<?xml version="1.0" encoding="utf-8"?>
<!-- Generator: Adobe Illustrator 16.2.1, SVG Export Plug-In . SVG Version: 6.00 Build 0)  -->
<!DOCTYPE svg PUBLIC "-//W3C//DTD SVG 1.1//EN" "http://www.w3.org/Graphics/SVG/1.1/DTD/svg11.dtd">
<svg version="1.1" xmlns="http://www.w3.org/2000/svg" xmlns:xlink="http://www.w3.org/1999/xlink" x="0px" y="0px" viewBox="0 0 32 32" enable-background="new 0 0 32 32" xml:space="preserve" width="32px" height="32px" fill="#333">
<g id="Font">
	<g>
		<path d="M23.659,14.577c0.047,0.59,0.15,1.136,0.31,1.638c0.16,0.501,0.352,0.965,0.576,1.39c0.224,0.425,0.469,0.818,0.734,1.178
			c0.266,0.36,0.528,0.676,0.788,0.947c0.614,0.662,1.311,1.222,2.09,1.683v3.01H3.861v-3.01c0.779-0.449,1.481-1.009,2.107-1.683
			c0.26-0.271,0.525-0.587,0.797-0.947c0.271-0.36,0.517-0.752,0.734-1.178c0.219-0.425,0.404-0.891,0.559-1.399
			c0.153-0.507,0.259-1.05,0.318-1.629v-2.603c0.035-0.862,0.2-1.683,0.496-2.461c0.295-0.779,0.699-1.481,1.213-2.107
			c0.514-0.625,1.112-1.163,1.797-1.611s1.429-0.779,2.231-0.992V3.687c0-0.26,0.05-0.505,0.15-0.735
			c0.101-0.23,0.236-0.431,0.407-0.602c0.172-0.171,0.372-0.307,0.603-0.407c0.23-0.101,0.475-0.151,0.734-0.151
			s0.505,0.05,0.735,0.151c0.23,0.1,0.431,0.236,0.603,0.407c0.171,0.171,0.307,0.369,0.407,0.593c0.1,0.224,0.15,0.472,0.15,0.744
			v1.116c0.803,0.212,1.552,0.543,2.249,0.992c0.696,0.449,1.298,0.986,1.806,1.611c0.508,0.626,0.912,1.328,1.213,2.107
			c0.302,0.779,0.464,1.6,0.487,2.461V14.577z M16.009,29.824c-0.531,0-1.026-0.1-1.487-0.301c-0.46-0.201-0.864-0.476-1.213-0.823
			c-0.349-0.349-0.62-0.753-0.814-1.213s-0.292-0.95-0.292-1.47h7.632c0,0.531-0.101,1.024-0.301,1.479
			c-0.201,0.455-0.476,0.856-0.823,1.205c-0.349,0.348-0.753,0.623-1.213,0.823C17.036,29.724,16.54,29.824,16.009,29.824z"/>
	</g>
</g>
</svg>
