<?xml version="1.0" encoding="UTF-8" standalone="no"?>
<svg width="32px" height="32px" viewBox="0 0 32 32" version="1.1" xmlns="http://www.w3.org/2000/svg" xmlns:xlink="http://www.w3.org/1999/xlink" fill="#333">
    <path d="M16,4.5 C22.325,4.5 27.5,9.675 27.5,16 C27.5,22.325 22.325,27.5 16,27.5 C9.675,27.5 4.5,22.325 4.5,16 C4.5,9.675 9.675,4.5 16,4.5 L16,4.5 Z M16,3.5 C9.125,3.5 3.5,9.125 3.5,16 C3.5,22.875 9.125,28.5 16,28.5 C22.875,28.5 28.5,22.875 28.5,16 C28.5,9.125 22.875,3.5 16,3.5 L16,3.5 L16,3.5 Z"/>
    <rect x="25.5" y="15.5" width="5px" height="1px"/>
    <rect x="1.5" y="15.5" width="5px" height="1px"/>
    <rect x="15.5" y="25.5" width="1px" height="5px"/>
    <rect x="15.5" y="1.5" width="1px" height="5px"/>
</svg>
