<?xml version="1.0" encoding="utf-8"?>
<!-- Generator: Adobe Illustrator 16.2.1, SVG Export Plug-In . SVG Version: 6.00 Build 0)  -->
<!DOCTYPE svg PUBLIC "-//W3C//DTD SVG 1.1//EN" "http://www.w3.org/Graphics/SVG/1.1/DTD/svg11.dtd">
<svg version="1.1" xmlns="http://www.w3.org/2000/svg" xmlns:xlink="http://www.w3.org/1999/xlink" x="0px" y="0px" viewBox="0 0 32 32" enable-background="new 0 0 32 32" xml:space="preserve" width="32px" height="32px" fill="#333">
<g id="Font">
	<g>
		<path d="M27.899,16.613c-0.083,1.452-0.393,2.822-0.93,4.108c-0.537,1.287-1.272,2.433-2.204,3.436l-0.337,0.337v0.035
			l-0.372,0.354c-1.003,0.922-2.143,1.653-3.417,2.196c-1.275,0.543-2.651,0.851-4.127,0.921h-1.026
			c-1.452-0.07-2.815-0.378-4.091-0.921s-2.42-1.274-3.436-2.196l-0.354-0.354v-0.035l-0.39-0.337h0.036
			c-0.945-1.003-1.686-2.148-2.223-3.436c-0.537-1.286-0.835-2.656-0.895-4.108H4.1v-0.479V16.1v-0.035v-0.479h0.035
			c0.06-1.451,0.357-2.82,0.895-4.107s1.277-2.432,2.223-3.436H7.216l0.319-0.318c0.047-0.048,0.094-0.077,0.142-0.09L7.96,7.334
			c1.003-0.932,2.146-1.67,3.427-2.213c1.28-0.543,2.647-0.85,4.1-0.921h0.442H16h0.105h0.407c1.476,0.083,2.852,0.393,4.127,0.93
			c1.274,0.537,2.414,1.272,3.417,2.204l0.319,0.301c0.047,0.048,0.088,0.078,0.124,0.09l0.266,0.318
			c0.932,1.004,1.67,2.148,2.213,3.436s0.851,2.656,0.921,4.107v0.479V16.1v0.035V16.613z M24.766,19.808
			c0.224-0.509,0.398-1.026,0.522-1.553c0.123-0.526,0.197-1.073,0.221-1.642h-1.416v-1.027h1.416
			c-0.035-0.543-0.112-1.082-0.23-1.619s-0.289-1.061-0.513-1.568c-0.414-1.003-0.969-1.889-1.665-2.656l-1.027,0.992l-0.708-0.709
			l1.027-1.009c-0.414-0.354-0.842-0.673-1.284-0.956S20.196,7.535,19.7,7.334c-0.507-0.224-1.023-0.398-1.549-0.521
			c-0.525-0.125-1.071-0.198-1.639-0.222v1.417h-1.026V6.591C14.941,6.626,14.4,6.703,13.862,6.82
			c-0.538,0.119-1.062,0.29-1.57,0.514c-0.981,0.414-1.869,0.975-2.661,1.683l1.012,1.009l-0.71,0.709L8.921,9.742
			c-0.354,0.391-0.674,0.807-0.958,1.249S7.425,11.903,7.2,12.398c-0.201,0.508-0.364,1.031-0.488,1.568s-0.198,1.076-0.222,1.619
			H7.89v1.027H6.49c0.023,0.568,0.098,1.115,0.222,1.642s0.287,1.044,0.488,1.553c0.225,0.497,0.479,0.967,0.763,1.41
			c0.284,0.444,0.604,0.86,0.958,1.251l1.012-0.976l0.71,0.71l-1.012,0.976c0.391,0.354,0.811,0.677,1.26,0.967
			s0.917,0.541,1.401,0.754c0.509,0.226,1.032,0.396,1.57,0.515c0.538,0.119,1.079,0.195,1.624,0.23v-1.434h1.026v1.434
			c1.11-0.07,2.173-0.318,3.188-0.745c0.969-0.413,1.854-0.987,2.656-1.721l-0.991-0.976l0.708-0.71l1.027,0.976
			C23.809,21.688,24.363,20.801,24.766,19.808z M19.435,8.113c0.189,0.095,0.275,0.228,0.257,0.398
			c-0.018,0.172-0.067,0.375-0.15,0.611l-2.284,7.26c-0.047,0.201-0.139,0.381-0.274,0.541c-0.136,0.159-0.31,0.28-0.522,0.363
			c-0.979,0.318-1.877,0.613-2.691,0.885c-0.354,0.106-0.703,0.219-1.045,0.336c-0.343,0.119-0.661,0.225-0.956,0.319
			c-0.296,0.095-0.553,0.177-0.771,0.248c-0.219,0.071-0.363,0.124-0.434,0.159c-0.201,0.07-0.363,0.068-0.487-0.009
			s-0.21-0.177-0.257-0.302c-0.047-0.123-0.053-0.259-0.018-0.406c0.035-0.148,0.118-0.251,0.248-0.311
			c0.07-0.035,0.197-0.111,0.381-0.23c0.183-0.117,0.413-0.256,0.69-0.416c0.277-0.159,0.575-0.336,0.895-0.531
			c0.318-0.194,0.643-0.387,0.974-0.575c0.779-0.448,1.635-0.962,2.567-1.54h0.018c0.012,0,0.029-0.018,0.054-0.054l3.028-6.163
			c0.094-0.212,0.194-0.386,0.301-0.521S19.223,8.02,19.435,8.113z"/>
	</g>
</g>
</svg>
