<?xml version="1.0" encoding="utf-8"?>
<!-- Generator: Adobe Illustrator 16.2.1, SVG Export Plug-In . SVG Version: 6.00 Build 0)  -->
<!DOCTYPE svg PUBLIC "-//W3C//DTD SVG 1.1//EN" "http://www.w3.org/Graphics/SVG/1.1/DTD/svg11.dtd">
<svg version="1.1" xmlns="http://www.w3.org/2000/svg" xmlns:xlink="http://www.w3.org/1999/xlink" x="0px" y="0px" viewBox="0 0 32 32" enable-background="new 0 0 32 32" xml:space="preserve" width="32px" height="32px" fill="#333">
<g id="Icons">
	<g>
		<path d="M7.024,22.716c-0.066,0.056-0.122,0.1-0.166,0.133c-0.045,0.033-0.089,0.072-0.134,0.117
			c-0.678-0.044-1.333-0.144-1.967-0.3c-0.633-0.156-1.23-0.386-1.791-0.692c-0.562-0.305-1.078-0.686-1.55-1.142
			c-0.473-0.456-0.893-1.005-1.259-1.65c0.478-0.244,0.967-0.494,1.467-0.75c0.422-0.211,0.883-0.431,1.383-0.658
			c0.5-0.228,0.967-0.431,1.4-0.608c0.033-0.211,0.072-0.411,0.116-0.6c0.034-0.156,0.067-0.306,0.101-0.45
			c0.033-0.144,0.05-0.244,0.05-0.3c-0.011-0.122-0.053-0.306-0.125-0.55c-0.072-0.244-0.152-0.505-0.241-0.783
			c-0.09-0.277-0.176-0.539-0.259-0.783c-0.083-0.244-0.131-0.422-0.142-0.533C3.819,13.189,3.735,13.2,3.658,13.2
			c-0.078,0.011-0.147,0.011-0.208,0c-0.062-0.011-0.114-0.044-0.158-0.1c-0.156-0.2-0.289-0.433-0.4-0.7
			c-0.111-0.267-0.2-0.534-0.267-0.8s-0.101-0.517-0.101-0.75s0.034-0.417,0.101-0.55c0.044-0.089,0.113-0.156,0.208-0.2
			s0.191-0.078,0.292-0.1c0.11-0.022,0.244-0.033,0.399-0.033C3.38,9.611,3.253,9.239,3.142,8.85
			C3.053,8.516,2.975,8.147,2.908,7.741C2.842,7.336,2.819,6.933,2.842,6.533c0.033-0.556,0.169-0.98,0.408-1.275
			c0.238-0.294,0.553-0.486,0.941-0.575c-0.1-0.056-0.178-0.119-0.233-0.192C3.902,4.419,3.863,4.344,3.842,4.266
			c-0.033-0.077-0.05-0.155-0.05-0.233c0.211,0.122,0.436,0.222,0.675,0.3c0.238,0.078,0.467,0.131,0.683,0.158
			c0.217,0.028,0.411,0.044,0.584,0.05C5.905,4.547,6.03,4.55,6.108,4.55c0.267,0,0.527-0.083,0.783-0.25
			c0.256-0.167,0.53-0.339,0.825-0.517C8.011,3.605,8.35,3.464,8.733,3.358C9.116,3.252,9.575,3.266,10.108,3.4
			c0.478,0.111,0.822,0.297,1.033,0.558c0.211,0.261,0.344,0.52,0.4,0.775c0.021,0.089,0.033,0.172,0.033,0.25
			c0,0.078,0.005,0.15,0.017,0.217c0,0.078,0.005,0.15,0.017,0.217c0.211,0.044,0.405,0.117,0.583,0.216
			c0.145,0.089,0.277,0.208,0.4,0.358c0.122,0.15,0.183,0.364,0.183,0.642c0,0.2-0.036,0.389-0.107,0.567
			c-0.073,0.178-0.159,0.373-0.259,0.583c-0.066-0.022-0.122-0.044-0.167-0.067c-0.044-0.022-0.083-0.044-0.116-0.066
			c-0.111-0.089-0.236-0.147-0.375-0.175c-0.14-0.027-0.27-0.042-0.392-0.042c-0.245,0-0.479,0.061-0.7,0.183
			c-0.233,0.133-0.414,0.312-0.542,0.534S9.925,8.611,9.925,8.866v0.1C9.892,9.011,9.853,9.053,9.809,9.091
			C9.764,9.13,9.725,9.172,9.691,9.216c-0.434,0.544-0.667,1.239-0.7,2.083c-0.033,0.4-0.022,0.822,0.033,1.267
			s0.15,0.911,0.284,1.4c-0.111,0.089-0.2,0.186-0.267,0.292c-0.067,0.106-0.117,0.198-0.15,0.275
			c-0.089,0.189-0.15,0.383-0.184,0.583c-0.033,0.2-0.05,0.395-0.05,0.583s0.014,0.375,0.042,0.558
			c0.027,0.184,0.058,0.353,0.092,0.508C8.847,17,8.944,17.305,9.083,17.683s0.342,0.745,0.608,1.1
			c0.101,0.133,0.206,0.242,0.316,0.325c0.111,0.083,0.228,0.158,0.351,0.225c0.021,0.033,0.033,0.069,0.033,0.108
			s0.011,0.086,0.033,0.142c0.078,0.167,0.15,0.361,0.217,0.583c0.077,0.222,0.128,0.395,0.15,0.517c0,0.056-0.006,0.1-0.018,0.133
			c-0.011,0.033-0.017,0.083-0.017,0.15c-0.433,0.189-0.869,0.383-1.308,0.583c-0.439,0.2-0.831,0.386-1.176,0.558
			c-0.344,0.172-0.633,0.314-0.866,0.425C7.175,22.644,7.047,22.706,7.024,22.716z M19.175,10.266c0.211,0.034,0.4,0.1,0.566,0.2
			c0.145,0.089,0.275,0.211,0.392,0.367c0.117,0.156,0.176,0.367,0.176,0.633c0,0.245-0.048,0.478-0.142,0.7
			c-0.095,0.222-0.198,0.464-0.309,0.725c-0.111,0.261-0.209,0.545-0.292,0.85c-0.083,0.306-0.108,0.653-0.075,1.042
			c0.145,0,0.272,0.017,0.384,0.05c0.1,0.022,0.2,0.058,0.3,0.108c0.1,0.05,0.178,0.12,0.233,0.208
			c0.066,0.145,0.097,0.333,0.092,0.566c-0.006,0.233-0.042,0.483-0.108,0.75s-0.156,0.533-0.267,0.8
			c-0.111,0.267-0.239,0.5-0.384,0.7c-0.056,0.056-0.116,0.086-0.183,0.092c-0.067,0.006-0.134,0.003-0.2-0.008
			c-0.078-0.011-0.156-0.034-0.233-0.067c-0.022,0.123-0.075,0.309-0.158,0.559c-0.084,0.25-0.17,0.508-0.259,0.775
			s-0.169,0.525-0.241,0.775s-0.108,0.436-0.108,0.559c-0.012,0.056-0.003,0.155,0.024,0.3c0.028,0.145,0.059,0.294,0.092,0.45
			c0.045,0.189,0.084,0.383,0.117,0.583c0.444,0.178,0.919,0.383,1.425,0.617s0.969,0.45,1.392,0.65
			c0.5,0.245,0.989,0.495,1.467,0.75c-0.423,0.733-0.906,1.348-1.45,1.842c-0.545,0.495-1.142,0.892-1.792,1.192
			c-0.649,0.3-1.339,0.517-2.066,0.65s-1.486,0.2-2.274,0.2c-0.778,0-1.534-0.066-2.268-0.2c-0.732-0.133-1.425-0.35-2.074-0.65
			c-0.65-0.3-1.25-0.697-1.801-1.192C8.6,25.347,8.119,24.733,7.708,24c0.478-0.244,0.967-0.494,1.467-0.75
			c0.422-0.211,0.884-0.43,1.384-0.658c0.5-0.228,0.983-0.431,1.449-0.608c0.045-0.211,0.084-0.405,0.117-0.583
			c0.033-0.156,0.063-0.309,0.092-0.458c0.027-0.15,0.041-0.247,0.041-0.292c-0.011-0.123-0.053-0.309-0.125-0.559
			s-0.155-0.508-0.25-0.775c-0.094-0.267-0.183-0.522-0.267-0.767c-0.083-0.245-0.136-0.434-0.158-0.567
			c-0.089,0.033-0.166,0.056-0.233,0.067c-0.066,0.011-0.133,0.011-0.2,0c-0.066-0.011-0.127-0.039-0.183-0.083
			c-0.145-0.2-0.272-0.433-0.384-0.7c-0.111-0.267-0.197-0.533-0.258-0.8c-0.062-0.267-0.098-0.517-0.108-0.75
			c-0.012-0.233,0.017-0.422,0.083-0.566c0.056-0.089,0.131-0.159,0.225-0.208c0.095-0.05,0.197-0.086,0.309-0.108
			c0.111-0.033,0.239-0.05,0.384-0.05c-0.145-0.344-0.267-0.706-0.367-1.083c-0.089-0.333-0.166-0.706-0.233-1.117
			c-0.066-0.411-0.089-0.817-0.066-1.217c0.022-0.555,0.155-0.978,0.4-1.267c0.244-0.289,0.55-0.489,0.916-0.6
			c-0.089-0.055-0.161-0.117-0.217-0.183c-0.056-0.067-0.094-0.133-0.116-0.2c-0.033-0.089-0.05-0.172-0.05-0.25
			C11.58,9,11.811,9.103,12.05,9.175s0.467,0.128,0.684,0.167c0.217,0.039,0.408,0.061,0.575,0.067
			c0.166,0.005,0.294,0.008,0.383,0.008c0.256,0,0.509-0.086,0.759-0.258s0.527-0.347,0.833-0.525
			c0.306-0.177,0.65-0.322,1.033-0.433c0.384-0.111,0.842-0.105,1.375,0.017c0.233,0.067,0.431,0.15,0.592,0.25
			S18.58,8.678,18.691,8.8s0.197,0.253,0.259,0.392c0.061,0.139,0.108,0.264,0.142,0.375c0.021,0.089,0.036,0.172,0.041,0.25
			c0.006,0.078,0.015,0.15,0.025,0.217C19.169,10.111,19.175,10.189,19.175,10.266z M20.258,20.733
			c-0.022-0.855,0.111-1.664,0.4-2.425s0.694-1.442,1.217-2.042c0.522-0.6,1.139-1.097,1.85-1.491s1.478-0.659,2.3-0.792
			l-0.033-2.617l5.851,4.733l-5.733,4.3l-0.033-2.667c-0.312-0.011-0.709,0.011-1.192,0.067s-0.997,0.186-1.541,0.392
			c-0.545,0.206-1.087,0.511-1.625,0.917c-0.539,0.406-1.025,0.958-1.459,1.658V20.733z"/>
	</g>
</g>
</svg>
