<?xml version="1.0" encoding="iso-8859-1"?>
<!-- Generator: Adobe Illustrator 19.0.0, SVG Export Plug-In . SVG Version: 6.00 Build 0)  -->
<svg version="1.0" id="Layer_1" xmlns="http://www.w3.org/2000/svg" xmlns:xlink="http://www.w3.org/1999/xlink" x="0px" y="0px" viewBox="0 0 32 32" style="enable-background:new 0 0 32 32;" xml:space="preserve" width="32px" height="32px" fill="#333">
<style type="text/css">
	.primary{fill:#333333;}
</style>
<path id="XMLID_6_" class="primary" d="M21.415,21.169l6.646-7.877h-3.938l-4.431,5.415c0.056-0.069-1.306-1.742-1.397-1.863
	c-0.778-1.037-1.556-2.074-2.334-3.112c-0.118-0.158-0.644-0.659-0.647-0.86c-0.002-0.225,1.128-0.587,1.381-0.712
	c0.53-0.262,1.045-0.557,1.526-0.901c0.907-0.648,1.701-1.486,2.169-2.498c0.851-1.837,0.501-4.12-0.708-5.744
	C17.812,0.505,14.505,0,11.569,0H2.462v24.369h5.908V13.538h0.985l6.892,9.354L8.862,32H12.8l5.415-6.646L23.138,32h6.4
	L21.415,21.169z M13.868,9.43c-0.556,0.789-1.475,1.262-2.416,1.473c-0.607,0.136-1.228,0.174-1.852,0.178
c-0.344,0.002-0.689-0.007-1.032-0.016c-0.318-0.008-0.199-0.737-0.199-1.002c0-0.495,0-0.991,0-1.487c0-1.704,0-3.407,0-5.111
	c0-0.227-0.125-1.073,0.033-1.221C8.546,2.111,9.285,2.172,9.486,2.17c0.757-0.011,1.515,0.084,2.246,0.283
	c0.595,0.162,1.186,0.401,1.642,0.816c0.827,0.752,1.079,1.945,1.144,3.062C14.579,7.405,14.488,8.55,13.868,9.43z"/>
</svg>
