<?xml version="1.0" encoding="iso-8859-1"?>
<!-- Generator: Adobe Illustrator 19.0.0, SVG Export Plug-In . SVG Version: 6.00 Build 0)  -->
<svg version="1.0" id="Layer_1" xmlns="http://www.w3.org/2000/svg" xmlns:xlink="http://www.w3.org/1999/xlink" x="0px" y="0px"
	 viewBox="0 0 32 32" style="enable-background:new 0 0 32 32;" xml:space="preserve" width="32px" height="32px" fill="#333">
<style type="text/css">
	.primary{fill:#333333;}
</style>
<path id="XMLID_2_" class="primary" d="M19.789,0.07c-6.115,0-11.174,4.556-11.994,10.45h2.021c0.801-4.787,4.962-8.45,9.973-8.45
	c5.582,0,10.123,4.541,10.123,10.123c0,5.004-3.654,9.161-8.431,9.97v2.021c5.885-0.827,10.431-5.882,10.431-11.991
	C31.912,5.508,26.473,0.07,19.789,0.07z"/>
<path id="XMLID_16_" class="primary" d="M28.724,12.193c0-4.927-4.009-8.936-8.936-8.936c-4.354,0-7.986,3.133-8.773,7.262h2.05
	c0.752-3.017,3.477-5.262,6.723-5.262c3.824,0,6.936,3.111,6.936,6.936c0,3.24-2.236,5.96-5.244,6.718v2.052
	C25.601,20.169,28.724,16.541,28.724,12.193z"/>
<path id="XMLID_17_" class="primary" d="M21.481,15.235v2.186c2.206-0.716,3.806-2.788,3.806-5.229c0-3.032-2.467-5.498-5.498-5.498
	c-2.448,0-4.526,1.609-5.236,3.825h2.183c0.596-1.082,1.733-1.825,3.053-1.825c1.929,0,3.498,1.569,3.498,3.498
	C23.287,13.505,22.552,14.637,21.481,15.235z"/>
<rect id="XMLID_18_" y="12" class="primary" width="20px" height="20px"/>
</svg>
