<?xml version="1.0" encoding="utf-8"?>
<!-- Generator: Adobe Illustrator 21.1.0, SVG Export Plug-In . SVG Version: 6.00 Build 0)  -->
<svg version="1.1" id="Layer_1" xmlns="http://www.w3.org/2000/svg" xmlns:xlink="http://www.w3.org/1999/xlink" x="0px" y="0px"
	 viewBox="0 0 32 32" style="enable-background:new 0 0 32 32;" xml:space="preserve" width="32px" height="32px" fill="#333">
<style type="text/css">
	.primary{fill:#333333;}
</style>
<path class="primary" d="M32,17.395l-3.534,13.738H3.558L0,17.395l1.127-2.432h29.749L32,17.395z M8.288,3.727h15.358l2.432,9.592
	h3.289L26.168,0.867H5.788L2.589,13.319h3.312L8.288,3.727z M24.862,22.44c0.315-0.39,0.429-0.818,0.338-1.283l-0.518-3.378h-3.198
	l0.271,1.981H9.977l0.271-1.981H7.049l-0.518,3.378c-0.09,0.481,0.029,0.893,0.36,1.239c0.15,0.196,0.334,0.338,0.552,0.429
	c0.217,0.09,0.448,0.135,0.687,0.135h15.516C24.156,22.959,24.561,22.787,24.862,22.44z M23.263,10.843H8.782v1.96h14.481V10.843z
	 M22.452,6.408H9.638v1.936h12.814V6.408z"/>
</svg>
