<?xml version="1.0" encoding="utf-8"?>
<!-- Generator: Adobe Illustrator 19.1.0, SVG Export Plug-In . SVG Version: 6.00 Build 0)  -->
<!DOCTYPE svg PUBLIC "-//W3C//DTD SVG 1.0//EN" "http://www.w3.org/TR/2001/REC-SVG-20010904/DTD/svg10.dtd">
<svg version="1.0" id="Layer_1" xmlns="http://www.w3.org/2000/svg" xmlns:xlink="http://www.w3.org/1999/xlink" x="0px" y="0px" viewBox="0 0 32 32" enable-background="new 0 0 32 32" xml:space="preserve" width="32px" height="32px" fill="#333">
<path d="M30,27.5c0,1.381-1.119,2.5-2.5,2.5c-1.209,0-2.218-0.859-2.45-2H12.95c-0.232,1.141-1.24,2-2.45,2
    C9.119,30,8,28.881,8,27.5c0-1.209,0.859-2.218,2-2.45V19h2v7h14v-9.434l-5-3V6h-2l-2-2h3.05c0.232-1.141,1.24-2,2.45-2
    C23.881,2,25,3.119,25,4.5c0,1.209-0.859,2.218-2,2.45v5.484l2.544,1.527C26.002,13.38,26.703,13,27.5,13c1.381,0,2.5,1.119,2.5,2.5
    c0,1.209-0.859,2.218-2,2.45v7.101C29.141,25.282,30,26.291,30,27.5z M8.616,17.004l-4.722,9.444l-1.789-0.895l4.612-9.224
    c-2.425-1.244-4.092-3.765-4.092-6.673c0-4.136,3.364-7.5,7.5-7.5s7.5,3.364,7.5,7.5s-3.364,7.5-7.5,7.5
    C9.608,17.156,9.104,17.104,8.616,17.004z M10.125,15.156c3.032,0,5.5-2.467,5.5-5.5s-2.468-5.5-5.5-5.5s-5.5,2.467-5.5,5.5
    S7.093,15.156,10.125,15.156z"/>
</svg>
