<?xml version="1.0" encoding="utf-8"?>
<!-- Generator: Adobe Illustrator 23.0.6, SVG Export Plug-In . SVG Version: 6.00 Build 0)  -->
<svg version="1.0" id="Layer_1" xmlns="http://www.w3.org/2000/svg" xmlns:xlink="http://www.w3.org/1999/xlink" x="0px" y="0px" viewBox="0 0 32 32" style="enable-background:new 0 0 32 32;" xml:space="preserve" width="32px" height="32px" fill="#333">
<style type="text/css">
	.primary{fill:#333333}
</style>
<path class="primary" d="M19.171,1c-2.837,0-5.391,1.513-6.748,3.85c-0.101-0.007-0.203-0.012-0.305-0.016
	c-0.203-0.02-0.406-0.03-0.604-0.03c-1.367,0-2.664,0.441-3.751,1.276C6.613,6.918,5.778,8.127,5.4,9.501
	C5.344,9.647,5.293,9.793,5.249,9.94H5.202C2.333,9.94,0,12.305,0,15.211c0,1.396,0.532,2.71,1.5,3.703
	c0.783,0.803,1.784,1.323,2.87,1.5l-0.001-2.075c-0.55-0.155-1.035-0.464-1.428-0.867c-0.566-0.58-0.916-1.379-0.916-2.26
	c0-1.777,1.421-3.218,3.176-3.218c0.223,0,0.441,0.024,0.652,0.068c0.229,0.008,0.453,0.04,0.668,0.096
	c0.16,0.023,0.318,0.057,0.47,0.104c0.001-0.157,0.012-0.315,0.012-0.476c0-0.579,0.114-1.131,0.322-1.634
	c0.248-0.992,0.84-1.844,1.641-2.42c0.707-0.548,1.589-0.875,2.549-0.875c0.161,0,0.321,0.01,0.477,0.028
	c0.575,0.007,1.122,0.13,1.619,0.348c0.643-2.405,2.888-4.18,5.56-4.18c3.025,0,5.503,2.276,5.728,5.164
	c0,0,0.039,0.056,0.096,1.102c0.268,0.039,1.208,0.205,1.208,0.205c2.131,0.309,3.771,2.177,3.771,4.439
	c0,1.801-1.041,3.348-2.541,4.063l1.575,1.455C30.803,18.32,32,16.283,32,13.963c0-3.104-2.182-5.793-5.136-6.405
	C26.322,3.842,23.038,1,19.171,1z"/>
<polygon class="primary" points="13.355,18.446 13.355,20.499 15.979,20.5 18.201,18.447"/>
<polygon class="primary" points="5.568,16.5 5.568,24.208 0.985,24.208 8.369,31 15.754,24.208 11.171,24.208 11.171,16.5"/>
<polygon class="primary" points="23.138,16.5 15.754,23.292 20.337,23.292 20.337,31 25.94,31 25.94,23.292 30.523,23.292"/>
</svg>
