<?xml version="1.0" encoding="utf-8"?>
<!-- Generator: Adobe Illustrator 19.0.0, SVG Export Plug-In . SVG Version: 6.00 Build 0)  -->
<svg version="1.0" id="Layer_1" xmlns="http://www.w3.org/2000/svg" xmlns:xlink="http://www.w3.org/1999/xlink" x="0px" y="0px" viewBox="0 0 32 32" style="enable-background:new 0 0 32 32;" xml:space="preserve" width="32px" height="32px" fill="#333">
<style type="text/css">
	.primary{fill:#CDCDCD;}
	.secondary{fill:#EE0000;}
</style>
<title>Hidden</title>
<desc>Created with Sketch.</desc>
<g id="Eyeballs">
	<g id="Hidden">
		<path class="primary" d="M26.403,15.343c-1.335-2.889-5.167-4.78-9.947-4.894c-0.037-0.001-0.072-0.011-0.109-0.011
			c-0.023,0-0.044,0.006-0.067,0.007c-0.094-0.001-0.185-0.007-0.279-0.007c-4.993,0-9.026,1.924-10.403,4.905L5.5,15.553
			l0.097,0.211c1.482,3.207,5.667,5.674,10.403,5.674s8.921-2.467,10.403-5.674l0.097-0.211L26.403,15.343z M19.192,14.284
			c0,1.572-1.274,2.846-2.846,2.846c-1.572,0-2.846-1.274-2.846-2.846c0-1.535,1.217-2.777,2.737-2.835
			c0.136,0.002,0.266,0.014,0.401,0.018C18.071,11.615,19.192,12.812,19.192,14.284z M16,20.438c-4.253,0-7.996-2.144-9.397-4.883
			c1.046-1.998,3.627-3.449,6.974-3.93c-0.664,0.691-1.077,1.625-1.077,2.659c0,2.124,1.722,3.846,3.846,3.846
			c2.124,0,3.846-1.722,3.846-3.846c0-0.98-0.378-1.865-0.982-2.544c2.966,0.583,5.223,1.973,6.187,3.815
			C23.996,18.294,20.253,20.438,16,20.438z"/>
		<path id="Rectangle-2" class="secondary" d="M20,9.938L20,9.938c0.478,0.276,0.642,0.888,0.366,1.366l-6,10.392
			c-0.276,0.478-0.888,0.642-1.366,0.366l0,0c-0.478-0.276-0.642-0.888-0.366-1.366l6-10.392C18.91,9.826,19.522,9.662,20,9.938z"/>
	</g>
</g>
</svg>
