<?xml version="1.0" encoding="iso-8859-1"?>
<!-- Generator: Adobe Illustrator 19.0.0, SVG Export Plug-In . SVG Version: 6.00 Build 0)  -->
<svg version="1.0" id="Layer_1" xmlns="http://www.w3.org/2000/svg" xmlns:xlink="http://www.w3.org/1999/xlink" x="0px" y="0px"
	 viewBox="0 0 32 32" style="enable-background:new 0 0 32 32;" xml:space="preserve" width="32px" height="32px" fill="#333">
<style type="text/css">
	.primary{fill:#333333;}
</style>
<path id="XMLID_13_" class="primary" d="M21.976,21.815c-0.639-0.294-1.241-0.555-1.804-0.78c-0.042-0.254-0.09-0.499-0.146-0.738
	c-0.043-0.197-0.082-0.387-0.117-0.569c-0.036-0.182-0.046-0.31-0.031-0.38c0-0.155,0.045-0.389,0.136-0.706
	c0.092-0.316,0.194-0.643,0.306-0.98c0.112-0.338,0.222-0.664,0.326-0.981c0.106-0.315,0.173-0.551,0.201-0.706
	c0.098,0.043,0.197,0.071,0.295,0.085c0.083,0.014,0.169,0.018,0.252,0.011c0.085-0.007,0.161-0.046,0.232-0.117
	c0.182-0.254,0.344-0.549,0.485-0.886c0.139-0.337,0.252-0.675,0.337-1.012c0.083-0.337,0.13-0.654,0.137-0.949
	c0.007-0.295-0.032-0.533-0.117-0.717c-0.071-0.112-0.169-0.2-0.295-0.263c-0.126-0.063-0.252-0.108-0.379-0.137
	c-0.14-0.042-0.302-0.063-0.485-0.063c-0.043-0.492-0.011-0.93,0.094-1.317c0.106-0.386,0.23-0.745,0.37-1.075
	c0.139-0.331,0.269-0.637,0.389-0.918c0.119-0.281,0.179-0.576,0.179-0.886c0-0.337-0.074-0.604-0.222-0.801
	c-0.148-0.196-0.313-0.351-0.495-0.464c-0.212-0.126-0.45-0.211-0.718-0.252c0-0.099-0.007-0.196-0.013-0.292
	c-0.013-0.085-0.024-0.175-0.031-0.274c-0.007-0.099-0.025-0.204-0.054-0.317c-0.042-0.141-0.101-0.299-0.179-0.474
	c-0.076-0.176-0.186-0.342-0.326-0.497c-0.142-0.154-0.313-0.295-0.517-0.422c-0.204-0.126-0.454-0.232-0.749-0.317
	C18.366,3.467,17.786,3.46,17.3,3.6c-0.486,0.14-0.922,0.323-1.307,0.548c-0.387,0.225-0.738,0.447-1.055,0.664
	c-0.317,0.218-0.637,0.326-0.96,0.326c-0.113,0-0.273-0.004-0.485-0.011c-0.21-0.007-0.454-0.035-0.726-0.085
	c-0.275-0.049-0.563-0.119-0.866-0.211c-0.302-0.092-0.594-0.22-0.874-0.389c0,0.099,0.021,0.204,0.063,0.317
	c0.027,0.083,0.076,0.168,0.148,0.252c0.069,0.085,0.161,0.162,0.274,0.232c-0.464,0.14-0.851,0.393-1.161,0.758
	c-0.31,0.366-0.479,0.9-0.506,1.603c-0.029,0.505,0,1.018,0.085,1.538c0.083,0.52,0.182,0.992,0.295,1.413
	c0.126,0.477,0.281,0.935,0.463,1.37c-0.182,0-0.344,0.02-0.485,0.063c-0.141,0.029-0.27,0.074-0.389,0.137
	C9.695,12.191,9.6,12.279,9.53,12.391c-0.083,0.183-0.119,0.422-0.106,0.717s0.061,0.612,0.137,0.949
	c0.077,0.337,0.186,0.674,0.326,1.012c0.14,0.338,0.302,0.633,0.485,0.886c0.07,0.056,0.148,0.092,0.232,0.105
	c0.083,0.014,0.169,0.014,0.254,0c0.083-0.013,0.182-0.042,0.294-0.085c0.027,0.169,0.095,0.408,0.201,0.717
	c0.105,0.31,0.217,0.632,0.337,0.97c0.119,0.337,0.225,0.663,0.317,0.98c0.09,0.316,0.144,0.551,0.158,0.706
	c0,0.056-0.018,0.179-0.054,0.369c-0.036,0.189-0.074,0.383-0.115,0.58c-0.043,0.225-0.092,0.472-0.148,0.738
	c-0.591,0.224-1.203,0.481-1.835,0.769c-0.633,0.288-1.217,0.567-1.75,0.833c-0.633,0.324-1.251,0.639-1.856,0.949
	c0.52,0.928,1.129,1.705,1.824,2.33c0.695,0.625,1.455,1.128,2.277,1.507c0.823,0.38,1.698,0.654,2.625,0.823
	C14.06,28.415,15.017,28.5,16,28.5c0.998,0,1.957-0.083,2.878-0.252c0.92-0.169,1.793-0.443,2.615-0.823
	c0.822-0.38,1.578-0.882,2.266-1.507c0.688-0.625,1.3-1.403,1.835-2.33c-0.605-0.324-1.224-0.639-1.856-0.949
	C23.201,22.385,22.615,22.111,21.976,21.815z"/>
</svg>
