<?xml version="1.0" encoding="utf-8"?>
<!-- Generator: Adobe Illustrator 21.1.0, SVG Export Plug-In . SVG Version: 6.00 Build 0)  -->
<svg version="1.0" id="Layer_1" xmlns="http://www.w3.org/2000/svg" xmlns:xlink="http://www.w3.org/1999/xlink" x="0px" y="0px"
	 viewBox="0 0 32 32" style="enable-background:new 0 0 32 32;" xml:space="preserve" width="32px" height="32px" fill="#333">
<style type="text/css">
	.primary{fill:#333333;}
</style>
<path class="primary" d="M19.884,0c-0.308,0-0.61,0.024-0.913,0.046C13.61,0.449,9.215,4.347,8.067,9.468l2.805-1.895
	c1.537-3.034,4.553-5.194,8.099-5.513c0.301-0.027,0.605-0.046,0.913-0.046c5.57,0,10.102,4.533,10.102,10.103
	c0,0.294-0.019,0.582-0.044,0.87c-0.252,2.941-1.77,5.519-4.004,7.2l0.723,1.971c2.993-2.027,5.023-5.359,5.296-9.17
	C31.977,12.698,32,12.41,32,12.117C32,5.436,26.564,0,19.884,0z"/>
<path class="primary" d="M28.768,12.986c0.028-0.286,0.044-0.576,0.044-0.87c0-4.923-4.006-8.929-8.928-8.929
	c-0.308,0-0.612,0.016-0.913,0.046c-2.289,0.233-4.319,1.341-5.766,2.976l0.402,0.272l1.261,0.852
	c1.065-1.116,2.497-1.875,4.103-2.086c0.299-0.039,0.602-0.067,0.912-0.067c3.831,0,6.937,3.106,6.937,6.937
	c0,0.295-0.024,0.584-0.06,0.869c-0.197,1.571-0.913,2.98-1.979,4.043l0.736,2.008C27.314,17.571,28.532,15.421,28.768,12.986z"/>
<path class="primary" d="M25.393,12.117c0-3.038-2.472-5.509-5.509-5.509c-0.311,0-0.615,0.032-0.912,0.082
	c-1.115,0.187-2.116,0.707-2.898,1.458l1.722,1.164c0.348-0.26,0.745-0.452,1.176-0.569c0.292-0.079,0.594-0.135,0.912-0.135
	c1.938,0,3.51,1.571,3.51,3.51c0,0.302-0.05,0.59-0.122,0.869c-0.002,0.007-0.004,0.013-0.006,0.02l0.054,0.036l0.111,0.303
	l0.791,2.156c0.562-0.718,0.947-1.578,1.097-2.516C25.362,12.702,25.393,12.414,25.393,12.117z"/>
<path class="primary" d="M22.491,13.69l-9.443-6.38l-9.443,6.38L0,23.127h2.616V32H8h0.641h0.698l3.637-3.736L16.612,32h0.698H18
	h5.48v-8.873h2.471L22.491,13.69z M10.152,13.759h5.648v5.648h-5.648V13.759z M8.641,31.283v-7.473l3.637,3.736L8.641,31.283z
	 M9.339,23.094h7.273l-3.636,3.736L9.339,23.094z M17.31,31.283l-3.637-3.736l3.637-3.736V31.283z"/>
</svg>
