<svg version="1.0" id="Layer_1" xmlns="http://www.w3.org/2000/svg" xmlns:xlink="http://www.w3.org/1999/xlink" x="0px" y="0px" viewBox="0 0 32 32" style="enable-background:new 0 0 32 32;" xml:space="preserve" width="32px" height="32px" fill="#333">
<style type="text/css">
	.primary{fill:#333333;}
</style>
<path class="primary" d="M27.7,8.3c1.4,2.2,2.3,4.8,2.3,7.6c0.1,7.7-6.1,14.1-13.9,14.1c-2.9,0-5.6-0.8-7.8-2.3l4.9-4.9
	c1.1,1.2,2.2,2.4,2.8,3.2c1.5-1.7,4.8-5.1,6-7c1-1.5,2-3.6,2-5c0-0.6-0.1-1.2-0.2-1.8L27.7,8.3z M30,4L4,30l-2-2l3.2-3.2
	C3.2,22.5,2,19.4,2,16.1C1.9,8.4,8.1,2.1,15.9,2c3.4,0,6.5,1.2,9,3.2L28,2L30,4z M10.4,19.6l2.7-2.7c-1-0.8-1.6-2-1.6-3.4
	c0-2.5,2-4.5,4.5-4.5c1.4,0,2.6,0.6,3.4,1.6l2.2-2.2C20.2,6.9,18.2,6,16,6c-4.4,0-8,3.6-8,8c0,1.4,1,3.5,2,5
	C10.1,19.2,10.3,19.4,10.4,19.6z"/>
</svg>
