<?xml version="1.0" encoding="utf-8"?>
<!-- Generator: Adobe Illustrator 16.2.1, SVG Export Plug-In . SVG Version: 6.00 Build 0)  -->
<!DOCTYPE svg PUBLIC "-//W3C//DTD SVG 1.1//EN" "http://www.w3.org/Graphics/SVG/1.1/DTD/svg11.dtd">
<svg version="1.1" xmlns="http://www.w3.org/2000/svg" xmlns:xlink="http://www.w3.org/1999/xlink" x="0px" y="0px" viewBox="0 0 32 32" enable-background="new 0 0 32 32" xml:space="preserve" width="32px" height="32px" fill="#333">
<g id="Font">
	<g>
		<path d="M23.633,11.814c0,1.204-0.254,2.311-0.762,3.32s-1.187,1.88-2.036,2.612h0.035L16,28l-4.852-10.253h0.035
			c-0.85-0.732-1.529-1.603-2.036-2.612c-0.508-1.009-0.762-2.116-0.762-3.32c0-1.05,0.2-2.039,0.603-2.966
			c0.4-0.927,0.944-1.736,1.629-2.426s1.49-1.233,2.417-1.629S14.949,4.2,16,4.2s2.04,0.198,2.967,0.593s1.735,0.938,2.426,1.629
			s1.236,1.5,1.638,2.426S23.633,10.764,23.633,11.814z M19.577,15.409c0.496-0.496,0.868-1.047,1.116-1.656
			c0.248-0.608,0.371-1.254,0.371-1.939c0-0.685-0.123-1.331-0.371-1.939c-0.248-0.608-0.62-1.154-1.116-1.638
			c-0.484-0.496-1.03-0.868-1.638-1.115C17.331,6.874,16.685,6.75,16,6.75s-1.331,0.124-1.938,0.372
			c-0.608,0.248-1.16,0.62-1.656,1.115c-0.484,0.473-0.85,1.016-1.098,1.629s-0.372,1.263-0.372,1.948
			c0,0.685,0.124,1.331,0.372,1.939c0.248,0.608,0.613,1.16,1.098,1.656c0.496,0.484,1.048,0.85,1.656,1.098
			c0.607,0.248,1.254,0.372,1.938,0.372s1.331-0.124,1.939-0.372C18.547,16.259,19.093,15.894,19.577,15.409z"/>
	</g>
</g>
</svg>
