<?xml version="1.0" encoding="utf-8"?>
<!-- Generator: Adobe Illustrator 21.1.0, SVG Export Plug-In . SVG Version: 6.00 Build 0)  -->
<svg version="1.0" id="Layer_1" xmlns="http://www.w3.org/2000/svg" xmlns:xlink="http://www.w3.org/1999/xlink" x="0px" y="0px"
	 viewBox="0 0 32 32" style="enable-background:new 0 0 32 32;" xml:space="preserve" width="32px" height="32px" fill="#333">
<style type="text/css">
	.primary{fill:#333333;}
</style>
<path class="primary" d="M9.6,25.6c-1.76,0-3.184,1.44-3.184,3.2S7.84,32,9.6,32c1.76,0,3.2-1.44,3.2-3.2S11.36,25.6,9.6,25.6z
	 M0,0.001v3.2h3.2l5.76,12.143l-2.16,3.92C6.544,19.712,6.4,20.24,6.4,20.8c0,1.76,1.44,3.2,3.2,3.2h19.199v-3.2H10.272
	c-0.224,0-0.4-0.176-0.4-0.4l0.048-0.192l1.44-2.608h11.919c1.2,0,2.256-0.656,2.8-1.648l5.728-10.384
	c0.421-0.78,0.131-1.753-0.648-2.175c-0.233-0.126-0.494-0.192-0.759-0.193H6.736l-1.504-3.2H0z M25.599,25.6
	c-1.76,0-3.184,1.44-3.184,3.2s1.424,3.2,3.184,3.2c1.76,0,3.2-1.44,3.2-3.2S27.359,25.6,25.599,25.6z"/>
</svg>
