<?xml version="1.0" encoding="utf-8"?>
<!-- Generator: Adobe Illustrator 16.2.1, SVG Export Plug-In . SVG Version: 6.00 Build 0)  -->
<!DOCTYPE svg PUBLIC "-//W3C//DTD SVG 1.1//EN" "http://www.w3.org/Graphics/SVG/1.1/DTD/svg11.dtd">
<svg version="1.1" xmlns="http://www.w3.org/2000/svg" xmlns:xlink="http://www.w3.org/1999/xlink" x="0px" y="0px" viewBox="0 0 32 32" enable-background="new 0 0 32 32" xml:space="preserve" width="32px" height="32px" fill="#333">
<g id="Icons">
	<g>
		<path d="M24.988,16.17c0,0.118,0,0.242,0,0.372c0,0.13-0.013,0.266-0.036,0.408l2.993,1.505l-0.956,2.851l-3.294-0.549
			c-0.271,0.449-0.579,0.879-0.921,1.292l1.522,2.958l-2.443,1.771l-2.338-2.373c-0.472,0.201-0.968,0.372-1.487,0.514l-0.478,3.276
			h-3.028l-0.514-3.276c-0.26-0.083-0.517-0.166-0.771-0.248s-0.493-0.171-0.717-0.266l-2.355,2.373l-2.443-1.771l1.522-2.958
			c-0.165-0.212-0.324-0.422-0.478-0.628c-0.154-0.207-0.302-0.428-0.443-0.664L5.03,21.306l-0.921-2.851l2.993-1.505
			c-0.023-0.13-0.035-0.263-0.035-0.398s0-0.263,0-0.381c0-0.13,0-0.263,0-0.398s0.012-0.274,0.035-0.416l-2.993-1.47L5.03,11
			l3.294,0.549c0.13-0.224,0.274-0.442,0.434-0.655c0.16-0.212,0.322-0.425,0.487-0.637L7.723,7.298l2.443-1.771l2.355,2.391
			c0.472-0.224,0.968-0.39,1.487-0.496l0.514-3.293h3.028l0.478,3.293c0.26,0.059,0.517,0.127,0.771,0.204
			c0.254,0.077,0.505,0.174,0.753,0.292l2.302-2.391l2.443,1.771l-1.522,2.958c0.177,0.212,0.339,0.425,0.487,0.637
			c0.147,0.213,0.292,0.431,0.434,0.655L26.989,11l0.956,2.851l-2.993,1.505c0.023,0.142,0.036,0.28,0.036,0.416
			S24.988,16.041,24.988,16.17z M16.01,20.828c0.638,0,1.242-0.121,1.815-0.363c0.572-0.242,1.071-0.576,1.496-1.001
			c0.425-0.425,0.762-0.917,1.01-1.479c0.247-0.561,0.371-1.166,0.371-1.815c0-0.638-0.124-1.242-0.371-1.815
			c-0.248-0.573-0.585-1.072-1.01-1.497s-0.921-0.761-1.487-1.009s-1.175-0.372-1.824-0.372s-1.255,0.124-1.815,0.372
			s-1.054,0.584-1.479,1.009s-0.759,0.921-1,1.487c-0.242,0.567-0.363,1.175-0.363,1.824s0.121,1.254,0.363,1.815
			c0.241,0.561,0.575,1.054,1,1.479c0.425,0.425,0.918,0.759,1.479,1.001C14.755,20.707,15.36,20.828,16.01,20.828z"/>
	</g>
</g>
</svg>
