<?xml version="1.0" encoding="utf-8"?>
<!-- Generator: Adobe Illustrator 16.2.1, SVG Export Plug-In . SVG Version: 6.00 Build 0)  -->
<!DOCTYPE svg PUBLIC "-//W3C//DTD SVG 1.1//EN" "http://www.w3.org/Graphics/SVG/1.1/DTD/svg11.dtd">
<svg version="1.1" xmlns="http://www.w3.org/2000/svg" xmlns:xlink="http://www.w3.org/1999/xlink" x="0px" y="0px" viewBox="0 0 32 32" enable-background="new 0 0 32 32" xml:space="preserve" width="32px" height="32px" fill="#333">
<g id="Font">
	<g>
		<path d="M15.726,9.143c1.346,0,2.553,0.145,3.621,0.434c1.068,0.29,2.01,0.676,2.824,1.16c0.814,0.484,1.508,1.042,2.081,1.673
			c0.572,0.632,1.042,1.293,1.407,1.983c0.366,0.691,0.635,1.384,0.807,2.081c0.171,0.697,0.256,1.357,0.256,1.983h-7.136
			c-0.012-0.201-0.068-0.428-0.169-0.682c-0.1-0.253-0.289-0.496-0.566-0.726c-0.277-0.23-0.667-0.422-1.169-0.575
			s-1.153-0.23-1.956-0.23H5.277V9.143H15.726z M17.479,4.45c0.354,0,0.652,0.127,0.895,0.38c0.241,0.254,0.362,0.558,0.362,0.912
			c0,0.343-0.121,0.638-0.362,0.885C18.131,6.876,17.833,7,17.479,7h-2.072v1.735h-3.931V7h-2.02C9.279,7,9.111,6.968,8.952,6.903
			c-0.16-0.065-0.299-0.157-0.416-0.275C8.418,6.51,8.326,6.375,8.261,6.221C8.196,6.067,8.164,5.908,8.164,5.743
			c0-0.354,0.127-0.658,0.381-0.912c0.253-0.253,0.558-0.38,0.911-0.38H17.479z M23.092,20.37c0.225,0.46,0.457,0.892,0.699,1.293
			s0.476,0.791,0.7,1.168c0.354,0.555,0.657,1.062,0.912,1.523c0.253,0.46,0.38,0.897,0.38,1.311
			c0.012,0.354-0.05,0.685-0.186,0.992c-0.136,0.307-0.318,0.579-0.549,0.814c-0.23,0.236-0.508,0.422-0.832,0.558
			c-0.325,0.136-0.664,0.209-1.019,0.221s-0.69-0.05-1.01-0.186c-0.318-0.135-0.599-0.319-0.841-0.549
			c-0.242-0.23-0.434-0.493-0.575-0.788c-0.154-0.307-0.23-0.638-0.23-0.992c0-0.413,0.124-0.856,0.372-1.328
			s0.531-0.985,0.85-1.541c0.225-0.378,0.454-0.773,0.69-1.187C22.69,21.267,22.903,20.83,23.092,20.37z"/>
	</g>
</g>
</svg>
