<?xml version="1.0" encoding="utf-8"?>
<!-- Generator: Adobe Illustrator 23.0.6, SVG Export Plug-In . SVG Version: 6.00 Build 0)  -->
<svg version="1.0" id="Layer_1" xmlns="http://www.w3.org/2000/svg" xmlns:xlink="http://www.w3.org/1999/xlink" x="0px" y="0px"
     viewBox="0 0 32 32" style="enable-background:new 0 0 32 32;" xml:space="preserve" width="32px" height="32px" fill="#333">
     <style type="text/css">
        .primary{fill:#333333;}
    </style>
<path d="M31.2 0.9C31 0.3 30.6 0 30 0H2C1.4 0 1 0.3 0.8 0.9 0.5 1.6 0.6 2.1 1.1 2.6l10.8 11.7v10c0 0.4 0.1 0.8 0.4 1.1l5.6 6.1c0.3 0.3 0.6 0.5 1 0.5 0.2 0 0.4 0 0.5-0.1 0.6-0.3 0.9-0.7 0.9-1.4v-16L30.9 2.6C31.4 2.1 31.5 1.6 31.2 0.9L31.2 0.9z"/>
</svg>
