<svg version="1.1" id="Layer_1" xmlns="http://www.w3.org/2000/svg" xmlns:xlink="http://www.w3.org/1999/xlink" x="0px" y="0px" viewBox="0 0 32 32" style="enable-background:new 0 0 32 32;" xml:space="preserve" fill="#333" width="32px" height="32px">
<style type="text/css">
	.primary{fill:#333333;}
</style>
<path class="primary" d="M30,6l-3,3h-3c-0.6,0-1-0.4-1-1V5l3-3c0,0-1,0-1.5,0c-3,0-5.5,2.5-5.5,5.5c0,0.7,0.1,1.4,0.4,2.1l-9.8,9.8
	C8.9,19.1,8.2,19,7.5,19c-3,0-5.5,2.5-5.5,5.5c0,3,2.5,5.5,5.5,5.5s5.5-2.5,5.5-5.5c0-0.7-0.1-1.4-0.4-2.1l9.8-9.8
	c0.6,0.3,1.3,0.4,2.1,0.4c3,0,5.5-2.5,5.5-5.5C30,7,30,6,30,6z M11,26l-2,2H6l-2-2v-3l2-2h3l2,2V26z"/>
</svg>
