<?xml version="1.0" encoding="iso-8859-1"?>
<!-- Generator: Adobe Illustrator 19.0.0, SVG Export Plug-In . SVG Version: 6.00 Build 0)  -->
<svg version="1.0" id="Layer_1" xmlns="http://www.w3.org/2000/svg" xmlns:xlink="http://www.w3.org/1999/xlink" x="0px" y="0px"
	 viewBox="0 0 32 32" style="enable-background:new 0 0 32 32;" xml:space="preserve" width="32px" height="32px" fill="#333">
<style type="text/css">
	.primary{fill:#333333;}
</style>
<rect id="XMLID_45_" x="0.026" y="4.215" class="primary" width="4.004px" height="4.004px"/>
<rect id="XMLID_46_" x="5.816" y="4.215" class="primary" width="22.896px" height="4.004px"/>
<rect id="XMLID_47_" x="0.026" y="11.792" class="primary" width="4.004px" height="4.004px"/>
<rect id="XMLID_48_" x="5.816" y="11.792" class="primary" width="22.896px" height="4.004px"/>
<rect id="XMLID_49_" x="0.026" y="19.43" class="primary" width="4.004px" height="4.004px"/>
<path id="XMLID_5_" class="primary" d="M5.816,19.43v4.004h13.107c0.073-0.44,0.24-0.867,0.579-1.207
	c0.866-0.866,2.269-0.866,3.136,0l1.207,1.207l0.17,0.17l0.17-0.17l4.004-4.004H5.816z"/>
<path id="XMLID_3_" class="primary" d="M31.758,18.998c-0.289-0.289-0.756-0.289-1.045,0l-2,2l-2.436,2.436l-2.261,2.261
	l-2.261-2.261l-0.162-0.162c-0.289-0.289-0.756-0.289-1.045,0c-0.048,0.048-0.075,0.106-0.107,0.162
	c-0.161,0.282-0.134,0.643,0.107,0.884l3.468,3.468l4.352-4.351l0.345-0.345l3.045-3.045C32.046,19.754,32.046,19.286,31.758,18.998
	z"/>
</svg>
