<?xml version="1.0" encoding="utf-8"?>
<!-- Generator: Adobe Illustrator 17.0.2, SVG Export Plug-In . SVG Version: 6.00 Build 0)  -->
<!DOCTYPE svg PUBLIC "-//W3C//DTD SVG 1.1//EN" "http://www.w3.org/Graphics/SVG/1.1/DTD/svg11.dtd">
<svg version="1.1" id="Layer_1" xmlns="http://www.w3.org/2000/svg" xmlns:xlink="http://www.w3.org/1999/xlink" x="0px" y="0px" viewBox="0 0 32 32" style="enable-background:new 0 0 32 32;" xml:space="preserve" width="32px" height="32px" fill="#333">
<g>
	<path style="fill:#FFFFFF;" d="M30.707,24.104h0.002L28.07,7.238l-0.322-2.055l-0.344-2.199c-0.023-0.437-0.362-0.766-0.844-0.766
		H5.44c-0.486,0-0.828,0.333-0.846,0.775l-0.34,2.183l-0.32,2.052L1.322,24.006c-0.055,0.174-0.072,0.367-0.03,0.575l0.48,2.401
		c0.142,0.711,0.857,1.294,1.589,1.294h25.278c0.732,0,1.446-0.582,1.59-1.294l0.48-2.401
		C30.742,24.412,30.739,24.252,30.707,24.104z"/>
	<path style="fill:#1A1A1A;" d="M23.97,7.055h-3.855v1.906h1.218v0.666c0,0.2-0.326,0.513-0.917,0.883
		c-0.688,0.43-1.906,1.221-2.633,1.694l-0.479,0.31c-0.058,0.037-0.123,0.077-0.193,0.12c-0.098,0.06-0.211,0.131-0.328,0.208V6.16
		h1.873l-2.583-1.906L13.494,6.16h1.872v9.368c-0.051-0.028-0.105-0.057-0.154-0.083l-0.094-0.05
		c-0.525-0.281-2.554-1.614-3.474-2.233c-0.605-0.406-0.666-0.565-0.666-1.068v-1.673c0.888-0.143,1.531-0.542,1.531-1.016
		c0-0.594-1.003-1.076-2.241-1.076c-1.235,0-2.239,0.482-2.239,1.076c0,0.474,0.644,0.873,1.53,1.016v1.674
		c0,0.831,0.265,1.262,1.13,1.844c0.551,0.371,2.926,1.948,3.598,2.307l0.097,0.052c0.611,0.324,0.981,0.548,0.981,0.93v0.178
		c-1.294,0.153-2.256,0.713-2.256,1.382c0,0.787,1.329,1.425,2.966,1.425c1.638,0,2.966-0.638,2.966-1.425
		c0-0.669-0.962-1.229-2.256-1.382v-2.473c0-0.735,0.683-1.153,1.233-1.49c0.081-0.05,0.156-0.096,0.222-0.139l0.482-0.312
		c0.724-0.47,1.935-1.257,2.614-1.681c0.982-0.614,1.418-1.133,1.418-1.684V8.961h1.218V7.055z"/>
	<path style="fill:#1A1A1A;" d="M31.991,27.151h0.004l-0.357-2.823h-0.01c-0.044-0.577-0.456-1.021-1.057-1.107L27.735,5.094
		c0.135-0.166,0.232-0.359,0.273-0.565l0.412-2.063c0.035-0.173,0.025-0.337-0.019-0.484c0-0.003,0-0.005,0-0.005L28.395,1.96
		c-0.005-0.014-0.009-0.028-0.015-0.042l-0.39-1.108c0,0-0.215-0.81-0.923-0.81H4.876C4.213,0,3.953,0.81,3.953,0.81L3.604,1.96
		c0,0,0,0.002-0.001,0.007C3.555,2.117,3.544,2.286,3.58,2.465l0.412,2.063C4.033,4.736,4.131,4.93,4.267,5.096L1.444,23.218
		c-0.615,0.077-1.037,0.525-1.082,1.11h-0.01l-0.348,2.823h0.004c-0.016,0.142-0.01,0.292,0.021,0.447l0.571,2.86
		C0.771,31.306,1.623,32,2.494,32h27.011c0.872,0,1.723-0.694,1.893-1.542l0.573-2.86C32.002,27.443,32.007,27.293,31.991,27.151z
		 M6.288,3.102h19.566l2.353,20.103H3.946L6.288,3.102z"/>
</g>
</svg>
