<?xml version="1.0" encoding="UTF-8" standalone="no"?>
<svg width="192px" height="166px" viewBox="0 0 192 166" version="1.1" xmlns="http://www.w3.org/2000/svg" xmlns:xlink="http://www.w3.org/1999/xlink" fill="#333">
    <style type="text/css">
    	.sand{stroke:#FFFFFF;fill:#EDCB48;}
    	.sand-checkmark{fill:#FFFFFF;opacity:0;}
    	.loam-sand{stroke:#FFFFFF;fill:#D7B152;}
    	.loam-sand-checkmark{fill:#FFFFFF;opacity:0;}
    	.sand-loam{stroke:#FFFFFF;fill:#C1A566;}
    	.sand-loam-checkmark{fill:#FFFFFF;opacity:0;}
    	.sand-clay-loam{stroke:#FFFFFF;fill:#C98E4D;}
    	.sand-clay-loam-checkmark{fill:#FFFFFF;opacity:0;}
    	.silt{stroke:#FFFFFF;fill:#587BCD;}
    	.silt-checkmark{fill:#FFFFFF;opacity:0;}
    	.silt-loam{stroke:#FFFFFF;fill:#797FA7;}
    	.silt-loam-checkmark{fill:#FFFFFF;opacity:0;}
    	.silt-clay-loam{stroke:#FFFFFF;fill:#856D8C;}
    	.silt-clay-loam-checkmark{fill:#FFFFFF;opacity:0;}
    	.loam{stroke:#FFFFFF;fill:#A68A77;}
    	.loam-checkmark{fill:#FFFFFF;opacity:0;}
    	.clay-loam{stroke:#FFFFFF;fill:#AB675A;}
    	.clay-loam-checkmark{fill:#FFFFFF;opacity:0;}
    	.sand-clay{stroke:#FFFFFF;fill:#C4673A;}
    	.sand-clay-checkmark{fill:#FFFFFF;opacity:0;}
    	.silt-clay{stroke:#FFFFFF;fill:#94536A;}
    	.silt-clay-checkmark{fill:#FFFFFF;opacity:0;}
    	.clay{stroke:#FFFFFF;fill:#B43E35;}
    	.clay-checkmark{fill:#FFFFFF;opacity:0;}
    </style>
    <polygon class="sand" points="1 165 20 165 10.5 148.5"/>
    <path d="M7.84338379,154.115112 L3.30773926,161.991882 C3.30773926,161.991882 3.68041992,163.281555 5.04949951,164.507385 L13.0437012,164.507385 C13.0437012,164.507385 16.335083,161.759766 14.3862915,157.324463 C12.4375,152.88916 7.84338379,154.115112 7.84338379,154.115112 Z M5.1,161.3 L5.7,160.4 L8.4,162.2 L11.6,157 L12.6,157.6 L9,163.9 L5.1,161.3 Z" class="sand-checkmark"/>
    <polygon class="loam-sand" points="10.5 148.5 20 165 60.5 165 18.3 134.9"/>
    <path d="M28,148 C24.7,148 22,150.7 22,154 C22,157.3 24.7,160 28,160 C31.3,160 34,157.3 34,154 C34,150.7 31.3,148 28,148 L28,148 Z M28,157.9 L24.1,155.3 L24.7,154.4 L27.4,156.2 L30.6,151 L31.6,151.6 L28,157.9 L28,157.9 Z" class="loam-sand-checkmark"/>
    <polygon class="sand-loam" points="18.3 134.9 22.5 127.6 74.5 127.6 91.1 156.6 100.8 156.6 96 165 60.5 165"/>
    <path d="M51,136 C47.7,136 45,138.7 45,142 C45,145.3 47.7,148 51,148 C54.3,148 57,145.3 57,142 C57,138.7 54.3,136 51,136 L51,136 Z M51,145.9 L47.1,143.3 L47.7,142.4 L50.4,144.2 L53.6,139 L54.6,139.6 L51,145.9 L51,145.9 Z" class="sand-loam-checkmark"/>
    <polygon class="sand-clay-loam" points="22.6 127.6 35.5 105.1 68 105.1 77.9 121.7 74.5 127.6"/>
    <path d="M52,110 C48.7,110 46,112.7 46,116 C46,119.3 48.7,122 52,122 C55.3,122 58,119.3 58,116 C58,112.7 55.3,110 52,110 L52,110 Z M52,119.9 L48.1,117.3 L48.7,116.4 L51.4,118.2 L54.6,113 L55.6,113.6 L52,119.9 L52,119.9 Z" class="sand-clay-loam-checkmark"/>
    <polygon class="silt" points="191 165 176.9 140.4 167.2 140.4 153 165"/>
    <path d="M172,148 C168.7,148 166,150.7 166,154 C166,157.3 168.7,160 172,160 C175.3,160 178,157.3 178,154 C178,150.7 175.3,148 172,148 L172,148 Z M172,157.9 L168.1,155.3 L168.7,154.4 L171.4,156.2 L174.6,151 L175.6,151.6 L172,157.9 L172,157.9 Z" class="silt-checkmark"/>
    <polygon class="silt-loam" points="96 165 153 165 167.2 140.4 176.8 140.4 166.1 121.7 120.9 121.7"/>
    <path d="M141,129 C137.7,129 135,131.7 135,135 C135,138.3 137.7,141 141,141 C144.3,141 147,138.3 147,135 C147,131.7 144.3,129 141,129 L141,129 Z M141,138.9 L137.1,136.3 L137.7,135.4 L140.4,137.2 L143.6,132 L144.6,132.6 L141,138.9 L141,138.9 Z" class="silt-loam-checkmark"/>
    <polygon class="silt-clay-loam" points="115 99 153 99 166.1 121.7 128.1 121.7"/>
    <path d="M141,104 C137.7,104 135,106.7 135,110 C135,113.3 137.7,116 141,116 C144.3,116 147,113.3 147,110 C147,106.7 144.3,104 141,104 L141,104 Z M141,113.9 L137.1,111.3 L137.7,110.4 L140.4,112.2 L143.6,107 L144.6,107.6 L141,113.9 L141,113.9 Z" class="silt-clay-loam-checkmark"/>
    <polygon class="loam" points="74.5 127.6 77.9 121.7 120.9 121.7 100.8 156.6 91.1 156.6"/>
    <path d="M96,129 C92.7,129 90,131.7 90,135 C90,138.3 92.7,141 96,141 C99.3,141 102,138.3 102,135 C102,131.7 99.3,129 96,129 L96,129 Z M96,138.9 L92.1,136.3 L92.7,135.4 L95.4,137.2 L98.6,132 L99.6,132.6 L96,138.9 L96,138.9 Z" class="loam-checkmark"/>
    <polygon class="clay-loam" points="64.4 99 115 99 128.1 121.7 77.8 121.7"/>
    <path d="M96,104 C92.7,104 90,106.7 90,110 C90,113.3 92.7,116 96,116 C99.3,116 102,113.3 102,110 C102,106.7 99.3,104 96,104 L96,104 Z M96,113.9 L92.1,111.3 L92.7,110.4 L95.4,112.2 L98.6,107 L99.6,107.6 L96,113.9 L96,113.9 Z" class="clay-loam-checkmark"/>
    <polygon class="sand-clay" points="35.5 105.1 51.5 77.3 68 105.1"/>
    <path d="M52,89 C48.7,89 46,91.7 46,95 C46,98.3 48.7,101 52,101 C55.3,101 58,98.3 58,95 C58,91.7 55.3,89 52,89 L52,89 Z M52,98.9 L48.1,96.3 L48.7,95.4 L51.4,97.2 L54.6,92 L55.6,92.6 L52,98.9 L52,98.9 Z" class="sand-clay-checkmark"/>
    <polygon class="silt-clay" points="115 99 153 99 134 66"/>
    <path d="M134,82 C130.7,82 128,84.7 128,88 C128,91.3 130.7,94 134,94 C137.3,94 140,91.3 140,88 C140,84.7 137.3,82 134,82 L134,82 Z M134,91.9 L130.1,89.3 L130.7,88.4 L133.4,90.2 L136.6,85 L137.6,85.6 L134,91.9 L134,91.9 Z" class="silt-clay-checkmark"/>
    <polygon class="clay" points="96 0 51.5 77.3 64.4 99 115 99 134 66"/>
    <path d="M96,66 C92.7,66 90,68.7 90,72 C90,75.3 92.7,78 96,78 C99.3,78 102,75.3 102,72 C102,68.7 99.3,66 96,66 L96,66 Z M96,75.9 L92.1,73.3 L92.7,72.4 L95.4,74.2 L98.6,69 L99.6,69.6 L96,75.9 L96,75.9 Z" class="clay-checkmark"/>
</svg>
