<?xml version="1.0" encoding="utf-8"?>
<!-- Generator: Adobe Illustrator 16.2.1, SVG Export Plug-In . SVG Version: 6.00 Build 0)  -->
<!DOCTYPE svg PUBLIC "-//W3C//DTD SVG 1.1//EN" "http://www.w3.org/Graphics/SVG/1.1/DTD/svg11.dtd">
<svg version="1.1" xmlns="http://www.w3.org/2000/svg" xmlns:xlink="http://www.w3.org/1999/xlink" x="0px" y="0px" viewBox="0 0 32 32" enable-background="new 0 0 32 32" xml:space="preserve" width="32px" height="32px" fill="#333">
<g id="Font">
	<g>
		<path d="M24.305,11.95L10.953,25.302L2.86,27.923l2.621-8.075l13.369-13.37L24.305,11.95z M13.167,21.371l-3.4-0.513l-0.354-3.241
			l-2.886,2.869l-0.868,2.851c0.142-0.047,0.289-0.065,0.442-0.053c0.13,0.012,0.284,0.044,0.461,0.098s0.359,0.15,0.549,0.292
			c0.188,0.154,0.324,0.313,0.407,0.478c0.083,0.166,0.136,0.319,0.159,0.46c0.036,0.166,0.041,0.331,0.018,0.496l2.692-0.886
			L13.167,21.371z M19.932,5.38l3.665-3.701l5.508,5.525l-3.701,3.701L19.932,5.38z"/>
	</g>
</g>
</svg>
