<?xml version="1.0" encoding="utf-8"?>
<!-- Generator: Adobe Illustrator 16.2.1, SVG Export Plug-In . SVG Version: 6.00 Build 0)  -->
<!DOCTYPE svg PUBLIC "-//W3C//DTD SVG 1.1//EN" "http://www.w3.org/Graphics/SVG/1.1/DTD/svg11.dtd">
<svg version="1.1" xmlns="http://www.w3.org/2000/svg" xmlns:xlink="http://www.w3.org/1999/xlink" x="0px" y="0px" viewBox="0 0 32 32" enable-background="new 0 0 32 32" xml:space="preserve" width="32px" height="32px" fill="#333">
<g id="Icons">
	<g>
		<path d="M27.429,14.199l-1.916,0.5v1.062h-2.584v-0.438l-1.083,0.25v0.125c0,0.458-0.042,0.913-0.125,1.364
			c-0.083,0.452-0.216,0.886-0.396,1.302c-0.153,0.403-0.358,0.785-0.615,1.146s-0.538,0.701-0.844,1.021
			c-0.306,0.306-0.643,0.58-1.01,0.823c-0.368,0.243-0.761,0.448-1.178,0.614l-0.041,0.021H19.2v3.167h-2.604v-2.833
			c-0.264,0.069-0.524,0.122-0.781,0.156s-0.511,0.052-0.761,0.052c-0.777,0-1.514-0.132-2.208-0.396v3.021h-2.604V21.99h2.25
			c-0.027,0-0.045-0.003-0.052-0.01s-0.024-0.011-0.052-0.011c-0.403-0.152-0.785-0.354-1.146-0.604s-0.694-0.528-1-0.833
			c-0.264-0.264-0.503-0.545-0.719-0.844c-0.215-0.298-0.406-0.601-0.572-0.906l-5.188,1.271v-0.854l3.354-0.833V1.886h2.604v9.562
			c0.083-0.111,0.167-0.212,0.25-0.302s0.174-0.177,0.271-0.26c0.306-0.319,0.639-0.601,1-0.844s0.743-0.455,1.146-0.636
			c0.18-0.069,0.364-0.132,0.552-0.188c0.188-0.055,0.371-0.097,0.552-0.125V1.886h2.584v7.083c0.291,0.042,0.569,0.098,0.833,0.167
			s0.521,0.16,0.771,0.271c0.417,0.181,0.806,0.389,1.167,0.625c0.361,0.236,0.688,0.507,0.979,0.812V1.886h2.604v12.729l5-1.208
			V14.199z M15.054,21.115c0.736,0,1.435-0.142,2.094-0.427c0.66-0.284,1.232-0.67,1.719-1.156c0.486-0.486,0.868-1.059,1.146-1.719
			c0.277-0.659,0.416-1.364,0.416-2.114c0-0.736-0.139-1.438-0.416-2.104c-0.278-0.667-0.66-1.243-1.146-1.729
			c-0.486-0.486-1.059-0.872-1.719-1.156c-0.659-0.285-1.357-0.427-2.094-0.427c-0.75,0-1.455,0.143-2.114,0.427
			c-0.66,0.285-1.236,0.67-1.729,1.156c-0.493,0.486-0.878,1.059-1.156,1.719c-0.277,0.66-0.416,1.365-0.416,2.115
			s0.139,1.455,0.416,2.114c0.278,0.66,0.663,1.233,1.156,1.719c0.493,0.486,1.069,0.872,1.729,1.156
			C13.599,20.973,14.304,21.115,15.054,21.115z M10.241,26.719h2.604v3.167h-2.604V26.719z M17.888,18.511l-2.834-1.021L12.2,18.511
			l2.854-6.75L17.888,18.511z M16.596,26.719H19.2v3.167h-2.604V26.719z M22.929,17.282h2.584v3.208h-2.584V17.282z M22.929,21.99
			h2.584v3.167h-2.584V21.99z M22.929,26.719h2.584v3.167h-2.584V26.719z"/>
	</g>
</g>
</svg>
