<?xml version="1.0" encoding="utf-8"?>
<!-- Generator: Adobe Illustrator 16.2.1, SVG Export Plug-In . SVG Version: 6.00 Build 0)  -->
<!DOCTYPE svg PUBLIC "-//W3C//DTD SVG 1.1//EN" "http://www.w3.org/Graphics/SVG/1.1/DTD/svg11.dtd">
<svg version="1.1" xmlns="http://www.w3.org/2000/svg" xmlns:xlink="http://www.w3.org/1999/xlink" x="0px" y="0px" viewBox="0 0 32 32" enable-background="new 0 0 32 32" xml:space="preserve" width="32px" height="32px" fill="#333">
<g id="Icons">
	<g>
		<path d="M24.529,4.973c0,0.094-0.009,0.192-0.026,0.292c-0.018,0.101-0.056,0.198-0.115,0.292l-2.639,6.145v12.927
			c0,0.696-0.156,1.352-0.469,1.965c-0.313,0.614-0.741,1.154-1.284,1.621c-0.543,0.466-1.172,0.835-1.886,1.106
			c-0.715,0.271-1.49,0.407-2.329,0.407c-0.814,0-1.579-0.136-2.293-0.407s-1.34-0.641-1.877-1.106
			c-0.537-0.466-0.959-1.012-1.266-1.638c-0.308-0.625-0.461-1.293-0.461-2.001V11.702L7.193,5.433
			c-0.071-0.129-0.106-0.283-0.106-0.46c0-0.909,0.974-1.6,2.922-2.072c0.791-0.188,1.683-0.333,2.674-0.434
			c0.992-0.1,2.036-0.15,3.135-0.15c1.098,0,2.146,0.05,3.143,0.15c0.998,0.1,1.893,0.245,2.684,0.434
			c0.968,0.248,1.69,0.54,2.169,0.877C24.291,4.114,24.529,4.512,24.529,4.973z M22.139,6.92c-0.095,0.035-0.177,0.059-0.248,0.071
			c-0.07,0.012-0.153,0.03-0.247,0.053c-0.804,0.189-1.7,0.333-2.692,0.434c-0.991,0.101-2.036,0.151-3.134,0.151
			c-1.099,0-2.143-0.05-3.135-0.151c-0.991-0.1-1.883-0.245-2.674-0.434C9.914,7.021,9.823,7,9.734,6.982S9.554,6.944,9.46,6.92
			l1.948,4.48v13.175c0,0.484,0.105,0.938,0.318,1.363c0.213,0.425,0.525,0.815,0.938,1.169c0.413,0.342,0.889,0.608,1.426,0.797
			c0.537,0.188,1.101,0.283,1.69,0.283c0.614,0,1.195-0.095,1.745-0.283c0.549-0.189,1.023-0.455,1.425-0.797
			c0.413-0.342,0.729-0.726,0.947-1.151c0.219-0.425,0.328-0.868,0.328-1.328V11.4L22.139,6.92z M18.898,14.889v9.35
			c0,0.354-0.08,0.688-0.239,1s-0.375,0.584-0.646,0.814s-0.59,0.414-0.956,0.549c-0.366,0.136-0.756,0.204-1.169,0.204
			s-0.8-0.068-1.159-0.204c-0.36-0.135-0.674-0.319-0.939-0.549s-0.475-0.501-0.628-0.814c-0.154-0.313-0.23-0.646-0.23-1v-9.35
			H18.898z"/>
	</g>
</g>
</svg>
