<?xml version="1.0" encoding="utf-8"?>
<!-- Generator: Adobe Illustrator 16.2.1, SVG Export Plug-In . SVG Version: 6.00 Build 0)  -->
<!DOCTYPE svg PUBLIC "-//W3C//DTD SVG 1.1//EN" "http://www.w3.org/Graphics/SVG/1.1/DTD/svg11.dtd">
<svg version="1.1" xmlns="http://www.w3.org/2000/svg" xmlns:xlink="http://www.w3.org/1999/xlink" x="0px" y="0px" viewBox="0 0 32 32" enable-background="new 0 0 32 32" xml:space="preserve" width="32px" height="32px" fill="#333">
<g id="Font">
	<g>
		<path d="M4.985,26.5l2.16-4.64H5.021v-7.667c0-0.461,0.089-0.897,0.266-1.311c0.177-0.414,0.419-0.777,0.726-1.09
			c0.308-0.312,0.667-0.558,1.081-0.734c0.413-0.178,0.85-0.266,1.31-0.266h0.939V2.7H22.41v8.093h1.169
			c0.46,0,0.899,0.088,1.319,0.266c0.419,0.177,0.781,0.422,1.089,0.734c0.307,0.312,0.549,0.676,0.726,1.09
			c0.178,0.413,0.266,0.85,0.266,1.311v7.667h-2.036l2.143,4.64H4.985z M7.287,24.977h17.461l-2.196-5.17H9.519L7.287,24.977z
			 M11.892,10.793h7.951V5.25h-7.951V10.793z"/>
	</g>
</g>
</svg>
