<?xml version="1.0" encoding="utf-8"?>
<!-- Generator: Adobe Illustrator 17.1.0, SVG Export Plug-In . SVG Version: 6.00 Build 0)  -->
<!DOCTYPE svg PUBLIC "-//W3C//DTD SVG 1.1//EN" "http://www.w3.org/Graphics/SVG/1.1/DTD/svg11.dtd">
<svg version="1.1" id="Layer_1" xmlns="http://www.w3.org/2000/svg" xmlns:xlink="http://www.w3.org/1999/xlink" x="0px" y="0px" viewBox="0 0 32 32" enable-background="new 0 0 32 32" xml:space="preserve" width="32px" height="32px" fill="#333">
<g>
	<path d="M10.9,14.7c-0.5-0.9-0.8-1.9-0.8-3c0-3.2,2.6-5.8,5.8-5.8c3.2,0,5.8,2.6,5.8,5.8c0,1.1-0.3,2.2-0.9,3l0.4,1
		c0.9-1.1,1.4-2.5,1.4-4.1C22.8,8,19.7,5,16,5c-3.7,0-6.8,3-6.8,6.8c0,1.5,0.5,2.9,1.3,4L10.9,14.7z"/>
	<path d="M9.2,18.9L9.6,18c-1.5-1.6-2.5-3.8-2.5-6.2c0-4.9,4-8.9,8.9-8.9c4.9,0,8.9,4,8.9,8.9c0,2.4-1,4.7-2.6,6.3l0.4,0.9
		c1.9-1.8,3.1-4.4,3.1-7.2c0-5.4-4.4-9.9-9.9-9.9c-5.4,0-9.9,4.4-9.9,9.9C6.1,14.6,7.3,17.1,9.2,18.9z"/>
	<path d="M18.3,13.9c0.5-0.5,0.8-1.3,0.8-2.1c0-1.7-1.4-3.1-3.1-3.1c-1.7,0-3.1,1.4-3.1,3.1c0,0.8,0.3,1.5,0.7,2.1L6.8,30h3.1
		l0.9-2.2l9.1-2.6l2,4.8H25L18.3,13.9z M15.9,15.6l1.4,3.4l-2.6-0.7L15.9,15.6z M14.4,19.2l2.8,0.8l-3.8,1.4L14.4,19.2z M11.3,26.6
		l1.5-3.6l6.2,1.4L11.3,26.6z M14,22.2l4.1-1.5l1.1,2.7L14,22.2z"/>
</g>
</svg>
