<?xml version="1.0" encoding="utf-8"?>
<!-- Generator: Adobe Illustrator 19.0.0, SVG Export Plug-In . SVG Version: 6.00 Build 0)  -->
<svg version="1.0" id="Layer_1" xmlns="http://www.w3.org/2000/svg" xmlns:xlink="http://www.w3.org/1999/xlink" x="0px" y="0px" viewBox="0 0 32 32" style="enable-background:new 0 0 32 32;" xml:space="preserve" width="32px" height="32px" fill="#333">
<style type="text/css">
	.secondary{fill:#CECDCD;}
	.primary{fill:#F1F1F1;}
</style>
<path id="XMLID_4_" class="secondary" d="M23.245,0H8.755C6.868,0,5.333,1.588,5.333,3.539v15.175c0,1.721,0.609,3.376,1.714,4.662
	l6.396,7.438C14.092,31.567,15.024,32,16,32s1.908-0.433,2.556-1.187l6.396-7.437c1.106-1.286,1.714-2.941,1.714-4.662V3.539
	C26.667,1.588,25.132,0,23.245,0L23.245,0z"/>
<path id="XMLID_8_" class="primary" d="M23.245,1.103c1.3,0,2.355,1.09,2.355,2.436v15.175c0,1.448-0.514,2.846-1.445,3.929
	l-6.396,7.437c-0.468,0.545-1.114,0.817-1.759,0.817s-1.291-0.272-1.759-0.817l-6.396-7.437C6.914,21.56,6.4,20.162,6.4,18.714
	V3.539c0-1.345,1.054-2.436,2.355-2.436L23.245,1.103"/>
</svg>
