<svg version="1.1" id="Layer_1" xmlns="http://www.w3.org/2000/svg" xmlns:xlink="http://www.w3.org/1999/xlink" x="0px" y="0px" viewBox="0 0 32 32" style="enable-background:new 0 0 32 32;" xml:space="preserve" fill="#333" width="32px" height="32px">
<style type="text/css">
	.primary{fill:#333333;}
</style>
<path class="primary" d="M26,11c0,2.8-1.2,5.2-3,7l-1.3-1.3c1.4-1.4,2.3-3.4,2.3-5.7c0-2.2-0.9-4.2-2.3-5.7l1.4-1.4
	C24.9,5.7,26,8.2,26,11z M9,18l1.3-1.3C8.9,15.2,8,13.2,8,11c0-2.2,0.9-4.2,2.3-5.7L8.9,3.9C7.1,5.7,6,8.2,6,11S7.2,16.2,9,18z
	 M7.5,19.5C5.3,17.3,4,14.3,4,11c0-3.3,1.3-6.3,3.5-8.5L6,1C3.5,3.5,2,7.1,2,11c0,3.9,1.5,7.5,4,10L7.5,19.5z M26,1l-1.5,1.5
	C26.7,4.7,28,7.7,28,11c0,3.3-1.3,6.3-3.5,8.5L26,21c2.5-2.5,4-6.1,4-10C30,7.1,28.5,3.5,26,1z M17.9,14.5L20,30h-8l2.1-15.5
	c-1.3-0.7-2.1-2-2.1-3.5c0-2.2,1.8-4,4-4s4,1.8,4,4C20,12.5,19.1,13.8,17.9,14.5z M18,11c0-1.1-0.9-2-2-2s-2,0.9-2,2
	c0,1.1,0.9,2,2,2S18,12.1,18,11z"/>
</svg>
