<?xml version="1.0" encoding="utf-8"?>
<!-- Generator: Adobe Illustrator 16.2.1, SVG Export Plug-In . SVG Version: 6.00 Build 0)  -->
<!DOCTYPE svg PUBLIC "-//W3C//DTD SVG 1.1//EN" "http://www.w3.org/Graphics/SVG/1.1/DTD/svg11.dtd">
<svg version="1.1" xmlns="http://www.w3.org/2000/svg" xmlns:xlink="http://www.w3.org/1999/xlink" x="0px" y="0px" viewBox="0 0 32 32" enable-background="new 0 0 32 32" xml:space="preserve" width="32px" height="32px" fill="#333">
<g id="Icons">
	<g>
		<path d="M15.83,29.316c-0.756,0-1.461-0.14-2.116-0.416c-0.655-0.278-1.228-0.664-1.718-1.16s-0.876-1.068-1.16-1.719
			c-0.283-0.648-0.425-1.352-0.425-2.106c0-0.696,0.13-1.372,0.39-2.028c0.26-0.654,0.632-1.23,1.116-1.727V5.285V5.162
			c0-0.461,0.103-0.892,0.31-1.293c0.206-0.401,0.505-0.768,0.895-1.098c0.365-0.295,0.779-0.52,1.239-0.674
			c0.46-0.152,0.95-0.229,1.47-0.229c0.508,0,0.992,0.077,1.452,0.229c0.46,0.154,0.873,0.379,1.239,0.674
			c0.39,0.318,0.691,0.682,0.903,1.089c0.213,0.407,0.319,0.841,0.319,1.302v0.123V20.16c0.483,0.496,0.853,1.072,1.106,1.727
			c0.254,0.656,0.381,1.332,0.381,2.028c0,0.755-0.142,1.458-0.425,2.106c-0.284,0.65-0.671,1.223-1.16,1.719
			c-0.49,0.496-1.062,0.882-1.718,1.16C17.273,29.177,16.574,29.316,15.83,29.316z M15.83,3.391c-0.685,0-1.27,0.195-1.753,0.584
			c-0.425,0.331-0.638,0.727-0.638,1.188v0.07v0.035v15.549l-0.248,0.229c-0.401,0.378-0.711,0.812-0.93,1.302
			s-0.327,1.012-0.327,1.567c0,0.531,0.103,1.032,0.31,1.505c0.206,0.473,0.484,0.886,0.832,1.24
			c0.349,0.354,0.759,0.631,1.231,0.832c0.472,0.2,0.979,0.301,1.522,0.301c0.531,0,1.033-0.101,1.505-0.301
			c0.473-0.201,0.883-0.479,1.231-0.832c0.348-0.354,0.625-0.768,0.832-1.24c0.206-0.473,0.31-0.974,0.31-1.505
			c0-0.556-0.109-1.077-0.327-1.567c-0.219-0.49-0.528-0.924-0.93-1.302l-0.248-0.229V5.232c0-0.023,0-0.038,0-0.044
			s0-0.015,0-0.026c0-0.449-0.213-0.844-0.638-1.188c-0.225-0.188-0.487-0.333-0.788-0.434C16.477,3.441,16.16,3.391,15.83,3.391z
			 M17.813,21.736l-0.549-0.514v-9.297h-2.887v9.297l-0.549,0.514c-0.307,0.283-0.543,0.611-0.708,0.983
			c-0.166,0.372-0.248,0.771-0.248,1.195c0,0.413,0.076,0.797,0.23,1.151c0.153,0.354,0.362,0.666,0.628,0.938
			s0.576,0.484,0.93,0.639c0.378,0.152,0.768,0.229,1.169,0.229c0.413,0,0.797-0.077,1.151-0.229
			c0.354-0.154,0.664-0.367,0.93-0.639s0.475-0.584,0.628-0.938c0.153-0.354,0.23-0.738,0.23-1.151c0-0.425-0.083-0.823-0.248-1.195
			S18.12,22.02,17.813,21.736z M16.609,7.305h-1.594V6.277h1.594V7.305z M16.609,10.615h-1.594V9.589h1.594V10.615z M16.609,13.91
			h-1.594v-1.027h1.594V13.91z M16.609,17.221h-1.594v-1.009h1.594V17.221z M16.609,20.533h-1.594v-1.027h1.594V20.533z"/>
	</g>
</g>
</svg>
