<?xml version="1.0" encoding="utf-8"?>
<!-- Generator: Adobe Illustrator 16.2.1, SVG Export Plug-In . SVG Version: 6.00 Build 0)  -->
<!DOCTYPE svg PUBLIC "-//W3C//DTD SVG 1.1//EN" "http://www.w3.org/Graphics/SVG/1.1/DTD/svg11.dtd">
<svg version="1.1" xmlns="http://www.w3.org/2000/svg" xmlns:xlink="http://www.w3.org/1999/xlink" x="0px" y="0px" viewBox="0 0 32 32" enable-background="new 0 0 32 32" xml:space="preserve" width="32px" height="32px" fill="#333">
<g id="Icons">
	<g>
		<path d="M22.889,13.757c0.236,0,0.461,0.044,0.674,0.133c0.212,0.088,0.392,0.209,0.54,0.363c0.147,0.154,0.266,0.333,0.354,0.54
			c0.089,0.207,0.133,0.422,0.133,0.646v11.227H7.554V15.439c0-0.236,0.044-0.455,0.133-0.655s0.206-0.377,0.354-0.531
			c0.147-0.153,0.327-0.274,0.54-0.363c0.212-0.089,0.437-0.133,0.673-0.133h0.407v-4.48c0-0.885,0.168-1.718,0.505-2.497
			c0.336-0.779,0.797-1.458,1.381-2.037c0.584-0.578,1.263-1.036,2.036-1.373s1.597-0.504,2.471-0.504
			c0.886,0,1.718,0.168,2.497,0.504s1.461,0.794,2.045,1.373c0.585,0.579,1.045,1.257,1.382,2.037
			c0.336,0.779,0.504,1.611,0.504,2.497v4.48H22.889z M12.211,13.757h7.703v-4.48c0-0.531-0.101-1.03-0.301-1.496
			c-0.201-0.466-0.476-0.874-0.823-1.222c-0.349-0.348-0.759-0.625-1.231-0.832c-0.472-0.207-0.974-0.31-1.505-0.31
			s-1.03,0.104-1.496,0.31c-0.467,0.207-0.874,0.484-1.222,0.832c-0.349,0.349-0.623,0.756-0.824,1.222
			c-0.2,0.466-0.301,0.965-0.301,1.496V13.757z"/>
	</g>
</g>
</svg>
