<?xml version="1.0" encoding="utf-8"?>
<!-- Generator: Adobe Illustrator 23.0.6, SVG Export Plug-In . SVG Version: 6.00 Build 0)  -->
<svg version="1.0" id="Layer_1" xmlns="http://www.w3.org/2000/svg" xmlns:xlink="http://www.w3.org/1999/xlink" x="0px" y="0px"
     viewBox="0 0 32 32" style="enable-background:new 0 0 32 32;" xml:space="preserve" width="32px" height="32px" fill="#333">
     <style type="text/css">
        .primary{fill:#333333;}
    </style>
<path d="M27.2,6H3.4c-1.1,0-2-0.9-2-2V2c0-1.1,0.9-2,2-2h23.8c1.1,0,2,0.9,2,2v2C29.2,5.1,28.3,6,27.2,6z M22.9,14.8H3.4
	c-1.1,0-2-0.9-2-2v-2.2c0-1.1,0.9-2,2-2h19.5c1.1,0,2,0.9,2,2v2.2C24.9,13.9,24,14.8,22.9,14.8z M16.1,23.5H3.4c-1.1,0-2-0.9-2-2
	v-2.1c0-1.1,0.9-2,2-2h12.7c1.1,0,2,0.9,2,2v2.1C18.1,22.6,17.2,23.5,16.1,23.5z M11.1,32H3.4c-1.1,0-2-0.9-2-2v-1.9
	c0-1.1,0.9-2,2-2h7.8c1.1,0,2,0.9,2,2V30C13.1,31.1,12.2,32,11.1,32z"/>
</svg>
