<?xml version="1.0" encoding="utf-8"?>
<!-- Generator: Adobe Illustrator 16.2.1, SVG Export Plug-In . SVG Version: 6.00 Build 0)  -->
<!DOCTYPE svg PUBLIC "-//W3C//DTD SVG 1.1//EN" "http://www.w3.org/Graphics/SVG/1.1/DTD/svg11.dtd">
<svg version="1.1" xmlns="http://www.w3.org/2000/svg" xmlns:xlink="http://www.w3.org/1999/xlink" x="0px" y="0px" viewBox="0 0 32 32" enable-background="new 0 0 32 32" xml:space="preserve" width="32px" height="32px" fill="#333">
<g id="Icons">
	<g>
		<path d="M5.499,29.781H0.416L25.499,2.414H30.6L5.499,29.781z M8.249,18.164H2.816V6.381h15.899l2.4-2.399h-20.7v16.566H6.05
			L8.249,18.164z M7.866,7.781h-2.3v2.35h1.449V9.231h0.851V7.781z M7.016,11.182H5.566v2.166h1.449V11.182z M5.566,16.781h2.3
			v-1.45H7.016v-0.884H5.566V16.781z M8.999,9.231h3.517v-1.45H8.999V9.231z M8.999,15.331v1.45h0.517l1.301-1.45H8.999z
			 M13.633,7.781v1.45h0.899v2.05l1.434-1.55v-1.95H13.633z M23.8,12.881l-2.534,2.783h8.467v7.451H18.85v-4.834l-1.45,1.584v4.683
			v1.866h13.8V14.215c-0.434-0.244-0.983-0.467-1.649-0.667c-0.578-0.167-1.304-0.322-2.176-0.467
			c-0.872-0.144-1.914-0.216-3.125-0.216c-0.089,0-0.166,0.002-0.233,0.008C23.949,12.879,23.877,12.881,23.8,12.881z
			 M26.366,25.231h-4.084v-0.65h4.084V25.231z"/>
	</g>
</g>
</svg>
