<?xml version="1.0" encoding="utf-8"?>
<!-- Generator: Adobe Illustrator 22.0.1, SVG Export Plug-In . SVG Version: 6.00 Build 0)  -->
<svg version="1.0" id="Layer_1" xmlns="http://www.w3.org/2000/svg" xmlns:xlink="http://www.w3.org/1999/xlink" x="0px" y="0px" viewBox="0 0 32 32" style="enable-background:new 0 0 32 32;" xml:space="preserve" width="32px" height="32px" fill="#333">
<style type="text/css">
	.small{fill:#D3A200;}
	.medium{fill:#D3A200;}
	.large{fill:#D3A200;}
</style>
<path fill="#FFFFFF" d="M28.444,0H3.556C1.592,0,0,1.592,0,3.556v10.667v8.889V32h8.889h8.889h10.667C30.408,32,32,30.408,32,28.444
	V3.556C32,1.592,30.408,0,28.444,0z M2.667,29.333v-6.222c0-0.49,0.399-0.889,0.889-0.889h5.333c0.49,0,0.889,0.399,0.889,0.889
	v5.333c0,0.49-0.399,0.889-0.889,0.889H2.667z M12.319,29.333c0.074-0.286,0.126-0.58,0.126-0.889v-5.333
	c0-1.964-1.592-3.556-3.556-3.556H3.556c-0.309,0-0.603,0.052-0.889,0.126v-5.459c0-0.49,0.399-0.889,0.889-0.889h14.222
	c0.49,0,0.889,0.399,0.889,0.889v14.222c0,0.49-0.399,0.889-0.889,0.889H12.319z M29.333,28.444c0,0.49-0.399,0.889-0.889,0.889
	h-7.237c0.074-0.286,0.126-0.58,0.126-0.889V14.222c0-1.964-1.592-3.556-3.556-3.556H3.556c-0.309,0-0.603,0.052-0.889,0.126V3.556
	c0-0.49,0.399-0.889,0.889-0.889h24.889c0.49,0,0.889,0.399,0.889,0.889V28.444z"/>
<path class="small" d="M2.667,29.333v-6.222c0-0.49,0.399-0.889,0.889-0.889h5.333c0.49,0,0.889,0.399,0.889,0.889v5.333
	c0,0.49-0.399,0.889-0.889,0.889H2.667z"/>
<path class="medium" d="M12.319,29.333c0.074-0.286,0.126-0.58,0.126-0.889v-5.333c0-1.964-1.592-3.556-3.556-3.556H3.556
	c-0.309,0-0.603,0.052-0.889,0.126v-5.459c0-0.49,0.399-0.889,0.889-0.889h14.222c0.49,0,0.889,0.399,0.889,0.889v14.222
	c0,0.49-0.399,0.889-0.889,0.889H12.319z"/>
<path class="large" d="M29.333,28.444c0,0.49-0.399,0.889-0.889,0.889h-7.237c0.074-0.286,0.126-0.58,0.126-0.889V14.222
	c0-1.964-1.592-3.556-3.556-3.556H3.556c-0.309,0-0.603,0.052-0.889,0.126V3.556c0-0.49,0.399-0.889,0.889-0.889h24.889
	c0.49,0,0.889,0.399,0.889,0.889V28.444z"/>
</svg>
