<?xml version="1.0" encoding="utf-8"?>
<!-- Generator: Adobe Illustrator 23.0.6, SVG Export Plug-In . SVG Version: 6.00 Build 0)  -->
<svg version="1.0" id="Layer_1" xmlns="http://www.w3.org/2000/svg" xmlns:xlink="http://www.w3.org/1999/xlink" x="0px" y="0px"
     viewBox="0 0 32 32" style="enable-background:new 0 0 32 32;" xml:space="preserve" width="32px" height="32px" fill="#333">
     <style type="text/css">
        .primary{fill:#333333;}
    </style>
	<path class="primary" d="M14.4,4.1v19.2h2.4V4.1L21,8.2l1.7-1.7l-6.2-6.1c-0.5-0.5-1.2-0.5-1.7,0L8.6,6.5l1.7,1.7L14.4,4.1z"/>
	<path class="primary" d="M25.1,10.2l-5.2,0l0,2.4l4.8,0V29c0,0.3-0.3,0.5-0.5,0.5h-17c-0.3,0-0.5-0.3-0.5-0.5V12.7l4.8,0l0-2.4l-5.2,0
				c-1.1,0-2.1,0.9-2.1,2.1V29c0,1.6,1.3,3,2.9,3h17c1.6,0,3-1.3,3-3V12.3C27.2,11.2,26.2,10.2,25.1,10.2z"/>
</svg>
