<?xml version="1.0" encoding="utf-8"?>
<!-- Generator: Adobe Illustrator 18.0.0, SVG Export Plug-In . SVG Version: 6.00 Build 0)  -->
<!DOCTYPE svg PUBLIC "-//W3C//DTD SVG 1.0//EN" "http://www.w3.org/TR/2001/REC-SVG-20010904/DTD/svg10.dtd">
<svg version="1.0" id="Layer_1" xmlns="http://www.w3.org/2000/svg" xmlns:xlink="http://www.w3.org/1999/xlink" x="0px" y="0px" viewBox="0 0 32 32" style="enable-background:new 0 0 32 32;" xml:space="preserve" width="32px" height="32px" fill="#333">
<symbol id="lock-circle" viewBox="-14 -14 28 28">
	<path d="M0,14c-7.732,0-14-6.268-14-14s6.268-14,14-14S14-7.732,14,0S7.732,14,0,14z M6.062-6.938h-12v7
		c0,1.105,0.895,2,2,2v3.399c0,1.997,1.791,3.616,4,3.616s4-1.619,4-3.616V2.062c1.105,0,2-0.895,2-2V-6.938z"/>
	<path d="M0.062,7.35c-1.303,0-2-0.955-2-2.133V2.062h4v3.154C2.062,6.395,1.366,7.35,0.062,7.35z"/>
</symbol>
<use xlink:href="#lock-circle" width="28px" height="28px" x="-14" y="-14" transform="matrix(1 0 0 -1 15.9375 16.0625)" style="overflow:visible;"/>
</svg>
