<?xml version="1.0" encoding="utf-8"?>
<!-- Generator: Adobe Illustrator 16.2.1, SVG Export Plug-In . SVG Version: 6.00 Build 0)  -->
<!DOCTYPE svg PUBLIC "-//W3C//DTD SVG 1.1//EN" "http://www.w3.org/Graphics/SVG/1.1/DTD/svg11.dtd">
<svg version="1.1" xmlns="http://www.w3.org/2000/svg" xmlns:xlink="http://www.w3.org/1999/xlink" x="0px" y="0px" viewBox="0 0 32 32" enable-background="new 0 0 32 32" xml:space="preserve" width="32px" height="32px" fill="#333">
<g id="Font">
	<g>
		<path d="M14.902,4.2l-3.595,3.595l2.62,2.621l-3.612,3.612L7.659,11.39l-3.595,3.595V4.2H14.902z M11.271,24.405L14.866,28H4.1
			V17.162l3.595,3.596l2.621-2.621l3.612,3.612L11.271,24.405z M24.341,20.828l3.595-3.595V28H17.08l3.595-3.595l-2.604-2.639
			l3.613-3.595L24.341,20.828z M27.899,4.2v10.854l-3.595-3.611l-2.62,2.603l-3.613-3.595l2.656-2.656L17.115,4.2H27.899z"/>
	</g>
</g>
</svg>
