<?xml version="1.0" encoding="utf-8"?>
<!-- Generator: Adobe Illustrator 16.2.1, SVG Export Plug-In . SVG Version: 6.00 Build 0)  -->
<!DOCTYPE svg PUBLIC "-//W3C//DTD SVG 1.1//EN" "http://www.w3.org/Graphics/SVG/1.1/DTD/svg11.dtd">
<svg version="1.1" xmlns="http://www.w3.org/2000/svg" xmlns:xlink="http://www.w3.org/1999/xlink" x="0px" y="0px" viewBox="0 0 32 32" enable-background="new 0 0 32 32" xml:space="preserve" width="32px" height="32px" fill="#333">
<g id="Font">
	<g>
		<path d="M25.722,8.185c0.461,0,0.9,0.089,1.319,0.266s0.782,0.419,1.089,0.726c0.308,0.308,0.55,0.668,0.727,1.08
			c0.177,0.414,0.266,0.856,0.266,1.328V24.6c0,0.461-0.089,0.9-0.266,1.32c-0.177,0.418-0.419,0.781-0.727,1.088
			c-0.307,0.308-0.67,0.549-1.089,0.727S26.183,28,25.722,28H6.243c-0.461,0-0.9-0.088-1.319-0.266
			c-0.42-0.178-0.782-0.419-1.09-0.727c-0.307-0.307-0.549-0.67-0.726-1.088c-0.177-0.42-0.266-0.859-0.266-1.32V11.584
			c0-0.46,0.089-0.9,0.266-1.318c0.177-0.42,0.419-0.782,0.726-1.09c0.308-0.307,0.67-0.549,1.09-0.726
			c0.419-0.177,0.858-0.266,1.319-0.266h2.302L10.032,4.2h11.9l1.487,3.984H25.722z M21.809,23.909
			c0.791-0.79,1.39-1.683,1.797-2.674s0.611-2.042,0.611-3.151c0-1.11-0.207-2.161-0.62-3.152c-0.413-0.992-1.009-1.877-1.788-2.656
			c-0.791-0.791-1.683-1.393-2.674-1.807c-0.992-0.413-2.043-0.619-3.152-0.619c-1.11,0-2.16,0.209-3.152,0.628
			c-0.991,0.419-1.883,1.019-2.674,1.798c-0.779,0.779-1.372,1.667-1.779,2.664c-0.407,0.998-0.611,2.046-0.611,3.145
			c0,1.109,0.206,2.162,0.62,3.16c0.413,0.998,1.003,1.887,1.771,2.665c0.791,0.779,1.683,1.376,2.674,1.788
			c0.992,0.414,2.042,0.621,3.152,0.621c1.109,0,2.16-0.207,3.152-0.621C20.126,25.285,21.018,24.688,21.809,23.909z M15.982,13.267
			c0.661,0,1.286,0.127,1.877,0.381c0.59,0.254,1.101,0.599,1.532,1.036c0.431,0.437,0.772,0.947,1.026,1.531
			s0.381,1.207,0.381,1.869c0,0.66-0.127,1.286-0.381,1.877c-0.254,0.59-0.596,1.104-1.026,1.54
			c-0.432,0.437-0.942,0.785-1.532,1.045c-0.591,0.248-1.216,0.372-1.877,0.372s-1.284-0.127-1.868-0.381
			c-0.585-0.254-1.096-0.6-1.532-1.036s-0.782-0.947-1.035-1.532c-0.255-0.584-0.381-1.213-0.381-1.885
			c0-0.662,0.126-1.285,0.381-1.869c0.253-0.584,0.599-1.095,1.035-1.531c0.437-0.438,0.947-0.782,1.532-1.036
			C14.698,13.394,15.321,13.267,15.982,13.267z"/>
	</g>
</g>
<g id="Icons_1_" display="none">
	<g display="inline">
		<path fill="#231F20" d="M16.062,12.035c-3.242,0-5.879,2.637-5.879,5.879s2.637,5.879,5.879,5.879s5.879-2.637,5.879-5.879
			S19.304,12.035,16.062,12.035z"/>
		<path fill="#231F20" d="M27.922,5.848h-2.81L23.315,1H8.806L7.013,5.848h-2.81c-2.277,0-4.14,1.863-4.14,4.141V25.84
			c0,2.277,1.863,4.141,4.14,4.141h23.72c2.277,0,4.14-1.863,4.14-4.141V9.988C32.062,7.711,30.2,5.848,27.922,5.848z
			 M23.147,24.998c-1.893,1.893-4.408,2.935-7.084,2.935s-5.192-1.042-7.084-2.935c-1.892-1.893-2.934-4.408-2.934-7.084
			s1.042-5.191,2.934-7.084c1.893-1.893,4.408-2.935,7.084-2.935s5.192,1.042,7.084,2.935c1.892,1.893,2.934,4.408,2.934,7.084
			S25.039,23.105,23.147,24.998z"/>
	</g>
</g>
</svg>
