<?xml version="1.0" encoding="utf-8"?>
<!-- Generator: Adobe Illustrator 19.2.1, SVG Export Plug-In . SVG Version: 6.00 Build 0)  -->
<!DOCTYPE svg PUBLIC "-//W3C//DTD SVG 1.0//EN" "http://www.w3.org/TR/2001/REC-SVG-20010904/DTD/svg10.dtd">
<svg version="1.0" id="Layer_1" xmlns="http://www.w3.org/2000/svg" xmlns:xlink="http://www.w3.org/1999/xlink" x="0px" y="0px" viewBox="0 0 32 32" style="enable-background:new 0 0 32 32;" xml:space="preserve" fill="#333" width="32px" height="32px">
<style type="text/css">
	.primary{fill:#333333;}
</style>
<path class="primary" d="M10,10H5c-1.7,0-3,1.8-3,4c0,2.2,1.3,4,3,4h5v-1c1.8,0,3.5,0.3,5,0.8v-7.5c-1.5,0.5-3.2,0.8-5,0.8V10z
	 M5,15c-0.6,0-1-0.4-1-1c0-0.6,0.4-1,1-1s1,0.4,1,1C6,14.6,5.6,15,5,15z M26,3v22c0,0.6-0.4,1-1,1c-0.6,0-1-0.4-1-1v-1
	c0,0-2.8-3.9-8-5.9V9.9c5.2-2,8-5.9,8-5.9V3c0-0.6,0.4-1,1-1C25.6,2,26,2.4,26,3z M27,11c1.7,0,3,1.3,3,3s-1.3,3-3,3V11z M12,28
	c-6-3-6-9-6-9h4c0,0,0,6,4,8C14,27,14,29,12,28z"/>
</svg>
