<?xml version="1.0" encoding="utf-8"?>
<!-- Generator: Adobe Illustrator 17.1.0, SVG Export Plug-In . SVG Version: 6.00 Build 0)  -->
<!DOCTYPE svg PUBLIC "-//W3C//DTD SVG 1.1//EN" "http://www.w3.org/Graphics/SVG/1.1/DTD/svg11.dtd">
<svg version="1.1" id="Layer_1" xmlns="http://www.w3.org/2000/svg" xmlns:xlink="http://www.w3.org/1999/xlink" x="0px" y="0px" viewBox="0 0 32 32" enable-background="new 0 0 32 32" xml:space="preserve" width="32px" height="32px" fill="#333">
<path d="M31.3,21.1v-3.6h0.3v-11l0,0l0.4-2c0,0-1.1-4-4.2-2.1c0,0,0.2,0.3,0.3,0.8l-3,1.6l-0.2-0.3L20.6,7l-1.2,1.9
	c-0.4,0.1-0.7,0.2-1,0.3c-0.4-0.3-0.8-0.4-1.3-0.4H9.8l-1.3,5.8v0.1H7.9l-0.7-2.2H5.1v-1c0-0.2-0.1-0.5-0.2-0.6L3.7,9.5v1.6l0.5,0.5
	v0.9H2.4l-0.7,2.2H1.2c-0.7,0-1.2,0.6-1.2,1.2v6.4c0,0.7,0.6,1.2,1.2,1.2h1.6h2.6v1.3H2.6C1.1,24.8,0,26,0,27.4S1.2,30,2.6,30h15.6
	c1.5,0,2.7-1.2,2.7-2.7s-1.2-2.7-2.7-2.7H17v-1.3h3.2l1.2-1.3l0.2-2.9c0-2.6-0.9-5.6-1.5-7.3c1.4-0.7,4.6-2.3,6.6-3.2l0.2,13.8
	c-0.3,0.2-0.5,0.6-0.5,1c0,0.3,0.1,0.5,0.2,0.7l-2.3,3.3l-2.6,0.1c0,0,3.3,2.1,4.5,2.5c1.3,0.3,3.5,0,4.2-1.6
	c0.3-0.8,0.5-2.1-0.5-3.3c0.2-0.2,0.3-0.5,0.3-0.8c0-0.2-0.1-0.4-0.2-0.6l0.9-1.4c0.4,0,0.7-0.2,0.8-0.5
	C31.8,21.7,31.6,21.3,31.3,21.1z M2.9,29.2c-0.9,0-1.7-0.8-1.7-1.7s0.8-1.7,1.7-1.7s1.7,0.8,1.7,1.7S3.9,29.2,2.9,29.2z M17.8,25.8
	c0.9,0,1.7,0.8,1.7,1.7s-0.8,1.7-1.7,1.7s-1.7-0.8-1.7-1.7S16.9,25.8,17.8,25.8z M30.3,13.3v4.2h0.3v3.7c-0.2,0.1-0.3,0.2-0.4,0.5
	c-0.1,0.2,0,0.4,0.1,0.6L29,23.4c-0.1,0-0.2,0-0.3,0c0-0.2-0.1-0.4-0.3-0.6L30.3,13.3z M25.6,5.8l-0.2-0.3L28.2,4
	c0,0.6-0.1,1.2-0.5,1.8l0,0c0,0-2.2,0.8-4.6,1.7L25.6,5.8z M16.5,10c-1,0.6-1.9,1.6-2.5,2.5V10H16.5z M9.7,14.8l1-4.8H13v4.5
	c-0.3,0.8-0.7,1.8-1,2.7h-0.1l-0.3-0.8c-0.2-0.5-0.4-1-0.8-1.4L9.7,14.8z M17,19.6l0.4-3.5c0,0,0.5-1.8,1.5-3
	c1.3,3.8,1.3,6.5,1.3,6.5H17z"/>
</svg>
