<?xml version="1.0" encoding="utf-8"?>
<!-- Generator: Adobe Illustrator 16.2.1, SVG Export Plug-In . SVG Version: 6.00 Build 0)  -->
<!DOCTYPE svg PUBLIC "-//W3C//DTD SVG 1.1//EN" "http://www.w3.org/Graphics/SVG/1.1/DTD/svg11.dtd">
<svg version="1.1" xmlns="http://www.w3.org/2000/svg" xmlns:xlink="http://www.w3.org/1999/xlink" x="0px" y="0px" viewBox="0 0 32 32" enable-background="new 0 0 32 32" xml:space="preserve" width="32px" height="32px" fill="#333">
<g id="Font">
	<g>
		<path d="M9.403,6.454c0,0.354-0.067,0.688-0.203,1.001S8.878,8.042,8.643,8.278C8.406,8.515,8.129,8.703,7.81,8.845
			C7.491,8.986,7.154,9.057,6.801,9.057c-0.366,0-0.709-0.07-1.027-0.212s-0.597-0.33-0.832-0.566
			C4.705,8.042,4.519,7.768,4.384,7.455C4.247,7.143,4.18,6.809,4.18,6.454c0-0.366,0.067-0.711,0.204-1.036
			c0.135-0.324,0.321-0.602,0.558-0.832c0.235-0.23,0.514-0.416,0.832-0.558s0.661-0.213,1.027-0.213
			c0.354,0,0.69,0.071,1.009,0.213C8.129,4.17,8.406,4.355,8.643,4.586C8.878,4.816,9.064,5.094,9.2,5.418
			C9.336,5.743,9.403,6.088,9.403,6.454z M9.403,14.6c0,0.354-0.067,0.691-0.203,1.01s-0.322,0.596-0.558,0.832
			c-0.236,0.236-0.514,0.426-0.833,0.566c-0.318,0.143-0.655,0.213-1.009,0.213c-0.366,0-0.709-0.07-1.027-0.213
			c-0.318-0.141-0.597-0.33-0.832-0.566c-0.236-0.236-0.423-0.514-0.558-0.832C4.247,15.291,4.18,14.954,4.18,14.6
			c0-0.354,0.067-0.69,0.204-1.009c0.135-0.319,0.321-0.597,0.558-0.833c0.235-0.235,0.514-0.422,0.832-0.557
			c0.318-0.137,0.661-0.204,1.027-0.204c0.354,0,0.69,0.067,1.009,0.204c0.319,0.135,0.597,0.321,0.833,0.557
			c0.235,0.236,0.422,0.514,0.558,0.833C9.336,13.909,9.403,14.246,9.403,14.6z M9.403,22.764c0,0.365-0.067,0.705-0.203,1.018
			c-0.136,0.313-0.322,0.591-0.558,0.833c-0.236,0.241-0.514,0.428-0.833,0.558c-0.318,0.13-0.655,0.195-1.009,0.195
			c-0.366,0-0.709-0.065-1.027-0.195s-0.597-0.316-0.832-0.558c-0.236-0.242-0.423-0.52-0.558-0.833
			c-0.137-0.312-0.204-0.652-0.204-1.018c0-0.354,0.067-0.691,0.204-1.01c0.135-0.318,0.321-0.599,0.558-0.841
			c0.235-0.241,0.514-0.431,0.832-0.567c0.318-0.135,0.661-0.203,1.027-0.203c0.354,0,0.69,0.068,1.009,0.203
			c0.319,0.137,0.597,0.326,0.833,0.567c0.235,0.242,0.422,0.522,0.558,0.841S9.403,22.409,9.403,22.764z M27.838,7.765H11.582
			v-2.55h16.256V7.765z M27.838,15.822H11.582v-2.551h16.256V15.822z M27.838,23.773H11.582V21.24h16.256V23.773z"/>
	</g>
</g>
</svg>
