<?xml version="1.0" encoding="utf-8"?>
<!-- Generator: Adobe Illustrator 16.2.1, SVG Export Plug-In . SVG Version: 6.00 Build 0)  -->
<!DOCTYPE svg PUBLIC "-//W3C//DTD SVG 1.1//EN" "http://www.w3.org/Graphics/SVG/1.1/DTD/svg11.dtd">
<svg version="1.1" xmlns="http://www.w3.org/2000/svg" xmlns:xlink="http://www.w3.org/1999/xlink" x="0px" y="0px" viewBox="0 0 32 32" enable-background="new 0 0 32 32" xml:space="preserve" width="32px" height="32px" fill="#333">
<g id="Icons">
	<g>
		<path d="M3.566,4.881H14h0.549l0.367,0.35c0.1,0.089,0.252,0.255,0.459,0.5c0.205,0.244,0.408,0.633,0.607,1.167
			c0.512,1.267,0.768,2.922,0.768,4.967c0,2.033-0.256,3.683-0.768,4.95c-0.211,0.534-0.414,0.931-0.607,1.192
			c-0.195,0.261-0.348,0.431-0.459,0.508l-0.367,0.35H14H3.566H3.016l-0.383-0.35c-0.09-0.089-0.236-0.261-0.441-0.517
			s-0.408-0.65-0.609-1.184c-0.51-1.267-0.766-2.917-0.766-4.95c0-2.044,0.256-3.7,0.766-4.967C1.793,6.364,2,5.97,2.199,5.714
			C2.4,5.458,2.543,5.297,2.633,5.231l0.416-0.35H3.566z M3.566,6.331C3.322,6.575,3.1,6.942,2.9,7.431
			c-0.168,0.422-0.318,0.989-0.451,1.7S2.25,10.753,2.25,11.864c0,1.1,0.066,2.005,0.199,2.716c0.133,0.711,0.283,1.284,0.451,1.717
			c0.188,0.5,0.41,0.873,0.666,1.117H14c0.244-0.244,0.461-0.617,0.65-1.117c0.166-0.422,0.318-0.992,0.457-1.708
			c0.139-0.716,0.209-1.625,0.209-2.725c0-1.1-0.07-2.008-0.209-2.725s-0.291-1.286-0.457-1.708c-0.189-0.489-0.406-0.855-0.65-1.1
			H3.566z M5.666,20.681c0.422,0,0.822,0.083,1.199,0.25c0.379,0.167,0.709,0.392,0.992,0.675c0.283,0.283,0.508,0.614,0.676,0.992
			c0.166,0.377,0.25,0.789,0.25,1.233c0,0.422-0.084,0.823-0.25,1.2c-0.168,0.378-0.393,0.706-0.676,0.983s-0.611,0.498-0.982,0.658
			c-0.373,0.161-0.775,0.242-1.209,0.242c-0.422,0-0.824-0.081-1.209-0.242c-0.383-0.161-0.713-0.38-0.99-0.658
			c-0.279-0.278-0.5-0.605-0.668-0.983c-0.166-0.377-0.25-0.778-0.25-1.2c0-0.433,0.084-0.841,0.25-1.225
			c0.168-0.383,0.389-0.717,0.668-1c0.277-0.284,0.607-0.508,0.99-0.675C4.842,20.764,5.244,20.681,5.666,20.681z M13.666,16.714
			c0.078-0.1,0.172-0.261,0.283-0.483s0.217-0.531,0.316-0.925c0.1-0.394,0.186-0.872,0.26-1.433c0.07-0.561,0.107-1.23,0.107-2.008
			c0-0.489-0.012-0.934-0.033-1.333c-0.023-0.4-0.061-0.761-0.117-1.083C14.404,9.858,14.244,10.22,14,10.531
			c-0.211,0.267-0.531,0.511-0.959,0.733s-1.002,0.322-1.725,0.3c-0.744-0.022-1.314-0.125-1.709-0.308
			c-0.395-0.184-0.686-0.386-0.875-0.608c-0.223-0.255-0.344-0.556-0.367-0.9c-0.199,0.233-0.428,0.45-0.682,0.65
			c-0.213,0.178-0.465,0.358-0.76,0.542c-0.293,0.184-0.625,0.342-0.99,0.475c-0.391,0.133-0.762,0.206-1.117,0.217
			s-0.672,0-0.951-0.033c-0.277-0.034-0.5-0.072-0.666-0.117l-0.25-0.067c-0.033,0.811-0.014,1.522,0.059,2.133
			c0.072,0.611,0.16,1.136,0.268,1.575c0.105,0.439,0.219,0.789,0.34,1.05c0.123,0.261,0.211,0.442,0.268,0.542H13.666z
			 M29.883,21.481h1.334v3.45h-2.65c0.055-0.178,0.088-0.358,0.1-0.542c0.012-0.184,0.018-0.369,0.018-0.559
			c0-0.633-0.121-1.228-0.359-1.783c-0.238-0.555-0.564-1.042-0.975-1.458c-0.412-0.417-0.893-0.744-1.441-0.983
			c-0.551-0.239-1.143-0.358-1.775-0.358s-1.229,0.12-1.783,0.358c-0.557,0.239-1.039,0.566-1.449,0.983
			c-0.412,0.417-0.736,0.903-0.977,1.458c-0.238,0.556-0.357,1.15-0.357,1.783c0,0.189,0.01,0.375,0.033,0.559
			c0.021,0.183,0.061,0.364,0.117,0.542H10.1c0.055-0.178,0.088-0.358,0.1-0.542c0.012-0.184,0.018-0.369,0.018-0.559
			c0-0.566-0.092-1.094-0.275-1.583S9.5,21.314,9.166,20.914h9.051V7.797c0.811,0.078,1.627,0.25,2.449,0.517
			c0.355,0.111,0.73,0.253,1.125,0.425s0.791,0.378,1.191,0.617s0.801,0.517,1.201,0.833c0.398,0.317,0.783,0.681,1.148,1.092
			l1.334,4.283c0.521,0.034,1.051,0.117,1.584,0.25c0.455,0.111,0.947,0.284,1.475,0.517c0.527,0.233,1.025,0.567,1.492,1
			l-1.334-0.033V21.481z M20.467,14.647c0.332,0.322,0.746,0.55,1.24,0.683s0.98,0.217,1.459,0.25
			c0.555,0.045,1.133,0.039,1.734-0.017l-1.068-3.833h-3.783c0,0.456,0.018,0.883,0.051,1.283c0.012,0.167,0.025,0.336,0.041,0.508
			c0.018,0.172,0.039,0.331,0.066,0.475c0.029,0.145,0.062,0.275,0.102,0.392C20.346,14.506,20.4,14.592,20.467,14.647z
			 M24.133,20.681c0.434,0,0.838,0.083,1.217,0.25c0.377,0.167,0.709,0.392,0.992,0.675c0.283,0.283,0.504,0.614,0.666,0.992
			c0.16,0.377,0.242,0.789,0.242,1.233c0,0.422-0.082,0.823-0.242,1.2c-0.162,0.378-0.383,0.706-0.666,0.983
			s-0.611,0.498-0.984,0.658c-0.371,0.161-0.781,0.242-1.225,0.242c-0.434,0-0.84-0.081-1.217-0.242
			c-0.377-0.161-0.709-0.38-0.992-0.658s-0.508-0.605-0.674-0.983c-0.168-0.377-0.25-0.778-0.25-1.2c0-0.433,0.082-0.841,0.25-1.225
			c0.166-0.383,0.391-0.717,0.674-1c0.283-0.284,0.615-0.508,0.992-0.675C23.293,20.764,23.699,20.681,24.133,20.681z"/>
	</g>
</g>
</svg>
