<?xml version="1.0" encoding="utf-8"?>
<!-- Generator: Adobe Illustrator 16.2.1, SVG Export Plug-In . SVG Version: 6.00 Build 0)  -->
<!DOCTYPE svg PUBLIC "-//W3C//DTD SVG 1.1//EN" "http://www.w3.org/Graphics/SVG/1.1/DTD/svg11.dtd">
<svg version="1.1" xmlns="http://www.w3.org/2000/svg" xmlns:xlink="http://www.w3.org/1999/xlink" x="0px" y="0px" viewBox="0 0 32 32" enable-background="new 0 0 32 32" xml:space="preserve" width="32px" height="32px" fill="#333">
<g id="Icons">
	<g>
		<path d="M16.938,11.971l4.072-2.975c-0.731-0.531-1.522-0.939-2.372-1.223c-0.851-0.283-1.735-0.425-2.656-0.425
			c-1.146,0-2.234,0.212-3.268,0.638c-1.033,0.425-1.951,1.039-2.754,1.842s-1.416,1.721-1.842,2.754
			c-0.425,1.033-0.637,2.121-0.637,3.267s0.212,2.234,0.637,3.267c0.426,1.033,1.039,1.951,1.842,2.754s1.724,1.417,2.763,1.842
			c1.039,0.426,2.125,0.638,3.259,0.638c1.145,0,2.233-0.212,3.267-0.638c1.033-0.425,1.951-1.039,2.754-1.842
			c0.531-0.531,0.977-1.115,1.337-1.753s0.635-1.304,0.823-2.001l3.241,1.062c-0.366,1.24-0.915,2.382-1.647,3.427
			c-0.731,1.044-1.594,1.95-2.585,2.718c-0.992,0.768-2.099,1.363-3.32,1.789c-1.222,0.425-2.512,0.637-3.869,0.637
			c-1.099,0-2.152-0.141-3.161-0.424c-1.01-0.284-1.954-0.686-2.834-1.205c-0.879-0.52-1.682-1.143-2.408-1.868
			c-0.726-0.726-1.349-1.528-1.868-2.408S4.79,20.02,4.507,19.01s-0.425-2.063-0.425-3.161c0-1.099,0.142-2.154,0.425-3.17
			c0.283-1.015,0.685-1.962,1.204-2.843c0.52-0.879,1.143-1.679,1.868-2.398c0.727-0.721,1.529-1.344,2.408-1.869
			c0.88-0.525,1.824-0.926,2.834-1.203c1.009-0.277,2.062-0.416,3.161-0.416c1.511,0,2.934,0.262,4.268,0.787
			s2.532,1.248,3.595,2.17l4.037-2.957v11.669L16.938,11.971z"/>
	</g>
</g>
</svg>
