<?xml version="1.0" encoding="utf-8"?>
<!-- Generator: Adobe Illustrator 23.0.6, SVG Export Plug-In . SVG Version: 6.00 Build 0)  -->
<svg version="1.0" id="Layer_1" xmlns="http://www.w3.org/2000/svg" xmlns:xlink="http://www.w3.org/1999/xlink" x="0px" y="0px"
     viewBox="0 0 32 32" style="enable-background:new 0 0 32 32;" xml:space="preserve" width="32px" height="32px" fill="#333">
<style type="text/css">
	.st0{fill-rule:evenodd;clip-rule:evenodd;}
</style>
<g>
	<path class="st0" d="M18.4,13.6h5.3V8.3h-5.3V13.6z M18.4,21.5h5.3v-5.3h-5.3V21.5z M18.4,29.4h5.3v-5.3h-5.3V29.4z M10.5,29.4h5.3
		v-5.3h-5.3V29.4z M2.6,29.4h5.3v-5.3H2.6V29.4z M2.6,21.5h5.3v-5.3H2.6V21.5z M2.6,13.6h5.3V8.3H2.6V13.6z M10.5,21.5h5.3v-5.3
		h-5.3V21.5z M10.5,13.6h5.3V8.3h-5.3V13.6z M18.4,5.7h-2.6h-5.3H7.9H0v7.9v2.6v5.3v2.6V32h7.9h2.6h5.3h2.6h7.9v-7.9v-2.6v-5.3v-2.6
		V5.7H18.4z"/>
</g>
</svg>
