<?xml version="1.0" encoding="iso-8859-1"?>
<!-- Generator: Adobe Illustrator 19.0.0, SVG Export Plug-In . SVG Version: 6.00 Build 0)  -->
<svg version="1.0" id="Layer_1" xmlns="http://www.w3.org/2000/svg" xmlns:xlink="http://www.w3.org/1999/xlink" x="0px" y="0px" viewBox="0 0 32 32" style="enable-background:new 0 0 32 32;" xml:space="preserve" width="32px" height="32px" fill="#333">
<style type="text/css">
	.primary{fill:#333333;}
</style>
<path id="XMLID_275_" class="primary" d="M22.857,16l2.286-1.143l4.571,2.286l-2.286,1.143L22.857,16z M8,32h6.857v-2.286H8V32z
	 M24,8h-2.286v5.714L24,12.571V8z M17.143,32H24v-2.286h-6.857V32z M14.857,0H8v2.286h6.857V0z M29.714,19.429V24H32v-5.714
	L29.714,19.429z M2.286,8H0v6.857h2.286V8z M29.714,29.714h-3.429V32h4.571C31.543,32,32,31.543,32,30.857v-4.571h-2.286V29.714z
	 M2.286,26.286H0v4.571C0,31.543,0.457,32,1.143,32h4.571v-2.286H2.286V26.286z M21.714,5.714H24V1.143C24,0.457,23.543,0,22.857,0
	h-5.714v2.286h4.571V5.714z M2.286,17.143H0V24h2.286V17.143z M2.286,2.286h3.429V0H1.143C0.457,0,0,0.457,0,1.143v4.571h2.286
	V2.286z"/>
<circle id="XMLID_466_" class="primary" cx="24.938" cy="23.688" r="2.562"/>
<circle id="XMLID_468_" class="primary" cx="15.938" cy="23.688" r="2.562"/>
<circle id="XMLID_469_" class="primary" cx="6.938" cy="23.688" r="2.562"/>
<circle id="XMLID_471_" class="primary" cx="15.938" cy="15.688" r="2.562"/>
<circle id="XMLID_470_" class="primary" cx="6.938" cy="15.688" r="2.562"/>
<circle id="XMLID_473_" class="primary" cx="15.938" cy="7.688" r="2.562"/>
<circle id="XMLID_472_" class="primary" cx="6.938" cy="7.688" r="2.562"/>
</svg>
