<?xml version="1.0" encoding="utf-8"?>
<!-- Generator: Adobe Illustrator 17.1.0, SVG Export Plug-In . SVG Version: 6.00 Build 0)  -->
<!DOCTYPE svg PUBLIC "-//W3C//DTD SVG 1.1//EN" "http://www.w3.org/Graphics/SVG/1.1/DTD/svg11.dtd">
<svg version="1.1" id="Layer_1" xmlns="http://www.w3.org/2000/svg" xmlns:xlink="http://www.w3.org/1999/xlink" x="0px" y="0px" viewBox="0 0 32 32" enable-background="new 0 0 32 32" xml:space="preserve" width="32px" height="32px" fill="#333">
<g>
	<g>
		<g>
			<path fill="#69CDF0" d="M6.6,2.1C5.4,3.3,4.4,4.7,3.7,6.3c-0.7,1.6-1,3.3-1,5.1c0,1.8,0.3,3.5,1,5.1c0.7,1.6,1.6,3,2.9,4.3
				L5,22.3c-1.4-1.5-2.6-3.1-3.4-5c-0.8-1.9-1.2-3.9-1.2-5.9c0-2.1,0.4-4.1,1.2-5.9c0.8-1.9,1.9-3.5,3.4-5L6.6,2.1z M10.1,5.5
				C9.3,6.3,8.7,7.2,8.3,8.2c-0.4,1-0.6,2.1-0.6,3.2c0,1.1,0.2,2.2,0.6,3.2c0.4,1,1,1.9,1.8,2.7l-1.6,1.6c-1-1-1.8-2.2-2.3-3.5
				c-0.5-1.3-0.8-2.6-0.8-4.1c0-1.4,0.3-2.8,0.8-4.1C6.7,6,7.4,4.9,8.5,3.9L10.1,5.5z M23.5,3.9c1,1,1.8,2.1,2.3,3.4
				c0.5,1.3,0.8,2.6,0.8,4.1c0,1.4-0.3,2.8-0.8,4.1c-0.5,1.3-1.3,2.4-2.3,3.5l-1.6-1.6c0.8-0.8,1.4-1.7,1.8-2.7
				c0.4-1,0.6-2.1,0.6-3.2c0-1.1-0.2-2.2-0.6-3.2c-0.4-1-1-1.9-1.8-2.7L23.5,3.9z M26.9,0.4c1.5,1.5,2.6,3.2,3.4,5
				c0.8,1.9,1.2,3.8,1.2,5.9c0,2.1-0.4,4.1-1.2,5.9c-0.8,1.9-1.9,3.5-3.4,5l-1.6-1.6c1.2-1.2,2.2-2.7,2.9-4.3c0.7-1.6,1-3.3,1-5.1
				c0-1.8-0.3-3.5-1-5.1c-0.7-1.6-1.6-3-2.9-4.3L26.9,0.4z"/>
		</g>
		<path fill="#47B5DF" d="M30.3,5.5c0.8,1.9,1.2,3.8,1.2,5.9c0,2.1-0.4,4.1-1.2,5.9c-0.8,1.9-1.9,3.5-3.3,5l-0.6-0.6
			c1.4-1.4,2.4-3,3.2-4.7c0.7-1.8,1.1-3.6,1.1-5.6c0-2-0.4-3.8-1.1-5.6C28.7,4,27.7,2.4,26.3,1l0.6-0.6C28.4,1.9,29.5,3.6,30.3,5.5z
			 M23.5,18.9c1-1,1.8-2.2,2.3-3.5c0.5-1.3,0.8-2.6,0.8-4.1c0-1.4-0.3-2.8-0.8-4.1c-0.5-1.3-1.3-2.4-2.3-3.4l-1,1
			c0.9,0.9,1.6,1.8,2,3c0.5,1.1,0.7,2.3,0.7,3.5c0,1.2-0.2,2.4-0.7,3.5c-0.5,1.1-1.1,2.1-2,3L23.5,18.9z M5.6,21.7
			c-1.4-1.4-2.4-3-3.2-4.7c-0.7-1.8-1.1-3.6-1.1-5.6c0-2,0.4-3.8,1.1-5.6C3.1,4,4.2,2.4,5.6,1L5,0.4c-1.5,1.5-2.6,3.2-3.4,5
			c-0.8,1.9-1.2,3.8-1.2,5.9c0,2.1,0.4,4.1,1.2,5.9c0.8,1.9,1.9,3.5,3.4,5L5.6,21.7z M6.1,7.3C5.6,8.6,5.3,10,5.3,11.4
			c0,1.4,0.3,2.8,0.8,4.1c0.5,1.3,1.3,2.4,2.3,3.5l1-1c-0.9-0.9-1.6-1.9-2-3c-0.5-1.1-0.7-2.3-0.7-3.5C6.7,10.1,7,9,7.4,7.9
			c0.5-1.1,1.1-2.1,2-3l-1-1C7.4,4.9,6.7,6,6.1,7.3z"/>
	</g>
	<path fill="#ACACAC" d="M21.1,11.4c0-2.9-2.3-5.2-5.2-5.2c-2.9,0-5.2,2.3-5.2,5.2c0,2.2,1.3,4,3.2,4.8L12.2,30h7.3l-1.8-13.8
		C19.7,15.5,21.1,13.6,21.1,11.4z"/>
	<path fill="#7E7E7E" d="M19.2,11.4c0-1.8-1.4-3.2-3.2-3.2c-1.8,0-3.2,1.4-3.2,3.2c0,1.8,1.4,3.2,3.2,3.2
		C17.7,14.6,19.2,13.1,19.2,11.4z M18.8,11.4c0,1.6-1.3,2.8-2.8,2.8c-1.5,0-2.8-1.3-2.8-2.8c0-1.6,1.2-2.8,2.8-2.8
		C17.5,8.6,18.8,9.8,18.8,11.4z M26,30H6v1h20V30z"/>
</g>
</svg>
