<?xml version="1.0" encoding="utf-8"?>
<!-- Generator: Adobe Illustrator 16.2.1, SVG Export Plug-In . SVG Version: 6.00 Build 0)  -->
<!DOCTYPE svg PUBLIC "-//W3C//DTD SVG 1.1//EN" "http://www.w3.org/Graphics/SVG/1.1/DTD/svg11.dtd">
<svg version="1.1" xmlns="http://www.w3.org/2000/svg" xmlns:xlink="http://www.w3.org/1999/xlink" x="0px" y="0px" viewBox="0 0 32 32" enable-background="new 0 0 32 32" xml:space="preserve" width="32px" height="32px" fill="#333">
<g id="Font">
	<g>
		<path d="M20.94,4.165c0.484,0,0.892,0.163,1.222,0.487c0.331,0.325,0.496,0.729,0.496,1.213v18.08V26.3
			c0,0.473-0.162,0.874-0.487,1.205C21.847,27.835,21.437,28,20.94,28H11.06c-0.473,0-0.874-0.162-1.204-0.487
			c-0.331-0.325-0.496-0.729-0.496-1.213V5.865c0-0.484,0.162-0.888,0.487-1.213c0.324-0.324,0.729-0.487,1.213-0.487H20.94z
			 M21.136,8.273H10.882v14.149h10.254V8.273z M14.158,5.386c-0.142,0-0.263,0.051-0.363,0.151c-0.1,0.1-0.15,0.221-0.15,0.363
			c0,0.13,0.051,0.248,0.15,0.354c0.101,0.106,0.222,0.159,0.363,0.159h3.736c0.13,0,0.248-0.053,0.354-0.159
			c0.106-0.106,0.159-0.224,0.159-0.354c0-0.142-0.053-0.263-0.159-0.363s-0.225-0.151-0.354-0.151H14.158z M15.982,27.062
			c0.236,0,0.454-0.044,0.655-0.133c0.2-0.088,0.374-0.209,0.522-0.363c0.147-0.153,0.263-0.33,0.345-0.531
			c0.083-0.2,0.124-0.407,0.124-0.62c0-0.224-0.041-0.434-0.124-0.628c-0.082-0.195-0.197-0.366-0.345-0.514
			c-0.148-0.147-0.322-0.266-0.522-0.354c-0.201-0.089-0.419-0.133-0.655-0.133c-0.225,0-0.434,0.044-0.629,0.133
			c-0.194,0.088-0.363,0.207-0.505,0.354s-0.254,0.319-0.336,0.514c-0.083,0.195-0.124,0.404-0.124,0.628
			c0,0.225,0.041,0.434,0.124,0.629c0.082,0.194,0.194,0.369,0.336,0.522c0.142,0.154,0.311,0.275,0.505,0.363
			C15.549,27.017,15.758,27.062,15.982,27.062z"/>
	</g>
</g>
</svg>
