<?xml version="1.0" encoding="utf-8"?>
<svg version="1.0" id="Layer_1" xmlns="http://www.w3.org/2000/svg" xmlns:xlink="http://www.w3.org/1999/xlink" x="0px" y="0px" viewBox="0 0 32 32" style="enable-background:new 0 0 32 32;" xml:space="preserve"  width="32px" height="32px" fill="#333">
<style type="text/css">
	.primary{fill:#333333;}
</style>
<path class="primary" d="M16.841,5.381c0.273,0.036,0.435,0.16,0.485,0.372c0.051,0.214,0.077,0.478,0.075,0.795l0.268,9.656
	c0.027,0.261-0.01,0.515-0.108,0.762c-0.1,0.247-0.263,0.464-0.489,0.651c-1.071,0.786-2.051,1.511-2.938,2.173
	c-0.391,0.273-0.773,0.553-1.144,0.835c-0.372,0.284-0.719,0.543-1.042,0.778c-0.324,0.236-0.606,0.441-0.844,0.616
	c-0.24,0.176-0.394,0.299-0.467,0.37c-0.327,0.251-0.762,0.271-1.048-0.066c-0.11-0.128-0.175-0.289-0.194-0.48
	c-0.02-0.192,0.039-0.35,0.173-0.476c0.071-0.071,0.195-0.215,0.372-0.433c0.176-0.216,0.4-0.478,0.673-0.784
	c0.274-0.305,0.566-0.641,0.877-1.007c0.309-0.364,0.628-0.73,0.955-1.092c0.769-0.859,1.605-1.83,2.508-2.908l0.022-0.007
	c0.015-0.005,0.028-0.034,0.044-0.087l1.114-8.647c0.026-0.293,0.075-0.543,0.15-0.75C16.356,5.446,16.541,5.357,16.841,5.381z
	 M3.828,0.5l2.88,3.776C7.796,3.483,9,2.829,10.319,2.315l1.262-0.423c1.853-0.51,3.679-0.706,5.477-0.588
	c1.797,0.118,3.512,0.53,5.143,1.234l1.174,0.558c3.187,1.661,5.698,4.435,7.06,7.758l0.436,1.233
	c0.514,1.777,0.713,3.549,0.598,5.314c-0.115,1.766-0.534,3.445-1.256,5.034l-0.272,0.544l0.015,0.042l-0.308,0.578
	c-0.844,1.521-1.938,2.869-3.276,4.047c-1.34,1.178-2.903,2.116-4.691,2.81l-1.263,0.424c-3.49,0.99-7.243,0.768-10.591-0.632
	l-0.586-0.279l-0.594-0.3c-1.589-0.813-2.988-1.882-4.195-3.206c-1.207-1.322-2.155-2.843-2.845-4.561l-0.433-1.233
	c-0.89-2.901-0.921-6.081,0.084-8.958l3.251,0.131l-0.174,0.458c-0.395,1.053-0.631,2.16-0.74,3.278
	c-0.064,1.385,0.074,2.789,0.478,4.118l0.436,1.233c0.523,1.305,1.304,2.487,2.23,3.541c0.488,0.504,1,0.963,1.538,1.377
	c0.538,0.416,1.109,0.783,1.71,1.106l1.176,0.559c1.274,0.531,2.632,0.855,4.007,0.966c1.427,0.12,2.869-0.057,4.249-0.425
	l1.263-0.424c1.337-0.542,2.541-1.279,3.61-2.211c1.018-0.896,1.864-1.95,2.54-3.162l0.615-1.159
	c0.542-1.229,0.848-2.522,0.923-3.88c0.06-0.703,0.055-1.396-0.016-2.079c-0.072-0.682-0.213-1.369-0.425-2.062l-0.436-1.233
	c-0.552-1.287-1.3-2.501-2.267-3.518c-0.935-1.033-1.995-1.867-3.177-2.5l-1.18-0.579c-1.292-0.497-2.645-0.835-4.03-0.908
	c-0.719-0.059-1.429-0.055-2.129,0.014c-0.7,0.067-1.403,0.205-2.113,0.41l-1.263,0.424c-0.656,0.267-1.29,0.583-1.903,0.946
	C9.131,6.309,8.842,6.5,8.563,6.705l2.558,3.354L2.403,9.671L3.828,0.5z"/>
</svg>