<?xml version="1.0" encoding="utf-8"?>
<!-- Generator: Adobe Illustrator 19.2.0, SVG Export Plug-In . SVG Version: 6.00 Build 0)  -->
<!DOCTYPE svg PUBLIC "-//W3C//DTD SVG 1.1//EN" "http://www.w3.org/Graphics/SVG/1.1/DTD/svg11.dtd">
<svg version="1.1" id="Layer_1" xmlns="http://www.w3.org/2000/svg" xmlns:xlink="http://www.w3.org/1999/xlink" x="0px" y="0px" viewBox="0 0 32 32" enable-background="new 0 0 32 32" xml:space="preserve" width="32px" height="32px" fill="#333">
<ellipse transform="matrix(0.7071 -0.7071 0.7071 0.7071 -10.1188 14.5294)" fill="#ACACAC" cx="12.5" cy="19.5" rx="2.5" ry="2.5"/>
<path fill="#ACACAC" d="M5,19h2c0,3.3,2.7,6,6,6v2C8.6,27,5,23.4,5,19z"/>
<path fill="#ACACAC" d="M2,19h2c0,5,4,9,9,9v2C6.9,30,2,25.1,2,19z"/>
<polygon fill="#ACACAC" points="23,6 26,9 17,19 13,15 "/>
<polygon fill="#ACACAC" points="25,15 22,15 20,17 20,20 25,25 30,20 "/>
<circle fill="#E81309" cx="9.5" cy="9.5" r="7.5"/>
<polygon fill="#FFFFFF" points="13.4,6.4 12.6,5.6 9.5,8.8 6.4,5.6 5.6,6.4 8.8,9.5 5.6,12.6 6.4,13.4 9.5,10.2 12.6,13.4 
    13.4,12.6 10.2,9.5 "/>
</svg>