<?xml version="1.0" encoding="utf-8"?>
<!-- Generator: Adobe Illustrator 21.1.0, SVG Export Plug-In . SVG Version: 6.00 Build 0)  -->
<svg version="1.0" id="Layer_1" xmlns="http://www.w3.org/2000/svg" xmlns:xlink="http://www.w3.org/1999/xlink" x="0px" y="0px" viewBox="0 0 32 32" style="enable-background:new 0 0 32 32;" xml:space="preserve" width="32px" height="32px" fill="#333">
<style type="text/css">
	.primary{fill:#333333;}
</style>
<path class="primary" d="M27.975,25.352c0.6,0.284,1.091,0.7,1.472,1.247c0.381,0.547,0.57,1.174,0.57,1.886
	c0,0.474-0.09,0.922-0.272,1.342c-0.182,0.42-0.436,0.787-0.759,1.103c-0.324,0.316-0.704,0.566-1.141,0.749
	c-0.434,0.181-0.898,0.272-1.389,0.272c-0.57,0-1.099-0.126-1.59-0.379c-0.491-0.253-0.903-0.594-1.234-1.021H8.014
	c-0.332,0.426-0.744,0.767-1.234,1.021c-0.491,0.255-1.036,0.379-1.637,0.379c-0.491,0-0.95-0.091-1.377-0.272
	c-0.426-0.184-0.8-0.432-1.115-0.749c-0.316-0.316-0.567-0.684-0.748-1.103C1.719,29.407,1.63,28.96,1.63,28.484
	c0-0.712,0.186-1.344,0.558-1.898s0.866-0.966,1.482-1.234V6.648c-0.6-0.269-1.083-0.677-1.448-1.222
	C1.857,4.881,1.676,4.259,1.676,3.562c0-0.489,0.091-0.953,0.273-1.387C2.132,1.74,2.384,1.366,2.708,1.059
	c0.324-0.308,0.7-0.555,1.127-0.736C4.265,0.141,4.714,0.05,5.189,0.05c0.665,0,1.273,0.166,1.827,0.499
	C7.57,0.881,7.991,1.307,8.274,1.83h8.26c0.315-0.523,0.744-0.949,1.281-1.281c0.537-0.332,1.139-0.499,1.804-0.499
	c0.491,0,0.953,0.09,1.389,0.273c0.434,0.181,0.814,0.426,1.139,0.736c0.324,0.307,0.578,0.681,0.76,1.115
	c0.181,0.434,0.272,0.898,0.272,1.387c0,0.697-0.19,1.318-0.57,1.864c-0.379,0.547-0.87,0.953-1.472,1.222V9.07
	c0.6,0.3,1.091,0.728,1.472,1.28c0.379,0.555,0.57,1.173,0.57,1.852c0,0.252-0.028,0.503-0.083,0.748
	c-0.056,0.247-0.139,0.472-0.251,0.677l2.398,2.492c0.205-0.08,0.407-0.135,0.604-0.166c0.197-0.031,0.399-0.047,0.604-0.047
	c0.491,0,0.954,0.094,1.389,0.285c0.436,0.189,0.815,0.438,1.141,0.747c0.323,0.308,0.578,0.673,0.759,1.092
	c0.182,0.418,0.272,0.866,0.272,1.342c0,0.712-0.19,1.344-0.57,1.898c-0.379,0.537-0.87,0.95-1.472,1.234v2.847H27.975z
	 M23.11,27.56c0.126-0.508,0.357-0.95,0.689-1.33c0.331-0.379,0.736-0.673,1.209-0.878v-2.848c-0.6-0.284-1.095-0.7-1.482-1.247
	c-0.387-0.547-0.582-1.174-0.582-1.886c0-0.206,0.024-0.409,0.071-0.606c0.047-0.197,0.103-0.383,0.166-0.558l-2.516-2.658
	c-0.348,0.094-0.697,0.141-1.044,0.141c-0.491,0-0.949-0.094-1.377-0.284c-0.428-0.19-0.796-0.44-1.104-0.748
	c-0.308-0.308-0.558-0.677-0.748-1.104c-0.19-0.426-0.285-0.877-0.285-1.352c0-0.712,0.194-1.344,0.583-1.899
	c0.387-0.552,0.89-0.965,1.507-1.233V6.695c-0.426-0.174-0.8-0.43-1.115-0.771c-0.316-0.34-0.554-0.724-0.712-1.15H8.513
	c-0.174,0.426-0.428,0.81-0.76,1.15c-0.332,0.34-0.705,0.596-1.116,0.771v18.656c0.46,0.205,0.859,0.499,1.2,0.878
	c0.34,0.379,0.582,0.822,0.724,1.33H23.11V27.56z"/>
</svg>
