<?xml version="1.0" encoding="utf-8"?>
<!-- Generator: Adobe Illustrator 16.2.1, SVG Export Plug-In . SVG Version: 6.00 Build 0)  -->
<!DOCTYPE svg PUBLIC "-//W3C//DTD SVG 1.1//EN" "http://www.w3.org/Graphics/SVG/1.1/DTD/svg11.dtd">
<svg version="1.1" id="Layer_1" xmlns="http://www.w3.org/2000/svg" xmlns:xlink="http://www.w3.org/1999/xlink" x="0px" y="0px" viewBox="0 0 32 32" enable-background="new 0 0 32 32" xml:space="preserve" width="32px" height="32px" fill="#333">
<g>
	<circle fill="#69CCEF" cx="16" cy="15.999" r="16"/>
	<g>
		<path fill="#FFFFFF" d="M18.701,21.286h1.34c-1.133,2.418-2.717,3.627-4.752,3.627c-0.825,0-1.445-0.176-1.861-0.521
			c-0.417-0.346-0.625-0.855-0.625-1.537c0-0.4,0.173-1.098,0.519-2.1l1.594-4.584c0.124-0.352,0.186-0.584,0.186-0.688
			c0-0.109-0.024-0.188-0.073-0.234c-0.05-0.047-0.127-0.074-0.232-0.074c-0.452,0-0.982,0.578-1.594,1.729h-1.274
			c1.144-2.471,2.752-3.705,4.833-3.705c0.735,0,1.308,0.18,1.715,0.535c0.408,0.359,0.609,0.852,0.609,1.482
			c0,0.459-0.18,1.189-0.545,2.193l-1.539,4.197c-0.221,0.592-0.333,0.963-0.333,1.115c0,0.098,0.029,0.17,0.089,0.227
			c0.055,0.051,0.139,0.076,0.245,0.076c0.229,0,0.523-0.197,0.882-0.598C18.243,22.028,18.515,21.647,18.701,21.286z M20.932,8.19
			c0,0.566-0.204,1.053-0.61,1.461c-0.408,0.406-0.894,0.613-1.461,0.613c-0.567,0-1.056-0.207-1.462-0.613
			c-0.408-0.408-0.609-0.895-0.609-1.461c0-0.578,0.202-1.066,0.609-1.467c0.407-0.402,0.895-0.607,1.462-0.607
			c0.567,0,1.053,0.205,1.461,0.607C20.728,7.124,20.932,7.612,20.932,8.19z"/>
	</g>
</g>
</svg>
