 <svg version="1.0" id="Layer_1" xmlns="http://www.w3.org/2000/svg" xmlns:xlink="http://www.w3.org/1999/xlink" x="0px" y="0px" viewBox="0 0 32 32" style="enable-background:new 0 0 32 32;" xml:space="preserve"  width="32px" height="32px" fill="#333">
<style type="text/css">
	.primary{fill:#333333;}
</style>
<path class="primary" d="M21,5c-1.802,0-3.499,0.442-5,1.21C14.499,5.442,12.802,5,11,5C4.925,5,0,9.925,0,16s4.925,11,11,11
	c1.802,0,3.499-0.442,5-1.21c1.501,0.768,3.198,1.21,5,1.21c6.075,0,11-4.925,11-11S27.075,5,21,5z M19,16
	c0,2.525-1.173,4.773-3,6.24c-1.827-1.466-3-3.714-3-6.24s1.173-4.773,3-6.24C17.827,11.227,19,13.475,19,16z M3,16
	c0-4.418,3.582-8,8-8c0.746,0,1.465,0.11,2.15,0.301C11.204,10.285,10,13.001,10,16s1.204,5.715,3.15,7.699
	C12.465,23.89,11.746,24,11,24C6.582,24,3,20.418,3,16z M21,24c-0.746,0-1.465-0.11-2.15-0.301C20.796,21.715,22,18.999,22,16
	s-1.204-5.715-3.15-7.699C19.535,8.11,20.254,8,21,8c4.418,0,8,3.582,8,8S25.418,24,21,24z"/>
</svg>
