<?xml version="1.0" encoding="utf-8"?>
<!-- Generator: Adobe Illustrator 17.1.0, SVG Export Plug-In . SVG Version: 6.00 Build 0)  -->
<!DOCTYPE svg PUBLIC "-//W3C//DTD SVG 1.0//EN" "http://www.w3.org/TR/2001/REC-SVG-20010904/DTD/svg10.dtd">
<svg version="1.0" id="Layer_1" xmlns="http://www.w3.org/2000/svg" xmlns:xlink="http://www.w3.org/1999/xlink" x="0px" y="0px" viewBox="0 0 32 32" style="enable-background:new 0 0 32 32;" xml:space="preserve" width="32px" height="32px" fill="#333">
<g id="_x30__-_schedule_1_">
	<g>
		<path d="M27.419,28.36c0,0.944-0.772,1.717-1.717,1.717H6.329c-0.944,0-1.717-0.772-1.717-1.717V7.256
			c0-0.944,0.772-1.717,1.717-1.717h19.374c0.944,0,1.717,0.772,1.717,1.717V28.36z"/>
		<path style="fill:#FFFFFF;" d="M25.703,5.54c0.944,0,1.717,0.772,1.717,1.717V28.36c0,0.944-0.772,1.717-1.717,1.717H6.329
			c-0.944,0-1.717-0.772-1.717-1.717V7.256c0-0.944,0.772-1.717,1.717-1.717H25.703 M25.703,3.617H6.329
			c-2.007,0-3.64,1.633-3.64,3.64V28.36c0,2.007,1.633,3.64,3.64,3.64h19.374c2.007,0,3.64-1.633,3.64-3.64V7.256
			C29.343,5.249,27.71,3.617,25.703,3.617L25.703,3.617z"/>
	</g>
	<rect x="7.348" y="14.082" style="fill:#FFFFFF;" width="8.639px" height="1.923px"/>
	<rect x="7.348" y="18.955" style="fill:#FFFFFF;" width="8.639px" height="1.923px"/>
	<rect x="7.348" y="24.169" style="fill:#FFFFFF;" width="8.639px" height="1.923px"/>
	<g>
		<g>
			<path style="fill:#FFFFFF;" d="M18.568,17.845v-1.619c0.749-0.033,1.274-0.083,1.574-0.15c0.477-0.106,0.866-0.317,1.166-0.634
				c0.205-0.217,0.361-0.506,0.466-0.868c0.061-0.217,0.092-0.378,0.092-0.484h1.987v12.104h-2.437v-8.347H18.568z"/>
		</g>
	</g>
	<g>
		<path d="M21.36,8.966c-0.926,0-1.677-0.751-1.677-1.677V3.6c0-0.926,0.751-1.677,1.677-1.677c0.926,0,1.677,0.751,1.677,1.677
			v3.689C23.037,8.216,22.286,8.966,21.36,8.966z"/>
		<path style="fill:#FFFFFF;" d="M21.36,1.923c0.926,0,1.677,0.751,1.677,1.677v3.689c0,0.926-0.75,1.677-1.677,1.677
			c-0.926,0-1.677-0.751-1.677-1.677V3.6C19.683,2.674,20.434,1.923,21.36,1.923 M21.36,0c-1.985,0-3.6,1.615-3.6,3.6v3.689
			c0,1.985,1.615,3.6,3.6,3.6c1.985,0,3.6-1.615,3.6-3.6V3.6C24.96,1.615,23.345,0,21.36,0L21.36,0z"/>
	</g>
	<g>
		<path d="M10.613,8.966c-0.926,0-1.677-0.751-1.677-1.677V3.6c0-0.926,0.751-1.677,1.677-1.677c0.926,0,1.677,0.751,1.677,1.677
			v3.689C12.29,8.216,11.539,8.966,10.613,8.966z"/>
		<path style="fill:#FFFFFF;" d="M10.613,1.923c0.926,0,1.677,0.751,1.677,1.677v3.689c0,0.926-0.751,1.677-1.677,1.677
			c-0.926,0-1.677-0.751-1.677-1.677V3.6C8.936,2.674,9.687,1.923,10.613,1.923 M10.613,0c-1.985,0-3.6,1.615-3.6,3.6v3.689
			c0,1.985,1.615,3.6,3.6,3.6c1.985,0,3.6-1.615,3.6-3.6V3.6C14.213,1.615,12.598,0,10.613,0L10.613,0z"/>
	</g>
</g>
</svg>
