<?xml version="1.0" encoding="utf-8"?>
<!-- Generator: Adobe Illustrator 16.2.1, SVG Export Plug-In . SVG Version: 6.00 Build 0)  -->
<!DOCTYPE svg PUBLIC "-//W3C//DTD SVG 1.1//EN" "http://www.w3.org/Graphics/SVG/1.1/DTD/svg11.dtd">
<svg version="1.1" xmlns="http://www.w3.org/2000/svg" xmlns:xlink="http://www.w3.org/1999/xlink" x="0px" y="0px" viewBox="0 0 32 32" enable-background="new 0 0 32 32" xml:space="preserve" width="32px" height="32px" fill="#333">
<g id="Icons">
	<g>
		<path d="M24.562,3.532v23.8H7.456v-23.8H24.562z M22.313,25.083c0-0.838-0.083-1.608-0.248-2.312
			c-0.165-0.701-0.39-1.352-0.673-1.947s-0.605-1.143-0.965-1.639c-0.36-0.495-0.729-0.965-1.107-1.407s-0.752-0.856-1.124-1.239
			c-0.372-0.384-0.712-0.765-1.019-1.143c0.295-0.377,0.632-0.762,1.01-1.15c0.378-0.391,0.755-0.803,1.133-1.24
			c0.378-0.437,0.747-0.902,1.107-1.398c0.359-0.496,0.682-1.039,0.965-1.629c0.283-0.591,0.508-1.237,0.673-1.939
			c0.165-0.703,0.248-1.484,0.248-2.347H9.67c0,0.839,0.082,1.614,0.248,2.329c0.165,0.714,0.389,1.366,0.673,1.957
			c0.283,0.59,0.604,1.133,0.965,1.629c0.359,0.496,0.726,0.962,1.098,1.398c0.372,0.438,0.744,0.85,1.116,1.24
			c0.371,0.389,0.711,0.773,1.018,1.15c-0.295,0.378-0.632,0.759-1.009,1.143c-0.378,0.383-0.753,0.797-1.125,1.239
			s-0.738,0.912-1.098,1.407c-0.36,0.496-0.679,1.043-0.956,1.639c-0.278,0.596-0.502,1.246-0.673,1.947
			c-0.172,0.703-0.257,1.474-0.257,2.312H22.313z"/>
	</g>
</g>
</svg>
