<?xml version="1.0" encoding="utf-8"?>
<!-- Generator: Adobe Illustrator 19.1.0, SVG Export Plug-In . SVG Version: 6.00 Build 0)  -->
<!DOCTYPE svg PUBLIC "-//W3C//DTD SVG 1.0//EN" "http://www.w3.org/TR/2001/REC-SVG-20010904/DTD/svg10.dtd">
<svg version="1.0" id="Layer_1" xmlns="http://www.w3.org/2000/svg" xmlns:xlink="http://www.w3.org/1999/xlink" x="0px" y="0px" viewBox="0 0 32 32" enable-background="new 0 0 32 32" xml:space="preserve" width="32px" height="32px" fill="#333">
<path opacity="0.18" d="M16,30C8.3,30,2,23.7,2,16C2,8.3,8.3,2,16,2c7.7,0,14,6.3,14,14C30,23.7,23.7,30,16,30z
	 M16,6C10.5,6,6,10.5,6,16c0,5.5,4.5,10,10,10c5.5,0,10-4.5,10-10C26,10.5,21.5,6,16,6z"/>
<path d="M28,18c-1.2,0-2-1-2-2c0-5.4-4.4-10-10-10c-1,0-2-0.8-2-2s1-2,2-2c7.7,0,14,6.3,14,14C30,17,29.2,18,28,18z"/>
</svg>
