<?xml version="1.0" encoding="utf-8"?>
<!-- Generator: Adobe Illustrator 18.0.0, SVG Export Plug-In . SVG Version: 6.00 Build 0)  -->
<!DOCTYPE svg PUBLIC "-//W3C//DTD SVG 1.1//EN" "http://www.w3.org/Graphics/SVG/1.1/DTD/svg11.dtd">
<svg version="1.1" id="Layer_1" xmlns="http://www.w3.org/2000/svg" xmlns:xlink="http://www.w3.org/1999/xlink" x="0px" y="0px" viewBox="0 0 32 32" enable-background="new 0 0 32 32" xml:space="preserve" width="32px" height="32px" fill="#333">
<symbol id="generic-file" viewBox="-11 -14 22 28">
	<g>
		<polygon fill="#FFFFFF" points="-10.5,-13.5 -10.5,13.5 4.8,13.5 10.5,7.8 10.5,-13.5 		"/>
		<path fill="#333333" d="M4.6,13L10,7.6V-13h-20v26H4.6 M5,14h-16v-28h22V8L5,14L5,14z"/>
	</g>
	<polyline fill="none" stroke="#333333" stroke-miterlimit="10" points="11,7 4,7 4,14 	"/>
</symbol>
<symbol id="reports-color" viewBox="-12.1 -14.1 24 29">
	<path fill="#92755B" d="M11.9-10.8c0-1.8-1.5-3.3-3.3-3.3H-8.8c-1.8,0-3.3,1.5-3.3,3.3V8.5c0,1.8,1.5,3.3,3.3,3.3H8.5
		c1.8,0,3.3-1.5,3.3-3.3V-10.8z"/>
	<g>
		<polygon fill="#E3E3E3" points="-10.1,-12.1 -10.1,8.9 9.9,8.9 9.9,-8.1 5.9,-12.1 		"/>
	</g>
	<path fill="#ACACAC" d="M-3.1,11.9c-2.8-0.7-5-2.1-5-4h16c0,1.9-2.3,3.3-5,4"/>
	<path fill="#ACACAC" d="M2.9,11.9c0-1.7-1.3-3-3-3s-3,1.3-3,3s1.3,3,3,3S2.9,13.5,2.9,11.9z"/>
	<path fill="#FFFFFF" d="M1.9,11.9c0-1.1-0.9-2-2-2s-2,0.9-2,2s0.9,2,2,2S1.9,13,1.9,11.9z"/>
	<g>
		<path fill="#D3C88D" d="M6.5-1.1c0-3.7-3-6.6-6.6-6.6c-3.7,0-6.6,3-6.6,6.6c0,3.7,3,6.6,6.6,6.6C3.5,5.5,6.5,2.5,6.5-1.1z"/>
		<path fill="#EFAF13" d="M4.7-5.7l-4.8,4.6l3.4,5.7C3.3,4.6,9.5,0.6,4.7-5.7z"/>
		<g>
			<path fill="#E97B50" d="M-0.1-1.1l-2.9-6c0,0,4.9-1.9,7.7,1.4L-0.1-1.1z"/>
			<path fill="#505050" d="M5-5.9C6.1-4.7,6.9-3,6.9-1.1c0,3.9-3.1,7-7,7s-7-3.1-7-7s3.1-7,7-7C1.9-8.1,3.6-7.3,5-5.9
				C4.9-5.9,5-5.9,5-5.9L5-5.9z M6.1-1.1c0-1.5-0.6-3-1.5-4.1L2.3-2.9l-2,1.9L3.5,4C5.1,2.9,6.1,1,6.1-1.1z M-6.4-1.1
				c0,3.5,2.8,6.3,6.3,6.3c1.1,0,2.1-0.3,2.9-0.7l-3.2-5.4c0,0,0,0,0,0c0,0,0,0,0,0l-2.7-5.6C-5.1-5.5-6.4-3.5-6.4-1.1z M-2.5-6.9
				L-2.5-6.9L0-1.7l4.2-4C3-6.7,1.5-7.4-0.1-7.4C-1-7.4-1.8-7.2-2.5-6.9z"/>
		</g>
	</g>
	<polygon fill="#C6C6C6" points="1.9,-12.1 5.9,-12.1 5.9,-8.1 	"/>
	<polygon fill="#FFFFFF" points="5.9,-12.1 5.9,-8.1 9.9,-8.1 	"/>
	<polygon fill="#7F7F7F" points="7.9,7.4 -8.1,7.4 -8.1,7.9 7.9,7.9 	"/>
</symbol>
<use xlink:href="#reports-color" width="24px" height="29px" id="XMLID_5_" x="-12.1" y="-14.1" transform="matrix(1 0 0 -1 16.125 15.8804)" overflow="visible"/>
</svg>
