<?xml version="1.0" encoding="utf-8"?>
<!-- Generator: Adobe Illustrator 17.0.2, SVG Export Plug-In . SVG Version: 6.00 Build 0)  -->
<!DOCTYPE svg PUBLIC "-//W3C//DTD SVG 1.1//EN" "http://www.w3.org/Graphics/SVG/1.1/DTD/svg11.dtd">
<svg version="1.1" id="Layer_1" xmlns="http://www.w3.org/2000/svg" xmlns:xlink="http://www.w3.org/1999/xlink" x="0px" y="0px" viewBox="0 0 32 32" style="enable-background:new 0 0 32 32;" xml:space="preserve" width="32px" height="32px" fill="#333">
<g>
	<g>
		<path d="M31.729,30.881c0,0.615-0.5,1.119-1.111,1.119H1.407c-0.61,0-1.111-0.503-1.111-1.119c0,0-0.296-7.395-0.296-14.866
			C0,8.544,0.296,1.119,0.296,1.119C0.296,0.503,0.796,0,1.407,0h29.211c0.611,0,1.111,0.503,1.111,1.119
			c0,0,0.271,7.748,0.271,14.897C32,23.164,31.729,30.881,31.729,30.881z"/>
	</g>
	<g>
		<path style="fill:#FFFFFF;" d="M4.027,4.743v22.564h23.944l0.001-22.564H4.027z"/>
	</g>
	<g>
		<path d="M16.944,23.322c-0.776,0.078-1.542,0.047-2.295-0.091c-0.753-0.14-1.47-0.394-2.152-0.759
			c-1.506-0.776-2.652-1.93-3.437-3.459c-0.5-0.975-0.789-2.001-0.864-3.076c-0.095-1.014,0.022-2.027,0.355-3.041
			c0.298-0.945,0.768-1.823,1.407-2.636l-2.07-2.19l6.002,0.144l-0.132,6.064l-1.822-1.907c-0.146,0.212-0.277,0.433-0.387,0.663
			c-0.112,0.23-0.214,0.472-0.306,0.726c-0.207,0.657-0.281,1.326-0.221,2.008c0.059,0.679,0.246,1.325,0.559,1.934
			c0.243,0.473,0.551,0.9,0.925,1.281c0.374,0.379,0.803,0.692,1.287,0.939c0.92,0.498,1.917,0.682,2.992,0.552l0.233-0.045
			L16.944,23.322z M15.35,7.427c1.556-0.157,3.038,0.126,4.449,0.851c0.743,0.385,1.405,0.867,1.984,1.449
			c0.58,0.582,1.06,1.244,1.443,1.989c0.5,0.975,0.788,2.001,0.863,3.076c0.048,0.525,0.04,1.039-0.025,1.544
			c-0.064,0.505-0.174,1.004-0.33,1.497c-0.143,0.486-0.336,0.947-0.58,1.383c-0.245,0.436-0.52,0.853-0.826,1.253l2.08,2.211
			l-6.012-0.164l0.142-6.044l1.802,1.918c0.159-0.219,0.293-0.449,0.401-0.684c0.108-0.237,0.209-0.481,0.3-0.736
			c0.208-0.656,0.284-1.321,0.227-1.995c-0.056-0.674-0.245-1.323-0.565-1.945c-0.507-0.988-1.245-1.728-2.212-2.218
			c-0.464-0.239-0.949-0.407-1.458-0.502c-0.509-0.096-1.023-0.103-1.543-0.02l-0.213,0.033L15.35,7.427z"/>
	</g>
</g>
</svg>
