<?xml version="1.0" encoding="utf-8"?>
<!-- Generator: Adobe Illustrator 21.1.0, SVG Export Plug-In . SVG Version: 6.00 Build 0)  -->
<svg version="1.0" id="Layer_1" xmlns="http://www.w3.org/2000/svg" xmlns:xlink="http://www.w3.org/1999/xlink" x="0px" y="0px"
	 viewBox="0 0 32 32" style="enable-background:new 0 0 32 32;" xml:space="preserve" width="32px" height="32px" fill="#333">
<style type="text/css">
	.primary{fill:#333333;}
</style>
<path class="primary" d="M19.884,0C15.725,0,12.05,2.108,9.867,5.31l2.031,0.642c1.85-2.39,4.737-3.938,7.987-3.938
	c5.57,0,10.102,4.533,10.102,10.103c0,5.457-4.351,9.906-9.763,10.087v0.768v1.246C26.746,24.035,32,18.684,32,12.117
	C32,5.436,26.564,0,19.884,0z"/>
<path class="primary" d="M28.812,12.117c0-4.923-4.006-8.929-8.928-8.929c-2.717,0-5.15,1.223-6.789,3.143l2.116,0.669
	c1.233-1.127,2.87-1.82,4.672-1.82c3.831,0,6.937,3.106,6.937,6.937c0,3.716-2.924,6.741-6.596,6.919v1.993
	C24.988,20.849,28.812,16.926,28.812,12.117z"/>
<path class="primary" d="M25.393,12.117c0-3.038-2.472-5.509-5.509-5.509c-1.119,0-2.16,0.337-3.03,0.913l3.37,1.122
	c1.776,0.174,3.169,1.654,3.169,3.475c0,1.822-1.393,3.302-3.169,3.475v0.782v1.141v0.094C23.102,17.433,25.393,15.04,25.393,12.117
	z"/>
<polygon class="primary" points="0,9.319 0,11.377 19.224,11.377 19.224,9.319 9.612,6.278 "/>
<rect x="0" y="17.515" class="primary" width="19.224px" height="4.315px"/>
<rect x="0" y="12.376" class="primary" width="19.224px" height="4.139px"/>
<polygon class="primary" points="0,23.391 0,24.572 0,31.983 2.151,31.983 2.151,25.252 8.536,27.273 8.536,31.983 10.687,31.983 
	10.687,27.273 17.073,25.252 17.073,31.983 19.224,31.983 19.224,24.572 19.224,23.391 19.224,22.83 0,22.83 "/>
</svg>
