<?xml version="1.0" encoding="utf-8"?>
<!-- Generator: Adobe Illustrator 18.0.0, SVG Export Plug-In . SVG Version: 6.00 Build 0)  -->
<!DOCTYPE svg PUBLIC "-//W3C//DTD SVG 1.1//EN" "http://www.w3.org/Graphics/SVG/1.1/DTD/svg11.dtd">
<svg version="1.1" id="Layer_1" xmlns="http://www.w3.org/2000/svg" xmlns:xlink="http://www.w3.org/1999/xlink" x="0px" y="0px" viewBox="0 0 32 32" style="enable-background:new 0 0 32 32;" xml:space="preserve" width="32px" height="32px" fill="#333">
<path style="fill:#FFFFFF;" d="M19.142,11.753c0.677-3.114-0.186-6.495-2.607-8.916c-3.783-3.783-9.916-3.783-13.698,0
	s-3.783,9.916,0,13.698c2.553,2.553,6.174,3.375,9.423,2.483L14.202,21H19v4h4v4.869L24.709,32H32v-7.466L19.142,11.753z
	 M6.362,8.709c-1.381,0-2.5-1.119-2.5-2.5c0-1.381,1.119-2.5,2.5-2.5c1.381,0,2.5,1.119,2.5,2.5C8.862,7.59,7.743,8.709,6.362,8.709
	z"/>
</svg>
