<?xml version="1.0" encoding="utf-8"?>
<!-- Generator: Adobe Illustrator 16.2.1, SVG Export Plug-In . SVG Version: 6.00 Build 0)  -->
<!DOCTYPE svg PUBLIC "-//W3C//DTD SVG 1.1//EN" "http://www.w3.org/Graphics/SVG/1.1/DTD/svg11.dtd">
<svg version="1.1" xmlns="http://www.w3.org/2000/svg" xmlns:xlink="http://www.w3.org/1999/xlink" x="0px" y="0px" viewBox="0 0 32 32" enable-background="new 0 0 32 32" xml:space="preserve" width="32px" height="32px" fill="#333">
<g id="Font">
	<g>
		<path d="M16.018,4.2c1.098,0,2.154,0.139,3.17,0.416c1.015,0.277,1.965,0.679,2.851,1.204s1.686,1.145,2.399,1.859
			s1.334,1.514,1.859,2.399s0.927,1.836,1.204,2.851c0.277,1.016,0.416,2.072,0.416,3.17c0,1.098-0.139,2.151-0.416,3.161
			c-0.277,1.01-0.679,1.957-1.204,2.842c-0.525,0.886-1.146,1.688-1.859,2.408c-0.714,0.72-1.514,1.34-2.399,1.859
			c-0.886,0.52-1.836,0.921-2.851,1.205C18.172,27.858,17.115,28,16.018,28c-1.099,0-2.151-0.142-3.161-0.425
			c-1.01-0.284-1.957-0.685-2.842-1.205c-0.886-0.519-1.688-1.139-2.409-1.859c-0.72-0.72-1.34-1.522-1.859-2.408
			c-0.52-0.885-0.921-1.833-1.204-2.842c-0.283-1.009-0.425-2.063-0.425-3.161c0-1.098,0.142-2.154,0.425-3.17
			c0.283-1.015,0.685-1.966,1.204-2.851s1.14-1.685,1.859-2.399c0.721-0.714,1.523-1.334,2.409-1.859
			c0.885-0.525,1.832-0.927,2.842-1.204S14.919,4.2,16.018,4.2z M22.622,22.723c0.851-0.85,1.523-1.848,2.02-2.993
			c0.483-1.157,0.726-2.367,0.726-3.63c0-1.275-0.242-2.491-0.726-3.648c-0.484-1.133-1.157-2.119-2.02-2.958
			c-0.873-0.874-1.865-1.546-2.975-2.019C18.49,6.992,17.28,6.75,16.018,6.75c-1.264,0-2.479,0.242-3.648,0.726
			c-1.121,0.472-2.113,1.145-2.975,2.019c-0.425,0.437-0.809,0.903-1.151,1.399c-0.33,0.473-0.608,0.992-0.832,1.559
			c-0.496,1.157-0.75,2.373-0.762,3.648c0,1.287,0.254,2.497,0.762,3.63c0.236,0.567,0.52,1.098,0.85,1.594
			c0.331,0.496,0.709,0.962,1.134,1.399c0.873,0.862,1.865,1.522,2.975,1.983c1.169,0.484,2.385,0.732,3.648,0.744
			c1.263,0,2.473-0.248,3.63-0.744c0.566-0.236,1.095-0.519,1.585-0.85S22.186,23.148,22.622,22.723z M18.815,10.61
			c0.307,0.307,0.549,0.691,0.726,1.151c0.142,0.425,0.213,0.886,0.213,1.381c0,0.508-0.071,0.957-0.213,1.346
			c-0.13,0.401-0.33,0.75-0.602,1.044c-0.13,0.142-0.269,0.272-0.416,0.39c-0.148,0.118-0.316,0.219-0.505,0.301
			c-0.378,0.189-0.779,0.301-1.204,0.336l-0.089,1.789c0,0.094-0.089,0.177-0.266,0.248c-0.142,0.047-0.378,0.071-0.708,0.071
			h-0.514c-0.118-0.011-0.225-0.029-0.319-0.053c-0.094-0.036-0.153-0.065-0.177-0.089c-0.035-0.047-0.053-0.106-0.053-0.177
			l-0.089-2.161c-0.012-0.094-0.015-0.18-0.009-0.257c0.006-0.077,0.015-0.15,0.026-0.221c0.047-0.142,0.095-0.236,0.142-0.283
			c0.071-0.083,0.153-0.13,0.248-0.142c0.095-0.036,0.213-0.053,0.354-0.053h0.106c0.33,0,0.613-0.047,0.85-0.142
			c0.118-0.059,0.222-0.121,0.31-0.186c0.089-0.065,0.181-0.145,0.274-0.239c0.13-0.142,0.242-0.342,0.337-0.602
			c0.07-0.236,0.101-0.484,0.089-0.744c0-0.142-0.013-0.277-0.036-0.407s-0.047-0.26-0.07-0.39c-0.083-0.224-0.213-0.431-0.39-0.62
			c-0.153-0.166-0.366-0.307-0.638-0.425c-0.26-0.094-0.555-0.135-0.886-0.124c-0.283,0-0.555,0.024-0.814,0.071
			c-0.118,0.036-0.228,0.071-0.327,0.106c-0.101,0.036-0.198,0.077-0.292,0.124c-0.095,0.035-0.175,0.068-0.239,0.097
			c-0.065,0.03-0.121,0.062-0.168,0.098c-0.131,0.047-0.219,0.071-0.266,0.071c-0.036,0-0.077-0.006-0.124-0.018
			c-0.036-0.024-0.065-0.083-0.089-0.177c-0.012-0.036-0.023-0.077-0.035-0.124c-0.013-0.047-0.018-0.106-0.018-0.177
			c-0.013-0.071-0.021-0.144-0.027-0.221c-0.006-0.077-0.009-0.174-0.009-0.292c0-0.106,0.003-0.195,0.009-0.266
			s0.015-0.136,0.027-0.195c0.023-0.106,0.059-0.183,0.105-0.23c0.06-0.059,0.178-0.13,0.354-0.212
			c0.095-0.047,0.188-0.091,0.283-0.133c0.095-0.041,0.207-0.074,0.337-0.097c0.117-0.036,0.241-0.071,0.371-0.106
			s0.271-0.065,0.426-0.088c0.142-0.024,0.289-0.039,0.442-0.044s0.307-0.009,0.46-0.009c0.709,0,1.322,0.095,1.842,0.283
			C18.077,10.015,18.496,10.28,18.815,10.61z M16.778,19.89c0.106,0.106,0.178,0.248,0.213,0.425
			c0.035,0.189,0.053,0.401,0.053,0.638c0,0.26-0.018,0.472-0.053,0.637c-0.035,0.166-0.106,0.307-0.213,0.425
			c-0.094,0.095-0.224,0.166-0.389,0.212c-0.143,0.047-0.349,0.071-0.62,0.071s-0.484-0.023-0.638-0.071
			c-0.177-0.059-0.307-0.13-0.39-0.212c-0.095-0.094-0.165-0.236-0.212-0.425c-0.036-0.165-0.054-0.377-0.054-0.637
			c0-0.248,0.018-0.46,0.054-0.638c0.059-0.188,0.129-0.33,0.212-0.425c0.106-0.106,0.236-0.183,0.39-0.23
			c0.142-0.047,0.354-0.064,0.638-0.053c0.26,0,0.466,0.018,0.62,0.053C16.543,19.707,16.673,19.783,16.778,19.89z"/>
	</g>
</g>
<g id="Icons_1_" display="none">
	<g display="inline">
		<path fill="#000100" d="M16,0C7.163,0,0,7.164,0,16s7.164,16,16,16c8.837,0,16-7.164,16-16S24.836,0,16,0z M24.889,24.889
			c-1.156,1.156-2.5,2.063-3.997,2.696c-1.548,0.655-3.194,0.986-4.893,0.986c-1.698,0-3.344-0.332-4.892-0.986
			c-1.497-0.633-2.841-1.54-3.997-2.696c-1.156-1.155-2.062-2.5-2.696-3.997C3.76,19.345,3.428,17.699,3.428,16
			s0.332-3.345,0.986-4.893c0.633-1.497,1.54-2.841,2.696-3.997c1.156-1.156,2.5-2.063,3.997-2.696
			C12.655,3.76,14.301,3.429,16,3.429c1.699,0,3.345,0.332,4.893,0.986c1.497,0.633,2.841,1.54,3.997,2.696
			c1.156,1.155,2.062,2.5,2.696,3.997c0.654,1.548,0.986,3.194,0.986,4.893s-0.332,3.345-0.986,4.892
			C26.952,22.389,26.045,23.734,24.889,24.889z"/>
		<path fill="#000100" d="M17.039,21.106c-0.135-0.143-0.315-0.246-0.54-0.307c-0.225-0.062-0.501-0.092-0.829-0.092
			c-0.344,0-0.626,0.031-0.847,0.092c-0.221,0.061-0.399,0.164-0.534,0.307c-0.135,0.144-0.229,0.332-0.282,0.565
			s-0.08,0.521-0.08,0.865c0,0.336,0.026,0.618,0.08,0.847c0.053,0.229,0.147,0.414,0.282,0.553
			c0.135,0.139,0.313,0.239,0.534,0.301c0.221,0.061,0.503,0.092,0.847,0.092c0.327,0,0.604-0.031,0.829-0.092
			c0.225-0.062,0.405-0.162,0.54-0.301c0.135-0.139,0.229-0.323,0.283-0.553c0.053-0.229,0.08-0.511,0.08-0.847
			c0-0.344-0.027-0.632-0.08-0.865C17.268,21.438,17.174,21.25,17.039,21.106z"/>
		<path fill="#000100" d="M19.764,8.627c-0.438-0.45-1-0.808-1.688-1.074c-0.688-0.266-1.514-0.399-2.48-0.399
			c-0.426,0-0.835,0.033-1.228,0.098c-0.393,0.066-0.749,0.146-1.068,0.239c-0.319,0.094-0.594,0.197-0.823,0.307
			s-0.385,0.207-0.466,0.289c-0.082,0.082-0.135,0.188-0.16,0.319c-0.025,0.131-0.037,0.339-0.037,0.626
			c0,0.278,0.01,0.507,0.031,0.688s0.047,0.319,0.08,0.417c0.032,0.098,0.073,0.166,0.123,0.202c0.049,0.037,0.102,0.056,0.16,0.056
			c0.082,0,0.198-0.041,0.35-0.123c0.151-0.082,0.342-0.172,0.571-0.27c0.229-0.098,0.503-0.188,0.822-0.27
			c0.319-0.082,0.688-0.123,1.105-0.123c0.458,0,0.857,0.063,1.197,0.19c0.34,0.127,0.622,0.309,0.847,0.546s0.393,0.52,0.503,0.847
			s0.166,0.688,0.166,1.08c0,0.352-0.047,0.684-0.141,0.995s-0.244,0.581-0.448,0.81c-0.205,0.229-0.465,0.414-0.78,0.553
			s-0.689,0.208-1.124,0.208h-0.172c-0.18,0-0.335,0.019-0.466,0.055c-0.131,0.037-0.239,0.104-0.325,0.203
			s-0.146,0.229-0.178,0.393s-0.045,0.376-0.037,0.638l0.11,2.897c0.008,0.09,0.037,0.164,0.086,0.221
			c0.049,0.058,0.127,0.103,0.233,0.135c0.106,0.033,0.251,0.055,0.436,0.067s0.412,0.019,0.682,0.019
			c0.425,0,0.75-0.037,0.976-0.11c0.225-0.074,0.342-0.185,0.35-0.332l0.098-2.394c0.589-0.065,1.127-0.217,1.614-0.454
			s0.904-0.553,1.252-0.945c0.348-0.393,0.618-0.859,0.81-1.4c0.192-0.54,0.289-1.146,0.289-1.817c0-0.646-0.103-1.26-0.307-1.841
			C20.523,9.593,20.202,9.078,19.764,8.627z"/>
	</g>
</g>
</svg>
