<?xml version="1.0" encoding="utf-8"?>
<!-- Generator: Adobe Illustrator 16.2.1, SVG Export Plug-In . SVG Version: 6.00 Build 0)  -->
<!DOCTYPE svg PUBLIC "-//W3C//DTD SVG 1.1//EN" "http://www.w3.org/Graphics/SVG/1.1/DTD/svg11.dtd">
<svg version="1.1" xmlns="http://www.w3.org/2000/svg" xmlns:xlink="http://www.w3.org/1999/xlink" x="0px" y="0px" viewBox="0 0 32 32" enable-background="new 0 0 32 32" xml:space="preserve" width="32px" height="32px" fill="#333">
<g id="Icons">
	<g>
		<path d="M16.367,3.948c1.098,0,2.154,0.139,3.169,0.416c1.016,0.277,1.963,0.679,2.843,1.204c0.879,0.525,1.679,1.148,2.399,1.868
			c0.72,0.72,1.343,1.521,1.868,2.399c0.525,0.88,0.927,1.827,1.204,2.842c0.277,1.016,0.416,2.072,0.416,3.17
			c0,1.547-0.274,3.008-0.823,4.383c-0.549,1.376-1.311,2.595-2.284,3.657c-0.975,1.062-2.119,1.931-3.436,2.603
			c-1.316,0.674-2.73,1.08-4.241,1.223V12.501l5.472,5.525l1.594-1.576l-8.181-8.199L8.168,16.45l1.559,1.576l5.542-5.543v15.229
			c-1.003-0.095-1.969-0.311-2.895-0.646c-0.928-0.336-1.792-0.771-2.595-1.302s-1.532-1.153-2.187-1.868
			c-0.655-0.715-1.214-1.493-1.674-2.338c-0.461-0.844-0.817-1.746-1.071-2.709c-0.254-0.962-0.381-1.963-0.381-3.002
			c0-1.098,0.142-2.154,0.425-3.17c0.283-1.015,0.682-1.962,1.195-2.842c0.514-0.879,1.134-1.68,1.859-2.399
			c0.727-0.72,1.529-1.343,2.408-1.868c0.88-0.525,1.824-0.927,2.834-1.204C14.197,4.087,15.257,3.948,16.367,3.948z"/>
	</g>
</g>
</svg>
