<?xml version="1.0" encoding="utf-8"?>
<!-- Generator: Adobe Illustrator 19.0.0, SVG Export Plug-In . SVG Version: 6.00 Build 0)  -->
<svg version="1.0" id="Layer_1" xmlns="http://www.w3.org/2000/svg" xmlns:xlink="http://www.w3.org/1999/xlink" x="0px" y="0px" viewBox="0 0 32 32" style="enable-background:new 0 0 32 32;" xml:space="preserve" width="32px" height="32px" fill="#333">
<style type="text/css">
	.primary{fill:#333333;}
</style>
<path class="primary" d="M31.39,5.764L26.236,0.61c-0.48-0.479-1.26-0.479-1.74,0L0.609,24.497c-0.479,0.48-0.479,1.261,0.001,1.74
	l5.153,5.153c0.24,0.24,0.555,0.36,0.87,0.36s0.63-0.12,0.87-0.36L31.39,7.504l0.001,0C31.869,7.023,31.869,6.243,31.39,5.764z
	 M6.634,30.139l-4.772-4.772l1.091-1.091L4.8,26.123c0.188,0.188,0.492,0.188,0.68,0c0.188-0.188,0.188-0.492,0-0.68l-1.848-1.848
	l1.359-1.359l1.848,1.848c0.188,0.188,0.492,0.188,0.68,0c0.188-0.188,0.188-0.492,0-0.68L5.67,21.557l1.359-1.359l2.867,2.867
	c0.188,0.188,0.492,0.188,0.68,0c0.188-0.188,0.188-0.492,0-0.68l-2.867-2.867l1.359-1.359l1.848,1.848
	c0.188,0.188,0.492,0.188,0.68,0c0.188-0.188,0.188-0.492,0-0.68L9.747,17.48l1.359-1.359l1.848,1.848
	c0.188,0.188,0.492,0.188,0.68,0c0.188-0.188,0.188-0.492,0-0.68l-1.848-1.848l1.359-1.359l2.867,2.867
	c0.188,0.188,0.492,0.188,0.68,0c0.188-0.188,0.188-0.492,0-0.68l-2.867-2.867l1.359-1.359l1.848,1.848
	c0.188,0.188,0.492,0.188,0.68,0c0.188-0.188,0.188-0.492,0-0.68l-1.848-1.848l1.359-1.359l1.848,1.848
	c0.188,0.188,0.492,0.188,0.68,0c0.188-0.188,0.188-0.492,0-0.68l-1.848-1.848l1.359-1.359l2.867,2.867
	c0.188,0.188,0.492,0.188,0.68,0c0.188-0.188,0.188-0.492,0-0.68l-2.867-2.867l1.218-1.218l1.848,1.848
	c0.188,0.188,0.492,0.188,0.68,0c0.188-0.188,0.188-0.492,0-0.68l-1.848-1.848l1.359-1.359l1.848,1.848
	c0.188,0.188,0.492,0.188,0.68,0c0.188-0.188,0.188-0.492,0-0.68L23.877,3.35l1.489-1.489l4.772,4.772L6.634,30.139z"/>
</svg>
