<?xml version="1.0" encoding="utf-8"?>
<!-- Generator: Adobe Illustrator 16.2.1, SVG Export Plug-In . SVG Version: 6.00 Build 0)  -->
<!DOCTYPE svg PUBLIC "-//W3C//DTD SVG 1.1//EN" "http://www.w3.org/Graphics/SVG/1.1/DTD/svg11.dtd">
<svg version="1.1" xmlns="http://www.w3.org/2000/svg" xmlns:xlink="http://www.w3.org/1999/xlink" x="0px" y="0px" viewBox="0 0 32 32" enable-background="new 0 0 32 32" xml:space="preserve" width="32px" height="32px" fill="#333">
<g id="Font">
	<g>
		<path d="M29.532,14.053c0.366,1.229,0.549,2.521,0.549,3.879c0,0.968-0.095,1.906-0.283,2.815
			c-0.189,0.909-0.458,1.776-0.806,2.603c-0.349,0.826-0.776,1.618-1.284,2.373c-0.508,0.756-1.074,1.452-1.7,2.09l-4.374-1.7
			c0.012-0.035,0.03-0.071,0.054-0.106c0.271-0.648,0.425-1.334,0.46-2.054l3.205,1.239c0.638-0.814,1.169-1.717,1.594-2.709
			c0.614-1.476,0.921-2.992,0.921-4.551c0-0.225-0.009-0.452-0.026-0.682c-0.018-0.23-0.038-0.458-0.062-0.682L24.857,17.1
			l-0.39-2.179l2.868-0.514c-0.059-0.177-0.121-0.349-0.186-0.514c-0.065-0.165-0.133-0.337-0.204-0.513
			c-0.295-0.697-0.649-1.355-1.062-1.975c-0.413-0.62-0.891-1.195-1.434-1.727c-1.099-1.099-2.338-1.931-3.719-2.498
			c-0.556-0.235-1.119-0.424-1.691-0.566c-0.573-0.141-1.154-0.241-1.744-0.301v2.957h-2.214V6.314
			c-0.602,0.06-1.187,0.16-1.753,0.301c-0.566,0.143-1.128,0.331-1.683,0.566c-1.381,0.579-2.62,1.412-3.719,2.498
			c-0.543,0.531-1.021,1.106-1.435,1.727c-0.413,0.619-0.772,1.277-1.08,1.975c-0.07,0.176-0.136,0.348-0.194,0.513
			c-0.06,0.165-0.112,0.331-0.159,0.496l2.922,0.531L7.574,17.1l-2.993-0.531c-0.023,0.224-0.041,0.448-0.053,0.672
			c-0.013,0.225-0.018,0.455-0.018,0.691c0,1.322,0.212,2.6,0.637,3.834c0.426,1.233,1.039,2.375,1.842,3.426l3.241-1.239
			c0.035,0.72,0.188,1.405,0.46,2.054l0.053,0.089L6.37,27.812c-0.626-0.638-1.193-1.334-1.7-2.09
			c-0.508-0.755-0.936-1.547-1.284-2.373s-0.617-1.693-0.806-2.603c-0.189-0.909-0.283-1.848-0.283-2.815
			c0-1.275,0.165-2.503,0.496-3.684c0.33-1.181,0.799-2.287,1.407-3.32s1.334-1.972,2.179-2.816c0.844-0.844,1.779-1.563,2.807-2.16
			c1.026-0.596,2.131-1.062,3.312-1.398c1.18-0.336,2.414-0.505,3.701-0.505c1.569,0,3.069,0.251,4.497,0.753
			c1.429,0.502,2.728,1.195,3.896,2.08c1.169,0.886,2.178,1.937,3.028,3.152c0.85,1.217,1.487,2.545,1.912,3.984V14.053z
			 M20.271,21.207c0.225,0.354,0.398,0.738,0.522,1.151s0.187,0.856,0.187,1.328c0,0.661-0.124,1.281-0.372,1.859
			c-0.248,0.579-0.591,1.083-1.027,1.515c-0.437,0.431-0.944,0.772-1.522,1.026c-0.579,0.254-1.199,0.381-1.859,0.381
			c-0.662,0-1.281-0.127-1.859-0.381c-0.579-0.254-1.084-0.596-1.515-1.026c-0.431-0.432-0.771-0.936-1.019-1.515
			c-0.247-0.578-0.371-1.198-0.371-1.859c0-0.649,0.12-1.263,0.362-1.842c0.242-0.578,0.576-1.083,1.001-1.515
			c0.425-0.43,0.924-0.772,1.496-1.026s1.184-0.381,1.833-0.381l6.393-8.5L20.271,21.207z"/>
	</g>
</g>
</svg>
