<?xml version="1.0" encoding="utf-8"?>
<!-- Generator: Adobe Illustrator 16.2.1, SVG Export Plug-In . SVG Version: 6.00 Build 0)  -->
<!DOCTYPE svg PUBLIC "-//W3C//DTD SVG 1.1//EN" "http://www.w3.org/Graphics/SVG/1.1/DTD/svg11.dtd">
<svg version="1.1" xmlns="http://www.w3.org/2000/svg" xmlns:xlink="http://www.w3.org/1999/xlink" x="0px" y="0px" viewBox="0 0 32 32" enable-background="new 0 0 32 32" xml:space="preserve" width="32px" height="32px" fill="#333">
<g id="Font">
	<g>
		<path d="M16,28c-1.099,0-2.155-0.142-3.17-0.425c-1.016-0.284-1.963-0.685-2.843-1.205c-0.879-0.519-1.682-1.142-2.408-1.868
			c-0.726-0.726-1.346-1.529-1.859-2.408s-0.912-1.824-1.195-2.833C4.241,18.251,4.1,17.198,4.1,16.1
			c0-1.098,0.142-2.154,0.425-3.17c0.283-1.015,0.682-1.962,1.195-2.842c0.514-0.879,1.134-1.679,1.859-2.399
			c0.727-0.72,1.529-1.343,2.408-1.868c0.88-0.525,1.824-0.927,2.834-1.204C13.83,4.339,14.89,4.2,16,4.2
			c1.098,0,2.154,0.139,3.169,0.416c1.016,0.277,1.963,0.679,2.843,1.204c0.879,0.525,1.679,1.148,2.399,1.868
			c0.72,0.72,1.343,1.52,1.868,2.399c0.525,0.88,0.927,1.827,1.204,2.842c0.277,1.016,0.416,2.072,0.416,3.17
			c0,1.098-0.139,2.151-0.416,3.161c-0.277,1.01-0.679,1.954-1.204,2.833s-1.148,1.682-1.868,2.408
			c-0.721,0.726-1.521,1.349-2.399,1.868c-0.88,0.52-1.827,0.921-2.843,1.205C18.154,27.858,17.098,28,16,28z M9.359,9.477
			c-0.426,0.449-0.81,0.921-1.151,1.417c-0.331,0.473-0.608,0.992-0.832,1.559c-0.473,1.157-0.715,2.373-0.727,3.648
			c0,0.626,0.06,1.243,0.178,1.851c0.117,0.608,0.301,1.201,0.549,1.779c0.235,0.567,0.522,1.095,0.858,1.585
			c0.337,0.49,0.711,0.954,1.125,1.39c0.885,0.897,1.889,1.559,3.01,1.983c0.567,0.26,1.151,0.452,1.753,0.576
			c0.603,0.124,1.229,0.186,1.878,0.186c0.625,0,1.242-0.062,1.851-0.186c0.607-0.124,1.206-0.316,1.797-0.576
			c0.543-0.224,1.065-0.501,1.567-0.832s0.959-0.714,1.372-1.151c0.425-0.437,0.806-0.9,1.143-1.39
			c0.336-0.49,0.629-1.018,0.876-1.585c0.248-0.578,0.435-1.171,0.559-1.779s0.186-1.225,0.186-1.851
			c0-0.625-0.065-1.243-0.194-1.851c-0.131-0.608-0.313-1.207-0.55-1.797c-0.247-0.567-0.54-1.095-0.876-1.585
			c-0.337-0.49-0.718-0.953-1.143-1.39c-0.425-0.425-0.885-0.803-1.381-1.133c-0.496-0.342-1.016-0.625-1.559-0.85
			c-0.591-0.259-1.187-0.448-1.788-0.566C17.257,6.809,16.637,6.75,16,6.75c-0.649,0-1.275,0.062-1.878,0.186
			c-0.602,0.124-1.186,0.31-1.753,0.558c-0.566,0.225-1.101,0.505-1.603,0.841S9.796,9.052,9.359,9.477z M15.964,21.837
			c-0.46,0-0.779-0.064-0.956-0.195c-0.07-0.094-0.127-0.209-0.168-0.345c-0.042-0.136-0.062-0.304-0.062-0.505
			c0-0.224,0.021-0.404,0.062-0.54c0.041-0.135,0.109-0.25,0.203-0.345c0.166-0.165,0.484-0.248,0.957-0.248
			c0.472,0,0.79,0.083,0.956,0.248c0.153,0.154,0.23,0.437,0.23,0.85c0,0.39-0.089,0.673-0.266,0.85
			C16.755,21.761,16.437,21.837,15.964,21.837z M15.149,17.694c-0.035-0.023-0.067-0.042-0.098-0.053
			c-0.029-0.012-0.056-0.029-0.079-0.053c-0.023-0.023-0.035-0.044-0.035-0.062c0-0.018,0-0.038,0-0.062v-7.402
			c0-0.023,0-0.05,0-0.08s0.012-0.056,0.035-0.08c0.023-0.023,0.053-0.041,0.089-0.053c0.035-0.012,0.064-0.029,0.088-0.053
			c0.06-0.023,0.115-0.038,0.168-0.044c0.054-0.006,0.109-0.009,0.169-0.009c0.059,0,0.127-0.006,0.203-0.018
			c0.077-0.012,0.169-0.018,0.274-0.018c0.118,0,0.216,0.006,0.293,0.018c0.076,0.012,0.144,0.018,0.203,0.018
			c0.083,0,0.147,0.006,0.195,0.018c0.047,0,0.1,0.012,0.159,0.036c0.094,0.047,0.153,0.083,0.177,0.106
			c0.023,0.024,0.032,0.051,0.026,0.08s-0.009,0.056-0.009,0.08v7.402c0,0.024,0,0.042,0,0.053c0.012,0.024,0.006,0.047-0.018,0.071
			c-0.023,0.024-0.083,0.059-0.177,0.106c-0.106,0.047-0.225,0.071-0.354,0.071c-0.07,0.024-0.139,0.035-0.203,0.035
			c-0.065,0-0.163,0-0.293,0c-0.105,0-0.197,0-0.274,0c-0.076,0-0.145-0.011-0.203-0.035C15.368,17.765,15.256,17.741,15.149,17.694
			z"/>
	</g>
</g>
</svg>
