<?xml version="1.0" encoding="utf-8"?>
<!-- Generator: Adobe Illustrator 19.0.0, SVG Export Plug-In . SVG Version: 6.00 Build 0)  -->
<svg version="1.0" id="Layer_1" xmlns="http://www.w3.org/2000/svg" xmlns:xlink="http://www.w3.org/1999/xlink" x="0px" y="0px" viewBox="0 0 32 32" style="enable-background:new 0 0 32 32;" xml:space="preserve" width="32px" height="32px" fill="#333">
<style type="text/css">
	.primary{fill:#333333;}
</style>
<path id="soil-drainage" class="primary" d="M15.384,31.999c-0.651-0.04-1.287-0.144-1.903-0.305l5.47-9.474
	c0.187-0.323,0.079-0.752-0.25-0.942c-0.331-0.191-0.75-0.076-0.941,0.254l-5.607,9.712c-0.555-0.232-1.088-0.512-1.596-0.836
	l4.728-8.189c0.187-0.323,0.079-0.752-0.25-0.942c-0.331-0.191-0.75-0.076-0.941,0.254l-4.654,8.06
	c-0.452-0.376-0.877-0.79-1.272-1.238l3.542-6.135c0.187-0.323,0.079-0.752-0.25-0.942c-0.331-0.191-0.75-0.076-0.941,0.254
	l-3.263,5.651C5.841,25.114,5,22.528,5,19.722C5,12.93,16,0.001,16,0.001s11,12.93,11,19.721c0,6.419-4.399,11.688-10.011,12.247
	l5.629-9.749c0.187-0.323,0.079-0.752-0.25-0.942c-0.331-0.191-0.75-0.076-0.941,0.254L15.384,31.999L15.384,31.999z"/>
</svg>
