<?xml version="1.0" encoding="utf-8"?>
<!-- Generator: Adobe Illustrator 19.0.0, SVG Export Plug-In . SVG Version: 6.00 Build 0)  -->
<svg version="1.0" id="Layer_1" xmlns="http://www.w3.org/2000/svg" xmlns:xlink="http://www.w3.org/1999/xlink" x="0px" y="0px" viewBox="0 0 32 32" style="enable-background:new 0 0 32 32;" xml:space="preserve" width="32px" height="32px" fill="#333">

<style type="text/css">
	.primary{fill:#333333;}
</style>
<g id="XMLID_1_">
	<g id="XMLID_93_">
		<path id="XMLID_97_" class="primary" d="M25.333,2c0-0.368-0.298-0.667-0.667-0.667C24.298,1.333,24,1.632,24,2v8.303
			c-1.539-2.156-3.923-3.661-6.667-4.036V1.333C17.333,0.597,16.736,0,16,0c-0.736,0-1.333,0.597-1.333,1.333v4.934
			C11.923,6.642,9.539,8.147,8,10.303V2c0-0.368-0.299-0.667-0.667-0.667C6.965,1.333,6.667,1.632,6.667,2v10.923
			c-0.32,0.969-0.5,2.002-0.5,3.077c0,1.075,0.18,2.108,0.5,3.077V30c0,0.368,0.298,0.667,0.667,0.667C7.701,30.666,8,30.368,8,30
			v-8.303c1.539,2.155,3.923,3.66,6.667,4.035v4.935C14.667,31.403,15.264,32,16,32c0.736,0,1.333-0.597,1.333-1.333v-4.935
			c2.744-0.375,5.127-1.88,6.667-4.036V30c0,0.368,0.298,0.667,0.667,0.667c0.368,0,0.667-0.298,0.667-0.667V19.076
			c0.32-0.969,0.5-2.001,0.5-3.076c0-1.075-0.18-2.107-0.5-3.076V2z M24,19.72c-1.227,2.627-3.705,4.549-6.667,5.001
			c-0.436,0.066-0.879,0.112-1.333,0.112s-0.897-0.045-1.333-0.112c-2.961-0.452-5.439-2.373-6.667-5
			C7.471,18.588,7.167,17.33,7.167,16c0-1.331,0.304-2.589,0.833-3.721c1.227-2.627,3.705-4.549,6.667-5
			C15.103,7.212,15.546,7.166,16,7.166s0.897,0.045,1.333,0.112c2.962,0.452,5.44,2.374,6.667,5.001
			c0.529,1.133,0.833,2.39,0.833,3.72C24.833,17.33,24.529,18.587,24,19.72z"/>
		<polygon id="XMLID_96_" class="primary" points="15.95,9.333 14.667,12.369 10.876,21.333 14.667,19.977 15.95,19.518 
			17.333,20.016 20.988,21.333 17.333,12.627 		"/>
		<path id="XMLID_95_" class="primary" d="M31.333,5.333c-0.368,0-0.667,0.298-0.667,0.667v21.333c0,0.368,0.299,0.667,0.667,0.667
			S32,27.701,32,27.333V6C32,5.632,31.701,5.333,31.333,5.333z"/>
		<path id="XMLID_94_" class="primary" d="M0.667,4C0.298,4,0,4.298,0,4.666V26c0,0.368,0.298,0.667,0.667,0.667
			c0.368,0,0.667-0.298,0.667-0.667V4.666C1.333,4.298,1.035,4,0.667,4z"/>
	</g>
	<g id="XMLID_86_">
		<path id="XMLID_90_" class="primary" d="M25.333,2c0-0.368-0.298-0.667-0.667-0.667C24.298,1.333,24,1.632,24,2v8.303
			c-1.539-2.156-3.923-3.661-6.667-4.036V1.333C17.333,0.597,16.736,0,16,0c-0.736,0-1.333,0.597-1.333,1.333v4.934
			C11.923,6.642,9.539,8.147,8,10.303V2c0-0.368-0.299-0.667-0.667-0.667C6.965,1.333,6.667,1.632,6.667,2v10.923
			c-0.32,0.969-0.5,2.002-0.5,3.077c0,1.075,0.18,2.108,0.5,3.077V30c0,0.368,0.298,0.667,0.667,0.667C7.701,30.666,8,30.368,8,30
			v-8.303c1.539,2.155,3.923,3.66,6.667,4.035v4.935C14.667,31.403,15.264,32,16,32c0.736,0,1.333-0.597,1.333-1.333v-4.935
			c2.744-0.375,5.127-1.88,6.667-4.036V30c0,0.368,0.298,0.667,0.667,0.667c0.368,0,0.667-0.298,0.667-0.667V19.076
			c0.32-0.969,0.5-2.001,0.5-3.076c0-1.075-0.18-2.107-0.5-3.076V2z M24,19.72c-1.227,2.627-3.705,4.549-6.667,5.001
			c-0.436,0.066-0.879,0.112-1.333,0.112s-0.897-0.045-1.333-0.112c-2.961-0.452-5.439-2.373-6.667-5
			C7.471,18.588,7.167,17.33,7.167,16c0-1.331,0.304-2.589,0.833-3.721c1.227-2.627,3.705-4.549,6.667-5
			C15.103,7.212,15.546,7.166,16,7.166s0.897,0.045,1.333,0.112c2.962,0.452,5.44,2.374,6.667,5.001
			c0.529,1.133,0.833,2.39,0.833,3.72C24.833,17.33,24.529,18.587,24,19.72z"/>
		<polygon id="XMLID_89_" class="primary" points="15.95,9.333 14.667,12.369 10.876,21.333 14.667,19.977 15.95,19.518 
			17.333,20.016 20.988,21.333 17.333,12.627 		"/>
		<path id="XMLID_88_" class="primary" d="M31.333,5.333c-0.368,0-0.667,0.298-0.667,0.667v21.333c0,0.368,0.299,0.667,0.667,0.667
			S32,27.701,32,27.333V6C32,5.632,31.701,5.333,31.333,5.333z"/>
		<path id="XMLID_87_" class="primary" d="M0.667,4C0.298,4,0,4.298,0,4.666V26c0,0.368,0.298,0.667,0.667,0.667
			c0.368,0,0.667-0.298,0.667-0.667V4.666C1.333,4.298,1.035,4,0.667,4z"/>
	</g>
</g>
</svg>
