<?xml version="1.0" encoding="utf-8"?>
<!-- Generator: Adobe Illustrator 19.0.0, SVG Export Plug-In . SVG Version: 6.00 Build 0)  -->
<!DOCTYPE svg PUBLIC "-//W3C//DTD SVG 1.1//EN" "http://www.w3.org/Graphics/SVG/1.1/DTD/svg11.dtd">
<svg version="1.1" id="Layer_1" xmlns="http://www.w3.org/2000/svg" xmlns:xlink="http://www.w3.org/1999/xlink" x="0px" y="0px" viewBox="0 0 32 32" enable-background="new 0 0 32 32" xml:space="preserve" width="32px" height="32px" fill="#333">
<g id="XMLID_8_">
    <path id="XMLID_9_" fill="#D9D8CF" d="M28.8,15.4L24,13V7.8c0-0.3-0.1-0.6-0.2-0.8L22,10.4V13c0,0.7,0.5,1.4,1.2,1.7l4.8,2.4V27
        H13.9L13,28.9c0.2,0.1,0.4,0.1,0.6,0.1h14.5c1.1,0,1.9-0.8,1.9-1.9v-10C30,16.4,29.5,15.7,28.8,15.4z"/>
    <path id="XMLID_260_" fill="#D9D8CF" d="M9.6,16.3c0.6,0,1.2-0.1,1.8-0.2l1.4-2.8c-0.9,0.7-2,1.1-3.2,1.1c-2.9,0-5.2-2.3-5.2-5.2
        C4.4,6.3,6.7,4,9.6,4s5.2,2.3,5.2,5.2c0,0,0,0.1,0,0.1l1.4-2.8c-1.1-2.6-3.6-4.5-6.6-4.5c-3.9,0-7.1,3.2-7.1,7.1
        c0,2.8,1.6,5.2,3.9,6.4L2,24.3l1.7,0.9l4.5-9C8.7,16.3,9.1,16.3,9.6,16.3z"/>
    <polygon id="XMLID_6_" fill="#D93C40" points="25,1 21,1 6,31 10,31  "/>
    <polygon id="XMLID_75_" fill="#D9D8CF" points="24,13 22,13 14,29 16,29  "/>
    <polygon id="XMLID_76_" fill="#D9D8CF" points="27,14.8 25,14.8 17.9,29 19.9,29  "/>
    <polygon id="XMLID_77_" fill="#D9D8CF" points="29.9,17 28.1,16.6 21.9,28.9 23.9,28.9    "/>
</g>
</svg>
