<?xml version="1.0" encoding="utf-8"?>
<!-- Generator: Adobe Illustrator 16.2.1, SVG Export Plug-In . SVG Version: 6.00 Build 0)  -->
<!DOCTYPE svg PUBLIC "-//W3C//DTD SVG 1.1//EN" "http://www.w3.org/Graphics/SVG/1.1/DTD/svg11.dtd">
<svg version="1.1" xmlns="http://www.w3.org/2000/svg" xmlns:xlink="http://www.w3.org/1999/xlink" x="0px" y="0px" viewBox="0 0 32 32" enable-background="new 0 0 32 32" xml:space="preserve" width="32px" height="32px" fill="#333">
<g id="Font">
	<g>
		<path d="M16,4.2c1.098,0,2.154,0.139,3.169,0.416c1.016,0.277,1.963,0.679,2.843,1.204c0.879,0.525,1.679,1.148,2.399,1.868
			c0.72,0.72,1.343,1.521,1.868,2.399c0.525,0.88,0.927,1.827,1.204,2.842c0.277,1.016,0.416,2.072,0.416,3.17
			s-0.139,2.152-0.416,3.161c-0.277,1.01-0.679,1.954-1.204,2.833c-0.525,0.88-1.148,1.683-1.868,2.408
			c-0.721,0.727-1.521,1.35-2.399,1.869c-0.88,0.52-1.827,0.92-2.843,1.204C18.154,27.858,17.098,28,16,28
			c-1.099,0-2.155-0.142-3.17-0.425c-1.016-0.284-1.963-0.685-2.843-1.204c-0.879-0.52-1.682-1.143-2.408-1.869
			c-0.726-0.726-1.346-1.528-1.859-2.408c-0.514-0.879-0.912-1.823-1.195-2.833C4.241,18.252,4.1,17.197,4.1,16.1
			s0.142-2.154,0.425-3.17c0.283-1.015,0.682-1.962,1.195-2.842c0.514-0.879,1.134-1.68,1.859-2.399
			c0.727-0.72,1.529-1.343,2.408-1.868c0.88-0.525,1.824-0.927,2.834-1.204C13.83,4.339,14.89,4.2,16,4.2z M17.292,25.344
			c1.027-0.142,1.995-0.443,2.904-0.903s1.715-1.042,2.417-1.744c0.703-0.702,1.284-1.508,1.745-2.417
			c0.46-0.909,0.755-1.883,0.885-2.922h-4.215v-2.551h4.215c-0.142-1.026-0.445-1.992-0.912-2.895
			c-0.466-0.903-1.048-1.703-1.744-2.399s-1.496-1.278-2.399-1.745c-0.903-0.466-1.868-0.77-2.896-0.911v4.214h-2.55V6.856
			c-1.039,0.13-2.013,0.425-2.922,0.886c-0.909,0.46-1.718,1.041-2.426,1.744c-0.708,0.702-1.296,1.508-1.762,2.417
			c-0.467,0.909-0.771,1.877-0.912,2.903h4.285v2.551H6.721c0.142,1.039,0.445,2.013,0.912,2.922
			c0.466,0.909,1.054,1.718,1.762,2.426c0.708,0.709,1.517,1.296,2.426,1.762c0.909,0.467,1.883,0.771,2.922,0.912v-4.285h2.55
			V25.344z"/>
	</g>
</g>
</svg>
