<?xml version="1.0" encoding="utf-8"?>
<!-- Generator: Adobe Illustrator 16.2.1, SVG Export Plug-In . SVG Version: 6.00 Build 0)  -->
<!DOCTYPE svg PUBLIC "-//W3C//DTD SVG 1.1//EN" "http://www.w3.org/Graphics/SVG/1.1/DTD/svg11.dtd">
<svg version="1.1" xmlns="http://www.w3.org/2000/svg" xmlns:xlink="http://www.w3.org/1999/xlink" x="0px" y="0px" viewBox="0 0 32 32" enable-background="new 0 0 32 32" xml:space="preserve" width="32px" height="32px" fill="#333">
<g id="Font">
	<g>
		<path d="M2.657,4.2h20.312v1.505h-2.055v2.019h-1.522V5.705h-6.835v20.808h6.835v-2.054h1.522v2.054h2.055V28H2.657V4.2z
			 M11.016,26.513V5.705H4.18v20.808H11.016z M20.914,9.955v4.905h-1.522V9.955H20.914z M19.392,22.121v-4.887h1.522v4.887H19.392z
			 M25.714,4.2h3.577v3.524H27.75V5.705h-2.036V4.2z M27.75,26.513v-2.054h1.541V28h-3.577v-1.487H27.75z M27.75,14.86V9.955h1.541
			v4.905H27.75z M27.75,22.121v-4.887h1.541v4.887H27.75z"/>
	</g>
</g>
</svg>
