<?xml version="1.0" encoding="utf-8"?>
<svg version="1.0" id="Layer_1" xmlns="http://www.w3.org/2000/svg" xmlns:xlink="http://www.w3.org/1999/xlink" x="0px" y="0px" viewBox="0 0 32 32" style="enable-background:new 0 0 32 32;" xml:space="preserve"  width="32px" height="32px" fill="#333">
<style type="text/css">
	.primary{fill:#333333;}
</style>
<path class="primary" d="M28.5,17.3h-3c-0.2,1-0.5,2-0.9,3s-1.1,1.7-1.8,2.5c-0.7,0.7-1.6,1.3-2.5,1.8s-2,0.8-3,0.9v3h-2.7v-3
	c-1-0.2-2-0.5-3-0.9s-1.7-1.1-2.5-1.8c-0.7-0.7-1.3-1.6-1.8-2.5s-0.8-1.9-0.9-3h-3v-2.7h3c0.2-1,0.5-2,0.9-3c0.7-0.9,1.3-1.7,2-2.5
	c0.7-0.7,1.6-1.3,2.5-1.8s1.9-0.8,3-0.9V3.5h2.7v3c1,0.2,2,0.5,3,0.9c0.9,0.5,1.7,1.1,2.5,1.8c0.7,0.7,1.3,1.6,1.8,2.4
	c0.5,0.9,0.8,1.9,0.9,3h2.9L28.5,17.3L28.5,17.3z M20.9,20.9c0.6-0.6,1.2-1.4,1.5-2.3s0.5-1.7,0.5-2.7c0-0.9-0.2-1.8-0.5-2.7
	s-0.9-1.6-1.5-2.2c-0.6-0.6-1.4-1.2-2.3-1.5S16.9,9.1,16,9.1s-1.8,0.2-2.7,0.5c-0.9,0.4-1.6,0.9-2.2,1.5c-0.6,0.6-1.2,1.4-1.5,2.2
	C9.3,14.2,9.1,15,9.1,16c0,0.9,0.2,1.8,0.5,2.7c0.3,0.9,0.9,1.6,1.5,2.3c0.6,0.6,1.4,1.2,2.2,1.5S15,23,16,23s1.8-0.2,2.7-0.5
	S20.2,21.5,20.9,20.9z M16,11.6c0.6,0,1.2,0.2,1.7,0.4s1,0.5,1.4,0.9s0.7,0.9,0.9,1.4s0.3,1.1,0.3,1.7s-0.1,1.2-0.3,1.7
	c-0.2,0.5-0.5,1-0.9,1.4s-0.9,0.7-1.4,0.9s-1.1,0.3-1.7,0.3s-1.2-0.1-1.7-0.3c-0.5-0.2-1-0.5-1.4-0.9s-0.7-0.9-0.9-1.4
	s-0.3-1.1-0.3-1.7c0-0.6,0.1-1.2,0.3-1.7s0.5-1,0.9-1.4s0.9-0.7,1.4-0.9S15.4,11.6,16,11.6z"/>
</svg>
