<?xml version="1.0" encoding="utf-8"?>
<!-- Generator: Adobe Illustrator 16.2.1, SVG Export Plug-In . SVG Version: 6.00 Build 0)  -->
<!DOCTYPE svg PUBLIC "-//W3C//DTD SVG 1.1//EN" "http://www.w3.org/Graphics/SVG/1.1/DTD/svg11.dtd">
<svg version="1.1" xmlns="http://www.w3.org/2000/svg" xmlns:xlink="http://www.w3.org/1999/xlink" x="0px" y="0px" viewBox="0 0 32 32" enable-background="new 0 0 32 32" xml:space="preserve" width="32px" height="32px" fill="#333">
<g id="Font">
	<g>
		<path d="M16,4.2c1.098,0,2.157,0.139,3.179,0.416c1.021,0.277,1.971,0.679,2.851,1.204c0.879,0.525,1.68,1.148,2.399,1.868
			c0.72,0.72,1.34,1.52,1.859,2.399c0.52,0.88,0.918,1.827,1.195,2.842c0.277,1.016,0.416,2.072,0.416,3.17
			c0,1.098-0.139,2.151-0.416,3.161c-0.277,1.01-0.676,1.954-1.195,2.833s-1.14,1.682-1.859,2.408s-1.521,1.349-2.399,1.868
			c-0.88,0.52-1.83,0.921-2.851,1.205C18.157,27.858,17.098,28,16,28c-1.099,0-2.152-0.142-3.161-0.425
			c-1.01-0.284-1.954-0.685-2.834-1.205c-0.879-0.519-1.682-1.142-2.408-1.868c-0.726-0.726-1.349-1.529-1.868-2.408
			s-0.921-1.824-1.204-2.833C4.241,18.251,4.1,17.198,4.1,16.1c0-1.098,0.142-2.154,0.425-3.17c0.283-1.015,0.685-1.962,1.204-2.842
			c0.52-0.879,1.143-1.679,1.868-2.399c0.727-0.72,1.529-1.343,2.408-1.868c0.88-0.525,1.824-0.927,2.834-1.204
			C13.848,4.339,14.901,4.2,16,4.2z M22.622,22.741c0.426-0.449,0.807-0.921,1.143-1.417c0.337-0.496,0.629-1.027,0.877-1.594
			c0.248-0.578,0.428-1.171,0.54-1.779c0.111-0.608,0.168-1.225,0.168-1.851c0-1.275-0.236-2.491-0.708-3.648
			c-0.248-0.567-0.54-1.095-0.877-1.585c-0.336-0.49-0.717-0.941-1.143-1.354c-0.85-0.886-1.841-1.559-2.975-2.019
			c-0.566-0.259-1.151-0.448-1.753-0.566C17.292,6.809,16.66,6.75,16,6.75c-0.626,0-1.243,0.062-1.851,0.186
			c-0.608,0.124-1.202,0.31-1.78,0.558c-1.121,0.449-2.113,1.122-2.975,2.019c-0.425,0.425-0.809,0.885-1.151,1.381
			c-0.33,0.473-0.608,0.992-0.832,1.559c-0.248,0.59-0.437,1.187-0.566,1.789S6.649,15.462,6.649,16.1
			c0,0.626,0.065,1.243,0.195,1.851s0.318,1.201,0.566,1.779c0.236,0.567,0.52,1.095,0.85,1.585c0.331,0.49,0.709,0.965,1.134,1.426
			c0.437,0.425,0.903,0.803,1.398,1.133c0.496,0.331,1.021,0.602,1.576,0.814c0.578,0.26,1.172,0.452,1.78,0.576
			c0.607,0.124,1.225,0.186,1.851,0.186c0.648,0,1.277-0.062,1.886-0.186c0.607-0.124,1.195-0.316,1.762-0.576
			c0.566-0.224,1.098-0.499,1.594-0.823S22.197,23.166,22.622,22.741z M16.035,9.565c0.224,0,0.416,0.018,0.575,0.053
			c0.159,0.036,0.286,0.089,0.381,0.16c0.071,0.094,0.13,0.209,0.177,0.345c0.048,0.136,0.071,0.298,0.071,0.487
			c0,0.225-0.026,0.41-0.08,0.558c-0.053,0.147-0.121,0.263-0.203,0.345c-0.153,0.153-0.473,0.23-0.956,0.23
			c-0.473,0-0.791-0.077-0.957-0.23c-0.153-0.153-0.229-0.437-0.229-0.85c0-0.39,0.094-0.679,0.283-0.868
			C15.25,9.631,15.562,9.554,16.035,9.565z M16.85,13.727c0.095,0.047,0.147,0.077,0.159,0.088c0.023,0.024,0.035,0.047,0.035,0.071
			c0,0.024,0,0.047,0,0.071v7.419c0,0.024,0,0.047,0,0.071c0,0.024-0.012,0.042-0.035,0.053c-0.023,0.024-0.077,0.059-0.159,0.106
			c-0.06,0.023-0.112,0.042-0.159,0.053c-0.048,0.012-0.106,0.018-0.178,0.018c-0.059,0-0.13,0.006-0.212,0.018
			c-0.083,0.012-0.172,0.018-0.266,0.018c-0.118,0-0.216-0.006-0.292-0.018c-0.077-0.012-0.15-0.018-0.222-0.018
			s-0.13-0.006-0.177-0.018c-0.048-0.012-0.101-0.03-0.16-0.053c-0.035-0.023-0.067-0.042-0.097-0.053
			c-0.03-0.012-0.057-0.029-0.08-0.053c-0.023-0.023-0.035-0.044-0.035-0.062s0-0.038,0-0.062v-7.419c0-0.024,0-0.047,0-0.071
			c0-0.023,0.012-0.047,0.035-0.071c0.023-0.023,0.05-0.038,0.08-0.044c0.029-0.006,0.062-0.021,0.097-0.044
			c0.06-0.023,0.112-0.041,0.16-0.053c0.047-0.012,0.105-0.018,0.177-0.018c0.071-0.023,0.145-0.036,0.222-0.036
			c0.076,0,0.174,0,0.292,0c0.094,0,0.186,0,0.274,0s0.156,0.012,0.203,0.036c0.071,0,0.13,0.006,0.178,0.018
			C16.737,13.686,16.79,13.704,16.85,13.727z"/>
	</g>
</g>
<g id="Icons_1_" display="none">
	<g display="inline">
		<path fill="#000100" d="M16,0C7.163,0,0,7.164,0,16s7.163,16,16,16c8.837,0,16-7.164,16-16S24.836,0,16,0z M24.889,24.89
			c-1.156,1.155-2.5,2.062-3.997,2.695c-1.548,0.655-3.194,0.986-4.893,0.986c-1.698,0-3.344-0.332-4.892-0.986
			c-1.497-0.633-2.841-1.54-3.997-2.695c-1.156-1.156-2.062-2.501-2.696-3.997C3.76,19.345,3.428,17.699,3.428,16
			s0.332-3.345,0.986-4.893C5.048,9.611,5.955,8.266,7.11,7.11c1.156-1.155,2.5-2.062,3.997-2.695
			C12.655,3.76,14.301,3.429,16,3.429c1.699,0,3.345,0.332,4.893,0.986c1.497,0.633,2.841,1.54,3.997,2.695
			c1.156,1.156,2.062,2.5,2.696,3.997c0.654,1.548,0.986,3.194,0.986,4.893s-0.332,3.345-0.986,4.893
			C26.952,22.389,26.045,23.734,24.889,24.89z"/>
		<path fill="#000100" d="M17.116,12.343c-0.108-0.041-0.251-0.073-0.43-0.095c-0.178-0.022-0.405-0.034-0.681-0.034
			s-0.502,0.011-0.681,0.034c-0.179,0.022-0.322,0.054-0.43,0.095c-0.108,0.041-0.184,0.089-0.229,0.145
			c-0.044,0.056-0.067,0.121-0.067,0.195v9.933c0,0.075,0.022,0.14,0.067,0.195c0.045,0.056,0.121,0.103,0.229,0.14
			c0.107,0.037,0.251,0.065,0.43,0.083c0.178,0.019,0.405,0.028,0.681,0.028s0.502-0.01,0.681-0.028
			c0.179-0.019,0.322-0.046,0.43-0.083s0.184-0.083,0.229-0.14c0.044-0.056,0.067-0.121,0.067-0.195v-9.933
			c0-0.074-0.022-0.14-0.067-0.195C17.3,12.432,17.224,12.384,17.116,12.343z"/>
		<path fill="#000100" d="M16.017,7.839c-0.633,0-1.062,0.11-1.289,0.329c-0.227,0.22-0.34,0.612-0.34,1.178
			c0,0.543,0.109,0.919,0.329,1.127c0.219,0.208,0.646,0.312,1.278,0.312c0.625,0,1.053-0.108,1.284-0.324
			c0.23-0.215,0.346-0.606,0.346-1.172c0-0.543-0.111-0.92-0.335-1.133C17.065,7.945,16.642,7.839,16.017,7.839z"/>
	</g>
</g>
</svg>
