<svg version="1.1" id="Layer_1" xmlns="http://www.w3.org/2000/svg" xmlns:xlink="http://www.w3.org/1999/xlink" x="0px" y="0px" viewBox="0 0 32 32" style="enable-background:new 0 0 32 32;" xml:space="preserve" fill="#333" width="32px" height="32px">
<style type="text/css">
	.primary{fill:#333333;}
</style>
	<path class="primary" d="M22,8V6c0-1.1-0.9-2-2-2h-8c-1.1,0-2,0.9-2,2v0v2H4c-1.1,0-2,0.9-2,2v5v2v8c0,1.1,0.9,2,2,2h24
		c1.1,0,2-0.9,2-2v-8v-2v-5c0-1.1-0.9-2-2-2H22z M12,6h8v2h-8V6z M27,25H5c-0.6,0-1-0.4-1-1v-7h7v1h10v-1h7v7C28,24.6,27.6,25,27,25
		z M20,16h-8v-1h8V16z M21,15v-1H11v1H4v-4c0-0.6,0.4-1,1-1h5h2h8h2h5c0.6,0,1,0.4,1,1v4H21z"/>
</svg>
