<?xml version="1.0" encoding="UTF-8" standalone="no"?>
<svg width="32px" height="32px" viewBox="0 0 32 32" version="1.1" xmlns="http://www.w3.org/2000/svg" xmlns:xlink="http://www.w3.org/1999/xlink" fill="#333">
    <style type="text/css">
    	.primary{fill:#333;}
    </style>
    <path d="M30.609,22.581 C30.561,23.349 30.39,24.063 30.095,24.724 C29.799,25.385 29.41,25.957 28.926,26.442 C28.442,26.926 27.878,27.307 27.235,27.584 C26.592,27.861 25.904,28 25.173,28 C24.405,28 23.691,27.85 23.03,27.548 C22.368,27.247 21.79,26.84 21.295,26.326 C20.799,25.812 20.409,25.207 20.126,24.511 C19.843,23.815 19.701,23.077 19.701,22.298 L14.123,22.298 C13.934,23.125 13.624,23.886 13.193,24.583 C12.761,25.279 12.242,25.878 11.634,26.38 C11.026,26.882 10.338,27.277 9.571,27.566 C8.804,27.855 7.995,28 7.146,28 C6.166,28 5.24,27.802 4.366,27.407 C3.492,27.012 2.731,26.474 2.082,25.796 C1.433,25.118 0.918,24.32 0.54,23.405 C0.162,22.49 -0.026,21.513 -0.026,20.474 C-0.026,19.459 0.151,18.505 0.505,17.614 C0.859,16.722 1.349,15.947 1.975,15.285 L0.718,14.4 C1.013,13.704 1.444,13.078 2.01,12.523 C2.258,12.287 2.541,12.057 2.861,11.833 C3.179,11.609 3.551,11.408 3.976,11.23 C4.401,11.053 4.876,10.909 5.402,10.796 C5.928,10.683 6.508,10.622 7.146,10.61 L7.854,6.094 L7.021,4.2 L20.886,4.2 L18.78,6.201 L18.78,10.451 C20.161,10.356 21.59,10.392 23.065,10.557 C23.69,10.64 24.358,10.749 25.066,10.885 C25.774,11.021 26.498,11.204 27.235,11.434 C27.973,11.664 28.719,11.95 29.475,12.292 C30.231,12.635 30.974,13.042 31.706,13.514 L30.502,13.514 L29.758,17.286 L32.025,17.286 L32.025,22.58 L30.609,22.58 L30.609,22.581 Z M7.074,25.415 C7.712,25.415 8.311,25.291 8.872,25.043 C9.433,24.795 9.923,24.453 10.342,24.016 C10.761,23.579 11.089,23.072 11.324,22.493 C11.56,21.915 11.678,21.295 11.678,20.634 C11.678,19.973 11.56,19.347 11.324,18.757 C11.089,18.167 10.761,17.653 10.342,17.216 C9.923,16.779 9.436,16.434 8.881,16.18 C8.326,15.926 7.724,15.799 7.074,15.799 C6.449,15.799 5.855,15.926 5.295,16.18 C4.735,16.434 4.247,16.779 3.834,17.216 C3.421,17.653 3.093,18.166 2.852,18.757 C2.61,19.347 2.489,19.973 2.489,20.634 C2.489,21.295 2.61,21.915 2.852,22.493 C3.093,23.072 3.421,23.579 3.834,24.016 C4.247,24.453 4.734,24.795 5.295,25.043 C5.855,25.291 6.449,25.415 7.074,25.415 L7.074,25.415 Z M11.679,6.166 L9.129,6.166 L8.633,10.699 C8.904,10.77 9.161,10.835 9.404,10.894 C9.646,10.954 9.883,11.024 10.112,11.107 C10.342,11.19 10.582,11.287 10.83,11.399 C11.078,11.511 11.361,11.65 11.68,11.815 L11.68,6.166 L11.679,6.166 Z M17.009,6.166 L12.724,6.166 L12.724,12.594 C13.137,12.913 13.5,13.249 13.813,13.603 C14.125,13.957 14.398,14.326 14.627,14.71 C14.857,15.094 15.049,15.475 15.203,15.852 C15.368,16.253 15.504,16.631 15.61,16.985 L17.008,16.985 L17.008,6.166 L17.009,6.166 Z M25.279,25.893 C25.727,25.893 26.155,25.802 26.562,25.619 C26.969,25.436 27.321,25.188 27.616,24.875 C27.911,24.563 28.147,24.19 28.324,23.759 C28.502,23.328 28.59,22.871 28.59,22.386 C28.59,21.914 28.502,21.466 28.324,21.04 C28.147,20.615 27.911,20.243 27.616,19.924 C27.321,19.606 26.97,19.352 26.562,19.163 C26.154,18.974 25.727,18.88 25.279,18.88 C24.818,18.88 24.384,18.974 23.977,19.163 C23.57,19.352 23.215,19.606 22.915,19.924 C22.613,20.243 22.375,20.615 22.197,21.04 C22.02,21.465 21.931,21.914 21.931,22.386 C21.931,22.87 22.02,23.328 22.197,23.759 C22.375,24.19 22.613,24.562 22.915,24.875 C23.216,25.188 23.57,25.436 23.977,25.619 C24.385,25.801 24.818,25.893 25.279,25.893 L25.279,25.893 Z" class="primary"/>
</svg>
