<?xml version="1.0" encoding="utf-8"?>
<!-- Generator: Adobe Illustrator 21.1.0, SVG Export Plug-In . SVG Version: 6.00 Build 0)  -->
<svg version="1.0" id="Layer_1" xmlns="http://www.w3.org/2000/svg" xmlns:xlink="http://www.w3.org/1999/xlink" x="0px" y="0px"
	 viewBox="0 0 32 32" style="enable-background:new 0 0 32 32;" xml:space="preserve" width ="32px" height="32px" fill="#333">
<style type="text/css">
	.primary{fill:#333333;}
</style>
<g>
	<path class="primary" d="M30.806,31.909H17.757c0-0.831,0.088-1.595,0.265-2.292c0.176-0.695,0.408-1.339,0.695-1.93
		c0.286-0.591,0.615-1.133,0.987-1.625c0.372-0.491,0.749-0.957,1.133-1.395c0.384-0.438,0.771-0.848,1.161-1.228
		c0.389-0.381,0.737-0.758,1.041-1.133c-0.317-0.374-0.668-0.754-1.051-1.14c-0.384-0.387-0.768-0.795-1.152-1.229
		c-0.384-0.432-0.763-0.894-1.133-1.386c-0.373-0.492-0.704-1.03-0.996-1.615c-0.293-0.586-0.524-1.232-0.695-1.94
		c-0.171-0.709-0.256-1.477-0.256-2.309h13.049c0,0.855-0.086,1.63-0.256,2.326c-0.17,0.696-0.403,1.336-0.695,1.922
		c-0.292,0.585-0.625,1.123-0.996,1.615c-0.372,0.492-0.752,0.953-1.143,1.386c-0.39,0.433-0.779,0.842-1.169,1.229
		c-0.39,0.385-0.738,0.766-1.042,1.14c0.317,0.375,0.668,0.752,1.052,1.133c0.384,0.38,0.77,0.79,1.16,1.228
		c0.39,0.438,0.771,0.904,1.143,1.395c0.372,0.492,0.704,1.035,0.996,1.625c0.292,0.59,0.524,1.235,0.695,1.93
		C30.72,30.315,30.806,31.078,30.806,31.909z M12.502,13.041c-0.702-0.254-1.064-1.031-0.807-1.733
		c0.255-0.7,1.03-1.062,1.733-0.807c0.701,0.256,1.063,1.033,0.807,1.733C13.98,12.935,13.204,13.297,12.502,13.041z M16.385,18.954
		v1.653c-0.413,0.161-0.844,0.295-1.291,0.397c-0.553,1.197-1.637,2.134-3.028,2.429c-0.227,0.048-0.451,0.097-0.676,0.107
		l-0.435-2.522c-1.081-0.238-2.094-0.64-3.017-1.225c-1.24,0.459-2.661,0.365-3.854-0.411c-0.194-0.127-0.389-0.25-0.555-0.403
		l1.497-2.107c-0.569-0.886-1.004-1.867-1.253-2.949c-1.218-0.546-2.172-1.646-2.469-3.052c-0.049-0.228-0.097-0.451-0.11-0.675
		l2.557-0.434c0.232-1.047,0.647-2.031,1.204-2.93C4.459,5.573,4.561,4.109,5.355,2.89c0.127-0.195,0.251-0.389,0.4-0.554
		l2.133,1.514c0.877-0.561,1.848-0.992,2.916-1.244c0.542-1.229,1.643-2.197,3.058-2.496C14.089,0.061,14.314,0.011,14.539,0
		l0.45,2.583c1.037,0.229,2.041,0.621,2.933,1.171c1.251-0.478,2.715-0.379,3.922,0.406c0.195,0.127,0.388,0.25,0.554,0.401
		l-1.494,2.124c0.512,0.797,0.905,1.685,1.162,2.642H20.53c-0.244-0.773-0.606-1.514-1.085-2.193
		c-0.384-0.546-0.843-1.05-1.375-1.501c-0.461-0.387-0.949-0.714-1.459-0.98c-3.23-1.685-7.303-0.964-9.744,1.952
		C4.04,9.98,4.475,15.019,7.833,17.859C10.299,19.943,13.656,20.264,16.385,18.954z"/>
</g>
</svg>
