<?xml version="1.0" encoding="utf-8"?>
<!-- Generator: Adobe Illustrator 21.1.0, SVG Export Plug-In . SVG Version: 6.00 Build 0)  -->
<svg version="1.1" id="Layer_1" xmlns="http://www.w3.org/2000/svg" xmlns:xlink="http://www.w3.org/1999/xlink" x="0px" y="0px"
	 viewBox="0 0 32 32" style="enable-background:new 0 0 32 32;" xml:space="preserve" width="32px" height="32px" fill="#333">
<style type="text/css">
	.primary{fill:#333333;}
	.secondary{fill:#FFFFFF;}
</style>
<g id="generic-file_1_">
	<polygon class="primary" points="24,2 8,2 8,30 30,30 30,8"/>
	<polygon class="secondary" points="23.6,3 9,3 9,29 29,29 29,8.4"/>
	<g>
		<g>
			<polygon class="primary" points="30,9.5 22.5,9.5 22.5,2 23.5,2 23.5,8.5 30,8.5"/>
		</g>
		<g>
			<polygon class="primary" points="30,9.5 22.5,9.5 22.5,2 23.5,2 23.5,8.5 30,8.5"/>
		</g>
	</g>
</g>
<polygon class="primary" points="24,25 2,25 2,12 24,12 "/>
<path class="secondary" d="M5.659,23.021v-9.042h1.918c0.745,0,1.31,0.203,1.695,0.61c0.386,0.406,0.578,0.982,0.578,1.727v4.229
	c0,0.847-0.205,1.471-0.616,1.873s-1.001,0.604-1.771,0.604H5.659z M6.955,15.198v6.604h0.597c0.364,0,0.622-0.091,0.774-0.272
	c0.152-0.183,0.229-0.468,0.229-0.857v-4.356c0-0.355-0.071-0.631-0.216-0.826c-0.144-0.194-0.406-0.292-0.787-0.292H6.955z"/>
<path class="secondary" d="M11.069,23.021v-9.042h1.893c0.415,0,0.769,0.063,1.061,0.19s0.531,0.296,0.718,0.508
	c0.186,0.211,0.319,0.455,0.399,0.73c0.081,0.275,0.121,0.561,0.121,0.857v0.33c0,0.246-0.02,0.453-0.058,0.623
	c-0.038,0.169-0.095,0.317-0.171,0.444c-0.145,0.237-0.364,0.44-0.661,0.609c0.306,0.144,0.529,0.355,0.674,0.635
	c0.144,0.279,0.216,0.66,0.216,1.144v0.508c0,0.796-0.192,1.405-0.578,1.829c-0.386,0.423-1.001,0.635-1.848,0.635H11.069z
	 M12.365,15.198v2.489h0.584c0.432,0,0.722-0.108,0.87-0.324c0.147-0.216,0.222-0.531,0.222-0.946c0-0.406-0.082-0.711-0.247-0.915
	s-0.464-0.305-0.896-0.305H12.365z M12.365,18.83v2.896h0.559c0.263,0,0.468-0.038,0.616-0.114c0.147-0.076,0.26-0.182,0.336-0.317
	c0.076-0.135,0.123-0.296,0.14-0.482c0.018-0.187,0.025-0.39,0.025-0.609c0-0.229-0.013-0.428-0.038-0.598
	c-0.025-0.169-0.076-0.312-0.152-0.432c-0.084-0.118-0.199-0.205-0.343-0.26c-0.144-0.056-0.334-0.083-0.571-0.083H12.365z"/>
<path class="secondary" d="M16.479,23.021v-9.042h3.861v1.219h-2.565v2.743h2.235v1.219h-2.235v3.861H16.479z"/>
</svg>
