<?xml version="1.0" encoding="utf-8"?>
<!-- Generator: Adobe Illustrator 18.0.0, SVG Export Plug-In . SVG Version: 6.00 Build 0)  -->
<!DOCTYPE svg PUBLIC "-//W3C//DTD SVG 1.1//EN" "http://www.w3.org/Graphics/SVG/1.1/DTD/svg11.dtd">
<svg version="1.1" id="Layer_1" xmlns="http://www.w3.org/2000/svg" xmlns:xlink="http://www.w3.org/1999/xlink" x="0px" y="0px" viewBox="0 0 32 32" enable-background="new 0 0 32 32" xml:space="preserve" width="32px" height="32px" fill="#333">
<symbol id="PDF" viewBox="-11 -10 28 28">
	
		<use xlink:href="#generic-file" width="22px" height="28px" id="XMLID_15_" x="-11" y="-14" transform="matrix(1 0 0 1 6 4.0015)" overflow="visible"/>
	<polygon fill="#333333" points="11,-5 -11,-5 -11,8 11,8 	"/>
	<g>
		<path fill="#FFFFFF" d="M-7.3,5.7h2c1.6,0,1.9-0.4,1.9-2.4s-0.3-2.4-1.9-2.4h-0.8V-3h-1.2V5.7z M-6.1,1.8h0.6
			c0.8,0,0.9,0.1,0.9,1.4c0,1.3-0.1,1.4-0.9,1.4h-0.6V1.8z"/>
		<path fill="#FFFFFF" d="M-1.9,5.7h1.9C2,5.7,2.2,5,2.2,2.5v-2.6C2.2-2.3,1.8-3-0.1-3h-1.7V5.7z M-0.7-2h0.6C0.8-2,1-1.5,1,0v3
			c0,1.3-0.1,1.7-1.2,1.7h-0.5V-2z"/>
		<path fill="#FFFFFF" d="M3.7,5.7H7v-1H4.9V1.9h1.9v-1H4.9V-3H3.7V5.7z"/>
	</g>
</symbol>
<symbol id="generic-file" viewBox="-11 -14 22 28">
	<g>
		<polygon fill="#FFFFFF" points="-10.5,-13.5 -10.5,13.5 4.8,13.5 10.5,7.8 10.5,-13.5 		"/>
		<path fill="#333333" d="M4.6,13L10,7.6V-13h-20v26H4.6 M5,14h-16v-28h22V8L5,14L5,14z"/>
	</g>
	<polyline fill="none" stroke="#333333" stroke-miterlimit="10" points="11,7 4,7 4,14 	"/>
</symbol>
<use xlink:href="#PDF" width="28px" height="28px" id="XMLID_12_" x="-11" y="-10" transform="matrix(1 0 0 -1 13 20.001)" overflow="visible"/>
</svg>
