<?xml version="1.0" encoding="utf-8"?>
<!-- Generator: Adobe Illustrator 21.1.0, SVG Export Plug-In . SVG Version: 6.00 Build 0)  -->
<svg version="1.1" id="Layer_1" xmlns="http://www.w3.org/2000/svg" xmlns:xlink="http://www.w3.org/1999/xlink" x="0px" y="0px"
	 viewBox="0 0 32 32" style="enable-background:new 0 0 32 32;" xml:space="preserve" width="32px" height="32px" fill="#333">
<style type="text/css">
	.primary{fill:#333333;}
	.secondary{fill:#FFFFFF;}
</style>
<g id="generic-file_1_">
	<polygon class="primary" points="24,2 8,2 8,30 30,30 30,8"/>
	<polygon class="secondary" points="23.6,3 9,3 9,29 29,29 29,8.4"/>
	<g>
		<g>
			<polygon class="primary" points="30,9.5 22.5,9.5 22.5,2 23.5,2 23.5,8.5 30,8.5"/>
		</g>
		<g>
			<polygon class="primary" points="30,9.5 22.5,9.5 22.5,2 23.5,2 23.5,8.5 30,8.5"/>
		</g>
	</g>
</g>
<polygon class="primary" points="24,25 2,25 2,12 24,12 "/>
<path class="secondary" d="M9.533,13.941v6.909c0,0.618-0.194,1.135-0.584,1.55c-0.194,0.203-0.426,0.364-0.692,0.482
	c-0.267,0.119-0.577,0.178-0.933,0.178c-0.415,0-0.761-0.091-1.035-0.272c-0.275-0.183-0.493-0.362-0.654-0.54l1.016-0.812
	c0.094,0.093,0.201,0.171,0.324,0.234c0.122,0.063,0.252,0.096,0.388,0.096c0.076,0,0.165-0.015,0.267-0.045
	c0.102-0.029,0.198-0.087,0.292-0.171c0.093-0.076,0.169-0.185,0.229-0.324c0.059-0.14,0.089-0.324,0.089-0.553v-6.731H9.533z"/>
<path class="secondary" d="M10.752,22.983v-9.042h1.918c0.745,0,1.31,0.203,1.695,0.61c0.386,0.406,0.578,0.982,0.578,1.728v4.229
	c0,0.847-0.205,1.472-0.616,1.874c-0.411,0.401-1.001,0.603-1.771,0.603H10.752z M12.048,15.16v6.604h0.597
	c0.364,0,0.622-0.091,0.774-0.273c0.152-0.182,0.229-0.468,0.229-0.857v-4.355c0-0.355-0.071-0.631-0.216-0.826
	c-0.144-0.194-0.406-0.292-0.787-0.292H12.048z"/>
<path class="secondary" d="M16.162,22.983v-9.042h1.943c0.355,0,0.669,0.047,0.939,0.14c0.271,0.093,0.517,0.258,0.737,0.496
	c0.22,0.237,0.372,0.514,0.457,0.832c0.084,0.318,0.127,0.748,0.127,1.29c0,0.406-0.023,0.749-0.07,1.028
	c-0.046,0.279-0.146,0.542-0.298,0.788c-0.178,0.296-0.415,0.526-0.712,0.691c-0.296,0.165-0.686,0.248-1.168,0.248h-0.66v3.53
	H16.162z M17.458,15.16v3.073h0.622c0.263,0,0.466-0.038,0.609-0.114c0.145-0.076,0.25-0.182,0.317-0.317
	c0.068-0.127,0.108-0.283,0.121-0.47c0.013-0.186,0.019-0.394,0.019-0.622c0-0.212-0.004-0.413-0.013-0.604
	c-0.008-0.19-0.046-0.358-0.114-0.502c-0.067-0.144-0.169-0.254-0.305-0.33s-0.33-0.114-0.584-0.114H17.458z"/>
</svg>
