<?xml version="1.0" encoding="utf-8"?>
<!-- Generator: Adobe Illustrator 21.1.0, SVG Export Plug-In . SVG Version: 6.00 Build 0)  -->
<svg version="1.1" id="Layer_1" xmlns="http://www.w3.org/2000/svg" xmlns:xlink="http://www.w3.org/1999/xlink" x="0px" y="0px"
	 viewBox="0 0 32 32" style="enable-background:new 0 0 32 32;" xml:space="preserve" width="32px" height="32px" fill="#333">
<style type="text/css">
	.primary{fill:#333333;}
	.secondary{fill:#FFFFFF;}
</style>
<g id="generic-file_1_">
	<polygon class="primary" points="24,2 8,2 8,30 30,30 30,8"/>
	<polygon class="secondary" points="23.6,3 9,3 9,29 29,29 29,8.4"/>
	<g>
		<g>
			<polygon class="primary" points="30,9.5 22.5,9.5 22.5,2 23.5,2 23.5,8.5 30,8.5"/>
		</g>
		<g>
			<polygon class="primary" points="30,9.5 22.5,9.5 22.5,2 23.5,2 23.5,8.5 30,8.5"/>
		</g>
	</g>
</g>
<polygon class="primary" points="24,25 2,25 2,12 24,12 "/>
<path class="secondary" d="M8.542,16.191c0-0.364,0.063-0.686,0.19-0.965s0.297-0.512,0.508-0.698
	c0.204-0.178,0.435-0.313,0.692-0.407c0.259-0.093,0.519-0.14,0.781-0.14s0.522,0.047,0.781,0.14
	c0.258,0.093,0.493,0.229,0.705,0.407c0.203,0.186,0.368,0.419,0.495,0.698s0.19,0.601,0.19,0.965v0.457H11.59v-0.457
	c0-0.313-0.087-0.543-0.26-0.692c-0.174-0.148-0.379-0.222-0.616-0.222s-0.442,0.074-0.616,0.222
	c-0.174,0.148-0.26,0.379-0.26,0.692v4.775c0,0.313,0.086,0.544,0.26,0.692c0.174,0.147,0.379,0.222,0.616,0.222
	s0.442-0.074,0.616-0.222c0.173-0.148,0.26-0.379,0.26-0.692v-1.702h-1.028v-1.143h2.324v2.845c0,0.381-0.063,0.707-0.19,0.978
	c-0.127,0.271-0.292,0.496-0.495,0.674c-0.212,0.186-0.447,0.325-0.705,0.419c-0.259,0.093-0.519,0.14-0.781,0.14
	s-0.522-0.047-0.781-0.14c-0.258-0.094-0.488-0.233-0.692-0.419c-0.211-0.178-0.381-0.402-0.508-0.674
	c-0.127-0.271-0.19-0.597-0.19-0.978V16.191z"/>
<path class="secondary" d="M13.609,23.101v-1.144l2.438-6.68h-2.312v-1.219h3.722v1.029l-2.489,6.794h2.489v1.22H13.609z"/>
</svg>
