<?xml version="1.0" encoding="utf-8"?>
<!-- Generator: Adobe Illustrator 16.2.1, SVG Export Plug-In . SVG Version: 6.00 Build 0)  -->
<!DOCTYPE svg PUBLIC "-//W3C//DTD SVG 1.1//EN" "http://www.w3.org/Graphics/SVG/1.1/DTD/svg11.dtd">
<svg version="1.1" xmlns="http://www.w3.org/2000/svg" xmlns:xlink="http://www.w3.org/1999/xlink" x="0px" y="0px" viewBox="0 0 32 32" enable-background="new 0 0 32 32" xml:space="preserve" width="32px" height="32px" fill="#333">
<g id="Font">
	<g>
		<path d="M25.908,9.406V28H6.11V4.2h14.786L25.908,9.406z M23.341,10.416h-3.56V6.75H8.66v18.7h14.681V10.416z M14.947,13.887
			c-0.603,0.225-1.093,0.596-1.471,1.115s-0.566,1.122-0.566,1.807c0,0.648,0.187,1.242,0.558,1.779
			c0.372,0.537,0.865,0.918,1.479,1.143l0.105,0.035l-0.832,1.487c-0.448-0.177-0.858-0.413-1.23-0.708s-0.69-0.641-0.956-1.036
			s-0.47-0.82-0.611-1.274c-0.142-0.455-0.213-0.93-0.213-1.426c0-0.531,0.08-1.036,0.239-1.514
			c0.159-0.479,0.387-0.916,0.682-1.311c0.295-0.396,0.641-0.741,1.036-1.037c0.396-0.295,0.829-0.524,1.302-0.689l-0.479-1.665
			l3.17,1.735l-1.735,3.188L14.947,13.887z M20.861,16.809c0,0.496-0.068,0.968-0.203,1.416c-0.137,0.449-0.328,0.862-0.576,1.24
			s-0.549,0.715-0.903,1.01c-0.354,0.295-0.743,0.537-1.168,0.726l0.513,1.806l-3.205-1.771l1.789-3.188l0.425,1.522
			c0.496-0.271,0.892-0.648,1.187-1.133s0.442-1.027,0.442-1.629c0-0.613-0.162-1.175-0.486-1.683
			c-0.325-0.507-0.759-0.886-1.302-1.134l-0.071-0.035l0.814-1.505c0.426,0.2,0.809,0.452,1.151,0.753s0.632,0.643,0.868,1.027
			c0.235,0.383,0.416,0.793,0.54,1.23C20.8,15.899,20.861,16.348,20.861,16.809z"/>
	</g>
</g>
</svg>
