<?xml version="1.0" encoding="utf-8"?>
<!-- Generator: Adobe Illustrator 18.0.0, SVG Export Plug-In . SVG Version: 6.00 Build 0)  -->
<!DOCTYPE svg PUBLIC "-//W3C//DTD SVG 1.1//EN" "http://www.w3.org/Graphics/SVG/1.1/DTD/svg11.dtd">
<svg version="1.1" id="Layer_1" xmlns="http://www.w3.org/2000/svg" xmlns:xlink="http://www.w3.org/1999/xlink" x="0px" y="0px" viewBox="0 0 32 32" enable-background="new 0 0 32 32" xml:space="preserve" width="32px" height="32px" fill="#333">
<symbol id="Doc" viewBox="-6.4 -4.5 13 8.3">
	<g>
		<path fill="#333333" d="M-6.4,3.7h2c0.7,0,1.1-0.2,1.5-0.5c0.3-0.3,0.5-0.8,0.5-1.5v-4.1c0-1.4-0.6-2-1.9-2h-2V3.7z M-5.2,2.5
			v-5.8h0.7c0.2,0,0.4,0.1,0.5,0.2C-3.9-3-3.8-2.8-3.8-2.5v4.2C-3.8,2-3.9,2.2-4,2.3c-0.1,0.1-0.3,0.2-0.5,0.2H-5.2z M-1.8,1.7
			c0,0.7,0.2,1.2,0.5,1.5C-1,3.6-0.5,3.8,0.1,3.8c0.6,0,1.1-0.2,1.5-0.5c0.3-0.4,0.5-0.9,0.5-1.5v-4.2c0-0.7-0.2-1.2-0.5-1.5
			C1.2-4.3,0.7-4.5,0.1-4.5C-0.5-4.5-1-4.3-1.3-4c-0.3,0.4-0.5,0.9-0.5,1.5V1.7z M-0.5-2.6c0-0.3,0.1-0.5,0.2-0.6s0.3-0.2,0.5-0.2
			s0.4,0.1,0.5,0.2c0.1,0.1,0.2,0.3,0.2,0.6v4.4c0,0.3-0.1,0.5-0.2,0.6C0.5,2.5,0.3,2.6,0.1,2.6s-0.4-0.1-0.5-0.2
			c-0.1-0.1-0.2-0.3-0.2-0.6V-2.6z M6.6-1.4v-1.1c0-0.7-0.2-1.2-0.5-1.5C5.8-4.3,5.3-4.5,4.7-4.5C4-4.5,3.5-4.3,3.2-4
			C2.9-3.6,2.8-3.1,2.8-2.5v4.2c0,0.7,0.2,1.2,0.5,1.5C3.6,3.6,4,3.8,4.7,3.8c0.6,0,1.1-0.2,1.4-0.5c0.3-0.4,0.5-0.9,0.5-1.5V1H5.4
			v0.8c0,0.3-0.1,0.5-0.2,0.6C5.1,2.5,4.9,2.6,4.7,2.6S4.3,2.5,4.2,2.4C4.1,2.3,4.1,2.1,4.1,1.8v-4.4c0-0.3,0.1-0.5,0.2-0.6
			c0.1-0.1,0.3-0.2,0.5-0.2s0.4,0.1,0.5,0.2c0.1,0.1,0.2,0.3,0.2,0.6v1.2H6.6z"/>
	</g>
</symbol>
<symbol id="generic-file" viewBox="-11 -14 22 28">
	<g>
		<polygon fill="#FFFFFF" points="-10.5,-13.5 -10.5,13.5 4.8,13.5 10.5,7.8 10.5,-13.5 		"/>
		<path fill="#333333" d="M4.6,13L10,7.6V-13h-20v26H4.6 M5,14h-16v-28h22V8L5,14L5,14z"/>
	</g>
	<polyline fill="none" stroke="#333333" stroke-miterlimit="10" points="11,7 4,7 4,14 	"/>
</symbol>
<use xlink:href="#generic-file" width="22px" height="28px" id="XMLID_7_" x="-11" y="-14" transform="matrix(1 0 0 -1 16 15.9995)" overflow="visible"/>
<use xlink:href="#Doc" width="13px" height="8.3px" id="XMLID_6_" x="-6.4" y="-4.5" transform="matrix(1 0 0 -1 15.9443 17.4707)" overflow="visible"/>
</svg>
