<?xml version="1.0" encoding="utf-8"?>
<!-- Generator: Adobe Illustrator 16.2.1, SVG Export Plug-In . SVG Version: 6.00 Build 0)  -->
<!DOCTYPE svg PUBLIC "-//W3C//DTD SVG 1.1//EN" "http://www.w3.org/Graphics/SVG/1.1/DTD/svg11.dtd">
<svg version="1.1" xmlns="http://www.w3.org/2000/svg" xmlns:xlink="http://www.w3.org/1999/xlink" x="0px" y="0px" viewBox="0 0 32 32" enable-background="new 0 0 32 32" xml:space="preserve" width="32px" height="32px" fill="#333">
<g id="Font">
	<polygon points="20.39,18.691 20.39,24.924 5.481,24.924 5.481,5.946 16.764,5.946 16.764,9.329 20.269,5.824 17.894,3.358
		2.893,3.358 2.893,27.512 22.978,27.512 22.978,16.104 	"/>
	<g id="_x31__-_edit_1_">
		<polygon points="26.854,10.514 30.061,7.312 25.3,2.56 22.098,5.758 		"/>
		<path d="M21.161,6.694l-9.547,9.533l-2.246,7.029l7.006-2.276l9.543-9.53L21.161,6.694z M15.854,20.039l-2.308,0.752
			c0,0,0.138-0.732-0.513-1.228c-0.651-0.496-1.269-0.28-1.269-0.28l0.774-2.485l2.509-2.473l0.293,2.803l2.949,0.447L15.854,20.039
			z"/>
	</g>
</g>
<g id="Icons_1_" display="none">
	<g display="inline">
		<polygon points="20.569,19.635 20.569,28.958 3.042,28.958 3.042,3.043 16.307,3.043 16.307,7.021 20.427,2.9 17.635,0 0,0 0,32
			23.612,32 23.612,16.593 		"/>
		<g id="_x31__-_edit_3_">
			<polygon points="27.956,9.924 31.82,6.064 25.799,0.054 21.94,3.908 			"/>
			<path d="M20.755,5.093L8.68,17.151l-2.841,8.891l8.861-2.88l12.071-12.054L20.755,5.093z M14.042,21.973l-2.919,0.95
				c0,0,0.175-0.927-0.648-1.552c-0.824-0.629-1.605-0.354-1.605-0.354l0.979-3.145l3.174-3.128l0.37,3.546l3.73,0.565
				L14.042,21.973z"/>
		</g>
	</g>
</g>
</svg>
