<?xml version="1.0" encoding="utf-8"?>
<!-- Generator: Adobe Illustrator 21.1.0, SVG Export Plug-In . SVG Version: 6.00 Build 0)  -->
<svg version="1.0" id="Layer_1" xmlns="http://www.w3.org/2000/svg" xmlns:xlink="http://www.w3.org/1999/xlink" x="0px" y="0px"
	 viewBox="0 0 32 32" style="enable-background:new 0 0 32 32;" xml:space="preserve" width="32px" height="32px" fill="#333">
<style type="text/css">
	.primary{fill:#333333;}
</style>
<g id="Arrow_25">
	<g>
		<g>
			<path class="primary" d="M21.333,10.667V0H0v21.333h10.667V32H32V10.667H21.333z M30,30H12.667v-8.667v-0.586l0.787-0.787
				l-1.414-1.414l-0.787,0.787h-0.586H2V2h17.333v8.667v0.586l-0.685,0.685l1.414,1.414l0.685-0.685h0.585H30V30z"/>
			
				<rect x="13.381" y="14.949" transform="matrix(0.7072 -0.7071 0.7071 0.7072 -6.5763 16.0198)" class="primary" width="5.34px" height="2px"/>
			<polygon class="primary" points="13.115,4.778 11.019,6.874 7.721,3.576 4.084,7.213 7.382,10.511 5.285,12.607 14.208,13.7 			
				"/>
			<polygon class="primary" points="18.593,18.035 19.685,26.958 21.782,24.861 25.08,28.159 28.717,24.522 25.419,21.224 
				27.514,19.128"/>
		</g>
	</g>
	<g>
		<g>
			<path class="primary" d="M21.333,10.667V0H0v21.333h10.667V32H32V10.667H21.333z M30,30H12.667v-8.667v-0.586l0.787-0.787
				l-1.414-1.414l-0.787,0.787h-0.586H2V2h17.333v8.667v0.586l-0.685,0.685l1.414,1.414l0.685-0.685h0.585H30V30z"/>
			
				<rect x="13.381" y="14.949" transform="matrix(0.7072 -0.7071 0.7071 0.7072 -6.5763 16.0198)" class="primary" width="5.34px" height="2px"/>
			<polygon class="primary" points="13.115,4.778 11.019,6.874 7.721,3.576 4.084,7.213 7.382,10.511 5.285,12.607 14.208,13.7 			
				"/>
			<polygon class="primary" points="18.593,18.035 19.685,26.958 21.782,24.861 25.08,28.159 28.717,24.522 25.419,21.224 
				27.514,19.128"/>
		</g>
	</g>
</g>
</svg>
