<?xml version="1.0" encoding="utf-8"?>
<!-- Generator: Adobe Illustrator 17.1.0, SVG Export Plug-In . SVG Version: 6.00 Build 0)  -->
<!DOCTYPE svg PUBLIC "-//W3C//DTD SVG 1.1//EN" "http://www.w3.org/Graphics/SVG/1.1/DTD/svg11.dtd">
<svg version="1.1" id="Layer_1" xmlns="http://www.w3.org/2000/svg" xmlns:xlink="http://www.w3.org/1999/xlink" x="0px" y="0px" viewBox="0 0 32 32" style="enable-background:new 0 0 32 32;" xml:space="preserve" width="32px" height="32px" fill="#333">
<g>
	<path style="fill:#333333;" d="M8.75,24.917c-0.023-0.083-0.044-0.168-0.066-0.252H3.918V3.104h14.487v6.233
		c0.771-0.147,1.566-0.222,2.374-0.222c0.245,0,0.489,0.008,0.731,0.021V0H0.814v27.769h9.133
		C9.436,26.883,9.033,25.925,8.75,24.917z"/>
	<path style="fill:#333333;" d="M21.615,18.201l3.562-2.602c-0.64-0.465-1.332-0.821-2.075-1.069
		c-0.743-0.248-1.518-0.372-2.323-0.372c-1.002,0-1.954,0.186-2.857,0.558c-0.904,0.372-1.706,0.909-2.408,1.611
		c-0.702,0.702-1.239,1.505-1.611,2.408c-0.372,0.904-0.558,1.856-0.558,2.858c0,1.002,0.186,1.954,0.558,2.857
		c0.372,0.904,0.908,1.706,1.611,2.408c0.702,0.702,1.507,1.239,2.416,1.611c0.908,0.372,1.859,0.558,2.85,0.558
		c1.001,0,1.954-0.186,2.858-0.558c0.903-0.372,1.706-0.908,2.408-1.611c0.465-0.465,0.854-0.976,1.169-1.533
		c0.315-0.558,0.555-1.141,0.72-1.75l2.834,0.929c-0.32,1.084-0.8,2.083-1.44,2.997c-0.64,0.914-1.394,1.706-2.261,2.377
		c-0.867,0.671-1.835,1.193-2.904,1.564C23.094,31.814,21.966,32,20.778,32c-0.96,0-1.882-0.124-2.765-0.372
		c-0.883-0.248-1.709-0.599-2.478-1.053c-0.769-0.454-1.471-0.999-2.106-1.634c-0.635-0.635-1.18-1.337-1.634-2.106
		c-0.454-0.769-0.805-1.595-1.053-2.478c-0.248-0.883-0.372-1.804-0.372-2.765c0-0.96,0.124-1.884,0.372-2.772
		c0.248-0.888,0.599-1.716,1.053-2.486c0.454-0.769,0.999-1.469,1.634-2.099c0.635-0.63,1.337-1.174,2.106-1.634
		c0.769-0.459,1.595-0.81,2.478-1.053c0.883-0.242,1.804-0.364,2.765-0.364c1.322,0,2.566,0.23,3.732,0.689
		c1.167,0.46,2.215,1.092,3.144,1.897l3.531-2.586v10.207L21.615,18.201z"/>
	<rect x="7.037" y="6.209" style="fill:#333333;" width="8.28px" height="1.552px"/>
	<rect x="7.037" y="10.865" style="fill:#333333;" width="5.176px" height="1.552px"/>
	<rect x="7.037" y="15.521" style="fill:#333333;" width="2.07px" height="1.552px"/>
</g>
</svg>
