<?xml version="1.0" encoding="utf-8"?>
<!-- Generator: Adobe Illustrator 18.0.0, SVG Export Plug-In . SVG Version: 6.00 Build 0)  -->
<!DOCTYPE svg PUBLIC "-//W3C//DTD SVG 1.1//EN" "http://www.w3.org/Graphics/SVG/1.1/DTD/svg11.dtd">
<svg version="1.1" id="Layer_1" xmlns="http://www.w3.org/2000/svg" xmlns:xlink="http://www.w3.org/1999/xlink" x="0px" y="0px" viewBox="0 0 32 32" enable-background="new 0 0 32 32" xml:space="preserve" width="32px" height="32px" fill="#333">
<symbol id="Rx-Color" viewBox="-11 -14 22 28">
	<g>
		<polygon fill="#E3E3E3" points="-11,14 -11,-14 11,-14 11,8 5,14 		"/>
	</g>
	<g>
		<path fill="#E97B50" d="M7-7H3.9L1.6-3.9L-1-7h-1.9l3.6,4.3l-3.3,4.4h-0.5v-5.2H-6V8h4.3c0.7,0,1.4-0.1,2-0.2
			c0.5-0.1,1-0.4,1.4-0.6c0.4-0.3,0.7-0.6,0.8-1c0.1-0.2,0.2-0.4,0.2-0.6c0-0.2,0.1-0.4,0.1-0.6c0-0.3-0.1-0.6-0.2-0.9
			C2.5,3.6,2.4,3.4,2.1,3.2C1.9,2.9,1.6,2.7,1.3,2.5C1,2.3,0.6,2.1,0.2,2l2.1-2.8l2.1,2.5h1.9L3.2-2L7-7z M-2.5,2.7
			c0.3,0,0.6,0,1,0.1C-1.4,2.9-1.3,3-1.2,3C-1,3.1-0.9,3.2-0.8,3.3c0.2,0.2,0.4,0.4,0.5,0.6c0.1,0.2,0.2,0.5,0.2,0.9
			c0,0.3,0,0.6-0.1,0.8C-0.3,5.8-0.4,5.9-0.4,6c-0.1,0.1-0.1,0.2-0.2,0.3c-0.1,0.1-0.2,0.2-0.3,0.2C-1,6.6-1.1,6.6-1.2,6.7
			C-1.5,6.8-1.7,6.9-2,6.9h-1.2V2.7H-2.5z"/>
	</g>
	<g>
		<polygon fill="#F2F2F2" points="11,8 5,14 5,8 		"/>
	</g>
	<g>
		<polygon fill="#C6C6C6" points="-1,14 5,8 5,14 		"/>
	</g>
</symbol>
<symbol id="generic-file" viewBox="-11 -14 22 28">
	<g>
		<polygon fill="#FFFFFF" points="-10.5,-13.5 -10.5,13.5 4.8,13.5 10.5,7.8 10.5,-13.5 		"/>
		<path fill="#333333" d="M4.6,13L10,7.6V-13h-20v26H4.6 M5,14h-16v-28h22V8L5,14L5,14z"/>
	</g>
	<polyline fill="none" stroke="#333333" stroke-miterlimit="10" points="11,7 4,7 4,14 	"/>
</symbol>
<use xlink:href="#Rx-Color" width="22px" height="28px" id="XMLID_17_" x="-11" y="-14" transform="matrix(1 0 0 -1 16 16)" overflow="visible"/>
</svg>
