<?xml version="1.0" encoding="utf-8"?>
<!-- Generator: Adobe Illustrator 21.1.0, SVG Export Plug-In . SVG Version: 6.00 Build 0)  -->
<svg version="1.1" id="Layer_1" xmlns="http://www.w3.org/2000/svg" xmlns:xlink="http://www.w3.org/1999/xlink" x="0px" y="0px"
	 viewBox="0 0 32 32" style="enable-background:new 0 0 32 32;" xml:space="preserve" width="32px" height="32px" fill="#333">
<style type="text/css">
	.primary{fill:#333333;}
	.secondary{fill:#FFFFFF;}
</style>
<g id="generic-file_1_">
	<polygon class="primary" points="24,2 8,2 8,30 30,30 30,8"/>
	<polygon class="secondary" points="23.6,3 9,3 9,29 29,29 29,8.4"/>
	<g>
		<g>
			<polygon class="primary" points="30,9.5 22.5,9.5 22.5,2 23.5,2 23.5,8.5 30,8.5"/>
		</g>
		<g>
			<polygon class="primary" points="30,9.5 22.5,9.5 22.5,2 23.5,2 23.5,8.5 30,8.5"/>
		</g>
	</g>
</g>
<polygon class="primary" points="24,25 2,25 2,12 24,12 "/>
<path class="secondary" d="M5.374,16.113c0-0.364,0.063-0.686,0.19-0.965s0.297-0.512,0.508-0.698
	c0.204-0.178,0.435-0.313,0.692-0.407c0.259-0.093,0.519-0.14,0.781-0.14s0.522,0.047,0.781,0.14
	c0.258,0.093,0.493,0.229,0.705,0.407c0.203,0.186,0.368,0.419,0.495,0.698s0.19,0.601,0.19,0.965v0.457H8.421v-0.457
	c0-0.313-0.087-0.544-0.26-0.692c-0.174-0.148-0.379-0.222-0.616-0.222s-0.442,0.074-0.616,0.222
	c-0.174,0.148-0.26,0.379-0.26,0.692v4.774c0,0.313,0.086,0.545,0.26,0.692c0.174,0.148,0.379,0.223,0.616,0.223
	s0.442-0.074,0.616-0.223c0.173-0.147,0.26-0.379,0.26-0.692v-1.701H7.393v-1.144h2.324v2.845c0,0.382-0.063,0.707-0.19,0.979
	c-0.127,0.271-0.292,0.495-0.495,0.673c-0.212,0.187-0.447,0.326-0.705,0.419c-0.259,0.094-0.519,0.14-0.781,0.14
	s-0.522-0.046-0.781-0.14c-0.258-0.093-0.488-0.232-0.692-0.419c-0.211-0.178-0.381-0.402-0.508-0.673
	c-0.127-0.271-0.19-0.597-0.19-0.979V16.113z"/>
<path class="secondary" d="M10.86,23.021v-9.042h2.083c1.524,0,2.286,0.885,2.286,2.654c0,0.533-0.083,0.986-0.248,1.358
	c-0.165,0.373-0.455,0.674-0.87,0.902l1.397,4.127h-1.372l-1.206-3.86h-0.774v3.86H10.86z M12.156,15.198v2.819h0.736
	c0.229,0,0.41-0.031,0.546-0.095s0.241-0.154,0.317-0.273c0.068-0.118,0.114-0.265,0.14-0.438c0.025-0.174,0.038-0.375,0.038-0.604
	s-0.013-0.43-0.038-0.603s-0.076-0.324-0.152-0.451c-0.16-0.237-0.466-0.355-0.914-0.355H12.156z"/>
<path class="secondary" d="M15.635,23.021l1.829-4.737l-1.689-4.305h1.372l0.978,2.68l0.99-2.68h1.372l-1.728,4.305l1.867,4.737
	h-1.372l-1.13-3.048l-1.117,3.048H15.635z"/>
</svg>
