<?xml version="1.0" encoding="utf-8"?>
<!-- Generator: Adobe Illustrator 21.1.0, SVG Export Plug-In . SVG Version: 6.00 Build 0)  -->
<svg version="1.1" id="Layer_1" xmlns="http://www.w3.org/2000/svg" xmlns:xlink="http://www.w3.org/1999/xlink" x="0px" y="0px"
	 viewBox="0 0 32 32" style="enable-background:new 0 0 32 32;" xml:space="preserve" width="32px" height="32px" fill="#333">
<style type="text/css">
	.primary{fill:#333333;}
	.secondary{fill:#FFFFFF;}
</style>
<g id="generic-file_1_">
	<polygon class="primary" points="24,2 8,2 8,30 30,30 30,8"/>
	<polygon class="secondary" points="23.6,3 9,3 9,29 29,29 29,8.4"/>
	<g>
		<g>
			<polygon class="primary" points="30,9.5 22.5,9.5 22.5,2 23.5,2 23.5,8.5 30,8.5"/>
		</g>
		<g>
			<polygon class="primary" points="30,9.5 22.5,9.5 22.5,2 23.5,2 23.5,8.5 30,8.5"/>
		</g>
	</g>
</g>
<polygon class="primary" points="24,25 2,25 2,12 24,12 "/>
<path class="secondary" d="M5.386,23.021v-9.042h2.083c1.524,0,2.286,0.885,2.286,2.654c0,0.534-0.083,0.986-0.248,1.359
	c-0.165,0.372-0.455,0.673-0.87,0.901l1.397,4.128H8.663L7.457,19.16H6.682v3.861H5.386z M6.682,15.198v2.819h0.736
	c0.229,0,0.41-0.032,0.546-0.096s0.241-0.154,0.317-0.272c0.068-0.119,0.114-0.265,0.14-0.438s0.038-0.375,0.038-0.604
	s-0.013-0.43-0.038-0.603c-0.025-0.173-0.076-0.324-0.152-0.451c-0.16-0.237-0.466-0.355-0.914-0.355H6.682z"/>
<path class="secondary" d="M10.212,23.021l2.02-9.042h1.079l2.02,9.042h-1.296l-0.381-1.943h-1.765l-0.382,1.943H10.212z
	 M13.413,19.859l-0.635-3.277h-0.025l-0.635,3.277H13.413z"/>
<path class="secondary" d="M15.965,23.021v-9.042h2.083c1.524,0,2.286,0.885,2.286,2.654c0,0.534-0.083,0.986-0.248,1.359
	c-0.165,0.372-0.455,0.673-0.87,0.901l1.397,4.128h-1.372l-1.206-3.861h-0.774v3.861H15.965z M17.261,15.198v2.819h0.736
	c0.229,0,0.41-0.032,0.546-0.096s0.241-0.154,0.317-0.272c0.068-0.119,0.114-0.265,0.14-0.438s0.038-0.375,0.038-0.604
	s-0.013-0.43-0.038-0.603c-0.025-0.173-0.076-0.324-0.152-0.451c-0.16-0.237-0.466-0.355-0.914-0.355H17.261z"/>
</svg>
