<?xml version="1.0" encoding="utf-8"?>
<!-- Generator: Adobe Illustrator 18.0.0, SVG Export Plug-In . SVG Version: 6.00 Build 0)  -->
<!DOCTYPE svg PUBLIC "-//W3C//DTD SVG 1.1//EN" "http://www.w3.org/Graphics/SVG/1.1/DTD/svg11.dtd">
<svg version="1.1" id="Layer_1" xmlns="http://www.w3.org/2000/svg" xmlns:xlink="http://www.w3.org/1999/xlink" x="0px" y="0px" viewBox="0 0 32 32" enable-background="new 0 0 32 32" xml:space="preserve" width="32px" height="32px" fill="#333">
<symbol id="File1" viewBox="-14 -14 28 28">
	<g>
		<g>
			<polygon fill="#C6C6C6" points="-6,14 -6,-11 14,-11 14,8 8,14 			"/>
		</g>
		<polygon fill="#E3E3E3" points="8,8 14,8 8,14 		"/>
	</g>
	<g>
		<polygon fill="#7F7F7F" points="5,8 -2,8 -2,9 5,9 		"/>
		<polygon fill="#7F7F7F" points="10,-8 -2,-8 -2,-7 10,-7 		"/>
		<polygon fill="#7F7F7F" points="10,-4 -2,-4 -2,-3 10,-3 		"/>
		<polygon fill="#7F7F7F" points="10,0 -2,0 -2,1 10,1 		"/>
		<polygon fill="#7F7F7F" points="10,4 -2,4 -2,5 10,5 		"/>
		<g>
			<polygon fill="#E3E3E3" points="-14,11 -14,-14 6,-14 6,5 0,11 			"/>
		</g>
		<polygon fill="#377E3D" points="-3,5 -10,5 -10,6 -3,6 		"/>
		<polygon fill="#7F7F7F" points="2,-11 -10,-11 -10,-10 2,-10 		"/>
		<polygon fill="#7F7F7F" points="2,-7 -10,-7 -10,-6 2,-6 		"/>
		<polygon fill="#7F7F7F" points="2,-3 -10,-3 -10,-2 2,-2 		"/>
		<polygon fill="#7F7F7F" points="2,1 -10,1 -10,2 2,2 		"/>
		<polygon fill="#FFFFFF" points="0,5 6,5 0,11 		"/>
	</g>
</symbol>
<symbol id="generic-file" viewBox="-11 -14 22 28">
	<g>
		<polygon fill="#FFFFFF" points="-10.5,-13.5 -10.5,13.5 4.8,13.5 10.5,7.8 10.5,-13.5 		"/>
		<path fill="#333333" d="M4.6,13L10,7.6V-13h-20v26H4.6 M5,14h-16v-28h22V8L5,14L5,14z"/>
	</g>
	<polyline fill="none" stroke="#333333" stroke-miterlimit="10" points="11,7 4,7 4,14 	"/>
</symbol>
<use xlink:href="#File1" width="28px" height="28px" id="XMLID_2_" x="-14" y="-14" transform="matrix(1 0 0 -1 16 16)" overflow="visible"/>
</svg>
