<?xml version="1.0" encoding="utf-8"?>
<!-- Generator: Adobe Illustrator 18.0.0, SVG Export Plug-In . SVG Version: 6.00 Build 0)  -->
<!DOCTYPE svg PUBLIC "-//W3C//DTD SVG 1.1//EN" "http://www.w3.org/Graphics/SVG/1.1/DTD/svg11.dtd">
<svg version="1.1" id="Layer_1" xmlns="http://www.w3.org/2000/svg" xmlns:xlink="http://www.w3.org/1999/xlink" x="0px" y="0px" viewBox="0 0 32 32" enable-background="new 0 0 32 32" xml:space="preserve" width="32px" height="32px" fill="#333">
<symbol id="SHP" viewBox="-14 -14 28 28">
	
		<use xlink:href="#generic-file" width="22px" height="28px" id="XMLID_8_" x="-11" y="-14" transform="matrix(1 0 0 1 3 1.484183e-03)" overflow="visible"/>
	<polygon fill="#333333" points="8,-9 -14,-9 -14,4 8,4 	"/>
	<g>
		<path fill="#FFFFFF" d="M-10-4.4h1.2v-0.7c0-0.6,0.2-0.9,0.7-0.9c0.6,0,0.8,0.4,0.8,1c0,0.7,0,1-1.3,2.2C-9.4-2.1-10-1.4-10-0.2
			c0,1.4,0.7,2,2,2c0.6,0,1.1-0.2,1.4-0.5c0.2-0.2,0.3-0.5,0.3-1.1v-0.8h-1.1v0.7c0,0.5-0.2,0.8-0.7,0.8c-0.5,0-0.7-0.3-0.7-0.9
			c0-0.6,0.1-0.9,1.2-2.1c1.2-1.2,1.4-1.6,1.4-2.7c0-1.4-0.5-2.1-2-2.1C-9.2-7-10-6.5-10-5.5V-4.4z"/>
		<path fill="#FFFFFF" d="M-4.7,1.7h1.2V-2h1.6v3.7h1.2v-8.7h-1.2V-3h-1.6v-3.9h-1.2V1.7z"/>
		<path fill="#FFFFFF" d="M0.9,1.7h2c1.6,0,1.9-0.4,1.9-2.4S4.5-3.2,2.9-3.2H2.1v-3.8H0.9V1.7z M2.1-2.2h0.6c0.8,0,0.9,0.1,0.9,1.4
			c0,1.3-0.1,1.4-0.9,1.4H2.1V-2.2z"/>
	</g>
</symbol>
<symbol id="generic-file" viewBox="-11 -14 22 28">
	<g>
		<polygon fill="#FFFFFF" points="-10.5,-13.5 -10.5,13.5 4.8,13.5 10.5,7.8 10.5,-13.5 		"/>
		<path fill="#333333" d="M4.6,13L10,7.6V-13h-20v26H4.6 M5,14h-16v-28h22V8L5,14L5,14z"/>
	</g>
	<polyline fill="none" stroke="#333333" stroke-miterlimit="10" points="11,7 4,7 4,14 	"/>
</symbol>
<use xlink:href="#SHP" width="28px" height="28px" id="XMLID_9_" x="-14" y="-14" transform="matrix(1 0 0 -1 16 16.001)" overflow="visible"/>
</svg>
