<?xml version="1.0" encoding="utf-8"?>
<!-- Generator: Adobe Illustrator 21.1.0, SVG Export Plug-In . SVG Version: 6.00 Build 0)  -->
<svg version="1.1" id="Layer_1" xmlns="http://www.w3.org/2000/svg" xmlns:xlink="http://www.w3.org/1999/xlink" x="0px" y="0px"
	 viewBox="0 0 32 32" style="enable-background:new 0 0 32 32;" xml:space="preserve" width="32px" height="32px" fill="#333">
<style type="text/css">
	.primary{fill:#333333;}
	.secondary{fill:#FFFFFF;}
</style>
<g id="generic-file_1_">
	<polygon class="primary" points="24,2 8,2 8,30 30,30 30,8"/>
	<polygon class="secondary" points="23.6,3 9,3 9,29 29,29 29,8.4"/>
	<g>
		<g>
			<polygon class="primary" points="30,9.5 22.5,9.5 22.5,2 23.5,2 23.5,8.5 30,8.5"/>
		</g>
		<g>
			<polygon class="primary" points="30,9.5 22.5,9.5 22.5,2 23.5,2 23.5,8.5 30,8.5"/>
		</g>
	</g>
</g>
<polygon class="primary" points="24,25 2,25 2,12 24,12 "/>
<path class="secondary" d="M9.253,23.021l2.273-7.823h-1.422v1.042H8.961v-2.261h3.861v1.295l-2.197,7.747H9.253z"/>
<path class="secondary" d="M13.47,23.021v-1.028l2.096-4.268h-1.931v-1.143h3.403v1.028l-2.095,4.191h2.095v1.219H13.47z"/>
</svg>
