<?xml version="1.0" encoding="utf-8"?>
<!-- Generator: Adobe Illustrator 21.1.0, SVG Export Plug-In . SVG Version: 6.00 Build 0)  -->
<svg version="1.1" id="Layer_1" xmlns="http://www.w3.org/2000/svg" xmlns:xlink="http://www.w3.org/1999/xlink" x="0px" y="0px"
	 viewBox="0 0 32 32" style="enable-background:new 0 0 32 32;" xml:space="preserve" width="32px" height="32px" fill="#333">
<style type="text/css">
	.primary{fill:#333333;}
	.secondary{fill:#FFFFFF;}
</style>
<g id="generic-file_1_">
	<polygon class="primary" points="24,2 8,2 8,30 30,30 30,8"/>
	<polygon class="secondary" points="23.6,3 9,3 9,29 29,29 29,8.4"/>
	<g>
		<g>
			<polygon class="primary" points="30,9.5 22.5,9.5 22.5,2 23.5,2 23.5,8.5 30,8.5"/>
		</g>
		<g>
			<polygon class="primary" points="30,9.5 22.5,9.5 22.5,2 23.5,2 23.5,8.5 30,8.5"/>
		</g>
	</g>
</g>
<polygon class="primary" points="24,25 2,25 2,12 24,12 "/>
<path class="secondary" d="M7.279,23.021v-1.144l2.438-6.68H7.406v-1.219h3.722v1.029l-2.489,6.794h2.489v1.22H7.279z"/>
<path class="secondary" d="M11.965,23.021v-9.043h1.296v9.043H11.965z"/>
<path class="secondary" d="M14.517,23.021v-9.043h1.943c0.355,0,0.669,0.047,0.939,0.14c0.271,0.093,0.517,0.258,0.737,0.496
	c0.22,0.237,0.372,0.514,0.457,0.832c0.084,0.318,0.127,0.748,0.127,1.289c0,0.407-0.023,0.75-0.07,1.029
	c-0.046,0.279-0.146,0.542-0.298,0.787c-0.178,0.297-0.415,0.527-0.712,0.692c-0.296,0.165-0.686,0.247-1.168,0.247h-0.66v3.531
	H14.517z M15.813,15.198v3.074h0.622c0.263,0,0.466-0.038,0.609-0.114c0.145-0.076,0.25-0.182,0.317-0.317
	c0.068-0.127,0.108-0.284,0.121-0.47c0.013-0.187,0.019-0.395,0.019-0.623c0-0.211-0.004-0.412-0.013-0.603
	c-0.008-0.191-0.046-0.358-0.114-0.502c-0.067-0.144-0.169-0.254-0.305-0.33s-0.33-0.114-0.584-0.114H15.813z"/>
</svg>
