<?xml version="1.0" encoding="utf-8"?>
<!-- Generator: Adobe Illustrator 21.1.0, SVG Export Plug-In . SVG Version: 6.00 Build 0)  -->
<svg version="1.1" id="Layer_1" xmlns="http://www.w3.org/2000/svg" xmlns:xlink="http://www.w3.org/1999/xlink" x="0px" y="0px"
	 viewBox="0 0 32 32" style="enable-background:new 0 0 32 32;" xml:space="preserve" width="32px" height="32px" fill="#333">
<style type="text/css">
	.primary{fill:#333333;}
	.secondary{fill:#FFFFFF;}
</style>
<g id="generic-file_1_">
	<polygon class="primary" points="24,2 8,2 8,30 30,30 30,8"/>
	<polygon class="secondary" points="23.6,3 9,3 9,29 29,29 29,8.4"/>
	<g>
		<g>
			<polygon class="primary" points="30,9.5 22.5,9.5 22.5,2 23.5,2 23.5,8.5 30,8.5"/>
		</g>
		<g>
			<polygon class="primary" points="30,9.5 22.5,9.5 22.5,2 23.5,2 23.5,8.5 30,8.5"/>
		</g>
	</g>
</g>
<polygon class="primary" points="24,25 2,25 2,12 24,12 "/>
<path class="secondary" d="M9.857,16.582H8.561V16.29c0-0.296-0.069-0.553-0.209-0.769s-0.375-0.324-0.705-0.324
	c-0.178,0-0.322,0.034-0.432,0.102c-0.11,0.068-0.199,0.152-0.267,0.254c-0.068,0.11-0.114,0.235-0.14,0.375
	c-0.025,0.14-0.038,0.286-0.038,0.438c0,0.178,0.006,0.326,0.019,0.444c0.013,0.119,0.045,0.225,0.096,0.318
	c0.051,0.093,0.125,0.173,0.222,0.241c0.098,0.067,0.23,0.135,0.4,0.203l0.99,0.394c0.288,0.11,0.521,0.239,0.699,0.387
	c0.178,0.148,0.317,0.32,0.419,0.515c0.093,0.203,0.156,0.435,0.19,0.692c0.033,0.259,0.051,0.553,0.051,0.883
	c0,0.381-0.038,0.734-0.114,1.061s-0.199,0.603-0.368,0.831c-0.178,0.237-0.411,0.424-0.699,0.56
	c-0.287,0.135-0.639,0.203-1.054,0.203c-0.313,0-0.605-0.056-0.876-0.165c-0.271-0.11-0.504-0.263-0.699-0.457
	c-0.194-0.195-0.349-0.422-0.463-0.68c-0.114-0.259-0.172-0.54-0.172-0.845v-0.482h1.296v0.406c0,0.237,0.069,0.451,0.209,0.642
	s0.375,0.285,0.705,0.285c0.22,0,0.392-0.031,0.515-0.095c0.122-0.063,0.218-0.154,0.285-0.273c0.068-0.118,0.108-0.26,0.121-0.426
	c0.013-0.165,0.019-0.349,0.019-0.552c0-0.237-0.008-0.432-0.025-0.584c-0.017-0.152-0.051-0.275-0.102-0.369
	C8.375,19.41,8.296,19.334,8.2,19.274c-0.098-0.059-0.227-0.122-0.388-0.19l-0.927-0.381c-0.56-0.229-0.934-0.531-1.124-0.908
	c-0.19-0.376-0.286-0.849-0.286-1.416c0-0.338,0.047-0.661,0.14-0.965c0.094-0.305,0.233-0.567,0.419-0.787
	c0.178-0.22,0.404-0.396,0.68-0.527c0.275-0.131,0.604-0.197,0.984-0.197c0.321,0,0.616,0.06,0.883,0.178
	c0.267,0.119,0.497,0.275,0.692,0.47c0.389,0.406,0.584,0.872,0.584,1.397V16.582z"/>
<path class="secondary" d="M10.822,23.021v-9.043h1.296v3.874h1.6v-3.874h1.296v9.043h-1.296v-4.026h-1.6v4.026H10.822z"/>
<path class="secondary" d="M15.597,23.021l1.829-4.737l-1.689-4.306h1.372l0.978,2.68l0.99-2.68h1.372l-1.728,4.306l1.867,4.737
	h-1.372l-1.13-3.048l-1.117,3.048H15.597z"/>
</svg>
