<?xml version="1.0" encoding="utf-8"?>
<!-- Generator: Adobe Illustrator 16.2.1, SVG Export Plug-In . SVG Version: 6.00 Build 0)  -->
<!DOCTYPE svg PUBLIC "-//W3C//DTD SVG 1.1//EN" "http://www.w3.org/Graphics/SVG/1.1/DTD/svg11.dtd">
<svg version="1.1" xmlns="http://www.w3.org/2000/svg" xmlns:xlink="http://www.w3.org/1999/xlink" x="0px" y="0px" viewBox="0 0 32 32" enable-background="new 0 0 32 32" xml:space="preserve" width="32px" height="32px" fill="#333">
<g id="Font">
	<g>
		<path d="M4.968,5.776c0-0.236,0.089-0.466,0.266-0.69s0.442-0.354,0.797-0.39C6.868,4.602,7.706,4.51,8.545,4.421
			c0.838-0.088,1.594-0.15,2.267-0.186c0.673-0.035,1.216-0.038,1.629-0.009c0.413,0.03,0.62,0.115,0.62,0.257
			c0,0.201,0,0.407,0,0.62s0.035,0.401,0.106,0.567c0.07,0.166,0.194,0.298,0.371,0.398c0.178,0.1,0.443,0.133,0.797,0.097
			c0.319-0.035,0.741-0.077,1.267-0.124c0.525-0.047,1.086-0.097,1.683-0.15c0.596-0.053,1.207-0.115,1.832-0.186
			c0.626-0.071,1.214-0.133,1.763-0.186c0.549-0.053,1.026-0.103,1.435-0.15c0.407-0.047,0.693-0.088,0.858-0.124
			c0.248-0.059,0.499-0.083,0.753-0.071c0.253,0.012,0.483,0.053,0.69,0.124c0.206,0.071,0.375,0.171,0.505,0.301
			s0.194,0.277,0.194,0.442v0.815c-2.868,0.342-5.483,0.655-7.845,0.938c-1.004,0.118-2.001,0.239-2.992,0.363
			c-0.992,0.124-1.896,0.236-2.71,0.336c-0.814,0.101-1.511,0.183-2.09,0.248C9.1,8.807,8.722,8.852,8.545,8.875
			C8.19,8.922,7.878,9.041,7.606,9.229C7.335,9.418,7.107,9.654,6.925,9.938c-0.184,0.283-0.322,0.62-0.416,1.009
			c-0.095,0.39-0.143,0.809-0.143,1.257c0,0.071-0.006,0.339-0.018,0.806c-0.012,0.467-0.026,1.06-0.044,1.78
			c-0.018,0.72-0.041,1.529-0.071,2.426c-0.029,0.897-0.056,1.8-0.079,2.709c-0.06,2.161-0.124,4.599-0.195,7.314l-0.991-1.435
			V5.776z M7.058,28.018C7.223,25.456,7.37,23.13,7.5,21.041c0.059-0.897,0.115-1.782,0.168-2.656
			c0.054-0.874,0.106-1.676,0.159-2.408c0.054-0.732,0.098-1.354,0.133-1.868c0.036-0.514,0.065-0.853,0.089-1.019
			c0.047-0.448,0.191-0.823,0.434-1.124c0.242-0.301,0.534-0.552,0.877-0.753c0.342-0.201,0.702-0.351,1.08-0.452
			c0.378-0.1,0.72-0.174,1.027-0.221c0.153-0.023,0.463-0.071,0.93-0.142c0.466-0.071,1.029-0.153,1.691-0.248
			c0.66-0.094,1.39-0.204,2.187-0.328S17.88,9.575,18.7,9.451s1.621-0.242,2.399-0.354c0.779-0.112,1.481-0.215,2.107-0.31
			c0.626-0.095,1.146-0.174,1.559-0.239s0.661-0.103,0.744-0.115c0.803-0.129,1.34-0.047,1.611,0.248
			c0.271,0.295,0.365,0.874,0.283,1.735c-0.023,0.225-0.054,0.587-0.089,1.089s-0.079,1.095-0.133,1.779
			c-0.053,0.685-0.109,1.426-0.168,2.223c-0.06,0.797-0.124,1.591-0.195,2.382c-0.142,1.877-0.295,3.943-0.46,6.198L7.058,28.018z"/>
	</g>
</g>
</svg>
