<?xml version="1.0" encoding="utf-8"?>
<!-- Generator: Adobe Illustrator 19.2.1, SVG Export Plug-In . SVG Version: 6.00 Build 0)  -->
<svg version="1.1" id="Layer_1" xmlns="http://www.w3.org/2000/svg" xmlns:xlink="http://www.w3.org/1999/xlink" x="0px" y="0px" viewBox="0 0 32 32" style="enable-background:new 0 0 32 32;" xml:space="preserve" width="32px" height="32px" fill="#333">
<style type="text/css">
	.st0{fill:#333333;}
	.st1{fill:#FFFFFF;}
	.st2{enable-background:new    ;}
</style>
<g id="generic-file">
	<polygon class="st0" points="24,2 8,2 8,30 30,30 30,8 	"/>
	<polygon class="st1" points="23.6,3 9,3 9,29 29,29 29,8.4 	"/>
	<g>
		<polygon class="st0" points="30,9.5 22.5,9.5 22.5,2 23.5,2 23.5,8.5 30,8.5 		"/>
	</g>
</g>
<polygon class="st0" points="24,25 2,25 2,12 24,12 "/>
<g class="st2">
	<path class="st1" d="M9.7,21.1c0,0.3-0.1,0.5-0.2,0.8s-0.2,0.5-0.4,0.6c-0.2,0.2-0.4,0.3-0.6,0.4C8.2,23,8,23.1,7.7,23.1
		c-0.2,0-0.5,0-0.7-0.1s-0.5-0.2-0.7-0.3C6.1,22.5,6,22.3,5.8,22c-0.1-0.3-0.2-0.6-0.2-1v-4.8c0-0.3,0-0.5,0.1-0.8S6,15,6.2,14.8
		s0.4-0.3,0.6-0.4c0.2-0.1,0.5-0.2,0.8-0.2s0.5,0.1,0.8,0.2c0.2,0.1,0.5,0.2,0.6,0.4c0.2,0.2,0.3,0.4,0.4,0.7
		c0.1,0.3,0.2,0.5,0.2,0.8v0.5H8.4v-0.4c0-0.2-0.1-0.5-0.2-0.6c-0.1-0.2-0.3-0.3-0.6-0.3c-0.3,0-0.5,0.1-0.6,0.3s-0.2,0.4-0.2,0.7
		v4.4c0,0.3,0.1,0.5,0.2,0.6s0.3,0.3,0.6,0.3c0.1,0,0.2,0,0.3,0c0.1,0,0.2-0.1,0.3-0.1c0.1-0.1,0.1-0.2,0.2-0.3
		c0-0.1,0.1-0.3,0.1-0.4v-0.4h1.2V21.1z"/>
</g>
<g class="st2">
	<path class="st1" d="M15.2,16.8H14v-0.3c0-0.3-0.1-0.5-0.2-0.7s-0.4-0.3-0.7-0.3c-0.2,0-0.3,0-0.4,0.1c-0.1,0.1-0.2,0.1-0.3,0.2
		c-0.1,0.1-0.1,0.2-0.1,0.4c0,0.1,0,0.3,0,0.4c0,0.2,0,0.3,0,0.4s0,0.2,0.1,0.3c0,0.1,0.1,0.2,0.2,0.2c0.1,0.1,0.2,0.1,0.4,0.2
		l1,0.4c0.3,0.1,0.5,0.2,0.7,0.4c0.2,0.1,0.3,0.3,0.4,0.5c0.1,0.2,0.2,0.4,0.2,0.7c0,0.2,0,0.5,0,0.8c0,0.4,0,0.7-0.1,1
		s-0.2,0.6-0.4,0.8c-0.2,0.2-0.4,0.4-0.7,0.5s-0.6,0.2-1,0.2c-0.3,0-0.6-0.1-0.8-0.2c-0.3-0.1-0.5-0.3-0.7-0.4s-0.3-0.4-0.4-0.7
		S11,21.3,11,21v-0.5h1.2v0.4c0,0.2,0.1,0.4,0.2,0.6c0.1,0.2,0.4,0.3,0.7,0.3c0.2,0,0.4,0,0.5-0.1s0.2-0.1,0.3-0.3
		C14,21.3,14,21.2,14,21c0-0.2,0-0.3,0-0.5s0-0.4,0-0.6c0-0.1-0.1-0.3-0.1-0.4c-0.1-0.1-0.1-0.2-0.2-0.2c-0.1-0.1-0.2-0.1-0.4-0.2
		l-0.9-0.4c-0.5-0.2-0.9-0.5-1.1-0.9C11.1,17.4,11,17,11,16.4c0-0.3,0-0.6,0.1-0.9s0.2-0.5,0.4-0.8c0.2-0.2,0.4-0.4,0.7-0.5
		s0.6-0.2,0.9-0.2c0.3,0,0.6,0.1,0.8,0.2c0.3,0.1,0.5,0.3,0.7,0.5s0.3,0.4,0.4,0.6c0.1,0.2,0.1,0.5,0.1,0.7v0.8H15.2z"/>
</g>
<g class="st2">
	<path class="st1" d="M19.2,23h-1.1l-1.8-8.7h1.3l1,6.1l0,0l1-6.1H21L19.2,23z"/>
</g>
</svg>
