<?xml version="1.0" encoding="utf-8"?>
<!-- Generator: Adobe Illustrator 18.0.0, SVG Export Plug-In . SVG Version: 6.00 Build 0)  -->
<!DOCTYPE svg PUBLIC "-//W3C//DTD SVG 1.1//EN" "http://www.w3.org/Graphics/SVG/1.1/DTD/svg11.dtd">
<svg version="1.1" id="Layer_1" xmlns="http://www.w3.org/2000/svg" xmlns:xlink="http://www.w3.org/1999/xlink" x="0px" y="0px" viewBox="0 0 32 32" enable-background="new 0 0 32 32" xml:space="preserve" width="32px" height="32px" fill="#333">
<symbol id="Rx" viewBox="-11.1 -12.1 22 28">
	
		<use xlink:href="#generic-file" width="22px" height="28px" id="XMLID_11_" x="-11" y="-14" transform="matrix(1 0 0 1 -0.1055 1.9048)" overflow="visible"/>
	<path fill="#333333" d="M5.9-6.1H3.3l-2,2.7l-2.2-2.7h-1.6l3,3.7l-2.8,3.8h-0.4V-3h-2.4v9.9h3.7c0.6,0,1.2-0.1,1.7-0.2
		c0.5-0.1,0.9-0.3,1.2-0.6C1.7,5.9,2,5.6,2.1,5.3C2.2,5.1,2.3,5,2.3,4.8c0-0.2,0.1-0.4,0.1-0.6c0-0.3-0.1-0.5-0.2-0.8
		C2.1,3.2,1.9,2.9,1.8,2.7C1.6,2.5,1.3,2.3,1,2.2C0.8,2,0.4,1.8,0.1,1.7l1.8-2.4l1.8,2.2h1.6L2.6-1.7L5.9-6.1z M-2.2,2.4
		c0.3,0,0.5,0,0.8,0.1C-1.3,2.5-1.1,2.6-1,2.6c0.1,0.1,0.2,0.1,0.3,0.2C-0.5,3-0.4,3.2-0.3,3.4c0.1,0.2,0.1,0.5,0.1,0.8
		c0,0.3,0,0.5-0.1,0.7C-0.3,5-0.4,5.1-0.4,5.2c0,0.1-0.1,0.2-0.2,0.3c-0.1,0.1-0.1,0.1-0.2,0.2C-0.9,5.7-1,5.8-1.1,5.8
		c-0.2,0.1-0.4,0.2-0.6,0.2h-1V2.4H-2.2z"/>
</symbol>
<symbol id="generic-file" viewBox="-11 -14 22 28">
	<g>
		<polygon fill="#FFFFFF" points="-10.5,-13.5 -10.5,13.5 4.8,13.5 10.5,7.8 10.5,-13.5 		"/>
		<path fill="#333333" d="M4.6,13L10,7.6V-13h-20v26H4.6 M5,14h-16v-28h22V8L5,14L5,14z"/>
	</g>
	<polyline fill="none" stroke="#333333" stroke-miterlimit="10" points="11,7 4,7 4,14 	"/>
</symbol>
<use xlink:href="#Rx" width="22px" height="28px" id="XMLID_10_" x="-11.1" y="-12.1" transform="matrix(1 0 0 -1 16.1055 17.9043)" overflow="visible"/>
</svg>
