<?xml version="1.0" encoding="UTF-8"?>
<svg stroke-width="1px" width="32px" height="32px" fill="#333" viewBox="0 0 32 32" version="1.1" xmlns="http://www.w3.org/2000/svg" xmlns:xlink="http://www.w3.org/1999/xlink">
    <!-- Generator: Sketch 54.1 (76490) - https://sketchapp.com -->
    <title>icon/engine</title>
    <desc>Created with Sketch.</desc>
    <defs>
        <polygon id="path-1" points="0 0.000290909091 20.763 0.000290909091 20.763 23.7143273 0 23.7143273"></polygon>
    </defs>
    <g id="icon/engine" stroke="1px" stroke-width="1px" fill="#333" fill-rule="evenodd">
        <g id="Group-3" transform="translate(6.000000, 4.000000)">
            <mask id="mask-2" fill="white">
                <use xlink:href="#path-1"></use>
            </mask>
            <path d="M14.9205,1.65454545 L14.9205,5.62836364 L14.937,6.44 L15.6045,6.93163636 C17.7975,8.53672727 19.056,10.9861818 19.056,13.6472727 C19.056,18.2865455 15.16425,22.0596364 10.38225,22.0596364 C5.59875,22.0596364 1.70625,18.2865455 1.70625,13.6472727 C1.70625,10.9861818 2.96325,8.53672727 5.157,6.93163636 L5.8425,6.44 L5.8425,1.65454545 L14.9205,1.65454545 Z M15.77175,9.9475983e-14 L4.137,9.9475983e-14 L4.137,5.60509091 C1.50225,7.53527273 -3.57047725e-13,10.4632727 -3.57047725e-13,13.6472727 C-3.57047725e-13,19.1985455 4.656,23.7141818 10.38225,23.7141818 C16.104,23.7141818 20.763,19.1985455 20.763,13.6472727 C20.763,10.4632727 19.25625,7.53527273 16.63275,5.61309091 L16.6245,5.60509091 L16.6245,9.9475983e-14 L15.77175,9.9475983e-14 Z" id="Fill-1" fill="#333333" mask="url(#mask-2)"></path>
        </g>
    </g>
</svg>