<?xml version="1.0" encoding="UTF-8"?>
<svg width="32px" height="32px" fill="#333" viewBox="0 0 32 32" version="1.1" xmlns="http://www.w3.org/2000/svg" xmlns:xlink="http://www.w3.org/1999/xlink">
    <!-- Generator: Sketch 54.1 (76490) - https://sketchapp.com -->
    <title>icon/transmission</title>
    <desc>Created with Sketch.</desc>
    <g id="icon/transmission" stroke="1px" stroke-width="1px" fill="#333" fill-rule="evenodd">
        <g id="Group-3" transform="translate(4.000000, 4.000000)" fill="#333333">
            <path d="M11.8536727,19.9176 C7.29876364,19.9176 3.60567273,16.2288727 3.60567273,11.6725091 C3.60567273,7.11905455 7.29876364,3.42741818 11.8536727,3.42741818 C16.4078545,3.42741818 20.0994909,7.11905455 20.0994909,11.6725091 C20.0994909,16.2288727 16.4078545,19.9176 11.8536727,19.9176 M21.6827636,12.7896 L23.7045818,12.3212364 L23.7045818,11.0237818 L21.6827636,10.5583273 C21.6696727,10.1888727 21.5700364,9.78087273 21.5249455,9.53432727 C21.4594909,9.29432727 21.3867636,8.87614545 21.2405818,8.53650909 L22.8594909,7.23832727 L22.2464,5.96196364 L20.2202182,6.4136 C20.0471273,6.08923636 19.7794909,5.76269091 19.6333091,5.55832727 C19.4704,5.37141818 19.2245818,5.02596364 18.9460364,4.78232727 L19.8456727,2.91469091 L18.7373091,2.02669091 L17.1104,3.31396364 C16.8122182,3.09214545 16.4296727,2.91469091 16.2093091,2.79687273 C15.9802182,2.69578182 15.6107636,2.48996364 15.2544,2.39541818 L15.2544,0.320509091 L13.8725818,-0.000218181818 L12.9605818,1.86378182 C12.5998545,1.79396364 12.1009455,1.7896 11.8522182,1.79541818 C11.6042182,1.7896 11.1053091,1.79396364 10.7445818,1.86378182 L9.83112727,-0.000218181818 L8.45076364,0.320509091 L8.45076364,2.39541818 C8.09512727,2.48996364 7.72349091,2.69578182 7.4944,2.79687273 C7.27476364,2.91469091 6.89076364,3.09214545 6.5984,3.31396364 L4.96567273,2.02669091 L3.85949091,2.91469091 L4.75912727,4.78232727 C4.47985455,5.02596364 4.23476364,5.37141818 4.0704,5.55832727 C3.92349091,5.76269091 3.65658182,6.08923636 3.48494545,6.4136 L1.45803636,5.96196364 L0.843490909,7.23832727 L2.46312727,8.53650909 C2.31694545,8.87614545 2.2464,9.29432727 2.17876364,9.53432727 C2.13367273,9.78087273 2.05149091,10.1176 2.0384,10.4863273 L-0.000145454546,10.9728727 L-0.000145454546,12.3750545 L2.0384,12.8608727 C2.05149091,13.2288727 2.13367273,13.5685091 2.17876364,13.8114182 C2.2464,14.0543273 2.31694545,14.4717818 2.46312727,14.8085091 L0.843490909,16.1066909 L1.45803636,17.3852364 L3.48494545,16.9306909 C3.65658182,17.2586909 3.92349091,17.5859636 4.0704,17.7866909 C4.23476364,17.9757818 4.47985455,18.3190545 4.75912727,18.5597818 L3.85949091,20.4332364 L4.96567273,21.3183273 L6.5984,20.0339636 C6.89076364,20.2514182 7.27476364,20.4303273 7.4944,20.5503273 C7.72349091,20.6492364 8.09512727,20.8536 8.45076364,20.9517818 L8.45076364,23.0266909 L9.83112727,23.3452364 L10.7445818,21.4797818 C11.1053091,21.5539636 11.6042182,21.5568727 11.8522182,21.5496 C12.1009455,21.5568727 12.5998545,21.5539636 12.9605818,21.4797818 L13.8725818,23.3452364 L15.2544,23.0266909 L15.2544,20.9517818 C15.6107636,20.8536 15.9802182,20.6492364 16.2093091,20.5503273 C16.4296727,20.4303273 16.8122182,20.2514182 17.1104,20.0339636 L18.7373091,21.3183273 L19.8456727,20.4332364 L18.9460364,18.5597818 C19.2245818,18.3190545 19.4704,17.9757818 19.6333091,17.7866909 C19.7794909,17.5859636 20.0471273,17.2586909 20.2202182,16.9306909 L22.2464,17.3852364 L22.8594909,16.1066909 L21.2405818,14.8085091 C21.3867636,14.4717818 21.4594909,14.0543273 21.5249455,13.8114182 C21.5700364,13.5685091 21.6696727,13.1561455 21.6827636,12.7896" id="Fill-1"></path>
        </g>
    </g>
</svg>