<?xml version="1.0" encoding="UTF-8"?>
<svg width="32px" height="32px" fill="#333" viewBox="0 0 32 32" version="1.1" xmlns="http://www.w3.org/2000/svg" xmlns:xlink="http://www.w3.org/1999/xlink">
    <!-- Generator: Sketch 54.1 (76490) - https://sketchapp.com -->
    <title>icon/PTO</title>
    <desc>Created with Sketch.</desc>
    <g id="icon/PTO" stroke="1px" stroke-width="1px" fill="#333" fill-rule="evenodd">
        <g id="Group" transform="translate(0.000000, 5.000000)" fill="#333333">
            <path d="M1.89747224,19.934318 L1.89747224,3.85205252 C1.89747224,3.31551908 2.32837231,2.87972876 2.85981573,2.87972876 L29.1091897,2.87972876 C29.6421451,2.87972876 30.0722892,3.31551908 30.0722892,3.85205252 L30.0722892,19.934318 L32,19.9282124 L32,2.87514953 C32,1.80284586 31.1366879,0.934318039 30.076069,0.934318039 L1.92544295,0.934318039 C0.861044177,0.934318039 0,1.80284586 0,2.87514953 L0,19.9282124 L1.89747224,19.934318 Z" id="Fill-1"></path>
            <path d="M16.4996099,15.9613662 C14.5490247,15.9613662 12.9721717,14.3829526 12.9721717,12.4339279 C12.9721717,10.4856834 14.5490247,8.90726992 16.4996099,8.90726992 C18.4462939,8.90726992 20.0247074,10.4856834 20.0247074,12.4339279 C20.0247074,14.3829526 18.4462939,15.9613662 16.4996099,15.9613662 L16.4996099,15.9613662 Z M24,13.4287264 L24,11.4399097 L21.9269181,11.4445911 C21.8013004,10.6081802 21.4657997,9.89660673 21.0569571,9.28802415 L22.5050715,7.83600855 L21.09987,6.43080699 L19.5986996,7.88438306 C18.9807542,7.46305666 18.2551365,7.13769905 17.5006502,6.99335575 L17.4912874,4.93431804 L15.5040312,4.93431804 L15.4931079,6.98243247 C14.7058518,7.04095003 13.9435631,7.40141817 13.3404421,7.87267955 L11.8977893,6.43080699 L10.4941482,7.83600855 L11.973472,9.31845328 C11.4686606,9.93561843 11.1331599,10.7158525 11.0777633,11.4484923 L9,11.4399097 L9,13.4287264 L11.1128739,13.4271659 C11.2088427,14.2557745 11.5849155,14.954084 11.9945384,15.5517433 L10.4941482,17.0326275 L11.8977893,18.44095 L13.4223667,16.9421204 C14.0262679,17.4094806 14.7940182,17.7699487 15.5009103,17.8464117 L15.5040312,19.934318 L17.4912874,19.934318 L17.4944083,17.8768408 C18.2473342,17.7324975 18.9893368,17.4219643 19.6096229,16.9998577 L21.09987,18.44095 L22.5050715,17.0326275 L21.0273082,15.5634468 C21.5243173,14.9330176 21.773212,14.2011581 21.9214564,13.4373089 L24,13.4287264 Z" id="Fill-2"></path>
        </g>
    </g>
</svg>