<?xml version="1.0" encoding="UTF-8"?>
<svg width="32px" height="32px" fill="#333" viewBox="0 0 32 32" version="1.1" xmlns="http://www.w3.org/2000/svg" xmlns:xlink="http://www.w3.org/1999/xlink">
    <!-- Generator: Sketch 54.1 (76490) - https://sketchapp.com -->
    <title>icon/scv</title>
    <desc>Created with Sketch.</desc>
    <defs>
        <polygon id="path-1" points="8e-05 0.000392 31.2464 0.000392 31.2464 7.282792 8e-05 7.282792"></polygon>
    </defs>
    <g id="icon/scv" stroke="1px" stroke-width="1px" fill="#333" fill-rule="evenodd">
        <g id="Group-3" transform="translate(0.000000, 12.000000)">
            <mask id="mask-2" fill="white">
                <use xlink:href="#path-1"></use>
            </mask>
            <path d="M28.74568,4.565512 C28.24008,4.565512 27.83448,4.157512 27.83448,3.654312 C27.83448,3.150312 28.24008,2.743112 28.74568,2.743112 C29.24648,2.743112 29.65448,3.150312 29.65448,3.654312 C29.65448,4.157512 29.24648,4.565512 28.74568,4.565512 L28.74568,4.565512 Z M12.87768,5.460712 L25.55448,5.460712 L25.55448,1.821512 L12.87768,1.821512 L12.87768,5.460712 Z M2.50168,4.563112 C2.00008,4.563112 1.59208,4.155912 1.59208,3.652712 C1.59208,3.148712 2.00008,2.740712 2.50168,2.740712 C3.00648,2.740712 3.41208,3.148712 3.41208,3.652712 C3.41208,4.155912 3.00648,4.563112 2.50168,4.563112 L2.50168,4.563112 Z M28.74568,1.151912 L27.37448,1.145512 L27.37848,-8.8e-05 L10.93528,-8.8e-05 L10.94568,2.729512 L5.00088,2.729512 L5.00248,1.143912 L2.50168,1.150312 C1.11688,1.150312 8e-05,2.270312 8e-05,3.652712 C8e-05,5.034312 1.11688,6.155912 2.50168,6.155912 L5.00248,6.162312 L5.00088,4.531112 L10.94568,4.533512 L10.93528,7.283112 L27.37848,7.283112 L27.37448,6.162312 L28.74568,6.160712 C30.12648,6.160712 31.24648,5.035912 31.24648,3.654312 C31.24648,2.271912 30.12648,1.151912 28.74568,1.151912 L28.74568,1.151912 Z" id="Fill-1" fill="#333333" mask="url(#mask-2)"></path>
        </g>
    </g>
</svg>