<?xml version="1.0" encoding="UTF-8"?>
<svg width="32px" height="32px" viewBox="0 0 32 32" fill="#333" version="1.1" xmlns="http://www.w3.org/2000/svg" xmlns:xlink="http://www.w3.org/1999/xlink">
    <!-- Generator: Sketch 55.2 (78181) - https://sketchapp.com -->
    <title>icon/Front Hitch</title>
    <desc>Created with Sketch.</desc>
    <defs>
        <polygon id="path-1" points="0 23.8250909 26.9345455 23.8250909 26.9345455 -0.000363636364 0 -0.000363636364"></polygon>
    </defs>
    <g id="icon/Front-Hitch" stroke="1px" stroke-width="1px" fill="#333" fill-rule="evenodd">
        <g id="Group-9" transform="translate(15.818182, 16.000000) scale(-1, 1) translate(-15.818182, -16.000000) translate(2.000000, 4.000000)">
            <path d="M20.4690909,4.46858182 C20.9956364,3.79730909 20.9490909,2.82494545 20.3330909,2.20894545 C19.7149091,1.59076364 18.7418182,1.54421818 18.0734545,2.06930909 L3.24436364,15.0896727 C3.16436364,15.1558545 3.08290909,15.2271273 3.00727273,15.3034909 C1.83927273,16.4714909 1.83927273,18.3631273 3.00727273,19.5296727 C4.17163636,20.6969455 6.06545455,20.6969455 7.23345455,19.5296727 C7.30909091,19.4533091 7.37963636,19.3733091 7.44654545,19.2911273 L20.4690909,4.46858182 Z M8.65745455,20.5020364 C8.58836364,20.5827636 8.51563636,20.6605818 8.44072727,20.7369455 C6.60509091,22.5718545 3.63418182,22.5718545 1.79709091,20.7369455 C-0.0356363636,18.9034909 -0.0356363636,15.9289455 1.79709091,14.0962182 C1.87563636,14.0198545 1.952,13.9456727 2.03272727,13.8765818 L16.8610909,0.857672727 C18.2007273,-0.332145455 20.256,-0.284145455 21.5396364,1.00094545 C22.8225455,2.28385455 22.8712727,4.33767273 21.6821818,5.67730909 L8.65745455,20.5020364 Z" id="Fill-1" fill="#333333"></path>
            <path d="M18.5212364,4.01978182 C18.8550545,4.35287273 19.3946909,4.35287273 19.7292364,4.01978182 C20.0594182,3.68596364 20.0594182,3.1456 19.7292364,2.81250909 C19.3946909,2.47869091 18.8550545,2.47869091 18.5212364,2.81250909 C18.1866909,3.1456 18.1866909,3.68596364 18.5212364,4.01978182" id="Fill-3" fill="#333333"></path>
            <path d="M4.21476364,18.3221818 C4.71367273,18.8218182 5.52385455,18.8218182 6.02567273,18.3221818 C6.52385455,17.8232727 6.52385455,17.0109091 6.02567273,16.5112727 C5.52385455,16.0116364 4.71367273,16.0116364 4.21476364,16.5112727 C3.71367273,17.0109091 3.71367273,17.8232727 4.21476364,18.3221818 M3.60821818,15.9076364 C4.44312727,15.0749091 5.79367273,15.0749091 6.63003636,15.9076364 C7.46203636,16.7410909 7.46203636,18.0938182 6.63003636,18.9258182 C5.79367273,19.76 4.44312727,19.76 3.60821818,18.9258182 C2.77549091,18.0938182 2.77549091,16.7410909 3.60821818,15.9076364" id="Fill-5" fill="#333333"></path>
            <mask id="mask-2" fill="white">
                <use xlink:href="#path-1"></use>
            </mask>
            <polygon id="Fill-7" fill="#333333" mask="url(#mask-2)" points="0 23.8250909 26.9345455 23.8250909 26.9345455 22.9705455 0 22.9705455"></polygon>
        </g>
    </g>
</svg>