<?xml version="1.0" encoding="utf-8"?>
<!-- Generator: Adobe Illustrator 21.1.0, SVG Export Plug-In . SVG Version: 6.00 Build 0)  -->
<svg version="1.0" id="Layer_1" xmlns="http://www.w3.org/2000/svg" xmlns:xlink="http://www.w3.org/1999/xlink" x="0px" y="0px" viewBox="0 0 70 70" style="enable-background:new 0 0 70 70;" xml:space="preserve" width="70px" height="70px" fill="#333">
<style type="text/css">
	.paper{fill:#FFFFFF;}
	.clip1{fill:#C1C1C1;}
	.clip2{fill:#999999;}
	.clip3{fill:#828181;}
	.board{fill:url(#SVGID_1_);}
	.highlight{opacity:0.3;fill:#FFFFFF;enable-background:new    ;}
	.grain{fill:none;stroke:#402D0B;stroke-miterlimit:10;}
	.st0{fill:url(#Shape_1_);}
	.st1{fill:#0099DB;stroke:#FFFFFF;stroke-width:2;stroke-linecap:round;stroke-linejoin:round;stroke-miterlimit:10;}
	.st2{fill:#99CCFF;stroke:#FFFFFF;stroke-width:2;stroke-linecap:round;stroke-linejoin:round;stroke-miterlimit:10;}
	.st3{fill:#FFDF99;stroke:#FFFFFF;stroke-width:2;stroke-linecap:round;stroke-linejoin:round;stroke-miterlimit:10;}
	.st4{fill:#FFCC66;stroke:#FFFFFF;stroke-width:2;stroke-linecap:round;stroke-linejoin:round;stroke-miterlimit:10;}
	.st5{fill:#FFAF00;stroke:#FFFFFF;stroke-width:2;stroke-linecap:round;stroke-linejoin:round;stroke-miterlimit:10;}
</style>
<linearGradient id="SVGID_1_" gradientUnits="userSpaceOnUse" x1="-828" y1="756" x2="-827.3572" y2="756.7661">
	<stop  offset="0" style="stop-color:#896200"/>
	<stop  offset="1" style="stop-color:#501C00"/>
</linearGradient>
<linearGradient id="Shape_1_" gradientUnits="userSpaceOnUse" x1="-3265.6453" y1="-0.0878" x2="-3264.7546" y2="0.9735" gradientTransform="matrix(70 0 0 70 228599 4)">
	<stop  offset="0" style="stop-color:#896200"/>
	<stop  offset="1" style="stop-color:#501C00"/>
</linearGradient>
<path id="Shape_12_" class="st0" d="M68,69.997H2c-1.1,0-2-0.9-2-2v-66c0-1.1,0.9-2,2-2h66c1.1,0,2,0.9,2,2v66
	C70,69.097,69.1,69.997,68,69.997z"/>
<path class="grain" d="M2.6-0.003c0,6.9,4,5.4,4,23.8c0,8-3.1,14.8-3.1,24.6v21.6 M0,38.997c1.9,0,3.5-7.4,3.5-16.5
	S1.9,5.997,0,5.997 M5.9,69.997v-18.4c0-10.9,5.6-20.8,5.6-32.4s-3.6-12.1-3.6-15.7v-3.5 M64.8,69.997c0-10.1,2.2-10.5,2.2-22.1
	s-7.9-11.1-7.9-34.9v-13 M15.2,69.997v-70 M18-0.003v70 M39.5-0.003v70 M36.7-0.003v70 M28.6-0.003v70 M56.1,69.997v-70
	 M48.1,69.997v-70 M63.4,0.097c0,15.6,0.8,28.1,1.8,28.1s1.8-12.5,1.8-28.1"/>
<rect id="Rectangle-path_2_" x="9" y="8.997" class="paper" width="52px" height="53px"/>
<path id="Shape_11_" class="clip1" d="M27.8,2.997c0,0-11.8,4-11.8,10v1h38v-1c0-6-11.8-10-11.8-10H27.8z"/>
<path id="Shape_8_" class="clip2" d="M39.4,6.997h-9.8c-0.9,0-1.6,0.6-1.6,1.5c0,0.9,0.7,1.5,1.6,1.5h9.8c0.9,0,1.6-0.6,1.6-1.5
	S40.3,6.997,39.4,6.997z"/>
<path id="Shape_7_" class="clip3" d="M54,13.997H16v-1h38V13.997z"/>
<path id="Shape_3_" class="highlight" d="M0,2.997c0-1.1,0.9-2,2-2h66c1.1,0,2,0.9,2,2v-1c0-1.1-0.9-2-2-2H2c-1.1,0-2,0.9-2,2V2.997
	z"/>
<path id="Shape_2_" class="clip3" d="M29.6,7.997h9.8c0.7,0,1.3,0.4,1.5,1c0.1-0.2,0.1-0.3,0.1-0.5c0-0.9-0.7-1.5-1.6-1.5h-9.8
	c-0.9,0-1.6,0.6-1.6,1.5c0,0.2,0,0.3,0.1,0.5C28.3,8.397,28.9,7.997,29.6,7.997z"/>
<g>
	<g>
		<g>
			<g>
				<path class="st1" d="M35,38.029H17.5c0-9.665,7.835-17.5,17.5-17.5l0,0V38.029z"/>
			</g>
		</g>
		<g>
			<g>
				<path class="st2" d="M35,38.029L20.842,48.316c-2.272-3.128-3.342-6.42-3.342-10.286H35z"/>
			</g>
		</g>
		<g>
			<g>
				<path class="st3" d="M35,38.029l5.408,16.643c-7.354,2.389-15.021-0.102-19.566-6.357L35,38.029z"/>
			</g>
		</g>
		<g>
			<g>
				<path class="st4" d="M35,38.029l16.643,5.408c-1.792,5.515-5.721,9.444-11.236,11.236L35,38.029z"/>
			</g>
		</g>
		<g>
			<g>
				<path class="st5" d="M35,38.029v-17.5c9.665,0,17.5,7.835,17.5,17.5c0,1.933-0.259,3.569-0.857,5.408L35,38.029z"/>
			</g>
		</g>
	</g>
</g>
</svg>
