<?xml version="1.0" encoding="utf-8"?>
<!-- Generator: Adobe Illustrator 21.1.0, SVG Export Plug-In . SVG Version: 6.00 Build 0)  -->
<svg version="1.0" id="icon-mixed-fleet-solutions-cover" xmlns="http://www.w3.org/2000/svg" xmlns:xlink="http://www.w3.org/1999/xlink" x="0px" y="0px" viewBox="0 0 70 70" style="enable-background:new 0 0 70 70;" xml:space="preserve" width="70px" height="70px" fill="#333">
<style type="text/css">
	.st0{fill:#4D4D4D;}
	.st1{fill:url(#SVGID_1_);}
	.st2{fill:#FFCC22;}
	.st3{opacity:0.3;fill:#333333;enable-background:new    ;}
	.st4{opacity:0.3;fill:#FFFFFF;enable-background:new    ;}
</style>
<path class="st0" d="M68,70H2c-1.1,0-2-0.9-2-2V2c0-1.1,0.9-2,2-2h66c1.1,0,2,0.9,2,2v66C70,69.1,69.1,70,68,70z"/>
<radialGradient id="SVGID_1_" cx="34.9033" cy="-661.0967" r="33.1153" gradientTransform="matrix(1 0 0 -1 0 -626)" gradientUnits="userSpaceOnUse">
	<stop  offset="0.5095" style="stop-color:#3D3D3D"/>
	<stop  offset="0.9996" style="stop-color:#7C7C7C"/>
</radialGradient>
<circle class="st1" cx="35" cy="35" r="27.1"/>
<path class="st2" d="M26.4,38.9c-0.8-1.5-1.4-3.3-1.4-5.2c0-5.5,4.4-10,10-10s10,4.4,10,10c0,1.9-0.5,3.8-1.5,5.2l0.7,1.7
	c1.5-1.9,2.4-4.3,2.4-7.1c0.4-6.2-5-11.3-11.3-11.3s-11.7,5.2-11.7,11.7c0,2.5,0.8,5,2.3,6.9L26.4,38.9z M39.1,37.6
	c0.8-0.8,1.4-2.3,1.4-3.6c0-2.9-2.4-5.3-5.3-5.3c-2.9,0-5.3,2.4-5.3,5.3c0,1.4,0.5,2.5,1.2,3.6L19.3,65.2h5.3l1.5-3.8L41.7,57
	l3.4,8.2h5.3L39.1,37.6z M34.9,40.5l2.4,5.8L33,45.1L34.9,40.5z M32.4,46.6l4.8,1.4l-6.5,2.4L32.4,46.6z M27,59.3l2.5-6.2l10.6,2.4
	L27,59.3z M31.6,51.8l7.1-2.5l1.9,4.6L31.6,51.8z M49.6,25.4l-1.1,1.1c-1.1-2.1-2.7-3.8-4.6-5.2l1.1-1.1
	C46.9,21.7,48.4,23.5,49.6,25.4z M50.8,40.1c-0.9,2.4-2.4,4.5-4.1,6.2L46,44.8c1.6-1.6,2.8-3.7,3.6-5.8L50.8,40.1z M21.3,23.8
	c1-1.4,2.3-2.5,3.6-3.6l1.3,1.3c-1.4,1-2.5,2.3-3.6,3.6L21.3,23.8z M21.1,39.9c0.8,1.7,1.8,3.3,3,4.6L23.4,46
	c-1.5-1.4-2.7-3.1-3.6-4.9L21.1,39.9z M17.5,39.4H7.6c-1.4,0-2.5-1.1-2.5-2.5v-10c0-1.4,1.1-2.5,2.5-2.5h9.9c1.4,0,2.5,1.1,2.5,2.5
	v9.9C20.1,38.1,18.9,39.4,17.5,39.4z M56.4,23.8c4.4,0,8,3.6,8,8s-3.6,8-8,8s-8-3.6-8-8S52,23.8,56.4,23.8z M34,6.8l-7.2,12
	c-0.4,0.7,0.1,1.6,0.9,1.6h14.4c0.8,0,1.3-0.8,0.9-1.6l-7.2-12C35.5,6.1,34.5,6.1,34,6.8z"/>
<path class="st3" d="M0,67c0,1.1,0.9,2,2,2h66c1.1,0,2-0.9,2-2v1c0,1.1-0.9,2-2,2H2c-1.1,0-2-0.9-2-2V67z"/>
<path class="st4" d="M0,3c0-1.1,0.9-2,2-2h66c1.1,0,2,0.9,2,2V2c0-1.1-0.9-2-2-2H2C0.9,0,0,0.9,0,2V3z"/>
</svg>
