<?xml version="1.0" encoding="utf-8"?>
<!-- Generator: Adobe Illustrator 19.1.0, SVG Export Plug-In . SVG Version: 6.00 Build 0)  -->
<!DOCTYPE svg PUBLIC "-//W3C//DTD SVG 1.1//EN" "http://www.w3.org/Graphics/SVG/1.1/DTD/svg11.dtd">
<svg version="1.1" id="Layer_1" xmlns="http://www.w3.org/2000/svg" xmlns:xlink="http://www.w3.org/1999/xlink" x="0px" y="0px" viewBox="0 0 70 70" enable-background="new 0 0 70 70" xml:space="preserve" width="70px" height="70px" fill="#333">
<path fill="#D2D2D2" d="M70,68c0,1.1-0.9,2-2,2H2c-1.1,0-2-0.9-2-2V2c0-1.1,0.9-2,2-2h66c1.1,0,2,0.9,2,2V68z"/>
    <linearGradient id="SVGID_1_" gradientUnits="userSpaceOnUse" x1="0" y1="35" x2="46" y2="35">
        <stop offset="0" style="stop-color:#101010"/>
        <stop offset="1" style="stop-color:#2E2E2E"/>
    </linearGradient>
<path fill="url(#SVGID_1_)" d="M46,70H2c-1.1,0-2-0.9-2-2V2c0-1.1,0.9-2,2-2h44"/>
<rect y="13" width="46px" height="44px"/>
<rect y="13" fill="#555555" width="46px" height="1px"/>
<rect y="56" fill="#555555" width="46px" height="1px"/>
<path fill="#FFFFFF" d="M54,33c-0.8,0-2-1.2-2-2V9c0-0.8,1.2-1,2-1h15.5l0,25H54z"/>
<path fill="#B0B0B0" d="M69,8l0,24H54c-0.6,0-1-0.4-1-1V9c0-0.6,0.4-1,1-1H69 M70,7H54c-1.1,0-2,0.9-2,2v22c0,1.1,0.9,2,2,2h16L70,7L70,7z"/>
<path fill="#FFFFFF" d="M54,63c-0.8,0-2-1.2-2-2V39c0-0.8,1.2-1,2-1h15.5l0,25H54z"/>
<path fill="#B0B0B0" d="M69,38l0,24H54c-0.6,0-1-0.4-1-1V39c0-0.6,0.4-1,1-1H69 M70,37H54c-1.1,0-2,0.9-2,2v22c0,1.1,0.9,2,2,2h16L70,37L70,37z"/>
<rect x="50" y="3" fill="none" width="20px" height="63px"/>
<path fill="#47B5DF" d="M23,20c-5.5,0-10,4.5-10,10c0,3.9,2.3,7.3,5.6,9l4.6,11.8L28,38.7c3-1.7,5-5,5-8.7C33,24.5,28.5,20,23,20zM23,35c-2.8,0-5-2.2-5-5s2.2-5,5-5s5,2.2,5,5S25.8,35,23,35z"/>
    <radialGradient id="SVGID_2_" cx="23.3333" cy="23" r="65.29" fx="-4.9174" fy="23" gradientUnits="userSpaceOnUse">
        <stop offset="0" style="stop-color:#FFFFFF;stop-opacity:0.1"/>
        <stop offset="1" style="stop-color:#FFFFFF;stop-opacity:0"/>
    </radialGradient>
<path fill="url(#SVGID_2_)" d="M68,70H2c-1.1,0-2-0.9-2-2V2c0-1.1,0.9-2,2-2h66c1.1,0,2,0.9,2,2v66C70,69.1,69.1,70,68,70z"/>
<rect x="68" y="38" fill="#FFFFFF" width="2px" height="24px"/>
<rect x="68" y="8" fill="#FFFFFF" width="2px" height="24px"/>
    <linearGradient id="SVGID_3_" gradientUnits="userSpaceOnUse" x1="65" y1="35" x2="70" y2="35">
        <stop offset="0" style="stop-color:#FFFFFF;stop-opacity:0"/>
        <stop offset="1" style="stop-color:#232323;stop-opacity:0.2"/>
    </linearGradient>
<path fill="url(#SVGID_3_)" d="M65,0h3c1.1,0,2,0.9,2,2v66c0,1.1-0.9,2-2,2h-3V0z"/>
<path opacity="0.6" d="M46,70H2c-1.1,0-2-0.9-2-2v-1c0,1.1,0.9,2,2,2h44"/>
<path opacity="0.1" d="M46,69h22c1.1,0,2-0.9,2-2v1c0,1.1-0.9,2-2,2H46"/>
<path opacity="0.5" fill="#FFFFFF" d="M46,1h22c1.1,0,2,0.9,2,2V2c0-1.1-0.9-2-2-2H46"/>
<path opacity="0.1" fill="#FFFFFF" d="M47,0H2C0.9,0,0,0.9,0,2v1c0-1.1,0.9-2,2-2h45"/>
</svg>