<svg version="1.1" id="Layer_1" xmlns="http://www.w3.org/2000/svg" xmlns:xlink="http://www.w3.org/1999/xlink" x="0px" y="0px" viewBox="0 0 70 70" enable-background="new 0 0 70 70" xml:space="preserve" width="70px" height="70px" fill="#333">

  <path fill="#FFFFFF" d="M70,68c0,1.1-0.9,2-2,2H2c-1.1,0-2-0.9-2-2V2c0-1.1,0.9-2,2-2h66c1.1,0,2,0.9,2,2V68z"/>

  <linearGradient id="SVGID_1_" gradientUnits="userSpaceOnUse" x1="35" y1="56" x2="35" y2="-1.482476e-09">
    <stop offset="0" style="stop-color:#DFDFDF"/>
    <stop offset="1" style="stop-color:#F0F0F0"/>
  </linearGradient>
  <path fill="url(#SVGID_1_)" d="M70,54c0,1.1-0.9,2-2,2H2c-1.1,0-2-0.9-2-2V2c0-1.1,0.9-2,2-2h66c1.1,0,2,0.9,2,2V54z"/>

  <path opacity="0.5" d="M0,52c0,1.1,0.9,2,2,2h66c1.1,0,2-0.9,2-2v2c0,1.1-0.9,2-2,2H2c-1.1,0-2-0.9-2-2L0,52z"/>

  <ellipse fill="#46813D" cx="56.5" cy="61.5" rx="3.5" ry="2.5"/>

  <path fill="#ACACAC" d="M33,61H11c-1.1,0-2,0.4-2,1c0,0.6,0.9,1,2,1h22c1.1,0,2-0.4,2-1C35,61.4,34.1,61,33,61z"/>
  <linearGradient id="SVGID_2_" gradientUnits="userSpaceOnUse" x1="34.5013" y1="15" x2="34.5013" y2="6">
    <stop offset="0" style="stop-color:#BDBDBD"/>
    <stop offset="0.2654" style="stop-color:#B4B4B4"/>
    <stop offset="0.6969" style="stop-color:#9C9C9C"/>
    <stop offset="0.8" style="stop-color:#959595"/>
  </linearGradient>
  <path fill="url(#SVGID_2_)" d="M34.5,15C44.7,15,51,12.4,51,10.5S44.7,6,34.5,6S18,8.6,18,10.5S24.3,15,34.5,15z"/>

  <linearGradient id="SVGID_3_" gradientUnits="userSpaceOnUse" x1="34.5" y1="24" x2="34.5" y2="13">
    <stop offset="0" style="stop-color:#BDBDBD"/>
    <stop offset="0.2654" style="stop-color:#B4B4B4"/>
    <stop offset="0.6969" style="stop-color:#9C9C9C"/>
    <stop offset="0.8" style="stop-color:#959595"/>
  </linearGradient>
  <path fill="url(#SVGID_3_)" d="M34.5,17C24.4,17,21,15.4,17,13v6.5C17,22,25.2,24,34.5,24c9.3,0,17.5-2,17.5-4.5V13
	C48,15.4,44.6,17,34.5,17z"/>

  <linearGradient id="SVGID_4_" gradientUnits="userSpaceOnUse" x1="34.5" y1="33" x2="34.5" y2="22">
    <stop offset="0" style="stop-color:#BDBDBD"/>
    <stop offset="0.2654" style="stop-color:#B4B4B4"/>
    <stop offset="0.6969" style="stop-color:#9C9C9C"/>
    <stop offset="0.8" style="stop-color:#959595"/>
  </linearGradient>
  <path fill="url(#SVGID_4_)" d="M34.5,26C24.4,26,21,24.4,17,22v6.5C17,31,25.2,33,34.5,33c9.3,0,17.5-2,17.5-4.5V22
	C48,24.4,44.6,26,34.5,26z"/>

	<rect x="2" y="56" opacity="0.2" width="66px" height="2px"/>

	<path fill="#323232" d="M66,66l2-10c1.1,0,2-0.9,2-2v14c0,1.1-0.9,2-2,2H2c-1.1,0-2-0.9-2-2l0-3l0-11c0,1.1,0.9,2,2,2l3,10
		c0,0.6,0.4,1,1,1h59C65.6,67,66,66.6,66,66z M33,61H11c-1.1,0-2,0.4-2,1c0,0.6,0.9,1,2,1h22c1.1,0,2-0.4,2-1
		C35,61.4,34.1,61,33,61z"/>

	<path fill="#EFAF13" d="M21,45c-7,0-12,4-12,4s4-5,11-5L21,45z"/>
	<path fill="#46813D" d="M60,61.5c0,1.4-1.6,2.5-3.5,2.5S53,62.9,53,61.5s1.6-2.5,3.5-2.5S60,60.1,60,61.5z M50,47h3l2.2-2L54,44
		L50,47z M67,50h-3L50,40h3l3.2,2.3L59,40h3l-4.3,3.3L67,50z M23,47l-4.9-5.7L6,50H3l14-10h3l6,7H23z M38,42c0,1.5-1.5,2-3,2h-5v-1
		h5c1,0,2-0.2,2-1c0-0.8-1-1-2-1h-6v6h-2v-7h1h1h6C36.5,40,38,40.5,38,42z M49,41h-8v5h8v1H39v-7h10V41z M47,44v-1h-5v1H47z"/>

	<radialGradient id="SVGID_Finish_" cx="23.3333" cy="23" r="65.29" fx="-4.9174" fy="23" gradientUnits="userSpaceOnUse">
    <stop offset="0" style="stop-color:#FFFFFF;stop-opacity:0.1"/>
    <stop offset="1" style="stop-color:#FFFFFF;stop-opacity:0"/>
  </radialGradient>
  <path fill="url(#SVGID_Finish_)" d="M68,70H2c-1.1,0-2-0.9-2-2V2c0-1.1,0.9-2,2-2h66c1.1,0,2,0.9,2,2v66C70,69.1,69.1,70,68,70z"/>
  <path opacity="0.3" fill="#FFFFFF" d="M0,3c0-1.1,0.9-2,2-2h66c1.1,0,2,0.9,2,2V2c0-1.1-0.9-2-2-2H2C0.9,0,0,0.9,0,2V3z"/>

</svg>
