<?xml version="1.0" encoding="utf-8"?>
<!-- Generator: Adobe Illustrator 19.2.1, SVG Export Plug-In . SVG Version: 6.00 Build 0)  -->
<!DOCTYPE svg PUBLIC "-//W3C//DTD SVG 1.1//EN" "http://www.w3.org/Graphics/SVG/1.1/DTD/svg11.dtd">
<svg version="1.1" xmlns="http://www.w3.org/2000/svg" xmlns:xlink="http://www.w3.org/1999/xlink" x="0px" y="0px" viewBox="0 0 70 70" enable-background="new 0 0 70 70" xml:space="preserve" width="70px" height="70px" fill="#333">
<symbol id="America" viewBox="-12.1 -14 24.3 28">
    <g>
        <g>
            <path fill="#333333" d="M7.7,1.2c0-0.6,0.2-1.1,0.3-1.6c0.2-0.5,0.4-1,0.6-1.4C8.8-2.2,9-2.6,9.3-3c0.3-0.4,0.5-0.7,0.8-0.9
                c0.6-0.7,1.3-1.2,2.1-1.7v-3h-24.3v3c0.8,0.4,1.5,1,2.1,1.7C-9.8-3.7-9.5-3.3-9.2-3C-9-2.6-8.7-2.2-8.5-1.8
                C-8.3-1.4-8.1-0.9-8-0.4c0.2,0.5,0.3,1.1,0.3,1.6v2.6c0,0.9,0.2,1.7,0.5,2.5c0.3,0.8,0.7,1.5,1.2,2.1C-5.4,9-4.8,9.6-4.1,10
                c0.7,0.4,1.4,0.8,2.2,1v1.1c0,0.3,0,0.5,0.1,0.7c0.1,0.2,0.2,0.4,0.4,0.6c0.2,0.2,0.4,0.3,0.6,0.4C-0.5,14-0.3,14,0,14
                s0.5-0.1,0.7-0.2c0.2-0.1,0.4-0.2,0.6-0.4c0.2-0.2,0.3-0.4,0.4-0.6c0.1-0.2,0.1-0.5,0.1-0.7V11c0.8-0.2,1.6-0.5,2.2-1
                c0.7-0.4,1.3-1,1.8-1.6c0.5-0.6,0.9-1.3,1.2-2.1c0.3-0.8,0.5-1.6,0.5-2.5V1.2z M0-14c-0.5,0-1,0.1-1.5,0.3
                c-0.5,0.2-0.9,0.5-1.2,0.8c-0.3,0.3-0.6,0.8-0.8,1.2c-0.2,0.5-0.3,0.9-0.3,1.5h7.6c0-0.5-0.1-1-0.3-1.5c-0.2-0.5-0.5-0.9-0.8-1.2
                c-0.3-0.3-0.8-0.6-1.2-0.8C1-13.9,0.5-14,0-14z"/>
        </g>
    </g>
</symbol>
<symbol id="sub-nav_2" viewBox="-600 -25 1200 56.9">
    <linearGradient id="SVGID_1_" gradientUnits="userSpaceOnUse" x1="-1.122316e-09" y1="-25" x2="1.122513e-09" y2="25">
        <stop offset="0" style="stop-color:#212221"/>
        <stop offset="1" style="stop-color:#131313"/>
    </linearGradient>
    <rect x="-600" y="-25" fill="url(#SVGID_1_)" width="1200px" height="50px"/>
    <polyline fill="#151515" points="-434.2,25 -441.1,31.9 -448.1,25    "/>
    <g>
        <text transform="matrix(1 0 0 -1 -580 -5.2734)" fill="#E3E3E2" font-family="&apos;Calibri&apos;" font-size="20px">Dashboard</text>
    </g>
    <rect x="-600" y="-25" display="none" fill="none" width="1200px" height="56px"/>
</symbol>
<g id="Layer_1">
    <g>
        <path fill="#0C5300" d="M70,68c0,1.1-0.9,2-2,2H2c-1.1,0-2-0.9-2-2V2c0-1.1,0.9-2,2-2h66c1.1,0,2,0.9,2,2V68z"/>
    </g>
</g>
<g id="Layer_2">
    <linearGradient id="SVGID_2_" gradientUnits="userSpaceOnUse" x1="54.1913" y1="71.2404" x2="14.8772" y2="3.1463">
        <stop offset="0" style="stop-color:#E9E3C6"/>
        <stop offset="1" style="stop-color:#D1AE87"/>
    </linearGradient>
    <polygon fill="url(#SVGID_2_)" points="65,65 5,65 5,11 11.7,5 58.3,5 65,11  "/>
    <polygon opacity="0.5" points="44,17 26,17 26,11 30,5 40,5 44,11    "/>
    <rect x="10" y="20" width="19px" height="2px"/>
    <linearGradient id="SVGID_3_" gradientUnits="userSpaceOnUse" x1="35" y1="25" x2="35" y2="11">
        <stop offset="0" style="stop-color:#212120;stop-opacity:0"/>
        <stop offset="1" style="stop-color:#212120"/>
    </linearGradient>
    <rect x="5" y="11" opacity="0.3" fill="url(#SVGID_3_)" width="60px" height="14px"/>
    <rect x="10" y="25" fill="#FFFFFF" width="50px" height="34px"/>
    <rect x="20" y="30" opacity="0.5" fill="#46813D" width="37px" height="4px"/>
    <rect x="28" y="30" fill="#46813D" width="23px" height="4px"/>
    <rect x="41" y="29" fill="#0C3200" width="1px" height="6px"/>
    <rect x="40" y="29" fill="#FFFFFF" width="1px" height="6px"/>
    <rect x="16" y="40" opacity="0.5" fill="#EFAF13" width="38px" height="4px"/>
    <rect x="23" y="40" fill="#EFAF13" width="24px" height="4px"/>
    <rect x="35" y="39" fill="#744A00" width="1px" height="6px"/>
    <rect x="34" y="39" fill="#FFFFFF" width="1px" height="6px"/>
    <rect x="13" y="50" opacity="0.5" fill="#D72C20" width="37px" height="4px"/>
    <rect x="20" y="50" fill="#D72C20" width="22px" height="4px"/>
    <rect x="29" y="49" fill="#7B190F" width="1px" height="6px"/>
    <rect x="28" y="49" fill="#FFFFFF" width="1px" height="6px"/>
</g>
<g id="Layer_3">
    <g>
        <g>
            <radialGradient id="SVGID_4_" cx="23.3333" cy="23" r="65.29" fx="-4.9174" fy="23" gradientUnits="userSpaceOnUse">
                <stop offset="0" style="stop-color:#FFFFFF;stop-opacity:0.1"/>
                <stop offset="1" style="stop-color:#FFFFFF;stop-opacity:0"/>
            </radialGradient>
            <path fill="url(#SVGID_4_)" d="M68,70H2c-1.1,0-2-0.9-2-2V2c0-1.1,0.9-2,2-2h66c1.1,0,2,0.9,2,2v66C70,69.1,69.1,70,68,70z"/>
        </g>
        <g opacity="0.3">
            <path fill="#FFFFFF" d="M0,3c0-1.1,0.9-2,2-2h66c1.1,0,2,0.9,2,2V2c0-1.1-0.9-2-2-2H2C0.9,0,0,0.9,0,2V3z"/>
        </g>
        <g opacity="0.3">
            <path d="M0,67c0,1.1,0.9,2,2,2h66c1.1,0,2-0.9,2-2v1c0,1.1-0.9,2-2,2H2c-1.1,0-2-0.9-2-2L0,67z"/>
        </g>
    </g>
</g>
</svg>
