<?xml version="1.0" encoding="utf-8"?>
<!-- Generator: Adobe Illustrator 21.1.0, SVG Export Plug-In . SVG Version: 6.00 Build 0)  -->
<svg version="1.0" id="Layer_1" xmlns="http://www.w3.org/2000/svg" xmlns:xlink="http://www.w3.org/1999/xlink" x="0px" y="0px"
	 viewBox="0 0 70 70" style="enable-background:new 0 0 70 70;" xml:space="preserve" width="70px" height="70px" fill="#333">
<style type="text/css">
	.primary{fill:#333333;}
	.tertiary{fill:#FFDD00;}
	.quaternary{fill:#FFFFFF;}
	.top{fill:#656565;}
	.st0{fill:none;}
	.st1{fill:#D8D8D8;}
</style>
<path class="primary" d="M68,1H2C0.9,1,0,1.9,0,3v65c0,1.1,0.9,2,2,2h66c1.1,0,2-0.9,2-2V3C70,1.9,69.1,1,68,1z"/>
<path class="top" d="M68,0H2C0.9,0,0,0.9,0,2v1c0-1.1,0.9-2,2-2h66c1.1,0,2,0.9,2,2V2C70,0.9,69.1,0,68,0z"/>
<path id="XMLID_39_" class="bottom" d="M0,67c0,1.1,0.9,2,2,2h66c1.1,0,2-0.9,2-2v1c0,1.1-0.9,2-2,2H2c-1.1,0-2-0.9-2-2V67z"/>
<path class="quaternary" d="M28.781,33.351v15.554c0.09,0.041,0.167,0.102,0.259,0.141c1.652,0.717,3.5,1.094,5.378,1.153V33.351
	H28.781z"/>
<path class="quaternary" d="M37.045,38.412V50.06c1.306-0.178,2.592-0.501,3.801-1.011c0.652-0.276,1.24-0.637,1.836-0.988v-9.648
	h-5.637L37.045,38.412z"/>
<path class="quaternary" d="M45.309,46.123c0.129-0.12,0.283-0.21,0.407-0.334c1.384-1.387,2.493-3.01,3.293-4.827
	c0.798-1.815,1.203-3.8,1.203-5.903c0-1.639-0.267-3.228-0.774-4.745h-4.129V46.123z"/>
<path class="quaternary" d="M20.697,40.232c0.09,0.244,0.168,0.494,0.27,0.732c0.782,1.82,1.876,3.441,3.255,4.82
	c0.601,0.602,1.268,1.126,1.957,1.618v-7.17L20.697,40.232z"/>
<g>
	<path class="st0" d="M47.912,24.892c0.694-0.548,1.168-1.36,1.168-2.313c0-1.653-1.34-2.993-2.993-2.993
		c-1.061,0-1.95,0.584-2.481,1.417c-0.711-0.443-1.43-0.876-2.213-1.219c-3.987-1.754-8.931-1.754-12.877,0
		c-1.97,0.872-3.726,2.07-5.217,3.561c-1.496,1.499-2.684,3.268-3.53,5.256c-0.854,1.999-1.287,4.17-1.287,6.454
		c0,2.286,0.433,4.448,1.287,6.423c0.846,1.973,2.034,3.732,3.53,5.228c1.497,1.499,3.253,2.689,5.223,3.538
		c1.968,0.857,4.129,1.29,6.418,1.29c2.24,0,4.396-0.431,6.415-1.282c2.009-0.851,3.788-2.044,5.284-3.54
		c1.498-1.501,2.699-3.26,3.563-5.225c0.872-1.981,1.316-4.142,1.315-6.43c0-2.241-0.441-4.402-1.313-6.426
		C49.609,27.256,48.806,26.036,47.912,24.892z"/>
	<path class="st1" d="M55.608,33.136l6.911-3.478l-2.207-6.589l-7.604,1.266c-0.328-0.518-1.718-2.496-2.127-2.986l3.514-6.836
		l-5.641-4.093l-5.315,5.526l-3.519-1.147l-1.104-7.61h-6.992l-1.187,7.61c-1.198,0.245-2.344,0.629-3.433,1.146l-5.438-5.526
		l-5.641,4.093l3.514,6.839c-0.381,0.49-1.826,2.468-2.126,2.986L9.608,23.07l-2.127,6.672l6.911,3.397
		c-0.053,0.328-0.053,3.381,0,3.682l-6.911,3.478l2.127,6.589l7.603-1.269c0.326,0.545,1.746,2.496,2.127,2.986l-3.514,6.836
		l5.641,4.093l5.438-5.484c0.517,0.22,2.835,0.996,3.435,1.188l1.187,7.571h6.992l1.104-7.571c1.198-0.328,2.344-0.723,3.433-1.188
		l5.398,5.484l5.641-4.093l-3.147-6.121l-0.367-0.715c0.136-0.165,0.236-0.349,0.367-0.516c0.631-0.801,1.242-1.612,1.759-2.47
		l7.606,1.269l2.207-6.589l-6.911-3.478C55.661,36.493,55.661,33.465,55.608,33.136z M50.202,41.487
		c-0.864,1.965-2.065,3.724-3.563,5.225c-1.496,1.496-3.275,2.689-5.284,3.54c-2.019,0.851-4.175,1.282-6.415,1.282
		c-2.289,0-4.45-0.433-6.418-1.29c-1.97-0.849-3.726-2.039-5.223-3.538c-1.496-1.496-2.684-3.255-3.53-5.228
		c-0.854-1.975-1.287-4.137-1.287-6.423c0-2.284,0.433-4.455,1.287-6.454c0.846-1.988,2.034-3.757,3.53-5.256
		c1.491-1.491,3.247-2.689,5.217-3.561c3.946-1.754,8.89-1.754,12.877,0c0.783,0.343,1.502,0.776,2.213,1.219
		c0.531-0.833,1.42-1.417,2.481-1.417c1.653,0,2.993,1.34,2.993,2.993c0,0.953-0.474,1.765-1.168,2.313
		c0.894,1.144,1.697,2.364,2.292,3.739c0.872,2.024,1.313,4.185,1.313,6.426C51.518,37.345,51.074,39.506,50.202,41.487z"/>
</g>
<path class="primary" d="M46.869,26.838c0.036-0.01,0.071-0.021,0.108-0.028c0.678-0.144,1.282-0.422,1.795-0.827
	c1.077-0.851,1.695-2.09,1.695-3.401c0-2.416-1.964-4.38-4.379-4.38c-1.463,0-2.827,0.769-3.65,2.058
	c-0.344,0.54-0.73,2.081-0.73,2.322"/>
<path class="tertiary" d="M46.088,19.588c-1.062,0-1.95,0.584-2.481,1.416c-0.236,0.37-0.39,0.78-0.444,1.238
	c-0.014,0.116-0.068,0.218-0.068,0.338c0,0.774,0.312,1.464,0.794,1.995l-3.004,3.796c-0.261-0.074-0.518-0.162-0.803-0.162
	c-0.768,0-1.452,0.31-1.982,0.786l-3.886-2.648c0.02-0.14,0.083-0.266,0.083-0.412c0-1.653-1.34-2.993-2.993-2.993
	s-2.993,1.34-2.993,2.993c0,0.451,0.115,0.868,0.294,1.252l-3.735,4.63c-0.304-0.104-0.618-0.193-0.957-0.193
	c-1.653,0-2.993,1.34-2.993,2.993s1.34,2.993,2.993,2.993s2.993-1.34,2.993-2.993c0-0.6-0.221-1.126-0.525-1.595l3.585-4.445
	c0.408,0.207,0.85,0.352,1.339,0.352c0.797,0,1.513-0.323,2.049-0.831l3.835,2.613c-0.028,0.166-0.099,0.317-0.099,0.492
	c0,1.653,1.34,2.993,2.993,2.993s2.993-1.34,2.993-2.993c0-0.653-0.252-1.225-0.607-1.717l3.166-4.003
	c0.154,0.025,0.292,0.092,0.453,0.092c0.213,0,0.401-0.079,0.602-0.122c0.458-0.097,0.869-0.279,1.223-0.559
	c0.694-0.548,1.168-1.36,1.168-2.313C49.081,20.928,47.741,19.588,46.088,19.588z"/>
</svg>
