<svg version="1.1" id="Layer_1" xmlns="http://www.w3.org/2000/svg" xmlns:xlink="http://www.w3.org/1999/xlink" x="0px" y="0px" viewBox="0 0 70 70" enable-background="new 0 0 70 70" xml:space="preserve" width="70px" height="70px" fill="#333">

  <path fill="#198FD6" d="M68,70H2c-1.1,0-2-0.9-2-2V2c0-1.1,0.9-2,2-2h66c1.1,0,2,0.9,2,2v66C70,69.1,69.1,70,68,70z"/>

  <radialGradient id="SVGID_1_" cx="27.9381" cy="34.0352" r="30.1008" gradientTransform="matrix(0.814 0 0 1.001 12.093 2.3951)" gradientUnits="userSpaceOnUse">
    <stop offset="0" style="stop-color:#212120;stop-opacity:0.7"/>
    <stop offset="1" style="stop-color:#212120;stop-opacity:0"/>
  </radialGradient>
  <rect y="0" fill="url(#SVGID_1_)" width="70px" height="69.9px"/>

  <radialGradient id="SVGID_2_" cx="35" cy="55" r="10" gradientUnits="userSpaceOnUse">
    <stop offset="0" style="stop-color:#000000;stop-opacity:0.8"/>
    <stop offset="1" style="stop-color:#000000;stop-opacity:0"/>
  </radialGradient>
  <circle fill="url(#SVGID_2_)" cx="35" cy="55" r="10"/>

  <circle fill="#7E7E7E" cx="35" cy="55" r="7"/>

  <radialGradient id="SVGID_3_" cx="31.6667" cy="22" r="29.022" gradientUnits="userSpaceOnUse">
    <stop offset="0" style="stop-color:#FFFFFF"/>
    <stop offset="0.2193" style="stop-color:#F4F4F4"/>
    <stop offset="0.6563" style="stop-color:#E5E5E5"/>
    <stop offset="1" style="stop-color:#DFDFDF"/>
  </radialGradient>
  <path fill="url(#SVGID_3_)" d="M50,35v-7c0-6.8-3.8-12.2-10-14c0-1,0-2,0-3c0-2.8-2.2-5-5-5s-5,2.2-5,5c0,1,0,2,0,3
	c-6.2,1.8-10,7.2-10,14v7c-0.8,9.4-9,14-9,14v6h48v-6C59,49,50.8,44.4,50,35z M35,13c-1.1,0-2-0.9-2-2c0-1.1,0.9-2,2-2s2,0.9,2,2
	C37,12.1,36.1,13,35,13z"/>

  <rect x="11" y="49" fill="#ACACAC" width="48px" height="6px"/>

  <linearGradient id="SVGID_4_" gradientUnits="userSpaceOnUse" x1="35" y1="57" x2="35" y2="55">
    <stop offset="0" style="stop-color:#000000;stop-opacity:0"/>
    <stop offset="1" style="stop-color:#000000;stop-opacity:0.2"/>
  </linearGradient>
  <rect x="11" y="55" fill="url(#SVGID_4_)" width="48px" height="2px"/>

  <rect x="20" y="28" fill="#C7C7C7" width="30px" height="6px"/>
  <path fill="#FFFFFF" d="M23,28v8h0c0,8-5,11-5,11c0,0,9-1,9-11h0v-8c0-8,2-11,2-11C29,17,23,18,23,28z"/>

	<radialGradient id="SVGID_Finish_" cx="23.3333" cy="23" r="65.29" fx="-4.9174" fy="23" gradientUnits="userSpaceOnUse">
    <stop offset="0" style="stop-color:#FFFFFF;stop-opacity:0.1"/>
    <stop offset="1" style="stop-color:#FFFFFF;stop-opacity:0"/>
  </radialGradient>
  <path fill="url(#SVGID_Finish_)" d="M68,70H2c-1.1,0-2-0.9-2-2V2c0-1.1,0.9-2,2-2h66c1.1,0,2,0.9,2,2v66C70,69.1,69.1,70,68,70z"/>
  <path opacity="0.3" d="M0,67c0,1.1,0.9,2,2,2h66c1.1,0,2-0.9,2-2v1c0,1.1-0.9,2-2,2H2c-1.1,0-2-0.9-2-2L0,67z"/>
  <path opacity="0.3" fill="#FFFFFF" d="M0,3c0-1.1,0.9-2,2-2h66c1.1,0,2,0.9,2,2V2c0-1.1-0.9-2-2-2H2C0.9,0,0,0.9,0,2V3z"/>

</svg>
