<?xml version="1.0" encoding="utf-8"?>
<!-- Generator: Adobe Illustrator 21.1.0, SVG Export Plug-In . SVG Version: 6.00 Build 0)  -->
<svg version="1.0" id="Layer_1" xmlns="http://www.w3.org/2000/svg" xmlns:xlink="http://www.w3.org/1999/xlink" x="0px" y="0px"
	 viewBox="0 0 70 70" style="enable-background:new 0 0 70 70;" xml:space="preserve" width="70px" height="70px" fill="#333">
<style type="text/css">
	.primary{fill:#333333;}
	.st0{opacity:0.4;fill:#333333;enable-background:new    ;}
	.st1{opacity:0.5;fill:#FFFFFF;enable-background:new    ;}
	.st2{fill:#212120;}
	.st3{fill:#377E3D;}
	.st4{fill:#FFFFFF;}
	.st5{fill:#ACACAC;}
</style>
<path class="primary" d="M67.812,70H2.188C0.984,70,0,69.016,0,67.812V2.188C0,0.984,0.984,0,2.188,0h65.625
	C69.016,0,70,0.984,70,2.188v65.625C70,69.016,69.016,70,67.812,70z"/>
<path id="Bottom_Shadow_7_" class="st0" d="M0,67c0,1.1,0.9,2,2,2h66c1.1,0,2-0.9,2-2v1c0,1.1-0.9,2-2,2H2c-1.1,0-2-0.9-2-2V67z"/>
<path id="Top_Highlight_7_" class="st1" d="M0,3c0-1.1,0.9-2,2-2h66c1.1,0,2,0.9,2,2V2c0-1.1-0.9-2-2-2H2C0.9,0,0,0.9,0,2V3z"/>
<path class="st2" d="M63.52,65.38H6.48C5.116,65.38,4,64.264,4,62.9V7.1c0-1.364,1.116-2.48,2.48-2.48h57.04
	C64.884,4.62,66,5.736,66,7.1v55.8C66,64.264,64.884,65.38,63.52,65.38z"/>
<path class="st3" d="M63.52,64.14H6.48c-0.744,0-1.24-0.496-1.24-1.24V7.1c0-0.744,0.496-1.24,1.24-1.24h57.04
	c0.744,0,1.24,0.496,1.24,1.24v55.8C64.76,63.644,64.264,64.14,63.52,64.14z"/>
<polygon class="st4" points="13.164,10 13.164,64 56.836,64 56.836,23.344 43.492,10 "/>
<polygon class="st5" points="43.492,23.344 56.836,23.344 43.492,10 "/>
<path class="primary" d="M45.918,39.963c0-1.092-0.243-2.184-0.607-3.275l2.911-3.882l-2.911-3.518l-3.882,2.305
	c-0.97-0.728-2.062-1.334-3.275-1.577l-0.849-4.246h-4.61l-0.728,4.125c-1.213,0.364-2.305,0.849-3.275,1.577l-4.003-2.305
	l-2.911,3.639l3.154,3.397c-0.364,0.97-0.607,1.941-0.728,3.033l-4.367,2.184l0.97,4.488l4.488-0.364
	c0.607,1.213,1.456,2.184,2.426,3.033l-1.456,4.246l4.125,2.062l2.79-3.761c0.728,0.121,1.213,0.121,1.82,0.121s1.092,0,1.698-0.121
	l2.79,3.761l4.125-2.062l-0.849-4.852c0.728-0.728,1.334-1.577,1.941-2.547l4.488,0.485l0.97-4.488L45.918,39.963z M35,46.393
	c-3.397,0-6.065-2.669-6.065-6.065s2.669-6.065,6.065-6.065s6.065,2.669,6.065,6.065S38.397,46.393,35,46.393z"/>
</svg>
