<?xml version="1.0" encoding="utf-8"?>
<!-- Generator: Adobe Illustrator 22.0.1, SVG Export Plug-In . SVG Version: 6.00 Build 0)  -->
<svg version="1.1" id="Layer_1" xmlns="http://www.w3.org/2000/svg" xmlns:xlink="http://www.w3.org/1999/xlink" x="0px" y="0px"
	 viewBox="0 0 70 70" style="enable-background:new 0 0 70 70;" xml:space="preserve" width="70px" height="70px" fill="#333">
<style type="text/css">
	.st0{fill:#DFDFDF;}
	.st1{fill:#1E1E1E;}
	.st2{fill:#FFDD00;}
	.st3{fill:#D2A100;}
	.st4{fill:none;stroke:#333333;stroke-width:2;stroke-linecap:round;stroke-linejoin:round;stroke-dasharray:0,4.7755;}
	.st5{fill:#4F4F4F;}
	.st6{fill:#1D782C;}
	.st7{opacity:0.3;fill:#FFFFFF;enable-background:new    ;}
	.st8{opacity:0.3;fill:#333333;enable-background:new    ;}
	.st9{fill:url(#SVGID_1_);}
</style>
<path id="XMLID_275_" class="st0" d="M70,68c0,1.1-0.9,2-2,2H2c-1.1,0-2-0.9-2-2V2c0-1.1,0.9-2,2-2h66c1.1,0,2,0.9,2,2V68z"/>
<path id="XMLID_593_" class="st1" d="M60.4,35c0-0.2,0-0.5,0-0.7l1.9-0.7L61.1,27H59c-0.2-0.5-0.3-0.9-0.5-1.4l1.6-1.3l-3.3-5.8
	l-1.9,0.7c-0.3-0.4-0.6-0.7-0.9-1.1l1-1.8L49.9,12l-1.6,1.3c-0.4-0.3-0.8-0.5-1.2-0.7l0.4-2l-6.3-2.3l-1,1.8
	c-0.5-0.1-0.9-0.2-1.4-0.2l-0.4-2h-6.7l-0.4,2c-0.5,0.1-1,0.1-1.4,0.2l-1-1.8l-6.3,2.3l0.4,2c-0.4,0.2-0.8,0.5-1.2,0.7L20.2,12
	L15,16.4l1,1.8c-0.3,0.4-0.6,0.7-0.9,1.1l-1.9-0.7l-3.3,5.8l1.6,1.3c-0.2,0.4-0.3,0.9-0.5,1.4H8.9l-1.2,6.6l1.9,0.7
	c0,0.2,0,0.5,0,0.7s0,0.5,0,0.7l-1.9,0.7L8.9,43H11c0.2,0.5,0.3,0.9,0.5,1.4l-1.6,1.3l3.3,5.8l1.9-0.7c0.3,0.4,0.6,0.7,0.9,1.1
	l-1,1.8l5.1,4.3l1.6-1.3c0.4,0.3,0.8,0.5,1.2,0.7l-0.4,2l6.3,2.3l1-1.8c0.5,0.1,0.9,0.2,1.4,0.2l0.4,2h6.7l0.4-2
	c0.5-0.1,1-0.1,1.4-0.2l1,1.8l6.3-2.3l-0.4-2c0.4-0.2,0.8-0.5,1.2-0.7l1.6,1.3l5.1-4.3l-1-1.8c0.3-0.4,0.6-0.7,0.9-1.1l1.9,0.7
	l3.3-5.8l-1.6-1.3c0.2-0.4,0.3-0.9,0.5-1.4H61l1.2-6.6l-1.9-0.7C60.4,35.5,60.4,35.2,60.4,35z"/>
<circle id="XMLID_523_" class="st2" cx="35" cy="35" r="13"/>
<circle id="XMLID_567_" class="st3" cx="35" cy="35" r="9.9"/>
<circle id="XMLID_568_" class="st2" cx="35" cy="35" r="7.9"/>
<g>
	<g>
		<circle class="st4" cx="35px" cy="35px" r="4.6"/>
	</g>
</g>
<path class="st5" d="M21.3,54.9c-2.6,0-4.9-0.2-7-0.6l0.3-1.5c1.3,0.2,2.7,0.3,4.2,0.3c6.7,0,15.5-1.9,24.1-5.2
	c5.8-2.2,11.1-4.9,15.6-7.8l-1.7-2.3l10.5-1.3l-4.2,9.7l-1.8-2.5c-5.3,3.1-11.9,5.8-19,7.8C34.8,53.8,27.6,54.9,21.3,54.9z"/>
<path class="st6" d="M19.2,53.7c-1.5,0-3-0.1-4.4-0.2L9,53l5.6-1.4c8.2-2.1,15.4-6,21.5-11.5c4.8-4.4,8.8-9.6,11.7-15.5l-3.3-1.2
	l-1.6-0.6L58.3,9.6l3.7,20l-5.4-1.9c-1.7,4.8-5,11.7-11.7,17.2C36.3,52.2,26.1,53.7,19.2,53.7L19.2,53.7z"/>
<path class="st0" d="M66.1,37.5L63,44.9l-1.3-1.7c-0.1-0.1-0.2-0.1-0.3-0.1s-0.1,0-0.2,0c-5.1,3-11.7,5.8-19.2,7.9
	c-7.6,2.1-14.8,3.2-20.8,3.2c-2.5,0-4.9-0.2-6.8-0.6c1.3,0.2,2.8,0.3,4.3,0.3c6.5,0,15.3-1.8,24.4-5.2c6.2-2.4,11.7-5.2,16.1-8.1
	c0.2-0.1,0.2-0.3,0.1-0.5l-1.2-1.6L66.1,37.5 M68.5,35.7L65.9,36L58,37l-2.6,0.3l1.5,2.1l0.4,0.6c-4.3,2.7-9.4,5.2-14.8,7.3
	c-8.6,3.3-17.3,5.1-23.9,5.1c-1.5,0-2.9-0.1-4.1-0.3l-0.5,3c2.1,0.4,4.5,0.6,7.1,0.6c6.3,0,13.7-1.1,21.2-3.2c7-2,13.4-4.6,18.6-7.6
	l0.7,0.9l1.6,2.1l1-2.4l3.1-7.3L68.5,35.7L68.5,35.7z M57.7,11.4L60.8,28L57,26.7c-0.1,0-0.2-0.1-0.3-0.1c-0.2,0-0.3,0-0.4,0.1
	c-0.2,0.1-0.4,0.3-0.5,0.6C54.2,32,51,38.6,44.5,44.1c-8.3,7-18,8.6-25.2,8.6c-1.6,0-3-0.1-4.3-0.2c6.6-1.7,14.6-5.1,21.9-11.7
	c4.9-4.4,8.9-9.8,11.9-15.8c0.1-0.3,0.1-0.6,0-0.8s-0.3-0.5-0.6-0.6l-3.3-1.2L57.7,11.4 M59,7.7L56.4,10L43.6,21L41,23.3l3.3,1.2
	l2.2,0.8c-2.8,5.4-6.5,10.2-10.9,14.2c-6,5.4-13.1,9.2-21.1,11.3L3.1,53.5l11.5,1c1.5,0.1,3,0.2,4.5,0.2c7.1,0,17.5-1.6,26.4-9
	c6.4-5.4,9.8-11.9,11.6-16.7l2.9,1l3.3,1.2l-0.6-3.4l-3.1-16.6L59,7.7L59,7.7z"/>
<path id="XMLID_179_" class="st7" d="M0,3c0-1.1,0.9-2,2-2h66c1.1,0,2,0.9,2,2V2c0-1.1-0.9-2-2-2H2C0.9,0,0,0.9,0,2V3z"/>
<path id="XMLID_178_" class="st8" d="M0,67c0,1.1,0.9,2,2,2h66c1.1,0,2-0.9,2-2v1c0,1.1-0.9,2-2,2H2c-1.1,0-2-0.9-2-2V67z"/>
<radialGradient id="SVGID_1_" cx="35.8674" cy="32.6041" r="35.7055" gradientTransform="matrix(1.0853 0 0 -1.0705 -3.9269 69.9027)" gradientUnits="userSpaceOnUse">
	<stop  offset="0" style="stop-color:#FFFFFF;stop-opacity:0.15"/>
	<stop  offset="0.1009" style="stop-color:#FAFAFA;stop-opacity:0.1349"/>
	<stop  offset="0.2246" style="stop-color:#EBEBEB;stop-opacity:0.1163"/>
	<stop  offset="0.3603" style="stop-color:#D2D2D2;stop-opacity:9.595044e-02"/>
	<stop  offset="0.5046" style="stop-color:#AFAFAF;stop-opacity:7.431103e-02"/>
	<stop  offset="0.6556" style="stop-color:#828282;stop-opacity:5.165302e-02"/>
	<stop  offset="0.8124" style="stop-color:#4C4C4C;stop-opacity:2.813862e-02"/>
	<stop  offset="0.971" style="stop-color:#0C0C0C;stop-opacity:4.346326e-03"/>
	<stop  offset="1" style="stop-color:#000000;stop-opacity:0"/>
</radialGradient>
<rect class="st9" width="70px" height="70px"/>
</svg>
