<?xml version="1.0" encoding="utf-8"?>
<!-- Generator: Adobe Illustrator 21.1.0, SVG Export Plug-In . SVG Version: 6.00 Build 0)  --> 
<svg version="1.0" id="icon-machine-groups-cover" xmlns="http://www.w3.org/2000/svg" xmlns:xlink="http://www.w3.org/1999/xlink" x="0px" y="0px" viewBox="0 0 70 70" style="enable-background:new 0 0 70 70;" xml:space="preserve" width="70px" height="70px" fill="#333">
<style type="text/css">
	.st0{fill:#4D4D4D;}
	.st1{fill:#FFFFFF;stroke:#FFCC22;stroke-width:3;stroke-miterlimit:10;}
	.st2{fill:#1E1E1E;}
	.st3{fill:#FFDD00;}
	.st4{fill:#D2A100;}
	.st5{fill:none;stroke:#333333;stroke-width:1.298;stroke-linecap:round;stroke-linejoin:round;stroke-dasharray:0,3.1209;}
	.st6{fill:#FFFFFF;}
	.st7{fill:#959595;}
	.st8{opacity:0.3;fill:#333333;enable-background:new    ;}
	.st9{opacity:0.3;fill:#FFFFFF;enable-background:new    ;}
</style>
<path class="st0" d="M68,70H2c-1.1,0-2-0.9-2-2V2c0-1.1,0.9-2,2-2h66c1.1,0,2,0.9,2,2v66C70,69.1,69.1,70,68,70z"/>
<path id="SVGID_3_" class="st1" d="M45.7,60.5H24.3c-5.9,0-10.7-4.8-10.7-10.7V20.2c0-5.9,4.8-10.7,10.7-10.7h21.5
	c5.9,0,10.7,4.8,10.7,10.7v29.5C56.5,55.7,51.6,60.5,45.7,60.5z"/>
<path id="XMLID_593_" class="st2" d="M51.5,35c0-0.1,0-0.3,0-0.5l1.2-0.5l-0.8-4.3h-1.4c-0.1-0.3-0.2-0.6-0.3-0.9l1-0.8l-2.1-3.8
	l-1.2,0.5c-0.2-0.3-0.4-0.5-0.6-0.7l0.6-1.2L44.6,20l-1,0.8c-0.3-0.2-0.5-0.3-0.8-0.5l0.3-1.3L39,17.7l-0.6,1.2
	c-0.3-0.1-0.6-0.1-0.9-0.1l-0.3-1.3h-4.3l-0.3,1.3c-0.3,0.1-0.6,0.1-0.9,0.1L31,17.7l-4,1.5l0.3,1.3c-0.3,0.1-0.5,0.3-0.8,0.5
	l-1-0.8L22,22.9l0.6,1.2c-0.2,0.3-0.4,0.5-0.6,0.7l-1.2-0.5l-2.1,3.8l1,0.8c-0.1,0.3-0.2,0.6-0.3,0.9H18l-0.8,4.3l1.2,0.5
	c0,0.1,0,0.3,0,0.5c0,0.1,0,0.3,0,0.5L17.3,36l0.8,4.2h1.4c0.1,0.3,0.2,0.6,0.3,0.9l-1,0.8l2.1,3.8l1.2-0.5c0.2,0.3,0.4,0.5,0.6,0.7
	L22,47.1l3.3,2.8l1-0.8c0.3,0.2,0.5,0.3,0.8,0.5l-0.3,1.3l4.1,1.5l0.6-1.2c0.3,0.1,0.6,0.1,0.9,0.1l0.3,1.3H37l0.3-1.3
	c0.3-0.1,0.6-0.1,0.9-0.1l0.6,1.2l4.1-1.5l-0.3-1.3c0.3-0.1,0.5-0.3,0.8-0.5l1,0.8l3.3-2.8L47.3,46c0.2-0.3,0.4-0.5,0.6-0.7l1.2,0.5
	l2.1-3.8l-1-0.8c0.1-0.3,0.2-0.6,0.3-0.9h1.4l0.8-4.3l-1.2-0.5C51.5,35.3,51.5,35.1,51.5,35z"/>
<circle id="XMLID_523_" class="st3" cx="35" cy="35" r="8.4"/>
<circle id="XMLID_567_" class="st4" cx="35" cy="35" r="6.4"/>
<circle id="XMLID_568_" class="st3" cx="35" cy="35" r="5.1"/>
<g>
	<circle class="st5" cx="35" cy="35" r="3"/>
</g>
<path class="st6" d="M4.2,51.8H0V18.5h4.2c2.5,0,4.5,2,4.5,4.5v24.4C8.7,49.8,6.7,51.8,4.2,51.8z"/>
<path class="st7" d="M4.2,20.3c1.4,0,2.6,1.2,2.6,2.6v24.4c0,1.4-1.2,2.6-2.6,2.6H0V20.3H4.2 M4.2,18.5H0v33.3h4.2
	c2.5,0,4.5-2,4.5-4.5V22.9C8.7,20.5,6.7,18.5,4.2,18.5L4.2,18.5z"/>
<path class="st6" d="M65.8,51.8H70V18.5h-4.2c-2.5,0-4.5,2-4.5,4.5v24.4C61.3,49.8,63.3,51.8,65.8,51.8z"/>
<path class="st7" d="M70,49.9h-4.2c-1.4,0-2.6-1.2-2.6-2.6V22.9c0-1.4,1.2-2.6,2.6-2.6H70V49.9z M65.8,18.5c-2.5,0-4.5,2-4.5,4.5
	v24.4c0,2.5,2,4.5,4.5,4.5H70V18.5H65.8z"/>
<path class="st8" d="M0,67c0,1.1,0.9,2,2,2h66c1.1,0,2-0.9,2-2v1c0,1.1-0.9,2-2,2H2c-1.1,0-2-0.9-2-2V67z"/>
<path class="st9" d="M0,3c0-1.1,0.9-2,2-2h66c1.1,0,2,0.9,2,2V2c0-1.1-0.9-2-2-2H2C0.9,0,0,0.9,0,2V3z"/>
</svg>
