<svg version="1.0" id="Layer_1" xmlns="http://www.w3.org/2000/svg" xmlns:xlink="http://www.w3.org/1999/xlink" x="0px" y="0px" viewBox="0 0 32 32" style="enable-background:new 0 0 32 32;" xml:space="preserve" fill="#333" width="32px" height="32px">
<style type="text/css">
	.primary{fill:#333333;}
</style>
<path class="primary" d="M26,3H6C4.34,3,3,4.34,3,6v20c0,1.66,1.34,3,3,3h20c1.66,0,3-1.34,3-3V6C29,4.34,27.66,3,26,3z M27,26
	c0,0.55-0.45,1-1,1H6c-0.55,0-1-0.45-1-1V6c0-0.55,0.45-1,1-1h20c0.55,0,1,0.45,1,1V26z M14,15h-4c-0.55,0-1-0.45-1-1v-4
	c0-0.55,0.45-1,1-1h4c0.55,0,1,0.45,1,1v4C15,14.55,14.55,15,14,15z M22,15h-4c-0.55,0-1-0.45-1-1v-4c0-0.55,0.45-1,1-1h4
	c0.55,0,1,0.45,1,1v4C23,14.55,22.55,15,22,15z M14,23h-4c-0.55,0-1-0.45-1-1v-4c0-0.55,0.45-1,1-1h4c0.55,0,1,0.45,1,1v4
	C15,22.55,14.55,23,14,23z M22,23h-4c-0.55,0-1-0.45-1-1v-4c0-0.55,0.45-1,1-1h4c0.55,0,1,0.45,1,1v4C23,22.55,22.55,23,22,23z"/>
</svg>
