<?xml version="1.0" encoding="utf-8"?>
<!-- Generator: Adobe Illustrator 19.0.0, SVG Export Plug-In . SVG Version: 6.00 Build 0)  -->
<svg version="1.0" id="Layer_1" xmlns="http://www.w3.org/2000/svg" xmlns:xlink="http://www.w3.org/1999/xlink" x="0px" y="0px" viewBox="0 0 70 70" style="enable-background:new 0 0 70 70;" xml:space="preserve" width="70px" height="70px" fill="#333">
<style type="text/css">
	.st0{fill:#E5E5E5;}
	.st1{fill:url(#SVGID_1_);}
	.st2{fill:#212121;}
	.st3{fill:#F0F0F0;}
	.st4{fill:#ACACAC;}
	.st5{fill:url(#SVGID_2_);}
	.st6{fill:url(#SVGID_3_);}
	.st7{fill:url(#SVGID_4_);}
	.st8{fill:url(#SVGID_5_);}
	.st9{fill:#B9B9B9;}
	.st10{opacity:0.3;enable-background:new    ;}
	.st11{opacity:0.3;fill:#FFFFFF;enable-background:new    ;}
</style>
<path class="st0" d="M68,70H2c-1.1,0-2-0.9-2-2V2c0-1.1,0.9-2,2-2h66c1.1,0,2,0.9,2,2v66C70,69.1,69.1,70,68,70z"/>
<linearGradient id="SVGID_1_" gradientUnits="userSpaceOnUse" x1="35" y1="14" x2="35" y2="32" gradientTransform="matrix(1 0 0 -1 0 32)">
	<stop offset="0" style="stop-color:#0C4112"/>
	<stop offset="1" style="stop-color:#377D3C"/>
</linearGradient>
<path class="st1" d="M0,18V2c0-1.1,0.9-2,2-2h66c1.1,0,2,0.9,2,2v16"/>
<rect y="18" class="st2" width="70px" height="1px"/>
<polygon class="st3" points="5,65 5,6 65,6 64.9,65 "/>
<path class="st2" d="M44,11c0,1.1-1.1,2-2.5,2S39,12.1,39,11s1.1-2,2.5-2S44,9.9,44,11z M28.5,9C27.1,9,26,9.9,26,11s1.1,2,2.5,2
	s2.5-0.9,2.5-2S29.9,9,28.5,9z M14.5,9C13.1,9,12,9.9,12,11s1.1,2,2.5,2s2.5-0.9,2.5-2S15.9,9,14.5,9z M55.5,9C54.1,9,53,9.9,53,11
	s1.1,2,2.5,2s2.5-0.9,2.5-2S56.9,9,55.5,9z"/>
<rect x="30" y="26" class="st2" width="10px" height="11px"/>
<path class="st4" d="M24,20l-7,21v7h15V20H24z"/>
<rect x="15" y="48" class="st2" width="19px" height="6px"/>
<path class="st4" d="M46,20l7,21v7H38V20H46z"/>
<rect x="36" y="48" class="st2" width="19px" height="6px"/>
<path class="st2" d="M38,20v-2h6v2"/>
<path class="st2" d="M32,20v-2h-6v2"/>
<linearGradient id="SVGID_2_" gradientUnits="userSpaceOnUse" x1="-266.5" y1="158.5" x2="-264.5" y2="158.5" gradientTransform="matrix(4.489700e-11 1 1 -4.489700e-11 -123.5 270.5)">
	<stop offset="0" style="stop-color:#000000;stop-opacity:0"/>
	<stop offset="1" style="stop-color:#000000;stop-opacity:0.12"/>
</linearGradient>
<polygon class="st5" points="3,4 5,6 65,6 67,4 "/>
<linearGradient id="SVGID_3_" gradientUnits="userSpaceOnUse" x1="-483" y1="-3.5" x2="-481" y2="-3.5" gradientTransform="matrix(-1 0 0 -1 -416 32)">
	<stop offset="0" style="stop-color:#000000;stop-opacity:0"/>
	<stop offset="1" style="stop-color:#000000;stop-opacity:0.12"/>
</linearGradient>
<polygon class="st6" points="67,67 65,65 65,6 67,4 "/>
<linearGradient id="SVGID_4_" gradientUnits="userSpaceOnUse" x1="-105" y1="-3.5" x2="-103" y2="-3.5" gradientTransform="matrix(1 0 0 -1 108 32)">
	<stop offset="0" style="stop-color:#000000;stop-opacity:0"/>
	<stop offset="1" style="stop-color:#000000;stop-opacity:0.12"/>
</linearGradient>
<polygon class="st7" points="3,67 5,65 5,6 3,4 "/>
<linearGradient id="SVGID_5_" gradientUnits="userSpaceOnUse" x1="-320.5" y1="158.5" x2="-318.5" y2="158.5" gradientTransform="matrix(-8.979400e-11 -1 1 -8.979400e-11 -123.5 -253.5)">
	<stop offset="0" style="stop-color:#000000;stop-opacity:0"/>
	<stop offset="1" style="stop-color:#000000;stop-opacity:0.12"/>
</linearGradient>
<polygon class="st8" points="3,67 5,65 65,65 67,67 "/>
<path class="st9" d="M13.772,4C13.346,4,13,4.346,13,4.772V10.5c0,0.8,0.7,1.5,1.5,1.5s1.5-0.7,1.5-1.5V4.772
	C16,4.346,15.654,4,15.228,4H13.772z M27.772,4C27.346,4,27,4.346,27,4.772V10.5c0,0.8,0.7,1.5,1.5,1.5s1.5-0.7,1.5-1.5V4.772
	C30,4.346,29.654,4,29.228,4H27.772z M40.772,4C40.346,4,40,4.346,40,4.772V10.5c0,0.8,0.7,1.5,1.5,1.5s1.5-0.7,1.5-1.5V4.772
	C43,4.346,42.654,4,42.228,4H40.772z M54.772,4C54.346,4,54,4.346,54,4.772V10.5c0,0.8,0.7,1.5,1.5,1.5s1.5-0.7,1.5-1.5V4.772
	C57,4.346,56.654,4,56.228,4H54.772z"/>
<path class="st10" d="M0,67c0,1.1,0.9,2,2,2h66c1.1,0,2-0.9,2-2v1c0,1.1-0.9,2-2,2H2c-1.1,0-2-0.9-2-2V67z"/>
<path class="st11" d="M0,3c0-1.1,0.9-2,2-2h66c1.1,0,2,0.9,2,2V2c0-1.1-0.9-2-2-2H2C0.9,0,0,0.9,0,2V3z"/>
</svg>
