<?xml version="1.0" encoding="utf-8"?>
<!-- Generator: Adobe Illustrator 21.1.0, SVG Export Plug-In . SVG Version: 6.00 Build 0)  -->
<svg version="1.0" id="icon-fuel-utilization-report-cover" xmlns="http://www.w3.org/2000/svg" xmlns:xlink="http://www.w3.org/1999/xlink" x="0px" y="0px" viewBox="0 0 70 70" style="enable-background:new 0 0 70 70;" xml:space="preserve" width="70px" height="70px" fill="#333">
<style type="text/css">
	.st0{fill:url(#SVGID_1_);}
	.st1{opacity:0.4;fill:none;stroke:#000000;stroke-miterlimit:10;enable-background:new    ;}
	.st2{fill:#FFFFFF;}
	.st3{fill:url(#SVGID_2_);}
	.st4{fill:url(#SVGID_3_);}
	.st5{fill:url(#SVGID_4_);}
	.st6{fill:url(#SVGID_5_);}
	.st7{fill:url(#SVGID_6_);}
	.st8{fill:#999999;}
	.st9{opacity:0.4;fill:#333333;enable-background:new    ;}
	.st10{fill:#464646;}
	.st11{fill:none;stroke:#FFFFFF;stroke-width:2;stroke-linecap:round;stroke-miterlimit:10;}
	.st12{opacity:0.3;fill:#FFFFFF;enable-background:new    ;}
</style>
<linearGradient id="SVGID_1_" gradientUnits="userSpaceOnUse" x1="3.8318" y1="687.8552" x2="66.1682" y2="762.1448" gradientTransform="matrix(1 0 0 1 0 -690)">
	<stop  offset="0" style="stop-color:#896200"/>
	<stop  offset="1" style="stop-color:#501C00"/>
</linearGradient>
<path class="st0" d="M68,70H2c-1.1,0-2-0.9-2-2V2c0-1.1,0.9-2,2-2h66c1.1,0,2,0.9,2,2v66C70,69.1,69.1,70,68,70z"/>
<path class="st1" d="M2.6,0c0,6.9,4,5.4,4,23.8c0,8-3.1,14.8-3.1,24.6s0,21.6,0,21.6 M0,39c1.9,0,3.5-7.4,3.5-16.5S1.9,6,0,6
	 M5.9,70c0,0,0-7.5,0-18.4s5.6-20.8,5.6-32.4S7.9,7.1,7.9,3.5c0-2.3,0-3.5,0-3.5 M64.8,70c0-10.1,2.2-10.5,2.2-22.1
	S59.1,36.8,59.1,13c0-10.9,0-13,0-13 M15.2,0v70 M18,0v70 M39.5,0v70 M36.7,0v70 M28.6,0v70 M56.1,0v70 M48.1,0v70 M63.4,0.1
	c0,15.6,0.8,28.1,1.8,28.1S67,15.7,67,0.1"/>
<rect x="9" y="9" class="st2" width="51px" height="53px"/>
<linearGradient id="SVGID_2_" gradientUnits="userSpaceOnUse" x1="-329.5" y1="-850" x2="-327.5" y2="-850" gradientTransform="matrix(4.489659e-11 1 -1 4.489659e-11 -815.5 336.5)">
	<stop  offset="0" style="stop-color:#000000;stop-opacity:0"/>
	<stop  offset="1" style="stop-color:#000000;stop-opacity:0.3"/>
</linearGradient>
<polygon class="st3" points="7,7 9,9 60,9 62,7 "/>
<linearGradient id="SVGID_3_" gradientUnits="userSpaceOnUse" x1="28.6535" y1="691.8486" x2="40.2517" y2="711.9375" gradientTransform="matrix(1 0 0 1 0 -690)">
	<stop  offset="0" style="stop-color:#E6E6E6"/>
	<stop  offset="1" style="stop-color:#787878"/>
</linearGradient>
<path class="st4" d="M27.8,3C27.8,3,16,7,16,13v1h38v-1C54,7,42.2,3,42.2,3H27.8z"/>
<linearGradient id="SVGID_4_" gradientUnits="userSpaceOnUse" x1="-1958" y1="725.5" x2="-1956" y2="725.5" gradientTransform="matrix(-1 0 0 1 -1896 -690)">
	<stop  offset="0" style="stop-color:#000000;stop-opacity:0"/>
	<stop  offset="1" style="stop-color:#000000;stop-opacity:0.3"/>
</linearGradient>
<polygon class="st5" points="62,64 60,62 60,9 62,7 "/>
<linearGradient id="SVGID_5_" gradientUnits="userSpaceOnUse" x1="-101" y1="725.5" x2="-99" y2="725.5" gradientTransform="matrix(1 0 0 1 108 -690)">
	<stop  offset="0" style="stop-color:#000000;stop-opacity:0"/>
	<stop  offset="1" style="stop-color:#000000;stop-opacity:0.3"/>
</linearGradient>
<polygon class="st6" points="7,64 9,62 9,9 7,7 "/>
<linearGradient id="SVGID_6_" gradientUnits="userSpaceOnUse" x1="-1731.5" y1="-850" x2="-1729.5" y2="-850" gradientTransform="matrix(-8.979359e-11 -1 -1 8.979359e-11 -815.5 -1667.5)">
	<stop  offset="0" style="stop-color:#000000;stop-opacity:0"/>
	<stop  offset="1" style="stop-color:#000000;stop-opacity:0.3"/>
</linearGradient>
<polygon class="st7" points="7,64 9,62 60,62 62,64 "/>
<path class="st8" d="M39.4,7c-0.2,0-9.6,0-9.8,0C28.7,7,28,7.6,28,8.5s0.7,1.5,1.6,1.5c0.2,0,9.6,0,9.8,0c0.9,0,1.6-0.6,1.6-1.5
	S40.3,7,39.4,7z"/>
<path class="st9" d="M54,14H16v-1h38V14z M29.6,8c0.2,0,9.6,0,9.8,0c0.7,0,1.3,0.4,1.5,1C41,8.8,41,8.7,41,8.5C41,7.6,40.3,7,39.4,7
	c-0.2,0-9.6,0-9.8,0C28.7,7,28,7.6,28,8.5c0,0.2,0,0.3,0.1,0.5C28.3,8.4,28.9,8,29.6,8z"/>
<path class="st10" d="M47.3,20.5l-5.7,5.7L40.5,25l-2.8,2.3l-4.1-4.2H20.9c-0.5,0-0.8,0.4-0.8,0.8v29.8l0,0H42V32.6v-0.4l2.8-2.8
	l-1.2-1.2l4.8-4.8h3v-2.9C51.4,20.5,47.3,20.5,47.3,20.5z"/>
<polygon class="st2" points="32.7,25.7 35.9,29 25.4,29 22.3,25.7 "/>
<path class="st11" d="M24.8,36.1l13.5,13.5 M38.4,36.1L24.8,49.7"/>
<path class="st12" d="M0,3c0-1.1,0.9-2,2-2h66c1.1,0,2,0.9,2,2V2c0-1.1-0.9-2-2-2H2C0.9,0,0,0.9,0,2V3z"/>
</svg>
