<?xml version="1.0" encoding="utf-8"?>
<!-- Generator: Adobe Illustrator 21.1.0, SVG Export Plug-In . SVG Version: 6.00 Build 0)  -->
<svg version="1.1" id="Layer_1" xmlns="http://www.w3.org/2000/svg" xmlns:xlink="http://www.w3.org/1999/xlink" x="0px" y="0px"
	 viewBox="0 0 70 70" style="enable-background:new 0 0 70 70;" xml:space="preserve" width="70px" height="70px" fill="#333">
<style type="text/css">
	.st0{fill:#D2D2D2;}
	.st1{fill:url(#SVGID_1_);}
	.st2{fill:#333333;}
	.st3{fill:#555555;}
	.st4{fill:#FFFFFF;}
	.st5{fill:#B0B0B0;}
	.st6{fill:none;}
	.st7{fill:url(#SVGID_2_);}
	.st8{fill:url(#SVGID_3_);}
	.st9{opacity:0.6;fill:#333333;enable-background:new    ;}
	.st10{opacity:0.1;fill:#333333;enable-background:new    ;}
	.st11{opacity:0.5;fill:#FFFFFF;enable-background:new    ;}
	.st12{opacity:0.1;fill:#FFFFFF;enable-background:new    ;}
</style>
<path class="st0" d="M70,68c0,1.1-0.9,2-2,2H2c-1.1,0-2-0.9-2-2V2c0-1.1,0.9-2,2-2h66c1.1,0,2,0.9,2,2V68z"/>
<linearGradient id="SVGID_1_" gradientUnits="userSpaceOnUse" x1="0" y1="37" x2="46" y2="37" gradientTransform="matrix(1 0 0 -1 0 72)">
	<stop  offset="0" style="stop-color:#101010"/>
	<stop  offset="1" style="stop-color:#2E2E2E"/>
</linearGradient>
<path class="st1" d="M46,70H2c-1.1,0-2-0.9-2-2V2c0-1.1,0.9-2,2-2h44"/>
<rect y="13" class="st2" width="46px" height="44px"/>
<rect y="13" class="st3" width="46px" height="1px"/>
<rect y="56" class="st3" width="46px" height="1px"/>
<path class="st4" d="M54,33c-0.8,0-2-1.2-2-2V9c0-0.8,1.2-1,2-1h15.5v25H54z"/>
<path class="st5" d="M69,8v24H54c-0.6,0-1-0.4-1-1V9c0-0.6,0.4-1,1-1H69 M70,7H54c-1.1,0-2,0.9-2,2v22c0,1.1,0.9,2,2,2h16V7L70,7z"
	/>
<path class="st4" d="M54,63c-0.8,0-2-1.2-2-2V39c0-0.8,1.2-1,2-1h15.5v25H54z"/>
<path class="st5" d="M69,38v24H54c-0.6,0-1-0.4-1-1V39c0-0.6,0.4-1,1-1H69 M70,37H54c-1.1,0-2,0.9-2,2v22c0,1.1,0.9,2,2,2h16V37
	L70,37z"/>
<rect x="50" y="3" class="st6" width="20px" height="63px"/>
<radialGradient id="SVGID_2_" cx="23.3333" cy="49" r="65.29" fx="-4.9174" fy="49" gradientTransform="matrix(1 0 0 -1 0 72)" gradientUnits="userSpaceOnUse">
	<stop  offset="0" style="stop-color:#FFFFFF;stop-opacity:0.1"/>
	<stop  offset="1" style="stop-color:#FFFFFF;stop-opacity:0"/>
</radialGradient>
<path class="st7" d="M68,70H2c-1.1,0-2-0.9-2-2V2c0-1.1,0.9-2,2-2h66c1.1,0,2,0.9,2,2v66C70,69.1,69.1,70,68,70z"/>
<rect x="68" y="38" class="st4" width="2px" height="24px"/>
<rect x="68" y="8" class="st4" width="2px" height="24px"/>
<linearGradient id="SVGID_3_" gradientUnits="userSpaceOnUse" x1="65" y1="37" x2="70" y2="37" gradientTransform="matrix(1 0 0 -1 0 72)">
	<stop  offset="0" style="stop-color:#FFFFFF;stop-opacity:0"/>
	<stop  offset="1" style="stop-color:#232323;stop-opacity:0.2"/>
</linearGradient>
<path class="st8" d="M65,0h3c1.1,0,2,0.9,2,2v66c0,1.1-0.9,2-2,2h-3V0z"/>
<path class="st9" d="M46,70H2c-1.1,0-2-0.9-2-2v-1c0,1.1,0.9,2,2,2h44"/>
<path class="st10" d="M46,69h22c1.1,0,2-0.9,2-2v1c0,1.1-0.9,2-2,2H46"/>
<path class="st11" d="M46,1h22c1.1,0,2,0.9,2,2V2c0-1.1-0.9-2-2-2H46"/>
<path class="st12" d="M47,0H2C0.9,0,0,0.9,0,2v1c0-1.1,0.9-2,2-2h45"/>
<path class="st4" d="M37,24l-3,3h-3c-0.6,0-1-0.4-1-1v-3l3-3c0,0-1,0-1.5,0c-3,0-5.5,2.5-5.5,5.5c0,0.7,0.1,1.4,0.4,2.1l-9.8,9.8
	c-0.7-0.3-1.4-0.4-2.1-0.4c-3,0-5.5,2.5-5.5,5.5s2.5,5.5,5.5,5.5s5.5-2.5,5.5-5.5c0-0.7-0.1-1.4-0.4-2.1l9.8-9.8
	c0.6,0.3,1.3,0.4,2.1,0.4c3,0,5.5-2.5,5.5-5.5C37,25,37,24,37,24z M18,44l-2,2h-3l-2-2v-3l2-2h3l2,2V44z"/>
</svg>
