<svg version="1.1" id="Layer_1" xmlns="http://www.w3.org/2000/svg" xmlns:xlink="http://www.w3.org/1999/xlink" x="0px" y="0px" viewBox="0 0 70 70" enable-background="new 0 0 70 70" xml:space="preserve" width="70px" height="70px" fill="#333">

<radialGradient id="SVGID_1_" cx="35" cy="35" r="35" gradientUnits="userSpaceOnUse">
	<stop offset="0" style="stop-color:#FFF0E2"/>
	<stop offset="1" style="stop-color:#EFAF13"/>
</radialGradient>

<path fill="url(#SVGID_1_)" d="M70,68c0,1.1-0.9,2-2,2H2c-1.1,0-2-0.9-2-2V2c0-1.1,0.9-2,2-2h66c1.1,0,2,0.9,2,2V68z"/>
<polygon fill="#FFFFFF" points="17,8 17,61 53,61 53,19 42,8 	"/>
<rect x="24" y="15" fill="#46813D" width="14px" height="4px"/>
<path fill="#E5E5E5" d="M11,17v37H0V17H11z M59,17v37h11V17H59z"/>
<path fill="#7F7F7F" d="M46,26H24v-2h22V26z M46,31H24v2h22V31z M46,38H24v2h22V38z M46,45H24v2h22V45z M7,24H0v2h7V24z M7,31H0v2h7V31z M7,38H0v2h7V38z M7,45H0v2h7V45z M63,26h7v-2h-7V26z M63,33h7v-2h-7V33z M63,40h7v-2h-7V40z M63,47h7v-2h-7V47z M46,52H24v2h22V52z"/>
<polygon fill="#C8C8C8" points="42,19 53,19 42,8 "/>

<radialGradient id="SVGID_2_" cx="23.3333" cy="23" r="65.29" fx="-4.9174" fy="23" gradientUnits="userSpaceOnUse">
	<stop offset="0" style="stop-color:#FFFFFF;stop-opacity:0.1"/>
	<stop offset="1" style="stop-color:#FFFFFF;stop-opacity:0"/>
</radialGradient>

<path display="inline" fill="url(#SVGID_2_)" d="M68,70H2c-1.1,0-2-0.9-2-2V2c0-1.1,0.9-2,2-2h66c1.1,0,2,0.9,2,2v66C70,69.1,69.1,70,68,70z"/>
<path opacity="0.3" fill="#FFFFFF" d="M0,3c0-1.1,0.9-2,2-2h66c1.1,0,2,0.9,2,2V2c0-1.1-0.9-2-2-2H2C0.9,0,0,0.9,0,2V3z"/>
<path opacity="0.3" d="M0,67c0,1.1,0.9,2,2,2h66c1.1,0,2-0.9,2-2v1c0,1.1-0.9,2-2,2H2c-1.1,0-2-0.9-2-2L0,67z"/>

<linearGradient id="SVGID_3_" gradientUnits="userSpaceOnUse" x1="15" y1="34.5" x2="17" y2="34.5">
	<stop offset="0" style="stop-color:#000000;stop-opacity:0"/>
	<stop offset="1" style="stop-color:#000000;stop-opacity:0.2"/>
</linearGradient>

<polygon fill="url(#SVGID_3_)" points="15,63 17,61 17,8 15,6 "/>
	<linearGradient id="SVGID_4_" gradientUnits="userSpaceOnUse" x1="54" y1="40" x2="56" y2="40" gradientTransform="matrix(-1 0 0 1 109 0)">
		<stop offset="0" style="stop-color:#000000;stop-opacity:0"/>
		<stop offset="1" style="stop-color:#000000;stop-opacity:0.2"/>
	</linearGradient>

<polygon fill="url(#SVGID_4_)" points="55,63 53,61 53,19 55,17 "/>
	<linearGradient id="SVGID_5_" gradientUnits="userSpaceOnUse" x1="35" y1="63" x2="35" y2="61">
		<stop offset="0" style="stop-color:#000000;stop-opacity:0"/>
		<stop offset="1" style="stop-color:#000000;stop-opacity:0.2"/>
	</linearGradient>

<polygon fill="url(#SVGID_5_)" points="55,63 15,63 17,61 53,61 "/>
	<linearGradient id="SVGID_6_" gradientUnits="userSpaceOnUse" x1="29.5" y1="-9" x2="29.5" y2="-11" gradientTransform="matrix(1 0 0 -1 0 -3)">
		<stop offset="0" style="stop-color:#000000;stop-opacity:0"/>
		<stop offset="1" style="stop-color:#000000;stop-opacity:0.2"/>
	</linearGradient>

<polygon fill="url(#SVGID_6_)" points="44,6 15,6 17,8 42,8 "/>
	<linearGradient id="SVGID_7_" gradientUnits="userSpaceOnUse" x1="50.9142" y1="13.7426" x2="50.9142" y2="10.9142" gradientTransform="matrix(0.7071 0.7071 -0.7071 0.7071 21.2157 -32.2193)">
		<stop offset="0" style="stop-color:#000000;stop-opacity:0.2"/>
		<stop offset="1" style="stop-color:#000000;stop-opacity:0"/>
	</linearGradient>

<polygon fill="url(#SVGID_7_)" points="53,19 42,8 44,6 55,17 "/>
	<linearGradient id="SVGID_8_" gradientUnits="userSpaceOnUse" x1="63.5" y1="56" x2="63.5" y2="54">
		<stop offset="0" style="stop-color:#000000;stop-opacity:0"/>
		<stop offset="1" style="stop-color:#000000;stop-opacity:0.2"/>
	</linearGradient>

<polygon fill="url(#SVGID_8_)" points="57,56 70,56 70,54 59,54 "/>
	<linearGradient id="SVGID_9_" gradientUnits="userSpaceOnUse" x1="63.5" y1="17.0833" x2="63.5" y2="15.0833" gradientTransform="matrix(1 0 0 -1 0 32.0833)">
		<stop offset="0" style="stop-color:#000000;stop-opacity:0"/>
		<stop offset="1" style="stop-color:#000000;stop-opacity:0.2"/>
	</linearGradient>

<polygon fill="url(#SVGID_9_)" points="57,15 70,15 70,17 59,17 "/>
	<linearGradient id="SVGID_10_" gradientUnits="userSpaceOnUse" x1="57" y1="35.5" x2="59" y2="35.5">
		<stop offset="0" style="stop-color:#000000;stop-opacity:0"/>
		<stop offset="1" style="stop-color:#000000;stop-opacity:0.2"/>
	</linearGradient>

<polygon fill="url(#SVGID_10_)" points="57,56 59,54 59,17 57,15 "/>
	<linearGradient id="SVGID_11_" gradientUnits="userSpaceOnUse" x1="6.5" y1="56" x2="6.5" y2="54" gradientTransform="matrix(-1 0 0 1 13 0)">
		<stop offset="0" style="stop-color:#000000;stop-opacity:0"/>
		<stop offset="1" style="stop-color:#000000;stop-opacity:0.2"/>
	</linearGradient>

<polygon fill="url(#SVGID_11_)" points="13,56 0,56 0,54 11,54 "/>
	<linearGradient id="SVGID_12_" gradientUnits="userSpaceOnUse" x1="6.5" y1="17.0833" x2="6.5" y2="15.0833" gradientTransform="matrix(-1 0 0 -1 13 32.0833)">
		<stop offset="0" style="stop-color:#000000;stop-opacity:0"/>
		<stop offset="1" style="stop-color:#000000;stop-opacity:0.2"/>
	</linearGradient>

<polygon fill="url(#SVGID_12_)" points="13,15 0,15 0,17 11,17 "/>
	<linearGradient id="SVGID_13_" gradientUnits="userSpaceOnUse" x1="2.637535e-11" y1="35.5" x2="2" y2="35.5" gradientTransform="matrix(-1 0 0 1 13 0)">
		<stop offset="0" style="stop-color:#000000;stop-opacity:0"/>
		<stop offset="1" style="stop-color:#000000;stop-opacity:0.2"/>
	</linearGradient>

<polygon fill="url(#SVGID_13_)" points="13,56 11,54 11,17 13,15 "/>

</svg>
