<?xml version="1.0" encoding="utf-8"?>
<!-- Generator: Adobe Illustrator 19.0.0, SVG Export Plug-In . SVG Version: 6.00 Build 0)  -->
<svg version="1.0" id="Layer_1" xmlns="http://www.w3.org/2000/svg" xmlns:xlink="http://www.w3.org/1999/xlink" x="0px" y="0px" viewBox="0 0 70 70" style="enable-background:new 0 0 70 70;" xml:space="preserve" width="70px" height="70px" fill="#333">
<style type="text/css">
	.planting{fill:#1A6830;}
	.application{fill:#B0E0ED;}
	.harvest{fill:#EFAF13;}
	.paper{fill:#FFFFFF;}
	.clip1{fill:#C1C1C1;}
	.clip2{fill:#999999;}
	.clip3{fill:#828181;}
	.board{fill:url(#SVGID_1_);}
	.highlight{opacity:0.3;fill:#FFFFFF;enable-background:new    ;}
	.iconpath{fill:#333333;}
	.grain{fill:none;stroke:#402D0B;stroke-miterlimit:10;}
	.iconline{fill:none;stroke:#333333;stroke-width:0.6;stroke-miterlimit:10;}
	.st0{fill:url(#Shape_1_);}
	.st1{fill:url(#Oval_2_);}
</style>
<linearGradient id="SVGID_1_" gradientUnits="userSpaceOnUse" x1="-828" y1="756" x2="-827.3572" y2="756.7661">
	<stop offset="0" style="stop-color:#896200"/>
	<stop offset="1" style="stop-color:#501C00"/>
</linearGradient>
<linearGradient id="Shape_1_" gradientUnits="userSpaceOnUse" x1="-3265.6453" y1="-0.0878" x2="-3264.7546" y2="0.9735" gradientTransform="matrix(70 0 0 70 228599 4)">
	<stop offset="0" style="stop-color:#896200"/>
	<stop offset="1" style="stop-color:#501C00"/>
</linearGradient>
<path id="Shape" class="st0" d="M68,70H2c-1.1,0-2-0.9-2-2V2c0-1.1,0.9-2,2-2h66c1.1,0,2,0.9,2,2v66C70,69.1,69.1,70,68,70z"/>
<path class="grain" d="M2.6,0c0,6.9,4,5.4,4,23.8c0,8-3.1,14.8-3.1,24.6V70 M0,39c1.9,0,3.5-7.4,3.5-16.5S1.9,6,0,6 M5.9,70V51.6
	c0-10.9,5.6-20.8,5.6-32.4S7.9,7.1,7.9,3.5V0 M64.8,70c0-10.1,2.2-10.5,2.2-22.1S59.1,36.8,59.1,13V0 M15.2,70V0 M18,0v70 M39.5,0
	v70 M36.7,0v70 M28.6,0v70 M56.1,70V0 M48.1,70V0 M63.4,0.1c0,15.6,0.8,28.1,1.8,28.1S67,15.7,67,0.1"/>
<rect id="Rectangle-path" x="9" y="9" class="paper" width="52px" height="53px"/>
<path id="Shape_3_" class="clip1" d="M27.8,3C27.8,3,16,7,16,13v1h38v-1C54,7,42.2,3,42.2,3H27.8z"/>
<path id="Shape_7_" class="clip2" d="M39.4,7h-9.8C28.7,7,28,7.6,28,8.5s0.7,1.5,1.6,1.5h9.8c0.9,0,1.6-0.6,1.6-1.5S40.3,7,39.4,7z"/>
<path id="Shape_8_" class="clip3" d="M54,14H16v-1h38V14z"/>
<path id="Shape_10_" class="planting" d="M24.5,54C18.6,50.3,15,44,15,37c0-11,9-20,20-20v20L24.5,54z"/>
<path id="Shape_11_" class="application" d="M53.2,45.3L35,37V17c11,0,20,9,20,20C55,39.9,54.4,42.6,53.2,45.3z"/>
<path class="harvest" d="M35,37L24.5,54c3.057,1.9,6.686,3.014,10.53,3.014c8.045,0,15.003-4.824,18.17-11.714L35,37z"/>
<radialGradient id="Oval_2_" cx="-3209.0312" cy="0.375" r="0.5" gradientTransform="matrix(32 0 0 32 102724 25)" gradientUnits="userSpaceOnUse">
	<stop offset="0" style="stop-color:#000000"/>
	<stop offset="0.8625" style="stop-color:#000000;stop-opacity:0.1375"/>
	<stop offset="1" style="stop-color:#000000;stop-opacity:0"/>
</radialGradient>
<circle id="Oval" class="st1" cx="35" cy="37" r="16"/>
<circle id="Oval_1_" class="paper" cx="35" cy="37" r="14.5"/>
<path id="Shape_13_" class="highlight" d="M0,3c0-1.1,0.9-2,2-2h66c1.1,0,2,0.9,2,2V2c0-1.1-0.9-2-2-2H2C0.9,0,0,0.9,0,2V3z"/>
<path class="iconpath" d="M40,30.223h-0.297c0-1.056-0.845-1.911-1.887-1.911s-1.887,0.856-1.887,1.911h-1.858
	c0-1.056-0.845-1.911-1.887-1.911c-1.042,0-1.887,0.856-1.887,1.911H30c-1.105,0-2,0.907-2,2.025v11.038
	c0,1.119,0.895,2.025,2,2.025h10c1.105,0,2-0.907,2-2.025V32.248C42,31.13,41.105,30.223,40,30.223z M36.908,30.235
	c0-0.503,0.403-0.911,0.9-0.911s0.9,0.408,0.9,0.911h0.016v2.002c0,0.503-0.403,0.911-0.9,0.911s-0.9-0.408-0.9-0.911h-0.016V30.235
	z M31.276,30.235c0-0.503,0.403-0.911,0.9-0.911c0.497,0,0.9,0.408,0.9,0.911h0.016v2.002c0,0.503-0.403,0.911-0.9,0.911
	c-0.497,0-0.9-0.408-0.9-0.911h-0.016V30.235z M40.995,43.388c0,0.53-0.43,0.96-0.96,0.96h-10.07c-0.53,0-0.96-0.43-0.96-0.96
	v-9.204h11.99L40.995,43.388z"/>
<line class="iconline" x1="29.547" y1="38.75" x2="40.453" y2="38.75"/>
<line class="iconline" x1="29.547" y1="40.764" x2="40.453" y2="40.764"/>
<line class="iconline" x1="29.547" y1="42.741" x2="40.453" y2="42.741"/>
<line class="iconline" x1="35" y1="37.6" x2="35" y2="43.929"/>
<line class="iconline" x1="38.125" y1="37.6" x2="38.125" y2="43.929"/>
<line class="iconline" x1="31.875" y1="37.6" x2="31.875" y2="43.929"/>
<line class="iconline" x1="29.005" y1="36.646" x2="40.995" y2="36.646"/>
<path id="Shape_2_" class="clip3" d="M29.6,8h9.8c0.7,0,1.3,0.4,1.5,1C41,8.8,41,8.7,41,8.5C41,7.6,40.3,7,39.4,7h-9.8
	C28.7,7,28,7.6,28,8.5c0,0.2,0,0.3,0.1,0.5C28.3,8.4,28.9,8,29.6,8z"/>
</svg>
