<?xml version="1.0" encoding="utf-8"?>
<!-- Generator: Adobe Illustrator 21.1.0, SVG Export Plug-In . SVG Version: 6.00 Build 0)  --><svg version="1.0" id="icon-geofences-manager-cover" xmlns="http://www.w3.org/2000/svg" xmlns:xlink="http://www.w3.org/1999/xlink" x="0px" y="0px" viewBox="0 0 70 70" style="enable-background:new 0 0 70 70;" xml:space="preserve" width="70px" height="70px" fill="#333">
<style type="text/css">
	.st0{fill:url(#SVGID_1_);}
	.st1{fill:url(#SVGID_2_);}
	.st2{fill:#333333;}
	.st3{fill:#555555;}
	.st4{fill:#B0B0B0;}
	.st5{fill:#FFFFFF;}
	.st6{fill:#E8D925;}
	.st7{fill:url(#SVGID_3_);}
	.st8{opacity:0.3;fill:#333333;enable-background:new    ;}
	.st9{opacity:0.3;fill:#FFFFFF;enable-background:new    ;}
</style>
<linearGradient id="SVGID_1_" gradientUnits="userSpaceOnUse" x1="0" y1="-5" x2="70" y2="-5" gradientTransform="matrix(1 0 0 1 0 40)">
	<stop  offset="0" style="stop-color:#D2D2D2"/>
	<stop  offset="0.8625" style="stop-color:#D2D2D2"/>
	<stop  offset="1" style="stop-color:#D2D2D2"/>
</linearGradient>
<path class="st0" d="M70,68c0,1.1-0.9,2-2,2H2c-1.1,0-2-0.9-2-2V2c0-1.1,0.9-2,2-2h66c1.1,0,2,0.9,2,2V68z"/>
<linearGradient id="SVGID_2_" gradientUnits="userSpaceOnUse" x1="0" y1="-5" x2="46" y2="-5" gradientTransform="matrix(1 0 0 1 0 40)">
	<stop  offset="0" style="stop-color:#101010"/>
	<stop  offset="1" style="stop-color:#2E2E2E"/>
</linearGradient>
<path class="st1" d="M46,70H2c-1.1,0-2-0.9-2-2V2c0-1.1,0.9-2,2-2h44"/>
<rect y="13" class="st2" width="46px" height="44px"/>
<path class="st3" d="M46,14H0v-1h46V14z M46,56H0v1h46V56z"/>
<path class="st4" d="M52,61V39c0-1.1,0.9-2,2-2h16v26H54C52.9,63,52,62.1,52,61z M54,33h16V7H54c-1.1,0-2,0.9-2,2v22
	C52,32.1,52.9,33,54,33z"/>
<path class="st5" d="M53,61V39c0-0.6,0.4-1,1-1h16v24H54C53.4,62,53,61.6,53,61z M54,32h16V8H54c-0.6,0-1,0.4-1,1v22
	C53,31.6,53.4,32,54,32z"/>
<path class="st6" d="M31.07,43.607v-1.803c-0.395,0.07-0.8,0.109-1.214,0.109c-0.499,0-0.985-0.054-1.454-0.155v1.805
	c-0.866,0.377-1.534,1.122-1.807,2.038h-9.257c-0.31-1.041-1.13-1.86-2.17-2.17V26.568c1.04-0.31,1.86-1.129,2.17-2.17h9.257
	c0.273,0.916,0.941,1.661,1.807,2.038v1.805c0.468-0.101,0.955-0.156,1.454-0.156c0.415,0,0.82,0.039,1.214,0.109v-1.802
	c1.09-0.518,1.844-1.629,1.844-2.916c0-1.782-1.445-3.226-3.226-3.226c-1.096,0-2.064,0.548-2.648,1.383H16.893
	c-0.583-0.835-1.551-1.383-2.647-1.383c-1.782,0-3.226,1.445-3.226,3.226c0,1.096,0.548,2.064,1.383,2.648v17.752
	c-0.835,0.584-1.383,1.551-1.383,2.648c0,1.782,1.445,3.226,3.226,3.226c1.096,0,2.064-0.548,2.648-1.383h10.147
	c0.584,0.835,1.551,1.383,2.648,1.383c1.782,0,3.226-1.445,3.226-3.226C32.914,45.236,32.16,44.125,31.07,43.607z M29.84,29.87
	c0.473,0,0.93,0.06,1.37,0.18s0.85,0.292,1.229,0.519c0.379,0.227,0.724,0.495,1.034,0.806c0.311,0.311,0.577,0.655,0.801,1.034
	s0.395,0.787,0.515,1.225s0.18,0.893,0.18,1.366s-0.06,0.927-0.18,1.362s-0.291,0.843-0.515,1.221
	c-0.224,0.379-0.491,0.725-0.801,1.038c-0.311,0.313-0.655,0.582-1.034,0.806s-0.789,0.397-1.229,0.519
	c-0.441,0.122-0.897,0.183-1.37,0.183c-0.438,0-0.861-0.053-1.271-0.16c-0.409-0.107-0.796-0.258-1.161-0.454
	c-0.364-0.195-0.697-0.431-1-0.706c-0.302-0.275-0.57-0.582-0.801-0.92s-0.422-0.704-0.572-1.099s-0.248-0.806-0.294-1.233h6.374
	l-2.252,2.236l0.771,0.794l3.595-3.572l-3.595-3.595l-0.772,0.78l2.267,2.259h-6.388c0.071-0.646,0.252-1.248,0.542-1.805
	c0.29-0.557,0.662-1.043,1.115-1.457c0.453-0.415,0.974-0.739,1.564-0.973C28.553,29.987,29.179,29.87,29.84,29.87z"/>
<linearGradient id="SVGID_3_" gradientUnits="userSpaceOnUse" x1="66" y1="-5" x2="70" y2="-5" gradientTransform="matrix(1 0 0 1 0 40)">
	<stop  offset="0" style="stop-color:#000000;stop-opacity:0"/>
	<stop  offset="1" style="stop-color:#000000;stop-opacity:0.1"/>
</linearGradient>
<path class="st7" d="M66,0h2c1.1,0,2,0.9,2,2v66c0,1.1-0.9,2-2,2h-2"/>
<g id="Finish">
	<path class="st8" d="M0,67c0,1.1,0.9,2,2,2h66c1.1,0,2-0.9,2-2v1c0,1.1-0.9,2-2,2H2c-1.1,0-2-0.9-2-2V67z"/>
	<path class="st9" d="M0,3c0-1.1,0.9-2,2-2h66c1.1,0,2,0.9,2,2V2c0-1.1-0.9-2-2-2H2C0.9,0,0,0.9,0,2V3z"/>
</g>
</svg>
