<?xml version="1.0" encoding="utf-8"?>
<!-- Generator: Adobe Illustrator 21.1.0, SVG Export Plug-In . SVG Version: 6.00 Build 0)  -->
<svg version="1.1" id="Layer_1" xmlns="http://www.w3.org/2000/svg" xmlns:xlink="http://www.w3.org/1999/xlink" x="0px" y="0px"
	 viewBox="0 0 70 70" style="enable-background:new 0 0 70 70;" xml:space="preserve" width="70px" height="70px" fill="#333">
<style type="text/css">
	.primary{fill:#333333;}
	.st0{fill:url(#SVGID_1_);}
	.st1{fill:#E5E5E5;}
	.st2{opacity:0.3;fill:#FFFFFF;enable-background:new    ;}
	.st3{fill:#7F7F7F;}
	.st4{fill:#FFFFFF;}
	.st5{fill:#46813D;}
	.st6{fill:#C8C8C8;}
	.st7{opacity:0.3;fill:#333333;enable-background:new    ;}
	.st8{fill:#333333;}
</style>
<radialGradient id="SVGID_1_" cx="35" cy="75" r="35" gradientTransform="matrix(1 0 0 -1 0 110)" gradientUnits="userSpaceOnUse">
	<stop  offset="0" style="stop-color:#FFF0E2"/>
	<stop  offset="1" style="stop-color:#EFAF13"/>
</radialGradient>
<path class="st0" d="M70,68c0,1.1-0.9,2-2,2H2c-1.1,0-2-0.9-2-2V2c0-1.1,0.9-2,2-2h66c1.1,0,2,0.9,2,2V68z"/>
<g>
	<g>
		<path class="st1" d="M11,17v37H0V17H11z M59,17v37h11V17H59z"/>
	</g>
</g>
<path class="st2" d="M0,3c0-1.1,0.9-2,2-2h66c1.1,0,2,0.9,2,2V2c0-1.1-0.9-2-2-2H2C0.9,0,0,0.9,0,2V3z"/>
<rect y="24" class="st3" width="7px" height="2px"/>
<rect y="31" class="st3" width="7px" height="2px"/>
<rect y="38" class="st3" width="7px" height="2px"/>
<rect y="45" class="st3" width="7px" height="2px"/>
<path class="st3" d="M63,26h7v-2h-7V26z M63,33h7v-2h-7V33z M63.9,38H63v0.9L63.9,38z"/>
<g>
	<g>
		<polyline class="st4" points="53,49.9 53,19 42,8 17,8 17,61 41.9,61 		"/>
	</g>
</g>
<rect x="24" y="15" class="st5" width="14px" height="4px"/>
<polygon class="st6" points="42,19 53,19 42,8 "/>
<rect x="24" y="24" class="st3" width="22px" height="2px"/>
<rect x="24" y="31" class="st3" width="22px" height="2px"/>
<rect x="24" y="38" class="st3" width="22px" height="2px"/>
<rect x="24" y="45" class="st3" width="22px" height="2px"/>
<rect x="24" y="52" class="st3" width="22px" height="2px"/>
<g>
	<g>
		<polygon class="st4" points="53,70 32,70 70,32 70,53 		"/>
	</g>
</g>
<path class="st7" d="M0,67c0,1.1,0.9,2,2,2h66c1.1,0,2-0.9,2-2v1c0,1.1-0.9,2-2,2H2c-1.1,0-2-0.9-2-2V67z"/>
<g>
	<path class="primary" d="M51.9,62.6c-0.6-0.6-1.2-0.8-1.8-0.8c0.1-0.6-0.2-1.1-0.7-1.7l-0.5-0.5c-1-1-2.1-1-3.3,0.1L43.4,62
		l0.6,0.6l6.2,6.3l2.3-2.3c1.1-1.1,1.1-2.3,0-3.4L51.9,62.6z M45.7,62l1.1-1.1c0.6-0.6,1.1,0,1.1,0l0.6,0.6c0,0,0.6,0.6,0,1.1
		l-1.1,1.1L45.7,62z M51.3,65.4l-1.1,1.1l-1.7-1.7l1.1-1.1c0.6-0.6,1.1,0,1.1,0l0.6,0.6C51.3,64.3,51.9,64.9,51.3,65.4z"/>
	<path class="primary" d="M68.5,50.8l1.1-1.1L61.7,44L60,45.6l5.6,8l1.1-1.1l-1.6-2.2l1.1-1.1L68.5,50.8z M64.2,48.9L62.1,46
		l2.8,2.1L64.2,48.9z"/>
	<polygon class="st8" points="58.8,49 57.7,47.9 54.3,51.2 55.4,52.4 56.5,51.3 62.2,57 63.3,55.9 57.7,50.1 	"/>
	<polygon class="primary" points="55.9,60.9 54.2,59.2 55.4,58.1 54.2,56.9 53.1,58.1 51.4,56.3 53.7,54.1 52.6,52.9 49.1,56.3 
		55.9,63.2 59.3,59.8 58.2,58.7 	"/>
</g>
</svg>
