<?xml version="1.0" encoding="utf-8"?>
<!-- Generator: Adobe Illustrator 21.1.0, SVG Export Plug-In . SVG Version: 6.00 Build 0)  -->
<svg version="1.0" id="icon-engine-utilization-report-cover"
	 xmlns="http://www.w3.org/2000/svg" xmlns:xlink="http://www.w3.org/1999/xlink" x="0px" y="0px" viewBox="0 0 70 70" style="enable-background:new 0 0 70 70;" xml:space="preserve" width="70px" height="70px" fill="#333">
<style type="text/css">
	.st0{fill:url(#SVGID_1_);}
	.st1{opacity:0.4;fill:none;stroke:#000000;stroke-miterlimit:10;enable-background:new    ;}
	.st2{fill:#FFFFFF;}
	.st3{fill:url(#SVGID_2_);}
	.st4{fill:url(#SVGID_3_);}
	.st5{fill:#999999;}
	.st6{opacity:0.4;fill:#333333;enable-background:new    ;}
	.st7{fill:#464646;}
	.st8{opacity:0.3;fill:#FFFFFF;enable-background:new    ;}
</style>
<linearGradient id="SVGID_1_" gradientUnits="userSpaceOnUse" x1="3.8318" y1="2921.8552" x2="66.1682" y2="2996.1448" gradientTransform="matrix(1 0 0 1 0 -2924)">
	<stop  offset="0" style="stop-color:#896200"/>
	<stop  offset="1" style="stop-color:#501C00"/>
</linearGradient>
<path class="st0" d="M68,70H2c-1.1,0-2-0.9-2-2V2c0-1.1,0.9-2,2-2h66c1.1,0,2,0.9,2,2v66C70,69.1,69.1,70,68,70z"/>
<path class="st1" d="M2.6,0c0,6.9,4,5.4,4,23.8c0,8-3.1,14.8-3.1,24.6s0,21.6,0,21.6 M0,39c1.9,0,3.5-7.4,3.5-16.5S1.9,6,0,6
	 M5.9,70c0,0,0-7.5,0-18.4s5.6-20.8,5.6-32.4S7.9,7.1,7.9,3.5c0-2.3,0-3.5,0-3.5 M64.8,70c0-10.1,2.2-10.5,2.2-22.1
	S59.1,36.8,59.1,13c0-10.9,0-13,0-13 M15.2,0v70 M18,0v70 M39.5,0v70 M36.7,0v70 M28.6,0v70 M56.1,0v70 M48.1,0v70 M63.4,0.1
	c0,15.6,0.8,28.1,1.8,28.1S67,15.7,67,0.1"/>
<rect x="9" y="9" class="st2" width="51px" height="53px"/>
<linearGradient id="SVGID_2_" gradientUnits="userSpaceOnUse" x1="28.6535" y1="2925.8486" x2="40.2517" y2="2945.9375" gradientTransform="matrix(1 0 0 1 0 -2924)">
	<stop  offset="0" style="stop-color:#E6E6E6"/>
	<stop  offset="1" style="stop-color:#787878"/>
</linearGradient>
<path class="st3" d="M27.8,3C27.8,3,16,7,16,13v1h38v-1C54,7,42.2,3,42.2,3H27.8z"/>
<linearGradient id="SVGID_3_" gradientUnits="userSpaceOnUse" x1="-6277.5" y1="-3162" x2="-6275.5" y2="-3162" gradientTransform="matrix(-8.979359e-11 -1 -1 8.979359e-11 -3127.5 -6213.5)">
	<stop  offset="0" style="stop-color:#000000;stop-opacity:0"/>
	<stop  offset="1" style="stop-color:#000000;stop-opacity:0.3"/>
</linearGradient>
<polygon class="st4" points="7,64 9,62 60,62 62,64 "/>
<path class="st5" d="M39.4,7c-0.2,0-9.6,0-9.8,0C28.7,7,28,7.6,28,8.5s0.7,1.5,1.6,1.5c0.2,0,9.6,0,9.8,0c0.9,0,1.6-0.6,1.6-1.5
	S40.3,7,39.4,7z"/>
<path class="st6" d="M54,14H16v-1h38V14z M29.6,8c0.2,0,9.6,0,9.8,0c0.7,0,1.3,0.4,1.5,1C41,8.8,41,8.7,41,8.5C41,7.6,40.3,7,39.4,7
	c-0.2,0-9.6,0-9.8,0C28.7,7,28,7.6,28,8.5c0,0.2,0,0.3,0.1,0.5C28.3,8.4,28.9,8,29.6,8z"/>
<path class="st7" d="M43.8,46.1V30.6l1.6-1.6c0.2-0.2,0.4-0.5,0.4-0.9v-0.7c0-0.5-0.4-1.1-0.7-1.3l-2-1.1v-2.7l-2.7-2.9h-6.1
	c-0.7,0-1.4,0.4-1.6,1.1H31c-0.4,0-0.7,0.2-1.1,0.4h-1.6c-1.8,0-3.4,1.6-3.4,3.4c0,1.3,0.7,2.3,1.8,2.9h-0.4v1.1
	c-0.9,0.2-1.4,0.9-1.4,1.8v6.1c0,0.9,0.5,1.6,1.4,1.8v8.3L26,49v4c0,1.1,0.9,1.8,1.8,1.8h15.1c1.1,0,1.8-0.9,1.8-1.8v-4L43.8,46.1z"
	/>
<path class="st2" d="M42.2,28.6L42.2,28.6c0-1.8-1-3.3-2.5-3.9l-11-3.7c-0.3-0.1-0.7-0.2-1-0.2c-1.8,0-3.3,1.5-3.3,3.3
	c0,0.7,0.3,1.4,0.7,2l6,7c-2.2,0-3.9,1.7-3.9,3.9s1.7,3.9,3.9,3.9c0.5,0,1.1-0.1,1.5-0.3c0.1,0-1.5,6.1-1.5,6.1
	c-0.1,0.4-0.2,0.8-0.2,1.3c0,3.2,2.6,5.7,5.7,5.7c3.1,0,5.6-2.4,5.7-5.5L42.2,28.6z M40.8,44.3c-1-1.2-2.6-2.1-4.4-2.1
	c-1.1,0-2.2,0.4-3,0.9c-0.1,0,1.4-5.3,1.4-5.3c0.1-0.3,0.1-0.6,0.1-0.9c0-0.9-0.3-1.7-0.7-2.3s-6.4-7.3-6.4-7.3
	c1.7-0.1,3.1-1.6,3.1-3.3c0-0.3-0.1-0.7-0.2-1l5.3,1.8c-1.3,0.7-2.2,2.1-2.2,3.7c0,2.3,1.9,4.2,4.2,4.2c1.1,0,2.1-0.4,2.8-1.1
	C40.8,31.6,40.8,44.3,40.8,44.3z"/>
<circle class="st7" cx="31.1" cy="36.9" r="2.4"/>
<circle class="st7" cx="38.1" cy="28.5" r="2.6"/>
<circle class="st7" cx="27.6" cy="24" r="1.9"/>
<circle class="st7" cx="36.5" cy="47.9" r="3.9"/>
<path class="st8" d="M0,3c0-1.1,0.9-2,2-2h66c1.1,0,2,0.9,2,2V2c0-1.1-0.9-2-2-2H2C0.9,0,0,0.9,0,2V3z"/>
</svg>
