<svg version="1.1" id="Layer_1" xmlns="http://www.w3.org/2000/svg" xmlns:xlink="http://www.w3.org/1999/xlink" x="0px" y="0px" viewBox="0 0 70 70" enable-background="new 0 0 70 70" xml:space="preserve" width="70px" height="70px" fill="#333">

<linearGradient id="SVGID_1_" gradientUnits="userSpaceOnUse" x1="35" y1="70" x2="35" y2="-1.480657e-09">
	<stop offset="0" style="stop-color:#806E63"/>
	<stop offset="1" style="stop-color:#DBD4C4"/>
</linearGradient>

<path fill="url(#SVGID_1_)" d="M70,68c0,1.1-0.9,2-2,2H2c-1.1,0-2-0.9-2-2V2c0-1.1,0.9-2,2-2h66c1.1,0,2,0.9,2,2V68z"/>
<path d="M65,67H5c-1.1,0-2-0.9-2-2V5c0-1.1,0.9-2,2-2h60c1.1,0,2,0.9,2,2v60C67,66.1,66.1,67,65,67z"/>

<linearGradient id="SVGID_2_" gradientUnits="userSpaceOnUse" x1="35" y1="66" x2="35" y2="4">
		<stop offset="0" style="stop-color:#1B1910"/>
		<stop offset="1" style="stop-color:#5A5753"/>
	</linearGradient>

<path fill="url(#SVGID_2_)" d="M65,66H5c-0.6,0-1-0.4-1-1V5c0-0.6,0.4-1,1-1h60c0.6,0,1,0.4,1,1v60C66,65.6,65.6,66,65,66z"/>
<path fill="#212120" d="M58,60H12c-1.1,0-2-0.9-2-2V13c0-1.1,0.9-2,2-2h46c1.1,0,2,0.9,2,2v45C60,59.1,59.1,60,58,60z"/>
<path fill="#377E3D" d="M58,59H12c-0.6,0-1-0.4-1-1V13c0-0.6,0.4-1,1-1h46c0.6,0,1,0.4,1,1v45C59,58.6,58.6,59,58,59z"/>
<polygon fill="#FFFFFF" points="17,17 17,58.9 53,58.9 53,28 42,17 	"/>
<polygon fill="#ACACAC" points="42,28 53,28 42,17 "/>
<path fill="#212120" d="M44,41.7c0-0.9-0.2-1.8-0.5-2.7l2.4-3.2l-2.4-2.9l-3.2,1.9c-0.8-0.6-1.7-1.1-2.7-1.3L36.9,30h-3.8l-0.6,3.4c-1,0.3-1.9,0.7-2.7,1.3l-3.3-1.9l-2.4,3l2.6,2.8c-0.3,0.8-0.5,1.6-0.6,2.5l-3.6,1.8l0.8,3.7l3.7-0.3c0.5,1,1.2,1.8,2,2.5l-1.2,3.5l3.4,1.7l2.3-3.1C34.1,51,34.5,51,35,51s0.9,0,1.4-0.1l2.3,3.1l3.4-1.7l-0.7-4c0.6-0.6,1.1-1.3,1.6-2.1l3.7,0.4l0.8-3.7L44,41.7zM35,47c-2.8,0-5-2.2-5-5s2.2-5,5-5s5,2.2,5,5S37.8,47,35,47z"/>

<linearGradient id="SVGID_3_" gradientUnits="userSpaceOnUse" x1="35" y1="59" x2="35" y2="54">
	<stop offset="0" style="stop-color:#212120;stop-opacity:0.5"/>
	<stop offset="1" style="stop-color:#212120;stop-opacity:0"/>
</linearGradient>

<path fill="url(#SVGID_3_)" d="M59,54v4c0,0.6-0.4,1-1,1H12c-0.6,0-1-0.4-1-1v-4H59z"/>

<radialGradient id="SVGID_4_" cx="23.3333" cy="23" r="65.29" fx="-4.9174" fy="23" gradientUnits="userSpaceOnUse">
	<stop offset="0" style="stop-color:#FFFFFF;stop-opacity:0.1"/>
	<stop offset="1" style="stop-color:#FFFFFF;stop-opacity:0"/>
</radialGradient>

<path fill="url(#SVGID_4_)" d="M68,70H2c-1.1,0-2-0.9-2-2V2c0-1.1,0.9-2,2-2h66c1.1,0,2,0.9,2,2v66C70,69.1,69.1,70,68,70z"/>

<linearGradient id="SVGID_5_" gradientUnits="userSpaceOnUse" x1="15" y1="37" x2="17" y2="37">
	<stop offset="0" style="stop-color:#000000;stop-opacity:0"/>
	<stop offset="1" style="stop-color:#000000;stop-opacity:0.2"/>
</linearGradient>

<polygon fill="url(#SVGID_5_)" points="15,59 17,59 17,17 15,15 "/>

<linearGradient id="SVGID_6_" gradientUnits="userSpaceOnUse" x1="53" y1="42.5" x2="55" y2="42.5" gradientTransform="matrix(-1 0 0 1 108 0)">
	<stop offset="0" style="stop-color:#000000;stop-opacity:0"/>
	<stop offset="1" style="stop-color:#000000;stop-opacity:0.2"/>
</linearGradient>

<polygon fill="url(#SVGID_6_)" points="55,59 53,59 53,28 55,26 "/>

<linearGradient id="SVGID_7_" gradientUnits="userSpaceOnUse" x1="29.5" y1="-218" x2="29.5" y2="-220" gradientTransform="matrix(1 0 0 -1 0 -203)">
	<stop offset="0" style="stop-color:#000000;stop-opacity:0"/>
	<stop offset="1" style="stop-color:#000000;stop-opacity:0.2"/>
</linearGradient>

<polygon fill="url(#SVGID_7_)" points="44,15 15,15 17,17 42,17 "/>

<linearGradient id="SVGID_8_" gradientUnits="userSpaceOnUse" x1="157.2782" y1="61.528" x2="157.2782" y2="58.6995" gradientTransform="matrix(0.7071 0.7071 -0.7071 0.7071 -20.2056 -132.2193)">
	<stop offset="0" style="stop-color:#000000;stop-opacity:0.2"/>
	<stop offset="1" style="stop-color:#000000;stop-opacity:0"/>
</linearGradient>

<polygon fill="url(#SVGID_8_)" points="53,28 42,17 44,15 55,26 "/>

</svg>
