<svg version="1.1" id="Layer_1" xmlns="http://www.w3.org/2000/svg" xmlns:xlink="http://www.w3.org/1999/xlink" x="0px" y="0px" viewBox="0 0 70 70" enable-background="new 0 0 70 70" xml:space="preserve" width="70px" height="70px" fill="#333">

<path fill="#E5E5E5" d="M70,68c0,1.1-0.9,2-2,2H2c-1.1,0-2-0.9-2-2V2c0-1.1,0.9-2,2-2h66c1.1,0,2,0.9,2,2V68z"/>
<polygon fill="#FFFFFF" points="14,15 12,20 7,50 64,50 59,20 57,15 "/>
<path fill="#3A3A3A" d="M12,9c1-3,1.5-5,3-5h41c1.5,0,2,2,3,5H12z"/>
<path fill="#1A1A1A" d="M58,16H13l-1.2-5.3C11.4,8.8,13.1,7,15,7h41c1.9,0,3.6,1.8,3.2,3.7L58,16z"/>

<linearGradient id="SVGID_1_" gradientUnits="userSpaceOnUse" x1="12" y1="14.5" x2="59" y2="14.5">
	<stop offset="0" style="stop-color:#009345"/>
	<stop offset="1" style="stop-color:#006838"/>
</linearGradient>

<path fill="url(#SVGID_1_)" d="M54,9H17c-1.5,0-2.8,0.6-3,2l-1,5l-1,4l2-3h43l2,3l-1-4l-1-5C56.8,9.6,55.5,9,54,9z"/>

<linearGradient id="SVGID_2_" gradientUnits="userSpaceOnUse" x1="12" y1="17.5" x2="59" y2="17.5">
	<stop offset="0" style="stop-color:#F9EC31"/>
	<stop offset="1" style="stop-color:#FAAF40"/>
</linearGradient>

<path fill="url(#SVGID_2_)" d="M12,20c0,0,0.5-1,2-1c1.3,0,34.4,0,43,0c1.3,0,2,1,2,1l-1-4c0,0-0.5-1-2-1c-1.5,0-39.7,0-41,0c-1.5,0-2,1-2,1L12,20z"/>
<path opacity="0.3" d="M57,11c0,0,0.1-2-3-2c0,0.1,7,41,7,41h3l-5-30l-1-4L57,11z"/>
<path opacity="0.3" d="M14,11c0,0-0.1-2,3-2c0,0.1-7,41-7,41H7l5-30l1-4L14,11z"/>
<path fill="#3A3A3A" d="M67,57H4l1-5c0.2-1.5,1.5-3,3-3h55c1.5,0,2.8,1.5,3,3L67,57z"/>
<path fill="#1A1A1A" d="M62,66c-3,0-50,0-53,0s-4-3-4-3l-1-6c0,0,0-3,3-3s54,0,57,0c3,0,3,3,3,3l-1,6C66,63,65,66,62,66z"/>
<path d="M50,25h-6v3h2v1c0,0.3-1,1.4-2,2c-1,0.6-4.7,1.7-7,3.8V25h4l-5-4l-5,4h4v12.4c-1.9-1.2-5.8-3.6-7-4.4c-1-0.7-1-1.2-1-2v-1.1c1.7-0.2,3-1,3-1.9c0-1.1-1.8-2-4-2s-4,0.9-4,2c0,0.9,1.3,1.7,3,1.9l0,1.1c0,1.4,0.4,2.5,1.8,3.4c0.7,0.5,5.9,3.6,8.1,5v1.7c-2.4,0.3-4.2,1.5-4.2,2.9c0,1.7,2.4,3,5.2,3s5.2-1.3,5.2-3c0-1.5-1.8-2.7-4.2-2.9v-4.2c2.7-2.5,7.8-4.4,8.8-5c1.6-1,2.2-1.9,2.2-2.8v-1h2V25z"/>

<radialGradient id="SVGID_3_" cx="23.3333" cy="23" r="65.29" fx="-4.9174" fy="23" gradientUnits="userSpaceOnUse">
	<stop offset="0" style="stop-color:#FFFFFF;stop-opacity:0.1"/>
	<stop offset="1" style="stop-color:#FFFFFF;stop-opacity:0"/>
</radialGradient>

<path display="inline" fill="url(#SVGID_3_)" d="M68,70H2c-1.1,0-2-0.9-2-2V2c0-1.1,0.9-2,2-2h66c1.1,0,2,0.9,2,2v66C70,69.1,69.1,70,68,70z"/>
<path pacity="0.5" fill="#FFFFFF" d="M0,3c0-1.1,0.9-2,2-2h66c1.1,0,2,0.9,2,2V2c0-1.1-0.9-2-2-2H2C0.9,0,0,0.9,0,2V3z"/>
<path opacity="0.3" d="M0,67c0,1.1,0.9,2,2,2h66c1.1,0,2-0.9,2-2v1c0,1.1-0.9,2-2,2H2c-1.1,0-2-0.9-2-2L0,67z"/>

</svg>
