<svg version="1.1" id="Layer_1" xmlns="http://www.w3.org/2000/svg" xmlns:xlink="http://www.w3.org/1999/xlink" x="0px" y="0px" viewBox="0 0 70 70" enable-background="new 0 0 70 70" xml:space="preserve" width="70px" height="70px" fill="#333">

<linearGradient id="SVGID_1_" gradientUnits="userSpaceOnUse" x1="35" y1="70" x2="35" y2="-1.482476e-09">
	<stop offset="0" style="stop-color:#806E63"/>
	<stop offset="1" style="stop-color:#DBD4C4"/>
</linearGradient>

<path fill="url(#SVGID_1_)" d="M68,70H2c-1.1,0-2-0.9-2-2V2c0-1.1,0.9-2,2-2h66c1.1,0,2,0.9,2,2v66C70,69.1,69.1,70,68,70z"/>
<path d="M65,67H5c-1.1,0-2-0.9-2-2V5c0-1.1,0.9-2,2-2h60c1.1,0,2,0.9,2,2v60C67,66.1,66.1,67,65,67z"/>

<linearGradient id="SVGID_2_" gradientUnits="userSpaceOnUse" x1="35" y1="66" x2="35" y2="4">
	<stop offset="0" style="stop-color:#1B1910"/>
	<stop offset="1" style="stop-color:#5A5753"/>
</linearGradient>

<path fill="url(#SVGID_2_)" d="M65,66H5c-0.6,0-1-0.4-1-1V5c0-0.6,0.4-1,1-1h60c0.6,0,1,0.4,1,1v60C66,65.6,65.6,66,65,66z"/>
<path d="M58,60H12c-1.1,0-2-0.9-2-2V13c0-1.1,0.9-2,2-2h46c1.1,0,2,0.9,2,2v45C60,59.1,59.1,60,58,60z"/>
<path fill="#377E3D" d="M58,59H12c-0.6,0-1-0.4-1-1V13c0-0.6,0.4-1,1-1h46c0.6,0,1,0.4,1,1v45C59,58.6,58.6,59,58,59z"/>
<path opacity="0.3" fill="#FFFFFF" d="M70,40.9L0,10V2c0-1.1,0.9-2,2-2h66c1.1,0,2,0.9,2,2V40.9z"/>
<path fill="#FFDD00" d="M35,22c7.2,0,13,5.8,13,13c0,3.7-1.5,7-4,9.4L40,38v16l15-6l-6.4-1.3C51.4,43.6,53,39.5,53,35c0-9.9-8.1-18-18-18V22z"/>
<path fill="#FFDD00" d="M35,48c-7.2,0-13-5.8-13-13c0-3.2,1.2-6.1,3.1-8.4L29,32V16l-15,7l6.5,1.3C18.3,27.3,17,31,17,35c0,9.9,8.1,18,18,18V48z"/>

<radialGradient id="SVGID_3_" cx="23.3333" cy="23" r="65.29" fx="-4.9174" fy="23" gradientUnits="userSpaceOnUse">
	<stop offset="0" style="stop-color:#FFFFFF;stop-opacity:0.1"/>
	<stop offset="1" style="stop-color:#FFFFFF;stop-opacity:0"/>
</radialGradient>

<path display="inline" fill="url(#SVGID_3_)" d="M68,70H2c-1.1,0-2-0.9-2-2V2c0-1.1,0.9-2,2-2h66c1.1,0,2,0.9,2,2v66C70,69.1,69.1,70,68,70z"/>

</svg>
