<svg version="1.1" id="Layer_1" xmlns="http://www.w3.org/2000/svg" xmlns:xlink="http://www.w3.org/1999/xlink" x="0px" y="0px" viewBox="0 0 70 70" enable-background="new 0 0 70 70" xml:space="preserve" width="70px" height="70px" fill="#333">

  <linearGradient id="SVGID_1_" gradientUnits="userSpaceOnUse" x1="3.8303" y1="-2.1466" x2="66.1697" y2="72.1466">
		<stop offset="0" style="stop-color:#896200"/>
		<stop offset="1" style="stop-color:#501C00"/>
	</linearGradient>
    <path fill="url(#SVGID_1_)" d="M68,70H2c-1.1,0-2-0.9-2-2V2c0-1.1,0.9-2,2-2h66c1.1,0,2,0.9,2,2v66C70,69.1,69.1,70,68,70z"/>

    <path opacity="0.4" fill="none" stroke="#000000" stroke-miterlimit="10" d="M2.6,0c0,6.9,4,5.4,4,23.8c0,8-3.1,14.8-3.1,24.6
		s0,21.6,0,21.6 M0,39c1.9,0,3.5-7.4,3.5-16.5S1.9,6,0,6 M5.9,70c0,0,0-7.5,0-18.4s5.6-20.8,5.6-32.4S7.9,7.1,7.9,3.5
		c0-2.3,0-3.5,0-3.5 M64.8,70c0-10.1,2.2-10.5,2.2-22.1S59.1,36.8,59.1,13c0-10.9,0-13,0-13 M15.2,0v70 M18,0v70 M39.5,0v70 M36.7,0
		v70 M28.6,0v70 M56.1,0v70 M48.1,0v70 M63.4,0.1c0,15.6,0.8,28.1,1.8,28.1S67,15.7,67,0.1"/>

	<rect x="9" y="9" fill="#FFFFFF" width="51px" height="53px"/>

	<linearGradient id="SVGID_2_" gradientUnits="userSpaceOnUse" x1="-201.5" y1="-64" x2="-199.5" y2="-64" gradientTransform="matrix(4.489659e-11 1 -1 4.489659e-11 -29.5 208.5)">
		<stop offset="0" style="stop-color:#000000;stop-opacity:0"/>
		<stop offset="1" style="stop-color:#000000;stop-opacity:0.3"/>
	</linearGradient>
	<polygon fill="url(#SVGID_2_)" points="7,7 9,9 60,9 62,7 "/>

	<linearGradient id="SVGID_3_" gradientUnits="userSpaceOnUse" x1="28.6508" y1="1.8426" x2="40.2524" y2="21.9372">
		<stop offset="0" style="stop-color:#E6E6E6"/>
		<stop offset="1" style="stop-color:#787878"/>
	</linearGradient>
	<path fill="url(#SVGID_3_)" d="M27.8,3C27.8,3,16,7,16,13v1h38v-1C54,7,42.2,3,42.2,3H27.8z"/>

	<linearGradient id="SVGID_4_" gradientUnits="userSpaceOnUse" x1="-354" y1="35.5" x2="-352" y2="35.5" gradientTransform="matrix(-1 0 0 1 -292 0)">
		<stop offset="0" style="stop-color:#000000;stop-opacity:0"/>
		<stop offset="1" style="stop-color:#000000;stop-opacity:0.3"/>
	</linearGradient>
	<polygon fill="url(#SVGID_4_)" points="62,64 60,62 60,9 62,7 "/>

	<linearGradient id="SVGID_5_" gradientUnits="userSpaceOnUse" x1="-101" y1="35.5" x2="-99" y2="35.5" gradientTransform="matrix(1 0 0 1 108 0)">
		<stop offset="0" style="stop-color:#000000;stop-opacity:0"/>
		<stop offset="1" style="stop-color:#000000;stop-opacity:0.3"/>
	</linearGradient>
	<polygon fill="url(#SVGID_5_)" points="7,64 9,62 9,9 7,7 "/>

	<linearGradient id="SVGID_6_" gradientUnits="userSpaceOnUse" x1="-255.5" y1="-64" x2="-253.5" y2="-64" gradientTransform="matrix(-8.979359e-11 -1 -1 8.979359e-11 -29.5 -191.5)">
		<stop offset="0" style="stop-color:#000000;stop-opacity:0"/>
		<stop offset="1" style="stop-color:#000000;stop-opacity:0.3"/>
	</linearGradient>
	<polygon fill="url(#SVGID_6_)" points="7,64 9,62 60,62 62,64 "/>

	<path fill="#999999" d="M39.4,7c-0.2,0-9.6,0-9.8,0C28.7,7,28,7.6,28,8.5s0.7,1.5,1.6,1.5c0.2,0,9.6,0,9.8,0c0.9,0,1.6-0.6,1.6-1.5S40.3,7,39.4,7z"/>
	<path opacity="0.4" d="M54,14H16v-1h38V14z M29.6,8c0.2,0,9.6,0,9.8,0c0.7,0,1.3,0.4,1.5,1C41,8.8,41,8.7,41,8.5C41,7.6,40.3,7,39.4,7c-0.2,0-9.6,0-9.8,0C28.7,7,28,7.6,28,8.5c0,0.2,0,0.3,0.1,0.5C28.3,8.4,28.9,8,29.6,8z"/>

  <path fill="#EFAF13" d="M35,57c-11,0-20-9-20-20s9-20,20-20s20,9,20,20S46,57,35,57z"/>
  <path fill="#1A6830" d="M24.5,54C18.6,50.3,15,44,15,37c0-11,9-20,20-20v20L24.5,54z"/>
  <path fill="#B0E0ED" d="M53.2,45.3L35,37V17c11,0,20,9,20,20C55,39.9,54.4,42.6,53.2,45.3z"/>

  <radialGradient id="SVGID_7_" cx="35" cy="37" r="16" gradientUnits="userSpaceOnUse">
    <stop offset="0" style="stop-color:#000000"/>
    <stop offset="0.8625" style="stop-color:#000000;stop-opacity:0.1375"/>
    <stop offset="1" style="stop-color:#000000;stop-opacity:0"/>
  </radialGradient>
  <circle fill="url(#SVGID_7_)" cx="35" cy="37" r="16"/>
  <circle fill="#FFFFFF" cx="35" cy="37" r="14.5"/>

  <path fill="#464646" d="M43,29c-7.5-0.1-11.5,0.6-14.6,3.7c-2.4,2.3-2.9,5.8-1.7,8.7l0.1,0.1l1.6-1.8c3-2.9,6.3-5.7,11.7-8.1c0,0-6.4,4-11.5,12.5l0,0c3.9,2.8,8.5,2.4,11.1-0.2C42.8,40.8,43.1,36.4,43,29z"/>

	<radialGradient id="SVGID_8_" cx="23.3333" cy="23" r="65.29" fx="-4.9174" fy="23" gradientUnits="userSpaceOnUse">
    <stop offset="0" style="stop-color:#FFFFFF;stop-opacity:0.1"/>
    <stop offset="1" style="stop-color:#FFFFFF;stop-opacity:0"/>
  </radialGradient>
  <path fill="url(#SVGID_8_)" d="M68,70H2c-1.1,0-2-0.9-2-2V2c0-1.1,0.9-2,2-2h66c1.1,0,2,0.9,2,2v66C70,69.1,69.1,70,68,70z"/>
  <path opacity="0.3" d="M0,67c0,1.1,0.9,2,2,2h66c1.1,0,2-0.9,2-2v1c0,1.1-0.9,2-2,2H2c-1.1,0-2-0.9-2-2L0,67z"/>
  <path opacity="0.3" fill="#FFFFFF" d="M0,3c0-1.1,0.9-2,2-2h66c1.1,0,2,0.9,2,2V2c0-1.1-0.9-2-2-2H2C0.9,0,0,0.9,0,2V3z"/>

</svg>
