<?xml version="1.0" encoding="utf-8"?>
<!-- Generator: Adobe Illustrator 19.0.0, SVG Export Plug-In . SVG Version: 6.00 Build 0)  -->
<svg version="1.0" id="Layer_1" xmlns="http://www.w3.org/2000/svg" xmlns:xlink="http://www.w3.org/1999/xlink" x="0px" y="0px" viewBox="0 0 70 70" style="enable-background:new 0 0 70 70;" xml:space="preserve" width="70px" height="70px" fill="#333">
<style type="text/css">
	.eraser{fill:#CE6E6E;}
	.binder{fill:#BCBCBC;}
	.pencil{fill:url(#SVGID_1_);}
	.pencillines{fill:#8C5915;}
	.wood{fill:#F2BF91;}
	.lead{fill:#333333;}
	.background{fill:url(#SVGID_2_);}
	.topshadow{opacity:0.3;fill:#FFFFFF;enable-background:new    ;}
	.bottomshadow{opacity:0.3;enable-background:new    ;}
	.sidepaper{fill:#E5E5E5;}
	.paper{fill:#E5E5E5;}
	.dogear{fill:#C8C8C8;}
	.grn{fill:#46813D;}
	.lines{fill:#7F7F7F;}
	.st0{fill:url(#SVGID_3_);}
	.st1{fill:url(#XMLID_3_);}
</style>
<linearGradient id="SVGID_1_" gradientUnits="userSpaceOnUse" x1="-9" y1="81" x2="-8" y2="81">
	<stop  offset="0" style="stop-color:#F9BF2C"/>
	<stop  offset="0.505" style="stop-color:#FBD734"/>
	<stop  offset="1" style="stop-color:#F9BF2C"/>
</linearGradient>
<radialGradient id="SVGID_2_" cx="-9" cy="81" r="1" gradientUnits="userSpaceOnUse">
	<stop  offset="0" style="stop-color:#5F5F5F"/>
	<stop  offset="1" style="stop-color:#333333"/>
</radialGradient>
<radialGradient id="SVGID_3_" cx="26" cy="66" r="35" gradientTransform="matrix(1 0 0 1 0 -20)" gradientUnits="userSpaceOnUse">
	<stop  offset="0" style="stop-color:#5F5F5F"/>
	<stop  offset="1" style="stop-color:#333333"/>
</radialGradient>
<path class="st0" d="M61,79c0,1.1-0.9,2-2,2H-7c-1.1,0-2-0.9-2-2V13c0-1.1,0.9-2,2-2h66c1.1,0,2,0.9,2,2V79z"/>
<polygon class="paper" points="8,19 8,72 44,72 44,30 33,19 "/>
<rect x="15" y="26" class="grn" width="14px" height="4px"/>
<path class="sidepaper" d="M2,28v37H-9V28H2z M50,28v37h11V28H50z"/>
<path class="lines" d="M37,37H15v-2h22V37z M37,42H15v2h22V42z M37,49H15v2h22V49z M37,56H15v2h22V56z M-2,35h-7v2h7V35z M-2,42h-7
	v2h7V42z M-2,49h-7v2h7V49z M-2,56h-7v2h7V56z M54,37h7v-2h-7V37z M54,44h7v-2h-7V44z M54,51h7v-2h-7V51z M54,58h7v-2h-7V58z
	 M23.375,63H15v2h7.442L23.375,63z"/>
<polygon class="dogear" points="33,30 44,30 33,19 "/>
<linearGradient id="XMLID_3_" gradientUnits="userSpaceOnUse" x1="96.2804" y1="80.4505" x2="103.2808" y2="80.4505" gradientTransform="matrix(-0.7071 -0.7071 -0.7071 0.7071 166.1354 62.0213)">
	<stop  offset="0" style="stop-color:#F9BF2C"/>
	<stop  offset="0.505" style="stop-color:#FBD734"/>
	<stop  offset="1" style="stop-color:#F9BF2C"/>
</linearGradient>
<polygon id="XMLID_2_" class="st1" points="47.179,34.918 52.129,39.868 30.209,61.788 25.259,56.838 "/>
<polygon id="XMLID_16_" class="wood" points="25.258,56.839 30.208,61.789 25.646,63.522 23.525,61.401 "/>
<polygon id="XMLID_9_" class="binder" points="49.344,32.753 54.294,37.703 52.129,39.868 47.179,34.918 "/>
<polygon id="XMLID_15_" class="eraser" points="51.508,30.589 56.458,35.539 54.293,37.704 49.343,32.754 "/>
<rect id="XMLID_5_" x="39.255" y="33.914" transform="matrix(-0.7071 -0.7071 0.7071 -0.7071 32.9249 112.4651)" class="pencillines" width="1px" height="31px"/>
<rect id="XMLID_10_" x="37.133" y="31.792" transform="matrix(-0.7071 -0.7071 0.7071 -0.7071 30.8025 107.343)" class="pencillines" width="1px" height="31px"/>
<polygon id="XMLID_4_" class="lead" points="23.525,61.401 25.644,63.52 22.442,65.01 22.035,64.603 "/>
<path class="topshadow" d="M-9,14c0-1.1,0.9-2,2-2h66c1.1,0,2,0.9,2,2v-1c0-1.1-0.9-2-2-2H-7c-1.1,0-2,0.9-2,2V14z"/>
<path class="bottomshadow" d="M-9,78c0,1.1,0.9,2,2,2h66c1.1,0,2-0.9,2-2v1c0,1.1-0.9,2-2,2H-7c-1.1,0-2-0.9-2-2V78z"/>
</svg>
