<?xml version="1.0" encoding="utf-8"?>
<!-- Generator: Adobe Illustrator 19.2.1, SVG Export Plug-In . SVG Version: 6.00 Build 0)  -->
<!DOCTYPE svg PUBLIC "-//W3C//DTD SVG 1.0//EN" "http://www.w3.org/TR/2001/REC-SVG-20010904/DTD/svg10.dtd">
<svg version="1.0" id="Layer_1" xmlns="http://www.w3.org/2000/svg" xmlns:xlink="http://www.w3.org/1999/xlink" x="0px" y="0px" viewBox="0 0 32 32" style="enable-background:new 0 0 32 32;" xml:space="preserve" fill="#333" width="32px" height="32px">
<style type="text/css">
	.primary{fill:#333333;}
</style>
<path class="primary" d="M30,21v6H20v-5h-8v5H2v-6L7,5h2V3c0-0.552,0.448-1,1-1h3c0.552,0,1,0.448,1,1v2h1v3h-3v12h8V8h-3V5h1V3
	c0-0.552,0.448-1,1-1h3c0.552,0,1,0.448,1,1v2h2L30,21z M14,18h4v-8h-4V18z M2,29c0,0.552,0.448,1,1,1h8c0.552,0,1-0.448,1-1v-1H2
	V29z M20,29c0,0.552,0.448,1,1,1h8c0.552,0,1-0.448,1-1v-1H20V29z"/>
</svg>
