<?xml version="1.0" encoding="utf-8"?>
<!-- Generator: Adobe Illustrator 17.0.2, SVG Export Plug-In . SVG Version: 6.00 Build 0)  -->
<!DOCTYPE svg PUBLIC "-//W3C//DTD SVG 1.1//EN" "http://www.w3.org/Graphics/SVG/1.1/DTD/svg11.dtd">
<svg version="1.1" xmlns="http://www.w3.org/2000/svg" xmlns:xlink="http://www.w3.org/1999/xlink" x="0px" y="0px" viewBox="0 0 32 32" style="enable-background:new 0 0 32 32;" xml:space="preserve" width="32px" height="32px" fill="#333">
<g id="Icons">
	<g>
		<g>
			<path d="M26.044,16.526c0.432,0.454,0.647,1.002,0.647,1.644v7.122c0,0.332-0.061,0.642-0.183,0.93
				c-0.122,0.288-0.29,0.54-0.507,0.755c-0.215,0.216-0.467,0.385-0.755,0.506c-0.288,0.122-0.598,0.183-0.93,0.183H7.683
				c-0.332,0-0.642-0.061-0.93-0.183c-0.288-0.122-0.54-0.291-0.755-0.506c-0.217-0.216-0.385-0.467-0.507-0.755
				c-0.122-0.288-0.183-0.598-0.183-0.93V5.901c0-0.332,0.061-0.642,0.183-0.93c0.122-0.288,0.29-0.54,0.507-0.755
				C6.213,4,6.465,3.832,6.753,3.709c0.288-0.122,0.598-0.183,0.93-0.183h11.322c0.332,0,0.642,0.061,0.93,0.183
				c0.288,0.122,0.54,0.291,0.755,0.506c0.217,0.216,0.385,0.468,0.507,0.755c0.122,0.288,0.183,0.598,0.183,0.93v5.761
				L26.044,16.526z M24.317,18.485c-0.11,0.078-0.243,0.116-0.398,0.116c-0.222,0-0.407-0.075-0.556-0.224
				c-0.15-0.149-0.225-0.329-0.225-0.54c0-0.243,0.094-0.448,0.282-0.614l-2.407-2.507c0,0.022,0.003,0.05,0.008,0.083
				c0.006,0.033,0.009,0.061,0.009,0.083c0,0.222-0.075,0.407-0.224,0.556c-0.15,0.149-0.335,0.224-0.557,0.224
				c-0.21,0-0.391-0.075-0.539-0.224c-0.15-0.149-0.225-0.334-0.225-0.556c0-0.21,0.074-0.39,0.225-0.54
				c0.148-0.149,0.329-0.224,0.539-0.224c0.1,0,0.172,0.011,0.216,0.033l-1.461-1.544V5.901h-0.963v7.172l-1.361,0.896V5.901h-1.262
				v8.882l0.598-0.382c0.11,0.144,0.166,0.305,0.166,0.481c0,0.222-0.075,0.407-0.224,0.556c-0.15,0.149-0.33,0.224-0.54,0.224
				c-0.155,0-0.293-0.042-0.415-0.125s-0.216-0.185-0.282-0.307l-0.664,0.432V5.901h-1.262v10.592l-0.88,0.581
				c0.188,0.022,0.343,0.105,0.465,0.249c0.122,0.144,0.183,0.315,0.183,0.515c0,0.21-0.075,0.39-0.224,0.54
				c-0.15,0.149-0.33,0.224-0.54,0.224c-0.222,0-0.407-0.075-0.556-0.224c-0.15-0.149-0.225-0.329-0.225-0.54
				c0-0.055,0.011-0.127,0.033-0.216l0.398-0.249V5.901h-1.262v12.285l-1.361,0.896V5.901H7.683v14.161
				c0.155-0.1,0.31-0.149,0.465-0.149c0.21,0,0.39,0.075,0.54,0.224c0.148,0.149,0.224,0.335,0.224,0.556
				c0,0.222-0.075,0.407-0.224,0.556c-0.15,0.149-0.33,0.224-0.54,0.224c-0.155,0-0.31-0.05-0.465-0.149v3.968h16.635v-0.996
				c-0.133,0.078-0.266,0.116-0.398,0.116c-0.222,0-0.407-0.075-0.556-0.224c-0.15-0.149-0.225-0.334-0.225-0.556
				c0-0.21,0.074-0.39,0.225-0.54c0.148-0.149,0.334-0.224,0.556-0.224c0.155,0,0.288,0.039,0.398,0.116V18.485z M9.376,22.868
				c0.222,0,0.404,0.075,0.548,0.224s0.216,0.33,0.216,0.54c0,0.222-0.072,0.407-0.216,0.556s-0.326,0.224-0.548,0.224
				s-0.407-0.075-0.556-0.224c-0.15-0.149-0.225-0.334-0.225-0.556c0-0.21,0.074-0.39,0.225-0.54
				C8.969,22.942,9.154,22.868,9.376,22.868z M11.335,20.693c0,0.222-0.075,0.407-0.224,0.556c-0.15,0.149-0.33,0.224-0.54,0.224
				c-0.222,0-0.407-0.075-0.556-0.224c-0.15-0.149-0.225-0.334-0.225-0.556c0-0.221,0.074-0.407,0.225-0.556
				c0.148-0.149,0.334-0.224,0.556-0.224c0.21,0,0.39,0.075,0.54,0.224C11.26,20.286,11.335,20.472,11.335,20.693z M11.8,22.868
				c0.21,0,0.39,0.075,0.54,0.224c0.148,0.149,0.224,0.33,0.224,0.54c0,0.222-0.075,0.407-0.224,0.556
				c-0.15,0.149-0.33,0.224-0.54,0.224c-0.222,0-0.407-0.075-0.556-0.224c-0.15-0.149-0.225-0.334-0.225-0.556
				c0-0.21,0.074-0.39,0.225-0.54C11.393,22.942,11.578,22.868,11.8,22.868z M13.759,20.693c0,0.222-0.075,0.407-0.224,0.556
				c-0.15,0.149-0.33,0.224-0.54,0.224c-0.222,0-0.407-0.075-0.556-0.224c-0.15-0.149-0.225-0.334-0.225-0.556
				c0-0.221,0.074-0.407,0.225-0.556c0.148-0.149,0.334-0.224,0.556-0.224c0.21,0,0.39,0.075,0.54,0.224
				C13.684,20.286,13.759,20.472,13.759,20.693z M14.224,18.601c-0.222,0-0.407-0.075-0.556-0.224
				c-0.15-0.149-0.225-0.329-0.225-0.54c0-0.221,0.074-0.407,0.225-0.556c0.148-0.149,0.334-0.224,0.556-0.224
				c0.21,0,0.39,0.075,0.54,0.224c0.148,0.149,0.224,0.335,0.224,0.556c0,0.21-0.075,0.39-0.224,0.54
				C14.613,18.526,14.434,18.601,14.224,18.601z M14.224,22.868c0.21,0,0.39,0.075,0.54,0.224c0.148,0.149,0.224,0.33,0.224,0.54
				c0,0.222-0.075,0.407-0.224,0.556c-0.15,0.149-0.33,0.224-0.54,0.224c-0.222,0-0.407-0.075-0.556-0.224
				c-0.15-0.149-0.225-0.334-0.225-0.556c0-0.21,0.074-0.39,0.225-0.54C13.816,22.942,14.002,22.868,14.224,22.868z M16.183,20.693
				c0,0.222-0.075,0.407-0.224,0.556c-0.15,0.149-0.33,0.224-0.54,0.224c-0.222,0-0.407-0.075-0.556-0.224
				c-0.15-0.149-0.225-0.334-0.225-0.556c0-0.221,0.074-0.407,0.225-0.556c0.148-0.149,0.334-0.224,0.556-0.224
				c0.21,0,0.39,0.075,0.54,0.224C16.107,20.286,16.183,20.472,16.183,20.693z M15.867,17.837c0-0.221,0.074-0.407,0.225-0.556
				c0.148-0.149,0.334-0.224,0.556-0.224c0.21,0,0.39,0.075,0.54,0.224c0.148,0.149,0.224,0.335,0.224,0.556
				c0,0.21-0.075,0.39-0.224,0.54c-0.15,0.149-0.33,0.224-0.54,0.224c-0.222,0-0.407-0.075-0.556-0.224
				C15.941,18.228,15.867,18.048,15.867,17.837z M16.647,22.868c0.21,0,0.39,0.075,0.54,0.224c0.148,0.149,0.224,0.33,0.224,0.54
				c0,0.222-0.075,0.407-0.224,0.556c-0.15,0.149-0.33,0.224-0.54,0.224c-0.222,0-0.407-0.075-0.556-0.224
				c-0.15-0.149-0.225-0.334-0.225-0.556c0-0.21,0.074-0.39,0.225-0.54C16.24,22.942,16.426,22.868,16.647,22.868z M17.843,15.663
				c-0.222,0-0.407-0.075-0.556-0.224c-0.15-0.149-0.225-0.334-0.225-0.556c0-0.21,0.074-0.39,0.225-0.54
				c0.148-0.149,0.334-0.224,0.556-0.224c0.21,0,0.39,0.075,0.54,0.224c0.148,0.149,0.224,0.33,0.224,0.54
				c0,0.222-0.075,0.407-0.224,0.556C18.232,15.588,18.053,15.663,17.843,15.663z M18.606,20.693c0,0.222-0.075,0.407-0.224,0.556
				c-0.15,0.149-0.33,0.224-0.54,0.224c-0.222,0-0.407-0.075-0.556-0.224c-0.15-0.149-0.225-0.334-0.225-0.556
				c0-0.221,0.074-0.407,0.225-0.556c0.148-0.149,0.334-0.224,0.556-0.224c0.21,0,0.39,0.075,0.54,0.224
				C18.531,20.286,18.606,20.472,18.606,20.693z M18.291,17.837c0-0.221,0.074-0.407,0.225-0.556
				c0.148-0.149,0.334-0.224,0.556-0.224c0.21,0,0.39,0.075,0.54,0.224c0.148,0.149,0.224,0.335,0.224,0.556
				c0,0.21-0.075,0.39-0.224,0.54c-0.15,0.149-0.33,0.224-0.54,0.224c-0.222,0-0.407-0.075-0.556-0.224
				C18.365,18.228,18.291,18.048,18.291,17.837z M19.071,22.868c0.21,0,0.39,0.075,0.54,0.224c0.148,0.149,0.224,0.33,0.224,0.54
				c0,0.222-0.075,0.407-0.224,0.556c-0.15,0.149-0.33,0.224-0.54,0.224c-0.222,0-0.407-0.075-0.556-0.224
				c-0.15-0.149-0.225-0.334-0.225-0.556c0-0.21,0.074-0.39,0.225-0.54C18.664,22.942,18.85,22.868,19.071,22.868z M21.03,20.693
				c0,0.222-0.075,0.407-0.224,0.556c-0.15,0.149-0.335,0.224-0.557,0.224c-0.21,0-0.391-0.075-0.539-0.224
				c-0.15-0.149-0.225-0.334-0.225-0.556c0-0.221,0.074-0.407,0.225-0.556c0.148-0.149,0.329-0.224,0.539-0.224
				c0.222,0,0.406,0.075,0.557,0.224C20.955,20.286,21.03,20.472,21.03,20.693z M20.715,17.837c0-0.221,0.074-0.407,0.225-0.556
				c0.148-0.149,0.334-0.224,0.556-0.224c0.21,0,0.39,0.075,0.54,0.224c0.148,0.149,0.224,0.335,0.224,0.556
				c0,0.21-0.075,0.39-0.224,0.54c-0.15,0.149-0.33,0.224-0.54,0.224c-0.222,0-0.407-0.075-0.556-0.224
				C20.789,18.228,20.715,18.048,20.715,17.837z M21.495,22.868c0.21,0,0.39,0.075,0.54,0.224c0.148,0.149,0.224,0.33,0.224,0.54
				c0,0.222-0.075,0.407-0.224,0.556c-0.15,0.149-0.33,0.224-0.54,0.224c-0.222,0-0.407-0.075-0.556-0.224
				c-0.15-0.149-0.225-0.334-0.225-0.556c0-0.21,0.074-0.39,0.225-0.54C21.088,22.942,21.273,22.868,21.495,22.868z M22.674,19.913
				c0.222,0,0.406,0.075,0.557,0.224c0.148,0.149,0.224,0.335,0.224,0.556c0,0.222-0.075,0.407-0.224,0.556
				c-0.15,0.149-0.335,0.224-0.557,0.224c-0.21,0-0.391-0.075-0.539-0.224c-0.15-0.149-0.225-0.334-0.225-0.556
				c0-0.221,0.074-0.407,0.225-0.556C22.283,19.987,22.464,19.913,22.674,19.913z"/>
		</g>
	</g>
</g>
</svg>
