<?xml version="1.0" encoding="utf-8"?>
<!-- Generator: Adobe Illustrator 19.0.0, SVG Export Plug-In . SVG Version: 6.00 Build 0)  -->
<svg version="1.0" id="Layer_1" xmlns="http://www.w3.org/2000/svg" xmlns:xlink="http://www.w3.org/1999/xlink" x="0px" y="0px" viewBox="0 0 70 70" enable-background="new 0 0 70 70" xml:space="preserve" width="70px" height="70px" fill="#333">
<style type="text/css">
	.st0{fill:#D2D2D2;}
	.st1{fill:url(#SVGID_1_);}
	.st2{fill:#333333;}
	.st3{fill:#555555;}
	.st4{fill:#FFFFFF;}
	.st5{fill:#B0B0B0;}
	.st6{fill:none;}
	.st7{fill:url(#SVGID_2_);}
	.st8{fill:url(#SVGID_3_);}
	.st9{opacity:0.6;fill:#333333;enable-background:new    ;}
	.st10{opacity:0.1;fill:#333333;enable-background:new    ;}
	.st11{opacity:0.5;fill:#FFFFFF;enable-background:new    ;}
	.st12{opacity:0.1;fill:#FFFFFF;enable-background:new    ;}
	.st13{fill-rule:evenodd;clip-rule:evenodd;fill:#47B5DF;}
	.st14{fill-rule:evenodd;clip-rule:evenodd;fill:none;stroke:#47B5DF;stroke-width:3;stroke-miterlimit:10;}
	.st15{fill-rule:evenodd;clip-rule:evenodd;fill:#333333;}
</style>
<path class="st0" d="M70,68c0,1.1-0.9,2-2,2H2c-1.1,0-2-0.9-2-2V2c0-1.1,0.9-2,2-2h66c1.1,0,2,0.9,2,2V68z"/>
<linearGradient id="SVGID_1_" gradientUnits="userSpaceOnUse" x1="0" y1="1409" x2="46" y2="1409" gradientTransform="matrix(1 0 0 -1 0 1444)">
	<stop offset="0" style="stop-color:#101010"/>
	<stop offset="1" style="stop-color:#2E2E2E"/>
</linearGradient>
<path class="st1" d="M46,70H2c-1.1,0-2-0.9-2-2V2c0-1.1,0.9-2,2-2h44"/>
<rect y="13" class="st2" width="46px" height="44px"/>
<rect y="13" class="st3" width="46px" height="1px"/>
<rect y="56" class="st3" width="46px" height="1px"/>
<path class="st4" d="M54,33c-0.8,0-2-1.2-2-2V9c0-0.8,1.2-1,2-1h15.5v25H54z"/>
<path class="st5" d="M69,8v24H54c-0.6,0-1-0.4-1-1V9c0-0.6,0.4-1,1-1H69 M70,7H54c-1.1,0-2,0.9-2,2v22c0,1.1,0.9,2,2,2h16V7L70,7z"/>
<path class="st4" d="M54,63c-0.8,0-2-1.2-2-2V39c0-0.8,1.2-1,2-1h15.5v25H54z"/>
<path class="st5" d="M69,38v24H54c-0.6,0-1-0.4-1-1V39c0-0.6,0.4-1,1-1H69 M70,37H54c-1.1,0-2,0.9-2,2v22c0,1.1,0.9,2,2,2h16V37
	L70,37z"/>
<rect x="50" y="3" class="st6" width="20px" height="63px"/>
<radialGradient id="SVGID_2_" cx="23.3333" cy="1421" r="65.29" fx="-4.9174" fy="1421" gradientTransform="matrix(1 0 0 -1 0 1444)" gradientUnits="userSpaceOnUse">
	<stop offset="0" style="stop-color:#FFFFFF;stop-opacity:0.1"/>
	<stop offset="1" style="stop-color:#FFFFFF;stop-opacity:0"/>
</radialGradient>
<path class="st7" d="M68,70H2c-1.1,0-2-0.9-2-2V2c0-1.1,0.9-2,2-2h66c1.1,0,2,0.9,2,2v66C70,69.1,69.1,70,68,70z"/>
<rect x="68" y="38" class="st4" width="2px" height="24px"/>
<rect x="68" y="8" class="st4" width="2px" height="24px"/>
<linearGradient id="SVGID_3_" gradientUnits="userSpaceOnUse" x1="65" y1="1409" x2="70" y2="1409" gradientTransform="matrix(1 0 0 -1 0 1444)">
	<stop offset="0" style="stop-color:#FFFFFF;stop-opacity:0"/>
	<stop offset="1" style="stop-color:#232323;stop-opacity:0.2"/>
</linearGradient>
<path class="st8" d="M65,0h3c1.1,0,2,0.9,2,2v66c0,1.1-0.9,2-2,2h-3V0z"/>
<path class="st9" d="M46,70H2c-1.1,0-2-0.9-2-2v-1c0,1.1,0.9,2,2,2h44"/>
<path class="st10" d="M46,69h22c1.1,0,2-0.9,2-2v1c0,1.1-0.9,2-2,2H46"/>
<path class="st11" d="M46,1h22c1.1,0,2,0.9,2,2V2c0-1.1-0.9-2-2-2H46"/>
<path class="st12" d="M47,0H2C0.9,0,0,0.9,0,2v1c0-1.1,0.9-2,2-2h45"/>
<g>
	<circle class="st13" cx="16.9" cy="43.1" r="6"/>
	<circle class="st14" cx="30.4" cy="23.9" r="3"/>
    <rect x="23.6" y="24.1" transform="matrix(-0.8192 -0.5736 0.5736 -0.8192 26.3693 72.5435)" class="st13" width="2.1px" height="16px"/>
	<path class="st15" d="M18,46.8l1-6.6l-5.9,3.2c0,0,1.8,0.6,2.8,1.3C16.8,45.4,18,46.8,18,46.8z"/>
</g>
</svg>
