<svg version="1.1" id="Layer_1" xmlns="http://www.w3.org/2000/svg" xmlns:xlink="http://www.w3.org/1999/xlink" x="0px" y="0px" viewBox="0 0 70 70" enable-background="new 0 0 70 70" xml:space="preserve" width="70px" height="70px" fill="#333">

<radialGradient id="SVGID_1_" cx="35.25" cy="26.4167" r="53.9167" gradientUnits="userSpaceOnUse">
	<stop offset="0" style="stop-color:#A184B7"/>
	<stop offset="0.2062" style="stop-color:#9E81B6"/>
	<stop offset="0.3779" style="stop-color:#9676B2"/>
	<stop offset="0.5372" style="stop-color:#8965AB"/>
	<stop offset="0.6891" style="stop-color:#764DA2"/>
	<stop offset="0.8357" style="stop-color:#5D2D96"/>
	<stop offset="0.9765" style="stop-color:#400788"/>
	<stop offset="1" style="stop-color:#3A0085"/>
</radialGradient>

<path fill="url(#SVGID_1_)" d="M70,68c0,1.1-0.9,2-2,2H2c-1.1,0-2-0.9-2-2V2c0-1.1,0.9-2,2-2h66c1.1,0,2,0.9,2,2V68z"/>
<radialGradient id="SVGID_2_" cx="35" cy="26" r="31" gradientUnits="userSpaceOnUse">
	<stop offset="0" style="stop-color:#41398B;stop-opacity:0.3"/>
	<stop offset="0.1658" style="stop-color:#423D8F;stop-opacity:0.3315"/>
	<stop offset="0.3377" style="stop-color:#474A99;stop-opacity:0.3642"/>
	<stop offset="0.5124" style="stop-color:#4E5EAB;stop-opacity:0.3975"/>
	<stop offset="0.6889" style="stop-color:#597BC3;stop-opacity:0.4311"/>
	<stop offset="0.8653" style="stop-color:#66A0E3;stop-opacity:0.4646"/>
	<stop offset="1" style="stop-color:#72C2FF;stop-opacity:0.4902"/>
</radialGradient>

<circle fill="url(#SVGID_2_)" cx="35" cy="26" r="31"/>
<radialGradient id="SVGID_3_" cx="35" cy="26" r="22" gradientUnits="userSpaceOnUse">
	<stop offset="0" style="stop-color:#41398B;stop-opacity:0.3"/>
	<stop offset="0.1658" style="stop-color:#423D8F;stop-opacity:0.3315"/>
	<stop offset="0.3377" style="stop-color:#474A99;stop-opacity:0.3642"/>
	<stop offset="0.5124" style="stop-color:#4E5EAB;stop-opacity:0.3975"/>
	<stop offset="0.6889" style="stop-color:#597BC3;stop-opacity:0.4311"/>
	<stop offset="0.8653" style="stop-color:#66A0E3;stop-opacity:0.4646"/>
	<stop offset="1" style="stop-color:#72C2FF;stop-opacity:0.4902"/>
</radialGradient>

<circle fill="url(#SVGID_3_)" cx="35" cy="26" r="22"/>
<linearGradient id="SVGID_4_" gradientUnits="userSpaceOnUse" x1="35" y1="70" x2="35" y2="29">
	<stop offset="0" style="stop-color:#E5E5E5"/>
	<stop offset="0.1981" style="stop-color:#E2E3E4"/>
	<stop offset="0.363" style="stop-color:#D7DCE2"/>
	<stop offset="0.5161" style="stop-color:#C6D1DE"/>
	<stop offset="0.662" style="stop-color:#AEC2D9"/>
	<stop offset="0.8029" style="stop-color:#8EADD2"/>
	<stop offset="0.9381" style="stop-color:#6895CA"/>
	<stop offset="1" style="stop-color:#5488C6"/>
</linearGradient>

<polygon fill="url(#SVGID_4_)" points="32,29 26,70 44,70 38,29 "/>
<radialGradient id="SVGID_5_" cx="35" cy="26" r="15" gradientUnits="userSpaceOnUse">
	<stop offset="0" style="stop-color:#000000;stop-opacity:0.3"/>
	<stop offset="0.2264" style="stop-color:#010203;stop-opacity:0.3431"/>
	<stop offset="0.3626" style="stop-color:#05080B;stop-opacity:0.369"/>
	<stop offset="0.475" style="stop-color:#0B1319;stop-opacity:0.3903"/>
	<stop offset="0.5744" style="stop-color:#14232E;stop-opacity:0.4093"/>
	<stop offset="0.6652" style="stop-color:#203748;stop-opacity:0.4265"/>
	<stop offset="0.7498" style="stop-color:#2F4F68;stop-opacity:0.4426"/>
	<stop offset="0.8297" style="stop-color:#406D8F;stop-opacity:0.4578"/>
	<stop offset="0.9057" style="stop-color:#548FBB;stop-opacity:0.4723"/>
	<stop offset="0.9761" style="stop-color:#6AB4ED;stop-opacity:0.4857"/>
	<stop offset="1" style="stop-color:#72C2FF;stop-opacity:0.4902"/>
</radialGradient>

<circle fill="url(#SVGID_5_)" cx="35" cy="26" r="15"/>
<radialGradient id="SVGID_6_" cx="23.3333" cy="23" r="65.29" fx="-4.9174" fy="23" gradientUnits="userSpaceOnUse">
	<stop offset="0" style="stop-color:#FFFFFF;stop-opacity:0.1"/>
	<stop offset="1" style="stop-color:#FFFFFF;stop-opacity:0"/>
</radialGradient>

<path fill="url(#SVGID_6_)" d="M68,70H2c-1.1,0-2-0.9-2-2V2c0-1.1,0.9-2,2-2h66c1.1,0,2,0.9,2,2v66C70,69.1,69.1,70,68,70z"/>
<path opacity="0.3" fill="#FFFFFF" d="M0,3c0-1.1,0.9-2,2-2h66c1.1,0,2,0.9,2,2V2c0-1.1-0.9-2-2-2H2C0.9,0,0,0.9,0,2V3z"/>
<path opacity="0.3" d="M0,67c0,1.1,0.9,2,2,2h66c1.1,0,2-0.9,2-2v1c0,1.1-0.9,2-2,2H2c-1.1,0-2-0.9-2-2L0,67z"/>

<linearGradient id="SVGID_7_" gradientUnits="userSpaceOnUse" x1="25.2898" y1="49.2291" x2="29.1919" y2="49.8472">
	<stop offset="0" style="stop-color:#000000;stop-opacity:0"/>
	<stop offset="1" style="stop-color:#000000;stop-opacity:0.5"/>
</linearGradient>

<polygon fill="url(#SVGID_7_)" points="29,29 32,29 26,70 22,70 "/>
<linearGradient id="SVGID_8_" gradientUnits="userSpaceOnUse" x1="53.2898" y1="49.2291" x2="57.1919" y2="49.8472" gradientTransform="matrix(-1 0 0 1 98 0)">
	<stop offset="0" style="stop-color:#000000;stop-opacity:0"/>
	<stop offset="1" style="stop-color:#000000;stop-opacity:0.5"/>
</linearGradient>

<polygon fill="url(#SVGID_8_)" points="41,29 38,29 44,70 48,70 "/>
<radialGradient id="SVGID_9_" cx="35" cy="26" r="10" gradientUnits="userSpaceOnUse">
	<stop offset="0" style="stop-color:#FFFFFF"/>
	<stop offset="0.3781" style="stop-color:#FCFCFC"/>
	<stop offset="0.6925" style="stop-color:#F1F1F1"/>
	<stop offset="0.9837" style="stop-color:#E0E0E0"/>
	<stop offset="1" style="stop-color:#DFDFDF"/>
</radialGradient>

<circle fill="url(#SVGID_9_)" cx="35" cy="26" r="10"/>
<path fill="#687586" d="M35,21c2.8,0,5,2.2,5,5s-2.2,5-5,5c-2.8,0-5-2.2-5-5S32.2,21,35,21 M35,19c-3.9,0-7,3.1-7,7s3.1,7,7,7s7-3.1,7-7S38.9,19,35,19L35,19z"/>

</svg>
