<svg version="1.1" id="Layer_1" xmlns="http://www.w3.org/2000/svg" xmlns:xlink="http://www.w3.org/1999/xlink" x="0px" y="0px" viewBox="0 0 70 70" enable-background="new 0 0 70 70" xml:space="preserve" width="70px" height="70px" fill="#333">

  <path fill="#8CC63F" d="M2,70h66c1.1,0,2-0.9,2-2V2c0-1.1-0.9-2-2-2L2,0C0.9,0,0,0.9,0,2l0,66C0,69.1,0.9,70,2,70z"/>
  <path fill="#FCEE21" d="M70,2c0-1.1-0.9-2-2-2h-6v14h-4v17h-8V14h-8v17h-9v23h9v11h-9v5h35c1.1,0,2-0.9,2-2V2z"/>
  <polygon fill="#46803D" points="22,15 13,15 13,24 18,24 18,28 13,28 13,44 22,44 22,39 26,39 26,23 22,23 	"/>
  <rect x="25" y="4" fill="#46803D" width="4px" height="7px"/>
  <rect x="17" y="51" fill="#46803D" width="4px" height="4px"/>
  <path fill="#F7A91E" d="M49,66h4v4h-4V66z M66,8v11h-4v12H50v8h-4v11h4v-7h4v15h8v8h4v-8V35h4V8H66z"/>
  <path fill="#EA1B2F" d="M58,22v9h-4v-9H58z M58,31v6h-4v9h4v-6h4v-9H58z M58,58h4v-9h-4V58z"/>
  <path opacity="0.7" fill="none" stroke="#000000" stroke-width="2px" stroke-miterlimit="10" d="M70,51c-21.1,0-29-9.5-29-19c0-16.1,13-16.1,13-32 M18,0c0,6.1,0.1,15.8,10.2,15.8c8,0,9.8-8.7,9.8-15.8 M26,70c0-7,1.1-38.6-26-38.6"/>

  <linearGradient id="SVGID_1_" gradientUnits="userSpaceOnUse" x1="0" y1="35" x2="8" y2="35">
    <stop offset="0" style="stop-color:#121212"/>
    <stop offset="1" style="stop-color:#353535"/>
  </linearGradient>

  <path fill="url(#SVGID_1_)" d="M8,70H2c-1.1,0-2-0.9-2-2V2c0-1.1,0.9-2,2-2h6V70z"/>
  <rect x="3" y="6" fill="#46803D" width="2px" height="10px"/>
  <rect x="3" y="18" fill="#8CC63F" width="2px" height="11px"/>
  <rect x="3" y="31" fill="#FCEE21" width="2px" height="9.9px"/>
  <rect x="3" y="43" fill="#FFBA00" width="2px" height="10px"/>
  <rect x="3" y="55" fill="#EA1B2F" width="2px" height="10px"/>

  <radialGradient id="SVGID_2_" cx="23.3333" cy="23" r="65.29" fx="-4.9174" fy="23" gradientUnits="userSpaceOnUse">
    <stop offset="0" style="stop-color:#FFFFFF;stop-opacity:0.1"/>
    <stop offset="1" style="stop-color:#FFFFFF;stop-opacity:0"/>
  </radialGradient>

  <path fill="url(#SVGID_2_)" d="M68,70H2c-1.1,0-2-0.9-2-2V2c0-1.1,0.9-2,2-2h66c1.1,0,2,0.9,2,2v66C70,69.1,69.1,70,68,70z"/>
  <path opacity="0.3" d="M0,67c0,1.1,0.9,2,2,2h66c1.1,0,2-0.9,2-2v1c0,1.1-0.9,2-2,2H2c-1.1,0-2-0.9-2-2L0,67z"/>
  <path opacity="0.3" fill="#FFFFFF" d="M0,3c0-1.1,0.9-2,2-2h66c1.1,0,2,0.9,2,2V2c0-1.1-0.9-2-2-2H2C0.9,0,0,0.9,0,2V3z"/>

</svg>
