<?xml version="1.0" encoding="utf-8"?>
<!-- Generator: Adobe Illustrator 21.1.0, SVG Export Plug-In . SVG Version: 6.00 Build 0)  -->
<svg version="1.0" id="Layer_1" xmlns="http://www.w3.org/2000/svg" xmlns:xlink="http://www.w3.org/1999/xlink" x="0px" y="0px"
	 viewBox="0 0 70 70" style="enable-background:new 0 0 70 70;" xml:space="preserve" width="70px" height="70px" fill="#333">
<style type="text/css">
	.primary{fill:#333333;}
	.st0{fill:#DFDFDF;}
	.st1{fill:url(#SVGID_1_);}
	.st2{fill:#FFFFFF;}
	.st3{fill:#F2F2F2;}
	.st4{fill:#948F8F;}
	.st5{fill:#B5B5B5;}
	.st6{fill:#B3B3B3;}
	.st7{fill:#CDCDCD;}
	.st8{fill:#BFAA00;}
	.st9{fill:#FFDE02;}
	.st10{fill:#FFF9CC;}
	.st11{opacity:0.4;fill:#333333;enable-background:new    ;}
	.st12{opacity:0.5;fill:#FFFFFF;enable-background:new    ;}
	.st13{fill:#6F0A08;}
	.st14{fill:#A70202;}
	.st15{fill:#F49A9A;}
</style>
<path id="Background_4_" class="st0" d="M68,70H2c-1.1,0-2-0.9-2-2V2c0-1.1,0.9-2,2-2h66c1.1,0,2,0.9,2,2v66C70,69.1,69.1,70,68,70z
	"/>
<radialGradient id="SVGID_1_" cx="48.8271" cy="83.2279" r="49.017" gradientTransform="matrix(0.7 -0.007 -0.0058 -0.5844 1.3747 91.1288)" gradientUnits="userSpaceOnUse">
	<stop  offset="0" style="stop-color:#212120;stop-opacity:0.7"/>
	<stop  offset="1" style="stop-color:#212120;stop-opacity:0"/>
</radialGradient>
<rect class="st1" width="70px" height="70px"/>
<polygon class="st2" points="32.4,52.03 21.629,56.926 5,48.611 30.734,20.538 39.298,23.749 49.473,18.662 63,26.777 47.748,60.8 
	"/>
<polygon class="st3" points="59.22,27.965 46.381,56.606 32.554,48.705 21.69,53.644 9.838,47.718 31.566,24.014 39.467,26.977 
	49.344,22.039 "/>
<polygon class="st4" points="42.463,33.046 51.315,38.357 55.44,29.153 49.215,25.417 39.801,30.124 34.94,36.808 "/>
<polygon class="primary" points="32.588,39.64 24.301,36.325 14.677,46.825 21.751,50.361 32.708,45.381 45.014,52.413 
	50.704,39.719 42.398,34.735 "/>
<polygon class="st5" points="38.28,29.697 32.399,27.491 25.371,35.158 32.294,37.927 "/>
<path class="st6" d="M25.845,45.68c-1.314,0-2.434-0.94-2.662-2.235l-3.408-19.324c-0.125-0.712,0.033-1.429,0.448-2.022
	c0.414-0.592,1.034-0.987,1.746-1.112c0.158-0.028,0.316-0.041,0.472-0.041c1.314,0,2.433,0.94,2.662,2.236l3.408,19.324
	c0.258,1.469-0.726,2.875-2.194,3.134C26.158,45.666,26.001,45.68,25.845,45.68z"/>
<path class="st7" d="M26.145,44.666L26.145,44.666c-0.934,0.165-1.825-0.459-1.989-1.393l-3.407-19.324
	c-0.165-0.934,0.459-1.825,1.393-1.989l0,0c0.934-0.165,1.825,0.459,1.989,1.393l3.407,19.324
	C27.703,43.611,27.079,44.501,26.145,44.666z"/>
<circle class="st8" cx="21.196" cy="16.607" r="7.407"/>
<circle class="st9" cx="21.196" cy="16.607" r="6.42"/>
<circle class="st10" cx="19.221" cy="13.644" r="2.469"/>
<path id="Bottom_Shadow_4_" class="st11" d="M0,67c0,1.1,0.9,2,2,2h66c1.1,0,2-0.9,2-2v1c0,1.1-0.9,2-2,2H2c-1.1,0-2-0.9-2-2V67z"/>
<path id="Top_Highlight_4_" class="st12" d="M0,3c0-1.1,0.9-2,2-2h66c1.1,0,2,0.9,2,2V2c0-1.1-0.9-2-2-2H2C0.9,0,0,0.9,0,2V3z"/>
<g>
	<circle class="st13" cx="21.196" cy="16.44" r="7.407"/>
	<circle class="st14" cx="21.196" cy="16.44" r="6.42"/>
	<circle class="st15" cx="19.221" cy="13.477" r="2.469"/>
</g>
</svg>
