<?xml version="1.0" encoding="utf-8"?>
<!-- Generator: Adobe Illustrator 21.1.0, SVG Export Plug-In . SVG Version: 6.00 Build 0)  -->
<svg version="1.0" id="Layer_1" xmlns="http://www.w3.org/2000/svg" xmlns:xlink="http://www.w3.org/1999/xlink" x="0px" y="0px"
	 viewBox="0 0 70 70" style="enable-background:new 0 0 70 70;" xml:space="preserve" width="70px" height="70px" fill="#333">
<style type="text/css">
	.st0{fill:#D2D2D2;}
	.st1{fill:url(#SVGID_1_);}
	.st2{fill:#333333;}
	.st3{fill-rule:evenodd;clip-rule:evenodd;fill:#8CC63F;}
	.st4{fill:#555555;}
	.st5{fill:#FFFFFF;}
	.st6{fill:#B0B0B0;}
	.st7{fill:none;}
	.st8{fill:url(#SVGID_2_);}
	.st9{fill:url(#SVGID_3_);}
	.st10{opacity:0.6;fill:#333333;}
	.st11{opacity:0.1;fill:#333333;}
	.st12{opacity:0.5;fill:#FFFFFF;}
	.st13{opacity:0.1;fill:#FFFFFF;}
</style>
<path class="st0" d="M70,68c0,1.1-0.9,2-2,2H2c-1.1,0-2-0.9-2-2V2c0-1.1,0.9-2,2-2h66c1.1,0,2,0.9,2,2V68z"/>
<linearGradient id="SVGID_1_" gradientUnits="userSpaceOnUse" x1="0" y1="37" x2="46" y2="37" gradientTransform="matrix(1 0 0 -1 0 72)">
	<stop  offset="0" style="stop-color:#101010"/>
	<stop  offset="1" style="stop-color:#2E2E2E"/>
</linearGradient>
<path class="st1" d="M46,70H2c-1.1,0-2-0.9-2-2V2c0-1.1,0.9-2,2-2h44"/>
<rect y="13" class="st2" width="46px" height="44px"/>
<path class="st3" d="M21.107,38.579l7.346-10.039c0.434-0.593,1.267-0.722,1.86-0.288c0.593,0.434,0.722,1.267,0.288,1.86
	l-7.823,10.691c-0.059,0.081-0.125,0.158-0.196,0.229c-0.372,0.373-0.867,0.577-1.393,0.577c-0.526,0-1.021-0.205-1.393-0.577
	l-4.265-4.265c-0.52-0.52-0.52-1.362,0-1.882c0.52-0.52,1.362-0.52,1.882,0L21.107,38.579z M30.696,20.919
	c-1.635-0.897-3.383-1.493-5.185-1.779c-0.552-0.088-1.07,0.288-1.158,0.84c-0.088,0.552,0.288,1.07,0.84,1.158
	c1.573,0.25,3.1,0.77,4.53,1.555c5.274,2.895,8.06,8.802,7.049,14.636c-0.095,0.55,0.273,1.074,0.824,1.169
	c0.55,0.095,1.074-0.273,1.169-0.824C39.923,30.995,36.735,24.233,30.696,20.919z M36.711,41.072
	c-0.493-0.262-1.106-0.074-1.368,0.419c-0.031,0.058-0.062,0.115-0.093,0.172c-3.712,6.766-12.206,9.242-18.972,5.53
	c-0.001,0-0.001-0.001-0.002-0.001c0,0-0.001-0.001-0.002-0.001c-2.42-1.329-4.348-3.301-5.613-5.687
	c-0.262-0.493-0.874-0.681-1.367-0.419c-0.493,0.262-0.681,0.874-0.419,1.367c1.449,2.731,3.658,4.992,6.427,6.512
	c0.001,0,0.002,0.001,0.003,0.001c0.001,0,0.002,0.001,0.002,0.001c7.745,4.249,17.469,1.415,21.718-6.33
	c0.036-0.065,0.071-0.131,0.106-0.197C37.392,41.946,37.204,41.333,36.711,41.072z M9.233,37.34
	c-0.543-3.103-0.032-6.299,1.516-9.12c2.102-3.831,5.811-6.397,10.045-7.077c0.552-0.089,0.927-0.608,0.838-1.159
	c-0.089-0.552-0.608-0.927-1.159-0.838c-4.843,0.778-9.092,3.718-11.497,8.102c-1.771,3.228-2.356,6.89-1.735,10.442
	c0.096,0.55,0.62,0.918,1.171,0.822C8.961,38.415,9.329,37.891,9.233,37.34z"/>
<rect y="13" class="st4" width="46px" height="1px"/>
<rect y="56" class="st4" width="46px" height="1px"/>
<path class="st5" d="M54,33c-0.8,0-2-1.2-2-2V9c0-0.8,1.2-1,2-1h15.5v25H54z"/>
<path class="st6" d="M69,8v24H54c-0.6,0-1-0.4-1-1V9c0-0.6,0.4-1,1-1H69 M70,7H54c-1.1,0-2,0.9-2,2v22c0,1.1,0.9,2,2,2h16V7L70,7z"
	/>
<path class="st5" d="M54,63c-0.8,0-2-1.2-2-2V39c0-0.8,1.2-1,2-1h15.5v25H54z"/>
<path class="st6" d="M69,38v24H54c-0.6,0-1-0.4-1-1V39c0-0.6,0.4-1,1-1H69 M70,37H54c-1.1,0-2,0.9-2,2v22c0,1.1,0.9,2,2,2h16V37
	L70,37z"/>
<rect x="50" y="3" class="st7" width="20px" height="63px"/>
<radialGradient id="SVGID_2_" cx="23.3333" cy="49" r="65.29" fx="-4.9174" fy="49" gradientTransform="matrix(1 0 0 -1 0 72)" gradientUnits="userSpaceOnUse">
	<stop  offset="0" style="stop-color:#FFFFFF;stop-opacity:0.1"/>
	<stop  offset="1" style="stop-color:#FFFFFF;stop-opacity:0"/>
</radialGradient>
<path class="st8" d="M68,70H2c-1.1,0-2-0.9-2-2V2c0-1.1,0.9-2,2-2h66c1.1,0,2,0.9,2,2v66C70,69.1,69.1,70,68,70z"/>
<rect x="68" y="38" class="st5" width="2px" height="24px"/>
<rect x="68" y="8" class="st5" width="2px" height="24px"/>
<linearGradient id="SVGID_3_" gradientUnits="userSpaceOnUse" x1="65" y1="37" x2="70" y2="37" gradientTransform="matrix(1 0 0 -1 0 72)">
	<stop  offset="0" style="stop-color:#FFFFFF;stop-opacity:0"/>
	<stop  offset="1" style="stop-color:#232323;stop-opacity:0.2"/>
</linearGradient>
<path class="st9" d="M65,0h3c1.1,0,2,0.9,2,2v66c0,1.1-0.9,2-2,2h-3V0z"/>
<path class="st10" d="M46,70H2c-1.1,0-2-0.9-2-2v-1c0,1.1,0.9,2,2,2h44"/>
<path class="st11" d="M46,69h22c1.1,0,2-0.9,2-2v1c0,1.1-0.9,2-2,2H46"/>
<path class="st12" d="M46,1h22c1.1,0,2,0.9,2,2V2c0-1.1-0.9-2-2-2H46"/>
<path class="st13" d="M47,0H2C0.9,0,0,0.9,0,2v1c0-1.1,0.9-2,2-2h45"/>
</svg>
