<svg version="1.1" id="Layer_1" xmlns="http://www.w3.org/2000/svg" xmlns:xlink="http://www.w3.org/1999/xlink" x="0px" y="0px" viewBox="0 0 70 70" enable-background="new 0 0 70 70" xml:space="preserve" width="70px" height="70px" fill="#333">
<linearGradient id="SVGID_1_" gradientUnits="userSpaceOnUse" x1="0" y1="35" x2="70" y2="35">
		<stop offset="0" style="stop-color:#D2D2D2"/>
		<stop offset="0.8625" style="stop-color:#D2D2D2"/>
		<stop offset="1" style="stop-color:#D2D2D2"/>
</linearGradient>
<path fill="url(#SVGID_1_)" d="M70,68c0,1.1-0.9,2-2,2H2c-1.1,0-2-0.9-2-2V2c0-1.1,0.9-2,2-2h66c1.1,0,2,0.9,2,2V68z"/>
<linearGradient id="SVGID_2_" gradientUnits="userSpaceOnUse" x1="0" y1="35" x2="46" y2="35">
		<stop offset="0" style="stop-color:#101010"/>
		<stop offset="1" style="stop-color:#2E2E2E"/>
</linearGradient>
<path fill="url(#SVGID_2_)" d="M46,70H2c-1.1,0-2-0.9-2-2V2c0-1.1,0.9-2,2-2h44"/>
<rect y="13" width="46px" height="44px"/>
<path fill="#555555" d="M46,14H0v-1h46V14z M46,56H0v1h46V56z"/>
<path fill="#B0B0B0" d="M52,61V39c0-1.1,0.9-2,2-2h16l0,26H54C52.9,63,52,62.1,52,61z M54,33h16l0-26H54c-1.1,0-2,0.9-2,2v22C52,32.1,52.9,33,54,33z"/>
<path fill="#FFFFFF" d="M53,61V39c0-0.6,0.4-1,1-1h16l0,24H54C53.4,62,53,61.6,53,61z M54,32h16l0-24H54c-0.6,0-1,0.4-1,1v22C53,31.6,53.4,32,54,32z"/>
<path fill="#EFAF13" d="M11,20v28h24V20H11z M33,22v23c-0.8-0.8-2.1-1.5-4-2c-1.6-0.4-2.8-1.8-3-3c-0.1-0.4-0.5-1-1-1v-2
	c1.2-0.7,1.5-1.4,2-3c1,0,2-1.5,2-3c0-1-1-1-1-1c0-3.4-2.5-6-5-6s-5,2.6-5,6c0,0-1,0-1,1c0,1.4,1,3,2,3c0.5,1.6,0.8,2.3,2,3v2
	c-0.5,0-0.9,0.6-1,1c-0.2,1.2-1.5,2.7-3,3c-1.9,0.5-3.2,1.2-4,2V22H33z"/>
<path opacity="0.6" d="M46,70H2c-1.1,0-2-0.9-2-2v-1c0,1.1,0.9,2,2,2h44"/>
<path opacity="0.1" d="M46,69h22c1.1,0,2-0.9,2-2v1c0,1.1-0.9,2-2,2H46"/>
<path opacity="0.5" fill="#FFFFFF" d="M46,1h22c1.1,0,2,0.9,2,2V2c0-1.1-0.9-2-2-2H46"/>
<path opacity="0.1" fill="#FFFFFF" d="M47,0H2C0.9,0,0,0.9,0,2v1c0-1.1,0.9-2,2-2h45"/>
<radialGradient id="SVGID_3_" cx="23.3333" cy="23" r="65.29" fx="-4.9174" fy="23" gradientUnits="userSpaceOnUse">
		<stop offset="0" style="stop-color:#FFFFFF;stop-opacity:0.1"/>
		<stop offset="1" style="stop-color:#FFFFFF;stop-opacity:0"/>
</radialGradient>
<path fill="url(#SVGID_3_)" d="M68,70H2c-1.1,0-2-0.9-2-2V2c0-1.1,0.9-2,2-2h66c1.1,0,2,0.9,2,2v66C70,69.1,69.1,70,68,70z"/>
<linearGradient id="SVGID_4_" gradientUnits="userSpaceOnUse" x1="66" y1="35" x2="70" y2="35">
		<stop offset="0" style="stop-color:#000000;stop-opacity:0"/>
		<stop offset="1" style="stop-color:#000000;stop-opacity:0.1"/>
</linearGradient>
<path fill="url(#SVGID_4_)" d="M66,0h2c1.1,0,2,0.9,2,2v66c0,1.1-0.9,2-2,2h-2"/>
</svg>
