<?xml version="1.0" encoding="utf-8"?>
<!-- Generator: Adobe Illustrator 17.1.0, SVG Export Plug-In . SVG Version: 6.00 Build 0)  -->
<!DOCTYPE svg PUBLIC "-//W3C//DTD SVG 1.1//EN" "http://www.w3.org/Graphics/SVG/1.1/DTD/svg11.dtd">
<svg version="1.1" id="Layer_1" xmlns="http://www.w3.org/2000/svg" xmlns:xlink="http://www.w3.org/1999/xlink" x="0px" y="0px" viewBox="0 0 32 32" enable-background="new 0 0 32 32" xml:space="preserve" width="32px" height="32px" fill="#333">
<g>
	<g>
		<polygon fill="#E5E5E5" points="6.5,31.5 6.5,3.6 10.5,3.6 10.5,0.5 21.6,0.5 21.6,3.6 25.5,3.6 25.5,31.5 		"/>
		<g>
			<path fill="#D72C20" d="M21.1,1v2.1v1h1h3V31H7V4.1h3h1v-1V1H21.1 M22.1,0H10v3.1H6V32h20V3.1h-4V0L22.1,0z"/>
		</g>
	</g>
	<rect x="6" y="30" fill="#D72C20" width="20px" height="2px"/>
</g>
<polygon fill="#D72C20" points="18.1,6 11.4,17 17,17 14.9,26 21.4,15 16,15 "/>
</svg>
