<svg version="1.1" id="Layer_1" xmlns="http://www.w3.org/2000/svg" xmlns:xlink="http://www.w3.org/1999/xlink" x="0px" y="0px" viewBox="0 0 32 22" style="enable-background:new 0 0 32 22;" xml:space="preserve" width="32px" height="22px" fill="#333">
<style type="text/css">
	.primary{fill:#339647;}
	.secondary{fill:#EBD909;}
	.shadow{opacity:0.3;}
</style>
<rect x="17" y="4" class="primary" width="2px" height="4px"/>
<polygon class="secondary" points="21,10 21,22 32,22 "/>
<polygon class="shadow" points="21,10 21,22 32,22 "/>
<polygon class="primary" points="21,22 0,22 0,7 19,7 21,9 "/>
<polygon class="shadow" points="21,22 19,22 19,7 21,9 "/>
<rect x="15" y="10" class="shadow" width="1px" height="12px"/>
<rect x="6" y="10" class="shadow" width="1px" height="12px"/>
<rect y="7" class="shadow" width="2px" height="15px"/>
<rect y="7" class="shadow" width="2px" height="15px"/>
<polygon class="secondary" points="21,12 21,22 30,22 "/>
<rect x="5" y="7" class="shadow" width="11px" height="3px"/>
<rect x="5" y="7" class="black" width="6px" height="3px"/>
<path class="primary" d="M20,4L2,12V6l13-6h3c0,0,2,0,2,2C20,3,20,4,20,4z"/>
<circle class="black" cx="16.5" cy="2.5" r="1.5"/>
<rect x="3" y="7" class="black" width="2px" height="5px"/>
</svg>
