<svg version="1.1" id="Layer_1" xmlns="http://www.w3.org/2000/svg" xmlns:xlink="http://www.w3.org/1999/xlink" x="0px" y="0px" viewBox="0 0 32 22" style="enable-background:new 0 0 32 22;" xml:space="preserve" width="32px" height="22px" fill="#333">
<style type="text/css">
	.primary{fill:#339647;}
	.secondary{fill:#EBD909;}
	.shadow{opacity:0.3;}
	.highlight{opacity:0.2;fill:#FFFFFF;}
	.grey{fill:#808082;}
	.window{opacity:0.3;fill:#5DC9E8;}
	.stripe{fill:#EBD909;}
</style>
<polygon class="grey" points="29.7,8.3 29.2,8 28,10 28.5,10.3 	"/>
<polygon class="grey" points="30.7,9 30,13 28.6,9 	"/>
<polygon class="primary" points="32,22 29,22 26,20 26,16 27,15 32,15 	"/>
<polygon class="window" points="24,7 31,7 30,13 24,13 	"/>
<polygon class="black" points="24,6 27,13 19,13 	"/>
<polygon class="shadow" points="26,20 29,22 29,19 27,15 26,16 	"/>
<polygon class="primary" points="26,2 18,2 18,0 12,0 2,3 2,10 1,10 1,8 0,7 0,12 4,16 8,13 8,13 21,13 	"/>
<rect x="15" y="3" class="shadow" width="7px" height="1px"/>
<polygon class="primary" points="24,20 8,20 8,14 25,14 24,15 	"/>
<polygon class="shadow" points="24,20 8,20 8,14 25,14 24,15 	"/>
<rect x="24" y="6" class="black" width="7px" height="1px"/>
<polygon class="primary" points="24,5 30,5 31,6 24,6 	"/>
<circle class="black" cx="23.5" cy="18.5" r="3.5"/>
<circle class="secondary" cx="23.5" cy="18.5" r="1.5"/>
<circle class="black" cx="7.5" cy="19.5" r="2.5"/>
<circle class="secondary" cx="7.5" cy="19.5" r="1.5"/>
<rect x="12" y="14" class="grey" width="6px" height="5px"/>
<polygon class="shadow" points="25,14 8,14 8,15 24,15 	"/>
<rect x="6" y="13" class="primary" width="24px" height="1px"/>
<rect x="6" y="13" class="stripe" width="21px" height="0.5px"/>
<polygon class="shadow" points="24,6 22,2 26,2 	"/>
<polygon class="black" points="27,15 30,15 23,3 19,3 	"/>
<polygon class="primary" points="23,0 13,0 15,3 24,3 	"/>
<polygon class="shadow" points="2,12 4,14 6,14 6,13 	"/>
<polygon class="shadow" points="6,6 3,6 3,4 6,3 	"/>
<polygon class="shadow" points="12,11 10,3 12,3 	"/>
<polygon class="shadow" points="10,13 9,13 7,1.7 8,1.3 	"/>
<polygon class="shadow" points="13,13 13,3 12,0 13,0 15,3 15,9 17,11 17,13 	"/>
<polygon class="shadow" points="10,13 9,13 7,1.7 8,1.3 	"/>
<polygon class="shadow" points="13,13 13,3 12,0 13,0 15,3 15,9 17,11 17,13 	"/>
<polygon class="primary" points="4,11 3,13 1,11 1,9 4,9 	"/>
<polygon class="highlight" points="4,11 3,13 1,11 1,9 4,9 	"/>
<polygon class="highlight" points="4,11 3,13 1,11 1,9 4,9 	"/>
</svg>
