<svg version="1.1" id="Layer_1" xmlns="http://www.w3.org/2000/svg" xmlns:xlink="http://www.w3.org/1999/xlink" x="0px" y="0px" viewBox="0 0 32 22" style="enable-background:new 0 0 32 22;" xml:space="preserve" width="32px" height="22px" fill="#333">
<style type="text/css">
	.primary{fill:#339647;}
	.secondary{fill:#EBD909;}
	.shadow{opacity:0.3;}
	.stripe{fill:#EBD909;}
</style>
<circle class="black" cx="3" cy="19" r="3"/>
<circle class="secondary" cx="3" cy="19" r="2"/>
<path class="primary" d="M20,13H4c-1.1,0-2,0.9-2,2v4c0,0.6,0.4,1,1,1s1-0.4,1-1v-4h16V13z"/>
<polygon class="primary" points="30,2 20,13 20,15 30,4 "/>
<polygon class="primary" points="29,10 20,13 20,15 29,12 "/>
<rect x="8" y="20" class="secondary" width="4px" height="2px"/>
<polygon class="primary" points="32,16 20,13 8,17 8,20 15,21 15,22 29,22 32,19 "/>
<polygon class="shadow" points="23.4,13.9 29,12 29,10 20,13 8,17 8,18 15,18 15,22 17,22 17,18 19,15 32,16 "/>
<path class="stripe" d="M17,18l0.7-1c0,0,0.9,0,5.3,0c5.9,0,7,1,7,1H17z"/>
<path class="stripe" d="M17,18l0.7-1c0,0,0.9,0,5.3,0c5.9,0,7,1,7,1H17z"/>
<polygon class="primary" points="30,0 26,16 28,16 32,0 "/>
</svg>
