<svg version="1.1" id="Layer_1" xmlns="http://www.w3.org/2000/svg" xmlns:xlink="http://www.w3.org/1999/xlink" x="0px" y="0px" viewBox="0 0 32 22" style="enable-background:new 0 0 32 22;" xml:space="preserve" width="32px" height="22px" fill="#333">
<style type="text/css">
	.primary{fill:#339647;}
	.secondary{fill:#EBD909;}
	.shadow{opacity:0.3;}
	.highlight{opacity:0.2;fill:#FFFFFF;}
</style>
<circle class="black" cx="5" cy="17" r="5"/>
<circle class="secondary" cx="5" cy="17" r="3"/>
<path class="shadow" d="M9,20c-2.1,0-3.9-1.7-4-3.6c-0.1-1.3,0.2-2.6,2-3.4L9,20z"/>
<polygon class="primary" points="32,17 29,17 29,14 32,15 "/>
<polygon class="shadow" points="32,17 29,17 29,14 32,15 "/>
<rect x="30" y="10" class="black" width="2px" height="2px"/>
<path class="primary" d="M29,19H9c-1.6,0-2.9-1.5-3-3c0-1,0.5-2.1,1.9-2.7L26,4l5,4L29,19z"/>
<polygon class="highlight" points="31,8 26,4 16,9.1 13,19 15,19 17.7,9 "/>
<path class="shadow" d="M28,19c0-1.7-1.3-3-3-3c-1.7,0-3,1.3-3,3"/>
<circle class="primary" cx="25" cy="19" r="2"/>
<circle class="black" cx="25" cy="19" r="1"/>
</svg>
