<svg version="1.1" id="Layer_1" xmlns="http://www.w3.org/2000/svg" xmlns:xlink="http://www.w3.org/1999/xlink" x="0px" y="0px" viewBox="0 0 32 22" style="enable-background:new 0 0 32 22;" xml:space="preserve" width="32px" height="22px" fill="#333">
<style type="text/css">
	.primary{fill:#808080;}
	.highlight{opacity:0.2;fill:#FFFFFF;}
</style>
  <polygon class="primary" points="23.4,16.2 25.7,17.3 26.6,17.3 26.6,15.5 23.4,15.5 "/>
  <polygon class="primary" points="15,5 13,5 13.5,4.2 13,3.9 11.8,5.8 12.3,6.1 12.8,5.4 15,11 "/>
  <path class="highlight" d="M15,11h-1c0,0-2-5-6-5l0-4c0,0,5.7,0,6,0c0.7,0,1,0.3,1,1C15,3.7,15,11,15,11z"/>
  <path class="primary" d="M32,9c0,0-3.3-3.4-13-4V2l1-2c0,0-2,0-2,2l0,3l-2,0l0-4l1-1c0,0-9.4,0-10,0C6,0,6,1,6,1l1,0l0,5
	C2,6,1,9,1,9s1.6-0.8,4-1l1,1c-4.2,0.5-6,3.3-6,6.5C0,19.1,2.9,22,6.5,22c3.1,0,5.6-2.1,6.3-5l5.2,0c0-3,2-5,6-5c-3,0.2-5,2.4-5,5
	c0,2.8,2.3,5,5,5c2.4,0,4.4-1.7,4.9-4l3.1,0h0v-3l-2-1L32,9z M15,11h-1c0,0-2-5-6-5l0-4c0,0,5.7,0,6,0c0.7,0,1,0.3,1,1
	C15,3.7,15,11,15,11z"/>
  <path class="highlight" d="M24,14c-1.7,0-3,1.3-3,3s1.3,3,3,3c1.7,0,3-1.3,3-3S25.7,14,24,14z M24,19c-1.1,0-2-0.9-2-2s0.9-2,2-2
	s2,0.9,2,2S25.1,19,24,19z M6.5,11.5c-2.2,0-4,1.8-4,4c0,2.2,1.8,4,4,4c2.2,0,4-1.8,4-4C10.5,13.3,8.7,11.5,6.5,11.5z M6.5,18.5
	c-1.7,0-3-1.3-3-3c0-1.7,1.3-3,3-3c1.7,0,3,1.3,3,3C9.5,17.2,8.2,18.5,6.5,18.5z"/>
</svg>
