<svg version="1.1" id="Layer_1" xmlns="http://www.w3.org/2000/svg" xmlns:xlink="http://www.w3.org/1999/xlink" x="0px" y="0px" viewBox="0 0 32 22" style="enable-background:new 0 0 32 22;" xml:space="preserve" width="32px" height="22px" fill="#333">
<style type="text/css">
	.primary{fill:#339647;}
</style>
<polygon class="primary" points="32,11 21,14 21,8 32,8 "/>
<path class="black" d="M17.5,20c-1.2,0-2.4-1-3.2-2.7C13.4,15.6,13,13.4,13,11c0-2.4,0.4-4.6,1.3-6.3C15.1,3,16.3,2,17.5,2
	c1.2,0,2.4,1,3.2,2.7C21.6,6.4,22,8.6,22,11c0,2.4-0.4,4.6-1.3,6.3C19.9,19,18.7,20,17.5,20z M17.5,4C15.6,4,14,7.1,14,11
	c0,3.9,1.6,7,3.5,7s3.5-3.1,3.5-7C21,7.1,19.5,4,17.5,4z"/>
<ellipse class="black" cx="17.5" cy="11.5" rx="1.5" ry="3.5"/>
<path class="black" d="M10.5,18c-1,0-1.9-0.8-2.5-2.1c-0.6-1.3-1-3-1-4.9c0-1.8,0.3-3.6,1-4.9C8.6,4.8,9.5,4,10.5,4s1.9,0.8,2.5,2.1
	c0.6,1.3,1,3,1,4.9c0,1.8-0.3,3.6-1,4.9C12.4,17.2,11.5,18,10.5,18z M10.5,6C9.1,6,8,8.2,8,11c0,2.8,1.1,5,2.5,5s2.5-2.2,2.5-5
	C13,8.2,11.9,6,10.5,6z"/>
<ellipse class="black" cx="10.5" cy="11" rx="1.2" ry="2.8"/>
<path class="black" d="M5,16c-0.8,0-1.6-0.5-2.2-1.5C2.3,13.5,2,12.3,2,11c0-1.3,0.3-2.5,0.8-3.5C3.4,6.5,4.2,6,5,6s1.6,0.5,2.2,1.5
	C7.7,8.5,8,9.7,8,11c0,1.3-0.3,2.5-0.8,3.5C6.6,15.5,5.8,16,5,16z M5,7c-1.1,0-2,1.8-2,4c0,2.2,0.9,4,2,4s2-1.8,2-4C7,8.8,6.1,7,5,7
	z"/>
<ellipse class="black" cx="5" cy="11" rx="1" ry="2"/>
<path class="black" d="M3,12l-3-1l3-1V12z"/>
<path class="black" d="M21,9.5l4,1.5l-4,1.5V9.5z"/>
<path class="black" d="M4,7l1-3l1,3H4z"/>
<path class="black" d="M2.3,9L0.9,6.2l2.8,1.4L2.3,9z"/>
<path class="black" d="M3.7,14.4l-2.8,1.4L2.3,13L3.7,14.4z"/>
<path class="black" d="M21,16.2l1.4,2.8l-2.8-1.4L21,16.2z"/>
<path class="black" d="M9.4,16.4l-2.8,1.4L8,15L9.4,16.4z"/>
<path class="black" d="M15.8,17.6L13,19l1.4-2.8L15.8,17.6z"/>
<path class="black" d="M19.6,4l2.8-1.4L21,5.4L19.6,4z"/>
<path class="black" d="M14.4,5.4L13,2.6L15.8,4L14.4,5.4z"/>
<path class="black" d="M8,7L6.6,4.2l2.8,1.4L8,7z"/>
<path class="black" d="M6,15l-1,3l-1-3H6z"/>
<path class="black" d="M11.5,17l-1,3l-1-3H11.5z"/>
<path class="black" d="M18.5,19l-1,3l-1-3H18.5z"/>
<path class="black" d="M16.5,3l1-3l1,3H16.5z"/>
<path class="black" d="M9.5,5l1-3l1,3H9.5z"/>
</svg>
