<svg version="1.1" id="Layer_1" xmlns="http://www.w3.org/2000/svg" xmlns:xlink="http://www.w3.org/1999/xlink" x="0px" y="0px" viewBox="0 0 32 22" style="enable-background:new 0 0 32 22;" xml:space="preserve" width="32px" height="22px" fill="#333">
<style type="text/css">
	.primary{fill:#339647;}
	.secondary{fill:#EBD909;}
	.shadow{opacity:0.3;}
	.grey{fill:#808082;}
	.window{opacity:0.3;fill:#5DC9E8;}
	.stripe{fill:#EBD909;}
</style>
<path class="primary" d="M31,17.4L31,17.4L28,13h-1v2h-5v4l3,2v1c0,0,5.5,0.2,7-2v-2L31,17.4z"/>
<path class="black" d="M8,4.7v2.5H7c0,0,0-1.6,0-2.1c0-1.2-1-1-1-1L5,3h1.4C7.1,3,8,3.4,8,4.7z"/>
<rect x="10" y="2" class="black" width="3px" height="2px"/>
<rect x="11" y="4" class="black" width="1px" height="3px"/>
<polyline class="shadow" points="22,15 22,19 25,21 25,18 27,18 27,15 "/>
<polygon class="shadow" points="27,15 31,17.4 28,13 27,13 "/>
<rect x="6" y="13" class="black" width="4px" height="2px"/>
<polygon class="primary" points="16,6 2,6 1,7 1,14 22,14 23,10 16,10 "/>
<rect x="1" y="13" class="shadow" width="19px" height="1px"/>
<rect x="1" y="7" class="stripe" width="15px" height="0.5px"/>
<rect x="11" y="14" class="primary" width="0.5px" height="3px"/>
<rect x="13.5" y="14" class="primary" width="0.5px" height="3px"/>
<rect x="11" y="16" class="primary" width="3px" height="1px"/>
<circle class="black" cx="19.5" cy="17.5" r="4.5"/>
<circle class="secondary" cx="19.5" cy="17.5" r="2.5"/>
<circle class="shadow" cx="19.5" cy="17.5" r="1"/>
<circle class="black" cx="3" cy="19" r="3"/>
<circle class="secondary" cx="3" cy="19" r="1.5"/>
<path class="primary" d="M9,17c0,0-5.8,2.5-6,2.6c-0.6,0.2-0.8-0.4-0.6-0.6C2.5,18.8,5,15,5,15h4V17z"/>
<rect x="6" y="8" class="shadow" width="4px" height="3px"/>
<rect x="12" y="8" class="shadow" width="2px" height="3px"/>
<rect x="25" y="18" class="stripe" width="7px" height="1px"/>
<polygon class="grey" points="21.7,3.5 21.1,3.2 19.8,5.2 20.4,5.5 "/>
<polygon class="grey" points="23.4,4 22.2,9 21,4 "/>
<rect x="15" y="0" class="primary" width="10px" height="1px"/>
<path class="black" d="M15,1v9h8l2-9H15z M22,8h-6l0-6h7c0,0,0.8,0.1,0.6,1S22,8,22,8z"/>
<path class="window" d="M16,2l0,6h6c0,0,1.5-4.1,1.6-5S23,2,23,2H16z"/>
</svg>
