<svg version="1.1" id="Layer_1" xmlns="http://www.w3.org/2000/svg" xmlns:xlink="http://www.w3.org/1999/xlink" x="0px" y="0px" viewBox="0 0 32 22" style="enable-background:new 0 0 32 22;" xml:space="preserve" width="32px" height="22px" fill="#333">
<style type="text/css">
	.primary{fill:#339647;}
	.secondary{fill:#EBD909;}
	.shadow{opacity:0.3;}
	.highlight{opacity:0.2;fill:#FFFFFF;}
	.stripe{fill:#EBD909;}
</style>
<polygon class="primary" points="30,21 22,17 22,13 30,18 		"/>
<polygon class="shadow" points="30,21 22,17 22,13 30,18 		"/>
<circle class="black" cx="29.5" cy="19.5" r="2.5"/>
<circle class="secondary" cx="29.5" cy="19.5" r="0.5"/>
<path class="black" d="M8,1c0,0-4.7,1-5.6,1.2C1.5,2.5,0,3.4,0,5.4c0,1,0,4.6,0,6.3c0,3,5.9,4.3,5.9,4.3L8,1z"/>
<path class="primary" d="M26,4c0,0-5.9-4-12.2-4c-4,0-5.7,0-5.7,0L4,7v4c0,0,1.3,4.3,2,5.3c0.6,1,1.9,1.1,1.9,1.1L21,19c0,0,8-4,8-7C29,6.7,26,4,26,4z"/>
<path class="shadow" d="M21,16c0-2.4-3.1-5-6.1-5H4l0,0c0,0.1,1.3,4.3,2,5.3c0.6,1,1.9,1.1,1.9,1.1L21,19l0,0V16z"/>
<path class="highlight" d="M6.3,3C24.8,3,28,10,28,10S21.8,5,5.2,5L6.3,3z"/>
<path class="stripe" d="M4,7c0,0,0,2,0,2c13.4,0,22,2,22,2S17,7,4,7z"/>
<circle class="black" cx="13.5" cy="17.5" r="4.5"/>
<circle class="secondary" cx="13.5" cy="17.5" r="2.5"/>
</svg>
