<svg version="1.1" id="Layer_1" xmlns="http://www.w3.org/2000/svg" xmlns:xlink="http://www.w3.org/1999/xlink" x="0px" y="0px" viewBox="0 0 32 22" style="enable-background:new 0 0 32 22;" xml:space="preserve" width="32px" height="22px" fill="#333">
<style type="text/css">
	.primary{fill:#339647;}
	.shadow{opacity:0.3;}
	.highlight{opacity:0.2;fill:#FFFFFF;}
	.grey{fill:#808082;}
</style>
<rect x="13" y="1" class="primary" width="8px" height="2px"/>
<polygon class="primary" points="11,1 9,1 1,11 3,11 "/>
<polygon class="primary" points="11,1 13,1 21,11 19,11 "/>
<polygon class="shadow" points="11,1 9,1 1,11 3,11 "/>
<polygon class="shadow" points="11,1 13,1 21,11 19,11 "/>
<polygon class="primary" points="9,0 13,0 15,11 7,11 "/>
<path class="highlight" d="M12,3c0-0.6-0.4-1-1-1s-1,0.4-1,1l-1,8h4L12,3z"/>
<path class="black" d="M32,22H0c0,0,2-1,2-3c0-3.7-2-3-2-9l22,0l9,4c0,0,1,1,1,3s-1,2-1,3S32,22,32,22z"/>
<path class="grey" d="M3.1,13.5c0,0,6.3,5.5,11,5.5s7.6-1.7,7.6-1.7c1.8-0.7-3.4-2.6-8-1.5S2.3,11.4,3.1,13.5z"/>
<path class="shadow" d="M3.1,13.5c0,0,6.3,5.5,11,5.5s7.6-1.7,7.6-1.7c1.8-0.7-3.4-2.6-8-1.5S2.3,11.4,3.1,13.5z"/>
<path class="grey" d="M19.5,11h-16C3.2,11,3,11.2,3,11.5S3.2,12,3.5,12h16c0.3,0,0.5-0.2,0.5-0.5S19.8,11,19.5,11z"/>
<polygon class="black" points="29,8 22,15 22,13 29,6 "/>
<polygon class="black" points="30,9 28,8 27,6 30,4 32,6 "/>
</svg>
