<svg version="1.1" id="Layer_1" xmlns="http://www.w3.org/2000/svg" xmlns:xlink="http://www.w3.org/1999/xlink" x="0px" y="0px" viewBox="0 0 32 22" style="enable-background:new 0 0 32 22;" xml:space="preserve" width="32px" height="22px" fill="#333">
<style type="text/css">
	.primary{fill:#339647;}
	.secondary{fill:#EBD909;}
	.shadow{opacity:0.3;}
</style>
<path class="primary" d="M15,7L15,7L8,7l-5,3v8h6l4-3l2,4h-5v3l5,0c17,0,17-8,17-8L15,7z"/>
<polygon class="shadow" points="8,7 3,10 3,18 9,18 13,15 12,13 15,7 "/>
<polygon class="primary" points="10,1 23,1 22,0 10,0 "/>
<ellipse class="black" cx="4.5" cy="17.5" rx="4.5" ry="4.5"/>
<circle class="secondary" cx="4.5" cy="17.5" r="2.5"/>
<path class="primary" d="M4.5,18C4.2,18,4,17.8,4,17.5C4,17.2,4.2,17,4.5,17H9v1L4.5,18z"/>
<rect x="8" class="primary" width="3px" height="22px"/>
<polygon class="black" points="30,15 20,11 20,9.1 30,13.2"/>
<polygon class="primary" points="22,0 22,4 32,8 32,4 "/>
<path class="black" d="M29,12.8l3,1.2c0,0,0,2.6-3,4.7L29,12.8z"/>
<path class="shadow" d="M18.5,15.3c-0.2,0-0.4,0-0.6-0.1c-0.7-0.2-1.4-0.6-1.8-1.2c-0.4-0.6-0.5-1.4-0.4-2.1
	c0.2-0.7,0.6-1.4,1.2-1.8l0.5,0.8c-0.4,0.3-0.7,0.7-0.8,1.1c-0.1,0.5,0,1,0.2,1.4s0.7,0.7,1.1,0.8c0.5,0.1,1,0,1.4-0.2l0.5,0.8
	C19.6,15.1,19.1,15.3,18.5,15.3z"/>
<polygon class="black" points="24,2 22,1 22,4 24,4.8 "/>
<path class="black" d="M18.9,12.2c-0.2-0.2-0.5-0.3-0.7-0.1c0,0,0,0,0,0l-3,2c-0.2,0.2-0.3,0.5-0.1,0.7c0.2,0.2,0.5,0.3,0.7,0.1l3-2
	l0,0C19,12.8,19.1,12.4,18.9,12.2z"/>
</svg>
