<svg version="1.1" id="Layer_1" xmlns="http://www.w3.org/2000/svg" xmlns:xlink="http://www.w3.org/1999/xlink" x="0px" y="0px" viewBox="0 0 32 22" style="enable-background:new 0 0 32 22;" xml:space="preserve" width="32px" height="22px" fill="#333">
<style type="text/css">
	.primary{fill:#339647;}
	.secondary{fill:#EBD909;}
	.shadow{opacity:0.3;}
	.grey{fill:#808082;}
	.window{opacity:0.3;fill:#5DC9E8;}
	.stripe{fill:#EBD909;}
</style>
<polygon class="grey" points="21.7,3.5 21.1,3.2 19.8,5.2 20.4,5.5 "/>
<polygon class="grey" points="23.4,4 22.2,9 21,4 "/>
<path class="secondary" d="M7.8,0H6.6C4,0.2,1.7,1.1,0,3v1h1c1.5-1.8,3.5-3,6-3c4.2,0,4.6,3.7,5,8h4C15.5,4.1,12.6,0.3,7.8,0z"/>
<polygon class="primary" points="15,10 15,6 2,6 0,8 0,18 21,18 23,10 "/>
<path class="shadow" d="M22.5,12H15l0,5h-4.1c-0.5-2.5-2.7-4-4.9-4c-2.2,0-4.4,1.6-4.9,4H0v1h21L22.5,12z"/>
<path class="secondary" d="M29,20.5C29,20.5,29,20.5,29,20.5c0-0.8-0.7-1.5-1.5-1.5S26,19.7,26,20.5V22h6L29,20.5z"/>
<path class="shadow" d="M29,20.5C29,20.5,29,20.5,29,20.5c0-0.8-0.7-1.5-1.5-1.5S26,19.7,26,20.5V22h6L29,20.5z"/>
<circle class="black" cx="31" cy="18" r="1"/>
<polygon class="secondary" points="32,18 31,17 31,16 32,15 "/>
<path class="secondary" d="M32,15c0,0.6-0.4,1-1,1s-1-0.4-1-1c0-0.6,0.4-1,1-1C31.6,14,32,14.4,32,15z"/>
<rect x="15" y="0" class="primary" width="10px" height="1px"/>
<ellipse class="black" cx="6" cy="18" rx="4" ry="4"/>
<circle class="secondary" cx="6" cy="18" r="2"/>
<polygon class="black" points="13,10 2,8 13,8 "/>
<polygon class="stripe" points="15,7.5 0.5,7.5 1,7 15,7 "/>
<path class="shadow" d="M13,16c-3-7.9-12-4-12-4s8.5-3,11,4H13z"/>
<path class="shadow" d="M1,4c1.4-1.7,3.3-3,6-3C4.1,0.8,1.6,2,0,4H1z"/>
<path class="secondary" d="M29,16v-2c-2.2-5.3-8-2-8-2l0,2l3,8h3v0c0.6,0,1-0.4,1-1c0-0.6-0.4-1-1-1L29,16z"/>
<circle class="shadow" cx="26.5" cy="13.5" r="0.5"/>
<path class="black" d="M15,1v9h8l2-9H15z M22,8h-6l0-6h7c0,0,0.8,0.1,0.6,1S22,8,22,8z"/>
<rect x="28" y="14" class="secondary" width="3px" height="1px"/>
<circle class="black" cx="20.5" cy="17.5" r="4.5"/>
<ellipse class="secondary" cx="20.5" cy="17.5" rx="2.5" ry="2.5"/>
<circle class="shadow" cx="20.5" cy="17.5" r="1"/>
<path class="window" d="M16,2l0,6h6c0,0,1.5-4.1,1.6-5S23,2,23,2H16z"/>
</svg>
