<?xml version="1.0" encoding="iso-8859-1"?>
<!-- Generator: Adobe Illustrator 19.0.0, SVG Export Plug-In . SVG Version: 6.00 Build 0)  -->
<svg version="1.0" id="Layer_1" xmlns="http://www.w3.org/2000/svg" xmlns:xlink="http://www.w3.org/1999/xlink" x="0px" y="0px"
	 viewBox="0 0 32 32" style="enable-background:new 0 0 32 32;" xml:space="preserve" width="32px" height="32px" fill="#333">
<style type="text/css">
	.st0{fill:#808082;}
	.st1{fill:#367C2B;}
	.st2{fill-opacity:0.3;}
	.st3{fill:#FFFFFF;fill-opacity:0.3;}
	.st4{fill:#333333;}
	.st5{opacity:0.3;fill:#FFFFFF;}
	.st6{enable-background:new    ;}
	.st7{fill:#5DC9E8;}
	.st8{opacity:0.3;fill:#231F20;}
	.st9{opacity:0.3;}
	.st10{fill:#231F20;}
	.st11{fill:#FFDE00;}
	.st12{fill:#231F20;fill-opacity:0.3;}
</style>
<g id="XMLID_97_">
	<path id="XMLID_96_" class="st0" d="M11.405,27.902c-0.863,0.062-1.719-0.793-1.719-1.844v-11.18c0-1.051,0.855-1.906,1.906-1.906
		h10.171c1.051,0,1.906,0.855,1.906,1.906v11.18c0,1.051-0.855,1.906-2.094,1.844H11.405z"/>
	<path id="XMLID_2_" class="st1" d="M21.764,26.965H11.592c-0.5,0-0.906-0.406-0.906-0.906v-11.18c0-0.5,0.406-0.906,0.906-0.906
		h10.171c0.5,0,0.906,0.406,0.906,0.906v11.18C22.669,26.559,22.264,26.965,21.764,26.965z"/>
	<polygon id="XMLID_92_" class="st2" points="18.9,26.125 21.9,26.125 21.9,16.125 	"/>
	<polygon id="XMLID_93_" class="st3" points="14.494,14.781 11.494,14.781 11.494,24.781 	"/>
</g>
<g id="XMLID_124_">
	<rect id="XMLID_109_" x="9.652" y="5.956" class="st0" width="14.033px" height="6.016px"/>
	<rect id="XMLID_95_" x="12.664" y="11.975" class="st4" width="8.035px" height="0.999px"/>
	<rect id="XMLID_99_" x="9.654" y="5.956" class="st5" width="12.939px" height="6.016px"/>
	<g id="XMLID_117_">
		<g id="XMLID_110_" class="st6">
			<rect id="XMLID_103_" x="10.633" y="7" class="st7" width="3.015px" height="4.006px"/>
		</g>
		<g id="XMLID_102_" class="st6">
			<rect id="XMLID_106_" x="14.632" y="7" class="st7" width="3.015px" height="4.006px"/>
		</g>
		<g id="XMLID_111_" class="st6">
			<rect id="XMLID_113_" x="18.635" y="7" class="st7" width="3.015px" height="4.006px"/>
		</g>
		<g id="XMLID_116_">
			<rect id="XMLID_114_" x="18.633" y="6.999" class="st8" width="3.015px" height="1.002px"/>
			<rect id="XMLID_112_" x="18.633" y="9.002" class="st8" width="3.015px" height="1.002px"/>
			<rect id="XMLID_184_" x="10.633" y="6.999" class="st8" width="3.015px" height="1.002px"/>
			<rect id="XMLID_104_" x="10.633" y="9.002" class="st8" width="3.015px" height="1.002px"/>
		</g>
		<g id="XMLID_115_" class="st9">
			<rect id="XMLID_105_" x="14.633" y="8" class="st10" width="3.015px" height="1.002px"/>
			<rect id="XMLID_101_" x="14.633" y="10.003" class="st10" width="3.015px" height="1.002px"/>
		</g>
	</g>
	<polygon id="XMLID_118_" class="st0" points="15.452,5.958 12.466,5.958 13.452,3.957 14.466,3.957 	"/>
	<rect id="XMLID_119_" x="13.452" y="0" class="st4" width="1.013px" height="3.957px"/>
</g>
<g id="XMLID_123_">
	<rect id="XMLID_122_" x="14.691" y="16.002" class="st4" width="3.973px" height="3.973px"/>
	<rect id="XMLID_121_" x="15.674" y="16.984" class="st11" width="2.008px" height="2.008px"/>
</g>
<rect id="XMLID_125_" x="15.639" y="27.902" class="st0" width="2.077px" height="4.098px"/>
<rect id="XMLID_126_" x="15.639" y="29.02" class="st12" width="2.078px" height="0.998px"/>
<rect id="XMLID_185_" x="15.639" y="27.901" class="st3" width="2.078px" height="1.116px"/>
<rect id="XMLID_186_" x="15.639" y="30.018" class="st3" width="2.078px" height="1.982px"/>
<g id="XMLID_132_">
	<rect id="XMLID_128_" x="9.307" y="30" class="st1" width="3.014px" height="2px"/>
	<rect id="XMLID_129_" x="11.308" y="30" class="st8" width="1.013px" height="2px"/>
</g>
<g id="XMLID_130_">
	<path id="XMLID_133_" class="st11" d="M13.312,28.496c0-1.374-1.124-2.498-2.498-2.498s-2.498,1.124-2.498,2.498v1.514h4.997
		V28.496z"/>
	<path id="XMLID_131_" class="st12" d="M9.245,29.609h3.553c0.089-0.227,0.248-0.728,0.127-1.341
		c-0.204-1.033-1.039-1.548-1.184-1.634c0.08,0.183,0.199,0.525,0.176,0.959c-0.009,0.174-0.05,0.789-0.519,1.272
		c-0.29,0.299-0.608,0.408-0.988,0.538C9.939,29.564,9.524,29.603,9.245,29.609z"/>
</g>
</svg>
