<svg version="1.1" id="Layer_1" xmlns="http://www.w3.org/2000/svg" xmlns:xlink="http://www.w3.org/1999/xlink" x="0px" y="0px" viewBox="0 0 32 22" style="enable-background:new 0 0 32 22;" xml:space="preserve" width="32px" height="22px" fill="#333">
<style type="text/css">
	.primary{fill:#339647;}
	.secondary{fill:#EBD909;}
	.shadow{opacity:0.3;}
	.highlight{opacity:0.2;fill:#FFFFFF;}
	.grey{fill:#808082;}
</style>
<path class="shadow" d="M3,16l0-8L0,4c0,0,1,2.5,1,8S0,22,0,22L3,16z"/>
<rect x="8" y="2" class="shadow" width="3px" height="2px"/>
<path class="grey" d="M21,1v1H4C3.4,2,3,2.4,3,3v6H2V3c0-1.1,0.9-2,2-2H21z"/>
<polygon class="primary" points="32,19 27,19 27,14 32,16.4 "/>
<polygon class="shadow" points="32,19 27,19 27,14 32,16.4 "/>
<rect x="2" y="8" class="secondary" width="3px" height="8px"/>
<rect x="2" y="15" class="shadow" width="3px" height="1px"/>
<polygon class="grey" points="18,1 18,3 27,3 27,1 25,0 20,0 "/>
<path class="primary" d="M5,19h24c0,0,1.1-3.1,1.1-8S28,3,28,3H6c0,0-2,3.1-2,8S5,19,5,19z"/>
<path class="shadow" d="M7,19c0-2.6,1.5-5,4.5-5h6c3,0,4.5,2.4,4.5,5"/>
<circle class="black" cx="17.5" cy="18.5" r="3.5"/>
<circle class="secondary" cx="17.5" cy="18.5" r="2"/>
<circle class="shadow" cx="17.5" cy="18.5" r="1"/>
<circle class="black" cx="11.5" cy="18.5" r="3.5"/>
<circle class="secondary" cx="11.5" cy="18.5" r="2"/>
<circle class="shadow" cx="11.5" cy="18.5" r="1"/>
<polyline class="highlight" points="27,1 25,0 20,0 18,1 "/>
<path class="highlight" d="M9,5h1v3l7,0V5h1v3l7,0V5h1v3l3.8,0C29.2,4.9,28,3,28,3H6c0,0-1.2,1.9-1.7,5L9,8V5z"/>
<rect x="25" y="5" class="shadow" width="1px" height="7px"/>
<rect x="17" y="5" class="shadow" width="1px" height="7px"/>
<rect x="9" y="5" class="shadow" width="1px" height="7px"/>
</svg>
