<svg version="1.1" id="Layer_1" xmlns="http://www.w3.org/2000/svg" xmlns:xlink="http://www.w3.org/1999/xlink" x="0px" y="0px" viewBox="0 0 32 22" style="enable-background:new 0 0 32 22;" xml:space="preserve" width="32px" height="22px" fill="#333">
<style type="text/css">
	.primary{fill:#339647;}
	.secondary{fill:#EBD909;}
	.shadow{opacity:0.3;}
</style>
<polygon class="primary" points="12,7 9,4 9,0 12,0 "/>
<polygon class="shadow" points="12,7 9,4 9,0 12,0 "/>
<polygon class="primary" points="28,8 20,17 11,8 11,1 28,1 "/>
<polygon class="shadow" points="28,8 11,8 20,17 "/>
<rect x="6" y="7" class="primary" width="1px" height="8px"/>
<rect x="6" y="7" class="primary" width="7px" height="1px"/>
<polygon class="primary" points="13,16 3,6 6,6 16,16 "/>
<polygon class="shadow" points="13,16 3,6 6,6 16,16 "/>
<rect x="6" y="14" class="primary" width="26px" height="3px"/>
<rect x="6" y="16" class="shadow" width="26px" height="1px"/>
<circle class="black" cx="16" cy="16" r="6"/>
<circle class="secondary" cx="16" cy="16" r="4"/>
<circle class="shadow" cx="16" cy="16" r="1"/>
<polygon class="secondary" points="4,9 2,9 0,6 0,0 6,0 6,6 "/>
<polygon class="shadow" points="6,6 4,9 2,9 0,6 "/>
<rect x="9" y="0" class="black" width="19px" height="1px"/>
<rect x="0" y="0" class="black" width="6px" height="1px"/>
</svg>
