<svg version="1.1" id="Layer_1" xmlns="http://www.w3.org/2000/svg" xmlns:xlink="http://www.w3.org/1999/xlink" x="0px" y="0px" viewBox="0 0 32 22" style="enable-background:new 0 0 32 22;" xml:space="preserve" width="32px" height="22px" fill="#333">
<style type="text/css">
	.primary{fill:#339647;}
	.secondary{fill:#EBD909;}
	.shadow{opacity:0.3;}
	.grey{fill:#808082;}
	.window{opacity:0.3;fill:#5DC9E8;}
</style>
<polygon class="primary" points="0,9 6,15 24,15 30,11 30,7 0,7 "/>
<polygon class="shadow" points="0,9 6,15 24,15 30,11 30,7 0,7 "/>
<path class="secondary" d="M5,5H2V2c0-0.6,0.4-1,1-1h1c0.6,0,1,0.4,1,1V5z"/>
<path class="grey" d="M6,5h7V2c0-0.6-0.4-1-1-1H7C6.4,1,6,1.4,6,2V5z"/>
<path class="black" d="M24,0c0,0-2,0-2,2l0,3h1V2L24,0z"/>
<rect x="15" y="2" class="window" width="5px" height="3px"/>
<polygon class="primary" points="22,0 14,0 14,1 21,1 "/>
<rect x="14" y="1" class="black" width="1px" height="4px"/>
<rect x="14" y="1" class="black" width="7px" height="1px"/>
<circle class="black" cx="7" cy="17" r="5"/>
<path class="black" d="M1,17H0c0-3.9,3.1-7,7-7v1C3.7,11,1,13.7,1,17z"/>
<circle class="secondary" cx="7" cy="17" r="3"/>
<circle class="shadow" cx="7" cy="17" r="1"/>
<rect x="0" y="2" class="black" width="1px" height="8px"/>
<rect x="20" y="1" class="black" width="1px" height="4px"/>
<path class="primary" d="M31,13l-3,1l-6,0l5-2c0,0,0-4-4-4c-3,0-3-1-3-1l12,0L31,13z"/>
<circle class="black" cx="24" cy="17" r="5"/>
<path class="black" d="M18,17h-1c0-3.9,3.1-7,7-7v1C20.7,11,18,13.7,18,17z"/>
<circle class="secondary" cx="24" cy="17" r="3"/>
<circle class="shadow" cx="24" cy="17" r="1"/>
<path class="black" d="M32,8l-1,5c0,0,0-4-3-5c-0.6-1-2-3-2-3l6,1V8z"/>
<polygon class="black" points="32,7 1,8 1,5 32,6 "/>
<polygon class="primary" points="9,4 7,4 3,8 5,8 "/>
<polygon class="primary" points="16,5 14,5 11,8 13,8 "/>
<polygon class="primary" points="24,5 22,5 19,8 21,8 "/>
<polygon class="black" points="16,13 11,13 11,9 18,9 "/>
<polygon class="shadow" points="31,10 0,10 0,9 32,7 32,8 "/>
<polygon class="primary" points="32,6 0,5 0,3 32,5 "/>
<polygon class="primary" points="32,8 0,9 0,7 27,7 32,7 "/>
<polygon class="primary" points="32,8 26,8 29,5 32,5 "/>
</svg>
