<svg version="1.1" id="Layer_1" xmlns="http://www.w3.org/2000/svg" xmlns:xlink="http://www.w3.org/1999/xlink" x="0px" y="0px" viewBox="0 0 32 22" style="enable-background:new 0 0 32 22;" xml:space="preserve" width="32px" height="22px" fill="#333">
<style type="text/css">
	.primary{fill:#339647;}
	.secondary{fill:#EBD909;}
	.shadow{opacity:0.3;}
	.grey{fill:#808082;}
</style>
<polygon class="secondary" points="2,6 2,4 18,4 18,14 10,14 "/>
<polygon class="shadow" points="2,6 2,4 18,4 18,14 10,14 "/>
<polygon class="primary" points="32,9 27,9 20,18 23,18 28,11 32,11 "/>
<rect x="10" y="14" class="primary" width="13px" height="4px"/>
<rect x="10" y="14" class="shadow" width="13px" height="4px"/>
<path class="secondary" d="M22,14h-5c0-5.5-6-9-10-9S2,6,2,6V4c0-3,3-3,3-3l17,0c0,0,3,1,3,6S22,14,22,14z"/>
<circle class="black" cx="7" cy="15" r="7"/>
<circle class="secondary" cx="7" cy="15" r="4"/>
<circle class="shadow" cx="7" cy="15" r="2"/>
<polygon class="primary" points="23,18 19,18 19,12 26,12 "/>
<rect x="15" y="3" class="black" width="6px" height="1px"/>
<rect x="19" y="9" class="black" width="2px" height="1px"/>
<rect x="19" y="10" class="primary" width="2px" height="3px"/>
<circle class="grey" cx="27.5" cy="19.5" r="2.5"/>
<circle class="black" cx="27.5" cy="19.5" r="1.5"/>
<rect x="15" class="secondary" width="4px" height="1px"/>
<rect x="15" y="0" class="shadow" width="4px" height="1px"/>
<rect x="28" y="14" class="primary" width="4px" height="4px"/>
<rect x="27" y="15" class="black" width="1px" height="5px"/>
<rect x="22" y="15" class="black" width="8px" height="2px"/>
<circle class="black" cx="22" cy="16" r="1"/>
</svg>
