<svg version="1.1" id="Layer_1" xmlns="http://www.w3.org/2000/svg" xmlns:xlink="http://www.w3.org/1999/xlink" x="0px" y="0px" viewBox="0 0 32 22" style="enable-background:new 0 0 32 22;" xml:space="preserve" width="32px" height="22px" fill="#333">
<style type="text/css">
	.primary{fill:#339647;}
	.secondary{fill:#EBD909;}
	.shadow{opacity:0.3;}
	.highlight{opacity:0.2;fill:#FFFFFF;}
	.grey{fill:#808082;}
	.window{opacity:0.3;fill:#5DC9E8;}
	.stripe{fill:#EBD909;}
</style>
<polygon class="grey" points="20.5,4.2 20,3.9 18.8,5.9 19.3,6.2 "/>
<polygon class="grey" points="23,5 23,9 22,9 19.7,5 "/>
<rect x="17" y="2" class="window" width="5px" height="8px"/>
<rect y="10" class="primary" width="29px" height="4px"/>
<rect y="10" class="shadow" width="29px" height="4px"/>
<polygon class="primary" points="24,0 16,0 16,1 23,1 "/>
<rect x="16" y="1" class="black" width="1px" height="8px"/>
<rect x="16" y="1" class="black" width="7px" height="1px"/>
<rect x="22" y="1" class="black" width="1px" height="9px"/>
<path class="primary" d="M31,14l-3,0c0,0,0,0,0-1c0-3-2-3-5-3c0-1.1,0-5,0-5c8,0,9,3,9,3L31,14z"/>
<path class="black" d="M32,8l-1,6c0,0,0-4-3-5c-0.6-1-1-2-1-2l4,1L32,8z"/>
<polygon class="primary" points="21,10 16,10 16,6 18,6 "/>
<polygon class="primary" points="14,11 2,11 0,2 0,1 14,1 "/>
<rect y="1" class="highlight" width="14px" height="1px"/>
<polygon class="stripe" points="14,3 0.2,3 0,2 14,2 "/>
<polygon class="shadow" points="13,9 12,6 4,6 4,9 3,5 13,5 "/>
<polygon class="black" points="17,13 13,13 14,9 18,9 "/>
<path class="stripe" d="M24,7c4.7,0,7,1,7,1s-2.3-2-7-2V7z"/>
<path class="black" d="M26,1c0,0-2,0-2,2l0,5h1V3L26,1z"/>
<path class="black" d="M25,6h-2v2h0c0,0,0,0,0,0c0,0.6,0.4,1,1,1s1-0.4,1-1c0,0,0,0,0,0h0V6z"/>
<path class="black" d="M18,17l-1,0c0-3.9,3.1-7,7-7v1C20.7,11,18,13.7,18,17z"/>
<path class="black" d="M1,17l-1,0c0-3.9,3.1-7,7-7v1C3.7,11,1,13.7,1,17z"/>
<circle class="black" cx="7" cy="17" r="5"/>
<circle class="secondary" cx="7" cy="17" r="3"/>
<circle class="shadow" cx="7" cy="17" r="1"/>
<circle class="black" cx="24" cy="17" r="5"/>
<circle class="secondary" cx="24" cy="17" r="3"/>
<circle class="shadow" cx="24" cy="17" r="1"/>
</svg>
