<svg version="1.1" id="Layer_1" xmlns="http://www.w3.org/2000/svg" xmlns:xlink="http://www.w3.org/1999/xlink" x="0px" y="0px" viewBox="0 0 32 22" style="enable-background:new 0 0 32 22;" xml:space="preserve" width="32px" height="22px" fill="#333">
<style type="text/css">
	.primary{fill:#339647;}
	.secondary{fill:#EBD909;}
	.shadow{opacity:0.3;}
	.highlight{opacity:0.2;fill:#FFFFFF;}
	.grey{fill:#808082;}
	.window{opacity:0.3;fill:#5DC9E8;}
	.stripe{fill:#EBD909;}
</style>
<polygon class="primary" points="0,9 0,16 27,16 29,14 31,9 "/>
<polygon class="shadow" points="0,9 0,16 27,16 29,14 31,9 "/>
<path class="black" d="M18,17h-5v-5h5c0.6,0,1,0.4,1,1v3C19,16.6,18.6,17,18,17z"/>
<polygon class="black" points="14,18 13,19 13,13 14,13 "/>
<polygon class="grey" points="19.5,4.2 19,3.9 17.8,5.9 18.3,6.2 "/>
<polygon class="grey" points="22,5 22,9 21,9 18.6,5 "/>
<rect x="15" y="2" class="window" width="6px" height="7px"/>
<polygon class="primary" points="23,0 14,0 14,1 22,1 "/>
<rect x="14" y="1" class="black" width="1px" height="8px"/>
<rect x="14" y="1" class="black" width="8px" height="1px"/>
<rect x="21" y="1" class="black" width="1px" height="9px"/>
<path class="primary" d="M31,14l-3,1c0,0,0,0,0-2c0-3-3-3-6-3c0-1.1,0-5,0-5c8,0,10,3,10,3L31,14z"/>
<path class="black" d="M32,8l-1,6c0,0,0-4-3-5c-0.6-1-1-2-1-2l4,1L32,8z"/>
<path class="black" d="M21,18h-1c0-3.3,2.7-6,6-6v1C23.2,13,21,15.2,21,18z"/>
<rect y="9" class="primary" width="14px" height="2px"/>
<rect y="11" class="shadow" width="14px" height="1px"/>
<rect x="14" y="9" class="primary" width="7px" height="1px"/>
<polygon class="primary" points="19,10 14,10 14,6 16,6 "/>
<polygon class="primary" points="13,10 2,10 0,4 0,3 13,3 "/>
<path class="grey" d="M13,3H0c0,0,0-2,2-2c1,0,11,0,11,0V3z"/>
<rect x="2" y="8" class="shadow" width="11px" height="1px"/>
<rect y="3" class="highlight" width="13px" height="1px"/>
<path class="stripe" d="M22,7c6.1,0,9,1,9,1s-2.9-2-9-2V7z"/>
<polygon class="black" points="1,17 0,19 0,11 1,11 "/>
<path class="stripe" d="M1,10c0,0,8,0,10,0s2,0.5,2,0.5H1V10z"/>
<path class="black" d="M26,1c0,0-2,0-2,2l0,5h1V3L26,1z"/>
<path class="black" d="M25,6h-2v2h0c0,0,0,0,0,0c0,0.6,0.4,1,1,1s1-0.4,1-1c0,0,0,0,0,0h0V6z"/>
<circle class="black" cx="26" cy="18" r="4"/>
<circle class="secondary" cx="26" cy="18" r="2"/>
<circle class="shadow" cx="26" cy="18" r="1"/>
<circle class="black" cx="7" cy="17" r="5"/>
<circle class="secondary" cx="7" cy="17" r="2.5"/>
<circle class="shadow" cx="7" cy="17" r="1.5"/>
</svg>
