<svg version="1.1" id="Layer_1" xmlns="http://www.w3.org/2000/svg" xmlns:xlink="http://www.w3.org/1999/xlink" x="0px" y="0px" viewBox="0 0 32 22" style="enable-background:new 0 0 32 22;" xml:space="preserve" width="32px" height="22px" fill="#333">
<style type="text/css">
	.primary{fill:#339647;}
	.secondary{fill:#EBD909;}
	.shadow{opacity:0.3;}
</style>
<rect y="4" class="black" width="2px" height="7px"/>
<polygon class="secondary" points="26,1 21,1 17,4 13,1 8,1 4,4 4,9 8,13 17,13 26,13 30,9 30,4 	"/>
<polygon class="primary" points="16.5,21 8,13 26,13 	"/>
<polygon class="shadow" points="16.5,21 8,13 26,13 	"/>
<polygon class="primary" points="32,15 32,18 2,18 0,15 	"/>
<polygon class="black" points="29,10 17,10 19,12 27,12 	"/>
<polygon class="black" points="5,10 17,10 15,12 7,12 	"/>
<polygon class="primary" points="26,12 28,12 32,15 26,17 	"/>
<rect x="21" y="0" class="black" width="5px" height="1px"/>
<rect x="8" y="0" class="black" width="5px" height="1px"/>
<rect x="17" y="4" class="shadow" width="4px" height="6px"/>
<rect x="4" y="4" class="shadow" width="11px" height="4px"/>
<rect x="0" y="4" class="primary" width="14px" height="2px"/>
<rect x="0" y="4" class="shadow" width="3px" height="2px"/>
<circle class="black" cx="29" cy="19" r="3"/>
<circle class="secondary" cx="29" cy="19" r="1"/>
<rect x="7" y="12" class="primary" width="21px" height="2px"/>
<circle class="black" cx="8.5" cy="17.5" r="4.5"/>
<circle class="secondary" cx="8.5" cy="17.5" r="2.5"/>
<circle class="shadow" cx="8.5" cy="17.5" r="0.5"/>
</svg>
