<?xml version="1.0" encoding="utf-8"?>
<!-- Generator: Adobe Illustrator 21.1.0, SVG Export Plug-In . SVG Version: 6.00 Build 0)  -->
<svg version="1.0" id="Layer_1" xmlns="http://www.w3.org/2000/svg" xmlns:xlink="http://www.w3.org/1999/xlink" x="0px" y="0px"
	 viewBox="0 0 32 32" style="enable-background:new 0 0 32 32;" xml:space="preserve" width="32px" height="32px" fill="#333">
<style type="text/css">
	.primary{fill:#009245;}
	.secondary{fill:#FFE500;}
	.tertiary{fill:#808080;}
	.quaternary{fill:#333333;}
	.window{opacity:0.3;fill:#5DC9E8;}
	.shadow{opacity:0.3;fill:#333333;}
	.highlight{opacity:0.3;fill:#FFFFFF;}
</style>
<rect x="2.497" y="24.535" class="primary" width="5.495px" height="2.131px"/>
<rect x="2.497" y="24.535" class="shadow" width="5.495px" height="2.131px"/>
<polygon class="secondary" points="29,7.343 29,8.343 21.911,18.626 20.998,18.012 "/>
<polygon class="primary" points="21.911,18.626 23.262,19.739 29,9.695 29,8.343 	"/>
<polygon class="shadow" points="21.911,18.626 23.262,19.739 29,9.695 29,8.343 "/>
<polygon class="primary" points="20.998,18.012 29,7.343 29,6.343 20.001,17.342 	"/>
<polygon class="primary" points="20.998,18.012 29,7.343 29,6.343 20.001,17.342 	"/>
<polygon class="shadow" points="20.998,18.012 29,7.343 29,6.343 20.001,17.342 "/>
<polygon class="primary" points="23,16.724 13,16.724 13,6.343 6.838,6.343 6.879,12.343 6.143,12.343 6.143,20.752 6.141,24.343 
		9,24.343 13,26.343 20,26.343 20,24.343 23,24.343 	"/>
<polygon class="shadow" points="13,22.343 10,17.343 6.142,17.343 6.142,24.343 23,24.343 23,22.343 "/>
<polygon class="shadow" points="11,14.343 11,12.343 6.143,12.343 6.143,15.343 12,15.343 13,22.343 13,14.343 "/>
<rect x="29" y="8.343" class="primary" width="3px" height="3px"/>
<rect x="29" y="8.343" class="shadow" width="3px" height="3px"/>
<circle class="shadow" cx="8.461" cy="19.438" r="1"/>
<polygon class="primary" points="31,8.343 29.2,11.343 29,11.343 29,6.343 31,6.343 	"/>
<polygon class="shadow" points="13,22.343 12,15.343 6.143,15.343 6.143,14.343 13,14.343 "/>
<rect x="13" y="16.724" class="primary" width="8.617px" height="5.619px"/>
<path class="quaternary" d="M13.787,6.891v9.833h7.815l1.469-9.833H13.787z M20.735,15.764l-5.948-0.041V7.891h7.124L20.735,15.764z
	"/>
<polygon class="primary" points="13.787,5.962 23.947,5.962 23.072,6.891 13.787,6.891 	"/>
<polygon class="tertiary" points="19.902,10.863 19.345,10.585 18.138,12.442 18.695,12.72 "/>
<polygon class="tertiary" points="21.398,11.327 20.735,15.764 19.253,11.327 "/>
<polygon class="window" points="14.787,15.724 14.787,7.891 21.911,7.891 20.735,15.764 "/>
<path class="quaternary" d="M4.259,2.965c-1.005,0-1.883,0.879-1.883,2.009v1.758h3.767V4.974C6.143,3.844,5.264,2.965,4.259,2.965z
	"/>
<polygon class="primary" points="6.143,24.977 0.698,24.977 0.698,9.695 2.477,9.695 6.143,9.695 	"/>
<rect x="0.698" y="18.343" class="shadow" width="5.444px" height="1px"/>
<rect x="2.376" y="4.967" class="primary" width="3.767px" height="8.429px"/>
<path class="quaternary" d="M6.141,7.808H2.303C1.228,7.808,0,8.115,0,9.727v1.152h6.141V7.808z"/>
<rect x="0.698" y="14.343" class="shadow" width="5.444px" height="1px"/>
<polygon class="primary" points="26,28.343 20,20.343 20,18.343 23,15.343 29,25.343 32,28.343 	"/>
<polygon class="shadow" points="21,19.343 25.4,19.343 24.8,18.343 20,18.343 "/>
<polygon class="shadow" points="26.5,25.343 29,25.343 28.4,24.343 25.6,24.343 "/>
<polygon class="shadow" points="23.7,22.343 27.2,22.343 26.6,21.343 22.8,21.343 "/>
<polygon class="shadow" points="29,25.343 28,28.343 32,28.343 "/>
<polygon class="highlight" points="28,28.343 26,28.343 20,20.343 20,18.343 28.3,27.343 "/>
<rect x="14.249" y="17.533" class="shadow" width="2px" height="4px"/>
<polygon class="shadow" points="18.751,20.533 16.751,21.533 16.751,17.533 18.751,17.533 "/>
<polygon class="highlight" points="9.116,9.783 10.225,8.769 12.554,8.769 12.554,10.917 9.116,10.917 "/>
<rect x="7.376" y="7.291" class="highlight" width="1.199px" height="3.625px"/>
<path class="quaternary" d="M20.473,29.035c1.4,0,2.6-1.1,2.6-2.5s-1.2-2.5-2.6-2.5h-13.9c-1.4,0-2.6,1.1-2.6,2.5s1.2,2.5,2.6,2.5
	H20.473z"/>
<rect x="6.473" y="25.035" class="secondary" width="14px" height="3px"/>
<rect x="6.473" y="25.035" class="shadow" width="14px" height="3px"/>
<circle class="secondary" cx="6.473" cy="26.535" r="1.5"/>
<circle class="secondary" cx="20.473" cy="26.535" r="1.5"/>
<circle class="shadow" cx="6.473" cy="26.535" r="0.773"/>
<circle class="shadow" cx="20.473" cy="26.535" r="0.773"/>
<rect x="9.147" y="25.833" class="secondary" width="8.751px" height="1.404px"/>
</svg>
