<svg version="1.1" id="Layer_1" xmlns="http://www.w3.org/2000/svg" xmlns:xlink="http://www.w3.org/1999/xlink" x="0px" y="0px" viewBox="0 0 32 22" style="enable-background:new 0 0 32 22;" xml:space="preserve" width="32px" height="22px" fill="#333">
<style type="text/css">
	.primary{fill:#339647;}
	.secondary{fill:#EBD909;}
	.shadow{opacity:0.3;}
	.grey{fill:#808082;}
	.window{opacity:0.3;fill:#5DC9E8;}
	.stripe{fill:#EBD909;}
	.white{fill:#FFFFFF;}
</style>
<polygon class="primary" points="6,10 6,21 29,15 29,10 16,10 16,11 13,11 8,8 "/>
<polygon class="shadow" points="6,10 6,21 29,15 29,10 16,10 16,11 13,11 8,8 "/>
<path class="black" d="M22,15L8,10.3c0,0-1.2-0.3-2-0.3c-3.3,0-6,2.7-6,6s2.7,6,6,6c0,0,14,0,15.5,0c1.9,0,3.5-1.6,3.5-3.5,C25,16.4,23.5,15.4,22,15z"/>
<polygon class="primary" points="6,21 21.5,21 22.5,16.2 8,11.4 "/>
<path class="primary" d="M17,0c0,0-9.4,0-10,0C6,0,6,1,6,1h11L17,0z"/>
<polygon class="grey" points="13.5,4.2 13,3.9 11.8,5.9 12.3,6.2 "/>
<polygon class="grey" points="16,5 16,9 15,9 12.6,5 "/>
<path class="black" d="M6,1v1h1v6l6,3l3,1l0-11H6z M15,11h-1c0,0-1-5.5-6-5.5L8,2c0,0,5.7,0,6,0c0.7,0,1,0.3,1,1C15,3.7,15,11,15,11z"/>
<polygon class="black" points="27,9 23,13 20,13 20,9 "/>
<path class="primary" d="M24,10c0,0,3,2,3,5s-1,4-1,4h4l1-1v-8H24z"/>
<path class="shadow" d="M24,10c0,0,3,2,3,5s-1,4-1,4h4l1-1v-8H24z"/>
<path class="shadow" d="M24,10c0,0,3,2,3,5s-1,4-1,4h4l1-1v-8H24z"/>
<path class="primary" d="M31,15l1,1v2h-3c0,0,0-8-6-8c-3.9,0-5,2-5,2l-2,0l0-7c10.6,0,16,3,16,3L31,15z"/>
<polygon class="black" points="29,12.1 25,8 28,9.1 "/>
<path class="stripe" d="M18,7c8.4,0,11,1,11,1s-2.6-2-11-2V7z"/>
<polygon class="black" points="32,8 31,16 30,16 29,8 "/>
<circle class="black" cx="13" cy="20" r="2"/>
<circle class="black" cx="16" cy="20" r="2"/>
<circle class="grey" cx="16" cy="20" r="1"/>
<polygon class="white" points="21,17.9 15,16 15,15.1 21,17.1 "/>
<circle class="grey" cx="13" cy="20" r="1"/>
<circle class="secondary" cx="21.5" cy="18.5" r="2.5"/>
<circle class="shadow" cx="21.5" cy="18.5" r="1.5"/>
<polygon class="black" points="10,15 15,17 16,15 10,13 "/>
<circle class="secondary" cx="6" cy="16" r="5"/>
<path class="shadow" d="M6,12c-2.2,0-4,1.8-4,4c0,2.2,1.8,4,4,4c2.2,0,4-1.8,4-4C10,13.8,8.2,12,6,12z M6,19.5c-1.9,0-3.5-1.6-3.5-3.5c0-1.9,1.6-3.5,3.5-3.5c1.9,0,3.5,1.6,3.5,3.5C9.5,17.9,7.9,19.5,6,19.5z"/>
<circle class="shadow" cx="6" cy="16" r="2"/>
<path class="primary" d="M1.9,8L12,11h1c0,0-1-4.5-7-4.5C3.5,6.5,1.9,8,1.9,8z"/>
<path class="black" d="M2,8l10,3c0,0-1.5-4-6-4C3.5,7,2,8,2,8z"/>
<path class="window" d="M17,11.8 M15,11h-1c0,0-1-5.5-6-5.5L8,2c0,0,5.7,0,6,0c0.7,0,1,0.3,1,1C15,3.7,15,11,15,11z"/>
<path class="black" d="M20,0c0,0-2,0-2,2l0,6h1V2L20,0z"/>
<path class="black" d="M19,6h-2v3h0c0,0,0,0,0,0c0,0.6,0.4,1,1,1s1-0.4,1-1c0,0,0,0,0,0h0V6z"/>
</svg>
