<svg version="1.1" id="Layer_1" xmlns="http://www.w3.org/2000/svg" xmlns:xlink="http://www.w3.org/1999/xlink" x="0px" y="0px" viewBox="0 0 32 22" style="enable-background:new 0 0 32 22;" xml:space="preserve" width="32px" height="22px" fill="#333">
<style type="text/css">
	.primary{fill:#339647;}
	.secondary{fill:#EBD909;}
	.shadow{opacity:0.3;}
	.grey{fill:#808082;}
	.window{opacity:0.3;fill:#5DC9E8;}
	.stripe{fill:#EBD909;}
	.white{fill:#FFFFFF;}
</style>
<polygon class="primary" points="12,13 12,17 28,17 28,9 21,9 "/>
<polygon class="shadow" points="12,13 12,17 28,17 28,9 21,9 "/>
<polygon class="shadow" points="12,13 12,17 28,17 28,9 21,9 "/>
<path class="primary" d="M31,15l1,1v2l0,0l-1,0l-1,1h-2c0,0,0-2,0-3c0-2,0-7-5-7c-5,0-5,4-5,4l-2,0l0-8c12,0,16,4,16,4L31,15z"/>
<polygon class="black" points="29,12 25.5,8 28,8.5 "/>
<path class="stripe" d="M18,7c8.5,0,11,1,11,1s-3.4-2-11-2V7z"/>
<path class="black" d="M20,0c0,0-2,0-2,2l0,6h1V2L20,0z"/>
<path class="primary" d="M17,0c0,0-9.4,0-10,0C6,0,6,1,6,1h11L17,0z"/>
<path class="white" d="M18,17c0-3,2-5,6-5l0,5L18,17z"/>
<path class="black" d="M32,9l-1,7c0,0-0.8,0.1-1-1c-0.2-1.1-1-6.5-1-6.5L32,9z"/>
<polygon class="grey" points="13.5,4.2 13,3.9 11.8,5.8 12.3,6.1 "/>
<polygon class="grey" points="16,5 16,11 15,11 12.6,5 "/>
<path class="black" d="M6,1v1h1l0,6L4,8l5,5h7l0-12H6z M15,11h-1c0,0-2-5-6-5l0-4c0,0,5.7,0,6,0c0.7,0,1,0.3,1,1C15,3.7,15,11,15,11z"/>
<path class="window" d="M17,11.8 M15,11h-1c0,0-2-5-6-5l0-4c0,0,5.7,0,6,0c0.7,0,1,0.3,1,1C15,3.7,15,11,15,11z"/>
<path class="black" d="M19,6h-2v3h0c0,0,0,0,0,0c0,0.6,0.4,1,1,1s1-0.4,1-1c0,0,0,0,0,0h0V6z"/>
<ellipse class="black" cx="24" cy="17" rx="5" ry="5"/>
<circle class="secondary" cx="24" cy="17" r="3"/>
<circle class="shadow" cx="24" cy="17" r="1.5"/>
<path class="primary" d="M12,10c0,0-1-3-5.5-3C3,7,2,9,2,9s1.4-1,4.5-1C10,8,11,10,11,10L12,10z"/>
<polygon class="shadow" points="28,19 30,19 31,18 28,18 "/>
<polygon class="grey" points="11,16 16,16 14,12 11,12 "/>
<circle class="black" cx="6.5" cy="15.5" r="6.5"/>
<circle class="secondary" cx="6.5" cy="15.5" r="4"/>
<circle class="shadow" cx="6.5" cy="15.5" r="2"/>
</svg>
