<svg version="1.1" id="Layer_1" xmlns="http://www.w3.org/2000/svg" xmlns:xlink="http://www.w3.org/1999/xlink" x="0px" y="0px" viewBox="0 0 32 22" style="enable-background:new 0 0 32 22;" xml:space="preserve" width="32px" height="22px" fill="#333">
<style type="text/css">
	.primary{fill:#339647;}
	.secondary{fill:#EBD909;}
	.shadow{opacity:0.3;}
	.highlight{opacity:0.2;fill:#FFFFFF;}
	.grey{fill:#808082;}
	.window{opacity:0.3;fill:#5DC9E8;}
	.stripe{fill:#EBD909;}
	.white{fill:#FFFFFF;}
</style>
<polygon class="grey" points="16,5 16,11 13,5 "/>
<path class="primary" d="M16,5c12,0,15,1.5,15,1.5L32,8l-2,6l2,0v2l-3,2H11v-6h5C16,12,16,5.6,16,5z"/>
<path class="black" d="M30.7,12c0,0-0.7-1.1-3.7-2.1L26,7l6,1L30.7,12z"/>
<path class="stripe" d="M17,5.5v1c8,0,12.9,0,12.9,0S25,5.5,17,5.5z"/>
<path class="shadow" d="M16,9v1c4.1,0.3,7.1,1.6,9.2,3H11v5h18v-1l1.3-4C30.3,13,29,9,16,9z"/>
<path class="shadow" d="M16,9v1c4.1,0.3,7.1,1.6,9.2,3H11v5h18v-1l1.3-4C30.3,13,29,9,16,9z"/>
<polygon class="highlight" points="23,8 23,7 17,7 "/>
<polygon class="black" points="25.3,7 21,7 22.4,7.5 22.9,8.9 23.6,9 23.1,7.3 23.7,7.5 24.1,9.1 24.8,9.3 24.3,7.4 24.9,7.8 25.3,9.5 26,9.6 "/>
<polygon class="white" points="31,9.6 28.3,7.8 31.6,8.3 "/>
<path class="white" d="M17,18c0-4.2,2.3-7,7-7l0,7L17,18z"/>
<path class="primary" d="M18,0C18,0,7.6,0,7,0C6,0,6,1,6,1h12L18,0z"/>
<polygon class="grey" points="14,4.2 13.5,3.9 12.3,5.8 12.8,6.1 "/>
<path class="black" d="M7,1l0,7L4,8l5,5h8V1H7z M16,11h-2c0,0-1.7-4.3-5.2-4.9C8.4,6,8,5.6,8,5.1L8,3c0-0.6,0.4-1,1-1c1.6,0,7,0,7,0V11z"/>
<path class="window" d="M16,11h-2c0,0-1.7-4.3-5.2-4.9C8.4,6,8,5.6,8,5.1L8,3c0-0.6,0.4-1,1-1c1.6,0,7,0,7,0V11z"/>
<path class="primary" d="M13,11c0,0-1.5-4-7-4C2.5,7,1,9,1,9s1.9-1,5-1c4.5,0,6,3,6,3L13,11z"/>
<ellipse class="black" cx="24.5" cy="16.5" rx="5.5" ry="5.5"/>
<circle class="secondary" cx="24.5" cy="16.5" r="3.5"/>
<circle class="shadow" cx="24.5" cy="16.5" r="1.5"/>
<circle class="black" cx="6.5" cy="15.5" r="6.5"/>
<circle class="secondary" cx="6.5" cy="15.5" r="3.5"/>
<circle class="shadow" cx="6.5" cy="15.5" r="1.5"/>
<polygon class="primary" points="14,16 16,16 16,12 13,12 "/>
</svg>
