<?xml version="1.0" encoding="utf-8"?>
<!-- Generator: Adobe Illustrator 19.0.0, SVG Export Plug-In . SVG Version: 6.00 Build 0)  -->
<svg version="1.0" id="Layer_1" xmlns="http://www.w3.org/2000/svg" xmlns:xlink="http://www.w3.org/1999/xlink" x="0px" y="0px" viewBox="0 0 32 22" style="enable-background:new 0 0 32 22;" xml:space="preserve" width="32px" height="22px" fill="#333">
<style type="text/css">
	.highlight{opacity:0.2;fill:#FFFFFF;}
	.primary{fill:#339647;}
	.secondary{fill:#EBD909;}
	.shadow{opacity:0.3;fill:#333333;}
	.grey{fill:#808082;}
	.window{opacity:0.3;fill:#5DC9E8;}
	.stripe{fill:#EBD909;}
	.white{fill:#FFFFFF;}
    .black{fill:#333333;}
</style>
<path class="primary" d="M29,10H7v9h22V10z"/>
<path class="black" d="M24.5,11c-1.041,0-2.023,0.468-2.695,1.284l-4.128,5.504C17.24,18.254,17,18.859,17,19.5
	c0,1.378,1.121,2.5,2.5,2.5h10c1.379,0,2.5-1.122,2.5-2.5c0-0.641-0.24-1.246-0.677-1.711l-4.1-5.469
	C26.523,11.468,25.541,11,24.5,11L24.5,11z"/>
<path class="black" d="M7.5,11c-1.041,0-2.023,0.468-2.695,1.284l-4.128,5.504C0.24,18.254,0,18.859,0,19.5C0,20.878,1.121,22,2.5,22
	h10c1.379,0,2.5-1.122,2.5-2.5c0-0.641-0.24-1.246-0.677-1.711l-4.1-5.469C9.523,11.468,8.541,11,7.5,11L7.5,11z"/>
<path class="shadow" d="M29,10H7v9h22V10z"/>
<path class="shadow" d="M29,10H7v9h22V10z"/>
<path class="black" d="M6,10V9c0-0.552,0.448-1,1-1h3c1,0,2,0.951,2,1.995V10v2l-4-2H6z"/>
<polygon class="grey" points="18.7,4.3 18.2,4 17,6 17.5,6.3 "/>
<polygon class="grey" points="20.4,5 20.4,9 18,5 "/>
<path class="primary" d="M30.6,16H30c0,0-1,0-1.3-1c-0.4-1.5,0-5-6.7-5l0-4c7,0,10,3,10,3L30.6,16z"/>
<path class="stripe" d="M21,7c5,0,8,1,8,1s-2.5-1.5-8-1.5V7z"/>
<path class="black" d="M32,9l-1.2,6c0,0-0.8,0-1.1-1c-0.3-1-1.2-5.5-1.2-5.5L32,9z"/>
<polygon class="black" points="28,12 27,11 26.4,8.1 27,8.2 "/>
<polygon class="black" points="26.4,10.5 25.6,10 25.2,7.8 25.8,8 "/>
<path class="primary" d="M23,1H12c0-0.6,0.4-1,1-1h10V1z"/>
<path class="black" d="M21,1h-9c0,0.6,0.4,1,1,1h8V1z"/>
<path class="black" d="M13,1v11h6l3-2V1H13z M20,10h-2c0-2-2-4-4-4V3c0-0.6,0.4-1,1-1h4c0.6,0,1,0.4,1,1V10z"/>
<path class="window" d="M20,10h-2c0-2-2-4-4-4V3c0-0.6,0.4-1,1-1h4c0.6,0,1,0.4,1,1V10z"/>
<rect x="20.5" y="3.5" class="grey" width="1px" height="5px"/>
<path class="primary" d="M17,11v1h-4V7C15.2,7,17,8.8,17,11L17,11z"/>
<path class="highlight" d="M17,11L17,11c0-2.2-1.8-4-4-4v1C16,8,17,11,17,11z"/>
<path class="black" d="M14,13h4c0,0-1,1-1,3.9c0,1.1,0,2.1,0,2.1h-3V13z"/>
<path class="black" d="M25,0c0,0-2,0-2,2v4h1V2L25,0z"/>
<path class="black" d="M24,6h-2v3l0,0l0,0c0,0.6,0.4,1,1,1s1-0.4,1-1l0,0l0,0V6z"/>
<path class="primary" d="M24.5,12c0.778,0,1.464,0.363,1.923,0.92l4.137,5.519C30.832,18.71,31,19.085,31,19.5
	c0,0.828-0.672,1.5-1.5,1.5h-10c-0.828,0-1.5-0.672-1.5-1.5c0-0.415,0.168-0.79,0.44-1.061l4.137-5.519
	C23.036,12.363,23.722,12,24.5,12"/>
<path class="shadow" d="M24.5,12c0.778,0,1.464,0.363,1.923,0.92l4.137,5.519C30.832,18.71,31,19.085,31,19.5
	c0,0.828-0.672,1.5-1.5,1.5h-10c-0.828,0-1.5-0.672-1.5-1.5c0-0.415,0.168-0.79,0.44-1.061l4.137-5.519
	C23.036,12.363,23.722,12,24.5,12"/>
<circle class="secondary" cx="24.5" cy="14.5" r="2.5"/>
<circle class="secondary" cx="29.5" cy="19.5" r="1.5"/>
<circle class="secondary" cx="19.5" cy="19.5" r="1.5"/>
<circle class="black" cx="23" cy="20" r="1"/>
<circle class="black" cx="26" cy="20" r="1"/>
<circle class="shadow" cx="24.5" cy="14.5" r="1"/>
<path class="primary" d="M7.5,12c0.778,0,1.464,0.363,1.923,0.92l4.137,5.519C13.832,18.71,14,19.085,14,19.5c0,0.828-0.672,1.5-1.5,1.5
	h-10C1.672,21,1,20.328,1,19.5c0-0.415,0.168-0.79,0.44-1.061l4.137-5.519C6.036,12.363,6.722,12,7.5,12"/>
<path class="shadow" d="M7.5,12c0.778,0,1.464,0.363,1.923,0.92l4.137,5.519C13.832,18.71,14,19.085,14,19.5c0,0.828-0.672,1.5-1.5,1.5
	h-10C1.672,21,1,20.328,1,19.5c0-0.415,0.168-0.79,0.44-1.061l4.137-5.519C6.036,12.363,6.722,12,7.5,12"/>
<circle class="secondary" cx="7.5" cy="14.5" r="2.5"/>
<circle class="secondary" cx="12.5" cy="19.5" r="1.5"/>
<circle class="secondary" cx="2.5" cy="19.5" r="1.5"/>
<circle class="black" cx="6" cy="20" r="1"/>
<circle class="black" cx="9" cy="20" r="1"/>
<circle class="shadow" cx="7.5" cy="14.5" r="1"/>
<path class="primary" d="M11,16H4v0c0,1.105,0.895,2,2,2h3C10.105,18,11,17.105,11,16L11,16z"/>
<path class="primary" d="M28,16h-7v0c0,1.105,0.895,2,2,2h3C27.105,18,28,17.105,28,16L28,16z"/>
<path class="primary" d="M6,9v1c3.3,0,3.8,2,6,2C12,12,10.4,9,6,9z"/>
</svg>
