<?xml version="1.0" encoding="utf-8"?>
<svg version="1.0" id="Layer_1" xmlns="http://www.w3.org/2000/svg" xmlns:xlink="http://www.w3.org/1999/xlink" x="0px" y="0px" viewBox="0 0 32 32" style="enable-background:new 0 0 32 32;" xml:space="preserve"  width="32px" height="32px" fill="#333">
<style type="text/css">
	.primary{fill:#333333;}
</style>
<path id="icon-def" class="primary" d="M4.219,18.542l14.472,2.098v2.096l-14.472-1.92V18.542z M18.691,12.617l-5.789,1.187v1.356
	l5.789-0.678V12.617z M26.203,26.302c-0.5,1.423-1.64,2.866-3.273,2.863c-1.816-0.004-3.559-1.125-4.149-2.863
	c0,0-2.687,6.676-6.369,0c0,0-2.551,6.734-6.815,0c0,0-1.565,4.171-3.308,2.799v2.328c0,0,1.731,0.174,2.959-2.328
	c0,0,4.164,4.53,7.26,0c0,0,3.34,4.175,6.611,0c0,0,3.838,3.993,6.932,0c0,0,0.639,2.029,3.253,2.029v-2.029
	C29.304,29.102,27.135,29.7,26.203,26.302z M6.933,14.171c2.187,2.006,5.949-0.02,5.019-3.009c-0.156-0.615-0.471-1.199-0.783-1.746
	C10.35,8.187,9.558,6.838,8.991,5.473c-0.42,1.045-0.956,2.072-1.562,3.022c-0.471,0.875-1.05,1.747-1.288,2.725
	C5.831,12.246,6.191,13.418,6.933,14.171z M3.471,17.385c0.225,0.205,0.526,0.343,0.834,0.333c0.301,0.01,0.616-0.134,0.819-0.353
	c0.404-0.391,0.378-0.982,0.159-1.457c-0.334-0.624-0.757-1.209-1.02-1.868c-0.306,0.781-1.136,1.642-1.144,2.506
	c0.009,0.16,0.038,0.321,0.107,0.46C3.286,17.149,3.373,17.28,3.471,17.385z M13,9.263c0.268,0.283,0.604,0.503,0.964,0.68
	c1.165,0.455,2.448,0.171,3.339-0.698c0.54-0.615,0.88-1.381,0.861-2.208c0.011-0.248-0.034-0.507-0.132-0.765
	c-0.079-0.267-0.187-0.544-0.308-0.841c-0.825-1.66-1.915-3.161-2.668-4.864c-0.822,1.93-2.346,3.713-2.855,5.752
	C11.878,7.342,12.245,8.525,13,9.263z M20.489,11.49c1.476-0.972,3.471,0.102,3.556,1.845c0.04,0.823-0.358,1.643-1.047,2.099
	c-0.334,0.221-0.731,0.355-1.131,0.374c-0.35,0.017-0.589-0.152-0.834,0.126c-0.557,0.633,0.293,0.822,0.757,0.815
	c0.744-0.011,1.476-0.301,2.039-0.787c1.206-1.043,1.519-2.947,0.612-4.287c-0.592-1.003-1.768-1.569-2.915-1.49
	c-0.408,0.028-1.13,0.091-1.286,0.536C20.207,10.819,20.33,11.598,20.489,11.49z M20.489,20.067
	c2.456-1.577,4.926,2.115,2.632,3.853c-0.495,0.375-0.959,0.405-1.552,0.464c-0.325,0.032-0.726-0.002-0.677,0.529
	c0.089,0.96,2.154,0.193,2.601-0.121c2.13-1.32,1.808-4.502-0.264-5.677c-0.723-0.359-1.969-0.607-2.695-0.116
	C20.167,19.247,20.361,20.154,20.489,20.067z M29.539,16.938c-0.444-1.406-1.799-2.351-3.274-2.252
	c-0.575,0.038-1.325,0.11-1.282,0.806c0.051,0.838,0.562,0.246,1.079,0.163c2.396-0.54,3.629,2.776,1.8,4.184
	c-0.418,0.322-0.886,0.45-1.406,0.466c-0.403,0.013-0.566-0.144-0.759,0.28c-0.447,0.983,1.355,0.642,1.8,0.501
	C29.153,20.465,30.112,18.646,29.539,16.938z"/>
</svg>
