<?xml version="1.0" encoding="utf-8"?>
<!-- Generator: Adobe Illustrator 17.1.0, SVG Export Plug-In . SVG Version: 6.00 Build 0)  -->
<!DOCTYPE svg PUBLIC "-//W3C//DTD SVG 1.1//EN" "http://www.w3.org/Graphics/SVG/1.1/DTD/svg11.dtd">
<svg version="1.1" xmlns="http://www.w3.org/2000/svg" xmlns:xlink="http://www.w3.org/1999/xlink" x="0px" y="0px" viewBox="0 0 32 32" enable-background="new 0 0 32 32" xml:space="preserve" width="32px" height="32px" fill="#333">
<g id="Layer_2">
	<g>
		<path fill="#B3B3B3" d="M28,19h4c0-2.1-0.4-4.1-1.1-5.9l-3.7,1.5C27.7,16,28,17.5,28,19z"/>
		<path fill="#B3B3B3" d="M8.1,10c0.9-0.8,2-1.5,3.1-2L9.6,4.3C8,5,6.5,6,5.2,7.2L8.1,10z"/>
		<path fill="#B3B3B3" d="M10.1,4.1l1.5,3.7C12.7,7.4,14,7.1,15,7.1v-4C13,3.2,11.6,3.5,10.1,4.1z"/>
		<path fill="#B3B3B3" d="M4.8,14.6l-3.7-1.5C0.4,14.9,0,16.9,0,19h4C4,17.5,4.3,16,4.8,14.6z"/>
		<path fill="#B3B3B3" d="M21.9,4.1c-1.5-0.6-2.9-1-4.9-1.1v4c1,0.1,2.3,0.4,3.4,0.8L21.9,4.1z"/>
		<path fill="#B3B3B3" d="M20.8,8c1.1,0.5,2.2,1.2,3.1,2l2.8-2.8C25.5,6,24,5,22.4,4.3L20.8,8z"/>
		<path fill="#B3B3B3" d="M5,14.2C5.5,13,6.2,12,7,11.1L4.2,8.2C3,9.5,2,11,1.3,12.6L5,14.2z"/>
		<path fill="#B3B3B3" d="M27.8,8.2L25,11.1c0.8,0.9,1.5,2,2,3.1l3.7-1.5C30,11,29,9.5,27.8,8.2z"/>
	</g>
	<path fill="#E61E25" d="M13.8,17.8L6.6,19l7.2,1.1c0.4,0.8,1.2,1.4,2.2,1.4c1.4,0,2.5-1.1,2.5-2.5c0-1.4-1.1-2.5-2.5-2.5
		C15,16.5,14.2,17.1,13.8,17.8z"/>
	<g>
		<path fill="#B3B3B3" d="M0,20h4"/>
		<rect y="19" fill="#E61E25" width="4px" height="1px"/>
	</g>
	<g>
		<g>
			<path fill="#333333" d="M3.9,22.9H1.2v1.1h2.4v0.9H1.2v1.3H4V27H0.2v-5h3.7V22.9z"/>
		</g>
		<g>
			<path fill="#333333" d="M28.3,22h3.6v0.9h-2.5V24h2.2v0.9h-2.2V27h-1V22z"/>
		</g>
	</g>
</g>
</svg>
