<?xml version="1.0" encoding="utf-8"?>
<svg version="1.0" id="Layer_1" xmlns="http://www.w3.org/2000/svg" xmlns:xlink="http://www.w3.org/1999/xlink" x="0px" y="0px" viewBox="0 0 32 32" style="enable-background:new 0 0 32 32;" xml:space="preserve"  width="32px" height="32px" fill="#333">
<style type="text/css">
	.primary{fill:#333333;}
</style>
<path id="icon-fuel" class="primary" d="M27.073,12.693c-0.26-2.037,1.395-2.445,1.395-2.445c-2.3-8.833-9.013-8.702-9.013-8.702
	v2.493c2.674,0.068,4.61,5.171,4.802,6.055c0.195,0.881-0.16,2.656-0.16,2.656s2.977,8.396,1.802,10.658
	c-1.837,3.533-3.564,1.545-4.105,0c-0.68-1.95,0.142-4.075-0.109-7.476c-0.215-2.883-2.642-3.316-3.371-3.381
	c0.006-3.299,0.009-8.768-0.033-9.379c-0.066-0.884-0.864-0.806-0.864-0.806S5.279,2.196,4.666,2.611
	C3.925,3.122,4.054,3.87,4.054,3.87L3.99,28.708H2v2.054h18.482v-2.054h-2.054V14.594V14.2c1.813-0.239,2.063,1.823,2.063,1.823
	s-0.266,6.455-0.266,7.542c0,1.087,0.932,2.759,2.098,2.995c3.724,0.758,4.619-0.201,5.376-0.884c1.035-0.936,1.3-3.197,1.3-3.197
	L27.073,12.693z M16.375,10.226H6.107V4.066h10.268V10.226z"/>
</svg>