<?xml version="1.0" encoding="utf-8"?>
<!-- Generator: Adobe Illustrator 18.0.0, SVG Export Plug-In . SVG Version: 6.00 Build 0)  -->
<!DOCTYPE svg PUBLIC "-//W3C//DTD SVG 1.0//EN" "http://www.w3.org/TR/2001/REC-SVG-20010904/DTD/svg10.dtd">
<svg version="1.0" id="Layer_1" xmlns="http://www.w3.org/2000/svg" xmlns:xlink="http://www.w3.org/1999/xlink" x="0px" y="0px" viewBox="0 0 32 22" style="enable-background:new 0 0 32 22;" xml:space="preserve" width="32px" height="22px" fill="#333">
<symbol id="HardHat" viewBox="-14.003 -11.031 28.005 22.047">
	<g>
		<path style="fill:#EEAF1F;" d="M-4.987-10.531c-5.153,0-8.483,1.473-8.483,3.752l-0.03,1.42l0.055,0.109
			c0.034,0.069,0.809,1.603,2.477,2.544c-0.031,0.348-0.047,0.697-0.047,1.042c0,4.144,2.238,7.979,5.847,10.029
			c1.283,1.407,2.884,2.149,4.636,2.149l2.553-0.031c1.228,0,2.749-1.262,3.105-1.573c4.086-1.782,6.765-5.735,6.92-10.168
			c0.914-0.219,1.257-0.485,1.381-0.681l0.077-0.122v-1.713c0-2.32-4.237-4.114-9.899-4.215C2.378-9.519-1.008-10.531-4.987-10.531z
			"/>
		<path style="fill:#3C3126;" d="M-0.534,10.016l2.547-0.031c1.171,0,2.837-1.498,2.837-1.498l-0.002,0
			c3.941-1.684,6.703-5.593,6.703-10.15c1.26-0.239,1.451-0.541,1.451-0.541v-1.568c0-2.027-4.305-3.672-9.66-3.718l0-0.005
			C2.365-9.014-1.1-10.031-4.987-10.031c-4.659,0-7.983,1.275-7.983,3.252l-0.027,1.308c0,0,0.807,1.63,2.561,2.481
			c-0.052,0.435-0.079,0.878-0.079,1.328c0,4.143,2.286,7.747,5.662,9.634C-3.636,9.333-2.138,10.016-0.534,10.016 M-0.528,11.016
			h-0.006c-1.871,0-3.58-0.779-4.952-2.254c-3.724-2.149-6.031-6.128-6.031-10.425c0-0.257,0.008-0.516,0.025-0.773
			c-1.612-1.024-2.367-2.521-2.402-2.592l-0.109-0.22l0.005-0.245L-13.97-6.8c0-2.602,3.442-4.231,8.983-4.231
			c3.106,0,7.133,0.678,8.827,2.549c5.129,0.139,10.162,1.766,10.162,4.709v1.568v0.289l-0.154,0.244
			c-0.212,0.336-0.647,0.601-1.323,0.803c-0.292,4.449-3.02,8.384-7.13,10.207c-0.513,0.441-2.038,1.645-3.382,1.645l-2.535,0.031
			L-0.528,11.016L-0.528,11.016z"/>
	</g>
	<path style="fill:#705421;" d="M3.362-5.928C2.609-7.577-0.812-8.822-4.919-8.822c-4.659,0-8.079,1.373-8.079,3.35l0.027-1.308
		c0-1.977,3.516-3.35,8.175-3.35c3.887,0,7.161,1.116,8.138,2.634l0,0.005c5.355,0.046,9.66,1.691,9.66,3.718v1.568
		C13.002-4.261,8.823-5.928,3.362-5.928z"/>
	<path style="fill:#705421;" d="M10.574-1.978c0,4.955-2.531,8.266-4.994,8.266c-2.815,0-5.059-4.783-5.059-10.502
		C0.521-4.215,8.228-5.048,10.574-1.978z"/>
	<path style="fill:#AB495D;" d="M3.342-7.495"/>
	<path style="fill:#F5D079;" d="M-8.065-4.689c0,0,0.001,0.162,0,2.654c-0.002,6.837,3.348,12.164,7.514,12.164l2.866-0.182
		c-4.166,0-7.612-5.557-7.61-12.394c0.001-2.492,0-2.815,0-2.815s-1.055,0.063-1.64,0.183S-8.065-4.689-8.065-4.689z"/>
	<path style="fill:#705421;" d="M-5.296-5.262c0,0,0.001,0.323,0,2.815C-5.298,4.39-1.851,9.947,2.314,9.947
		c1.171,0,2.535-1.46,2.535-1.46S3.793,8.793,2.814,8.938C-1.063,8.924-3.967,3.989-3.967-2.375c0-1.385,0.031-2.156,0.031-2.156
		L-5.296-5.262z"/>
</symbol>
<use xlink:href="#HardHat" width="28.005px" height="22.047px" id="XMLID_1_" x="-14.003" y="-11.031" transform="matrix(1 0 0 -1 16.0025 11)" style="overflow:visible;"/>
</svg>
