<?xml version="1.0" encoding="utf-8"?>
<!-- Generator: Adobe Illustrator 18.0.0, SVG Export Plug-In . SVG Version: 6.00 Build 0)  -->
<!DOCTYPE svg PUBLIC "-//W3C//DTD SVG 1.0//EN" "http://www.w3.org/TR/2001/REC-SVG-20010904/DTD/svg10.dtd">
<svg version="1.0" id="Layer_1" xmlns="http://www.w3.org/2000/svg" xmlns:xlink="http://www.w3.org/1999/xlink" x="0px" y="0px" viewBox="0 0 32 22" style="enable-background:new 0 0 32 22;" xml:space="preserve" width="32px" height="22px" fill="#333">
<symbol id="Office" viewBox="-16.002 -11.004 32.004 22.008">
	<polygon style="fill:#873E35;" points="15.995,9.004 15.995,6.004 7.989,6.004 7.989,9.004 	"/>
	<polygon style="fill:#873E35;" points="-7.988,9.004 -7.988,6.004 -15.995,6.004 -15.995,9.004 	"/>
	<polygon style="fill:#BBA795;" points="8.002,-10.978 -7.998,-10.978 -7.998,8.004 8.002,8.004 	"/>
	<polygon style="fill:#BCE3F2;" points="-1.006,2.022 -1.006,6.022 -5.006,6.022 -5.006,2.022 	"/>
	<polygon style="fill:#FFFFFF;" points="2.986,-11.004 2.986,-1.004 -3.014,-1.004 -3.014,-11.004 	"/>
	<polygon style="fill:#BCE3F2;" points="4.997,2.022 4.997,6.022 0.997,6.022 0.997,2.022 	"/>
	<polygon style="fill:#A97D6E;" points="5.002,-10.988 3.002,-10.988 3.002,-9.988 5.002,-9.988 	"/>
	<polygon style="fill:#A97D6E;" points="3.036,-0.983 1.036,-0.983 1.036,0.017 3.036,0.017 	"/>
	<polygon style="fill:#392726;" points="4.997,1.022 0.997,1.022 0.997,2.022 4.997,2.022 	"/>
	<polygon style="fill:#392726;" points="-1.006,1.022 -5.006,1.022 -5.006,2.022 -1.006,2.022 	"/>
	<polygon style="fill:#BCBEC0;" points="1.999,-5.988 1.999,-1.988 -2.001,-1.988 -2.001,-5.988 	"/>
	<polygon style="fill:#A07A6B;" points="6.965,0.02 5.97,0.02 5.97,1.02 6.965,1.02 	"/>
	<polygon style="fill:#A07A6B;" points="4.014,-6.988 3.019,-6.988 3.019,-5.988 4.014,-5.988 	"/>
	<polygon style="fill:#A07A6B;" points="-4.003,-0.983 -4.998,-0.983 -4.998,0.017 -4.003,0.017 	"/>
	<polygon style="fill:#A97D6E;" points="6.965,7.038 5.97,7.038 5.97,8.038 6.965,8.038 	"/>
	<polygon style="fill:#A97D6E;" points="-1.004,6.022 -1.999,6.022 -1.999,7.022 -1.004,7.022 	"/>
	<polygon style="fill:#A07A6B;" points="-5.999,7.038 -6.994,7.038 -6.994,8.038 -5.999,8.038 	"/>
	<polygon style="fill:#A07A6B;" points="0.976,3.022 -0.019,3.022 -0.019,4.022 0.976,4.022 	"/>
	<polygon style="fill:#A07A6B;" points="-6.994,-4.996 -7.988,-4.996 -7.988,-3.996 -6.994,-3.996 	"/>
	<polygon style="fill:#AE9781;" points="-5.999,-4.996 -6.994,-4.996 -6.994,-3.996 -5.999,-3.996 	"/>
	<polygon style="fill:#AE9781;" points="-6.994,0.02 -7.988,0.02 -7.988,1.02 -6.994,1.02 	"/>
	<polygon style="fill:#A07A6B;" points="-5.999,3.022 -6.994,3.022 -6.994,4.022 -5.999,4.022 	"/>
	<polygon style="fill:#AE9781;" points="-3.008,-4.004 -4.003,-4.004 -4.003,-3.004 -3.008,-3.004 	"/>
	<polygon style="fill:#AE9781;" points="-5.003,6.022 -5.998,6.022 -5.998,7.022 -5.003,7.022 	"/>
	<polygon style="fill:#AE9781;" points="8.01,-3.988 7.015,-3.988 7.015,-2.988 8.01,-2.988 	"/>
	<polygon style="fill:#AE9781;" points="5.992,1.025 4.997,1.025 4.997,2.025 5.992,2.025 	"/>
	<polygon style="fill:#A97D6E;" points="-0.019,7.038 -1.014,7.038 -1.014,8.038 -0.019,8.038 	"/>
	<polygon style="fill:#AE9781;" points="0.976,6.022 -0.019,6.022 -0.019,7.022 0.976,7.022 	"/>
	<polygon style="fill:#AE9781;" points="0.997,1.025 0.002,1.025 0.002,2.025 0.997,2.025 	"/>
	<polygon style="fill:#A07A6B;" points="-5.999,-7.978 -6.994,-7.978 -6.994,-6.978 -5.999,-6.978 	"/>
	<polygon style="fill:#A07A6B;" points="-4.003,-10.978 -4.998,-10.978 -4.998,-9.978 -4.003,-9.978 	"/>
	<polygon style="fill:#AE9781;" points="-4.006,-8.978 -5.001,-8.978 -5.001,-7.978 -4.006,-7.978 	"/>
	<polygon style="fill:#BBA795;" points="15.999,-10.012 7.993,-10.012 7.993,5.996 15.999,5.996 	"/>
	<polygon style="fill:#BCE3F2;" points="13.986,0.014 13.986,4.014 9.986,4.014 9.986,0.014 	"/>
	<polygon style="fill:#392726;" points="13.986,-0.986 9.986,-0.986 9.986,0.014 13.986,0.014 	"/>
	<polygon style="fill:#392726;" points="16.002,5.996 8.006,5.996 8.006,6.996 16.002,6.996 	"/>
	<polygon style="fill:#873E35;" points="9.002,11.004 9.002,7.996 -8.998,7.996 -8.998,11.004 	"/>
	<polygon style="fill:#BBA795;" points="-15.998,5.996 -7.993,5.996 -7.993,-10.012 -15.998,-10.012 	"/>
	<polygon style="fill:#BCE3F2;" points="-9.985,0.014 -9.985,4.014 -13.985,4.014 -13.985,0.014 	"/>
	<polygon style="fill:#392726;" points="-13.985,-0.986 -9.985,-0.986 -9.985,0.014 -13.985,0.014 	"/>
	<polygon style="fill:#392726;" points="-16.001,5.996 -8.005,5.996 -8.005,6.996 -16.001,6.996 	"/>
	<polygon style="opacity:0.2;" points="-16.002,-10.012 -8.005,-10.012 -8.005,8.996 -16.002,8.996 	"/>
	<polygon style="opacity:0.2;" points="7.987,-10.012 15.984,-10.012 15.984,8.996 7.987,8.996 	"/>
	<polygon style="fill:#392726;" points="9.009,7.996 -8.981,7.996 -8.981,8.996 9.009,8.996 	"/>
</symbol>
<use xlink:href="#Office" width="32.004px" height="22.008px" x="-16.002" y="-11.004" transform="matrix(1 0 0 -1 15.9999 11)" style="overflow:visible;"/>
</svg>
