<?xml version="1.0" encoding="utf-8"?>
<!-- Generator: Adobe Illustrator 18.0.0, SVG Export Plug-In . SVG Version: 6.00 Build 0)  -->
<!DOCTYPE svg PUBLIC "-//W3C//DTD SVG 1.0//EN" "http://www.w3.org/TR/2001/REC-SVG-20010904/DTD/svg10.dtd">
<svg version="1.0" id="Layer_1" xmlns="http://www.w3.org/2000/svg" xmlns:xlink="http://www.w3.org/1999/xlink" x="0px" y="0px" viewBox="0 0 32 22" style="enable-background:new 0 0 32 22;" xml:space="preserve" width="32px" height="22px" fill="#333">
<symbol id="Home" viewBox="-16 -11 32 22">
	<polygon style="fill:#E6E7E8;" points="-3,-2.016 3,-2.016 3,4.022 -3,4.022 	"/>
	<polygon style="fill:#626567;" points="11.971,11 -11.992,11 -14.004,4 14.005,4 	"/>
	<polygon style="fill:#E6E7E8;" points="-3.198,-11 -14,-11 -14,-4 -3.198,-4 	"/>
	<polygon style="fill:#E6E7E8;" points="14.036,-11 3.234,-11 3.234,-4 14.036,-4 	"/>
	<polygon style="fill:#626567;" points="16,-4 -16,-4 -13.975,-2 13.975,-2 	"/>
	<polygon style="fill:#B2DEEF;" points="2,-0.014 -2,-0.014 -2,2.986 2,2.986 	"/>
	<polygon style="fill:#BCE3F2;" points="-5,-9 -12,-9 -12,-5 -5,-5 	"/>
	<polygon style="fill:#853839;" points="-11,-9 -12,-9 -12,-5 -11,-5 	"/>
	<g>
		<polygon style="fill:#BCE3F2;" points="12.005,-9 5.005,-9 5.005,-5 12.005,-5 		"/>
		<polygon style="fill:#853839;" points="6.005,-9 5.005,-9 5.005,-5 6.005,-5 		"/>
		<polygon style="fill:#853839;" points="12.005,-9 11.005,-9 11.005,-5 12.005,-5 		"/>
		<polygon points="11.005,-9 6.005,-9 6.005,-8.5 11.005,-8.5 		"/>
	</g>
	<polygon style="fill:#853839;" points="-5,-9 -6,-9 -6,-5 -5,-5 	"/>
	<polygon style="opacity:0.1;" points="-2.996,-6 -14,-6 -14,-4 -2.996,-4 	"/>
	<polygon style="opacity:0.1;" points="14.007,-6 3.003,-6 3.003,-4 14.007,-4 	"/>
	<polygon style="opacity:0.1;" points="3,2.986 -2.996,2.986 -2.996,3.986 3,3.986 	"/>
	<polygon style="fill:#BCBEC0;" points="16,-10 -16,-10 -16,-11 16,-11 	"/>
	<polygon style="fill:#808285;" points="5,-10.5 -5,-10.5 -5,-11 5,-11 	"/>
	<polygon points="-3.003,-4.505 -16,-4.505 -16,-4.005 -3.003,-4.005 	"/>
	<polygon points="16,-4.505 3.003,-4.505 3.003,-4.005 16,-4.005 	"/>
	<polygon points="2.97,4 -2.945,4 -2.945,4.5 2.97,4.5 	"/>
	<path style="fill:#FFFFFF;" d="M-3-3l3,1.5L3-3v-7h-6V-3z"/>
	<polygon style="fill:#853839;" points="-3.469,-3 -3,-3 -3,-10.002 -3.469,-10.002 	"/>
	<polygon style="fill:#853839;" points="3,-3 3.469,-3 3.469,-10.002 3,-10.002 	"/>
	<polygon style="opacity:0.1;" points="3.469,-3 0,-1.297 -3.469,-2.984 -3.469,-3.984 0,-2.25 3.469,-4.016 	"/>
	<path d="M2-5.961C1.978-4.901,1.091-4,0-4s-1.974-0.901-1.996-1.961L-2-10h4V-5.961z"/>
	<polygon style="fill:#853839;" points="1.5,-10 -1.5,-10 -1.5,-6 1.5,-6 	"/>
	<polygon points="4,-3 0,-1 -4,-3 -4,-3.5 0,-1.5 4,-3.5 	"/>
	<path style="fill:#BCE3F2;" d="M-1.5-6.005c0,0.828,0.672,1.5,1.5,1.5s1.5-0.672,1.5-1.5"/>
	<polygon points="-6,-9 -11,-9 -11,-8.5 -6,-8.5 	"/>
	<polygon points="2.036,0 -2,0 -2,0.5 2.036,0.5 	"/>
	<g>
		<path style="fill:#FFFFFF;" d="M2.328,4.156l6.177,5.922L14.7,4.18l-0.935-0.413v-5.784H3.234v5.784L2.328,4.156z"/>
		<path style="opacity:0.05;" d="M14.007,4.787L8.5,10.021L3,4.864v-1.5l5.505,5.293l5.502-5.4V4.787z"/>
		<polygon style="fill:#A7A9AC;" points="3,3.768 3.469,3.768 3.469,-2.015 3,-2.015 		"/>
		<polygon style="fill:#A7A9AC;" points="13.531,3.768 14,3.768 14,-2.015 13.531,-2.015 		"/>
		<polygon points="15.005,4.231 8.505,10.469 2.005,4.231 2.005,3.469 8.505,9.706 15.005,3.469 		"/>
		<polygon points="2.993,3.986 2.993,4.625 1.993,3.986 1.993,3.469 3.993,3.469 3.993,3.986 		"/>
		<polygon points="14.005,3.986 14.005,4.625 15.005,3.986 15.005,3.469 13.005,3.469 13.005,3.986 		"/>
		<g>
			<polygon style="fill:#BCE3F2;" points="12.005,-0.014 5.005,-0.014 5.005,3.986 12.005,3.986 			"/>
			<polygon style="fill:#853839;" points="6.005,-0.014 5.005,-0.014 5.005,3.986 6.005,3.986 			"/>
			<polygon style="fill:#853839;" points="12.005,-0.014 11.005,-0.014 11.005,3.986 12.005,3.986 			"/>
			<polygon points="11.005,-0.014 6.005,-0.014 6.005,0.486 11.005,0.486 			"/>
		</g>
	</g>
	<g>
		<path style="fill:#FFFFFF;" d="M-14.668,4.156l6.177,5.922l6.196-5.898l-0.935-0.413v-5.784h-10.531v5.784L-14.668,4.156z"/>
		<path style="opacity:0.05;" d="M-2.99,4.787l-5.507,5.234l-5.5-5.157v-1.5l5.505,5.293l5.502-5.4V4.787z"/>
		<polygon style="fill:#A7A9AC;" points="-13.997,3.768 -13.528,3.768 -13.528,-2.015 -13.997,-2.015 		"/>
		<polygon style="fill:#A7A9AC;" points="-3.465,3.768 -2.997,3.768 -2.997,-2.015 -3.465,-2.015 		"/>
		<polygon points="-1.992,4.231 -8.492,10.469 -14.992,4.231 -14.992,3.469 -8.492,9.706 -1.992,3.469 		"/>
		<polygon points="-14.004,3.986 -14.004,4.625 -15.004,3.986 -15.004,3.469 -13.004,3.469 -13.004,3.986 		"/>
		<polygon points="-2.992,3.986 -2.992,4.625 -1.992,3.986 -1.992,3.469 -3.992,3.469 -3.992,3.986 		"/>
		<g>
			<polygon style="fill:#BCE3F2;" points="-4.992,-0.014 -11.992,-0.014 -11.992,3.986 -4.992,3.986 			"/>
			<polygon style="fill:#853839;" points="-10.992,-0.014 -11.992,-0.014 -11.992,3.986 -10.992,3.986 			"/>
			<polygon style="fill:#853839;" points="-4.992,-0.014 -5.992,-0.014 -5.992,3.986 -4.992,3.986 			"/>
			<polygon points="-5.992,-0.014 -10.992,-0.014 -10.992,0.486 -5.992,0.486 			"/>
		</g>
	</g>
	<polygon points="-3.992,-2.983 -3.992,-3.483 -2.992,-3.483 -2.992,-2.983 	"/>
	<polygon points="3.003,-2.983 3.003,-3.483 4.003,-3.483 4.003,-2.983 	"/>
</symbol>
<use xlink:href="#Home" width="32px" height="22px" x="-16" y="-11" transform="matrix(1 0 0 -1 16 11)" style="overflow:visible;"/>
</svg>
