<?xml version="1.0" encoding="utf-8"?>
<!-- Generator: Adobe Illustrator 18.0.0, SVG Export Plug-In . SVG Version: 6.00 Build 0)  -->
<!DOCTYPE svg PUBLIC "-//W3C//DTD SVG 1.1//EN" "http://www.w3.org/Graphics/SVG/1.1/DTD/svg11.dtd">
<svg version="1.1" id="Layer_1" xmlns="http://www.w3.org/2000/svg" xmlns:xlink="http://www.w3.org/1999/xlink" x="0px" y="0px" viewBox="0 0 32 32" style="enable-background:new 0 0 32 32;" xml:space="preserve" width="32px" height="32px" fill="#333">
<g>
	<g>
		<path style="fill:#FFFFFF;" d="M10,13.3c0,0-0.4,0-0.7,0c-1.9,0-3.4,1.6-3.4,3.6c0,2,1.7,3.6,3.6,3.6H12v-9h-2V13.3z M10,18.5H9.5
			c-0.9,0-1.7-0.7-1.7-1.7c0-0.9,0.5-1.7,1.4-1.7c0.3,0,0.7,0,0.7,0V18.5z"/>
		<path style="fill:#FFFFFF;" d="M22.6,13.5H19v7h2v-5h1.6c0.7,0,0.4,0.4,0.4,0.5v4.5h2V16C25,14.9,24.4,13.5,22.6,13.5z"/>
		<path style="fill:#FFFFFF;" d="M16,11.5h-2v2h-1v2h1V18c0,1.5,1.6,2.5,3.2,2.5H18v-2h-0.8c-0.8,0-1.2-0.3-1.2-0.5v-2.5h2v-2h-2
			V11.5z"/>
	</g>
	<g>
		<path style="fill:#FFFFFF;" d="M1.4,9.5h4c0.7-1.1,1.6-2.1,2.6-3H3.1C2.5,7.4,1.9,8.4,1.4,9.5z"/>
		<path style="fill:#FFFFFF;" d="M3.5,16c0-0.5,0-1,0.1-1.5H0.1C0,15,0,15.5,0,16s0,1,0.1,1.5h3.5C3.5,17,3.5,16.5,3.5,16z"/>
		<path style="fill:#FFFFFF;" d="M9.2,5.5c2-1.3,4.3-2,6.8-2c6.9,0,12.5,5.6,12.5,12.5c0,3.8-1.7,7.2-4.4,9.5h4.8
			c2-2.7,3.1-5.9,3.1-9.5c0-8.8-7.2-16-16-16C11.2,0,6.9,2.1,3.9,5.5H9.2z"/>
		<path style="fill:#FFFFFF;" d="M4.8,21.5c-0.5-0.9-0.8-1.9-1-3H0.2c0.2,1,0.4,2,0.8,3H4.8z"/>
		<path style="fill:#FFFFFF;" d="M22.8,26.5c-2,1.3-4.3,2-6.8,2s-4.8-0.7-6.8-2H3.9C6.9,29.9,11.2,32,16,32s9.1-2.1,12.1-5.5H22.8z"/>
		<path style="fill:#FFFFFF;" d="M3.8,13.5c0.2-1.1,0.6-2.1,1-3H1c-0.4,1-0.6,2-0.8,3H3.8z"/>
		<path style="fill:#FFFFFF;" d="M7.9,25.5c-1-0.9-1.9-1.9-2.6-3h-4c0.5,1.1,1.1,2.1,1.8,3H7.9z"/>
	</g>
</g>
</svg>
