<?xml version="1.0" encoding="utf-8"?>
<!-- Generator: Adobe Illustrator 18.0.0, SVG Export Plug-In . SVG Version: 6.00 Build 0)  -->
<!DOCTYPE svg PUBLIC "-//W3C//DTD SVG 1.1//EN" "http://www.w3.org/Graphics/SVG/1.1/DTD/svg11.dtd">
<svg version="1.1" id="Layer_1" xmlns="http://www.w3.org/2000/svg" xmlns:xlink="http://www.w3.org/1999/xlink" x="0px" y="0px" viewBox="0 0 32 32" enable-background="new 0 0 32 32" xml:space="preserve" width="32px" height="32px" fill="#333">
<path d="M17.4,13v0.9h-1.1V13H17.4z M17.4,14.7v4.4h-1.1v-4.4H17.4z M18.5,14.7h1.1l0,0.7l0,0c0.2-0.5,0.7-0.8,1.4-0.8
	c1.1,0,1.6,0.5,1.6,1.5v3h-1.1v-2.7v-0.2l0-0.3c0-0.3-0.3-0.5-0.8-0.5c-0.7,0-1.1,0.3-1.1,1v2.6h-1.1V14.7z M24.6,13v3.5l1.5-1.7
	h1.2l-1.7,2.1l2,2.4h-1.3l-1.7-2v2h-1.1V13H24.6z M4.1,17.2V13H3v4.2c0,0.8-0.4,0.9-0.8,0.9H0v1.1h2.2C3.1,19.3,4.1,18.7,4.1,17.2z
	 M7.8,19.2H4.8V13l0.6,0c0,0,1.5,0,2.4,0c1.6,0,2.9,1.3,2.9,3C10.7,17.7,9.3,19.2,7.8,19.2z M6,18.1h1.8c1.1,0,1.8-1.1,1.8-2.1
	c0-1.1-0.8-1.9-1.8-1.9c-0.5,0-1.3,0-1.8,0V18.1z M15.6,18.1h-3.2V13h-1.1v6.2h4.3V18.1z M28.6,9.8v0.4h-1.1V13h-0.4v-2.8H26V9.8
	H28.6z M29,9.8h0.6l0.9,2.7l0.9-2.7H32V13h-0.4v-1.9c0-0.1,0-0.2,0-0.3s0-0.3,0-0.5L30.7,13h-0.4l-0.9-2.7v0.1c0,0.1,0,0.2,0,0.4
	c0,0.2,0,0.3,0,0.4V13H29V9.8z"/>
</svg>
