<?xml version="1.0" encoding="utf-8"?>
<!-- Generator: Adobe Illustrator 18.1.1, SVG Export Plug-In . SVG Version: 6.00 Build 0)  -->
<svg version="1.1" id="Layer_1" xmlns="http://www.w3.org/2000/svg" xmlns:xlink="http://www.w3.org/1999/xlink" x="0px" y="0px" viewBox="0 0 32 32" enable-background="new 0 0 32 32" xml:space="preserve" width="32px" height="32px" fill="#333">
<g>
    <g id="XMLID_18_">
        <path d="M17.4,23.5v0.9h-1.1v-0.9C16.3,23.5,17.4,23.5,17.4,23.5z M17.4,25.3v4.4h-1.1v-4.4C16.3,25.3,17.4,25.3,17.4,25.3z
             M18.5,25.3h1.1V26l0,0c0.2-0.5,0.7-0.8,1.4-0.8c1.1,0,1.6,0.5,1.6,1.5v3h-1.2V27v-0.2v-0.3c-0.1-0.3-0.3-0.4-0.8-0.4
            c-0.7,0-1.1,0.3-1.1,1v2.6h-1V25.3z M24.6,23.5V27l1.4-1.7h1.2l-1.6,2.1l2,2.4h-1.3l-1.7-2v2h-1.1v-6.2h1.1L24.6,23.5L24.6,23.5z
             M4.1,27.8v-4.2H3v4.2c0,0.8-0.4,0.9-0.8,0.9H0v1.1h2.2C3.1,29.8,4.1,29.3,4.1,27.8z M7.8,29.7H4.9v-6.2h0.6c0,0,1.5,0,2.4,0
            c1.6,0,2.9,1.3,2.9,3C10.7,28.3,9.3,29.7,7.8,29.7z M6,28.6h1.8c1.1,0,1.8-1.1,1.8-2.1c0-1.1-0.8-1.9-1.8-1.9c-0.5,0-1.3,0-1.8,0
            V28.6z M15.6,28.6h-3.2v-5.1h-1.1v6.2h4.3C15.6,29.7,15.6,28.6,15.6,28.6z M28.6,20.4v0.4h-1.1v2.8h-0.4v-2.8H26v-0.4
            C26,20.4,28.6,20.4,28.6,20.4z M29,20.4h0.6l0.9,2.7l0.9-2.7H32v3.2h-0.4v-1.9c0-0.1,0-0.2,0-0.3c0-0.1,0-0.3,0-0.5l-0.9,2.7h-0.4
            l-0.9-2.7V21c0,0.1,0,0.2,0,0.4s0,0.3,0,0.4v1.8H29L29,20.4L29,20.4z"/>
    </g>
    <g>
        <path d="M21.3,10.4l-0.6,0V6.9h0c0-2.6-2.1-4.7-4.8-4.7c-2.6,0-4.7,2.1-4.8,4.7h0v3.5l-0.5,0c-0.6,0-1,0.5-1,1V20h12.7v-8.5
            C22.4,10.8,21.9,10.4,21.3,10.4z M13.2,7c0-1.5,1.3-2.8,2.8-2.8s2.8,1.2,2.8,2.8c0,0.2,0,3.4,0,3.4h-5.6
            C13.2,10.4,13.2,7.1,13.2,7z"/>
    </g>
</g>
</svg>