<?xml version="1.0" encoding="utf-8"?>
<!-- Generator: Adobe Illustrator 19.2.1, SVG Export Plug-In . SVG Version: 6.00 Build 0)  -->
<!DOCTYPE svg PUBLIC "-//W3C//DTD SVG 1.1//EN" "http://www.w3.org/Graphics/SVG/1.1/DTD/svg11.dtd">
<svg version="1.1" id="Layer_1" xmlns="http://www.w3.org/2000/svg" xmlns:xlink="http://www.w3.org/1999/xlink" x="0px" y="0px" viewBox="0 0 32 32" style="enable-background:new 0 0 32 32;" xml:space="preserve" fill="#333" width="32px" height="32px">
<style type="text/css">
	.primary{fill:#333333;}
</style>
<path class="primary" d="M11,8c0-3.5,2.2-6,5-6s5,2.5,5,6C21,8,11,8,11,8z M23,18h4c0.6,0,1-0.4,1-1c0-0.6-0.5-1-1-1h-4v-3.8l4-3.4
	c0.4-0.4,0.5-1.1,0.1-1.5c-0.4-0.4-1.3-0.3-1.5-0.1L22.2,10H9.8L6.4,7.1C6.2,6.9,5.3,6.8,4.9,7.2C4.5,7.7,4.5,8.4,5,8.8l4,3.4V16H5
	c-0.6,0-1,0.4-1,1c0,0.6,0.4,1,1,1h4v4.1c0,0.5,0.1,1.1,0.2,1.6L5,27.2c-0.4,0.4-0.5,1.1-0.1,1.5c0.4,0.4,1.3,0.3,1.5,0.1l3.6-3
	c1.1,2.2,3.1,3.9,5,4.1V13h2v17c2-0.2,3.9-1.9,5-4.1l3.5,3c0.3,0.2,1.1,0.4,1.5-0.1c0.4-0.4,0.4-1.1-0.1-1.5l-4.2-3.5
	c0.1-0.5,0.2-1,0.2-1.5V18z"/>
</svg>
