<?xml version="1.0" encoding="utf-8"?>
<!-- Generator: Adobe Illustrator 17.1.0, SVG Export Plug-In . SVG Version: 6.00 Build 0)  -->
<!DOCTYPE svg PUBLIC "-//W3C//DTD SVG 1.1//EN" "http://www.w3.org/Graphics/SVG/1.1/DTD/svg11.dtd">
<svg version="1.1" id="Layer_1" xmlns="http://www.w3.org/2000/svg" xmlns:xlink="http://www.w3.org/1999/xlink" x="0px" y="0px" viewBox="0 0 32 32" style="enable-background:new 0 0 32 32;" xml:space="preserve" width="32px" height="32px" fill="#333">
<g>
	<path d="M16,0C7.163,0,0,7.163,0,16s7.163,16,16,16s16-7.163,16-16S24.837,0,16,0z M16,29C8.832,29,3,23.168,3,16
		C3,8.832,8.832,3,16,3s13,5.832,13,13C29,23.168,23.168,29,16,29z"/>
	<g>
		<path d="M24.559,9.813c0.095,0.329,0.149,0.669,0.162,1.02c0.013,0.351-0.022,0.695-0.104,1.033
			c-0.082,0.338-0.212,0.665-0.39,0.981c-0.178,0.316-0.401,0.609-0.669,0.877c-0.286,0.295-0.602,0.531-0.949,0.708
			c-0.346,0.178-0.704,0.303-1.072,0.377c-0.368,0.074-0.743,0.093-1.124,0.058c-0.381-0.035-0.754-0.125-1.118-0.273L14.917,19
			c0.147,0.355,0.236,0.721,0.266,1.098c0.03,0.377,0.008,0.754-0.065,1.131c-0.074,0.377-0.201,0.739-0.383,1.085
			c-0.182,0.347-0.416,0.663-0.702,0.949c-0.39,0.39-0.825,0.682-1.306,0.877c-0.481,0.195-0.973,0.292-1.475,0.292
			c-0.511,0-1.009-0.097-1.494-0.292c-0.485-0.195-0.923-0.487-1.312-0.877c-0.39-0.39-0.68-0.827-0.871-1.312
			c-0.191-0.485-0.286-0.981-0.286-1.488c0-0.507,0.095-1.001,0.286-1.481c0.19-0.481,0.481-0.916,0.871-1.306
			c0.39-0.39,0.827-0.682,1.312-0.877c0.485-0.195,0.983-0.292,1.494-0.292c0.251,0,0.498,0.022,0.741,0.065
			c0.242,0.043,0.481,0.108,0.715,0.195l4.405-4.353c-0.147-0.364-0.238-0.738-0.273-1.124c-0.035-0.385-0.015-0.762,0.058-1.131
			c0.074-0.368,0.199-0.725,0.377-1.072c0.178-0.346,0.414-0.658,0.708-0.936c0.26-0.268,0.548-0.492,0.864-0.669
			c0.316-0.177,0.643-0.307,0.981-0.39c0.338-0.082,0.68-0.121,1.027-0.117c0.346,0.004,0.684,0.054,1.014,0.149l-3.041,3.067
			l2.69,2.69L24.559,9.813z M13.228,22.457c0.286-0.26,0.496-0.563,0.63-0.91c0.134-0.346,0.201-0.71,0.201-1.092
			c0-0.372-0.067-0.73-0.201-1.072c-0.134-0.342-0.344-0.656-0.63-0.942c-0.26-0.26-0.561-0.461-0.903-0.604
			c-0.342-0.143-0.7-0.214-1.072-0.214c-0.381,0-0.745,0.071-1.092,0.214c-0.347,0.143-0.65,0.344-0.91,0.604
			c-0.277,0.286-0.49,0.6-0.637,0.942c-0.147,0.342-0.221,0.7-0.221,1.072c0,0.381,0.073,0.745,0.221,1.092
			c0.147,0.347,0.359,0.65,0.637,0.91c0.26,0.277,0.563,0.485,0.91,0.624c0.346,0.139,0.71,0.208,1.092,0.208
			c0.372,0,0.73-0.069,1.072-0.208C12.667,22.942,12.968,22.734,13.228,22.457z"/>
	</g>
</g>
</svg>
