<?xml version="1.0" encoding="utf-8"?>
<!-- Generator: Adobe Illustrator 17.1.0, SVG Export Plug-In . SVG Version: 6.00 Build 0)  -->
<!DOCTYPE svg PUBLIC "-//W3C//DTD SVG 1.1//EN" "http://www.w3.org/Graphics/SVG/1.1/DTD/svg11.dtd">
<svg version="1.1" id="Layer_1" xmlns="http://www.w3.org/2000/svg" xmlns:xlink="http://www.w3.org/1999/xlink" x="0px" y="0px" viewBox="0 0 32 32" style="enable-background:new 0 0 32 32;" xml:space="preserve" width="32px" height="32px" fill="#333">
<g>
	<path d="M24.76,25.337v-1.956c-0.428,0.076-0.868,0.118-1.317,0.118c-0.541,0-1.068-0.059-1.577-0.168v1.958
		c-0.939,0.409-1.664,1.217-1.96,2.211H9.864c-0.336-1.129-1.226-2.018-2.354-2.354V6.854C8.638,6.518,9.528,5.629,9.864,4.5h10.042
		c0.296,0.994,1.021,1.802,1.96,2.211v1.958C22.374,8.559,22.902,8.5,23.443,8.5c0.45,0,0.889,0.042,1.317,0.118V6.663
		c1.182-0.562,2-1.767,2-3.163c0-1.933-1.567-3.5-3.5-3.5c-1.189,0-2.239,0.594-2.872,1.5H9.381C8.749,0.594,7.699,0,6.51,0
		c-1.933,0-3.5,1.567-3.5,3.5c0,1.189,0.594,2.239,1.5,2.872v19.257c-0.906,0.633-1.5,1.682-1.5,2.872c0,1.933,1.567,3.5,3.5,3.5
		c1.189,0,2.239-0.594,2.872-1.5h11.007c0.633,0.906,1.682,1.5,2.872,1.5c1.933,0,3.5-1.567,3.5-3.5
		C26.76,27.104,25.942,25.899,24.76,25.337z"/>
	<path d="M23.426,10.436c0.513,0,1.009,0.065,1.486,0.195c0.477,0.13,0.922,0.317,1.333,0.563c0.411,0.246,0.785,0.537,1.122,0.874
		c0.337,0.337,0.626,0.711,0.869,1.122c0.243,0.411,0.429,0.854,0.559,1.329c0.13,0.475,0.195,0.969,0.195,1.482
		s-0.065,1.006-0.195,1.478c-0.13,0.472-0.316,0.914-0.559,1.325c-0.243,0.411-0.533,0.787-0.869,1.126
		c-0.337,0.339-0.711,0.631-1.122,0.874c-0.411,0.243-0.856,0.431-1.333,0.563c-0.478,0.132-0.973,0.199-1.486,0.199
		c-0.475,0-0.934-0.058-1.379-0.174c-0.444-0.116-0.864-0.28-1.259-0.493c-0.395-0.212-0.756-0.468-1.085-0.766
		c-0.328-0.298-0.618-0.631-0.869-0.998c-0.251-0.367-0.458-0.764-0.621-1.192c-0.163-0.428-0.269-0.874-0.319-1.337h6.914
		l-2.443,2.426l0.836,0.861l3.9-3.875l-3.9-3.9l-0.836,0.845l2.459,2.451h-6.93c0.077-0.701,0.273-1.354,0.588-1.958
		c0.315-0.604,0.718-1.131,1.209-1.581c0.491-0.45,1.057-0.802,1.697-1.056C22.029,10.563,22.708,10.436,23.426,10.436z"/>
</g>
</svg>
