<?xml version="1.0" encoding="utf-8"?>
<!-- Generator: Adobe Illustrator 17.1.0, SVG Export Plug-In . SVG Version: 6.00 Build 0)  -->
<!DOCTYPE svg PUBLIC "-//W3C//DTD SVG 1.1//EN" "http://www.w3.org/Graphics/SVG/1.1/DTD/svg11.dtd">
<svg version="1.1" id="Layer_1" xmlns="http://www.w3.org/2000/svg" xmlns:xlink="http://www.w3.org/1999/xlink" x="0px" y="0px" viewBox="0 0 32 32" style="enable-background:new 0 0 32 32;" xml:space="preserve" width="32px" height="32px" fill="#333">
<g>
	<path d="M24.217,25.615c-0.037,0.606-0.172,1.17-0.405,1.692c-0.233,0.521-0.541,0.974-0.923,1.356
		c-0.383,0.382-0.827,0.683-1.336,0.901c-0.508,0.22-1.051,0.329-1.629,0.329c-0.606,0-1.17-0.119-1.692-0.356
		c-0.522-0.238-0.979-0.56-1.37-0.965c-0.392-0.406-0.699-0.884-0.923-1.434s-0.336-1.133-0.336-1.748h-4.405
		c-0.149,0.652-0.394,1.254-0.734,1.804c-0.34,0.551-0.75,1.023-1.23,1.42s-1.023,0.708-1.629,0.937
		c-0.606,0.229-1.245,0.343-1.916,0.343c-0.774,0-1.506-0.156-2.196-0.469c-0.689-0.312-1.291-0.736-1.804-1.272
		s-0.918-1.165-1.217-1.888c-0.298-0.723-0.447-1.494-0.447-2.314c0-0.802,0.14-1.555,0.42-2.259
		c0.279-0.704,0.666-1.316,1.16-1.839l-0.993-0.699c0.233-0.55,0.574-1.044,1.021-1.482c0.195-0.187,0.419-0.368,0.671-0.546
		c0.252-0.177,0.546-0.336,0.881-0.475c0.336-0.141,0.711-0.254,1.126-0.344c0.415-0.088,0.874-0.137,1.378-0.146l0.56-3.566
		L5.59,11.098H16.54l-1.664,1.58v3.356c1.091-0.075,2.219-0.046,3.385,0.084c0.494,0.065,1.021,0.151,1.58,0.259
		s1.131,0.252,1.713,0.434c0.583,0.182,1.173,0.408,1.77,0.679s1.184,0.592,1.762,0.965h-0.951l-0.587,2.979h1.79v4.182H24.217z
		 M5.631,27.852c0.504,0,0.977-0.098,1.42-0.294c0.442-0.195,0.83-0.466,1.161-0.811c0.33-0.345,0.589-0.746,0.775-1.203
		c0.187-0.456,0.28-0.946,0.28-1.468c0-0.522-0.094-1.017-0.28-1.482c-0.187-0.467-0.445-0.872-0.775-1.217
		c-0.331-0.345-0.716-0.617-1.154-0.818c-0.438-0.2-0.914-0.301-1.427-0.301c-0.494,0-0.962,0.101-1.405,0.301
		c-0.442,0.201-0.827,0.474-1.153,0.818s-0.585,0.75-0.776,1.217c-0.191,0.466-0.286,0.96-0.286,1.482
		c0,0.521,0.095,1.012,0.286,1.468c0.191,0.457,0.45,0.858,0.776,1.203s0.711,0.615,1.153,0.811
		C4.669,27.754,5.137,27.852,5.631,27.852z M9.268,12.65H7.254l-0.392,3.58c0.214,0.056,0.417,0.108,0.608,0.155
		c0.19,0.047,0.377,0.102,0.559,0.168c0.183,0.064,0.371,0.142,0.566,0.23c0.196,0.088,0.42,0.198,0.672,0.328V12.65z M13.477,12.65
		h-3.384v5.077c0.326,0.252,0.612,0.518,0.859,0.797c0.247,0.28,0.462,0.571,0.644,0.875c0.182,0.303,0.333,0.604,0.455,0.901
		c0.13,0.317,0.237,0.615,0.321,0.896h1.104V12.65z M20.008,28.23c0.354,0,0.692-0.072,1.014-0.217
		c0.322-0.145,0.599-0.34,0.832-0.588c0.233-0.246,0.42-0.54,0.56-0.881c0.14-0.34,0.21-0.701,0.21-1.084
		c0-0.372-0.07-0.727-0.21-1.062s-0.326-0.629-0.56-0.881s-0.51-0.452-0.832-0.602c-0.321-0.149-0.659-0.224-1.014-0.224
		c-0.363,0-0.706,0.074-1.028,0.224c-0.321,0.149-0.601,0.35-0.839,0.602c-0.237,0.252-0.427,0.545-0.566,0.881
		s-0.21,0.69-0.21,1.062c0,0.383,0.07,0.744,0.21,1.084c0.14,0.341,0.329,0.635,0.566,0.881c0.238,0.248,0.518,0.443,0.839,0.588
		C19.302,28.157,19.645,28.23,20.008,28.23z"/>
</g>
<path style="fill:#FFFFFF;" d="M24.479,18.468c-1.213-0.057-2.278-0.299-3.267-0.722c-0.973-0.415-1.861-0.985-2.641-1.693
	l-0.414-0.409l-2.462-2.131l0.348-1.381c-0.063-0.193-0.014,0.005-0.063-0.193l0.966-0.533l-1.368-2.484v-2h0.297
	c0.05-0.198,0.106-0.393,0.169-0.586h-1.375l3.575-3.606c0.065-0.065,0.134-0.125,0.205-0.182l0.104-0.104
	c0.774-0.723,1.668-1.303,2.657-1.724c0.993-0.421,2.06-0.663,3.171-0.717l0.832,0c1.12,0.063,2.186,0.305,3.167,0.72
	c0.95,0.402,1.815,0.954,2.572,1.642l0.153,0.049l0.503,0.605c0.703,0.769,1.269,1.653,1.68,2.63
	C33.706,6.643,33.945,7.711,34,8.825l-0.001,0.834c-0.062,1.103-0.303,2.163-0.714,3.152c-0.35,0.842-0.815,1.615-1.387,2.305v0.077
	l-0.619,0.612l-0.226,0.215c-0.802,0.737-1.689,1.31-2.667,1.727c-0.986,0.422-2.061,0.664-3.19,0.719l-0.048,0.002H24.479z
	 M25.996,12.164l1.698-1.708V9.258l-0.22,0.7c-0.109,0.401-0.302,0.764-0.572,1.079c-0.288,0.341-0.664,0.608-1.107,0.781
	c0,0-0.746,0.248-1.044,0.346H25.996z M22.524,7.388c0.16-0.095,0.324-0.195,0.494-0.298l0.189-0.386L22.524,7.388z"/>
<path d="M32,9.546c-0.05,0.883-0.238,1.715-0.563,2.497c-0.326,0.782-0.771,1.478-1.336,2.088l-0.204,0.205v0.022l-0.225,0.215
	c-0.608,0.56-1.299,1.005-2.072,1.335c-0.773,0.33-1.606,0.517-2.501,0.56h-0.623c-0.88-0.043-1.707-0.23-2.479-0.56
	c-0.773-0.33-1.467-0.775-2.082-1.335L19.7,14.358v-0.022l-0.236-0.205h0.021c-0.573-0.61-1.022-1.306-1.347-2.088
	c-0.326-0.782-0.506-1.615-0.542-2.497h-0.021V9.255V9.234V9.212V8.922h0.021c0.036-0.883,0.216-1.715,0.542-2.497
	c0.325-0.782,0.774-1.478,1.347-2.088h-0.021l0.193-0.194c0.029-0.029,0.057-0.047,0.086-0.054l0.172-0.183
	c0.608-0.567,1.3-1.015,2.077-1.346c0.776-0.33,1.605-0.517,2.485-0.56h0.268h0.043h0.064h0.247c0.894,0.05,1.728,0.239,2.501,0.565
	c0.773,0.327,1.463,0.773,2.072,1.34l0.193,0.183c0.028,0.029,0.054,0.047,0.075,0.054L30.1,4.336
	c0.565,0.61,1.012,1.306,1.342,2.088C31.771,7.207,31.957,8.039,32,8.922v0.291v0.022v0.022V9.546z M30.1,11.488
	c0.136-0.309,0.242-0.624,0.317-0.944c0.075-0.32,0.12-0.653,0.134-0.998h-0.859V8.922h0.859c-0.021-0.33-0.068-0.658-0.14-0.985
	C30.34,7.61,30.236,7.293,30.1,6.984c-0.251-0.61-0.587-1.148-1.009-1.615l-0.622,0.603L28.04,5.542l0.622-0.614
	c-0.251-0.215-0.51-0.409-0.778-0.581c-0.268-0.172-0.553-0.319-0.853-0.441c-0.308-0.136-0.621-0.242-0.939-0.318
	c-0.318-0.075-0.649-0.12-0.993-0.135v0.861h-0.623V3.453c-0.33,0.022-0.658,0.068-0.984,0.14c-0.326,0.072-0.644,0.176-0.952,0.312
	c-0.595,0.251-1.133,0.592-1.613,1.023l0.613,0.614l-0.43,0.431l-0.613-0.603c-0.215,0.237-0.409,0.49-0.581,0.759
	c-0.172,0.269-0.326,0.554-0.462,0.856c-0.122,0.309-0.221,0.626-0.296,0.953c-0.075,0.327-0.12,0.655-0.134,0.985h0.848v0.624
	h-0.848c0.014,0.345,0.059,0.678,0.134,0.998c0.075,0.32,0.174,0.635,0.296,0.944c0.136,0.302,0.29,0.588,0.462,0.858
	c0.172,0.27,0.366,0.523,0.581,0.76l0.613-0.593l0.43,0.431l-0.613,0.593c0.237,0.216,0.491,0.412,0.764,0.588
	c0.272,0.176,0.556,0.329,0.85,0.459c0.308,0.137,0.626,0.241,0.952,0.313c0.326,0.072,0.654,0.119,0.984,0.14v-0.872h0.623v0.872
	c0.672-0.043,1.316-0.194,1.932-0.453c0.587-0.252,1.123-0.6,1.61-1.046l-0.601-0.593l0.429-0.431l0.622,0.593
	C29.521,12.631,29.857,12.092,30.1,11.488z M26.87,4.379c0.114,0.058,0.166,0.138,0.156,0.242c-0.011,0.104-0.041,0.228-0.091,0.371
	l-1.385,4.414c-0.029,0.122-0.084,0.231-0.166,0.328c-0.082,0.097-0.188,0.171-0.317,0.221c-0.594,0.194-1.138,0.373-1.631,0.538
	c-0.215,0.065-0.426,0.133-0.633,0.205c-0.208,0.072-0.401,0.136-0.58,0.194c-0.179,0.058-0.335,0.108-0.467,0.151
	c-0.132,0.043-0.22,0.075-0.263,0.097c-0.122,0.043-0.22,0.041-0.295-0.005c-0.075-0.047-0.127-0.108-0.156-0.183
	c-0.029-0.075-0.032-0.158-0.011-0.248c0.021-0.09,0.071-0.152,0.15-0.188c0.043-0.022,0.12-0.068,0.231-0.14
	c0.111-0.072,0.25-0.156,0.419-0.253c0.168-0.097,0.349-0.205,0.542-0.323c0.193-0.118,0.39-0.235,0.59-0.35
	c0.472-0.273,0.991-0.585,1.556-0.937h0.011c0.007,0,0.018-0.011,0.032-0.032l1.835-3.746c0.057-0.129,0.118-0.235,0.182-0.318
	C26.644,4.334,26.741,4.322,26.87,4.379z"/>
</svg>
