<?xml version="1.0" encoding="utf-8"?>
<!-- Generator: Adobe Illustrator 17.1.0, SVG Export Plug-In . SVG Version: 6.00 Build 0)  -->
<!DOCTYPE svg PUBLIC "-//W3C//DTD SVG 1.1//EN" "http://www.w3.org/Graphics/SVG/1.1/DTD/svg11.dtd">
<svg version="1.1" id="Layer_1" xmlns="http://www.w3.org/2000/svg" xmlns:xlink="http://www.w3.org/1999/xlink" x="0px" y="0px" viewBox="0 0 32 32" style="enable-background:new 0 0 32 32;" xml:space="preserve" width="32px" height="32px" fill="#333">
<g>
	<path d="M30.586,22.47c-0.047,0.767-0.218,1.479-0.514,2.14c-0.293,0.66-0.682,1.232-1.166,1.715
		c-0.483,0.483-1.047,0.863-1.688,1.14c-0.644,0.278-1.329,0.416-2.061,0.416c-0.765,0-1.478-0.149-2.138-0.45
		s-1.238-0.707-1.732-1.221c-0.497-0.512-0.884-1.116-1.169-1.812c-0.282-0.695-0.423-1.431-0.423-2.21h-5.569
		c-0.191,0.826-0.5,1.586-0.928,2.282c-0.431,0.695-0.95,1.293-1.558,1.794c-0.605,0.501-1.293,0.895-2.058,1.184
		c-0.768,0.29-1.575,0.434-2.423,0.434c-0.978,0-1.903-0.199-2.776-0.593c-0.873-0.395-1.633-0.931-2.279-1.609
		c-0.649-0.677-1.163-1.472-1.539-2.387C0.188,22.379,0,21.404,0,20.367c0-1.014,0.177-1.965,0.53-2.855
		c0.354-0.89,0.843-1.664,1.467-2.325l-1.254-0.884c0.293-0.696,0.724-1.32,1.29-1.874c0.249-0.236,0.53-0.465,0.848-0.689
		s0.691-0.425,1.113-0.602c0.425-0.177,0.901-0.32,1.425-0.432c0.522-0.112,1.105-0.174,1.74-0.186L7.867,6.01L7.036,4.119h13.843
		l-2.102,1.997v4.243c1.378-0.094,2.804-0.058,4.279,0.106c0.624,0.083,1.29,0.192,1.997,0.327c0.707,0.135,1.428,0.318,2.166,0.548
		c0.735,0.229,1.481,0.515,2.235,0.856c0.754,0.343,1.497,0.749,2.229,1.221h-1.202l-0.743,3.765H32v5.286H30.586z M7.088,25.299
		c0.638,0,1.235-0.123,1.796-0.372c0.561-0.247,1.05-0.588,1.467-1.025c0.42-0.436,0.746-0.943,0.981-1.521
		c0.238-0.577,0.354-1.196,0.354-1.856s-0.116-1.285-0.354-1.874c-0.235-0.588-0.561-1.101-0.981-1.537
		c-0.417-0.436-0.903-0.78-1.459-1.035C8.34,15.827,7.738,15.7,7.088,15.7c-0.624,0-1.215,0.127-1.776,0.38
		c-0.561,0.254-1.047,0.598-1.459,1.035s-0.74,0.949-0.981,1.537c-0.243,0.59-0.362,1.214-0.362,1.874s0.119,1.279,0.362,1.856
		c0.24,0.577,0.569,1.084,0.981,1.521s0.898,0.778,1.459,1.025C5.873,25.176,6.464,25.299,7.088,25.299z M11.685,6.082H9.141
		l-0.494,4.525c0.271,0.072,0.525,0.137,0.768,0.195c0.24,0.059,0.478,0.13,0.707,0.213c0.229,0.083,0.47,0.18,0.715,0.291
		c0.249,0.112,0.53,0.25,0.848,0.416V6.082z M17.008,6.082h-4.279v6.417c0.412,0.318,0.773,0.655,1.088,1.008
		c0.312,0.354,0.583,0.721,0.812,1.105c0.229,0.383,0.42,0.762,0.575,1.14c0.166,0.401,0.301,0.778,0.406,1.131h1.398V6.082z
		 M25.265,25.777c0.448,0,0.873-0.091,1.282-0.275c0.406-0.182,0.757-0.43,1.05-0.742c0.296-0.312,0.53-0.684,0.707-1.115
		c0.177-0.43,0.265-0.887,0.265-1.37c0-0.471-0.088-0.919-0.265-1.343c-0.177-0.425-0.412-0.796-0.707-1.115
		c-0.293-0.318-0.644-0.572-1.05-0.76c-0.409-0.189-0.834-0.283-1.282-0.283c-0.461,0-0.895,0.094-1.301,0.283
		c-0.406,0.188-0.76,0.442-1.061,0.76c-0.301,0.319-0.539,0.689-0.715,1.115c-0.177,0.424-0.265,0.872-0.265,1.343
		c0,0.483,0.088,0.941,0.265,1.37c0.177,0.431,0.414,0.802,0.715,1.115s0.655,0.559,1.061,0.742
		C24.37,25.686,24.804,25.777,25.265,25.777z"/>
</g>
</svg>
