<?xml version="1.0" encoding="utf-8"?>
<!-- Generator: Adobe Illustrator 16.2.1, SVG Export Plug-In . SVG Version: 6.00 Build 0)  -->
<!DOCTYPE svg PUBLIC "-//W3C//DTD SVG 1.1//EN" "http://www.w3.org/Graphics/SVG/1.1/DTD/svg11.dtd">
<svg version="1.1" id="Layer_1" xmlns="http://www.w3.org/2000/svg" xmlns:xlink="http://www.w3.org/1999/xlink" x="0px" y="0px" viewBox="0 0 32 32" enable-background="new 0 0 32 32" xml:space="preserve" width="32px" height="32px" fill="#333">
<g>
	<path fill="#e81309" d="M10.704,32c-0.732,0-1.758-0.424-2.275-0.943l-7.486-7.485C0.425,23.053,0,22.029,0,21.295V10.705
		c0-0.733,0.425-1.758,0.942-2.276l7.486-7.485C8.946,0.424,9.972,0,10.704,0h10.592c0.732,0,1.758,0.424,2.275,0.943l7.486,7.485
		C31.575,8.947,32,9.971,32,10.705v10.591c0,0.733-0.425,1.758-0.942,2.276l-7.486,7.485C23.054,31.576,22.028,32,21.296,32H10.704z
		"/>
	<g>
		<g>
			<path fill="#FFFFFF" d="M13.422,23.489c0-0.704,0.252-1.31,0.756-1.819c0.502-0.509,1.111-0.764,1.822-0.764
				c0.714,0,1.32,0.254,1.822,0.764c0.503,0.509,0.756,1.115,0.756,1.819c0,0.713-0.256,1.323-0.764,1.827
				c-0.508,0.505-1.111,0.756-1.814,0.756s-1.307-0.251-1.814-0.756C13.678,24.812,13.422,24.203,13.422,23.489z M15.232,19.18
				l-1.34-9.689c-0.086-0.656-0.129-1.136-0.129-1.441c0-1.455,0.744-2.184,2.236-2.184c1.518,0,2.278,0.652,2.278,1.956
				c0,0.408-0.044,0.932-0.13,1.569l-1.336,9.789H15.232z"/>
		</g>
	</g>
</g>
</svg>
