<?xml version="1.0" encoding="utf-8"?>
<!-- Generator: Adobe Illustrator 18.0.0, SVG Export Plug-In . SVG Version: 6.00 Build 0)  -->
<!DOCTYPE svg PUBLIC "-//W3C//DTD SVG 1.1//EN" "http://www.w3.org/Graphics/SVG/1.1/DTD/svg11.dtd">
<svg version="1.1" id="Layer_1" xmlns="http://www.w3.org/2000/svg" xmlns:xlink="http://www.w3.org/1999/xlink" x="0px" y="0px" viewBox="0 0 32 32" style="enable-background:new 0 0 32 32;" xml:space="preserve" width="32px" height="32px" fill="#333">
<g>
	<g>
		<g>
			<circle fill="#e81309" cx="16" cy="16" r="14"/>
		</g>
	</g>
	<g>
		<g>
			<path style="fill:#FFFFFF;" d="M14.1,22.7c0-0.6,0.2-1.1,0.7-1.6c0.4-0.4,1-0.7,1.6-0.7c0.6,0,1.2,0.2,1.6,0.7
				c0.4,0.4,0.7,1,0.7,1.6c0,0.6-0.2,1.2-0.7,1.6c-0.4,0.4-1,0.7-1.6,0.7c-0.6,0-1.1-0.2-1.6-0.7C14.3,23.9,14.1,23.3,14.1,22.7z
				 M15.7,18.9l-1.2-8.5c-0.1-0.6-0.1-1-0.1-1.3c0-1.3,0.7-1.9,2-1.9c1.3,0,2,0.6,2,1.7c0,0.4,0,0.8-0.1,1.4l-1.2,8.6H15.7z"/>
		</g>
	</g>
</g>
</svg>
