<?xml version="1.0" encoding="utf-8"?>
<!-- Generator: Adobe Illustrator 18.0.0, SVG Export Plug-In . SVG Version: 6.00 Build 0)  -->
<!DOCTYPE svg PUBLIC "-//W3C//DTD SVG 1.1//EN" "http://www.w3.org/Graphics/SVG/1.1/DTD/svg11.dtd">
<svg version="1.1" id="Layer_1" xmlns="http://www.w3.org/2000/svg" xmlns:xlink="http://www.w3.org/1999/xlink" x="0px" y="0px" viewBox="0 0 32 32" enable-background="new 0 0 32 32" xml:space="preserve" width="32px" height="32px" fill="#333">
<g>
	<g>
		<circle cx="23.7" cy="9.1" r="6.7"/>
	</g>
	<path d="M23.7,17.8c-0.9,0-1.7-0.1-2.5-0.4c-0.1,0.3-0.1,0.6-0.3,0.9c-0.3,0.7-0.7,1.2-1.1,1.7s-1.1,0.9-1.7,1.2
		c-0.7,0.3-1.4,0.4-2.1,0.4c-0.8,0-1.5-0.1-2.1-0.4s-1.2-0.7-1.7-1.2s-0.9-1.1-1.2-1.7s-0.4-1.4-0.4-2.1c0-0.7,0.1-1.5,0.4-2.1
		c0.3-0.7,0.7-1.2,1.2-1.7s1.1-0.9,1.7-1.2c0.4-0.2,0.8-0.3,1.3-0.3c-0.1-0.6-0.2-1.2-0.2-1.8c0-2.6,1.1-4.9,2.9-6.5L17.7,2h-3.5
		l-0.6,4c-0.6,0.1-1.2,0.4-1.7,0.6L9.1,3.8L6.3,5.9l1.8,3.4L7,10.9l-3.8-0.6l-1,3.4L6,15.3v1.9l-3.7,1.8l1,3.3l3.8-0.6
		c0.2,0.3,0.8,1.3,1,1.5l-1.8,3.4l2.8,2l2.7-2.8c0.3,0.1,1.4,0.4,1.7,0.5l0.6,3.7h3.5l0.6-3.7c0.6-0.2,1.2-0.3,1.7-0.5l2.7,2.8
		l2.8-2l-1.8-3.4c0.4-0.5,0.8-1,1.1-1.5l3.8,0.6l1.1-3.3l-3.3-1.6C25.7,17.6,24.7,17.8,23.7,17.8z"/>
</g>
<g>
	<g>
		<path fill="#FFFFFF" d="M22.4,12.3c0-0.3,0.1-0.6,0.4-0.9c0.2-0.2,0.5-0.4,0.9-0.4c0.3,0,0.6,0.1,0.9,0.4c0.2,0.2,0.4,0.5,0.4,0.9
			c0,0.3-0.1,0.6-0.4,0.9c-0.2,0.2-0.5,0.4-0.9,0.4c-0.3,0-0.6-0.1-0.9-0.4C22.6,12.9,22.4,12.7,22.4,12.3z M23.3,10.3l-0.6-4.6
			c0-0.3-0.1-0.5-0.1-0.7c0-0.7,0.4-1,1.1-1c0.7,0,1.1,0.3,1.1,0.9c0,0.2,0,0.4-0.1,0.7l-0.6,4.6H23.3z"/>
	</g>
</g>
</svg>
