<?xml version="1.0" encoding="utf-8"?>
<!-- Generator: Adobe Illustrator 19.2.1, SVG Export Plug-In . SVG Version: 6.00 Build 0)  -->
<!DOCTYPE svg PUBLIC "-//W3C//DTD SVG 1.0//EN" "http://www.w3.org/TR/2001/REC-SVG-20010904/DTD/svg10.dtd">
<svg version="1.0" id="Layer_1" xmlns="http://www.w3.org/2000/svg" xmlns:xlink="http://www.w3.org/1999/xlink" x="0px" y="0px" viewBox="0 0 32 32" style="enable-background:new 0 0 32 32;" xml:space="preserve" fill="#333" width="32px" height="32px">
<style type="text/css">
	.primary{fill:#333333;}
</style>
<path class="primary" d="M9.5,2C5.4,2,2,5.4,2,9.5S5.4,17,9.5,17S17,13.6,17,9.5S13.6,2,9.5,2z M9.5,15C6.5,15,4,12.5,4,9.5
	C4,6.5,6.5,4,9.5,4S15,6.5,15,9.5C15,12.5,12.5,15,9.5,15z M30,27.5c0,1.4-1.1,2.5-2.5,2.5c-1.2,0-2.2-0.9-2.4-2H8.9
	c-0.2,1.1-1.2,2-2.4,2C5.1,30,4,28.9,4,27.5c0-1.2,0.9-2.2,2-2.4V18l2,1v7h18v-9.4l-5-3V6h-3l-1-2h3.1c0.2-1.1,1.2-2,2.4-2
	C23.9,2,25,3.1,25,4.5c0,1.2-0.9,2.2-2,2.4v5.5l2.5,1.5c0.5-0.6,1.2-1,2-1c1.4,0,2.5,1.1,2.5,2.5c0,1.2-0.9,2.2-2,2.4v7.1
	C29.1,25.3,30,26.3,30,27.5z M13,12l-1,1l-3-3V5h1v4L13,12z"/>
</svg>
