<?xml version="1.0" encoding="utf-8"?>
<!-- Generator: Adobe Illustrator 19.0.0, SVG Export Plug-In . SVG Version: 6.00 Build 0)  -->
<svg version="1.0" id="Layer_1" xmlns="http://www.w3.org/2000/svg" xmlns:xlink="http://www.w3.org/1999/xlink" x="0px" y="0px" viewBox="0 0 32 32" style="enable-background:new 0 0 32 32;" xml:space="preserve" width="32px" height="32px" fill="#333">
<style type="text/css">
	.primary{fill:#333333;}
	.secondary{fill:#FFF200;}
</style>
<path class="secondary" d="M0.855,27.267L14.47,2.908c0.68-1.217,2.38-1.217,3.06,0l13.615,24.36c0.68,1.217-0.17,2.738-1.53,2.738
	H2.385C1.025,30.005,0.175,28.484,0.855,27.267z"/>
<path class="primary" d="M13.7,23.6c0-0.6,0.2-1.1,0.7-1.6c0.4-0.4,1-0.7,1.6-0.7s1.2,0.2,1.6,0.7c0.4,0.4,0.7,1,0.7,1.6
	s-0.2,1.2-0.7,1.6c-0.4,0.4-1,0.7-1.6,0.7c-0.6,0-1.1-0.2-1.6-0.7C13.9,24.8,13.7,24.2,13.7,23.6z M15.3,19.8l-1.2-8.5
	C14,10.7,14,10.3,14,10c0-1.3,0.7-1.9,2-1.9s2,0.6,2,1.7c0,0.4,0,0.8-0.1,1.4l-1.2,8.6H15.3z"/>
<path class="primary" d="M29.615,30.505H2.385c-0.802,0-1.528-0.421-1.942-1.125c-0.43-0.733-0.439-1.614-0.024-2.356l13.615-24.36
	C14.442,1.932,15.177,1.495,16,1.495c0.823,0,1.558,0.437,1.967,1.168l13.615,24.36c0.415,0.742,0.405,1.623-0.025,2.356
	C31.144,30.084,30.418,30.505,29.615,30.505z M16,2.495c-0.455,0-0.864,0.246-1.093,0.657L1.292,27.512
	c-0.24,0.429-0.234,0.938,0.014,1.361c0.235,0.401,0.628,0.632,1.079,0.632h27.23c0.45,0,0.844-0.23,1.079-0.631
	c0.249-0.424,0.254-0.934,0.015-1.362L17.094,3.152C16.864,2.741,16.455,2.495,16,2.495z"/>
</svg>
