<?xml version="1.0" encoding="utf-8"?>
<!-- Generator: Adobe Illustrator 17.1.0, SVG Export Plug-In . SVG Version: 6.00 Build 0)  -->
<!DOCTYPE svg PUBLIC "-//W3C//DTD SVG 1.1//EN" "http://www.w3.org/Graphics/SVG/1.1/DTD/svg11.dtd">
<svg version="1.1" id="Layer_1" xmlns="http://www.w3.org/2000/svg" xmlns:xlink="http://www.w3.org/1999/xlink" x="0px" y="0px" viewBox="0 0 32 32" enable-background="new 0 0 32 32" xml:space="preserve" width="32px" height="32px" fill="#333">
<path d="M0,16c0,8.8,7.2,16,16,16c8.8,0,16-7.2,16-16S24.8,0,16,0C7.1,0,0,7.2,0,16z M25.9,24.4L7.6,6.1C9.8,4.2,12.8,3,16,3
	c7.2,0,13,5.8,13,13C29,19.2,27.8,22.1,25.9,24.4z M3,16c0-2.9,1-5.5,2.6-7.7l18.2,18.2C21.5,28,18.9,29,16,29C8.8,29,3,23.2,3,16z"/>
</svg>
