<?xml version="1.0" encoding="utf-8"?>
<!-- Generator: Adobe Illustrator 21.1.0, SVG Export Plug-In . SVG Version: 6.00 Build 0)  -->
<svg version="1.0" id="Layer_1" xmlns="http://www.w3.org/2000/svg" xmlns:xlink="http://www.w3.org/1999/xlink" x="0px" y="0px" viewBox="0 0 32 32" style="enable-background:new 0 0 32 32;" xml:space="preserve" width="32px" height="32px" fill="#333">
<style type="text/css">
	.primary{fill:#333333;}
</style>
<g>
	<g>
		<path class="primary" d="M7.946,11.127l5.265,20.74l4.253-7.146l5.492,6.361l2.477-2.273l-5.328-6.171l8.425-2.932L7.946,11.127z
			 M24.041,28.728l-1.002,0.92l-5.727-6.631l-3.728,6.264L9.407,12.819l16.321,6.803l-7.343,2.555L24.041,28.728z"/>
		
			<rect x="2.658" y="10.248" transform="matrix(0.9918 -0.1275 0.1275 0.9918 -1.5354 0.5024)" class="primary" width="1px" height="3.999px"/>
		
			<rect x="3.423" y="16.199" transform="matrix(0.9919 -0.1269 0.1269 0.9919 -2.278 0.645)" class="primary" width="1px" height="4px"/>
		<path class="primary" d="M2.81,5.621c0.146,0,0.293-0.003,0.442-0.027C4.76,5.341,5.772,3.922,5.518,2.426
			C5.266,0.93,3.847-0.081,2.35,0.172C0.855,0.413-0.157,1.832,0.096,3.328c0.158,0.978,0.823,1.741,1.68,2.09l0.376,2.925
			l0.992-0.127L2.81,5.621z"/>
		
			<rect x="8.149" y="2.558" transform="matrix(0.3816 -0.9243 0.9243 0.3816 1.1355 10.8133)" class="primary" width="1px" height="4px"/>
		
			<rect x="28.042" y="13.672" transform="matrix(0.0312 -0.9995 0.9995 0.0312 14.9392 43.757)" class="primary" width="4px" height="1px"/>
		
			<rect x="28.228" y="7.675" transform="matrix(0.0312 -0.9995 0.9995 0.0312 21.113 38.1327)" class="primary" width="4px" height="1px"/>
		<path class="primary" d="M8.018,26.426c-0.233-1.381-1.462-2.336-2.826-2.278l-0.263-2.046l-0.992,0.127l0.275,2.137
			c-1.129,0.487-1.83,1.693-1.615,2.961c0.242,1.496,1.661,2.508,3.157,2.266c0.917-0.154,1.645-0.742,2.022-1.513l2.185,0.437
			l0.196-0.98l-2.118-0.423C8.056,26.888,8.058,26.659,8.018,26.426z"/>
		<path class="primary" d="M14.783,8.516c0.242,1.496,1.661,2.508,3.157,2.266c1.507-0.253,2.519-1.672,2.265-3.168
			c-0.024-0.145-0.069-0.281-0.114-0.417l1.637-0.744l-0.414-0.91l-1.714,0.779c-0.606-0.728-1.563-1.132-2.563-0.963
			c-0.839,0.136-1.515,0.648-1.912,1.331l-2.589-1.068l-0.381,0.924l2.635,1.087C14.745,7.919,14.732,8.214,14.783,8.516z"/>
		<path class="primary" d="M32.018,2.426c-0.252-1.496-1.671-2.508-3.168-2.255c-1.435,0.232-2.412,1.549-2.267,2.977l-3.448,1.568
			l0.414,0.91l3.316-1.508c0.526,1.039,1.676,1.672,2.887,1.476C31.26,5.341,32.272,3.922,32.018,2.426z"/>
	</g>
	<g>
		<path class="primary" d="M7.946,11.127l5.265,20.74l4.253-7.146l5.492,6.361l2.477-2.273l-5.328-6.171l8.425-2.932L7.946,11.127z
			 M24.041,28.728l-1.002,0.92l-5.727-6.631l-3.728,6.264L9.407,12.819l16.321,6.803l-7.343,2.555L24.041,28.728z"/>
		
			<rect x="2.658" y="10.248" transform="matrix(0.9918 -0.1275 0.1275 0.9918 -1.5354 0.5024)" class="primary" width="1px" height="3.999px"/>
		
			<rect x="3.423" y="16.199" transform="matrix(0.9919 -0.1269 0.1269 0.9919 -2.278 0.645)" class="primary" width="1px" height="4px"/>
		<path class="primary" d="M2.81,5.621c0.146,0,0.293-0.003,0.442-0.027C4.76,5.341,5.772,3.922,5.518,2.426
			C5.266,0.93,3.847-0.081,2.35,0.172C0.855,0.413-0.157,1.832,0.096,3.328c0.158,0.978,0.823,1.741,1.68,2.09l0.376,2.925
			l0.992-0.127L2.81,5.621z"/>
		
			<rect x="8.149" y="2.558" transform="matrix(0.3816 -0.9243 0.9243 0.3816 1.1355 10.8133)" class="primary" width="1px" height="4px"/>
		
			<rect x="28.042" y="13.672" transform="matrix(0.0312 -0.9995 0.9995 0.0312 14.9392 43.757)" class="primary" width="4px" height="1px"/>
		
			<rect x="28.228" y="7.675" transform="matrix(0.0312 -0.9995 0.9995 0.0312 21.113 38.1327)" class="primary" width="4px" height="1px"/>
		<path class="primary" d="M8.018,26.426c-0.233-1.381-1.462-2.336-2.826-2.278l-0.263-2.046l-0.992,0.127l0.275,2.137
			c-1.129,0.487-1.83,1.693-1.615,2.961c0.242,1.496,1.661,2.508,3.157,2.266c0.917-0.154,1.645-0.742,2.022-1.513l2.185,0.437
			l0.196-0.98l-2.118-0.423C8.056,26.888,8.058,26.659,8.018,26.426z"/>
		<path class="primary" d="M14.783,8.516c0.242,1.496,1.661,2.508,3.157,2.266c1.507-0.253,2.519-1.672,2.265-3.168
			c-0.024-0.145-0.069-0.281-0.114-0.417l1.637-0.744l-0.414-0.91l-1.714,0.779c-0.606-0.728-1.563-1.132-2.563-0.963
			c-0.839,0.136-1.515,0.648-1.912,1.331l-2.589-1.068l-0.381,0.924l2.635,1.087C14.745,7.919,14.732,8.214,14.783,8.516z"/>
		<path class="primary" d="M32.018,2.426c-0.252-1.496-1.671-2.508-3.168-2.255c-1.435,0.232-2.412,1.549-2.267,2.977l-3.448,1.568
			l0.414,0.91l3.316-1.508c0.526,1.039,1.676,1.672,2.887,1.476C31.26,5.341,32.272,3.922,32.018,2.426z"/>
	</g>
</g>
</svg>
