<?xml version="1.0" encoding="utf-8"?>
<!-- Generator: Adobe Illustrator 18.0.0, SVG Export Plug-In . SVG Version: 6.00 Build 0)  -->
<!DOCTYPE svg PUBLIC "-//W3C//DTD SVG 1.1//EN" "http://www.w3.org/Graphics/SVG/1.1/DTD/svg11.dtd">
<svg version="1.1" xmlns="http://www.w3.org/2000/svg" xmlns:xlink="http://www.w3.org/1999/xlink" x="0px" y="0px" viewBox="0 0 32 32" enable-background="new 0 0 32 32" xml:space="preserve" width="32px" height="32px" fill="#333">
<symbol id="Soybeans" viewBox="-11.5 -14 22.9 28">
	<g>
		<path fill="#333333" d="M11.5-10.9C9.3-9.8,8.4-5.2,8.4-5.2l0,0C8.3-4.6,8.1-4,7.8-3.5C7.1-2.4,6-1.6,4.7-1.4
			C5.1-0.2,5,1.1,4.3,2.3c-0.7,1.1-1.8,1.9-3,2.1c0.4,1.2,0.3,2.5-0.4,3.7c-0.7,1.2-2.1,2.1-3.5,2.2C-5.2,10.7-5.9,12-6.1,13
			c0,0.6,0,1,0,1c-4.4-2.6-5.8-7.5-5.3-13c0.8-8.5,7.7-15,17.4-15c-0.9,1.2-1.6,2.3-2.1,3.2C7.7-11.6,11.5-10.9,11.5-10.9z M2.9,1.4
			c0.8-1.3,0.4-3-1-3.8C1.6-2.6,1.3-2.7,1-2.7C0.8-2,0.6-1.1,0.1,0c-0.4,0.8-0.8,1.6-1.3,2.2C-1.1,2.3-1.1,2.4-1,2.4
			C0.4,3.2,2.1,2.8,2.9,1.4z M-4.4,8.2c1.3,0.8,3,0.4,3.8-1c0.8-1.3,0.4-3-1-3.8C-1.7,3.3-1.8,3.2-2,3.2c-1.8,2.2-3.7,3-3.7,3
			s0,0.1,0,0.2C-5.5,7.2-5.1,7.8-4.4,8.2z M5.4-8.2c-0.9-0.5-2-0.5-2.8,0C1.8-6.7,1.6-5.6,1.4-4.6C1.6-4.1,2-3.7,2.5-3.4
			c1.3,0.8,3,0.4,3.8-1C7.1-5.7,6.7-7.4,5.4-8.2z"/>
	</g>
</symbol>
<g id="Layer_1">
	<use xlink:href="#Soybeans" width="22.9px" height="28px" id="XMLID_3_" x="-11.5" y="-14" transform="matrix(1 0 0 -1 16 16)" overflow="visible"/>
</g>
</svg>
