<?xml version="1.0" encoding="utf-8"?>
<!-- Generator: Adobe Illustrator 19.1.0, SVG Export Plug-In . SVG Version: 6.00 Build 0)  -->
<!DOCTYPE svg PUBLIC "-//W3C//DTD SVG 1.1//EN" "http://www.w3.org/Graphics/SVG/1.1/DTD/svg11.dtd">
<svg version="1.1" id="Layer_1" xmlns="http://www.w3.org/2000/svg" xmlns:xlink="http://www.w3.org/1999/xlink" x="0px" y="0px" viewBox="0 0 32 32" enable-background="new 0 0 32 32" xml:space="preserve" width="32px" height="32px" fill="#333">
<symbol id="small-grains" viewBox="-6 -14 13 28">
	<path fill="#333333" d="M6,0.5c0.6,1.7-0.1,2.7-1.4,3.2C4,4,3,4.1,3,4v2.1c1,0.2,2.4,2,3,3.5c0.6,1.7-0.1,2.7-1.4,3.2
		C4,13,3,13.1,3,13v1h-4V6.3c0,0.1-0.2,0.1-0.2,0.2c-0.6,1.7-1.8,1.8-3.1,1.2c-1.2-0.5-2.1-1.5-1.5-3.2s2.7-4,3.9-3.4
		C-1.5,1.3-1,1.6-1,2v-5.7c0,0.1-0.2,0.1-0.2,0.2c-0.6,1.7-1.8,1.8-3.1,1.2c-1.2-0.5-2.1-1.5-1.5-3.2s2.7-4,3.9-3.4
		C-1.5-8.7-1-8.4-1-8v-6h4v1.1c1,0.2,2.4,2,3,3.5c0.6,1.7-0.1,2.7-1.4,3.2C4-6,3-5.9,3-6v3.1C4-2.7,5.4-0.9,6,0.5z M-1.9,2.7
		c-0.3-0.1-0.4,1.1-0.8,2c-0.6,1.1-2.6,2.6,0.1,2.4C-1.4,7-1.4,2.8-1.9,2.7z M-1.9-7.3c-0.3-0.1-0.4,1.1-0.8,2
		c-0.6,1.1-2.6,2.6,0.1,2.4C-1.4-3-1.4-7.2-1.9-7.3z M2.7,12.1c2.7,0.2,0.7-1.3,0.1-2.4c-0.5-0.9-0.5-2.1-0.8-2
		C1.4,7.8,1.4,12,2.7,12.1z M2.8-9.3c-0.5-0.9-0.5-2.1-0.8-2C1.4-11.2,1.4-7,2.7-6.9C5.4-6.7,3.4-8.2,2.8-9.3z M1.9-1.3
		C1.4-1.2,1.4,3,2.7,3.1c2.7,0.2,0.7-1.3,0.1-2.4C2.3-0.1,2.2-1.4,1.9-1.3z"/>
	<polygon display="none" fill="none" points="-6,14 7,14 7,-14 -6,-14 	"/>
</symbol>
<use xlink:href="#small-grains" width="13px" height="28px" x="-6" y="-14" transform="matrix(1 0 0 -1 15 16)" overflow="visible"/>
</svg>
