<?xml version="1.0" encoding="utf-8"?>
<!-- Generator: Adobe Illustrator 19.1.0, SVG Export Plug-In . SVG Version: 6.00 Build 0)  -->
<!DOCTYPE svg PUBLIC "-//W3C//DTD SVG 1.1//EN" "http://www.w3.org/Graphics/SVG/1.1/DTD/svg11.dtd">
<svg version="1.1" id="Layer_1" xmlns="http://www.w3.org/2000/svg" xmlns:xlink="http://www.w3.org/1999/xlink" x="0px" y="0px" viewBox="0 0 32 32" enable-background="new 0 0 32 32" xml:space="preserve" width="32px" height="32px" fill="#333">
<symbol id="Spring" viewBox="-13 0 13 13">
	<g>
		<path fill="#FFFFFF" d="M-6.5,1.8c-2.6,0-4.7,2.1-4.7,4.7s2.1,4.7,4.7,4.7s4.7-2.1,4.7-4.7S-3.9,1.8-6.5,1.8z"/>
		<g>
			<path fill="#FFFFFF" d="M-6.5,10.7c2.3,0,4.2-1.9,4.2-4.2c0-2.3-1.9-4.2-4.2-4.2c-2.3,0-4.2,1.9-4.2,4.2
				C-10.7,8.8-8.8,10.7-6.5,10.7 M-6.5,11.7c-2.9,0-5.2-2.3-5.2-5.2s2.3-5.2,5.2-5.2c2.9,0,5.2,2.3,5.2,5.2S-3.6,11.7-6.5,11.7
				L-6.5,11.7z"/>
		</g>
	</g>
	<polygon fill="none" points="-13,13 0,13 0,0 -13,0 	"/>
	<g>
		<path fill="#333333" d="M-3.8,6.5c-1.4,2.6-0.1,3.3-0.1,3.3s-1.2-0.3-2.3-1.3c-0.7-0.7-1.4-1.9-1.4-3.1c0-1.6,0.7-2.5,1.4-3.1
			c1.5,0.2,2.7,1.4,2.7,3C-3.5,5.7-3.8,6.5-3.8,6.5z"/>
		<path fill="#333333" d="M-8.1,5.4c0,1.2,0.5,2.3,1.3,3.3c-1,1-2.3,1.2-2.3,1.2s1.2-0.8-0.2-3.4c0,0-0.3-0.8-0.3-1.2
			c0-1.5,1.1-2.8,2.6-3C-7.5,3-8.1,4-8.1,5.4z"/>
	</g>
</symbol>
<symbol id="barley" viewBox="-10 -14 20 28">
	<path fill="#333333" d="M4.4-3.9C2.4-4.5,1-6.5,1-8.6C1-8.6,0.6-9,0-9s-1,0.4-1,0.4c0,2.2-1.4,4.1-3.4,4.7L-10-2v-2.4
		c0-2.2,1.4-4.1,3.4-4.7L-1-11v-3h2v3l5.6,1.9c2,0.7,3.4,2.6,3.4,4.7V-2L4.4-3.9z"/>
	<path fill="#333333" d="M9,14V5.7L4.4,4.1C2.4,3.5,1,1.5,1-0.6V-3l5.6,1.9c2,0.7,3.4,2.6,3.4,4.7V5v1v8H9z"/>
	<polygon fill="#333333" points="7,14 6,14 6,6 7,6 	"/>
	<path fill="#333333" d="M-4.4,4.1L-9,5.7V14h-1V6V5V3.6c0-2.2,1.4-4.1,3.4-4.7L-1-3v2.4C-1,1.5-2.4,3.5-4.4,4.1z"/>
	<polygon fill="#333333" points="-7,14 -6,14 -6,6 -7,6 	"/>
	<path fill="#333333" d="M3,9V5.6C3,5.4,2.9,5.2,2.8,5l-2-1.6c-0.4-0.3-1.3-0.3-1.6,0l-2,1.6C-2.9,5.2-3,5.4-3,5.6V9c0,2.9,3,5,3,5
		S3,12,3,9z"/>
</symbol>
<use xlink:href="#barley" width="20px" height="28px" id="XMLID_22_" x="-10" y="-14" transform="matrix(1 0 0 -1 16 16)" overflow="visible"/>
<use xlink:href="#Spring" width="13px" height="13px" x="-13" transform="matrix(1 0 0 -1 31.9593 32.0003)" overflow="visible"/>
</svg>
