<?xml version="1.0" encoding="utf-8"?>
<!-- Generator: Adobe Illustrator 19.1.0, SVG Export Plug-In . SVG Version: 6.00 Build 0)  -->
<!DOCTYPE svg PUBLIC "-//W3C//DTD SVG 1.1//EN" "http://www.w3.org/Graphics/SVG/1.1/DTD/svg11.dtd">
<svg version="1.1" id="Layer_1" xmlns="http://www.w3.org/2000/svg" xmlns:xlink="http://www.w3.org/1999/xlink" x="0px" y="0px" viewBox="0 0 32 32" enable-background="new 0 0 32 32" xml:space="preserve" width="32px" height="32px" fill="#333">
<symbol id="Tomatoes" viewBox="-14 -14 28 28">
	<path fill="#333333" d="M6.9,6.4c0,0-1.8,1.8-5.1,2.4L3.6,14H1.9l-2.7-5.1c-4-0.3-6-2.5-6-2.5s2.5-1.9,4.7-0.9c0,0-0.3-4,2.2-5.7
		c2.5,1.7,2.2,5.7,2.2,5.7C4.3,4.6,6.9,6.4,6.9,6.4z"/>
	<path fill="#333333" d="M5.6-9.8"/>
	<path fill="#333333" d="M3.1,9.4C7.5,9,9.5,6.1,9.5,6.1S6.2,3.5,3.3,4.4c0,0,0.6-5.5-3.3-7.9c-3.7,2.4-3.5,7.7-3.5,7.7
		c-2.8-0.8-5.9,2-5.9,2s2.2,2.7,6.1,3.2C-10.2,11-14,4.8-14-1.3C-14-8.3-8-14,0-14S14-8.3,14-1.3C14,5.4,10.2,11.5,3.1,9.4z M7-8.8
		L5.3-7.5c0,0,2.1,3.1,1.6,6.6h4C10.9-4.4,9.4-7.1,7-8.8z"/>
</symbol>
<use xlink:href="#Tomatoes" width="28px" height="28px" id="XMLID_11_" x="-14" y="-14" transform="matrix(1 0 0 -1 16 15.9999)" overflow="visible"/>
</svg>
