<?xml version="1.0" encoding="utf-8"?>
<!-- Generator: Adobe Illustrator 18.0.0, SVG Export Plug-In . SVG Version: 6.00 Build 0)  -->
<!DOCTYPE svg PUBLIC "-//W3C//DTD SVG 1.1//EN" "http://www.w3.org/Graphics/SVG/1.1/DTD/svg11.dtd">
<svg version="1.1" xmlns="http://www.w3.org/2000/svg" xmlns:xlink="http://www.w3.org/1999/xlink" x="0px" y="0px" viewBox="0 0 32 32" enable-background="new 0 0 32 32" xml:space="preserve" width="32px" height="32px" fill="#333">
<symbol id="alfalfa" viewBox="-13.2 -14.2 26 27">
	<path fill="none" stroke="#333333" stroke-width="2px" stroke-linecap="round" stroke-miterlimit="10" d="M4,10.3
		c0,0,0.9-3.1-6.6-9.8c-5.9-5.2,3.4-13.8,3.4-13.8"/>
	<path fill="#333333" d="M3.8,12.8c0,0,2.3-2.8,2.3-4.4C6.2,6,4.6,2.6,1.6,4S-0.9,9.1,3.8,12.8z"/>
	<path fill="#333333" d="M3.2,5.7c0,0,4.3,2,6.7-1.8c0,0-2-3.7-7.5-2.3S3.2,5.7,3.2,5.7z"/>
	<path fill="#333333" d="M2.6,4.8c0,0-2,3-5.3,3S-7,6.3-7,6.3S-3.9-0.6,2.6,4.8z"/>
	<path fill="#333333" d="M-5-1c0,0-0.4,1.7-3.7,1.7s-4.5-2.2-4.5-2.2s1.5-2.9,4.5-2.7S-5-1-5-1z"/>
	<path fill="#333333" d="M-5.1-1.2c0,0-5.4-0.3-5.4-6.7c0,0,5,0.2,6.6,3.4S-5.1-1.2-5.1-1.2z"/>
	<path fill="#333333" d="M-5-1c0,0,4.7,1.2,6.8-2.5c0,0-2.5-3.2-6.5-1.7S-5-1-5-1z"/>
	<line fill="none" stroke="#333333" stroke-width="2px" stroke-miterlimit="10" x1="-1.5" y1="-11" x2="4.9" y2="-4.7"/>
	<path fill="#333333" d="M3.8-4.4c0,0,1.1-3.1,3.9-0.9c3.5,0.8,5-0.8,5-0.8s-0.5,4.9-5.2,4.9S3.8-4.4,3.8-4.4z"/>
</symbol>
<g id="Layer_1">
	<use xlink:href="#alfalfa" width="26px" height="27px" id="XMLID_50_" x="-13.2" y="-14.2" transform="matrix(1 0 0 -1 16.2656 14.7924)" overflow="visible"/>
</g>
</svg>
