<?xml version="1.0" encoding="utf-8"?>
<!-- Generator: Adobe Illustrator 18.0.0, SVG Export Plug-In . SVG Version: 6.00 Build 0)  -->
<!DOCTYPE svg PUBLIC "-//W3C//DTD SVG 1.1//EN" "http://www.w3.org/Graphics/SVG/1.1/DTD/svg11.dtd">
<svg version="1.1" xmlns="http://www.w3.org/2000/svg" xmlns:xlink="http://www.w3.org/1999/xlink" x="0px" y="0px" viewBox="0 0 32 32" enable-background="new 0 0 32 32" xml:space="preserve" width="32px" height="32px" fill="#333">
<symbol id="GenericCrop" viewBox="-14 -13.1 28 26.2">
	<g>
		<path fill="#333333" d="M14,13.1C3,13.2-2.9,12.2-7.5,7.8c-3.5-3.4-4.3-8.4-2.5-12.5C-12.6-7.5-14-9.4-14-9.4l4.4-3.7
			C-1.9,2.2,9.7,9.4,9.7,9.4C1.6,6-3.2,2-7.6-2.2c-1,3.2-0.2,6.8,2.4,9.3c3.7,3.5,8.2,4.5,17.6,4.5c0-9-0.4-14-4.1-17.5
			C6.5-7.8,4.1-8.7,1.6-8.7c-2.1,0-4,0.6-5.7,1.8c-0.6-0.9-1.2-1.9-1.7-2.8c4.6-3,10.9-2.6,15,1.4C13.7-3.9,14.1,2.4,14,13.1z"/>
	</g>
</symbol>
<g id="Layer_1">
	<use xlink:href="#GenericCrop" width="28px" height="26.2px" id="XMLID_1_" x="-14" y="-13.1" transform="matrix(1 0 0 -1 16 16)" overflow="visible"/>
</g>
</svg>
