<?xml version="1.0" encoding="utf-8"?>
<!-- Generator: Adobe Illustrator 19.1.0, SVG Export Plug-In . SVG Version: 6.00 Build 0)  -->
<!DOCTYPE svg PUBLIC "-//W3C//DTD SVG 1.1//EN" "http://www.w3.org/Graphics/SVG/1.1/DTD/svg11.dtd">
<svg version="1.1" id="Layer_1" xmlns="http://www.w3.org/2000/svg" xmlns:xlink="http://www.w3.org/1999/xlink" x="0px" y="0px" viewBox="0 0 32 32" enable-background="new 0 0 32 32" xml:space="preserve" width="32px" height="32px" fill="#333">
<path d="M6,30l-4-4c0,0,1.4-2.4,3.9-5.1c-1.8-4.2-1-9.1,2.5-12.5C13.1,3.8,17,3,30,3c0,8.2-0.1,12.9-0.9,16
	c-0.6-0.9-2.1-1-2.1-1c0.9-3,1-7.2,1-13c-9.4,0-13.5,0.5-17.2,4c-2.6,2.5-3.4,6.1-2.4,9.3C12.8,14.1,18,10.4,26,7
	C26,7,11.5,16.7,6,30z M19.2,24.7c0,0-0.5,0.3-1.7,0.3c-3.3,0-5.5-2-5.5-2L10,26c0,0,2.8,2,7,2c2.9,0,4.3-0.8,4.3-0.8L19.2,24.7z
	 M29.1,22c0,2.1-1.9,3.9-5.1,7c-2.4-2.5-5-5-4.9-7c0-1.7,1.3-3,2.9-3c1.5,0,2.1,1.4,2.1,1.4S25,19,26,19C27.7,19,29.2,20.4,29.1,22z
	"/>
</svg>
