<?xml version="1.0" encoding="utf-8"?>
<!-- Generator: Adobe Illustrator 18.0.0, SVG Export Plug-In . SVG Version: 6.00 Build 0)  -->
<!DOCTYPE svg PUBLIC "-//W3C//DTD SVG 1.1//EN" "http://www.w3.org/Graphics/SVG/1.1/DTD/svg11.dtd">
<svg version="1.1" xmlns="http://www.w3.org/2000/svg" xmlns:xlink="http://www.w3.org/1999/xlink" x="0px" y="0px" viewBox="0 0 32 32" enable-background="new 0 0 32 32" xml:space="preserve" width="32px" height="32px" fill="#333">
<symbol id="Cotton" viewBox="-13.9 -14 27.8 28">
	<path fill="#333333" d="M12.1,3.1c0.1,0.4,0.1,0.7,0.1,1.1c0,3.3-2.6,5.9-5.9,5.9c-0.2,0-0.5,0-0.7,0C4.8,12.4,2.6,14,0,14
		s-4.8-1.6-5.6-3.9c-0.2,0-0.5,0-0.7,0c-3.3,0-5.9-2.6-5.9-5.9c0-0.4,0-0.7,0.1-1.1c-1.1-1.3-1.8-3-1.8-4.8c0-4.1,3.3-7.4,7.4-7.4
		c0.7,0,1.5,0.1,2.1,0.3c1-0.7,2.2-1.4,3.3-1.6L-1.5-14h3l-0.4,3.6c1.1,0.2,2.3,0.8,3.3,1.6C5.1-9,5.8-9.1,6.5-9.1
		c4.1,0,7.4,3.3,7.4,7.4C13.9,0.1,13.2,1.8,12.1,3.1z M6.3-8.1C6-8.1,5.7-8.1,5.4-8c2.5,2,4.3,4.6,4.3,4.6s-4,0.5-6.8-1.1
		C2.8-4.4,3.2,3,0,5.8C-3.2,3-2.8-4.4-2.8-4.4c-2.8,1.6-6.8,1.1-6.8,1.1S-7.9-6-5.4-8c-0.3,0-0.6-0.1-0.9-0.1
		c-3.1,0-5.5,2.5-5.5,5.5c0,1.5,0.6,2.9,1.6,3.9c-0.1,0.4-0.2,0.9-0.2,1.4c0,2.5,2,4.5,4.5,4.5c0.5,0,1.1-0.1,1.6-0.3
		c0.1,2.3,2.1,4.2,4.4,4.2c2.4,0,4.3-1.9,4.4-4.2C4.9,7,5.4,7.2,6,7.2c2.5,0,4.5-2,4.5-4.5c0-0.5-0.1-0.9-0.2-1.4
		c1-1,1.6-2.4,1.6-3.9C11.8-5.6,9.3-8.1,6.3-8.1z"/>
</symbol>
<g id="Layer_1">
	<use xlink:href="#Cotton" width="27.8px" height="28px" id="XMLID_7_" x="-13.9" y="-14" transform="matrix(1 0 0 -1 16 15.9999)" overflow="visible"/>
</g>
</svg>
