<?xml version="1.0" encoding="utf-8"?>
<!-- Generator: Adobe Illustrator 19.1.0, SVG Export Plug-In . SVG Version: 6.00 Build 0)  -->
<!DOCTYPE svg PUBLIC "-//W3C//DTD SVG 1.1//EN" "http://www.w3.org/Graphics/SVG/1.1/DTD/svg11.dtd">
<svg version="1.1" id="Layer_1" xmlns="http://www.w3.org/2000/svg" xmlns:xlink="http://www.w3.org/1999/xlink" x="0px" y="0px" viewBox="0 0 32 32" enable-background="new 0 0 32 32" xml:space="preserve" width="32px" height="32px" fill="#333">
<symbol id="Potatoes" viewBox="-10 -14 20 28">
	<path fill="#333333" d="M10-1.3C7.9-3.8,4.1-3.8,4.1-3.8c3.1,1.6,4.7,4.3,5.4,5.6c-0.7,3.3-2,6.6-2.6,8.7C5.8,14,0.9,14,0.9,14
		c-1.6,0-5.5-0.9-6.9-3.5s-4-4.4-4-11.4c0-1.6,0.2-3.2,0.5-4.6C-8.7-6.4-6.8-7.6-2.2-7c0,0-2.8-1.5-6.5-1c1.5-3.6,4.2-6,8.2-6
		c6.2,0,9.3,5.2,10.3,9.6C10-3.5,10-2.4,10-1.3z M-5,5.2c0,0,7.4-2,11.3,3C6.3,8.2,3.7-0.9-5,5.2z M0.4-10.3c0,0,3.7,0.3,6.4,2.3
		C6.8-8,5-12.1,0.4-10.3z"/>
</symbol>
<use xlink:href="#Potatoes" width="20px" height="28px" id="XMLID_10_" x="-10" y="-14" transform="matrix(1 0 0 -1 16 16)" overflow="visible"/>
</svg>
