<?xml version="1.0" encoding="utf-8"?>
<!-- Generator: Adobe Illustrator 18.0.0, SVG Export Plug-In . SVG Version: 6.00 Build 0)  -->
<!DOCTYPE svg PUBLIC "-//W3C//DTD SVG 1.1//EN" "http://www.w3.org/Graphics/SVG/1.1/DTD/svg11.dtd">
<svg version="1.1" xmlns="http://www.w3.org/2000/svg" xmlns:xlink="http://www.w3.org/1999/xlink" x="0px" y="0px" viewBox="0 0 32 32" enable-background="new 0 0 32 32" xml:space="preserve" width="32px" height="32px" fill="#333">
<symbol id="lentils" viewBox="-11.4 -12.6 22.8 25.2">
	<path fill="#333333" d="M4.1,10.5c-2-0.7-5.5,0-5.5,0c1.2-2.9,4-2.4,4-2.4C1.4,4.9,4.1,3.4,4.1,3.4C3.7,5.4,5,6.7,5,6.7
		c2.1-2.5,4.6-0.2,4.6-0.2C7.3,7.8,6.3,9.2,6.3,9.2c1.8,3,4.4,1.3,4.4,1.3l0.7,1.2C6.9,14.3,4.1,10.5,4.1,10.5z"/>
	<path fill="#333333" d="M7.2,4.5c-0.6,0-1.3,0.1-2,0.6c-0.2-0.4-0.3-1-0.1-1.6c0.1-0.4-0.1-0.8-0.4-1C4.5,2.4,4.3,2.4,4.1,2.4
		c-0.2,0-0.3,0-0.5,0.1C2.6,3.1,1,4.7,1.3,7.1C-0.1,7.3-1.2,8.2-2,9.4c-0.7-0.5-1.3-1.2-1.8-1.9c-1.2-1.9-1.1-4.5-1.5-5.2
		c-0.4-0.6-1.7-1.6-2-1.8c-4.7-3.7-4.2-13-4.2-13s2.8,1.6,5.2,0.2c1.7-1,7.2,0.1,9.2,2.8c1.9,2.5,1.1,4.4,2,5.8
		C5.7-2.2,7-2.6,8.7,0.2c0.9,1.6,1.2,3.3,0.8,5C9,4.9,8.2,4.5,7.2,4.5z M-1.7-10.6c-0.5-0.1-0.9-0.2-1.4-0.2c-0.9,0-1.8,0.2-2.6,0.7
		c-1.2,0.7-2,1.8-2.4,3.1C-8.2-6.7-8-6.4-7.7-6.4c0.3,0.1,0.5-0.1,0.6-0.4c0.3-1.1,1-2,1.9-2.5c1-0.6,2.1-0.7,3.2-0.4
		c0.3,0.1,0.5-0.1,0.6-0.3C-1.3-10.3-1.5-10.5-1.7-10.6z M3.3-1.6C2.8-1.7,2.3-1.8,1.9-1.8C1-1.8,0.1-1.6-0.7-1.1
		c-1.2,0.7-2,1.8-2.4,3.1C-3.2,2.3-3,2.6-2.7,2.6c0.3,0.1,0.5-0.1,0.6-0.4c0.3-1.1,1-2,1.9-2.5C0.8-0.8,1.9-1,3-0.7
		C3.3-0.6,3.5-0.7,3.6-1C3.7-1.3,3.5-1.5,3.3-1.6z"/>
</symbol>
<g id="Layer_1">
	<use xlink:href="#lentils" width="22.8px" height="25.2px" x="-11.4" y="-12.6" transform="matrix(1 0 0 -1 15.4053 15.4893)" overflow="visible"/>
</g>
</svg>
