<?xml version="1.0" encoding="utf-8"?>
<!-- Generator: Adobe Illustrator 19.1.0, SVG Export Plug-In . SVG Version: 6.00 Build 0)  -->
<!DOCTYPE svg PUBLIC "-//W3C//DTD SVG 1.1//EN" "http://www.w3.org/Graphics/SVG/1.1/DTD/svg11.dtd">
<svg version="1.1" id="Layer_1" xmlns="http://www.w3.org/2000/svg" xmlns:xlink="http://www.w3.org/1999/xlink" x="0px" y="0px" viewBox="0 0 32 32" enable-background="new 0 0 32 32" xml:space="preserve" width="32px" height="32px" fill="#333">
<symbol id="SugarCane" viewBox="-14 -14 28 28">
	<polygon fill="#333333" points="-2.6,-11.9 3.5,-9 3.5,-14 -2.6,-14 	"/>
	<polygon fill="#333333" points="-2.6,-5.5 3.5,-2.5 3.5,-7.5 -2.6,-10.4 	"/>
	<polygon fill="#333333" points="-2.6,1.2 3.5,4.1 3.5,-0.9 -2.6,-3.8 	"/>
	<path fill="#333333" d="M3.9,5.7c1,7,10.1,5.7,10.1,5.7C2.7,15.3-0.7,3.5-0.7,3.9L3.9,5.7z"/>
	<path fill="#333333" d="M-2.6,3.1C-2.5,2.3-3,12-14,14c0,0,9.7,0.9,14.4-6.3C0.4,7.7-1.1,5.8-2.6,3.1z"/>
	<path fill="#333333" d="M0.9,8.7c0,0-0.7,0.9-1.2,1.5c-0.5,0.5-1.5,1.1-1.5,1.1S0.1,14,3.7,14C5.7,14,7,13.1,7,13.1
		S1.9,14.2,0.9,8.7z"/>
</symbol>
<use xlink:href="#SugarCane" width="28px" height="28px" id="XMLID_9_" x="-14" y="-14" transform="matrix(1 0 0 -1 16 16)" overflow="visible"/>
</svg>
