<?xml version="1.0" encoding="utf-8"?>
<!-- Generator: Adobe Illustrator 19.1.0, SVG Export Plug-In . SVG Version: 6.00 Build 0)  -->
<!DOCTYPE svg PUBLIC "-//W3C//DTD SVG 1.1//EN" "http://www.w3.org/Graphics/SVG/1.1/DTD/svg11.dtd">
<svg version="1.1" id="Layer_1" xmlns="http://www.w3.org/2000/svg" xmlns:xlink="http://www.w3.org/1999/xlink" x="0px" y="0px" viewBox="0 0 32 32" enable-background="new 0 0 32 32" xml:space="preserve" width="32px" height="32px" fill="#333">
<symbol id="Spring" viewBox="-13 0 13 13">
	<g>
		<path fill="#FFFFFF" d="M-6.5,1.8c-2.6,0-4.7,2.1-4.7,4.7s2.1,4.7,4.7,4.7s4.7-2.1,4.7-4.7S-3.9,1.8-6.5,1.8z"/>
		<g>
			<path fill="#FFFFFF" d="M-6.5,10.7c2.3,0,4.2-1.9,4.2-4.2c0-2.3-1.9-4.2-4.2-4.2c-2.3,0-4.2,1.9-4.2,4.2
				C-10.7,8.8-8.8,10.7-6.5,10.7 M-6.5,11.7c-2.9,0-5.2-2.3-5.2-5.2s2.3-5.2,5.2-5.2c2.9,0,5.2,2.3,5.2,5.2S-3.6,11.7-6.5,11.7
				L-6.5,11.7z"/>
		</g>
	</g>
	<polygon fill="none" points="-13,13 0,13 0,0 -13,0 	"/>
	<g>
		<path fill="#333333" d="M-3.8,6.5c-1.4,2.6-0.1,3.3-0.1,3.3s-1.2-0.3-2.3-1.3c-0.7-0.7-1.4-1.9-1.4-3.1c0-1.6,0.7-2.5,1.4-3.1
			c1.5,0.2,2.7,1.4,2.7,3C-3.5,5.7-3.8,6.5-3.8,6.5z"/>
		<path fill="#333333" d="M-8.1,5.4c0,1.2,0.5,2.3,1.3,3.3c-1,1-2.3,1.2-2.3,1.2s1.2-0.8-0.2-3.4c0,0-0.3-0.8-0.3-1.2
			c0-1.5,1.1-2.8,2.6-3C-7.5,3-8.1,4-8.1,5.4z"/>
	</g>
</symbol>
<symbol id="Wheat" viewBox="-10.5 -14 21 28">
	<g>
		<g>
			<path fill="#333333" d="M6.9-3.8c-1.6-2.6-5-1.6-5-1.6s-2.3,2.5-0.7,5c1.6,2.6,6.8,5.2,6.8,5.2S8.5-1.3,6.9-3.8z"/>
			<path fill="#333333" d="M6.5-13.1c-2.4-1.9-5.3,0-5.3,0s-1.4,3.1,1,5c2.4,1.9,8.2,2.8,8.2,2.8S9-11.2,6.5-13.1z"/>
			<path fill="#333333" d="M-6.5-13.1c2.4-1.9,5.3,0,5.3,0s1.4,3.1-1,5c-2.4,1.9-8.2,2.8-8.2,2.8S-9-11.2-6.5-13.1z"/>
			<path fill="#333333" d="M-6.8-3.8c1.6-2.6,5-1.6,5-1.6s2.3,2.5,0.7,5C-2.8,2.1-8,4.7-8,4.7S-8.4-1.3-6.8-3.8z"/>
			<path fill="#333333" d="M3.2,6.1c0-3-3.3-3.9-3.3-3.9s-3.3,0.9-3.3,3.9c0,3,3.6,7.9,3.6,7.9S3.2,9.1,3.2,6.1z"/>
		</g>
	</g>
</symbol>
<use xlink:href="#Wheat" width="21px" height="28px" id="XMLID_24_" x="-10.5" y="-14" transform="matrix(1 0 0 -1 16 16)" overflow="visible"/>
<use xlink:href="#Spring" width="13px" height="13px" x="-13" transform="matrix(1 0 0 -1 31.9593 32)" overflow="visible"/>
</svg>
