<?xml version="1.0" encoding="utf-8"?>
<!-- Generator: Adobe Illustrator 18.0.0, SVG Export Plug-In . SVG Version: 6.00 Build 0)  -->
<!DOCTYPE svg PUBLIC "-//W3C//DTD SVG 1.1//EN" "http://www.w3.org/Graphics/SVG/1.1/DTD/svg11.dtd">
<svg version="1.1" xmlns="http://www.w3.org/2000/svg" xmlns:xlink="http://www.w3.org/1999/xlink" x="0px" y="0px" viewBox="0 0 32 32" enable-background="new 0 0 32 32" xml:space="preserve" width="32px" height="32px" fill="#333">
<symbol id="barley" viewBox="-10 -14 20 28">
	<path fill="#333333" d="M4.4-3.9C2.4-4.5,1-6.5,1-8.6C1-8.6,0.6-9,0-9s-1,0.4-1,0.4c0,2.2-1.4,4.1-3.4,4.7L-10-2v-2.4
		c0-2.2,1.4-4.1,3.4-4.7L-1-11v-3h2v3l5.6,1.9c2,0.7,3.4,2.6,3.4,4.7V-2L4.4-3.9z"/>
	<path fill="#333333" d="M9,14V5.7L4.4,4.1C2.4,3.5,1,1.5,1-0.6V-3l5.6,1.9c2,0.7,3.4,2.6,3.4,4.7V5v1v8H9z"/>
	<polygon fill="#333333" points="7,14 6,14 6,6 7,6 	"/>
	<path fill="#333333" d="M-4.4,4.1L-9,5.7V14h-1V6V5V3.6c0-2.2,1.4-4.1,3.4-4.7L-1-3v2.4C-1,1.5-2.4,3.5-4.4,4.1z"/>
	<polygon fill="#333333" points="-7,14 -6,14 -6,6 -7,6 	"/>
	<path fill="#333333" d="M3,9V5.6C3,5.4,2.9,5.2,2.8,5l-2-1.6c-0.4-0.3-1.3-0.3-1.6,0l-2,1.6C-2.9,5.2-3,5.4-3,5.6V9c0,2.9,3,5,3,5
		S3,12,3,9z"/>
</symbol>
<symbol id="winter" viewBox="-13 0 13 13">
	<g>
		<path fill="#FFFFFF" d="M-6.5,1c-3,0-5.5,2.5-5.5,5.5S-9.5,12-6.5,12S-1,9.5-1,6.5S-3.5,1-6.5,1z"/>
		<g>
			<path fill="#FFFFFF" d="M-6.5,11.5c2.8,0,5-2.2,5-5c0-2.8-2.2-5-5-5s-5,2.2-5,5C-11.5,9.3-9.3,11.5-6.5,11.5 M-6.5,12.5
				c-3.3,0-6-2.7-6-6s2.7-6,6-6s6,2.7,6,6S-3.2,12.5-6.5,12.5L-6.5,12.5z"/>
		</g>
	</g>
	<polygon fill="none" points="-13,13 0,13 0,0 -13,0 	"/>
	<g>
		<line fill="none" stroke="#333333" stroke-miterlimit="10" x1="-3" y1="10" x2="-10" y2="3"/>
		<polyline fill="none" stroke="#333333" stroke-miterlimit="10" points="-5,11 -5,8 -2,8 		"/>
		<polyline fill="none" stroke="#333333" stroke-miterlimit="10" points="-11,5 -7.9,5 -7.9,2 		"/>
	</g>
	<g>
		<line fill="none" stroke="#333333" stroke-miterlimit="10" x1="-9.9" y1="10" x2="-2.9" y2="3"/>
		<polyline fill="none" stroke="#333333" stroke-miterlimit="10" points="-7.9,11 -7.9,8 -11,8 		"/>
		<polyline fill="none" stroke="#333333" stroke-miterlimit="10" points="-2,5 -5,5 -5,2 		"/>
	</g>
</symbol>
<g id="Layer_1">
	<use xlink:href="#barley" width="20px" height="28px" id="XMLID_16_" x="-10" y="-14" transform="matrix(1 0 0 -1 16 16)" overflow="visible"/>
	<use xlink:href="#winter" width="13px" height="13px" id="XMLID_13_" x="-13" y="0" transform="matrix(1 0 0 -1 31.9596 32.0003)" overflow="visible"/>
</g>
</svg>
