<?xml version="1.0" encoding="utf-8"?>
<!-- Generator: Adobe Illustrator 18.0.0, SVG Export Plug-In . SVG Version: 6.00 Build 0)  -->
<!DOCTYPE svg PUBLIC "-//W3C//DTD SVG 1.1//EN" "http://www.w3.org/Graphics/SVG/1.1/DTD/svg11.dtd">
<svg version="1.1" xmlns="http://www.w3.org/2000/svg" xmlns:xlink="http://www.w3.org/1999/xlink" x="0px" y="0px" viewBox="0 0 32 32" enable-background="new 0 0 32 32" xml:space="preserve" width="32px" height="32px" fill="#333">
<symbol id="Rice" viewBox="-14 -14 28 28">
	<path fill="#333333" d="M8.6,11.4c-0.2,0-0.5,0-0.7,0c3.4,2,6.1,2.7,6.1,2.7C-1.5,14-14,1.6-14-14h5.5c0.1,0,0.2,0,0.4,0
		c1.2,0,2.8,0.8,4.1,2.1c1.3,1.3,2,2.8,2,3.9c0,0.6-0.2,1-0.6,1.3c-0.2,0.2-0.5,0.3-0.8,0.4C-3.3-6.1-3.2-6-3.1-5.9
		c1.3,1.2,2,2.7,2,3.9c0,0.4-0.1,0.7-0.2,1c0,0,0,0,0,0c1.5,0.8,2.6,1.9,3,2.9c0.1,0.3,0.1,0.5,0.1,0.8c1.6,0.4,2.9,1.1,3.4,2
		c0.2,0.3,0.3,0.5,0.3,0.8c0.8,0.1,1.6,0.3,2.4,0.6c1.6,0.7,2.8,1.7,3.1,2.8c0.2,0.5,0.2,1,0,1.4C10.7,11,9.8,11.4,8.6,11.4z
		 M-3.3-8c0-0.7-0.5-1.8-1.6-3c-1.2-1.2-2.5-1.8-3.2-1.8c-0.2,0-0.4,0-0.5,0.1c-0.1,0.1-0.2,0.2-0.2,0.5c0,0.7,0.5,1.8,1.6,3
		c1.2,1.2,2.5,1.8,3.2,1.8c0.2,0,0.4,0,0.5-0.1C-3.3-7.6-3.3-7.8-3.3-8z M-4-5c-1-1-2.3-1.6-3.2-1.6c-0.2,0-0.5,0-0.6,0.2
		C-7.9-6.4-8-6.2-8-5.9c0,0.8,0.6,2,1.7,2.9c1,1,2.3,1.6,3.2,1.6c0.2,0,0.5,0,0.6-0.2c0.1-0.1,0.2-0.3,0.2-0.6C-2.3-2.9-2.9-4.1-4-5
		z M0.5,2.2C0.3,1.6-0.5,0.7-1.8,0c-0.9-0.4-1.8-0.7-2.6-0.7c-0.6,0-1,0.1-1.1,0.4c-0.1,0.1-0.1,0.3,0,0.5c0.2,0.6,1,1.5,2.3,2.2
		C-2.3,2.8-1.4,3-0.6,3c0.6,0,1-0.1,1.1-0.4C0.6,2.5,0.6,2.4,0.5,2.2z M4.2,5.3C3.8,4.8,2.8,4.1,1.3,3.8c-0.5-0.1-1-0.2-1.5-0.2
		c-1.3,0-2.1,0.4-2.2,0.8c0,0.1,0,0.3,0.1,0.4C-1.9,5.4-0.9,6,0.6,6.3c0.5,0.1,1,0.2,1.5,0.2c1.3,0,2.1-0.4,2.2-0.8
		C4.3,5.6,4.3,5.5,4.2,5.3z M9.9,9.3C9.7,8.7,8.8,7.8,7.4,7.2C6.6,6.8,5.7,6.6,5,6.6c-0.6,0-1.2,0.2-1.3,0.4c-0.1,0.1-0.1,0.3,0,0.4
		C3.9,8.1,4.8,9,6.2,9.6c0.8,0.4,1.7,0.6,2.4,0.6c0.6,0,1.2-0.2,1.3-0.4C10,9.6,9.9,9.4,9.9,9.3z"/>
</symbol>
<g id="Layer_1">
	<use xlink:href="#Rice" width="28px" height="28px" id="XMLID_5_" x="-14" y="-14" transform="matrix(1 0 0 -1 16 16)" overflow="visible"/>
</g>
</svg>
