<?xml version="1.0" encoding="utf-8"?>
<!-- Generator: Adobe Illustrator 18.0.0, SVG Export Plug-In . SVG Version: 6.00 Build 0)  -->
<!DOCTYPE svg PUBLIC "-//W3C//DTD SVG 1.1//EN" "http://www.w3.org/Graphics/SVG/1.1/DTD/svg11.dtd">
<svg version="1.1" xmlns="http://www.w3.org/2000/svg" xmlns:xlink="http://www.w3.org/1999/xlink" x="0px" y="0px" viewBox="0 0 32 32" enable-background="new 0 0 32 32" xml:space="preserve" width="32px" height="32px" fill="#333">
<symbol id="canola" viewBox="-12.3 -14 24.5 28">
	<path fill="#333333" d="M10.1-0.3c0.5,2.4-0.9,4.2-2.6,4.2s-2-1.2-2-1.2S2.9,3.8,2.8,1.3c-0.1-2.5,2.5-3,2.5-3
		C4.1-2.2,2.6-3.3,1.7-4.1C1,3-0.1,6.4-0.1,6.4c4.7,0.5,4.6,4.3,3.6,5.3S1,11.2,1,11.2S2.3,14-1.3,14c-5.6,0-3-3-3-3
		s-1.1-0.1-2.1-0.7c-5-3.1-2.6-5.9-0.4-5.9C-5.1,4.4-4.4,5-4.4,5c3.3-2.8,4.3-7.9,4.5-12l-2.6,1.8c0,0,1.8,1.3,1.4,3.3
		c-0.4,2-2.3,0.5-2.3,0.5S-2,1.1-5.4,1c-3.4-0.1-2.9-2.9-2.9-2.9s-4-0.1-4-3.8c0-3.7,4.5-0.8,4.5-0.8S-8.4-9-6-9
		c2.3,0,2.5,2.7,2.5,2.7s2.5-1.5,3.7-3.7C0.1-12.3-0.2-14-0.2-14h2.3c0,2.3-0.1,4.3-0.2,6.2l0,0c2.1,5.4,6.2,4,6.2,4
		c1.6-2.2,4.1-2,4.1,0.6S10.1-0.3,10.1-0.3z M-1.3,7.1l-1.2-0.5l-2.9,3.6l2.6-1.5L-3,12.4l1-3.5l1,3.2L-1.3,7.1z M-6.2-6L-9-2.1
		l1.8-1.1l0.4,2.5l0.9-2.6l2,1.4L-6.2-6z M6.7-2.1v4l0.9-1.7l1.5,1.3L8.6-0.7L10-1.3L6.7-2.1z"/>
</symbol>
<g id="Layer_1">
	<use xlink:href="#canola" width="24.5px" height="28px" x="-12.3" y="-14" transform="matrix(1 0 0 -1 16.3438 16.0107)" overflow="visible"/>
</g>
</svg>
