<?xml version="1.0" encoding="utf-8"?>
<!-- Generator: Adobe Illustrator 18.0.0, SVG Export Plug-In . SVG Version: 6.00 Build 0)  -->
<!DOCTYPE svg PUBLIC "-//W3C//DTD SVG 1.1//EN" "http://www.w3.org/Graphics/SVG/1.1/DTD/svg11.dtd">
<svg version="1.1" xmlns="http://www.w3.org/2000/svg" xmlns:xlink="http://www.w3.org/1999/xlink" x="0px" y="0px" viewBox="0 0 32 32" enable-background="new 0 0 32 32" xml:space="preserve" width="32px" height="32px" fill="#333">
<symbol id="rapeseed" viewBox="-12.3 -14.4 26.9 27.4">
	<path fill="none" stroke="#333333" stroke-width="2px" stroke-linecap="round" stroke-miterlimit="10" d="M1.4,3.5
		c0,0,1.1-4.7-1.8-16.9"/>
	<path fill="#333333" d="M-4.3,10.1c0.6-0.6,0.7-1.5,0.3-2.1C-4.3,7.5-5,7.6-5.6,8.2S-6.3,9.7-6,10.2C-5.6,10.8-4.8,10.7-4.3,10.1z"/>
	<path fill="#333333" d="M-5.3,8.2c0,0,5-4.1,5.2-3.8s-3,3-4.5,4.8L-5.3,8.2z"/>
	<path fill="#333333" d="M-0.2,10.9C0.1,10-0.2,9-0.8,8.7s-1.4,0.2-1.7,1.1s-0.1,1.9,0.6,2.2C-1.3,12.3-0.5,11.8-0.2,10.9z"/>
	<path fill="#333333" d="M-2,9.8c0,0,2-4.1,2.3-3.9s-0.5,1.7-1.3,4.4L-2,9.8z"/>
	<path fill="#333333" d="M1.4,11.5c-0.1-0.9,0.3-1.6,0.9-1.7c0.6-0.1,1.2,0.6,1.3,1.5c0.1,0.9-0.3,1.6-0.9,1.7
		C2.1,13.1,1.5,12.4,1.4,11.5z"/>
	<path fill="#333333" d="M3.1,11c0,0-1.3-5.1-1.7-5S1.9,8.8,2,11.2L3.1,11z"/>
	<path fill="#333333" d="M7.8,2.7c0.7-0.8,1.8-1.8,2.6-1.3c1.2,0.7,1.1,2.3,1.1,2.3s2.8-1.2,3.1,2.5c0.3,5.2-4.2,3-4.2,3
		s0.1,3-3.7,1.6c-5.3-1.9-2-4.5-2-4.5S3.5,5.9,3.9,4.5c0.2-0.7,0.9-0.9,1.7-1C5.2,2.9,3.7,0.3,3.7,0.3S7.5,2.5,7.8,2.7z M8.1,6.2
		c0,0,1.2,0,1.2,0c0-0.1-1.9-0.7-1.9-0.7L6.8,7.7l0.7-1l2.9,1.9L8.1,6.2z"/>
	<path fill="#333333" d="M-1.4-6.4c-0.9,2-1.6,3.2-2.1,3.9C-2.8-2.3-2.1-2-2-1.4c0.2,1.3-0.9,1.6-0.9,1.6S0,2.9-5.1,4.3
		c-3.7,1-3.4-1.8-3.4-1.8s-4.4,1.8-3.7-3.1c0.5-3.5,3.1-2.1,3.1-2.1s0-1.5,1.2-2.1c0.8-0.4,1.8,0.7,2.4,1.4
		C-4.7-3.8-3.2-4.7-1.4-6.4z M-8.5,2l2.9-1.6l0.6,1l-0.4-2.2c0,0-1.8,0.5-1.8,0.5c0,0,1.1,0.1,1.1,0.1L-8.5,2z"/>
	<path fill="none" stroke="#333333" stroke-miterlimit="10" d="M6.8,3.9c0,0-3-2.9-5.4-7.2"/>
	<path fill="none" stroke="#333333" stroke-miterlimit="10" d="M-4.7-2.7c0,0,3.2-3.3,5.1-6"/>
</symbol>
<symbol id="wet" viewBox="-13 0 13 13">
	<g>
		<path fill="none" d="M-3,6.5C-3,4.6-4.6,3-6.5,3S-10,4.6-10,6.5S-8.4,10-6.5,10S-3,8.4-3,6.5z"/>
	</g>
	<polygon fill="none" points="-13,13 0,13 0,0 -13,0 	"/>
	<g>
		<path fill="#FFFFFF" d="M-6.3,2.1c-2,0-3.7,1.9-3.7,4.1c0,1.8,3,5.6,3.3,6c0.1,0.1,0.2,0.2,0.4,0.2c0,0,0,0,0,0
			c0.2,0,0.3-0.1,0.4-0.2c0.3-0.4,3.3-4.2,3.3-6C-2.6,4-4.2,2.1-6.3,2.1z"/>
		<path fill="#FFFFFF" d="M-6.3,12c0,0,3.2-4,3.2-5.7c0-2-1.4-3.6-3.2-3.6c-1.8,0-3.2,1.6-3.2,3.6C-9.5,8-6.3,12-6.3,12 M-6.3,13
			c-0.3,0-0.6-0.1-0.8-0.4c-0.6-0.7-3.4-4.4-3.4-6.4c0-2.6,1.9-4.6,4.2-4.6s4.2,2.1,4.2,4.6c0,1.9-2.6,5.3-3.4,6.4
			C-5.7,12.9-6,13-6.3,13C-6.3,13-6.3,13-6.3,13L-6.3,13z"/>
	</g>
	<g>
		<path fill="#333333" d="M-6.3,10.3c1.2-1.6,2.2-3.4,2.2-4.1c0-1.5-1-2.6-2.2-2.6c-1.2,0-2.2,1.2-2.2,2.6C-8.5,7-7.4,8.7-6.3,10.3
			 M-6.3,12c0,0-3.2-4-3.2-5.7c0-2,1.4-3.6,3.2-3.6c1.8,0,3.2,1.6,3.2,3.6C-3.1,8-6.3,12-6.3,12L-6.3,12z"/>
	</g>
</symbol>
<g id="Layer_1">
	<use xlink:href="#rapeseed" width="26.9px" height="27.4px" id="XMLID_17_" x="-12.3" y="-14.4" transform="matrix(1 0 0 -1 15.4492 15.0615)" overflow="visible"/>
	<use xlink:href="#wet" width="13px" height="13px" id="XMLID_40_" x="-13" y="0" transform="matrix(1 0 0 -1 32.0097 31.9962)" overflow="visible"/>
</g>
</svg>
