<?xml version="1.0" encoding="utf-8"?>
<!-- Generator: Adobe Illustrator 18.0.0, SVG Export Plug-In . SVG Version: 6.00 Build 0)  -->
<!DOCTYPE svg PUBLIC "-//W3C//DTD SVG 1.1//EN" "http://www.w3.org/Graphics/SVG/1.1/DTD/svg11.dtd">
<svg version="1.1" xmlns="http://www.w3.org/2000/svg" xmlns:xlink="http://www.w3.org/1999/xlink" x="0px" y="0px" viewBox="0 0 32 32" enable-background="new 0 0 32 32" xml:space="preserve" width="32px" height="32px" fill="#333">
<symbol id="peas" viewBox="-13.7 -14 27.4 28">
	<path fill="#333333" d="M-0.7,4.9C-3.9-3.7-1.9-12.5,2.2-14C8.3-9.2,6-4,8.1,1.6c0.8,2.1,1.3,4,1.3,6.4"/>
	<g>
		<path fill="#333333" d="M-11.5-12.5C-15.4-8.6-11.9,1-6.3,6.7c4.2,4.2,9.8,6.8,14.3,6.8c2.1,0,3.8-0.6,4.8-1.7l0.2-0.2L13,11.4
			c-1.3-5.1-4.3-6.8-7.2-8.6C4.2,1.8,2.5,0.9,1.1-0.7c-1.4-1.4-2.4-3-3.3-4.6c-1.8-3-3.6-6.1-8.8-7.4L-11.5-12.5z"/>
		<path fill="#FFFFFF" d="M8,13c1.9,0,3.5-0.5,4.5-1.5C10.6,3.9,4.7,4.1,0.7-0.3c-4.3-4.3-4.3-10-11.8-11.8
			C-14.2-9-12.4-0.2-5.9,6.3C-1.5,10.7,4,13,8,13 M8,14L8,14C3.3,14-2.3,11.3-6.7,7c-6.6-6.6-9-16.1-5.2-19.9l0.4-0.4l0.6,0.1
			c5.4,1.3,7.3,4.5,9.1,7.6C-0.8-4,0.1-2.4,1.4-1.1l0,0l0,0c1.3,1.5,2.9,2.4,4.6,3.4c3,1.8,6.2,3.6,7.5,8.9l0.1,0.6l-0.4,0.4
			C12.1,13.4,10.3,14,8,14L8,14z"/>
	</g>
	<g>
		<path fill="#FFFFFF" d="M-5.2-5.8c-1.2-1.2-3.1-1.2-4.2,0s-1.2,3.1,0,4.2s3.1,1.2,4.2,0S-4-4.6-5.2-5.8z"/>
	</g>
	<g>
		<path fill="#FFFFFF" d="M-0.2,0.6c-1.3-1.3-3.4-1.3-4.7,0S-6.3,4-5,5.3s3.4,1.3,4.7,0S1.1,1.9-0.2,0.6z"/>
	</g>
	<g>
		<path fill="#FFFFFF" d="M6.1,5.6C5,4.4,3.1,4.4,1.9,5.6s-1.2,3.1,0,4.2S5,11,6.1,9.8S7.3,6.7,6.1,5.6z"/>
	</g>
</symbol>
<g id="Layer_1">
	<use xlink:href="#peas" width="27.4px" height="28px" x="-13.7" y="-14" transform="matrix(1 0 0 -1 16.1015 15.3056)" overflow="visible"/>
</g>
</svg>
