<?xml version="1.0" encoding="utf-8"?>
<!-- Generator: Adobe Illustrator 19.1.0, SVG Export Plug-In . SVG Version: 6.00 Build 0)  -->
<!DOCTYPE svg PUBLIC "-//W3C//DTD SVG 1.1//EN" "http://www.w3.org/Graphics/SVG/1.1/DTD/svg11.dtd">
<svg version="1.1" id="Layer_1" xmlns="http://www.w3.org/2000/svg" xmlns:xlink="http://www.w3.org/1999/xlink" x="0px" y="0px" viewBox="0 0 32 32" enable-background="new 0 0 32 32" xml:space="preserve" width="32px" height="32px" fill="#333">
<symbol id="grass-seed" viewBox="-14 -14 28 28">
	<path id="XMLID_42_" fill="#333333" d="M3-14h-8C-6,7,3,14,3,14S-1.6,0,3-14z"/>
	<path id="XMLID_41_" fill="#333333" d="M-6-14c0,13-8,20-8,20s4-10,2-20H-6z"/>
	<path id="XMLID_39_" fill="#333333" d="M5-14C6-6,9,1,14,6c-1.8-6.2-2.6-14-2-20H5z"/>
	<path id="XMLID_38_" fill="#333333" d="M3,3C1.5-3.3,4-10.9,4-10.9C5.1,3.1,10,13,10,13S6.1,9.3,3,3z"/>
	<polygon display="none" fill="none" points="-14,13 14,13 14,-14 -14,-14 	"/>
</symbol>
<use xlink:href="#grass-seed" width="28px" height="28px" x="-14" y="-14" transform="matrix(1 0 0 -1 16 16)" overflow="visible"/>
</svg>
