<?xml version="1.0" encoding="utf-8"?>
<!-- Generator: Adobe Illustrator 18.0.0, SVG Export Plug-In . SVG Version: 6.00 Build 0)  -->
<!DOCTYPE svg PUBLIC "-//W3C//DTD SVG 1.1//EN" "http://www.w3.org/Graphics/SVG/1.1/DTD/svg11.dtd">
<svg version="1.1" xmlns="http://www.w3.org/2000/svg" xmlns:xlink="http://www.w3.org/1999/xlink" x="0px" y="0px" viewBox="0 0 32 32" enable-background="new 0 0 32 32" xml:space="preserve" width="32px" height="32px" fill="#333">
<symbol id="Sorghum" viewBox="-10.2 -14 20.4 28">
	<g>
		<path fill="#333333" d="M1.3-4.7C1.6-4.5,1.8-4.3,2.1-4c0.6,0.5,1.2,1.1,1.7,1.6c0.5,0.5,1,1,1.4,1.4c0.5-0.5,1.3-0.9,2.1-0.9
			c1.6,0,2.9,1.3,2.9,2.9c0,1.6-1.3,2.9-2.9,2.9C5.7,3.9,4.4,2.6,4.4,1c0-0.5,0.1-1,0.4-1.4C4.3-0.6,3.7-1,3-1.5
			C2.3-1.9,1.7-2.3,1-2.7C1-2.8,0.9-2.8,0.9-2.8L0.7,1.3c0.2,0.2,0.4,0.3,0.6,0.5c0.3,0.2,0.5,0.5,0.8,0.7c0.6,0.5,1.2,1.1,1.7,1.6
			c0.5,0.5,1,1,1.4,1.4C5.7,5,6.4,4.6,7.3,4.6c1.6,0,2.9,1.3,2.9,2.9c0,1.6-1.3,2.9-2.9,2.9c-1.6,0-2.9-1.3-2.9-2.9
			c0-0.5,0.1-1,0.4-1.4C4.3,5.9,3.7,5.5,3,5.1C2.3,4.7,1.7,4.3,1,3.8C0.9,3.7,0.8,3.7,0.6,3.6L0.5,8.2c1.4,0.2,2.5,1.4,2.5,2.9
			C2.9,12.7,1.6,14,0,14c-1.6,0-2.9-1.3-2.9-2.9c0-1.5,1.1-2.7,2.5-2.9l-0.2-4.6C-0.8,3.7-0.9,3.7-1,3.8c-0.6,0.4-1.3,0.9-2,1.3
			c-0.7,0.4-1.3,0.8-1.7,1.1c0.2,0.4,0.4,0.9,0.4,1.4c0,1.6-1.3,2.9-2.9,2.9c-1.6,0-2.9-1.3-2.9-2.9c0-1.6,1.3-2.9,2.9-2.9
			c0.8,0,1.6,0.3,2.1,0.9c0.3-0.3,0.8-0.8,1.4-1.4c0.5-0.5,1.1-1.1,1.7-1.6c0.3-0.3,0.6-0.5,0.8-0.7c0.2-0.2,0.4-0.3,0.6-0.5
			l-0.1-4.2C-0.9-2.8-1-2.8-1-2.7c-0.6,0.4-1.3,0.9-2,1.3C-3.7-1-4.3-0.6-4.7-0.4C-4.5,0-4.4,0.5-4.4,1c0,1.6-1.3,2.9-2.9,2.9
			c-1.6,0-2.9-1.3-2.9-2.9c0-1.6,1.3-2.9,2.9-2.9c0.8,0,1.6,0.3,2.1,0.9c0.3-0.3,0.8-0.8,1.4-1.4C-3.3-2.9-2.7-3.5-2.1-4
			c0.3-0.3,0.6-0.5,0.8-0.7c0.1-0.1,0.3-0.2,0.4-0.3l-0.1-4.2C-1.7-8.9-2.4-8.4-3-8C-3.7-7.6-4.3-7.2-4.7-7c0.2,0.4,0.4,0.9,0.4,1.4
			c0,1.6-1.3,2.9-2.9,2.9c-1.6,0-2.9-1.3-2.9-2.9c0-1.6,1.3-2.9,2.9-2.9c0.8,0,1.6,0.3,2.1,0.9C-4.8-8-4.3-8.4-3.8-9
			c0.5-0.5,1.1-1.1,1.7-1.6c0.3-0.3,0.6-0.5,0.8-0.7c0.1,0,0.1-0.1,0.2-0.1L-1.3-14h2.5l-0.1,2.6c0.1,0,0.1,0.1,0.2,0.1
			c0.3,0.2,0.5,0.5,0.8,0.7C2.7-10,3.3-9.5,3.8-9c0.5,0.5,1,1,1.4,1.4c0.5-0.5,1.3-0.9,2.1-0.9c1.6,0,2.9,1.3,2.9,2.9
			c0,1.6-1.3,2.9-2.9,2.9C5.7-2.7,4.4-4,4.4-5.6c0-0.5,0.1-1,0.4-1.4C4.3-7.2,3.7-7.6,3-8C2.4-8.4,1.7-8.9,1.1-9.3L0.9-5.1
			C1.1-4.9,1.2-4.8,1.3-4.7z"/>
	</g>
</symbol>
<g id="Layer_1">
	<use xlink:href="#Sorghum" width="20.4px" height="28px" id="XMLID_6_" x="-10.2" y="-14" transform="matrix(1 0 0 -1 15.9997 16.0006)" overflow="visible"/>
</g>
</svg>
