<?xml version="1.0" encoding="utf-8"?>
<!-- Generator: Adobe Illustrator 19.1.0, SVG Export Plug-In . SVG Version: 6.00 Build 0)  -->
<!DOCTYPE svg PUBLIC "-//W3C//DTD SVG 1.1//EN" "http://www.w3.org/Graphics/SVG/1.1/DTD/svg11.dtd">
<svg version="1.1" id="Layer_1" xmlns="http://www.w3.org/2000/svg" xmlns:xlink="http://www.w3.org/1999/xlink" x="0px" y="0px" viewBox="0 0 32 32" enable-background="new 0 0 32 32" xml:space="preserve" width="32px" height="32px" fill="#333">
<symbol id="flax" viewBox="-14 -14 28 28">
	<path id="XMLID_35_" fill="#333333" d="M14,2.5C14,5,13.1,6.4,13,7c0,0,0-5.1-2-6c-0.1,5.2-2.2,9.4-7.1,10.9C2,12.6,0.7,13.2,0,14
		c-0.8-0.8-2.1-1.4-4.2-2.2c-4.7-1.6-6.7-5.7-6.8-10.8C-13,3-12.7,6-13,7c0,0-1-2.1-1-4.5C-14-4.6-8-10.7-2-11v-3h1.9H2v3
		C8-10.7,14-4.6,14,2.5z M0.1,11C6.3,11,9,7.2,9,1.2c0-2.2,0.1-3.3-2-4.6C6.5,2.6,0,6,0,6C0,1.9,0-3-2.9-5.3C-6-4.7-9-2-9,1.2
		C-9,7.2-5.9,11,0.1,11z"/>
	<polygon display="none" fill="none" points="-14,14 14,14 14,-14 -14,-14 	"/>
</symbol>
<use xlink:href="#flax" width="28px" height="28px" x="-14" y="-14" transform="matrix(1 0 0 -1 16 16)" overflow="visible"/>
</svg>
