<?xml version="1.0" encoding="utf-8"?>
<!-- Generator: Adobe Illustrator 19.1.0, SVG Export Plug-In . SVG Version: 6.00 Build 0)  -->
<!DOCTYPE svg PUBLIC "-//W3C//DTD SVG 1.1//EN" "http://www.w3.org/Graphics/SVG/1.1/DTD/svg11.dtd">
<svg version="1.1" id="Layer_1" xmlns="http://www.w3.org/2000/svg" xmlns:xlink="http://www.w3.org/1999/xlink" x="0px" y="0px" viewBox="0 0 32 32" enable-background="new 0 0 32 32" xml:space="preserve" width="32px" height="32px" fill="#333">
<symbol id="Hay" viewBox="-14 -14 28 28">
	<g>
		<path fill="#333333" d="M14,7c-0.7,5-3.9,6.5-5.2,6.9C-0.7,10.7-0.2-4-0.2-4S-3-1.3-2.1,6.6L-1,4.9c0,0,1,7.6,7.6,9.1L-6,13.4
			c-1.9-0.3-4.3-2.4-5.9-5.5l-2.1,2.6V0.1l0.1,0.2c0-5.5,3-11.3,5.7-12L4.9-14c3.8-0.5,7.4,5.5,8.3,13.2c0.4,3.2,0.1,6.3-0.6,8.9
			L14,7z M-12.2,3.3l1.6-1.8c0,0,0.1,4.8,2.6,8.4c0,0-3.4-10.3,0.9-19.1C-7.2-9.1-12-7.1-12.2,3.3z M9.4,9c0,0-2.1-0.6-1.9-1.6
			c0,0,5,1.3,3-8.3c0,0,0,5.5-2.7,6.2c-2,0.5-3.6-1.2-3.6-1.2S5,10.4,9.4,9z M7-10.8L7.6-9c0,0-4-0.6-4.6,5c0,0,3.5-6.7,8.6,0.7
			C11.5-3.3,10.4-9.1,7-10.8z"/>
	</g>
</symbol>
<use xlink:href="#Hay" width="28px" height="28px" id="XMLID_4_" x="-14" y="-14" transform="matrix(1 0 0 -1 16 16.1081)" overflow="visible"/>
</svg>
