<?xml version="1.0" encoding="utf-8"?>
<!-- Generator: Adobe Illustrator 18.0.0, SVG Export Plug-In . SVG Version: 6.00 Build 0)  -->
<!DOCTYPE svg PUBLIC "-//W3C//DTD SVG 1.1//EN" "http://www.w3.org/Graphics/SVG/1.1/DTD/svg11.dtd">
<svg version="1.1" xmlns="http://www.w3.org/2000/svg" xmlns:xlink="http://www.w3.org/1999/xlink" x="0px" y="0px" viewBox="0 0 32 32" enable-background="new 0 0 32 32" xml:space="preserve" width="32px" height="32px" fill="#333">
<symbol id="sunflower" viewBox="-14.8 -14.8 29.5 29.5">
	<path fill="#FFFFFF" stroke="#333333" stroke-miterlimit="10" d="M-3,3.5c0,7,3,10.5,3,10.5c0,0,3-3.5,3-10.5H-3z"/>
	<path fill="#FFFFFF" stroke="#333333" stroke-miterlimit="10" d="M-3.5,3C-10.5,3-14,0-14,0c0,0,3.5-3,10.5-3V3z"/>
	<path fill="#FFFFFF" stroke="#333333" stroke-miterlimit="10" d="M3.5,3C10.5,3,14,0,14,0c0,0-3.5-3-10.5-3V3z"/>
	<path fill="#FFFFFF" stroke="#333333" stroke-miterlimit="10" d="M-3-3.5c0-7,3-10.5,3-10.5c0,0,3,3.5,3,10.5H-3z"/>
	<path fill="#FFFFFF" stroke="#333333" stroke-miterlimit="10" d="M-1.5,4.4C-7.6,7.9-12.1,7-12.1,7s1.5-4.4,7.6-7.9L-1.5,4.4z"/>
	<path fill="#FFFFFF" stroke="#333333" stroke-miterlimit="10" d="M4.5,0.8C10.6-2.7,12.1-7,12.1-7S7.6-7.9,1.5-4.4L4.5,0.8z"/>
	<path fill="#FFFFFF" stroke="#333333" stroke-miterlimit="10" d="M-0.8-4.5C2.7-10.6,7-12.1,7-12.1S7.8-7.6,4.3-1.5L-0.8-4.5z"/>
	<path fill="#FFFFFF" stroke="#333333" stroke-miterlimit="10" d="M-4.3,1.5C-7.8,7.6-7,12.1-7,12.1s4.3-1.5,7.8-7.6L-4.3,1.5z"/>
	<path fill="#FFFFFF" stroke="#333333" stroke-miterlimit="10" d="M-4.5,0.8C-10.6-2.7-12.1-7-12.1-7s4.5-0.8,10.6,2.7L-4.5,0.8z"/>
	<path fill="#FFFFFF" stroke="#333333" stroke-miterlimit="10" d="M-4.4-1.5C-7.9-7.6-7-12.1-7-12.1s4.4,1.5,7.9,7.6L-4.4-1.5z"/>
	<path fill="#FFFFFF" stroke="#333333" stroke-miterlimit="10" d="M1.5,4.3C7.6,7.8,12.1,7,12.1,7s-1.5-4.3-7.6-7.8L1.5,4.3z"/>
	<path fill="#FFFFFF" stroke="#333333" stroke-miterlimit="10" d="M-0.8,4.5C2.7,10.6,7,12.1,7,12.1S7.9,7.6,4.4,1.5L-0.8,4.5z"/>
	<g>
		<path fill="#333333" d="M6,0c0-3.3-2.7-6-6-6s-6,2.7-6,6s2.7,6,6,6S6,3.3,6,0z"/>
	</g>
</symbol>
<g id="Layer_1">
	<use xlink:href="#sunflower" width="29.5px" height="29.5px" x="-14.8" y="-14.8" transform="matrix(1 0 0 -1 16 16)" overflow="visible"/>
</g>
</svg>
