<?xml version="1.0" encoding="utf-8"?>
<!-- Generator: Adobe Illustrator 19.1.0, SVG Export Plug-In . SVG Version: 6.00 Build 0)  -->
<!DOCTYPE svg PUBLIC "-//W3C//DTD SVG 1.1//EN" "http://www.w3.org/Graphics/SVG/1.1/DTD/svg11.dtd">
<svg version="1.1" id="Layer_1" xmlns="http://www.w3.org/2000/svg" xmlns:xlink="http://www.w3.org/1999/xlink" x="0px" y="0px" viewBox="0 0 32 32" enable-background="new 0 0 32 32" xml:space="preserve" width="32px" height="32px" fill="#333">
<symbol id="oat" viewBox="-11 -14 22 28">
	<path fill="#333333" d="M10-14c0,0-2,14.4-3,21C6.7,9.3,5,9,4,10c-1,1-2,3-2,4h-4c0-1-1-3-2-4c-1-1-2.7-0.7-3-3c-1-6.6-3-21-3-21
		c0.6,1.3,1.3,3.5,1.8,4.6c0.3-1.1,0.8-1.8,1.5-2.1c0.3-0.1,0.5-0.2,0.8-0.2c1.8,0,4,1.9,6,5.1c2-3.2,4.3-5.1,6-5.1
		c0.3,0,0.6,0.1,0.8,0.2c0.6,0.3,1.1,0.8,1.3,1.5C8.9-11,9.5-13,10-14z M-6.2-10.7c-0.6,0.3-1,1.2-1.1,2.6c4.8,7.8,7.5,5.8,9.7,11.7
		c1.3,3.5-1.1,5.5-1.1,5.5S3.7,8,3.7,5.3c0-1.3-0.8-3.9-2.2-7.2C-1.1-7.9-4.6-11.4-6.2-10.7z M6.6-10.7c-1.3-0.6-3.8,1.5-5.8,5
		c0.6,1,2,4.1,2.1,4.4c0.9-1.4,2.8-4.3,4.8-7.6C7.5-9.8,7.1-10.4,6.6-10.7z"/>
	<polygon display="none" fill="none" points="-11,14 11,14 11,-14 -11,-14 	"/>
</symbol>
<use xlink:href="#oat" width="22px" height="28px" x="-11" y="-14" transform="matrix(1 0 0 -1 16 16)" overflow="visible"/>
</svg>
