<?xml version="1.0" encoding="utf-8"?>
<!-- Generator: Adobe Illustrator 18.0.0, SVG Export Plug-In . SVG Version: 6.00 Build 0)  -->
<!DOCTYPE svg PUBLIC "-//W3C//DTD SVG 1.1//EN" "http://www.w3.org/Graphics/SVG/1.1/DTD/svg11.dtd">
<svg version="1.1" xmlns="http://www.w3.org/2000/svg" xmlns:xlink="http://www.w3.org/1999/xlink" x="0px" y="0px" viewBox="0 0 32 32" enable-background="new 0 0 32 32" xml:space="preserve" width="32px" height="32px" fill="#333">
<symbol id="Corn" viewBox="-12.7 -14 25.4 28">
	<path fill="#333333" d="M8.9,9.6H5.1C4,12.2,2.4,14,0.7,14c-2.6,0-4.7-3.7-5.6-8.8c-2.2,0.3-5.9-0.5-7.8-6.1l7.4,1.4
		c0-1.3,0.3-10.6,4.4-12.7l0-1.7h2.6l0,1.7C6.9-10.8,8.2,4.5,8.2,4.5c3.3-1.8,4.3-7.2,4.3-7.2C13.5,6.9,8.9,9.6,8.9,9.6z M-3.6,4.9
		c0.7,3.7,2.4,6.3,4.3,6.3c2.6,0,4.7-4.8,4.7-10.6c0-1.1-0.1-2.2-0.2-3.3C3.6-0.3,0.7,3.5-3.6,4.9z"/>
</symbol>
<symbol id="wet" viewBox="-13 0 13 13">
	<g>
		<path fill="none" d="M-3,6.5C-3,4.6-4.6,3-6.5,3S-10,4.6-10,6.5S-8.4,10-6.5,10S-3,8.4-3,6.5z"/>
	</g>
	<polygon fill="none" points="-13,13 0,13 0,0 -13,0 	"/>
	<g>
		<path fill="#FFFFFF" d="M-6.3,2.1c-2,0-3.7,1.9-3.7,4.1c0,1.8,3,5.6,3.3,6c0.1,0.1,0.2,0.2,0.4,0.2c0,0,0,0,0,0
			c0.2,0,0.3-0.1,0.4-0.2c0.3-0.4,3.3-4.2,3.3-6C-2.6,4-4.2,2.1-6.3,2.1z"/>
		<path fill="#FFFFFF" d="M-6.3,12c0,0,3.2-4,3.2-5.7c0-2-1.4-3.6-3.2-3.6c-1.8,0-3.2,1.6-3.2,3.6C-9.5,8-6.3,12-6.3,12 M-6.3,13
			c-0.3,0-0.6-0.1-0.8-0.4c-0.6-0.7-3.4-4.4-3.4-6.4c0-2.6,1.9-4.6,4.2-4.6s4.2,2.1,4.2,4.6c0,1.9-2.6,5.3-3.4,6.4
			C-5.7,12.9-6,13-6.3,13C-6.3,13-6.3,13-6.3,13L-6.3,13z"/>
	</g>
	<g>
		<path fill="#333333" d="M-6.3,10.3c1.2-1.6,2.2-3.4,2.2-4.1c0-1.5-1-2.6-2.2-2.6c-1.2,0-2.2,1.2-2.2,2.6C-8.5,7-7.4,8.7-6.3,10.3
			 M-6.3,12c0,0-3.2-4-3.2-5.7c0-2,1.4-3.6,3.2-3.6c1.8,0,3.2,1.6,3.2,3.6C-3.1,8-6.3,12-6.3,12L-6.3,12z"/>
	</g>
</symbol>
<g id="Layer_1">
	<use xlink:href="#Corn" width="25.4px" height="28px" id="XMLID_45_" x="-12.7" y="-14" transform="matrix(1 0 0 -1 15 16.0002)" overflow="visible"/>
	<use xlink:href="#wet" width="13px" height="13px" id="XMLID_14_" x="-13" y="0" transform="matrix(1 0 0 -1 32.0097 31.9962)" overflow="visible"/>
</g>
</svg>
