<?xml version="1.0" encoding="utf-8"?>
<!-- Generator: Adobe Illustrator 18.0.0, SVG Export Plug-In . SVG Version: 6.00 Build 0)  -->
<!DOCTYPE svg PUBLIC "-//W3C//DTD SVG 1.1//EN" "http://www.w3.org/Graphics/SVG/1.1/DTD/svg11.dtd">
<svg version="1.1" xmlns="http://www.w3.org/2000/svg" xmlns:xlink="http://www.w3.org/1999/xlink" x="0px" y="0px" viewBox="0 0 32 32" enable-background="new 0 0 32 32" xml:space="preserve" width="32px" height="32px" fill="#333">
<symbol id="Wheat" viewBox="-10.5 -14 21 28">
	<g>
		<g>
			<path fill="#333333" d="M6.9-3.8c-1.6-2.6-5-1.6-5-1.6s-2.3,2.5-0.7,5c1.6,2.6,6.8,5.2,6.8,5.2S8.5-1.3,6.9-3.8z"/>
			<path fill="#333333" d="M6.5-13.1c-2.4-1.9-5.3,0-5.3,0s-1.4,3.1,1,5c2.4,1.9,8.2,2.8,8.2,2.8S9-11.2,6.5-13.1z"/>
			<path fill="#333333" d="M-6.5-13.1c2.4-1.9,5.3,0,5.3,0s1.4,3.1-1,5c-2.4,1.9-8.2,2.8-8.2,2.8S-9-11.2-6.5-13.1z"/>
			<path fill="#333333" d="M-6.8-3.8c1.6-2.6,5-1.6,5-1.6s2.3,2.5,0.7,5C-2.8,2.1-8,4.7-8,4.7S-8.4-1.3-6.8-3.8z"/>
			<path fill="#333333" d="M3.2,6.1c0-3-3.3-3.9-3.3-3.9s-3.3,0.9-3.3,3.9c0,3,3.6,7.9,3.6,7.9S3.2,9.1,3.2,6.1z"/>
		</g>
	</g>
</symbol>
<g id="Layer_1">
	<use xlink:href="#Wheat" width="21px" height="28px" id="XMLID_8_" x="-10.5" y="-14" transform="matrix(1 0 0 -1 16 16)" overflow="visible"/>
</g>
</svg>
