<?xml version="1.0" encoding="utf-8"?>
<!-- Generator: Adobe Illustrator 18.0.0, SVG Export Plug-In . SVG Version: 6.00 Build 0)  -->
<!DOCTYPE svg PUBLIC "-//W3C//DTD SVG 1.1//EN" "http://www.w3.org/Graphics/SVG/1.1/DTD/svg11.dtd">
<svg version="1.1" xmlns="http://www.w3.org/2000/svg" xmlns:xlink="http://www.w3.org/1999/xlink" x="0px" y="0px" viewBox="0 0 32 32" enable-background="new 0 0 32 32" xml:space="preserve" width="32px" height="32px" fill="#333">
<symbol id="Corn" viewBox="-12.7 -14 25.4 28">
	<path fill="#333333" d="M8.9,9.6H5.1C4,12.2,2.4,14,0.7,14c-2.6,0-4.7-3.7-5.6-8.8c-2.2,0.3-5.9-0.5-7.8-6.1l7.4,1.4
		c0-1.3,0.3-10.6,4.4-12.7l0-1.7h2.6l0,1.7C6.9-10.8,8.2,4.5,8.2,4.5c3.3-1.8,4.3-7.2,4.3-7.2C13.5,6.9,8.9,9.6,8.9,9.6z M-3.6,4.9
		c0.7,3.7,2.4,6.3,4.3,6.3c2.6,0,4.7-4.8,4.7-10.6c0-1.1-0.1-2.2-0.2-3.3C3.6-0.3,0.7,3.5-3.6,4.9z"/>
</symbol>
<g id="Layer_1">
	<use xlink:href="#Corn" width="25.4px" height="28px" id="XMLID_2_" x="-12.7" y="-14" transform="matrix(1 0 0 -1 15 16.0002)" overflow="visible"/>
</g>
</svg>
