<svg version="1.1" id="Layer_1" xmlns="http://www.w3.org/2000/svg" xmlns:xlink="http://www.w3.org/1999/xlink" x="0px" y="0px" viewBox="0 0 32 22" style="enable-background:new 0 0 32 22;" xml:space="preserve" width="32px" height="22px" fill="#333">
<style type="text/css">
	.shadow{opacity:0.3;}
	.grey{fill:#808082;}
	.window{fill:#BBE3F3;}
	.primary{fill:#339647;}
	.stripe{fill:#EBD909;}
	.secondary{fill:#EBD909;}
</style>
<polygon class="grey" points="6,2 5,1 2,8 4,9 "/>
<polygon class="secondary" points="5,15 2,15 1,12 2,12 3,10 4,10 5,12 6,12 "/>
<polygon class="shadow" points="6,12 5,15 2,15 1,12 "/>
<polygon class="grey" points="13,4 7,2.5 7,2 13,3.5 "/>
<rect x="6" y="7" class="secondary" width="1px" height="2px"/>
<rect x="21" y="20" class="grey" width="6px" height="2px"/>
<polygon class="grey" points="7,3 15,5 17,7 16,8 6,4 6,3 "/>
<path class="primary" d="M25,14h-7V5c0,0,1,0,3,0c4,0,4,5,4,5V14z"/>
<path class="window" d="M19,10V6c0,0,1,0,2,0c3,0,3,4,3,4H19z"/>
<polygon class="black" points="20,14 18,14 18,12 19,12 "/>
<polygon class="shadow" points="21,15 25,15 25,12.3 25,11 "/>
<rect x="18" y="14" class="grey" width="7px" height="2px"/>
<polygon class="primary" points="24,17 32,16 32,14 31,9 26,9 24,14 "/>
<polygon class="black" points="31,9 30,9 28,9 28,7 27,7 27,9 26,9 26,10 30,10 30,15 27,15 24,16 17.5,16 16,13 17,7 15,7 13,13
	13,9 12,9 12,16 7,16 7,9 6,9 6,16 1,16 1,9 0,9 0,16 0,17 0,18 27,18 32,16 32,14 "/>
<rect x="26" y="10" class="stripe" width="4px" height="1px"/>
<rect x="26" y="12" class="shadow" width="4px" height="3px"/>
<polygon class="primary" points="17,13 19,13 20,17 17,17 "/>
<path class="black" d="M26.5,15c-1,0-1.9,0.4-2.5,1.1c-0.6-0.6-1.5-1.1-2.5-1.1c-1.9,0-3.5,1.6-3.5,3.5s1.6,3.5,3.5,3.5
	c1,0,1.9-0.4,2.5-1.1c0.6,0.6,1.5,1.1,2.5,1.1c1.9,0,3.5-1.6,3.5-3.5S28.4,15,26.5,15z"/>
<path class="secondary" d="M23,18.5c0,0.8-0.7,1.5-1.5,1.5S20,19.3,20,18.5s0.7-1.5,1.5-1.5S23,17.7,23,18.5z M26.5,17
	c-0.8,0-1.5,0.7-1.5,1.5s0.7,1.5,1.5,1.5s1.5-0.7,1.5-1.5S27.3,17,26.5,17z"/>
<path class="shadow" d="M22.5,18.5c0,0.6-0.4,1-1,1s-1-0.4-1-1s0.4-1,1-1S22.5,17.9,22.5,18.5z M26.5,17.5c-0.6,0-1,0.4-1,1
	s0.4,1,1,1s1-0.4,1-1S27.1,17.5,26.5,17.5z"/>
<rect x="12" y="7" class="secondary" width="1px" height="2px"/>
<rect y="7" class="secondary" width="1px" height="2px"/>
<path class="black" d="M6,0L2,10l2,1c0.6,0,1-0.4,1-1c0-0.3-0.2-0.6-0.5-0.8C5.4,6.5,6.8,1.7,7,1C7.3,0,6,0,6,0z"/>
<circle class="black" cx="11.5" cy="4.5" r="0.5"/>
<circle class="black" cx="13" cy="4" r="1"/>
<circle class="black" cx="7" cy="3" r="1"/>
<circle class="black" cx="16" cy="7" r="1"/>
<circle class="black" cx="13.5" cy="5.5" r="0.5"/>
<polygon class="black" points="11.2,4.1 12.2,3.4 14,4 14,5.5 13.3,5.9 11.2,4.9 "/>
<circle class="black" cx="2.5" cy="8.5" r="0.5"/>
<circle class="black" cx="5.5" cy="1.5" r="0.5"/>
<rect x="5" y="15" class="grey" width="6px" height="7px"/>
<path class="black" d="M10.5,15c-1,0-1.9,0.4-2.5,1.1C7.4,15.4,6.5,15,5.5,15C3.6,15,2,16.6,2,18.5S3.6,22,5.5,22
	c1,0,1.9-0.4,2.5-1.1c0.6,0.6,1.5,1.1,2.5,1.1c1.9,0,3.5-1.6,3.5-3.5S12.4,15,10.5,15z"/>
<path class="secondary" d="M12,18.5c0,0.8-0.7,1.5-1.5,1.5S9,19.3,9,18.5S9.7,17,10.5,17S12,17.7,12,18.5z M5.5,17
	C4.7,17,4,17.7,4,18.5S4.7,20,5.5,20S7,19.3,7,18.5S6.3,17,5.5,17z"/>
<path class="shadow" d="M11.5,18.5c0,0.6-0.4,1-1,1s-1-0.4-1-1s0.4-1,1-1S11.5,17.9,11.5,18.5z M5.5,17.5c-0.6,0-1,0.4-1,1
	s0.4,1,1,1s1-0.4,1-1S6.1,17.5,5.5,17.5z"/>
</svg>
