<svg version="1.1" id="Layer_1" xmlns="http://www.w3.org/2000/svg" xmlns:xlink="http://www.w3.org/1999/xlink" x="0px" y="0px" viewBox="0 0 32 22" style="enable-background:new 0 0 32 22;" xml:space="preserve" width="32px" height="22px" fill="#333">
<style type="text/css">
	.shadow{opacity:0.3;}
	.grey{fill:#808082;}
	.window{fill:#BBE3F3;}
	.primary{fill:#339647;}
	.stripe{fill:#EBD909;}
</style>
<rect x="3" y="18" class="grey" width="15px" height="2px"/>
<rect x="1" y="6" class="black" width="2px" height="2px"/>
<polygon class="window" points="17,13 20,6 22,6 "/>
<polygon class="black" points="14,17 18,10 19,11 15,18 "/>
<polygon class="window" points="22,6 28,3 28,2 22,5 "/>
<path class="black" d="M23,3l-4,3v2c0,0.6,0.4,1,1,1s1-0.4,1-1l2-2V3z"/>
<path class="grey" d="M28,0c0,0-7.9,2.6-9,3c-2,0.8-2.7,1.6-3,2c-0.9,1.4-6,9-6,9l3,3c0,0,5.4-8.9,6-10c1-2,9-6,9-6V0z"/>
<polygon class="window" points="12,12 4,12 4,3 13,3 "/>
<rect x="6" y="3" class="shadow" width="0.5px" height="5px"/>
<rect x="10" y="3" class="shadow" width="0.5px" height="9px"/>
<polygon class="black" points="12,12 12,3 13,3 "/>
<rect x="3" y="2" class="primary" width="10px" height="1px"/>
<polygon class="primary" points="15,17 10,17 10,12 12,12 "/>
<polygon class="shadow" points="15,17 10,17 10,12 12,12 "/>
<path class="grey" d="M27,13c0.6,0,1,0.4,1,1c0,0,0,1,0,2c0,2,3,4,3,4h-1c0,0-4-1-4-6C26,13.4,26.4,13,27,13z"/>
<path class="shadow" d="M27,13c0.6,0,1,0.4,1,1c0,0,0,1,0,2c0,2,3,4,3,4h-1c0,0-4-1-4-6C26,13.4,26.4,13,27,13z"/>
<circle class="grey" cx="27" cy="14" r="1"/>
<polygon class="grey" points="31,13 30,12 28,12 27,13 27,15 31,15 "/>
<path class="grey" d="M31,13c-0.6,0-1,0.4-1,1c0,0,0,1,0,2c0,2-3,4-3,4h1c0,0,4-1,4-6C32,13.4,31.6,13,31,13z"/>
<polygon class="primary" points="12,14 0,14 0,7 7,7 10,12 12,12 "/>
<polygon class="black" points="12,15 4,15 2,14 12,14 "/>
<rect x="9" y="14" class="black" width="3px" height="3px"/>
<rect x="3" y="17" class="black" width="14px" height="2px"/>
<rect y="21" class="black" width="4px" height="1px"/>
<polygon class="black" points="3,21 1,21 3,17 5,17 "/>
<polygon class="black" points="18,21 20,21 18,17 16,17 "/>
<polygon class="stripe" points="0,8 7,8 8,9 0,9 "/>
<rect x="4" y="3" class="black" width="0.5px" height="9px"/>
<path class="black" d="M30,0h-2v2c-0.6,0-1,0.4-1,1c0,0.6,0.4,1,1,1v9c0,0.6,0.4,1,1,1s1-0.4,1-1c0-0.6,0-2,0-2s2-8,2-8
	C32,0,30,0,30,0z"/>
<rect x="8" y="16.5" class="primary" width="6px" height="0.5px"/>
<rect y="12" class="black" width="12px" height="0.5px"/>
<rect x="17" y="21" class="black" width="4px" height="1px"/>
</svg>
