<svg version="1.1" id="Layer_1" xmlns="http://www.w3.org/2000/svg" xmlns:xlink="http://www.w3.org/1999/xlink" x="0px" y="0px" viewBox="0 0 32 22" style="enable-background:new 0 0 32 22;" xml:space="preserve" width="32px" height="22px" fill="#333">
<style type="text/css">
	.shadow{opacity:0.3;}
	.grey{fill:#808082;}
	.window{fill:#BBE3F3;}
	.primary{fill:#339647;}
	.secondary{fill:#EBD909;}
	.highlight{opacity:0.2;fill:#FFFFFF;}
	.secondary{fill:#EBD909;}
</style>
<polygon class="black" points="27.4,5 25.4,5 22,13 24,13 "/>
<polygon class="black" points="24,7 28,2 27,1 22,6 22,7 "/>
<rect x="27" y="3" class="black" width="3px" height="2px"/>
<rect x="15" y="12" class="grey" width="4px" height="2px"/>
<polygon class="black" points="19,14 23,14 19,12 "/>
<polygon class="black" points="11,2 14,2 14,1 13,0 11,0 "/>
<rect y="6" class="primary" width="12px" height="8px"/>
<polygon class="primary" points="19,1 13,1 12,6 12,14 17,14 19,11 20,8 "/>
<polygon class="black" points="6,17 1,18 1,21 6,18 "/>
<polygon class="primary" points="20,17 5,17 0,15 0,14 20,14 "/>
<polygon class="shadow" points="20,17 5,17 0,15 0,14 20,14 "/>
<circle class="black" cx="23" cy="17" r="5"/>
<circle class="secondary" cx="23" cy="17" r="2.8"/>
<path class="black" d="M1,22H0c0,0,1-2,1-3c0-2-1-3-1-3h1c0,0,2,0.7,2,2C3,20,1,22,1,22z"/>
<rect x="15" y="14" class="primary" width="2px" height="4px"/>
<rect x="2" y="6" class="shadow" width="3px" height="6px"/>
<polygon class="black" points="7,8 12,8 12,6 1,6 "/>
<rect x="7" y="8" class="shadow" width="4px" height="5px"/>
<polygon class="stripe" points="7,8 12,8 12,7 4,7 "/>
<polygon class="primary" points="21,1 12,1 15,0 21,0 "/>
<polygon class="black" points="1,6 11,1 11,2 3,6 "/>
<rect x="17" y="8" class="primary" width="3px" height="3px"/>
<polygon class="window" points="12,6 13,1 13,8 "/>
<rect x="14" y="1" class="window" width="4px" height="8px"/>
<polygon class="window" points="20,8 18,8 18,1 19,1 "/>
<polygon class="shadow" points="20,8 18,8 18,1 19,1 "/>
<rect x="14" y="8" class="black" width="4px" height="1px"/>
<path class="secondary" d="M26,5c0.6,0,1,0.4,1,1c0,0,0,1,0,2c0,2,3,6,3,6h-1c0,0-4-3-4-8C25,5.4,25.4,5,26,5z"/>
<path class="shadow" d="M26,5c0.6,0,1,0.4,1,1c0,0,0,1,0,2c0,2,3,6,3,6h-1c0,0-4-3-4-8C25,5.4,25.4,5,26,5z"/>
<circle class="secondary" cx="26" cy="6" r="1"/>
<polygon class="secondary" points="31,5 29,4 28,4 26,5 26,7 31,7 "/>
<path class="secondary" d="M31,5c-0.6,0-1,0.4-1,1c0,0,0,1,0,2c0,2-3,6-3,6h1c0,0,4-3,4-8C32,5.4,31.6,5,31,5z"/>
<rect x="21" y="10" class="black" width="2px" height="3px"/>
<polygon class="black" points="29,4 29,2 27,1 "/>
<rect x="21.5" y="7" class="grey" width="1px" height="3px"/>
<circle class="black" cx="22" cy="7" r="1"/>
<path class="shadow" d="M23,15c-1.1,0-2,0.9-2,2c0,1.1,0.9,2,2,2s2-0.9,2-2C25,15.9,24.1,15,23,15z M23,18c-0.6,0-1-0.4-1-1
	c0-0.6,0.4-1,1-1s1,0.4,1,1C24,17.6,23.6,18,23,18z"/>
<polygon class="highlight" points="14,14 12,14 12,6 14,10 "/>
<circle class="black" cx="9" cy="17" r="5"/>
<circle class="secondary" cx="9" cy="17" r="2.8"/>
<path class="shadow" d="M9,15c-1.1,0-2,0.9-2,2c0,1.1,0.9,2,2,2s2-0.9,2-2C11,15.9,10.1,15,9,15z M9,18c-0.6,0-1-0.4-1-1
	c0-0.6,0.4-1,1-1s1,0.4,1,1C10,17.6,9.6,18,9,18z"/>
<rect x="14" y="1" class="shadow" width="1px" height="7px"/>
</svg>
