<svg version="1.1" id="Layer_1" xmlns="http://www.w3.org/2000/svg" xmlns:xlink="http://www.w3.org/1999/xlink" x="0px" y="0px" viewBox="0 0 32 22" style="enable-background:new 0 0 32 22;" xml:space="preserve" width="32px" height="22px" fill="#333">
<style type="text/css">
    .shadow{opacity:0.3;}
    .grey{fill:#808082;}
    .window{fill:#BBE3F3;}
    .primary{fill:#339647;}
    .stripe{fill:#EBD909;}
</style>
<polygon class="black" points="20,15 18,4 11,4 11,15 "/>
<polygon class="window" points="17,15 20,7 21,7 18,14 "/>
<polygon class="window" points="22,6 28,3 28,2 22,5 "/>
<path class="black" d="M24,3l-5,3v1c0,0.6,0.4,1,1,1s1-0.4,1-1l4-2L24,3z"/>
<rect x="11" y="4" class="primary" width="7px" height="1px"/>
<polygon class="window" points="26,13 28,8 29,8 27,13 "/>
<path class="black" d="M20,18l-3-1h-3v-2h-4v2H7l-3,1c-1.1,0-2,0.9-2,2c0,1.1,0.9,2,2,2h16c1.1,0,2-0.9,2-2C22,18.9,21.1,18,20,18z"/>
<path class="grey" d="M28,0c0,0-7.9,2.6-9,3c-2,0.8-2.7,1.6-3,2c-0.9,1.4-6,9-6,9h6c0,0,2.4-5.9,3-7c1-2,9-6,9-6V0z"/>
<path class="grey" d="M20,19H4c-0.6,0-1,0.4-1,1c0,0.6,0.4,1,1,1h16c0.6,0,1-0.4,1-1C21,19.4,20.6,19,20,19z"/>
<path class="black" d="M30,0h-2v2c-0.6,0-1,0.4-1,1c0,0.6,0.4,1,1,1v3c-0.6,0-1,0.4-1,1c0,0.6,0.4,1,1,1v4c0,0.6,0.4,1,1,1s1-0.4,1-1c0-0.6,0-2,0-2s2-8,2-8C32,0,30,0,30,0z"/>
<path class="black" d="M31,16v-1v-1v0l-6-2v1l4.2,1.4L30,16c-0.6,0-1,0.4-1,1v1v1l1,3v-3h1v3l1-3v-1v-1C32,16.4,31.6,16,31,16z"/>
<polygon class="grey" points="19,15 16,15 17.5,12 19,12 "/>
<path class="primary" d="M0,10l0,5c0,0.5,0.5,1,1,1h19l0-1l-4-2h-5v-3H0z"/>
<rect x="2" y="10" class="shadow" width="1px" height="6px"/>
<polygon class="stripe" points="3,14 18,14 20,15 3,15 "/>
<rect x="4" y="11" class="shadow" width="4px" height="2px"/>
</svg>
