<?xml version="1.0" encoding="utf-8"?>
<svg version="1.0" id="Layer_2" xmlns="http://www.w3.org/2000/svg" xmlns:xlink="http://www.w3.org/1999/xlink" x="0px" y="0px"
	 viewBox="0 0 32 32" style="enable-background:new 0 0 32 32;" xml:space="preserve" width="32px" height="32px" fill="#333">
<style type="text/css">
	.primary{fill:#009245;}
	.secondary{fill:#FFE500;}
	.tertiary{fill:#808080;}
	.quaternary{fill:#333333;}
	.quinary{fill:#E21936;}
	.window{opacity:0.3;fill:#5DC9E8;}
	.shadow{opacity:0.3;fill:#333333;}
	.highlight{opacity:0.3;fill:#FFFFFF;}
</style>
<g>
	<g>
		<path class="quaternary" d="M20.14,23.45h-5.27v-0.81h-5.7v0.81H4.32c-1.31,0-2.37,1.06-2.37,2.37c0,1.31,1.06,2.37,2.37,2.37
			h15.82c1.31,0,2.37-1.06,2.37-2.37C22.51,24.51,21.45,23.45,20.14,23.45z"/>
		<path class="tertiary" d="M20.22,24.73H4.24c-0.6,0-1,0.46-1,1.15s0.4,1.15,1,1.15h15.98c0.6,0,1-0.46,1-1.15
			S20.82,24.73,20.22,24.73z"/>
	</g>
	<g>
		<path class="primary" d="M19.95,11.74l-2.74-0.82l-0.27,0.39l-0.58-0.12l-4,0.29v2.99l-0.57-0.52H10.7l-1.61-1.4l-7.53,1.45
			l-0.08,0.62l-0.34,0.08l-0.89,5v1.48l1.44,1.47h17.16l0.21-0.87l1.03-8.63l0.26-0.98L19.95,11.74z M14.76,15.87l-1.81-1.06
			l-0.05-1.74l1.86-0.35L14.76,15.87z M18.33,19.14l-2.95-0.85l-0.11-5.64l0.88-0.12l3.04,0.72L18.33,19.14z"/>
	</g>
	<g>
		<path class="shadow" d="M19.95,11.74l-2.74-0.82l-0.27,0.39l-0.58-0.12l-4,0.29v2.99c0.98,0.58,1.96,1.15,2.94,1.73
			c0.04,2.15,0.09,4.3,0.13,6.45c1.14,0,2.28,0,3.42,0c0.07-0.29,0.14-0.58,0.21-0.87l1.03-8.63l0.26-0.98L19.95,11.74z
			 M14.76,15.87l-1.81-1.06l-0.05-1.74l1.86-0.35L14.76,15.87z M18.33,19.14l-2.95-0.85l-0.11-5.64l0.88-0.12l3.04,0.72L18.33,19.14
			z"/>
		<polygon class="window" points="18.33,19.14 15.38,18.29 15.26,12.65 16.14,12.53 19.18,13.25 		"/>
		<polyline class="window" points="14.77,12.71 14.76,15.87 12.96,14.81 12.91,13.07 14.77,12.71 		"/>
	</g>
	<g>
		<polyline class="highlight" points="9.03,13.72 7.63,12.82 3,13.72 9.03,13.72 		"/>
		<polygon class="secondary" points="14.92,21.86 3.72,21.86 3.72,21.25 14.64,21.25 		"/>
		<polyline class="highlight" points="15.29,16.19 12.36,14.46 9.03,14.46 9.03,16.19 15.29,16.19 		"/>
		<polygon class="quaternary" points="0.25,19.69 0.25,21.17 1.68,22.64 3.2,22.64 3.2,21.38 2.75,21.38 2.75,19.69 		"/>
		<polygon class="shadow" points="3,16.48 3,13.72 1.56,13.99 1.48,14.61 		"/>
		<polygon class="shadow" points="9.03,14.46 12.36,14.46 11.79,13.94 10.7,13.94 9.09,12.54 7.63,12.82 9.03,13.72 		"/>
		<polygon class="highlight" points="0.82,16.5 3,16.48 1.48,14.61 1.14,14.69 		"/>
		<rect x="3.72" y="14.6" class="shadow" width="4.46px" height="1.37px"/>
		<rect x="3.72" y="17.09" class="shadow" width="4.46px" height="3.45px"/>
		<rect x="8.75" y="17.09" class="shadow" width="4.46px" height="3.45px"/>
		<rect x="13.89" y="17.11" class="quaternary" width="1.11px" height="1.28px"/>
	</g>
</g>
<path class="quaternary" d="M23.79,23.73l0.03-2.47l2.76-2.8h2.94l0.06,0.21l-0.66,0.18l-0.42,0.94h-0.83v6.29
	c-0.96,0.03-1.93,0.06-2.89,0.09C24.43,25.35,24.11,24.54,23.79,23.73z"/>
<polyline class="quinary" points="24.68,25.95 25.34,25.46 25.58,25.75 29.9,25.75 30.61,26.06 30.61,27.67 29.93,28.12 
	25.61,28.12 25.07,27.81 24.68,25.95 "/>
<polygon class="quinary" points="26.57,18.45 25.46,19.59 25.79,22.1 25.49,22.42 25.49,25.46 25.65,25.59 29.57,25.59 29.57,24.97 
	30.08,24.97 30.08,23.51 29.57,23.51 29.57,23.02 27.9,23.02 27.9,22.67 31.15,22.67 31.75,22.35 31.75,21.39 31.18,21.08 
	27.93,21.08 27.93,18.45 "/>
<rect x="27.5" y="23.02" class="highlight" width="2.06px" height="1.07px"/>
<rect x="29.93" y="22.88" class="quaternary" width="1.02px" height="2.71px"/>
<path class="quaternary" d="M29.09,17.78v-0.25h-1.85v0.25h0.23c-0.1,0.61-0.2,1.22-0.3,1.83c0.01,1.01,0.02,2.03,0.03,3.04
	c-0.11,0.46-0.21,0.91-0.32,1.37c-0.05,0.1-0.08,0.21-0.08,0.33c0,0.43,0.34,0.78,0.76,0.78c0.42,0,0.76-0.35,0.76-0.78
	c0-1.58,0-3.15,0.01-4.73c0.2-0.61,0.4-1.23,0.59-1.84H29.09z"/>
<path class="highlight" d="M29.09,17.78v-0.25h-1.85v0.25h0.23c-0.1,0.61-0.3,1.83-0.3,1.83l1.16,0.01c0,0,0.4-1.23,0.59-1.84H29.09
	z"/>
<g>
	<polygon class="tertiary" points="22.48,7.95 22.12,7.65 22.84,6.86 23.18,7.19 	"/>
	<path class="quaternary" d="M27.13,5.77l-3.96-3.79l-0.66,0.46l0.04,1.35l-1.71,0.17l-6.51,7.25l-0.06,0.12l-1.69,3.24l2.65,1.56
		l2.14-3.67l2.44-0.79l-0.18-0.47l2.93-3.2l-0.52-0.45l-2.69,2.93l-0.06-0.16l3.35-3.91l0.01,0.24l1.89,1.79l2.9,5.72
		c-0.04,0.25-0.06,0.54-0.08,0.86v2.48h0.57v-0.88l0.57,0.08v0.8h0.54v-1.3l0.95-1.56L27.13,5.77z"/>
</g>
<g>
	<polygon class="tertiary" points="17.59,17.58 16.88,17.47 17.98,12.27 18.77,12.02 	"/>
	<path class="quaternary" d="M16.2,20.41c0.33,0,0.64,0.06,0.92,0.17l0.9-4.27l-1.04-0.16l-0.9,4.27
		C16.13,20.42,16.16,20.41,16.2,20.41z"/>
</g>
</svg>
