<?xml version="1.0" encoding="utf-8"?>
<svg version="1.0" id="Layer_1" xmlns="http://www.w3.org/2000/svg" xmlns:xlink="http://www.w3.org/1999/xlink" x="0px" y="0px"
	 viewBox="0 0 32 32" style="enable-background:new 0 0 32 32;" xml:space="preserve" width="32px" height="32px" fill="#333">
<style type="text/css">
	.primary{fill:#009245;}
	.secondary{fill:#FFE500;}
	.tertiary{fill:#808080;}
	.quaternary{fill:#333333;}
	.window{opacity:0.3;fill:#5DC9E8;}
	.shadow{opacity:0.3;fill:#333333;}
	.highlight{opacity:0.3;fill:#FFFFFF;}
</style>
<path class="quaternary" d="M4.75,12.12c0.52,0.02,1.04,0.8,1.04,1.24c0,0.44,0,0.65,0,0.65h0.25v1.92H4.75v-1.95c0,0,0.08,0,0.3,0
	c0.01-0.97-0.3-1.24-0.3-1.24V12.12z"/>
<g>
	<path class="primary" d="M0,19.92c0,0,0.65-3.98,1.29-4.29c1.31-0.62,4.7-1.6,5.97-1.77c1.27-0.17,1.52,0.05,1.53,0.52
		c0.04,1.19,0,4.47,0,4.47l-5.41,2.28L0,19.92z"/>
</g>
<rect x="20.67" y="12.47" transform="matrix(-0.9695 0.245 -0.245 -0.9695 44.1745 20.881)" class="tertiary" width="0.23px" height="1.44px"/>
<rect x="19.37" y="16.12" transform="matrix(-0.7071 0.7071 -0.7071 -0.7071 45.4025 15.1078)" class="tertiary" width="0.41px" height="1.68px"/>
<path class="quaternary" d="M21.93,15.96l-0.41,0.93l-0.12,1.39h-2.12l1.07-1.53h-1.15c-0.42,0-0.79-0.28-0.89-0.69l-0.38-1.42
	c-0.04-0.14-0.02-0.29,0.06-0.42l4.73-7.56c0.04-0.06,0.09-0.1,0.16-0.12L24.56,6l-0.07,0.15l-1.35,0.69l-3.98,6.69
	c0,0-0.16,0.28-0.29,0.57c-0.09,0.2-0.07,0.45-0.01,0.56c0.17,0.31,0.37,0.72,0.76,0.96c0.49,0.31,1.11,0.45,1.11,0.45l0.34-0.87
	l-0.33-1.4l0.36-0.08l0.2,0.71l1.13-1.53l2.38-5.06l0.51,0.24L21.93,15.96z"/>
<path class="quaternary" d="M23.08,12.58c-0.05-0.02-1.85-0.43-1.85-0.43s-0.43,0.46-0.68,0.51c-0.52,0.11,0.04-1.03,0.04-1.03
	l-0.45-0.56l0.41-0.79l1.01,0.27c0.35,0.09,0.68,0.28,0.93,0.55l0.86,0.89l0.07,0.39L23.08,12.58z"/>
<path class="quaternary" d="M29.09,12.12L24.56,6l-1,0.4c0,0-0.39,0.2-0.41,0.52c-0.02,0.32,0.48,1.12,0.89,1.36
	c0.3,0.17,0.82-0.04,1.09-0.04c0.11,0,0.21,0.05,0.29,0.15l3.89,5l0,0.37l-0.23,0.15l-0.02,0.37l-0.1,0.12l0,0.03l0.1,0.31
	l0.71-0.01l0.13-0.29l0-0.03l-0.11-0.12l-0.02-0.37l-0.21-0.15l-0.01-0.37L29.09,12.12z"/>
<path class="quaternary" d="M0,19.92h0.29l0.2-0.7h2.74l0.29,0.7h1.18l1.22-0.62l1.72-0.92l1.01-0.89l-0.1-2.61l0.22-0.62l0.37,2.65
	v2.64h0.67l1.32-0.25l1.6-0.72l0.77-0.01l0.01-0.05c0,0-0.8-0.43-0.94-0.52c-0.17-0.11-0.85-0.24-1.02-0.29
	c-0.25-0.07-0.84-0.24-1.05-0.41c-0.39-0.34-0.66-1.86-0.66-1.86l6.61,0.15l0.45,0.49c0,0-0.35,1-0.43,1.21
	c-0.12,0.3-0.43,0.93-0.43,0.93l-0.02,0.51l0.03,1.12l1.1,0.35l1.64,0.04c0,0,0.28-0.53,0.29-0.71c0.02-0.25,0.02-0.66,0.02-1
	c-0.01-0.34,0.19-0.62,0.48-0.62c0.52,0,1.31,0,1.7,0c0.4,0,0.51,0.32,0.57,0.48c0.08,0.23,0.16,0.76,0.24,0.99
	c0.09,0.26,0.29,0.89,0.29,0.89l1.06,0.25v2.44h-6.09l-0.77-0.6H14.9c-0.22,0-0.44,0.03-0.66,0.1l-0.61,0.2
	c-0.23,0.07-0.46,0.11-0.7,0.11H2.71l-2.09-1.62L0,19.92z"/>
<g>
	<polygon class="primary" points="18.27,18.24 15.6,18.24 15.6,20.24 18.79,20.24 	"/>
</g>
<polygon class="highlight" points="18.27,18.24 16.15,18.24 18.08,18.47 18.79,20.24 "/>
<path class="highlight" d="M22.44,20.29c0,0-0.26-0.61-0.34-0.89c-0.07-0.24-0.17-0.86-0.27-1.09c-0.07-0.16-0.17-0.42-0.56-0.42
	c-0.14,0-0.32,0-0.51,0c-0.85,0-0.85,0.03,0.07,0.19c0.44,0.08,0.68,0.26,0.75,0.48c0.06,0.19,0.59,1.69,0.59,1.69L22.44,20.29z"/>
<circle class="quaternary" cx="6.77" cy="21.95" r="4.05"/>
<circle class="secondary" cx="6.77" cy="21.95" r="2.03"/>
<circle class="quaternary" cx="16.44" cy="22.76" r="3.25"/>
<circle class="secondary" cx="16.44" cy="22.76" r="1.62"/>
<circle class="quaternary" cx="22.87" cy="22.76" r="3.25"/>
<circle class="secondary" cx="22.87" cy="22.76" r="1.62"/>
<path class="secondary" d="M1.18,16.57c0,0,2.56-1.02,3.67-1.3c0.91-0.23,3.46-0.76,3.46-0.76l-0.42-0.54c0,0-2.18,0.48-3.11,0.73
	c-1.05,0.28-3.57,1.21-3.57,1.21L1.18,16.57z"/>
<path class="window" d="M9.66,11.09l-0.35,4.27l0.35,0.1l6.79,0.14c0,0-0.08-2.36-1.17-3.68s-2.23-1.57-2.8-1.62
	c-0.57-0.05-2.58,0.22-2.58,0.22L9.66,11.09z"/>
<polygon class="quaternary" points="12.85,10.39 13.27,9.88 14.84,9.88 14.67,10.6 14.41,10.87 "/>
<g>
	<path class="primary" d="M16.59,15.72l-0.47,0.92c-0.34,0.67-1.03,1.08-1.77,1.08h-0.17h-0.92c-0.36,0-0.7-0.2-0.87-0.51l-0.64-1.4
		l-2.43-0.07v-0.38l2.43,0l0.03-3.64l0-0.65l-2.11,0.02c0,0,0.08-0.59,0.11-0.76c0.01-0.06,0.08-0.14,0.19-0.15
		c0.43-0.03,1.54-0.07,1.92-0.07c0.56,0.01,1.23,0.1,2.15,0.52c2.12,0.96,2.36,3.65,2.47,4.39C16.56,15.43,16.59,15.72,16.59,15.72z
		 M16.03,15.47c0,0-0.03-0.3-0.06-0.8c-0.1-1.39-0.87-3.57-2.94-3.92c-0.23-0.04-0.61-0.05-0.61-0.05l-0.04,4.66L16.03,15.47z"/>
</g>
<path class="shadow" d="M7.92,18.59l-0.55-3.07c-0.01-0.08-0.08-0.14-0.16-0.13c-0.34,0.05-1.25,0.18-1.67,0.26
	c-0.41,0.08-1.49,0.37-1.87,0.47c-0.08,0.02-0.12,0.1-0.1,0.19l0.64,3.12c0.02,0.1,0.12,0.15,0.2,0.11
	c0.34-0.16,1.13-0.53,1.69-0.62c0.59-0.1,1.35-0.13,1.68-0.14C7.88,18.77,7.94,18.69,7.92,18.59z"/>
<circle class="shadow" cx="22.87" cy="22.76" r="0.94"/>
<circle class="shadow" cx="16.44" cy="22.76" r="0.94"/>
<circle class="shadow" cx="6.77" cy="21.95" r="0.94"/>
<path class="shadow" d="M11.96,16.3l-0.22-0.49l-2.43-0.07v-0.38l2.43,0l0.03-3.64l0-0.65l-2.11,0.02c0,0,0.08-0.59,0.11-0.76
	c0.01-0.06,0.08-0.14,0.19-0.15c0.43-0.03,1.54-0.08,1.92-0.07c0.03,0,0.08,0,0.08,0L11.96,16.3z"/>
<path class="quaternary" d="M29.77,18.62c0,0-0.89,0.25-1.22,0.34c-0.05,0.01-0.09,0-0.1-0.04c-0.1-0.57-0.47-2.65-0.47-2.65
	s-0.17-0.09-0.18-0.14c-0.01-0.06,0.11-0.22,0.11-0.22s-0.07-0.39-0.1-0.53c-0.01-0.06,0.01-0.11,0.07-0.12
	c0.28-0.05,0.81-0.15,0.81-0.15h1.07V18.62z"/>
<polygon class="secondary" points="28.95,14.42 28.34,15.43 28.52,15.53 29.33,17.31 29.61,17.31 29.61,17.86 28.97,17.86 
	28.97,18.75 28.66,18.92 29.2,20.04 32,20.04 32,19.23 30.86,19.23 30.86,19.58 29.89,19.58 29.89,18.87 31,18.87 31,18.62 
	29.9,18.62 29.9,17.96 30.13,17.96 30.12,16.26 29.9,16.26 29.9,15.65 30.97,15.65 30.97,15.41 29.89,15.41 29.9,14.42 "/>
<path class="quaternary" d="M30.87,16.14h-0.69c-0.08,0-0.15,0.07-0.15,0.15v1.64c0,0.08,0.07,0.15,0.15,0.15h0.69
	c0.08,0,0.15-0.07,0.15-0.15v-1.64C31.02,16.21,30.95,16.14,30.87,16.14z"/>
<path class="quaternary" d="M11.75,10.3l-0.03,0.57l-2.08,0.05l0.08-0.55L11.75,10.3z"/>
</svg>
