<svg version="1.1" xmlns="http://www.w3.org/2000/svg" xmlns:xlink="http://www.w3.org/1999/xlink" x="0px" y="0px" viewBox="0 0 420 120" enable-background="new 0 0 420 120" xml:space="preserve" width="420px" height="120px" fill="#333">
	<path fill="#FAFAFA" d="M417,120H3c-1.7,0-3-1.3-3-3V3c0-1.7,1.3-3,3-3h414c1.7,0,3,1.3,3,3v114C420,118.7,418.7,120,417,120z"/>
	<path fill="#F3ECE6" d="M0,51.7c0,0,12.1,0.1,23.3-7.2s14.2-10,19.3-12.7s12.9-1.2,15.6,1.8c2.7,3,9.4,9.9,18.7,12.4
		c9.3,2.4,21.9,0.8,26.3-0.6c4.5-1.4,13.8,1.5,16.4,2.8c0,0,30,12.8,56.7,25.7c20.2,9.8,29.4,18,40,18s71.1,0,80.6,0
		c16.7,0,26.5-13.9,34.8-20.2c8.3-6.2,12.3-10,19.6-7c7.2,3,15.3,6.3,15.3,6.3c7.8,4.3,18.4-9.4,30.5-18.3
		c10.3-7.5,22.8-7.3,22.8-7.3V118c0,1.1-0.9,2-2,2H2c-1.1,0-2-0.9-2-2V51.7z"/>
	<path fill="#E8E2DC" d="M77,46c-9.3-2.4-16-9.4-18.7-12.4c-2.7-3-7.4-1.9-7.2,2.2s17.5,25.6-8.7,53.4C15.8,117.5,89.9,134.5,77,46z
		"/>
	<path fill="#E8E2DC" d="M249.3,120C196,110,206.8,91.1,199,86c-19-12.3-81.2-39-81.2-39s16,9.1,18.7,20c3.2,13.2-6.9,23.3,5.2,53
		H249.3z"/>
	<path fill="#E8E2DC" d="M367.7,71.4c0,0-9.1-3.6-16.3-6.7c-1.8-0.8-4.8,8.8-1.5,17.8c3.8,10.1,14.5,27.9,20,27.5
		C377.5,109.4,367.7,71.4,367.7,71.4z"/>
	<path fill="none" stroke="#E2DCD7" stroke-linecap="round" stroke-linejoin="round" stroke-miterlimit="10" d="M24.6,43.6
		c0,0-13.6,25.5,12.1,23.3s19.7-7.7,33-23.8"/>
	<path fill="none" stroke="#E2DCD7" stroke-linecap="round" stroke-linejoin="round" stroke-miterlimit="10" d="M9,51
		c0,0-6.4,44.2,17.6,42.2S66,78.7,75.8,45.6"/>
	<path fill="none" stroke="#E2DCD7" stroke-linecap="round" stroke-linejoin="round" stroke-miterlimit="10" d="M148.8,60.9
		c-1.6,12.6-8,16.8-23.7,19.1c-16.5,2.5-33.5,1.7-40.4-13.1c-6.5-14-12.8,16.8-15.8,23c-9.9,20.5-35.6,18.6-49.6,17.6
		C5.2,106.5,1,97.7,1,97.7"/>
	<path fill="none" stroke="#E2DCD7" stroke-linecap="round" stroke-linejoin="round" stroke-miterlimit="10" d="M90.4,47.2
		c0,0-10,16.5,18.8,15.8s25.7-8,25.7-8"/>
	<path fill="none" stroke="#E2DCD7" stroke-linecap="round" stroke-linejoin="round" stroke-miterlimit="10" d="M74.1,119
		c0,0,10-17.7,10-27.2s6.7-6.5,17.5,2.8c12.4,10.7,65.5,14.8,67-24.6"/>
	<path fill="none" stroke="#E2DCD7" stroke-linecap="round" stroke-linejoin="round" stroke-miterlimit="10" d="M190,81
		c0,0-1.4,26.8-19.6,38"/>
	<path fill="none" stroke="#E2DCD7" stroke-linecap="round" stroke-linejoin="round" stroke-miterlimit="10" d="M209.2,90.6
		c0,0-6.2,18.4,12.8,28.4"/>
	<path fill="none" stroke="#E2DCD7" stroke-linecap="round" stroke-linejoin="round" stroke-miterlimit="10" d="M335.7,68.8
		c0,0-6.3,4.3-3.6,8.2c2.7,3.9,22.5-0.7,24.7-5.3c2.2-4.7-2.8-5.9-2.8-5.9"/>
	<path fill="none" stroke="#E2DCD7" stroke-linecap="round" stroke-linejoin="round" stroke-miterlimit="10" d="M325.8,77
		c0,0-9.1,12.5-0.8,14s33.3-0.1,38.1-7.7s4.8-11.1,1.8-13"/>
	<path fill="none" stroke="#E2DCD7" stroke-linecap="round" stroke-linejoin="round" stroke-miterlimit="10" d="M311.2,88.2
		c0,0-6.8,4.6-6.5,9.6c1.5,23.2,26.9,16.2,43.7,10c15.6-5.8,21.9-17.1,23-24.6s2.8-3.3,6.8,2.7s20.6,20.6,40.8,20.6"/>
	<path fill="none" stroke="#E2DCD7" stroke-linecap="round" stroke-linejoin="round" stroke-miterlimit="10" d="M386.5,61.6
		c0,0-9,7-5.2,12.6c3.8,5.7,18.4,15.4,37.7,15.4"/>
	<path fill="none" stroke="#E2DCD7" stroke-linecap="round" stroke-linejoin="round" stroke-miterlimit="10" d="M399.2,51.3
		c0,0-8.2,6.7-6.5,15.1s26.3,6,26.3,6"/>
	<path fill="none" stroke="#E2DCD7" stroke-linecap="round" stroke-linejoin="round" stroke-miterlimit="10" d="M413.7,45.9
		c0,0-12.4,5.5-6.1,11.9c3.5,3.6,11.4,1.9,11.4,1.9"/>
	<path fill="none" stroke="#E2DCD7" stroke-linecap="round" stroke-linejoin="round" stroke-miterlimit="10" d="M1,51.7
		c0,0,11.1,0.1,22.3-7.2s14.2-10,19.3-12.7s12.9-1.2,15.6,1.8c2.7,3,9.4,9.9,18.7,12.4c9.3,2.4,21.9,0.8,26.3-0.6
		c4.5-1.4,13.8,1.5,16.4,2.8c0,0,30,12.8,56.7,25.7c20.2,9.8,29.4,18,40,18s71.1,0,80.6,0c16.7,0,26.5-13.9,34.8-20.2
		c8.3-6.2,12.3-10,19.6-7c7.2,3,15.3,6.3,15.3,6.3c7.8,4.3,18.4-9.4,30.5-18.3c10.3-7.5,21.8-7.3,21.8-7.3"/>
	<path fill="#E2DCD7" d="M417,1c1.1,0,2,0.9,2,2v114c0,1.1-0.9,2-2,2H3c-1.1,0-2-0.9-2-2V3c0-1.1,0.9-2,2-2H417 M417,0H3
		C1.3,0,0,1.3,0,3v114c0,1.7,1.3,3,3,3h414c1.7,0,3-1.3,3-3V3C420,1.3,418.7,0,417,0L417,0z"/>
</svg>
